%TF.GenerationSoftware,KiCad,Pcbnew,10.0.6*%
%TF.CreationDate,2026-09-12T22:21:27-08:00*%
%TF.ProjectId,RykerConnect,52796b65-7243-46f6-9e6e-6563742e6b69,01*%
%TF.SameCoordinates,Original*%
%TF.FileFunction,Copper,L1,Top*%
%TF.FilePolarity,Positive*%
%FSLAX46Y46*%
G04 Gerber Fmt 4.6, Leading zero omitted, Abs format (unit mm)*
G04 Created by KiCad (PCBNEW 10.0.6) date 2026-09-12 22:21:27*
%MOMM*%
%LPD*%
G01*
G04 APERTURE LIST*
G04 Aperture macros list*
%AMRoundRect*
0 Rectangle with rounded corners*
0 $1 Rounding radius*
0 $2 $3 $4 $5 $6 $7 $8 $9 X,Y pos of 4 corners*
0 Add a 4 corners polygon primitive as box body*
4,1,4,$2,$3,$4,$5,$6,$7,$8,$9,$2,$3,0*
0 Add four circle primitives for the rounded corners*
1,1,$1+$1,$2,$3*
1,1,$1+$1,$4,$5*
1,1,$1+$1,$6,$7*
1,1,$1+$1,$8,$9*
0 Add four rect primitives between the rounded corners*
20,1,$1+$1,$2,$3,$4,$5,0*
20,1,$1+$1,$4,$5,$6,$7,0*
20,1,$1+$1,$6,$7,$8,$9,0*
20,1,$1+$1,$8,$9,$2,$3,0*%
G04 Aperture macros list end*
%TA.AperFunction,Conductor*%
%ADD10C,0.200000*%
%TD*%
%TA.AperFunction,SMDPad,CuDef*%
%ADD11RoundRect,0.237500X-0.237500X0.300000X-0.237500X-0.300000X0.237500X-0.300000X0.237500X0.300000X0*%
%TD*%
%TA.AperFunction,SMDPad,CuDef*%
%ADD12R,1.000000X0.900000*%
%TD*%
%TA.AperFunction,SMDPad,CuDef*%
%ADD13R,0.550000X1.700000*%
%TD*%
%TA.AperFunction,SMDPad,CuDef*%
%ADD14RoundRect,0.237500X0.300000X0.237500X-0.300000X0.237500X-0.300000X-0.237500X0.300000X-0.237500X0*%
%TD*%
%TA.AperFunction,SMDPad,CuDef*%
%ADD15RoundRect,0.237500X0.237500X-0.300000X0.237500X0.300000X-0.237500X0.300000X-0.237500X-0.300000X0*%
%TD*%
%TA.AperFunction,ComponentPad*%
%ADD16R,1.520000X1.520000*%
%TD*%
%TA.AperFunction,ComponentPad*%
%ADD17C,1.520000*%
%TD*%
%TA.AperFunction,SMDPad,CuDef*%
%ADD18R,2.500000X5.100000*%
%TD*%
%TA.AperFunction,SMDPad,CuDef*%
%ADD19C,17.800000*%
%TD*%
%TA.AperFunction,SMDPad,CuDef*%
%ADD20R,1.553100X0.609806*%
%TD*%
%TA.AperFunction,SMDPad,CuDef*%
%ADD21RoundRect,0.250000X0.350000X0.450000X-0.350000X0.450000X-0.350000X-0.450000X0.350000X-0.450000X0*%
%TD*%
%TA.AperFunction,SMDPad,CuDef*%
%ADD22RoundRect,0.237500X-0.300000X-0.237500X0.300000X-0.237500X0.300000X0.237500X-0.300000X0.237500X0*%
%TD*%
%TA.AperFunction,SMDPad,CuDef*%
%ADD23RoundRect,0.150000X-0.150000X-0.512500X0.150000X-0.512500X0.150000X0.512500X-0.150000X0.512500X0*%
%TD*%
%TA.AperFunction,SMDPad,CuDef*%
%ADD24RoundRect,0.150000X-0.150000X-0.550000X0.150000X-0.550000X0.150000X0.550000X-0.150000X0.550000X0*%
%TD*%
%TA.AperFunction,SMDPad,CuDef*%
%ADD25RoundRect,0.075000X-0.075000X-0.622500X0.075000X-0.622500X0.075000X0.622500X-0.075000X0.622500X0*%
%TD*%
%TA.AperFunction,ComponentPad*%
%ADD26O,1.000000X2.100000*%
%TD*%
%TA.AperFunction,ComponentPad*%
%ADD27O,1.000000X1.800000*%
%TD*%
%TA.AperFunction,SMDPad,CuDef*%
%ADD28C,2.000000*%
%TD*%
%TA.AperFunction,SMDPad,CuDef*%
%ADD29RoundRect,0.250000X-0.475000X0.337500X-0.475000X-0.337500X0.475000X-0.337500X0.475000X0.337500X0*%
%TD*%
%TA.AperFunction,ComponentPad*%
%ADD30C,2.600000*%
%TD*%
%TA.AperFunction,ConnectorPad*%
%ADD31C,3.800000*%
%TD*%
%TA.AperFunction,SMDPad,CuDef*%
%ADD32R,2.250000X1.200000*%
%TD*%
%TA.AperFunction,SMDPad,CuDef*%
%ADD33RoundRect,0.150000X-0.150000X-0.625000X0.150000X-0.625000X0.150000X0.625000X-0.150000X0.625000X0*%
%TD*%
%TA.AperFunction,SMDPad,CuDef*%
%ADD34RoundRect,0.250000X-0.350000X-0.650000X0.350000X-0.650000X0.350000X0.650000X-0.350000X0.650000X0*%
%TD*%
%TA.AperFunction,SMDPad,CuDef*%
%ADD35RoundRect,0.100000X-0.100000X0.712500X-0.100000X-0.712500X0.100000X-0.712500X0.100000X0.712500X0*%
%TD*%
%TA.AperFunction,SMDPad,CuDef*%
%ADD36R,0.650000X1.525000*%
%TD*%
%TA.AperFunction,SMDPad,CuDef*%
%ADD37RoundRect,0.250000X-0.450000X0.350000X-0.450000X-0.350000X0.450000X-0.350000X0.450000X0.350000X0*%
%TD*%
%TA.AperFunction,SMDPad,CuDef*%
%ADD38R,0.900000X1.500000*%
%TD*%
%TA.AperFunction,SMDPad,CuDef*%
%ADD39R,1.500000X0.900000*%
%TD*%
%TA.AperFunction,SMDPad,CuDef*%
%ADD40R,0.450000X0.475000*%
%TD*%
%TA.AperFunction,SMDPad,CuDef*%
%ADD41RoundRect,0.150000X0.150000X-0.512500X0.150000X0.512500X-0.150000X0.512500X-0.150000X-0.512500X0*%
%TD*%
%TA.AperFunction,SMDPad,CuDef*%
%ADD42RoundRect,0.150000X-0.625000X0.150000X-0.625000X-0.150000X0.625000X-0.150000X0.625000X0.150000X0*%
%TD*%
%TA.AperFunction,SMDPad,CuDef*%
%ADD43RoundRect,0.250000X-0.650000X0.350000X-0.650000X-0.350000X0.650000X-0.350000X0.650000X0.350000X0*%
%TD*%
%TA.AperFunction,SMDPad,CuDef*%
%ADD44RoundRect,0.150000X0.150000X0.625000X-0.150000X0.625000X-0.150000X-0.625000X0.150000X-0.625000X0*%
%TD*%
%TA.AperFunction,SMDPad,CuDef*%
%ADD45RoundRect,0.250000X0.350000X0.650000X-0.350000X0.650000X-0.350000X-0.650000X0.350000X-0.650000X0*%
%TD*%
%TA.AperFunction,SMDPad,CuDef*%
%ADD46RoundRect,0.250000X0.450000X-0.350000X0.450000X0.350000X-0.450000X0.350000X-0.450000X-0.350000X0*%
%TD*%
%TA.AperFunction,ViaPad*%
%ADD47C,0.600000*%
%TD*%
%TA.AperFunction,ViaPad*%
%ADD48C,0.500000*%
%TD*%
%TA.AperFunction,ViaPad*%
%ADD49C,0.800000*%
%TD*%
%TA.AperFunction,Conductor*%
%ADD50C,0.300000*%
%TD*%
%TA.AperFunction,Conductor*%
%ADD51C,0.500000*%
%TD*%
%TA.AperFunction,Conductor*%
%ADD52C,0.150000*%
%TD*%
%TA.AperFunction,Conductor*%
%ADD53C,0.800000*%
%TD*%
%TA.AperFunction,Conductor*%
%ADD54C,1.200000*%
%TD*%
%TA.AperFunction,Conductor*%
%ADD55C,1.000000*%
%TD*%
%TA.AperFunction,Conductor*%
%ADD56C,0.400000*%
%TD*%
%TA.AperFunction,Conductor*%
%ADD57C,0.350000*%
%TD*%
%TA.AperFunction,Conductor*%
%ADD58C,0.130000*%
%TD*%
G04 APERTURE END LIST*
%TO.N,GND*%
D10*
X22425000Y16925000D02*
X22500000Y26900000D01*
%TD*%
D11*
%TO.P,C8,1*%
%TO.N,/Power/5V USB IN*%
X74600000Y12362500D03*
%TO.P,C8,2*%
%TO.N,GND*%
X74600000Y10637500D03*
%TD*%
D12*
%TO.P,S1,1,NO_1_1*%
%TO.N,unconnected-(S1-NO_1-Pad1)*%
X84000000Y5775000D03*
%TO.P,S1,2,COM_1_2*%
%TO.N,GPIO0*%
X85600000Y5775000D03*
%TO.P,S1,3,COM_2_3*%
%TO.N,unconnected-(S1-COM_2-Pad3)*%
X85600000Y1675000D03*
%TO.P,S1,4,NO_2_4*%
%TO.N,GND*%
X84000000Y1675000D03*
D13*
%TO.P,S1,5,GND_5*%
X83325000Y3725000D03*
%TD*%
D14*
%TO.P,C3,1*%
%TO.N,+3.3V*%
X3702500Y25840000D03*
%TO.P,C3,2*%
%TO.N,GND*%
X1977500Y25840000D03*
%TD*%
D15*
%TO.P,C7,1*%
%TO.N,CHIP_PU*%
X97000000Y28375000D03*
%TO.P,C7,2*%
%TO.N,GND*%
X97000000Y30100000D03*
%TD*%
D16*
%TO.P,J1,1,Pin_1_1*%
%TO.N,+12V*%
X55700000Y14200000D03*
D17*
%TO.P,J1,2,Pin_2_2*%
%TO.N,GND*%
X52700000Y14200000D03*
%TD*%
D18*
%TO.P,BT1,*%
%TO.N,*%
X10975000Y16925000D03*
%TO.P,BT1,1,+_1*%
%TO.N,Net-(BT1-+)*%
X33875000Y16925000D03*
D19*
%TO.P,BT1,2,-_2*%
%TO.N,GND*%
X22425000Y16925000D03*
%TD*%
D20*
%TO.P,U5,1,CB_1*%
%TO.N,Net-(U5-CB)*%
X61823450Y18150001D03*
%TO.P,U5,2,GND_2*%
%TO.N,GND*%
X61823450Y17200000D03*
%TO.P,U5,3,FB_3*%
%TO.N,+3.3V*%
X61823450Y16249999D03*
%TO.P,U5,4,EN_4*%
%TO.N,/Power/PWR IN*%
X64376550Y16249999D03*
%TO.P,U5,5,VIN_5*%
X64376550Y17200000D03*
%TO.P,U5,6,SW_6*%
%TO.N,Net-(U5-SW)*%
X64376550Y18150001D03*
%TD*%
D12*
%TO.P,S2,1,NO_1_1*%
%TO.N,unconnected-(S2-NO_1-Pad1)*%
X93600000Y1675000D03*
%TO.P,S2,2,COM_1_2*%
%TO.N,CHIP_PU*%
X92000000Y1675000D03*
%TO.P,S2,3,COM_2_3*%
%TO.N,unconnected-(S2-COM_2-Pad3)*%
X92000000Y5775000D03*
%TO.P,S2,4,NO_2_4*%
%TO.N,GND*%
X93600000Y5775000D03*
D13*
%TO.P,S2,5,GND_5*%
X94275000Y3725000D03*
%TD*%
D15*
%TO.P,C6,1*%
%TO.N,+3.3V*%
X100150000Y28375000D03*
%TO.P,C6,2*%
%TO.N,GND*%
X100150000Y30100000D03*
%TD*%
D21*
%TO.P,R6,1*%
%TO.N,GPIO7*%
X43975000Y12500000D03*
%TO.P,R6,2*%
%TO.N,GND*%
X41975000Y12500000D03*
%TD*%
D22*
%TO.P,C9,1*%
%TO.N,/Power/PWR IN*%
X62237500Y12500000D03*
%TO.P,C9,2*%
%TO.N,GND*%
X63962500Y12500000D03*
%TD*%
D23*
%TO.P,J2,A1,GND_A1*%
%TO.N,GND*%
X68910000Y7632500D03*
D24*
%TO.P,J2,A4,VBUS_A4*%
%TO.N,/Power/5V USB IN*%
X69710000Y7595000D03*
D25*
%TO.P,J2,A5,CC1_A5*%
%TO.N,Net-(J2-CC1)*%
X70860000Y7597500D03*
%TO.P,J2,A6,D+_A6*%
%TO.N,/D+ Con*%
X71860000Y7597500D03*
%TO.P,J2,A7,D-_A7*%
%TO.N,/D- Con*%
X72360000Y7597500D03*
%TO.P,J2,A8,SBU1_A8*%
%TO.N,unconnected-(J2-SBU1-PadA8)*%
X73360000Y7597500D03*
D24*
%TO.P,J2,A9,VBUS_A9*%
%TO.N,/Power/5V USB IN*%
X74510000Y7595000D03*
D23*
%TO.P,J2,A12,GND_A12*%
%TO.N,GND*%
X75310000Y7632500D03*
%TO.P,J2,B1,GND_B1*%
X75310000Y7632500D03*
D24*
%TO.P,J2,B4,VBUS_B4*%
%TO.N,/Power/5V USB IN*%
X74510000Y7595000D03*
D25*
%TO.P,J2,B5,CC2_B5*%
%TO.N,Net-(J2-CC2)*%
X73860000Y7597500D03*
%TO.P,J2,B6,D+_B6*%
%TO.N,/D+ Con*%
X72860000Y7597500D03*
%TO.P,J2,B7,D-_B7*%
%TO.N,/D- Con*%
X71360000Y7597500D03*
%TO.P,J2,B8,SBU2_B8*%
%TO.N,unconnected-(J2-SBU2-PadB8)*%
X70360000Y7597500D03*
D24*
%TO.P,J2,B9,VBUS_B9*%
%TO.N,/Power/5V USB IN*%
X69710000Y7595000D03*
D23*
%TO.P,J2,B12,GND_B12*%
%TO.N,GND*%
X68910000Y7632500D03*
D26*
%TO.P,J2,S1,SHIELD_S1*%
%TO.N,Net-(J2-SHIELD)*%
X67790000Y6900000D03*
D27*
X67790000Y2720000D03*
D26*
X76430000Y6900000D03*
D27*
X76430000Y2720000D03*
%TD*%
D28*
%TO.P,TP9,1,1_1*%
%TO.N,+3.3V*%
X27250000Y3500000D03*
%TD*%
D29*
%TO.P,C13,1*%
%TO.N,+3.3V*%
X54500000Y20237500D03*
%TO.P,C13,2*%
%TO.N,GND*%
X54500000Y18162500D03*
%TD*%
D30*
%TO.P,H2,1,1_1*%
%TO.N,GND*%
X99000000Y2500000D03*
D31*
X99000000Y2500000D03*
%TD*%
D28*
%TO.P,TP10,1,1_1*%
%TO.N,GND*%
X23975000Y3500000D03*
%TD*%
D22*
%TO.P,C10,1*%
%TO.N,/Power/PWR IN*%
X62237500Y14025000D03*
%TO.P,C10,2*%
%TO.N,GND*%
X63962500Y14025000D03*
%TD*%
D11*
%TO.P,C11,1*%
%TO.N,Net-(U5-SW)*%
X58300000Y20062500D03*
%TO.P,C11,2*%
%TO.N,Net-(U5-CB)*%
X58300000Y18337500D03*
%TD*%
%TO.P,C2,1*%
%TO.N,CHIP_PU*%
X89550000Y4600000D03*
%TO.P,C2,2*%
%TO.N,GND*%
X89550000Y2875000D03*
%TD*%
D32*
%TO.P,L1,1,1_1*%
%TO.N,Net-(U5-SW)*%
X65300000Y22200000D03*
%TO.P,L1,2,2_2*%
%TO.N,+3.3V*%
X60700000Y22200000D03*
%TD*%
D11*
%TO.P,C1,1*%
%TO.N,GPIO0*%
X88050000Y4600000D03*
%TO.P,C1,2*%
%TO.N,GND*%
X88050000Y2875000D03*
%TD*%
D33*
%TO.P,J4,1,Pin_1_1*%
%TO.N,+3.3V*%
X42500000Y10000000D03*
%TO.P,J4,2,Pin_2_2*%
%TO.N,GPIO7*%
X43500000Y10000000D03*
D34*
%TO.P,J4,MP*%
%TO.N,N/C*%
X41200000Y6125000D03*
X44800000Y6125000D03*
%TD*%
D35*
%TO.P,U2,1,SDA_1*%
%TO.N,SDA*%
X3775000Y31912500D03*
%TO.P,U2,2,SCL_2*%
%TO.N,SCL*%
X3125000Y31912500D03*
%TO.P,U2,3,Alert_3*%
%TO.N,unconnected-(U2-Alert-Pad3)*%
X2475000Y31912500D03*
%TO.P,U2,4,GND_4*%
%TO.N,GND*%
X1825000Y31912500D03*
%TO.P,U2,5,A2_5*%
X1825000Y27687500D03*
%TO.P,U2,6,A1_6*%
X2475000Y27687500D03*
%TO.P,U2,7,A0_7*%
X3125000Y27687500D03*
%TO.P,U2,8,V_{DD}_8*%
%TO.N,+3.3V*%
X3775000Y27687500D03*
%TD*%
D21*
%TO.P,R3,1*%
%TO.N,+3.3V*%
X88412500Y30750000D03*
%TO.P,R3,2*%
%TO.N,SCL*%
X86412500Y30750000D03*
%TD*%
D29*
%TO.P,C12,1*%
%TO.N,+3.3V*%
X56500000Y20237500D03*
%TO.P,C12,2*%
%TO.N,GND*%
X56500000Y18162500D03*
%TD*%
D21*
%TO.P,R4,1*%
%TO.N,+3.3V*%
X88412500Y28800000D03*
%TO.P,R4,2*%
%TO.N,SDA*%
X86412500Y28800000D03*
%TD*%
D28*
%TO.P,TP11,1,1_1*%
%TO.N,GPIO5*%
X17500000Y3500000D03*
%TD*%
D36*
%TO.P,U3,1,32KHZ_1*%
%TO.N,unconnected-(U3-32KHZ-Pad1)*%
X38720000Y19288000D03*
%TO.P,U3,2,VCC_2*%
%TO.N,+3.3V*%
X39990000Y19288000D03*
%TO.P,U3,3,~{INT}/SQW_3*%
%TO.N,unconnected-(U3-~{INT}{slash}SQW-Pad3)*%
X41260000Y19288000D03*
%TO.P,U3,4,~{RST}_4*%
%TO.N,CHIP_PU*%
X42530000Y19288000D03*
%TO.P,U3,5,GND_5*%
%TO.N,GND*%
X42530000Y24712000D03*
%TO.P,U3,6,VBAT_6*%
%TO.N,Net-(BT1-+)*%
X41260000Y24712000D03*
%TO.P,U3,7,SDA_7*%
%TO.N,SDA*%
X39990000Y24712000D03*
%TO.P,U3,8,SCL_8*%
%TO.N,SCL*%
X38720000Y24712000D03*
%TD*%
D37*
%TO.P,R2,1*%
%TO.N,Net-(J2-CC1)*%
X80450000Y5712500D03*
%TO.P,R2,2*%
%TO.N,GND*%
X80450000Y3712500D03*
%TD*%
D28*
%TO.P,TP12,1,1_1*%
%TO.N,GPIO6*%
X20750000Y3500000D03*
%TD*%
D38*
%TO.P,U4,1,GND_1*%
%TO.N,GND*%
X100460000Y26125000D03*
%TO.P,U4,2,3V3_2*%
%TO.N,+3.3V*%
X99190000Y26125000D03*
%TO.P,U4,3,EN_3*%
%TO.N,CHIP_PU*%
X97920000Y26125000D03*
%TO.P,U4,4,IO4_4*%
%TO.N,unconnected-(U4-IO4-Pad4)*%
X96650000Y26125000D03*
%TO.P,U4,5,IO5_5*%
%TO.N,GPIO5*%
X95380000Y26125000D03*
%TO.P,U4,6,IO6_6*%
%TO.N,GPIO6*%
X94110000Y26125000D03*
%TO.P,U4,7,IO7_7*%
%TO.N,GPIO7*%
X92840000Y26125000D03*
%TO.P,U4,8,IO15_8*%
%TO.N,DSP_RES*%
X91570000Y26125000D03*
%TO.P,U4,9,IO16_9*%
%TO.N,unconnected-(U4-IO16-Pad9)*%
X90300000Y26125000D03*
%TO.P,U4,10,IO17_10*%
%TO.N,unconnected-(U4-IO17-Pad10)*%
X89030000Y26125000D03*
%TO.P,U4,11,IO18_11*%
%TO.N,SCL*%
X87760000Y26125000D03*
%TO.P,U4,12,IO8_12*%
%TO.N,SDA*%
X86490000Y26125000D03*
%TO.P,U4,13,IO19_13*%
%TO.N,D-*%
X85220000Y26125000D03*
%TO.P,U4,14,IO20_14*%
%TO.N,D+*%
X83950000Y26125000D03*
D39*
%TO.P,U4,15,IO3_15*%
%TO.N,unconnected-(U4-IO3-Pad15)*%
X82700000Y24360000D03*
%TO.P,U4,16,IO46_16*%
%TO.N,unconnected-(U4-IO46-Pad16)*%
X82700000Y23090000D03*
%TO.P,U4,17,IO9_17*%
%TO.N,unconnected-(U4-IO9-Pad17)*%
X82700000Y21820000D03*
%TO.P,U4,18,IO10_18*%
%TO.N,CS1*%
X82700000Y20550000D03*
%TO.P,U4,19,IO11_19*%
%TO.N,SDA{slash}SDIN{slash}MOSI*%
X82700000Y19280000D03*
%TO.P,U4,20,IO12_20*%
%TO.N,SCL{slash}SCLK{slash}SCK*%
X82700000Y18010000D03*
%TO.P,U4,21,IO13_21*%
%TO.N,DC{slash}MISO*%
X82700000Y16740000D03*
%TO.P,U4,22,IO14_22*%
%TO.N,CS2*%
X82700000Y15470000D03*
%TO.P,U4,23,IO21_23*%
%TO.N,unconnected-(U4-IO21-Pad23)*%
X82700000Y14200000D03*
%TO.P,U4,24,IO47_24*%
%TO.N,unconnected-(U4-IO47-Pad24)*%
X82700000Y12930000D03*
%TO.P,U4,25,IO48_25*%
%TO.N,unconnected-(U4-IO48-Pad25)*%
X82700000Y11660000D03*
%TO.P,U4,26,IO45_26*%
%TO.N,unconnected-(U4-IO45-Pad26)*%
X82700000Y10390000D03*
D38*
%TO.P,U4,27,IO0_27*%
%TO.N,GPIO0*%
X83950000Y8625000D03*
%TO.P,U4,28,IO35_28*%
%TO.N,unconnected-(U4-IO35-Pad28)*%
X85220000Y8625000D03*
%TO.P,U4,29,IO36_29*%
%TO.N,unconnected-(U4-IO36-Pad29)*%
X86490000Y8625000D03*
%TO.P,U4,30,IO37_30*%
%TO.N,unconnected-(U4-IO37-Pad30)*%
X87760000Y8625000D03*
%TO.P,U4,31,IO38_31*%
%TO.N,unconnected-(U4-IO38-Pad31)*%
X89030000Y8625000D03*
%TO.P,U4,32,IO39_32*%
%TO.N,unconnected-(U4-IO39-Pad32)*%
X90300000Y8625000D03*
%TO.P,U4,33,IO40_33*%
%TO.N,unconnected-(U4-IO40-Pad33)*%
X91570000Y8625000D03*
%TO.P,U4,34,IO41_34*%
%TO.N,unconnected-(U4-IO41-Pad34)*%
X92840000Y8625000D03*
%TO.P,U4,35,IO42_35*%
%TO.N,unconnected-(U4-IO42-Pad35)*%
X94110000Y8625000D03*
%TO.P,U4,36,RXD0_36*%
%TO.N,RX*%
X95380000Y8625000D03*
%TO.P,U4,37,TXD0_37*%
%TO.N,TX*%
X96650000Y8625000D03*
%TO.P,U4,38,IO2_38*%
%TO.N,unconnected-(U4-IO2-Pad38)*%
X97920000Y8625000D03*
%TO.P,U4,39,IO1_39*%
%TO.N,unconnected-(U4-IO1-Pad39)*%
X99190000Y8625000D03*
%TO.P,U4,40,GND_40*%
%TO.N,GND*%
X100460000Y8625000D03*
%TD*%
D40*
%TO.P,D1,1*%
%TO.N,+12V*%
X62450000Y8462000D03*
%TO.P,D1,2,NC_2*%
%TO.N,unconnected-(D1-NC-Pad2)*%
X63100000Y8462000D03*
%TO.P,D1,3*%
%TO.N,/Power/5V USB IN*%
X63750000Y8462000D03*
%TO.P,D1,4*%
%TO.N,/Power/PWR IN*%
X63750000Y10638000D03*
%TO.P,D1,5*%
X62450000Y10638000D03*
%TD*%
D41*
%TO.P,U1,1,I/O1_1*%
%TO.N,/D- Con*%
X71150000Y10362500D03*
%TO.P,U1,2,GND_2*%
%TO.N,GND*%
X72100000Y10362500D03*
%TO.P,U1,3,I/O2_3*%
%TO.N,/D+ Con*%
X73050000Y10362500D03*
%TO.P,U1,4,I/O2_4*%
%TO.N,D+*%
X73050000Y12637500D03*
%TO.P,U1,5,VBUS_5*%
%TO.N,/Power/5V USB IN*%
X72100000Y12637500D03*
%TO.P,U1,6,I/O1_6*%
%TO.N,D-*%
X71150000Y12637500D03*
%TD*%
D42*
%TO.P,J5,1,Pin_1*%
%TO.N,GND*%
X5343900Y17279400D03*
%TO.P,J5,2,Pin_2*%
%TO.N,+3.3V*%
X5343900Y16279400D03*
%TO.P,J5,3,Pin_3*%
%TO.N,SDA*%
X5343900Y15279400D03*
%TO.P,J5,4,Pin_4*%
%TO.N,SCL*%
X5343900Y14279400D03*
D43*
%TO.P,J5,MP*%
%TO.N,GND*%
X1468900Y18579400D03*
X1468900Y12979400D03*
%TD*%
D22*
%TO.P,C4,1*%
%TO.N,+3.3V*%
X40137500Y17300000D03*
%TO.P,C4,2*%
%TO.N,GND*%
X41862500Y17300000D03*
%TD*%
D15*
%TO.P,C5,1*%
%TO.N,+3.3V*%
X98550000Y28375000D03*
%TO.P,C5,2*%
%TO.N,GND*%
X98550000Y30100000D03*
%TD*%
D44*
%TO.P,J3,1,Pin_1_1*%
%TO.N,GND*%
X78100000Y17200000D03*
%TO.P,J3,2,Pin_2_2*%
%TO.N,+3.3V*%
X77100000Y17200000D03*
%TO.P,J3,3,Pin_3_3*%
%TO.N,SCL{slash}SCLK{slash}SCK*%
X76100000Y17200000D03*
%TO.P,J3,4,Pin_4_4*%
%TO.N,SDA{slash}SDIN{slash}MOSI*%
X75100000Y17200000D03*
%TO.P,J3,5,Pin_5_5*%
%TO.N,DSP_RES*%
X74100000Y17200000D03*
%TO.P,J3,6,Pin_6_6*%
%TO.N,DC{slash}MISO*%
X73100000Y17200000D03*
%TO.P,J3,7,Pin_7_7*%
%TO.N,CS1*%
X72100000Y17200000D03*
%TO.P,J3,8,Pin_8_8*%
%TO.N,CS2*%
X71100000Y17200000D03*
D45*
%TO.P,J3,MP*%
%TO.N,N/C*%
X79400000Y21075000D03*
X69800000Y21075000D03*
%TD*%
D46*
%TO.P,R1,1*%
%TO.N,GND*%
X78500000Y3712500D03*
%TO.P,R1,2*%
%TO.N,Net-(J2-CC2)*%
X78500000Y5712500D03*
%TD*%
D37*
%TO.P,R5,1*%
%TO.N,+3.3V*%
X95250000Y30200000D03*
%TO.P,R5,2*%
%TO.N,CHIP_PU*%
X95250000Y28200000D03*
%TD*%
D30*
%TO.P,H1,1,1_1*%
%TO.N,GND*%
X9000000Y2500000D03*
D31*
X9000000Y2500000D03*
%TD*%
D47*
%TO.N,/Power/5V USB IN*%
X74500000Y8800000D03*
X72200000Y3700000D03*
X74225000Y5385000D03*
X69700000Y8800000D03*
D48*
%TO.N,GND*%
X45500000Y14500000D03*
X74750000Y2750000D03*
X44600000Y18800000D03*
X49000000Y10000000D03*
X36000000Y27000000D03*
D47*
X70225000Y12725000D03*
X83005460Y25926594D03*
D48*
X78070000Y22030000D03*
X59000000Y5000000D03*
X43250000Y27000000D03*
X44000000Y25500000D03*
X65000000Y5000000D03*
X58000000Y13250000D03*
X34000000Y12000000D03*
X70000000Y24000000D03*
X38000000Y3000000D03*
D47*
X68648387Y5651611D03*
D48*
X45990000Y32850000D03*
X15000000Y25000000D03*
D47*
X100450000Y24750000D03*
D48*
X67000000Y16000000D03*
X34000000Y29000000D03*
X60000000Y28000000D03*
X17000000Y27000000D03*
X74750000Y1700000D03*
X52000000Y24000000D03*
X91250000Y28200000D03*
X82700000Y1700000D03*
X61000000Y5000000D03*
X78000000Y10000000D03*
X17000000Y29000000D03*
X48000000Y9000000D03*
X96000000Y6000000D03*
X70000000Y26000000D03*
X11000000Y21000000D03*
X12000000Y12000000D03*
X76000000Y12000000D03*
D47*
X65100000Y15300000D03*
D48*
X36000000Y3000000D03*
X48990000Y32850000D03*
X48500000Y17500000D03*
D47*
X100460000Y26125000D03*
D48*
X44000000Y24750000D03*
X41250000Y16000000D03*
X68000000Y26000000D03*
X76000000Y10000000D03*
X62000000Y28000000D03*
X1000000Y18000000D03*
X67000000Y14000000D03*
D47*
X79502000Y3800000D03*
D48*
X5000000Y5000000D03*
X40000000Y10500000D03*
X59000000Y3000000D03*
X52000000Y7010000D03*
X80000000Y13500000D03*
X69000000Y10000000D03*
X54000000Y24000000D03*
X99000000Y7000000D03*
D47*
X88800000Y3000000D03*
D48*
X43990000Y32850000D03*
X1460779Y31912500D03*
X63000000Y3000000D03*
X92000000Y32000000D03*
X42500000Y26250000D03*
X38000000Y5000000D03*
X43250000Y17300000D03*
X77500000Y23000000D03*
D47*
X79000000Y17200000D03*
D48*
X5500000Y10000000D03*
X59250000Y12000000D03*
X38000000Y29000000D03*
X36000000Y29000000D03*
X48000000Y3000000D03*
X76000000Y26000000D03*
X94000000Y32000000D03*
X60000000Y26000000D03*
X36000000Y18000000D03*
X100400000Y5600000D03*
X50000000Y24000000D03*
X38000000Y15000000D03*
X48000000Y7000000D03*
X65000000Y3000000D03*
X99000000Y6000000D03*
X80000000Y10000000D03*
X69500000Y1700000D03*
X96000000Y2000000D03*
D47*
X75500000Y5500000D03*
D48*
X68000000Y24000000D03*
X90350000Y28200000D03*
X96000000Y1000000D03*
X32000000Y23000000D03*
X14000000Y10000000D03*
D47*
X72100000Y9600000D03*
D48*
X97000000Y6000000D03*
X58000000Y14500000D03*
X30000000Y8000000D03*
X100400000Y6600000D03*
X67000000Y12000000D03*
X97000000Y5000000D03*
X56640000Y6990000D03*
X45550000Y19850000D03*
X97700000Y31550000D03*
X16000000Y8000000D03*
X13000000Y23000000D03*
X61000000Y3000000D03*
X44000000Y26250000D03*
X98000000Y7000000D03*
X30000000Y25000000D03*
X65000000Y10000000D03*
X96000000Y3000000D03*
X30000000Y27000000D03*
X81800000Y1700000D03*
X50000000Y19000000D03*
X89550000Y1300000D03*
X77500000Y21000000D03*
X47000000Y29000000D03*
X56000000Y24000000D03*
D47*
X84300000Y3400000D03*
D48*
X28000000Y29000000D03*
X58000000Y28000000D03*
X99300000Y31550000D03*
X97700000Y32300000D03*
X58000000Y26000000D03*
X80500000Y25000000D03*
D47*
X60300000Y17200000D03*
D48*
X7000000Y10000000D03*
X47000000Y16000000D03*
X38000000Y27000000D03*
X32000000Y10000000D03*
X48000000Y5000000D03*
X51000000Y14000000D03*
X56000000Y28000000D03*
X77100000Y22050000D03*
X72000000Y26000000D03*
X28000000Y27000000D03*
X56000000Y26000000D03*
X65000000Y7000000D03*
X80200000Y25926594D03*
X42000000Y16000000D03*
X5000000Y3000000D03*
X50500000Y13000000D03*
X55200000Y17200000D03*
X44000000Y27000000D03*
X78000000Y13500000D03*
X61000000Y7000000D03*
X52000000Y26000000D03*
X25600000Y4650000D03*
X96150000Y32300000D03*
D47*
X79990000Y17200000D03*
D48*
X34000000Y27000000D03*
X54000000Y14000000D03*
X50500000Y10000000D03*
X42900000Y13800000D03*
X99300000Y32300000D03*
X3000000Y5000000D03*
X46000000Y28000000D03*
X80500000Y23000000D03*
X95000000Y33000000D03*
X76000000Y13500000D03*
X67000000Y18000000D03*
X58000000Y24000000D03*
X41250000Y15250000D03*
X59250000Y13250000D03*
X69500000Y2750000D03*
X54000000Y26000000D03*
X67000000Y10000000D03*
X77600000Y1700000D03*
X78000000Y12000000D03*
X78500000Y24000000D03*
D47*
X101200000Y7300000D03*
X100450000Y10150000D03*
D48*
X96150000Y31550000D03*
X1825000Y26500000D03*
X96000000Y4000000D03*
X40750000Y10500000D03*
X36000000Y20000000D03*
X63000000Y5000000D03*
X22500000Y27000000D03*
X40750000Y11250000D03*
X60000000Y11000000D03*
D47*
X85213908Y27338910D03*
D48*
X91000000Y33000000D03*
X60940000Y10030000D03*
X79500000Y25000000D03*
X43250000Y26250000D03*
X97000000Y7000000D03*
X75670000Y21020000D03*
X74000000Y26000000D03*
X63100000Y17200000D03*
X98000000Y6000000D03*
X50500000Y11500000D03*
X15000000Y29000000D03*
X93000000Y33000000D03*
X78500000Y23000000D03*
X79500000Y24000000D03*
X3000000Y3000000D03*
D47*
X93600000Y4850000D03*
X65100000Y14000000D03*
D48*
X54000000Y28000000D03*
D47*
X68910000Y7475000D03*
D48*
X96000000Y5000000D03*
X69000000Y12000000D03*
X7000000Y5000000D03*
X60550000Y13250000D03*
D47*
X59000000Y17200000D03*
D48*
X88000000Y1300000D03*
X80500000Y24000000D03*
X63000000Y7000000D03*
X79500000Y23000000D03*
X30000000Y29000000D03*
X76630000Y21010000D03*
D47*
X59700000Y17200000D03*
D48*
X78700000Y1700000D03*
X79950000Y1700000D03*
X80000000Y12000000D03*
D47*
X57700000Y17200000D03*
D48*
X66000000Y16000000D03*
X81050000Y1700000D03*
X15000000Y27000000D03*
D47*
X65000000Y12500000D03*
%TO.N,GPIO0*%
X85100000Y10400000D03*
D48*
%TO.N,+3.3V*%
X8510000Y25330000D03*
D47*
X83650000Y29300000D03*
X84200000Y15600000D03*
D48*
X95400000Y30100000D03*
X94050000Y30150000D03*
D47*
X99150000Y13650000D03*
X82900000Y29300000D03*
D49*
X35000000Y8590000D03*
D47*
X6143900Y16279400D03*
D48*
X10440000Y25310000D03*
D47*
X79200000Y16275000D03*
X9200000Y11000000D03*
X84425000Y29300000D03*
D49*
X38440000Y8590000D03*
D48*
X88400000Y31200000D03*
X88400000Y30300000D03*
%TO.N,CHIP_PU*%
X50340000Y31775000D03*
D47*
X88300000Y7000000D03*
X88300000Y14100000D03*
D48*
X50340000Y29900000D03*
%TO.N,GPIO7*%
X52340000Y29900000D03*
X52350000Y31775000D03*
D47*
%TO.N,/D+ Con*%
X72500000Y5650000D03*
%TO.N,/D- Con*%
X71749997Y5650000D03*
D48*
%TO.N,SDA*%
X8873946Y26406054D03*
X43393701Y30550809D03*
D47*
X9630000Y23440000D03*
D48*
X44825000Y30550000D03*
D47*
X7643900Y15279400D03*
D48*
X10375000Y26375000D03*
D47*
%TO.N,SCL*%
X5560000Y20300000D03*
X6743900Y14279400D03*
D48*
%TO.N,GPIO5*%
X51014152Y29889657D03*
X51014152Y31775000D03*
%TO.N,GPIO6*%
X51664124Y31775000D03*
X51664124Y29895876D03*
D47*
%TO.N,DSP_RES*%
X81300000Y16700000D03*
X84000000Y16700000D03*
%TO.N,RX*%
X92150000Y10450000D03*
%TO.N,TX*%
X94800000Y10450000D03*
%TD*%
%TO.N,/Power/5V USB IN*%
D50*
X69910000Y6817590D02*
X70100000Y6627590D01*
D51*
X66660000Y7400000D02*
X66029000Y8031000D01*
X68938337Y4951611D02*
X70948389Y4951611D01*
D50*
X69700000Y10215552D02*
X71159448Y11675000D01*
X69710000Y7475000D02*
X69910000Y7275000D01*
D51*
X68600000Y8800000D02*
X69700000Y8800000D01*
D50*
X72100000Y11675000D02*
X72100000Y12637500D01*
D51*
X68250000Y8450000D02*
X64850000Y8450000D01*
X64181000Y8031000D02*
X63750000Y8462000D01*
X68600000Y8800000D02*
X68250000Y8450000D01*
X69710000Y7595000D02*
X69710000Y8790000D01*
D50*
X74078052Y12362500D02*
X74600000Y12362500D01*
D51*
X67658389Y4951611D02*
X66660000Y5950000D01*
X74510000Y8790000D02*
X74510000Y7475000D01*
X66660000Y5950000D02*
X66660000Y7400000D01*
D50*
X73390552Y11675000D02*
X74078052Y12362500D01*
X74100000Y5510000D02*
X74100000Y6607590D01*
D51*
X68938337Y4951611D02*
X67658389Y4951611D01*
D50*
X74100000Y6607590D02*
X74510000Y7017590D01*
X71159448Y11675000D02*
X72100000Y11675000D01*
D51*
X64600000Y8450000D02*
X64850000Y8450000D01*
X64181000Y8031000D02*
X64600000Y8450000D01*
X69710000Y7475000D02*
X69710000Y8049999D01*
D50*
X70100000Y5900000D02*
X69151611Y4951611D01*
X69910000Y7275000D02*
X69910000Y6817590D01*
D51*
X70948389Y4951611D02*
X72200000Y3700000D01*
D50*
X69151611Y4951611D02*
X68938337Y4951611D01*
X72100000Y11675000D02*
X73390552Y11675000D01*
X74225000Y5385000D02*
X74100000Y5510000D01*
D51*
X64850000Y8450000D02*
X63762000Y8450000D01*
D50*
X69700000Y8800000D02*
X69700000Y10215552D01*
D51*
X66029000Y8031000D02*
X64181000Y8031000D01*
D50*
X69710000Y8790000D02*
X69700000Y8800000D01*
X74510000Y7017590D02*
X74510000Y7475000D01*
D51*
X63762000Y8450000D02*
X63750000Y8462000D01*
X74500000Y8800000D02*
X74510000Y8790000D01*
D50*
X70100000Y6627590D02*
X70100000Y5900000D01*
X72200000Y3700000D02*
X71980000Y3920000D01*
%TO.N,GND*%
X79476594Y25926594D02*
X83005460Y25926594D01*
D10*
X83350000Y3700000D02*
X83325000Y3725000D01*
D52*
X68515000Y5784998D02*
X68515000Y7080000D01*
D50*
X70225000Y12725000D02*
X70225000Y13975000D01*
D51*
X43962000Y24712000D02*
X44000000Y24750000D01*
D50*
X72500000Y14200000D02*
X70150000Y16550000D01*
D53*
X65075000Y15275000D02*
X65100000Y15300000D01*
X65100000Y14000000D02*
X65075000Y14025000D01*
D50*
X70225000Y13975000D02*
X68500000Y15700000D01*
X71825000Y18275000D02*
X79476594Y25926594D01*
D10*
X75500000Y5500000D02*
X75500000Y5600000D01*
D50*
X40000000Y10500000D02*
X40750000Y11250000D01*
D53*
X57462500Y17200000D02*
X56500000Y18162500D01*
X54500000Y17900000D02*
X54500000Y18162500D01*
D10*
X101200000Y7300000D02*
X100450000Y8050000D01*
D50*
X73400000Y13600000D02*
X72800000Y14200000D01*
D54*
X56500000Y18162500D02*
X54500000Y18162500D01*
D52*
X68515000Y7080000D02*
X68600000Y7165000D01*
D10*
X100460000Y26125000D02*
X100450000Y26115000D01*
D52*
X72100000Y10362500D02*
X72100000Y11024999D01*
D53*
X65075000Y14025000D02*
X63962500Y14025000D01*
X61949517Y17200000D02*
X60300000Y17200000D01*
D51*
X2475000Y26337500D02*
X1977500Y25840000D01*
D50*
X100460000Y26125000D02*
X101200000Y26865000D01*
D51*
X42530000Y24712000D02*
X43962000Y24712000D01*
X2475000Y27687500D02*
X3125000Y27687500D01*
D52*
X72100000Y9600000D02*
X72100000Y10362500D01*
D51*
X41862500Y17300000D02*
X43250000Y17300000D01*
D10*
X88675000Y2875000D02*
X88050000Y2875000D01*
D53*
X63962500Y14025000D02*
X63962500Y12500000D01*
D10*
X75310000Y8935000D02*
X75300000Y8925000D01*
D50*
X101200000Y29700000D02*
X100800000Y30100000D01*
X78100000Y17200000D02*
X79000000Y17200000D01*
D10*
X84000000Y3100000D02*
X84000000Y1675000D01*
D51*
X1825000Y27687500D02*
X1825000Y26675000D01*
X1825000Y27687500D02*
X2475000Y27687500D01*
D10*
X93600000Y4850000D02*
X94275000Y4175000D01*
D51*
X25125000Y4650000D02*
X23975000Y3500000D01*
D50*
X69675000Y19575000D02*
X70725000Y19575000D01*
X70150000Y17800000D02*
X70625000Y18275000D01*
D10*
X80362500Y3800000D02*
X80450000Y3712500D01*
X78587500Y3800000D02*
X78500000Y3712500D01*
X84300000Y3400000D02*
X84000000Y3100000D01*
D51*
X2475000Y27687500D02*
X2475000Y26337500D01*
X1825000Y26675000D02*
X2000000Y26500000D01*
D10*
X75300000Y8350000D02*
X75300000Y8200000D01*
D50*
X84652818Y27900000D02*
X85213908Y27338910D01*
D10*
X94275000Y4175000D02*
X94275000Y3725000D01*
D52*
X75705000Y7080000D02*
X75705000Y5805000D01*
D50*
X72800000Y14200000D02*
X72500000Y14200000D01*
D52*
X72350001Y11275000D02*
X73962500Y11275000D01*
D53*
X59700000Y17200000D02*
X59000000Y17200000D01*
D52*
X75705000Y5805000D02*
X75675000Y5775000D01*
D10*
X68648387Y5651611D02*
X68600000Y5699998D01*
D52*
X42062500Y12500000D02*
X42062500Y12962500D01*
D53*
X60300000Y17200000D02*
X59700000Y17200000D01*
D10*
X84300000Y3400000D02*
X84000000Y3700000D01*
D51*
X2000000Y26500000D02*
X2000000Y25862500D01*
D10*
X75310000Y9927500D02*
X75310000Y8935000D01*
X84000000Y1675000D02*
X82725000Y1675000D01*
X74600000Y10637500D02*
X75310000Y9927500D01*
D50*
X68500000Y18400000D02*
X69675000Y19575000D01*
X74825000Y13600000D02*
X73400000Y13600000D01*
D51*
X1825000Y25992500D02*
X1977500Y25840000D01*
X75310000Y8915000D02*
X75310000Y8360000D01*
D10*
X79502000Y3800000D02*
X80362500Y3800000D01*
D50*
X98550000Y30100000D02*
X100150000Y30100000D01*
D10*
X75300000Y8925000D02*
X75310000Y8915000D01*
D50*
X75475000Y12950000D02*
X74825000Y13600000D01*
X74600000Y10637500D02*
X75475000Y11512500D01*
D10*
X75500000Y5600000D02*
X75675000Y5775000D01*
X100450000Y8050000D02*
X100450000Y10150000D01*
D53*
X63962500Y12500000D02*
X65000000Y12500000D01*
D50*
X75475000Y11512500D02*
X75475000Y12950000D01*
D10*
X82700000Y1700000D02*
X81800000Y1700000D01*
X75300000Y8330000D02*
X75310000Y8340000D01*
X88925000Y2875000D02*
X89550000Y2875000D01*
X82725000Y1675000D02*
X82700000Y1700000D01*
X73962500Y11275000D02*
X74600000Y10637500D01*
D53*
X55200000Y17200000D02*
X54500000Y17900000D01*
D52*
X42062500Y12962500D02*
X42900000Y13800000D01*
D51*
X1825000Y26500000D02*
X1825000Y25992500D01*
D10*
X88800000Y3000000D02*
X88925000Y2875000D01*
D53*
X65075000Y14025000D02*
X65075000Y15275000D01*
D51*
X25600000Y4650000D02*
X25125000Y4650000D01*
D50*
X79000000Y17200000D02*
X79990000Y17200000D01*
X70625000Y18275000D02*
X71825000Y18275000D01*
X41975000Y12500000D02*
X41975000Y12475000D01*
D51*
X41862500Y17300000D02*
X41862500Y16137500D01*
D50*
X101200000Y26865000D02*
X101200000Y29700000D01*
X100800000Y30100000D02*
X100150000Y30100000D01*
D52*
X75675000Y7110000D02*
X75705000Y7080000D01*
X1460779Y31912500D02*
X1825000Y31912500D01*
D50*
X97000000Y30100000D02*
X98550000Y30100000D01*
X70150000Y16550000D02*
X70150000Y17800000D01*
D52*
X68600000Y5699998D02*
X68515000Y5784998D01*
D53*
X57700000Y17200000D02*
X57462500Y17200000D01*
D10*
X75310000Y8360000D02*
X75300000Y8350000D01*
X93600000Y4850000D02*
X93600000Y5775000D01*
D53*
X57700000Y17200000D02*
X55200000Y17200000D01*
D10*
X88800000Y3000000D02*
X88675000Y2875000D01*
X68600000Y7165000D02*
X68910000Y7475000D01*
D50*
X41975000Y12875000D02*
X42900000Y13800000D01*
X41975000Y12475000D02*
X40750000Y11250000D01*
D51*
X41862500Y16137500D02*
X42000000Y16000000D01*
X1825000Y27687500D02*
X1825000Y26500000D01*
X42530000Y24712000D02*
X42530000Y26220000D01*
D10*
X84000000Y3700000D02*
X83350000Y3700000D01*
D51*
X75310000Y8340000D02*
X75310000Y7475000D01*
D52*
X72100000Y11024999D02*
X72350001Y11275000D01*
D53*
X59000000Y17200000D02*
X57700000Y17200000D01*
D50*
X68500000Y15700000D02*
X68500000Y18400000D01*
D10*
X75300000Y8200000D02*
X75300000Y8330000D01*
D50*
X41975000Y12500000D02*
X41975000Y12875000D01*
D10*
X100450000Y26115000D02*
X100450000Y24750000D01*
D51*
X61823450Y17200000D02*
X63100000Y17200000D01*
X42530000Y26220000D02*
X42500000Y26250000D01*
D10*
X79502000Y3800000D02*
X78587500Y3800000D01*
D50*
X40750000Y10500000D02*
X40750000Y11250000D01*
X79050000Y27900000D02*
X84652818Y27900000D01*
X40750000Y10500000D02*
X40000000Y10500000D01*
D51*
X5130000Y12520000D02*
X5130000Y12545000D01*
X2000000Y25862500D02*
X1977500Y25840000D01*
D50*
X70725000Y19575000D02*
X79050000Y27900000D01*
D10*
X75310000Y7475000D02*
X75675000Y7110000D01*
%TO.N,GPIO0*%
X85600000Y5775000D02*
X83950000Y7425000D01*
X83950000Y9250000D02*
X83950000Y8625000D01*
X83950000Y7425000D02*
X83950000Y8625000D01*
X88050000Y4600000D02*
X86775000Y4600000D01*
X85100000Y10400000D02*
X83950000Y9250000D01*
X86775000Y4600000D02*
X85600000Y5775000D01*
%TO.N,+3.3V*%
D51*
X100150000Y28375000D02*
X100150000Y27650000D01*
D53*
X54200001Y16249999D02*
X52168750Y18281250D01*
D54*
X82900000Y29300000D02*
X84400000Y29300000D01*
D55*
X33300000Y3500000D02*
X27250000Y3500000D01*
D56*
X40137500Y19140500D02*
X39990000Y19288000D01*
X4186815Y25355685D02*
X3702500Y25840000D01*
D53*
X61849518Y16249999D02*
X54200001Y16249999D01*
D10*
X99150000Y13650000D02*
X99190000Y13690000D01*
D55*
X53775000Y20237500D02*
X54500000Y20237500D01*
X43005000Y8575000D02*
X42500000Y9080000D01*
D56*
X40137500Y17300000D02*
X40137500Y19140500D01*
D53*
X52168750Y18281250D02*
X51818750Y18281250D01*
D54*
X88400000Y30300000D02*
X88412500Y30287500D01*
D53*
X99190000Y13690000D02*
X99190000Y26125000D01*
D56*
X9190000Y11010000D02*
X9200000Y11000000D01*
D55*
X38450000Y8600000D02*
X38440000Y8590000D01*
D54*
X88412500Y30287500D02*
X88412500Y28800000D01*
D56*
X3800000Y27662500D02*
X3775000Y27687500D01*
D55*
X38400000Y8600000D02*
X33300000Y3500000D01*
D56*
X98950000Y13450000D02*
X99000000Y13500000D01*
D51*
X95350000Y30150000D02*
X95400000Y30100000D01*
D56*
X35000000Y8590000D02*
X32705000Y6295000D01*
D54*
X67800000Y29300000D02*
X82900000Y29300000D01*
D55*
X45345000Y8575000D02*
X47700000Y10930000D01*
D56*
X10440000Y25310000D02*
X10470000Y25280000D01*
D55*
X42500000Y9080000D02*
X42500000Y10000000D01*
X47700000Y10930000D02*
X47700000Y14162500D01*
X42980000Y8600000D02*
X38450000Y8600000D01*
D56*
X3702500Y25840000D02*
X3800000Y25937500D01*
D50*
X99000000Y13500000D02*
X99150000Y13650000D01*
D57*
X95400000Y30100000D02*
X96262500Y29237500D01*
D56*
X8510000Y25330000D02*
X8484315Y25355685D01*
D54*
X56500000Y20237500D02*
X56341358Y20237500D01*
D51*
X100150000Y27650000D02*
X99190000Y26690000D01*
D55*
X43005000Y8575000D02*
X42980000Y8600000D01*
D54*
X58462500Y22200000D02*
X60700000Y22200000D01*
D56*
X86350000Y13450000D02*
X98950000Y13450000D01*
D50*
X79050000Y16125000D02*
X77400001Y16125000D01*
D56*
X35000000Y8750000D02*
X40137500Y13887500D01*
X40137500Y13887500D02*
X40137500Y17300000D01*
D51*
X98550000Y28375000D02*
X100150000Y28375000D01*
D55*
X56341358Y20237500D02*
X54482780Y20237500D01*
D50*
X5343900Y16279400D02*
X6143900Y16279400D01*
D56*
X8484315Y25355685D02*
X4186815Y25355685D01*
D55*
X38440000Y8590000D02*
X38430000Y8600000D01*
D56*
X35000000Y8590000D02*
X35000000Y8750000D01*
X32705000Y6295000D02*
X13905000Y6295000D01*
X13905000Y6295000D02*
X9200000Y11000000D01*
X10470000Y25280000D02*
X10470000Y22990000D01*
X10470000Y22990000D02*
X9190000Y21710000D01*
D51*
X99190000Y26690000D02*
X99190000Y26125000D01*
D55*
X38430000Y8600000D02*
X38400000Y8600000D01*
D51*
X94050000Y30150000D02*
X95350000Y30150000D01*
D56*
X9190000Y21710000D02*
X9190000Y11010000D01*
X3800000Y25937500D02*
X3800000Y27662500D01*
D57*
X96262500Y29237500D02*
X97687500Y29237500D01*
D10*
X99200000Y26135000D02*
X99190000Y26125000D01*
D57*
X97687500Y29237500D02*
X98550000Y28375000D01*
D55*
X47700000Y14162500D02*
X51818750Y18281250D01*
D50*
X79200000Y16275000D02*
X79050000Y16125000D01*
X77400001Y16125000D02*
X77100000Y16425001D01*
D55*
X43005000Y8575000D02*
X45345000Y8575000D01*
D50*
X77100000Y16425001D02*
X77100000Y17200000D01*
D56*
X84200000Y15600000D02*
X86350000Y13450000D01*
D55*
X51818750Y18281250D02*
X53775000Y20237500D01*
D54*
X67800000Y29300000D02*
X60700000Y22200000D01*
X56500000Y20237500D02*
X58462500Y22200000D01*
%TO.N,CHIP_PU*%
D50*
X97920000Y27455000D02*
X97920000Y26125000D01*
D10*
X88300000Y14100000D02*
X97250000Y14100000D01*
D50*
X97000000Y28375000D02*
X97920000Y27455000D01*
D10*
X89550000Y5750000D02*
X88300000Y7000000D01*
D52*
X43458000Y19288000D02*
X42530000Y19288000D01*
D10*
X97250000Y14100000D02*
X97920000Y14770000D01*
X89550000Y4600000D02*
X89550000Y5750000D01*
X90400000Y4600000D02*
X92000000Y3000000D01*
D52*
X94090330Y28325000D02*
X95450000Y28325000D01*
D10*
X89550000Y4600000D02*
X90400000Y4600000D01*
D52*
X51415000Y32850000D02*
X89565330Y32850000D01*
X50340000Y29900000D02*
X46400000Y25960000D01*
X50340000Y31775000D02*
X51415000Y32850000D01*
D50*
X96825000Y28200000D02*
X95575000Y28200000D01*
X95575000Y28200000D02*
X95450000Y28325000D01*
D10*
X92000000Y3000000D02*
X92000000Y1675000D01*
D52*
X46400000Y25960000D02*
X46400000Y22230000D01*
D50*
X97000000Y28375000D02*
X96825000Y28200000D01*
D52*
X46400000Y22230000D02*
X43458000Y19288000D01*
D10*
X97920000Y14770000D02*
X97920000Y26125000D01*
D52*
X89565330Y32850000D02*
X94090330Y28325000D01*
%TO.N,+12V*%
D53*
X55700000Y13300000D02*
X60550000Y8450000D01*
X55700000Y14700000D02*
X55700000Y13300000D01*
D51*
X55700000Y14700000D02*
X55700000Y14200000D01*
D53*
X60550000Y8450000D02*
X62325000Y8450000D01*
X62325000Y8450000D02*
X62325000Y8462000D01*
%TO.N,Net-(BT1-+)*%
D51*
X39775000Y21825000D02*
X41260000Y23310000D01*
D56*
X33900000Y16000000D02*
X33900000Y19950000D01*
D51*
X35775000Y21825000D02*
X39775000Y21825000D01*
X33900000Y19950000D02*
X35775000Y21825000D01*
X41260000Y23310000D02*
X41260000Y24712000D01*
%TO.N,Net-(U5-CB)*%
D53*
X58300000Y18337500D02*
X61762018Y18337500D01*
X61762018Y18337500D02*
X61949517Y18150001D01*
%TO.N,/Power/PWR IN*%
X64250483Y16249999D02*
X64800000Y16799516D01*
X64800000Y16799516D02*
X64800000Y16900000D01*
D54*
X62450000Y10638000D02*
X63750000Y10638000D01*
X62237500Y14025000D02*
X62237500Y14240618D01*
D53*
X64250483Y16350483D02*
X64149999Y16249999D01*
D54*
X62237500Y12500000D02*
X62237500Y14025000D01*
X62237500Y12150500D02*
X62237500Y12500000D01*
D53*
X64250483Y17200000D02*
X64250483Y16350483D01*
D55*
X64149999Y16249999D02*
X62237500Y14337500D01*
D54*
X62237500Y10850500D02*
X62450000Y10638000D01*
X63750000Y10638000D02*
X62237500Y12150500D01*
D55*
X62237500Y14337500D02*
X62237500Y14240618D01*
X64250483Y16249999D02*
X64149999Y16249999D01*
D53*
X64800000Y16900000D02*
X64500000Y17200000D01*
X64500000Y17200000D02*
X64250483Y17200000D01*
D54*
X62237500Y12500000D02*
X62237500Y10850500D01*
%TO.N,Net-(U5-SW)*%
D53*
X65300000Y20100000D02*
X65300000Y19100000D01*
X65262500Y20062500D02*
X65300000Y20100000D01*
X65300000Y19100000D02*
X64350001Y18150001D01*
X58300000Y20062500D02*
X65262500Y20062500D01*
X65300000Y22200000D02*
X65300000Y20100000D01*
%TO.N,GPIO7*%
D52*
X89126472Y31950000D02*
X92840000Y28236472D01*
X43887500Y10387500D02*
X43500000Y10000000D01*
X52525000Y31950000D02*
X89126472Y31950000D01*
X43887500Y15688972D02*
X43887500Y12500000D01*
X92840000Y28236472D02*
X92840000Y26125000D01*
X43887500Y12500000D02*
X43887500Y10387500D01*
X47300000Y19101472D02*
X43887500Y15688972D01*
X52350000Y31775000D02*
X52525000Y31950000D01*
X52340000Y29900000D02*
X47300000Y24860000D01*
X47300000Y24860000D02*
X47300000Y19101472D01*
%TO.N,Net-(J2-CC1)*%
X70860000Y5790000D02*
X72090000Y4560000D01*
X72090000Y4560000D02*
X77771764Y4560000D01*
X79307500Y4570000D02*
X80450000Y5712500D01*
X70860000Y7475000D02*
X70860000Y5790000D01*
X77781764Y4570000D02*
X79307500Y4570000D01*
X77771764Y4560000D02*
X77781764Y4570000D01*
%TO.N,/D+ Con*%
D10*
X72650000Y6650000D02*
X72860000Y6860000D01*
X72860000Y7475000D02*
X72860000Y10172500D01*
X72500000Y6650000D02*
X72650000Y6650000D01*
X71860000Y6900001D02*
X72110001Y6650000D01*
X72110001Y6650000D02*
X72500000Y6650000D01*
X72860000Y6860000D02*
X72860000Y7475000D01*
X72860000Y10172500D02*
X73050000Y10362500D01*
X72500000Y5650000D02*
X72500000Y6650000D01*
X71860000Y7475000D02*
X71860000Y6900001D01*
%TO.N,/D- Con*%
X71360000Y6905026D02*
X71360000Y8540000D01*
X71360000Y8540000D02*
X71150000Y8750000D01*
X72360000Y7597500D02*
X72360000Y8294999D01*
X72360000Y8040000D02*
X72360000Y7475000D01*
X71749997Y6515029D02*
X71360000Y6905026D01*
X72360000Y8294999D02*
X72134999Y8595000D01*
X72134999Y8595000D02*
X71380000Y8595000D01*
X71150000Y8750000D02*
X71150000Y10362500D01*
D52*
X71380000Y8595000D02*
X71360000Y8540000D01*
D10*
X71749997Y5650000D02*
X71749997Y6515029D01*
%TO.N,Net-(J2-CC2)*%
D52*
X73700000Y5100000D02*
X73700000Y6740001D01*
X73700000Y6740001D02*
X73860000Y6900001D01*
X77647500Y4860000D02*
X73940000Y4860000D01*
X78500000Y5712500D02*
X77647500Y4860000D01*
X73940000Y4860000D02*
X73700000Y5100000D01*
X73860000Y6900001D02*
X73860000Y7475000D01*
%TO.N,SDA*%
D10*
X14675000Y30675000D02*
X43269510Y30675000D01*
X4950000Y27050000D02*
X5820000Y26180000D01*
X9630000Y25630000D02*
X9630000Y23440000D01*
X5820000Y26180000D02*
X8647892Y26180000D01*
X8647892Y26180000D02*
X8873946Y26406054D01*
X3775000Y31912500D02*
X4950000Y30737500D01*
X44950000Y30675000D02*
X44825000Y30550000D01*
X39990000Y25370000D02*
X39990000Y24712000D01*
X44825000Y30205000D02*
X39990000Y25370000D01*
X10375000Y26375000D02*
X14675000Y30675000D01*
X86412500Y26202500D02*
X86412500Y28800000D01*
X5343900Y15279400D02*
X7643900Y15279400D01*
X10375000Y26375000D02*
X9630000Y25630000D01*
X86412500Y28800000D02*
X86412500Y29037500D01*
X86490000Y26125000D02*
X86412500Y26202500D01*
X4950000Y30737500D02*
X4950000Y27050000D01*
X86412500Y29037500D02*
X84775000Y30675000D01*
X84775000Y30675000D02*
X44950000Y30675000D01*
X44825000Y30550000D02*
X44825000Y30205000D01*
X43269510Y30675000D02*
X43393701Y30550809D01*
%TO.N,SCL*%
X44800000Y31250000D02*
X38720000Y25170000D01*
X9237500Y26062500D02*
X9010000Y25835000D01*
X87562500Y26322500D02*
X87562500Y29600000D01*
X9237500Y26062500D02*
X9005000Y25830000D01*
D58*
X4600000Y30400000D02*
X4150000Y30875000D01*
X4150000Y30875000D02*
X3375001Y30875000D01*
D10*
X87562500Y29600000D02*
X86412500Y30750000D01*
X3125000Y31100001D02*
X3125000Y31912500D01*
X86412500Y30750000D02*
X85920500Y31242000D01*
X9005000Y25830000D02*
X5675026Y25830000D01*
D58*
X3375001Y30875000D02*
X3125000Y31100001D01*
D10*
X38720000Y25170000D02*
X38720000Y24712000D01*
X87760000Y26125000D02*
X87562500Y26322500D01*
X3075000Y31862500D02*
X3125000Y31912500D01*
X9010000Y25835000D02*
X9010000Y23750000D01*
X5675026Y25830000D02*
X4600000Y26905025D01*
X9010000Y23750000D02*
X5560000Y20300000D01*
X4600000Y26905025D02*
X4600000Y30400000D01*
X85920500Y31242000D02*
X14417000Y31242000D01*
X5343900Y14279400D02*
X6743900Y14279400D01*
X3075000Y31250000D02*
X3075000Y31862500D01*
X14417000Y31242000D02*
X9237500Y26062500D01*
%TO.N,GPIO5*%
D52*
X89375000Y32550000D02*
X95380000Y26545000D01*
X46700000Y25575505D02*
X51014152Y29889657D01*
X51767372Y32550000D02*
X89375000Y32550000D01*
X51014152Y31796780D02*
X51767372Y32550000D01*
X51014152Y31775000D02*
X51014152Y31796780D01*
X19870000Y5870000D02*
X33220000Y5870000D01*
X17500000Y3500000D02*
X19870000Y5870000D01*
X95380000Y26545000D02*
X95380000Y26125000D01*
X46700000Y19350000D02*
X46700000Y25575505D01*
X33220000Y5870000D02*
X46700000Y19350000D01*
%TO.N,GPIO6*%
X47000000Y19225736D02*
X33344264Y5570000D01*
X22820000Y5570000D02*
X20750000Y3500000D01*
X51664124Y31775000D02*
X52139124Y32250000D01*
X47000000Y25203754D02*
X47000000Y24880000D01*
X51664124Y29895876D02*
X51664124Y29867877D01*
X33344264Y5570000D02*
X22820000Y5570000D01*
X47000000Y24880000D02*
X47000000Y19225736D01*
X94110000Y27390736D02*
X94110000Y26125000D01*
X47000000Y25203753D02*
X47000000Y24880000D01*
X52139124Y32250000D02*
X89250736Y32250000D01*
X89250736Y32250000D02*
X94110000Y27390736D01*
X51664124Y29867877D02*
X47000000Y25203753D01*
%TO.N,DSP_RES*%
D50*
X80200000Y15600000D02*
X74925001Y15600000D01*
X74925001Y15600000D02*
X74100000Y16425001D01*
X84000000Y16700000D02*
X90200000Y16700000D01*
X91570000Y18070000D02*
X91570000Y26125000D01*
X90200000Y16700000D02*
X91570000Y18070000D01*
X81300000Y16700000D02*
X80200000Y15600000D01*
X74100000Y16425001D02*
X74100000Y17200000D01*
%TO.N,D-*%
D10*
X69100000Y15951101D02*
X69100000Y18243200D01*
X70031800Y19175000D02*
X71231800Y19175000D01*
X71231800Y19175000D02*
X79406800Y27350000D01*
X71150000Y13901103D02*
X69100000Y15951101D01*
X79406800Y27350000D02*
X84425000Y27350000D01*
X71150000Y12637500D02*
X71150000Y13901103D01*
X84425000Y27350000D02*
X85220000Y26555000D01*
X85220000Y26555000D02*
X85220000Y26125000D01*
X69100000Y18243200D02*
X70031800Y19175000D01*
%TO.N,D+*%
X69550000Y16137501D02*
X71887501Y13800000D01*
X79593200Y26900000D02*
X81075638Y26900000D01*
X81375638Y26600716D02*
X81375638Y26700000D01*
X72225000Y13800000D02*
X73050000Y12975000D01*
X82875638Y26700000D02*
X82875638Y26600716D01*
X81675638Y26400716D02*
X81575638Y26400716D01*
X69550000Y18056800D02*
X69550000Y16137501D01*
X71418200Y18725000D02*
X70218200Y18725000D01*
X79593200Y26900000D02*
X71418200Y18725000D01*
X82375638Y26600716D02*
X82375638Y26700000D01*
X73050000Y12975000D02*
X73050000Y12637500D01*
X81875638Y26700000D02*
X81875638Y26600716D01*
X83650000Y26900000D02*
X83075638Y26900000D01*
X71887501Y13800000D02*
X72225000Y13800000D01*
X82175638Y26900000D02*
X82075638Y26900000D01*
X82675638Y26400716D02*
X82575638Y26400716D01*
X81175638Y26900000D02*
X81075638Y26900000D01*
X83950000Y26125000D02*
X83950000Y26600000D01*
X83950000Y26600000D02*
X83650000Y26900000D01*
X70218200Y18725000D02*
X69550000Y18056800D01*
X81575638Y26400716D02*
G75*
G02*
X81375616Y26600716I-38J199984D01*
G01*
X82075638Y26900000D02*
G75*
G03*
X81875600Y26700000I-38J-200000D01*
G01*
X81875638Y26600716D02*
G75*
G02*
X81675638Y26400662I-200038J-16D01*
G01*
X83075638Y26900000D02*
G75*
G03*
X82875600Y26700000I-38J-200000D01*
G01*
X82375638Y26700000D02*
G75*
G03*
X82175638Y26900038I-200038J0D01*
G01*
X82875638Y26600716D02*
G75*
G02*
X82675638Y26400662I-200038J-16D01*
G01*
X82575638Y26400716D02*
G75*
G02*
X82375616Y26600716I-38J199984D01*
G01*
X81375638Y26700000D02*
G75*
G03*
X81175638Y26900038I-200038J0D01*
G01*
%TO.N,CS1*%
X82400000Y20550000D02*
X82700000Y20550000D01*
D50*
X72100000Y17750000D02*
X73950000Y19600000D01*
X81860000Y20550000D02*
X82400000Y20550000D01*
X73950000Y19600000D02*
X80910000Y19600000D01*
X72100000Y17200000D02*
X72100000Y17750000D01*
X80910000Y19600000D02*
X81860000Y20550000D01*
%TO.N,SDA{slash}SDIN{slash}MOSI*%
X76095001Y18970000D02*
X82390000Y18970000D01*
X75100000Y17200000D02*
X75100000Y17974999D01*
X82390000Y18970000D02*
X82700000Y19280000D01*
X75100000Y17974999D02*
X76095001Y18970000D01*
%TO.N,SCL{slash}SCLK{slash}SCK*%
X76100000Y17200000D02*
X76100000Y17974999D01*
X82390000Y18320000D02*
X82700000Y18010000D01*
X76445001Y18320000D02*
X82390000Y18320000D01*
X76100000Y17974999D02*
X76445001Y18320000D01*
%TO.N,DC{slash}MISO*%
X73100000Y16425001D02*
X74465001Y15060000D01*
X74465001Y15060000D02*
X80510000Y15060000D01*
X82190000Y16740000D02*
X82700000Y16740000D01*
X73100000Y17200000D02*
X73100000Y16425001D01*
X80510000Y15060000D02*
X82190000Y16740000D01*
%TO.N,CS2*%
X71100000Y16784448D02*
X73354448Y14530000D01*
X80800000Y14530000D02*
X81740000Y15470000D01*
X73354448Y14530000D02*
X80800000Y14530000D01*
X71100000Y17200000D02*
X71100000Y16784448D01*
X81740000Y15470000D02*
X82700000Y15470000D01*
%TO.N,RX*%
D10*
X92700000Y9900000D02*
X94405000Y9900000D01*
X95380000Y8925000D02*
X95380000Y8625000D01*
X94405000Y9900000D02*
X95380000Y8925000D01*
X92150000Y10450000D02*
X92700000Y9900000D01*
%TO.N,TX*%
X94800000Y10450000D02*
X95255000Y10450000D01*
X95255000Y10450000D02*
X96650000Y9055000D01*
X96650000Y9055000D02*
X96650000Y8625000D01*
%TD*%
%TA.AperFunction,Conductor*%
%TO.N,GND*%
G36*
X9066911Y22855164D02*
G01*
X9111258Y22826663D01*
X9124018Y22813903D01*
X9122525Y22812411D01*
X9156464Y22762570D01*
X9158324Y22692725D01*
X9126140Y22636799D01*
X8645888Y22156546D01*
X8645882Y22156538D01*
X8617052Y22113390D01*
X8617052Y22113389D01*
X8569228Y22041817D01*
X8569221Y22041805D01*
X8516421Y21914333D01*
X8516418Y21914323D01*
X8489500Y21778996D01*
X8489500Y15863506D01*
X8469815Y15796467D01*
X8417011Y15750712D01*
X8347853Y15740768D01*
X8284297Y15769793D01*
X8270327Y15785617D01*
X8269553Y15784981D01*
X8265686Y15789693D01*
X8154192Y15901187D01*
X8154188Y15901190D01*
X8023085Y15988791D01*
X8023072Y15988798D01*
X7877401Y16049136D01*
X7877389Y16049139D01*
X7722745Y16079900D01*
X7722742Y16079900D01*
X7565058Y16079900D01*
X7565055Y16079900D01*
X7410410Y16049139D01*
X7410398Y16049136D01*
X7264727Y15988798D01*
X7264714Y15988791D01*
X7133025Y15900798D01*
X7066347Y15879920D01*
X7064134Y15879900D01*
X7030455Y15879900D01*
X6963416Y15899585D01*
X6917661Y15952389D01*
X6907717Y16021547D01*
X6912740Y16039812D01*
X6911869Y16040076D01*
X6913631Y16045891D01*
X6913637Y16045903D01*
X6944400Y16200558D01*
X6944400Y16358242D01*
X6944400Y16358245D01*
X6944399Y16358247D01*
X6928084Y16440268D01*
X6913637Y16512897D01*
X6903719Y16536842D01*
X6853297Y16658573D01*
X6853290Y16658586D01*
X6765689Y16789689D01*
X6765686Y16789693D01*
X6649882Y16905497D01*
X6651461Y16907077D01*
X6617760Y16956547D01*
X6616045Y17020461D01*
X6614862Y17020677D01*
X6615888Y17026298D01*
X6615886Y17026391D01*
X6615943Y17026598D01*
X6615999Y17026908D01*
X6616195Y17029399D01*
X6616195Y17029400D01*
X6449711Y17029400D01*
X6402263Y17038838D01*
X6377397Y17049137D01*
X6377390Y17049139D01*
X6377389Y17049139D01*
X6377388Y17049140D01*
X6222745Y17079900D01*
X6222742Y17079900D01*
X6065058Y17079900D01*
X6065054Y17079900D01*
X6062441Y17079643D01*
X6040595Y17079429D01*
X6034616Y17079899D01*
X6034601Y17079900D01*
X6034594Y17079900D01*
X4653206Y17079900D01*
X4653198Y17079900D01*
X4616332Y17076999D01*
X4616326Y17076998D01*
X4469445Y17034324D01*
X4434850Y17029400D01*
X4071605Y17029400D01*
X4071604Y17029399D01*
X4071799Y17026912D01*
X4071800Y17026906D01*
X4117616Y16869207D01*
X4117617Y16869204D01*
X4133107Y16843012D01*
X4150289Y16775288D01*
X4133107Y16716773D01*
X4117158Y16689805D01*
X4117154Y16689795D01*
X4071302Y16531974D01*
X4071301Y16531968D01*
X4068400Y16495102D01*
X4068400Y16063699D01*
X4071301Y16026833D01*
X4071302Y16026827D01*
X4117153Y15869007D01*
X4132818Y15842519D01*
X4149998Y15774794D01*
X4132818Y15716281D01*
X4117153Y15689794D01*
X4071302Y15531974D01*
X4071301Y15531968D01*
X4068400Y15495102D01*
X4068400Y15063699D01*
X4071301Y15026833D01*
X4071302Y15026827D01*
X4117153Y14869007D01*
X4132818Y14842519D01*
X4149998Y14774794D01*
X4132818Y14716281D01*
X4117153Y14689794D01*
X4071302Y14531974D01*
X4071301Y14531968D01*
X4068400Y14495102D01*
X4068400Y14063699D01*
X4071301Y14026833D01*
X4071302Y14026827D01*
X4117154Y13869007D01*
X4117155Y13869004D01*
X4200817Y13727538D01*
X4200823Y13727530D01*
X4317029Y13611324D01*
X4317033Y13611321D01*
X4317035Y13611319D01*
X4458502Y13527656D01*
X4479109Y13521669D01*
X4616326Y13481803D01*
X4616329Y13481803D01*
X4616331Y13481802D01*
X4653206Y13478900D01*
X4653214Y13478900D01*
X6034586Y13478900D01*
X6034594Y13478900D01*
X6071469Y13481802D01*
X6071471Y13481803D01*
X6071473Y13481803D01*
X6113091Y13493895D01*
X6229298Y13527656D01*
X6258324Y13544823D01*
X6273860Y13554010D01*
X6341583Y13571194D01*
X6384434Y13561840D01*
X6510398Y13509665D01*
X6510403Y13509663D01*
X6621909Y13487483D01*
X6665053Y13478901D01*
X6665056Y13478900D01*
X6665058Y13478900D01*
X6822744Y13478900D01*
X6822745Y13478901D01*
X6977397Y13509663D01*
X7103364Y13561840D01*
X7123072Y13570003D01*
X7123072Y13570004D01*
X7123079Y13570006D01*
X7254189Y13657611D01*
X7365689Y13769111D01*
X7453294Y13900221D01*
X7513637Y14045903D01*
X7544400Y14200558D01*
X7544400Y14354900D01*
X7564085Y14421939D01*
X7616889Y14467694D01*
X7668400Y14478900D01*
X7722744Y14478900D01*
X7722745Y14478901D01*
X7877397Y14509663D01*
X8023079Y14570006D01*
X8154189Y14657611D01*
X8265689Y14769111D01*
X8265691Y14769115D01*
X8269553Y14773819D01*
X8271806Y14771970D01*
X8315704Y14808857D01*
X8385005Y14817751D01*
X8448113Y14787767D01*
X8484993Y14728423D01*
X8489500Y14695295D01*
X8489500Y11401173D01*
X8480061Y11353721D01*
X8430263Y11233499D01*
X8430260Y11233489D01*
X8399500Y11078847D01*
X8399500Y10921154D01*
X8430261Y10766511D01*
X8430264Y10766499D01*
X8490602Y10620828D01*
X8490609Y10620815D01*
X8578210Y10489712D01*
X8578213Y10489708D01*
X8689707Y10378214D01*
X8689711Y10378211D01*
X8820814Y10290610D01*
X8820827Y10290603D01*
X8965185Y10230809D01*
X9005414Y10203929D01*
X13458453Y5750889D01*
X13458454Y5750888D01*
X13573192Y5674223D01*
X13700667Y5621422D01*
X13700672Y5621420D01*
X13700676Y5621420D01*
X13700677Y5621419D01*
X13836003Y5594500D01*
X13836006Y5594500D01*
X13836007Y5594500D01*
X18481258Y5594500D01*
X18548297Y5574815D01*
X18594052Y5522011D01*
X18603996Y5452853D01*
X18574971Y5389297D01*
X18568939Y5382819D01*
X18130247Y4944129D01*
X18068924Y4910644D01*
X18004248Y4913879D01*
X17957558Y4929050D01*
X17851368Y4963554D01*
X17618097Y5000500D01*
X17618092Y5000500D01*
X17381908Y5000500D01*
X17381903Y5000500D01*
X17148631Y4963554D01*
X16924003Y4890567D01*
X16713566Y4783343D01*
X16604550Y4704138D01*
X16522490Y4644517D01*
X16522488Y4644515D01*
X16522487Y4644515D01*
X16355485Y4477513D01*
X16355485Y4477512D01*
X16355483Y4477510D01*
X16311199Y4416558D01*
X16216657Y4286434D01*
X16109433Y4075997D01*
X16036446Y3851369D01*
X15999500Y3618098D01*
X15999500Y3381903D01*
X16036446Y3148632D01*
X16109433Y2924004D01*
X16207262Y2732006D01*
X16216657Y2713567D01*
X16355483Y2522490D01*
X16522490Y2355483D01*
X16713567Y2216657D01*
X16799490Y2172877D01*
X16924003Y2109434D01*
X16924005Y2109434D01*
X16924008Y2109432D01*
X16961196Y2097349D01*
X17148631Y2036447D01*
X17381903Y1999500D01*
X17381908Y1999500D01*
X17618097Y1999500D01*
X17851368Y2036447D01*
X17852870Y2036935D01*
X18075992Y2109432D01*
X18286433Y2216657D01*
X18477510Y2355483D01*
X18644517Y2522490D01*
X18783343Y2713567D01*
X18890568Y2924008D01*
X18963553Y3148632D01*
X18970059Y3189711D01*
X19000500Y3381903D01*
X19000500Y3618098D01*
X18963553Y3851369D01*
X18943117Y3914262D01*
X18913877Y4004252D01*
X18911883Y4074091D01*
X18944126Y4130248D01*
X19325895Y4512017D01*
X19387218Y4545501D01*
X19456910Y4540517D01*
X19512843Y4498645D01*
X19537260Y4433181D01*
X19522408Y4364908D01*
X19513894Y4351450D01*
X19466659Y4286437D01*
X19359433Y4075997D01*
X19286446Y3851369D01*
X19249500Y3618098D01*
X19249500Y3381903D01*
X19286446Y3148632D01*
X19359433Y2924004D01*
X19457262Y2732006D01*
X19466657Y2713567D01*
X19605483Y2522490D01*
X19772490Y2355483D01*
X19963567Y2216657D01*
X20049490Y2172877D01*
X20174003Y2109434D01*
X20174005Y2109434D01*
X20174008Y2109432D01*
X20211196Y2097349D01*
X20398631Y2036447D01*
X20631903Y1999500D01*
X20631908Y1999500D01*
X20868097Y1999500D01*
X21101368Y2036447D01*
X21102870Y2036935D01*
X21325992Y2109432D01*
X21536433Y2216657D01*
X21619958Y2277342D01*
X23105893Y2277342D01*
X23188828Y2217086D01*
X23399197Y2109898D01*
X23623752Y2036935D01*
X23623751Y2036935D01*
X23856948Y2000000D01*
X24093052Y2000000D01*
X24326247Y2036935D01*
X24550802Y2109898D01*
X24761163Y2217082D01*
X24761169Y2217086D01*
X24844104Y2277342D01*
X24844105Y2277342D01*
X23975000Y3146446D01*
X23105893Y2277342D01*
X21619958Y2277342D01*
X21727510Y2355483D01*
X21894517Y2522490D01*
X22033343Y2713567D01*
X22140568Y2924008D01*
X22213553Y3148632D01*
X22240280Y3317380D01*
X22270209Y3380515D01*
X22329521Y3417446D01*
X22399383Y3416448D01*
X22457616Y3377838D01*
X22485226Y3317380D01*
X22511934Y3148753D01*
X22584897Y2924198D01*
X22692087Y2713826D01*
X22752338Y2630896D01*
X22752340Y2630895D01*
X23621447Y3500001D01*
X24328554Y3500001D01*
X24328554Y3499999D01*
X25197658Y2630895D01*
X25197658Y2630896D01*
X25257914Y2713831D01*
X25257918Y2713837D01*
X25365102Y2924198D01*
X25438065Y3148753D01*
X25475000Y3381948D01*
X25475000Y3618053D01*
X25438065Y3851248D01*
X25365102Y4075803D01*
X25257914Y4286172D01*
X25197658Y4369106D01*
X25197658Y4369107D01*
X24328554Y3500001D01*
X23621447Y3500001D01*
X23760489Y3639043D01*
X24844105Y4722660D01*
X24844104Y4722662D01*
X24778698Y4770182D01*
X24736032Y4825512D01*
X24730053Y4895125D01*
X24762659Y4956920D01*
X24823497Y4991277D01*
X24851583Y4994500D01*
X26372567Y4994500D01*
X26439606Y4974815D01*
X26485361Y4922011D01*
X26495305Y4852853D01*
X26466280Y4789297D01*
X26445454Y4770184D01*
X26272490Y4644517D01*
X26272488Y4644515D01*
X26272487Y4644515D01*
X26105485Y4477513D01*
X26105485Y4477512D01*
X26105483Y4477510D01*
X26061199Y4416558D01*
X25966657Y4286434D01*
X25859433Y4075997D01*
X25786446Y3851369D01*
X25749500Y3618098D01*
X25749500Y3381903D01*
X25786446Y3148632D01*
X25859433Y2924004D01*
X25957262Y2732006D01*
X25966657Y2713567D01*
X26105483Y2522490D01*
X26272490Y2355483D01*
X26463567Y2216657D01*
X26549490Y2172877D01*
X26674003Y2109434D01*
X26674005Y2109434D01*
X26674008Y2109432D01*
X26711196Y2097349D01*
X26898631Y2036447D01*
X27131903Y1999500D01*
X27131908Y1999500D01*
X27368097Y1999500D01*
X27601368Y2036447D01*
X27602870Y2036935D01*
X27825992Y2109432D01*
X28036433Y2216657D01*
X28227510Y2355483D01*
X28335208Y2463181D01*
X28396531Y2496666D01*
X28422889Y2499500D01*
X33398543Y2499500D01*
X33531055Y2525859D01*
X33570012Y2533608D01*
X33591836Y2537949D01*
X33645165Y2560039D01*
X33773914Y2613368D01*
X33937782Y2722861D01*
X34077139Y2862218D01*
X34077140Y2862221D01*
X34084206Y2869286D01*
X34084208Y2869290D01*
X38778101Y7563181D01*
X38839424Y7596666D01*
X38865782Y7599500D01*
X40319894Y7599500D01*
X40386933Y7579815D01*
X40432688Y7527011D01*
X40442632Y7457853D01*
X40413607Y7394297D01*
X40384993Y7369963D01*
X40383914Y7369297D01*
X40381342Y7367711D01*
X40257289Y7243658D01*
X40165187Y7094337D01*
X40165185Y7094332D01*
X40138959Y7015185D01*
X40110001Y6927797D01*
X40110001Y6927796D01*
X40110000Y6927796D01*
X40099500Y6825017D01*
X40099500Y5424999D01*
X40099501Y5424982D01*
X40110000Y5322204D01*
X40110001Y5322201D01*
X40147430Y5209249D01*
X40165186Y5155666D01*
X40257288Y5006344D01*
X40381344Y4882288D01*
X40530666Y4790186D01*
X40697203Y4735001D01*
X40799991Y4724500D01*
X41600008Y4724501D01*
X41600016Y4724502D01*
X41600019Y4724502D01*
X41656302Y4730252D01*
X41702797Y4735001D01*
X41869334Y4790186D01*
X42018656Y4882288D01*
X42142712Y5006344D01*
X42234814Y5155666D01*
X42289999Y5322203D01*
X42300500Y5424991D01*
X42300499Y6825008D01*
X42289999Y6927797D01*
X42234814Y7094334D01*
X42142712Y7243656D01*
X42018656Y7367712D01*
X42015008Y7369963D01*
X42013032Y7372159D01*
X42012989Y7372193D01*
X42012994Y7372201D01*
X41968285Y7421909D01*
X41957062Y7490872D01*
X41984906Y7554954D01*
X42042975Y7593810D01*
X42080106Y7599500D01*
X42768565Y7599500D01*
X42792755Y7597118D01*
X42818915Y7591914D01*
X42906456Y7574500D01*
X43888770Y7574500D01*
X43955809Y7554815D01*
X44001564Y7502011D01*
X44011508Y7432853D01*
X43982483Y7369297D01*
X43976451Y7362819D01*
X43857289Y7243658D01*
X43765187Y7094337D01*
X43765185Y7094332D01*
X43738959Y7015185D01*
X43710001Y6927797D01*
X43710001Y6927796D01*
X43710000Y6927796D01*
X43699500Y6825017D01*
X43699500Y5424999D01*
X43699501Y5424982D01*
X43710000Y5322204D01*
X43710001Y5322201D01*
X43747430Y5209249D01*
X43765186Y5155666D01*
X43857288Y5006344D01*
X43981344Y4882288D01*
X44130666Y4790186D01*
X44297203Y4735001D01*
X44399991Y4724500D01*
X45200008Y4724501D01*
X45200016Y4724502D01*
X45200019Y4724502D01*
X45256302Y4730252D01*
X45302797Y4735001D01*
X45469334Y4790186D01*
X45618656Y4882288D01*
X45742712Y5006344D01*
X45834814Y5155666D01*
X45889999Y5322203D01*
X45900500Y5424991D01*
X45900499Y6825008D01*
X45889999Y6927797D01*
X45834814Y7094334D01*
X45742712Y7243656D01*
X45618656Y7367712D01*
X45590947Y7384803D01*
X45544224Y7436750D01*
X45533001Y7505713D01*
X45560845Y7569795D01*
X45618914Y7608651D01*
X45631859Y7611959D01*
X45636831Y7612948D01*
X45636831Y7612949D01*
X45636836Y7612949D01*
X45697191Y7637949D01*
X45818914Y7688368D01*
X45982782Y7797861D01*
X46122139Y7937218D01*
X46122140Y7937220D01*
X46129206Y7944286D01*
X46129209Y7944290D01*
X48182924Y9998005D01*
X52399500Y9998005D01*
X52399500Y9761996D01*
X52399501Y9761980D01*
X52428097Y9544766D01*
X52430307Y9527986D01*
X52459291Y9419817D01*
X52491394Y9300007D01*
X52581714Y9081955D01*
X52581719Y9081944D01*
X52619477Y9016547D01*
X52699727Y8877550D01*
X52699729Y8877547D01*
X52699730Y8877546D01*
X52843406Y8690303D01*
X52843412Y8690296D01*
X53010295Y8523413D01*
X53010302Y8523407D01*
X53075619Y8473288D01*
X53197550Y8379727D01*
X53328918Y8303882D01*
X53401943Y8261720D01*
X53401948Y8261718D01*
X53401951Y8261716D01*
X53620007Y8171394D01*
X53847986Y8110307D01*
X54081989Y8079500D01*
X54081996Y8079500D01*
X54318004Y8079500D01*
X54318011Y8079500D01*
X54552014Y8110307D01*
X54779993Y8171394D01*
X54998049Y8261716D01*
X55202450Y8379727D01*
X55389699Y8523408D01*
X55556592Y8690301D01*
X55700273Y8877550D01*
X55818284Y9081951D01*
X55908606Y9300007D01*
X55969693Y9527986D01*
X56000500Y9761989D01*
X56000500Y9998011D01*
X55969693Y10232014D01*
X55908606Y10459993D01*
X55818284Y10678049D01*
X55818282Y10678052D01*
X55818280Y10678057D01*
X55767217Y10766499D01*
X55700273Y10882450D01*
X55556592Y11069699D01*
X55556587Y11069705D01*
X55389704Y11236588D01*
X55389697Y11236594D01*
X55202454Y11380270D01*
X55202453Y11380271D01*
X55202450Y11380273D01*
X55090217Y11445071D01*
X54998056Y11498281D01*
X54998045Y11498286D01*
X54779993Y11588606D01*
X54552010Y11649694D01*
X54318020Y11680499D01*
X54318017Y11680500D01*
X54318011Y11680500D01*
X54081989Y11680500D01*
X54081983Y11680500D01*
X54081979Y11680499D01*
X53847989Y11649694D01*
X53620006Y11588606D01*
X53401954Y11498286D01*
X53401943Y11498281D01*
X53197545Y11380270D01*
X53010302Y11236594D01*
X53010295Y11236588D01*
X52843412Y11069705D01*
X52843406Y11069698D01*
X52699730Y10882455D01*
X52581719Y10678057D01*
X52581714Y10678046D01*
X52491394Y10459994D01*
X52430306Y10232011D01*
X52399501Y9998021D01*
X52399500Y9998005D01*
X48182924Y9998005D01*
X48337778Y10152859D01*
X48337782Y10152861D01*
X48477139Y10292218D01*
X48586632Y10456086D01*
X48588251Y10459994D01*
X48643875Y10594283D01*
X48643875Y10594284D01*
X48647411Y10602820D01*
X48662051Y10638164D01*
X48687579Y10766503D01*
X48700500Y10831459D01*
X48700500Y13696719D01*
X48720185Y13763758D01*
X48736814Y13784395D01*
X49251583Y14299164D01*
X51440000Y14299164D01*
X51440000Y14100837D01*
X51471026Y13904948D01*
X51532310Y13716331D01*
X51532311Y13716328D01*
X51622350Y13539620D01*
X51649161Y13502717D01*
X52208871Y14062426D01*
X52224755Y14003147D01*
X52291898Y13886853D01*
X52386853Y13791898D01*
X52503147Y13724755D01*
X52562424Y13708872D01*
X52002714Y13149163D01*
X52002715Y13149162D01*
X52039612Y13122355D01*
X52216327Y13032312D01*
X52216330Y13032311D01*
X52404947Y12971027D01*
X52600837Y12940000D01*
X52799163Y12940000D01*
X52995052Y12971027D01*
X53183669Y13032311D01*
X53183672Y13032312D01*
X53360382Y13122352D01*
X53397283Y13149163D01*
X53397284Y13149164D01*
X52837575Y13708873D01*
X52896853Y13724755D01*
X53013147Y13791898D01*
X53108102Y13886853D01*
X53175245Y14003147D01*
X53191128Y14062425D01*
X53750836Y13502716D01*
X53750837Y13502717D01*
X53777648Y13539618D01*
X53867688Y13716328D01*
X53867689Y13716331D01*
X53928973Y13904948D01*
X53960000Y14100837D01*
X53960000Y14299164D01*
X53928973Y14495053D01*
X53867689Y14683670D01*
X53867688Y14683673D01*
X53777645Y14860388D01*
X53750838Y14897285D01*
X53750837Y14897286D01*
X53191127Y14337577D01*
X53175245Y14396853D01*
X53108102Y14513147D01*
X53013147Y14608102D01*
X52896853Y14675245D01*
X52837574Y14691129D01*
X53397283Y15250839D01*
X53360380Y15277650D01*
X53183672Y15367689D01*
X53183669Y15367690D01*
X52995052Y15428974D01*
X52799163Y15460000D01*
X52600837Y15460000D01*
X52404947Y15428974D01*
X52216330Y15367690D01*
X52216322Y15367687D01*
X52039615Y15277648D01*
X52002715Y15250840D01*
X52002715Y15250839D01*
X52562425Y14691129D01*
X52503147Y14675245D01*
X52386853Y14608102D01*
X52291898Y14513147D01*
X52224755Y14396853D01*
X52208871Y14337575D01*
X51649161Y14897285D01*
X51649160Y14897285D01*
X51622352Y14860385D01*
X51532313Y14683678D01*
X51532310Y14683670D01*
X51471026Y14495053D01*
X51440000Y14299164D01*
X49251583Y14299164D01*
X51976779Y17024361D01*
X52038102Y17057845D01*
X52107794Y17052861D01*
X52152141Y17024360D01*
X53500537Y15675964D01*
X53588949Y15587552D01*
X53625967Y15550534D01*
X53653753Y15531968D01*
X53773454Y15451986D01*
X53821453Y15432104D01*
X53937335Y15384104D01*
X54111305Y15349500D01*
X54111309Y15349499D01*
X54111310Y15349499D01*
X54372501Y15349499D01*
X54439540Y15329814D01*
X54485295Y15277010D01*
X54495239Y15207852D01*
X54488683Y15182166D01*
X54445908Y15067483D01*
X54439501Y15007884D01*
X54439501Y15007877D01*
X54439500Y15007865D01*
X54439500Y13392130D01*
X54439501Y13392124D01*
X54445908Y13332517D01*
X54496202Y13197672D01*
X54496206Y13197665D01*
X54582452Y13082456D01*
X54582455Y13082453D01*
X54697664Y12996207D01*
X54697671Y12996203D01*
X54828611Y12947366D01*
X54884544Y12905495D01*
X54899837Y12878641D01*
X54901983Y12873460D01*
X54901985Y12873456D01*
X54934956Y12824111D01*
X54934957Y12824110D01*
X54934960Y12824106D01*
X54959984Y12786655D01*
X55000537Y12725962D01*
X55000538Y12725961D01*
X59850536Y7875965D01*
X59928640Y7797861D01*
X59975966Y7750535D01*
X60123446Y7651991D01*
X60123450Y7651989D01*
X60123453Y7651987D01*
X60157342Y7637950D01*
X60157343Y7637949D01*
X60157344Y7637949D01*
X60287334Y7584105D01*
X60461303Y7549501D01*
X60461307Y7549500D01*
X60461308Y7549500D01*
X62413693Y7549500D01*
X62413694Y7549501D01*
X62482470Y7563181D01*
X62587658Y7584104D01*
X62587661Y7584106D01*
X62587666Y7584106D01*
X62751547Y7651987D01*
X62828044Y7703103D01*
X62894721Y7723981D01*
X62896936Y7724001D01*
X63375269Y7724001D01*
X63442308Y7704316D01*
X63462950Y7687682D01*
X63702586Y7448046D01*
X63719493Y7436750D01*
X63758135Y7410931D01*
X63825505Y7365916D01*
X63825506Y7365916D01*
X63825507Y7365915D01*
X63962082Y7309344D01*
X63962087Y7309342D01*
X63962091Y7309342D01*
X63962092Y7309341D01*
X64107079Y7280500D01*
X64107082Y7280500D01*
X64107083Y7280500D01*
X64254917Y7280500D01*
X65666770Y7280500D01*
X65733809Y7260815D01*
X65754451Y7244181D01*
X65873181Y7125451D01*
X65906666Y7064128D01*
X65909500Y7037770D01*
X65909500Y5876082D01*
X65909500Y5876080D01*
X65909499Y5876080D01*
X65938340Y5731093D01*
X65938343Y5731083D01*
X65994914Y5594509D01*
X65994916Y5594505D01*
X66009013Y5573407D01*
X66024986Y5549501D01*
X66077049Y5471582D01*
X66077052Y5471579D01*
X67075438Y4473195D01*
X67132075Y4416558D01*
X67179974Y4368659D01*
X67302887Y4286531D01*
X67302899Y4286524D01*
X67370777Y4258409D01*
X67425181Y4214569D01*
X67447246Y4148275D01*
X67429967Y4080575D01*
X67378830Y4032964D01*
X67370779Y4029287D01*
X67316086Y4006632D01*
X67316079Y4006629D01*
X67152218Y3897140D01*
X67152214Y3897137D01*
X67012863Y3757786D01*
X67012860Y3757782D01*
X66903371Y3593921D01*
X66903364Y3593908D01*
X66827950Y3411840D01*
X66827947Y3411830D01*
X66789500Y3218544D01*
X66789500Y3218541D01*
X66789500Y2221459D01*
X66789500Y2221457D01*
X66789499Y2221457D01*
X66827947Y2028171D01*
X66827950Y2028161D01*
X66903364Y1846093D01*
X66903371Y1846080D01*
X67012860Y1682219D01*
X67012863Y1682215D01*
X67152214Y1542864D01*
X67152218Y1542861D01*
X67316079Y1433372D01*
X67316092Y1433365D01*
X67498160Y1357951D01*
X67498165Y1357949D01*
X67498169Y1357949D01*
X67498170Y1357948D01*
X67691456Y1319500D01*
X67691459Y1319500D01*
X67888543Y1319500D01*
X68033965Y1348427D01*
X68081835Y1357949D01*
X68263914Y1433368D01*
X68427782Y1542861D01*
X68567139Y1682218D01*
X68676632Y1846086D01*
X68752051Y2028165D01*
X68780835Y2172871D01*
X68790500Y2221457D01*
X68790500Y3218544D01*
X68752052Y3411830D01*
X68752051Y3411831D01*
X68752051Y3411835D01*
X68729404Y3466511D01*
X68676635Y3593908D01*
X68676628Y3593921D01*
X68567139Y3757782D01*
X68567136Y3757786D01*
X68427785Y3897137D01*
X68427781Y3897140D01*
X68312739Y3974009D01*
X68267934Y4027621D01*
X68259227Y4096946D01*
X68289382Y4159974D01*
X68348825Y4196693D01*
X68381630Y4201111D01*
X68864419Y4201111D01*
X70586159Y4201111D01*
X70653198Y4181426D01*
X70673840Y4164792D01*
X71453927Y3384705D01*
X71480806Y3344479D01*
X71490606Y3320821D01*
X71490607Y3320819D01*
X71578207Y3189716D01*
X71578213Y3189708D01*
X71689707Y3078214D01*
X71689711Y3078211D01*
X71820814Y2990610D01*
X71820827Y2990603D01*
X71966498Y2930265D01*
X71966503Y2930263D01*
X72121153Y2899501D01*
X72121156Y2899500D01*
X72121158Y2899500D01*
X72278844Y2899500D01*
X72278845Y2899501D01*
X72433497Y2930263D01*
X72579179Y2990606D01*
X72710289Y3078211D01*
X72821789Y3189711D01*
X72909394Y3320821D01*
X72969737Y3466503D01*
X73000500Y3621158D01*
X73000500Y3778842D01*
X73000500Y3778845D01*
X73000499Y3778847D01*
X72989070Y3836309D01*
X72995297Y3905901D01*
X73038161Y3961078D01*
X73104050Y3984322D01*
X73110687Y3984500D01*
X75580216Y3984500D01*
X75647255Y3964815D01*
X75693010Y3912011D01*
X75702954Y3842853D01*
X75673929Y3779297D01*
X75667897Y3772819D01*
X75652863Y3757786D01*
X75652860Y3757782D01*
X75543371Y3593921D01*
X75543364Y3593908D01*
X75467950Y3411840D01*
X75467947Y3411830D01*
X75429500Y3218544D01*
X75429500Y3218541D01*
X75429500Y2221459D01*
X75429500Y2221457D01*
X75429499Y2221457D01*
X75467947Y2028171D01*
X75467950Y2028161D01*
X75543364Y1846093D01*
X75543371Y1846080D01*
X75652860Y1682219D01*
X75652863Y1682215D01*
X75792214Y1542864D01*
X75792218Y1542861D01*
X75956079Y1433372D01*
X75956092Y1433365D01*
X76138160Y1357951D01*
X76138165Y1357949D01*
X76138169Y1357949D01*
X76138170Y1357948D01*
X76331456Y1319500D01*
X76331459Y1319500D01*
X76528543Y1319500D01*
X76673965Y1348427D01*
X76721835Y1357949D01*
X76903914Y1433368D01*
X77067782Y1542861D01*
X77207139Y1682218D01*
X77316632Y1846086D01*
X77392051Y2028165D01*
X77420835Y2172871D01*
X77430500Y2221457D01*
X77430500Y2641243D01*
X77450185Y2708282D01*
X77502989Y2754037D01*
X77572147Y2763981D01*
X77619597Y2746781D01*
X77730869Y2678147D01*
X77730880Y2678142D01*
X77897302Y2622995D01*
X77897309Y2622994D01*
X78000019Y2612501D01*
X78249999Y2612501D01*
X78750000Y2612501D01*
X78999972Y2612501D01*
X78999986Y2612502D01*
X79102697Y2622995D01*
X79269119Y2678142D01*
X79269130Y2678147D01*
X79409903Y2764977D01*
X79477295Y2783418D01*
X79540097Y2764977D01*
X79680869Y2678147D01*
X79680880Y2678142D01*
X79847302Y2622995D01*
X79847309Y2622994D01*
X79950019Y2612501D01*
X80199999Y2612501D01*
X80700000Y2612501D01*
X80949972Y2612501D01*
X80949986Y2612502D01*
X81052697Y2622995D01*
X81219119Y2678142D01*
X81219124Y2678144D01*
X81368345Y2770185D01*
X81492315Y2894155D01*
X81584356Y3043376D01*
X81584358Y3043381D01*
X81639505Y3209803D01*
X81639506Y3209810D01*
X81649999Y3312514D01*
X81650000Y3312527D01*
X81650000Y3462500D01*
X80700000Y3462500D01*
X80700000Y2612501D01*
X80199999Y2612501D01*
X80200000Y2612502D01*
X80200000Y3462500D01*
X78750000Y3462500D01*
X78750000Y2612501D01*
X78249999Y2612501D01*
X78250000Y2612502D01*
X78250000Y3588500D01*
X78269685Y3655539D01*
X78322489Y3701294D01*
X78374000Y3712500D01*
X78500000Y3712500D01*
X78500000Y3838500D01*
X78519685Y3905539D01*
X78572489Y3951294D01*
X78624000Y3962500D01*
X81649999Y3962500D01*
X81649999Y4112472D01*
X81649998Y4112487D01*
X81639505Y4215198D01*
X81584358Y4381620D01*
X81584356Y4381625D01*
X81492315Y4530846D01*
X81398695Y4624466D01*
X81365210Y4685789D01*
X81370194Y4755481D01*
X81398691Y4799824D01*
X81492712Y4893844D01*
X81584814Y5043166D01*
X81639999Y5209703D01*
X81650500Y5312491D01*
X81650499Y6112508D01*
X81649865Y6118710D01*
X81639999Y6215297D01*
X81639998Y6215300D01*
X81620919Y6272877D01*
X81584814Y6381834D01*
X81492712Y6531156D01*
X81368656Y6655212D01*
X81219334Y6747314D01*
X81052797Y6802499D01*
X81052795Y6802500D01*
X80950010Y6813000D01*
X79949998Y6813000D01*
X79949980Y6812999D01*
X79847203Y6802500D01*
X79847200Y6802499D01*
X79680668Y6747315D01*
X79680659Y6747311D01*
X79540096Y6660611D01*
X79472704Y6642171D01*
X79409904Y6660611D01*
X79269340Y6747311D01*
X79269335Y6747313D01*
X79269334Y6747314D01*
X79102797Y6802499D01*
X79102795Y6802500D01*
X79000010Y6813000D01*
X77999998Y6813000D01*
X77999980Y6812999D01*
X77897203Y6802500D01*
X77897200Y6802499D01*
X77730668Y6747315D01*
X77730663Y6747313D01*
X77684111Y6718599D01*
X77619595Y6678806D01*
X77552204Y6660366D01*
X77485541Y6681289D01*
X77440771Y6734931D01*
X77430500Y6784345D01*
X77430500Y7548544D01*
X77392052Y7741830D01*
X77392051Y7741831D01*
X77392051Y7741835D01*
X77368845Y7797860D01*
X77316635Y7923908D01*
X77316628Y7923921D01*
X77207139Y8087782D01*
X77207136Y8087786D01*
X77067785Y8227137D01*
X77067781Y8227140D01*
X76903920Y8336629D01*
X76903907Y8336636D01*
X76721839Y8412050D01*
X76721829Y8412053D01*
X76528543Y8450500D01*
X76528541Y8450500D01*
X76331459Y8450500D01*
X76331454Y8450500D01*
X76151937Y8414792D01*
X76082345Y8421019D01*
X76027168Y8463882D01*
X76021014Y8473288D01*
X75977685Y8546553D01*
X75977678Y8546562D01*
X75861561Y8662679D01*
X75861552Y8662686D01*
X75720196Y8746283D01*
X75720193Y8746284D01*
X75562494Y8792100D01*
X75562497Y8792100D01*
X75560000Y8792297D01*
X75560000Y7986091D01*
X75545356Y7927633D01*
X75543856Y7924827D01*
X75494891Y7874985D01*
X75426753Y7859527D01*
X75361074Y7883362D01*
X75318708Y7938921D01*
X75310500Y7983285D01*
X75310500Y8210687D01*
X75310499Y8210702D01*
X75309205Y8227140D01*
X75307598Y8247569D01*
X75307597Y8247574D01*
X75265424Y8392735D01*
X75260500Y8427330D01*
X75260500Y8519539D01*
X75268643Y8560472D01*
X75267969Y8560676D01*
X75269731Y8566491D01*
X75269737Y8566503D01*
X75300500Y8721158D01*
X75300500Y8878842D01*
X75300500Y8878845D01*
X75300499Y8878847D01*
X75288686Y8938234D01*
X75269737Y9033497D01*
X75215667Y9164035D01*
X75209397Y9179173D01*
X75209390Y9179186D01*
X75121789Y9310289D01*
X75121786Y9310293D01*
X75005982Y9426097D01*
X75007789Y9427905D01*
X74974743Y9476470D01*
X74972907Y9546315D01*
X75009124Y9606066D01*
X75053758Y9632225D01*
X75151298Y9664546D01*
X75151311Y9664552D01*
X75298034Y9755053D01*
X75298038Y9755056D01*
X75419944Y9876962D01*
X75419947Y9876966D01*
X75510448Y10023689D01*
X75510453Y10023700D01*
X75564680Y10187348D01*
X75574999Y10288346D01*
X75575000Y10288359D01*
X75575000Y10387500D01*
X74724000Y10387500D01*
X74656961Y10407185D01*
X74611206Y10459989D01*
X74600000Y10511500D01*
X74600000Y10763500D01*
X74619685Y10830539D01*
X74672489Y10876294D01*
X74724000Y10887500D01*
X75574999Y10887500D01*
X75574999Y10986640D01*
X75574998Y10986655D01*
X75564680Y11087653D01*
X75510453Y11251301D01*
X75510448Y11251312D01*
X75419947Y11398035D01*
X75419944Y11398039D01*
X75406017Y11411966D01*
X75372532Y11473289D01*
X75377516Y11542981D01*
X75406017Y11587328D01*
X75420340Y11601650D01*
X75510908Y11748484D01*
X75565174Y11912247D01*
X75575500Y12013323D01*
X75575499Y12711676D01*
X75574039Y12725964D01*
X75565174Y12812753D01*
X75545059Y12873456D01*
X75510908Y12976516D01*
X75420340Y13123350D01*
X75298350Y13245340D01*
X75172492Y13322970D01*
X75151518Y13335907D01*
X75151513Y13335909D01*
X75139001Y13340055D01*
X74987753Y13390174D01*
X74987751Y13390175D01*
X74886678Y13400500D01*
X74313330Y13400500D01*
X74313312Y13400499D01*
X74212247Y13390175D01*
X74048484Y13335908D01*
X74048477Y13335905D01*
X73996298Y13303720D01*
X73928906Y13285280D01*
X73862242Y13306203D01*
X73817473Y13359845D01*
X73812125Y13374665D01*
X73801744Y13410398D01*
X73718081Y13551865D01*
X73718079Y13551867D01*
X73718076Y13551871D01*
X73602128Y13667819D01*
X73568643Y13729142D01*
X73573627Y13798834D01*
X73615499Y13854767D01*
X73680963Y13879184D01*
X73689809Y13879500D01*
X80864071Y13879500D01*
X80968207Y13900215D01*
X80989744Y13904499D01*
X81108127Y13953535D01*
X81214669Y14024723D01*
X81237818Y14047874D01*
X81299140Y14081358D01*
X81368831Y14076375D01*
X81424766Y14034504D01*
X81449184Y13969040D01*
X81449500Y13960192D01*
X81449500Y13702131D01*
X81449501Y13702124D01*
X81455908Y13642519D01*
X81468659Y13608331D01*
X81473642Y13538639D01*
X81468659Y13521669D01*
X81455908Y13487482D01*
X81449501Y13427884D01*
X81449500Y13427865D01*
X81449500Y12432130D01*
X81449501Y12432124D01*
X81455908Y12372519D01*
X81468659Y12338331D01*
X81473642Y12268639D01*
X81468659Y12251669D01*
X81455908Y12217482D01*
X81449501Y12157884D01*
X81449500Y12157865D01*
X81449500Y11162130D01*
X81449501Y11162124D01*
X81455908Y11102519D01*
X81468659Y11068331D01*
X81473642Y10998639D01*
X81468659Y10981669D01*
X81455908Y10947482D01*
X81449501Y10887884D01*
X81449500Y10887865D01*
X81449500Y9892130D01*
X81449501Y9892124D01*
X81455908Y9832517D01*
X81506202Y9697672D01*
X81506206Y9697665D01*
X81592452Y9582456D01*
X81592455Y9582453D01*
X81707664Y9496207D01*
X81707671Y9496203D01*
X81842517Y9445909D01*
X81842516Y9445909D01*
X81849444Y9445165D01*
X81902127Y9439500D01*
X82875500Y9439501D01*
X82942539Y9419817D01*
X82988294Y9367013D01*
X82999500Y9315501D01*
X82999500Y7827130D01*
X82999501Y7827124D01*
X83005908Y7767517D01*
X83056202Y7632672D01*
X83056206Y7632665D01*
X83142452Y7517456D01*
X83142455Y7517453D01*
X83257664Y7431207D01*
X83257666Y7431206D01*
X83257669Y7431204D01*
X83274415Y7424958D01*
X83330348Y7383090D01*
X83350857Y7340874D01*
X83376907Y7243658D01*
X83390423Y7193214D01*
X83405630Y7166877D01*
X83405631Y7166872D01*
X83405633Y7166872D01*
X83464951Y7064128D01*
X83469479Y7056286D01*
X83469481Y7056283D01*
X83588349Y6937415D01*
X83588355Y6937410D01*
X83588584Y6937181D01*
X83622069Y6875858D01*
X83617085Y6806166D01*
X83575213Y6750233D01*
X83509749Y6725816D01*
X83500905Y6725500D01*
X83452131Y6725500D01*
X83452123Y6725499D01*
X83392516Y6719092D01*
X83257671Y6668798D01*
X83257664Y6668794D01*
X83142455Y6582548D01*
X83142452Y6582545D01*
X83056206Y6467336D01*
X83056202Y6467329D01*
X83005908Y6332483D01*
X83001406Y6290603D01*
X82999501Y6272877D01*
X82999500Y6272865D01*
X82999500Y5277130D01*
X82999501Y5277124D01*
X83005909Y5217513D01*
X83007692Y5209969D01*
X83004641Y5209249D01*
X83008588Y5153981D01*
X82975095Y5092663D01*
X82930759Y5064173D01*
X82807911Y5018354D01*
X82807906Y5018351D01*
X82692812Y4932191D01*
X82692809Y4932188D01*
X82606649Y4817094D01*
X82606645Y4817087D01*
X82556403Y4682380D01*
X82556401Y4682373D01*
X82550000Y4622845D01*
X82550000Y3975000D01*
X84100000Y3975000D01*
X84100000Y4622828D01*
X84099999Y4622845D01*
X84093075Y4687245D01*
X84105480Y4756005D01*
X84153090Y4807142D01*
X84216362Y4824501D01*
X84547872Y4824501D01*
X84607483Y4830909D01*
X84742331Y4881204D01*
X84742333Y4881206D01*
X84750640Y4884304D01*
X84751285Y4882574D01*
X84808837Y4895098D01*
X84848988Y4883309D01*
X84849360Y4884304D01*
X84857666Y4881206D01*
X84857669Y4881204D01*
X84949276Y4847037D01*
X84991192Y4831403D01*
X84992517Y4830909D01*
X85052127Y4824500D01*
X85649902Y4824501D01*
X85716941Y4804817D01*
X85737583Y4788182D01*
X86290139Y4235626D01*
X86290149Y4235615D01*
X86294479Y4231285D01*
X86294480Y4231284D01*
X86406284Y4119480D01*
X86406286Y4119479D01*
X86406287Y4119478D01*
X86471111Y4082053D01*
X86471113Y4082051D01*
X86471114Y4082051D01*
X86543215Y4040423D01*
X86695943Y3999499D01*
X86695946Y3999499D01*
X86861653Y3999499D01*
X86861669Y3999500D01*
X87061548Y3999500D01*
X87128587Y3979815D01*
X87167086Y3940597D01*
X87229657Y3839154D01*
X87229660Y3839150D01*
X87243982Y3824828D01*
X87277467Y3763505D01*
X87272483Y3693813D01*
X87243985Y3649468D01*
X87230052Y3635535D01*
X87139551Y3488812D01*
X87139546Y3488801D01*
X87085319Y3325153D01*
X87075000Y3224155D01*
X87075000Y3125000D01*
X90524999Y3125000D01*
X90524999Y3224140D01*
X90524998Y3224155D01*
X90514725Y3324718D01*
X90527495Y3393411D01*
X90575375Y3444295D01*
X90643165Y3461216D01*
X90709341Y3438800D01*
X90725764Y3425001D01*
X91357436Y2793329D01*
X91390921Y2732006D01*
X91385937Y2662314D01*
X91344065Y2606381D01*
X91313087Y2589466D01*
X91257673Y2568799D01*
X91257664Y2568794D01*
X91142455Y2482548D01*
X91142452Y2482545D01*
X91056206Y2367336D01*
X91056202Y2367329D01*
X91005908Y2232483D01*
X91004207Y2216657D01*
X90999501Y2172877D01*
X90999500Y2172865D01*
X90999500Y1177130D01*
X90999501Y1177124D01*
X91005908Y1117517D01*
X91056202Y982672D01*
X91056206Y982665D01*
X91142452Y867456D01*
X91142455Y867453D01*
X91257664Y781207D01*
X91257671Y781203D01*
X91366314Y740682D01*
X91422248Y698811D01*
X91446665Y633347D01*
X91431814Y565074D01*
X91382409Y515668D01*
X91322981Y500500D01*
X86277019Y500500D01*
X86209980Y520185D01*
X86164225Y572989D01*
X86154281Y642147D01*
X86183306Y705703D01*
X86233686Y740682D01*
X86342328Y781203D01*
X86342327Y781203D01*
X86342331Y781204D01*
X86457546Y867454D01*
X86543796Y982669D01*
X86594091Y1117517D01*
X86600500Y1177127D01*
X86600499Y2172872D01*
X86594091Y2232483D01*
X86594089Y2232488D01*
X86543797Y2367329D01*
X86543793Y2367336D01*
X86457547Y2482545D01*
X86457544Y2482548D01*
X86399706Y2525846D01*
X87075001Y2525846D01*
X87085319Y2424848D01*
X87139546Y2261200D01*
X87139551Y2261189D01*
X87230052Y2114466D01*
X87230055Y2114462D01*
X87351961Y1992556D01*
X87351965Y1992553D01*
X87498688Y1902052D01*
X87498699Y1902047D01*
X87662347Y1847820D01*
X87763352Y1837501D01*
X87800000Y1837501D01*
X88300000Y1837501D01*
X88336640Y1837501D01*
X88336654Y1837502D01*
X88437652Y1847820D01*
X88601300Y1902047D01*
X88601307Y1902050D01*
X88734902Y1984453D01*
X88802295Y2002894D01*
X88865098Y1984453D01*
X88998692Y1902050D01*
X88998699Y1902047D01*
X89162347Y1847820D01*
X89263352Y1837501D01*
X89300000Y1837501D01*
X89800000Y1837501D01*
X89836640Y1837501D01*
X89836654Y1837502D01*
X89937652Y1847820D01*
X90101300Y1902047D01*
X90101311Y1902052D01*
X90248034Y1992553D01*
X90248038Y1992556D01*
X90369944Y2114462D01*
X90369947Y2114466D01*
X90460448Y2261189D01*
X90460453Y2261200D01*
X90514680Y2424848D01*
X90524999Y2525846D01*
X90525000Y2525859D01*
X90525000Y2625000D01*
X89800000Y2625000D01*
X89800000Y1837501D01*
X89300000Y1837501D01*
X89300000Y2625000D01*
X88300000Y2625000D01*
X88300000Y1837501D01*
X87800000Y1837501D01*
X87800000Y2625000D01*
X87075001Y2625000D01*
X87075001Y2525846D01*
X86399706Y2525846D01*
X86342336Y2568793D01*
X86342333Y2568795D01*
X86342331Y2568796D01*
X86342323Y2568799D01*
X86207482Y2619092D01*
X86207483Y2619092D01*
X86147883Y2625499D01*
X86147881Y2625500D01*
X86147873Y2625500D01*
X86147864Y2625500D01*
X85052129Y2625500D01*
X85052123Y2625499D01*
X84992516Y2619092D01*
X84849359Y2565697D01*
X84848774Y2567266D01*
X84790624Y2554617D01*
X84750794Y2566314D01*
X84750399Y2565254D01*
X84607379Y2618597D01*
X84607372Y2618599D01*
X84547844Y2625000D01*
X84216310Y2625000D01*
X84149271Y2644685D01*
X84103516Y2697489D01*
X84093021Y2762256D01*
X84099999Y2827156D01*
X84100000Y2827173D01*
X84100000Y3475000D01*
X82550000Y3475000D01*
X82550000Y2827156D01*
X82556401Y2767628D01*
X82556403Y2767621D01*
X82606645Y2632914D01*
X82606649Y2632907D01*
X82692809Y2517813D01*
X82692812Y2517810D01*
X82807906Y2431650D01*
X82807913Y2431646D01*
X82931226Y2385653D01*
X82987160Y2343782D01*
X83011577Y2278318D01*
X83006130Y2240416D01*
X83008187Y2239930D01*
X83006401Y2232373D01*
X83000000Y2172845D01*
X83000000Y1925000D01*
X83876000Y1925000D01*
X83943039Y1905315D01*
X83988794Y1852511D01*
X84000000Y1801000D01*
X84000000Y1549000D01*
X83980315Y1481961D01*
X83927511Y1436206D01*
X83876000Y1425000D01*
X83000000Y1425000D01*
X83000000Y1177156D01*
X83006401Y1117628D01*
X83006403Y1117621D01*
X83056645Y982914D01*
X83056649Y982907D01*
X83142809Y867813D01*
X83142812Y867810D01*
X83257906Y781650D01*
X83257913Y781646D01*
X83367743Y740682D01*
X83423677Y698811D01*
X83448094Y633347D01*
X83433242Y565074D01*
X83383837Y515668D01*
X83324410Y500500D01*
X10634685Y500500D01*
X10567646Y520185D01*
X10521891Y572989D01*
X10510880Y631453D01*
X10511098Y635349D01*
X9582737Y1563710D01*
X9716602Y1660967D01*
X9839033Y1783398D01*
X9936290Y1917263D01*
X10864652Y988901D01*
X10864653Y988902D01*
X10960431Y1109001D01*
X11103847Y1337248D01*
X11220801Y1580105D01*
X11220807Y1580119D01*
X11309832Y1834537D01*
X11309836Y1834549D01*
X11369818Y2097349D01*
X11369821Y2097367D01*
X11399999Y2365213D01*
X11400000Y2365217D01*
X11400000Y2634784D01*
X11399999Y2634788D01*
X11369821Y2902634D01*
X11369818Y2902652D01*
X11309836Y3165452D01*
X11309832Y3165464D01*
X11220807Y3419882D01*
X11220801Y3419896D01*
X11103847Y3662753D01*
X10960429Y3891003D01*
X10960427Y3891007D01*
X10864653Y4011100D01*
X10864652Y4011101D01*
X9936290Y3082738D01*
X9839033Y3216602D01*
X9716602Y3339033D01*
X9582736Y3436291D01*
X10511099Y4364654D01*
X10390998Y4460432D01*
X10162752Y4603848D01*
X9919895Y4720802D01*
X9919881Y4720808D01*
X9665463Y4809833D01*
X9665451Y4809837D01*
X9402651Y4869819D01*
X9402633Y4869822D01*
X9134787Y4900000D01*
X8865212Y4900000D01*
X8597366Y4869822D01*
X8597348Y4869819D01*
X8334548Y4809837D01*
X8334536Y4809833D01*
X8080118Y4720808D01*
X8080104Y4720802D01*
X7837247Y4603848D01*
X7609001Y4460432D01*
X7488899Y4364655D01*
X8417263Y3436291D01*
X8283398Y3339033D01*
X8160967Y3216602D01*
X8063709Y3082737D01*
X7135345Y4011101D01*
X7039568Y3890999D01*
X6896152Y3662753D01*
X6779198Y3419896D01*
X6779192Y3419882D01*
X6690167Y3165464D01*
X6690163Y3165452D01*
X6630181Y2902652D01*
X6630178Y2902634D01*
X6600000Y2634788D01*
X6600000Y2365213D01*
X6630178Y2097367D01*
X6630181Y2097349D01*
X6690163Y1834549D01*
X6690167Y1834537D01*
X6779192Y1580119D01*
X6779198Y1580105D01*
X6896152Y1337248D01*
X7039568Y1109002D01*
X7135346Y988901D01*
X8063708Y1917264D01*
X8160967Y1783398D01*
X8283398Y1660967D01*
X8417262Y1563710D01*
X7488900Y635349D01*
X7489119Y631453D01*
X7473224Y563415D01*
X7423069Y514771D01*
X7365314Y500500D01*
X3003751Y500500D01*
X2996264Y500726D01*
X2706205Y518272D01*
X2691340Y520077D01*
X2409202Y571781D01*
X2394664Y575365D01*
X2120825Y660696D01*
X2106827Y666005D01*
X1850868Y781203D01*
X1845269Y783723D01*
X1832012Y790681D01*
X1586541Y939072D01*
X1574217Y947578D01*
X1521472Y988901D01*
X1348426Y1124475D01*
X1337218Y1134405D01*
X1134404Y1337219D01*
X1124474Y1348427D01*
X1057927Y1433368D01*
X947573Y1574224D01*
X939071Y1586542D01*
X790680Y1832013D01*
X783722Y1845270D01*
X666000Y2106837D01*
X660698Y2120818D01*
X575363Y2394666D01*
X571780Y2409203D01*
X533900Y2615908D01*
X520076Y2691341D01*
X518271Y2706206D01*
X518145Y2708282D01*
X500726Y2996264D01*
X500500Y3003751D01*
X500500Y17529402D01*
X4071604Y17529402D01*
X4071605Y17529400D01*
X5093900Y17529400D01*
X5593900Y17529400D01*
X6616195Y17529400D01*
X6616195Y17529402D01*
X6616000Y17531887D01*
X6570181Y17689599D01*
X6486585Y17830953D01*
X6486578Y17830962D01*
X6370461Y17947079D01*
X6370452Y17947086D01*
X6229096Y18030683D01*
X6229093Y18030684D01*
X6071395Y18076500D01*
X6071389Y18076501D01*
X6034549Y18079400D01*
X5593900Y18079400D01*
X5593900Y17529400D01*
X5093900Y17529400D01*
X5093900Y18079400D01*
X4653250Y18079400D01*
X4616410Y18076501D01*
X4616404Y18076500D01*
X4458706Y18030684D01*
X4458703Y18030683D01*
X4317347Y17947086D01*
X4317338Y17947079D01*
X4201221Y17830962D01*
X4201214Y17830953D01*
X4117618Y17689599D01*
X4071799Y17531887D01*
X4071604Y17529402D01*
X500500Y17529402D01*
X500500Y18376000D01*
X520185Y18443039D01*
X572989Y18488794D01*
X624500Y18500000D01*
X3566519Y18500000D01*
X4785857Y19763583D01*
X4846571Y19798152D01*
X4916341Y19794410D01*
X4962765Y19765156D01*
X5049707Y19678214D01*
X5049711Y19678211D01*
X5180814Y19590610D01*
X5180827Y19590603D01*
X5294024Y19543716D01*
X5326503Y19530263D01*
X5481153Y19499501D01*
X5481156Y19499500D01*
X5481158Y19499500D01*
X5638844Y19499500D01*
X5638845Y19499501D01*
X5793497Y19530263D01*
X5939179Y19590606D01*
X6070289Y19678211D01*
X6181789Y19789711D01*
X6269394Y19920821D01*
X6329737Y20066503D01*
X6360500Y20221158D01*
X6360638Y20221850D01*
X6393023Y20283761D01*
X6394519Y20285285D01*
X8935898Y22826665D01*
X8997219Y22860148D01*
X9066911Y22855164D01*
G37*
%TD.AperFunction*%
%TA.AperFunction,Conductor*%
G36*
X100653039Y8605315D02*
G01*
X100698794Y8552511D01*
X100710000Y8501000D01*
X100710000Y7375000D01*
X100957828Y7375000D01*
X100957844Y7375001D01*
X101017372Y7381402D01*
X101017379Y7381404D01*
X101152086Y7431646D01*
X101152093Y7431650D01*
X101267187Y7517810D01*
X101267190Y7517813D01*
X101276234Y7529893D01*
X101332168Y7571764D01*
X101401859Y7576748D01*
X101463182Y7543262D01*
X101496666Y7481939D01*
X101499500Y7455582D01*
X101499500Y3353236D01*
X101479815Y3286197D01*
X101427011Y3240442D01*
X101357853Y3230498D01*
X101294297Y3259523D01*
X101258459Y3312281D01*
X101220807Y3419882D01*
X101220801Y3419896D01*
X101103847Y3662753D01*
X100960429Y3891003D01*
X100960427Y3891007D01*
X100864653Y4011100D01*
X100864652Y4011101D01*
X99936290Y3082738D01*
X99839033Y3216602D01*
X99716602Y3339033D01*
X99582736Y3436291D01*
X100511099Y4364654D01*
X100390998Y4460432D01*
X100162752Y4603848D01*
X99919895Y4720802D01*
X99919881Y4720808D01*
X99665463Y4809833D01*
X99665451Y4809837D01*
X99402651Y4869819D01*
X99402633Y4869822D01*
X99134787Y4900000D01*
X98865212Y4900000D01*
X98597366Y4869822D01*
X98597348Y4869819D01*
X98334548Y4809837D01*
X98334536Y4809833D01*
X98080118Y4720808D01*
X98080104Y4720802D01*
X97837247Y4603848D01*
X97609001Y4460432D01*
X97488899Y4364655D01*
X98417263Y3436291D01*
X98283398Y3339033D01*
X98160967Y3216602D01*
X98063709Y3082738D01*
X97135345Y4011101D01*
X97039568Y3890999D01*
X96896152Y3662753D01*
X96779198Y3419896D01*
X96779192Y3419882D01*
X96690167Y3165464D01*
X96690163Y3165452D01*
X96630181Y2902652D01*
X96630178Y2902634D01*
X96600000Y2634788D01*
X96600000Y2365213D01*
X96630178Y2097367D01*
X96630181Y2097349D01*
X96690163Y1834549D01*
X96690167Y1834537D01*
X96779192Y1580119D01*
X96779198Y1580105D01*
X96896152Y1337248D01*
X97039568Y1109002D01*
X97135346Y988901D01*
X98063708Y1917264D01*
X98160967Y1783398D01*
X98283398Y1660967D01*
X98417262Y1563710D01*
X97488900Y635349D01*
X97489119Y631453D01*
X97473224Y563415D01*
X97423069Y514771D01*
X97365314Y500500D01*
X94277019Y500500D01*
X94209980Y520185D01*
X94164225Y572989D01*
X94154281Y642147D01*
X94183306Y705703D01*
X94233686Y740682D01*
X94342328Y781203D01*
X94342327Y781203D01*
X94342331Y781204D01*
X94457546Y867454D01*
X94543796Y982669D01*
X94594091Y1117517D01*
X94600500Y1177127D01*
X94600499Y2172872D01*
X94594091Y2232483D01*
X94594090Y2232485D01*
X94594090Y2232488D01*
X94592308Y2240031D01*
X94595366Y2240754D01*
X94591398Y2295959D01*
X94624860Y2357294D01*
X94669242Y2385828D01*
X94792084Y2431645D01*
X94792093Y2431650D01*
X94907187Y2517810D01*
X94907190Y2517813D01*
X94993350Y2632907D01*
X94993353Y2632912D01*
X95011511Y2681594D01*
X95011511Y2681595D01*
X95043596Y2767620D01*
X95043598Y2767628D01*
X95049999Y2827156D01*
X95050000Y2827173D01*
X95050000Y3475000D01*
X93500000Y3475000D01*
X93500000Y2827156D01*
X93506925Y2762756D01*
X93494520Y2693996D01*
X93446910Y2642859D01*
X93383636Y2625500D01*
X93052130Y2625500D01*
X93052123Y2625499D01*
X92992516Y2619092D01*
X92849359Y2565697D01*
X92848714Y2567425D01*
X92839465Y2565414D01*
X92821147Y2556406D01*
X92806025Y2558141D01*
X92791147Y2554905D01*
X92772014Y2562043D01*
X92751733Y2564369D01*
X92743341Y2568420D01*
X92681167Y2591609D01*
X92625233Y2633480D01*
X92600816Y2698944D01*
X92600500Y2707791D01*
X92600500Y2910940D01*
X92600501Y2910953D01*
X92600501Y3079056D01*
X92588190Y3125000D01*
X92559577Y3231784D01*
X92528162Y3286197D01*
X92480524Y3368710D01*
X92480518Y3368718D01*
X91842604Y4006632D01*
X91198803Y4650432D01*
X91165319Y4711754D01*
X91170303Y4781446D01*
X91212175Y4837379D01*
X91277639Y4861796D01*
X91329818Y4854294D01*
X91392517Y4830909D01*
X91392516Y4830909D01*
X91399444Y4830165D01*
X91452127Y4824500D01*
X92547872Y4824501D01*
X92607483Y4830909D01*
X92742331Y4881204D01*
X92742333Y4881206D01*
X92750640Y4884304D01*
X92751225Y4882735D01*
X92809367Y4895384D01*
X92849207Y4883688D01*
X92849602Y4884747D01*
X92992623Y4831403D01*
X92992627Y4831402D01*
X93052155Y4825001D01*
X93052172Y4825000D01*
X93383690Y4825000D01*
X93450729Y4805315D01*
X93496484Y4752511D01*
X93506979Y4687744D01*
X93500000Y4622845D01*
X93500000Y3975000D01*
X95050000Y3975000D01*
X95050000Y4622828D01*
X95049999Y4622845D01*
X95043598Y4682373D01*
X95043596Y4682380D01*
X94993354Y4817087D01*
X94993350Y4817094D01*
X94907190Y4932188D01*
X94907187Y4932191D01*
X94792093Y5018351D01*
X94792088Y5018354D01*
X94668772Y5064348D01*
X94612839Y5106220D01*
X94588422Y5171684D01*
X94593890Y5209580D01*
X94591813Y5210070D01*
X94593598Y5217628D01*
X94599999Y5277156D01*
X94600000Y5277173D01*
X94600000Y5525000D01*
X93724000Y5525000D01*
X93656961Y5544685D01*
X93611206Y5597489D01*
X93600000Y5649000D01*
X93600000Y5775000D01*
X93474000Y5775000D01*
X93406961Y5794685D01*
X93361206Y5847489D01*
X93350000Y5899000D01*
X93350000Y6025000D01*
X93850000Y6025000D01*
X94600000Y6025000D01*
X94600000Y6272828D01*
X94599999Y6272845D01*
X94593598Y6332373D01*
X94593596Y6332380D01*
X94543354Y6467087D01*
X94543350Y6467094D01*
X94457190Y6582188D01*
X94457187Y6582191D01*
X94342093Y6668351D01*
X94342086Y6668355D01*
X94207379Y6718597D01*
X94207372Y6718599D01*
X94147844Y6725000D01*
X93850000Y6725000D01*
X93850000Y6025000D01*
X93350000Y6025000D01*
X93350000Y6725000D01*
X93052155Y6725000D01*
X92992627Y6718599D01*
X92992620Y6718597D01*
X92849601Y6665254D01*
X92848924Y6667069D01*
X92791674Y6654617D01*
X92750967Y6666572D01*
X92750641Y6665697D01*
X92607482Y6719092D01*
X92607483Y6719092D01*
X92547883Y6725499D01*
X92547881Y6725500D01*
X92547873Y6725500D01*
X92547864Y6725500D01*
X91452129Y6725500D01*
X91452123Y6725499D01*
X91392516Y6719092D01*
X91257671Y6668798D01*
X91257664Y6668794D01*
X91142455Y6582548D01*
X91142452Y6582545D01*
X91056206Y6467336D01*
X91056202Y6467329D01*
X91005908Y6332483D01*
X91001406Y6290603D01*
X90999501Y6272877D01*
X90999500Y6272865D01*
X90999500Y5277130D01*
X90999501Y5277124D01*
X91005908Y5217517D01*
X91029293Y5154820D01*
X91034277Y5085128D01*
X91000792Y5023805D01*
X90939468Y4990321D01*
X90869777Y4995306D01*
X90825430Y5023806D01*
X90768717Y5080519D01*
X90768716Y5080520D01*
X90673487Y5135500D01*
X90631785Y5159577D01*
X90514883Y5190902D01*
X90455224Y5227267D01*
X90441443Y5245574D01*
X90370340Y5360850D01*
X90248350Y5482840D01*
X90248349Y5482841D01*
X90209402Y5506864D01*
X90162678Y5558813D01*
X90150500Y5612402D01*
X90150500Y5660941D01*
X90150501Y5660954D01*
X90150501Y5829055D01*
X90150501Y5829057D01*
X90109577Y5981785D01*
X90096469Y6004488D01*
X90078564Y6035501D01*
X90078564Y6035502D01*
X90030524Y6118710D01*
X90030521Y6118714D01*
X90030520Y6118716D01*
X89918716Y6230520D01*
X89918715Y6230521D01*
X89914385Y6234851D01*
X89914374Y6234861D01*
X89134574Y7014661D01*
X89101089Y7075984D01*
X89100638Y7078151D01*
X89071167Y7226310D01*
X89077394Y7295901D01*
X89120257Y7351079D01*
X89186147Y7374323D01*
X89192784Y7374501D01*
X89527871Y7374501D01*
X89527872Y7374501D01*
X89587483Y7380909D01*
X89621667Y7393660D01*
X89691358Y7398643D01*
X89708327Y7393662D01*
X89742517Y7380909D01*
X89802127Y7374500D01*
X90797872Y7374501D01*
X90857483Y7380909D01*
X90891667Y7393660D01*
X90961358Y7398643D01*
X90978327Y7393662D01*
X91012517Y7380909D01*
X91072127Y7374500D01*
X92067872Y7374501D01*
X92127483Y7380909D01*
X92161667Y7393660D01*
X92231358Y7398643D01*
X92248327Y7393662D01*
X92282517Y7380909D01*
X92342127Y7374500D01*
X93337872Y7374501D01*
X93397483Y7380909D01*
X93431667Y7393660D01*
X93501358Y7398643D01*
X93518327Y7393662D01*
X93552517Y7380909D01*
X93612127Y7374500D01*
X94607872Y7374501D01*
X94667483Y7380909D01*
X94701667Y7393660D01*
X94771358Y7398643D01*
X94788327Y7393662D01*
X94822517Y7380909D01*
X94882127Y7374500D01*
X95877872Y7374501D01*
X95937483Y7380909D01*
X95971667Y7393660D01*
X96041358Y7398643D01*
X96058327Y7393662D01*
X96092517Y7380909D01*
X96152127Y7374500D01*
X97147872Y7374501D01*
X97207483Y7380909D01*
X97241667Y7393660D01*
X97311358Y7398643D01*
X97328327Y7393662D01*
X97362517Y7380909D01*
X97422127Y7374500D01*
X98417872Y7374501D01*
X98477483Y7380909D01*
X98511667Y7393660D01*
X98581358Y7398643D01*
X98598327Y7393662D01*
X98632517Y7380909D01*
X98692127Y7374500D01*
X99687872Y7374501D01*
X99747483Y7380909D01*
X99782381Y7393926D01*
X99852069Y7398911D01*
X99869050Y7393925D01*
X99902623Y7381402D01*
X99962155Y7375001D01*
X99962172Y7375000D01*
X100210000Y7375000D01*
X100210000Y8501000D01*
X100229685Y8568039D01*
X100282489Y8613794D01*
X100334000Y8625000D01*
X100586000Y8625000D01*
X100653039Y8605315D01*
G37*
%TD.AperFunction*%
%TA.AperFunction,Conductor*%
G36*
X75483001Y5947619D02*
G01*
X75533001Y5898815D01*
X75539458Y5885526D01*
X75543367Y5876087D01*
X75543371Y5876080D01*
X75652860Y5712219D01*
X75652863Y5712215D01*
X75717897Y5647181D01*
X75751382Y5585858D01*
X75746398Y5516166D01*
X75704526Y5460233D01*
X75639062Y5435816D01*
X75630216Y5435500D01*
X75132902Y5435500D01*
X75065863Y5455185D01*
X75020108Y5507989D01*
X75011285Y5535308D01*
X74994738Y5618492D01*
X74994737Y5618493D01*
X74994737Y5618497D01*
X74994735Y5618502D01*
X74979852Y5654434D01*
X74972383Y5723904D01*
X75003659Y5786383D01*
X75063748Y5822034D01*
X75073764Y5823964D01*
X75075764Y5824500D01*
X75075766Y5824500D01*
X75222135Y5863719D01*
X75353365Y5939485D01*
X75353366Y5939487D01*
X75360403Y5943549D01*
X75361749Y5941217D01*
X75414553Y5961643D01*
X75483001Y5947619D01*
G37*
%TD.AperFunction*%
%TA.AperFunction,Conductor*%
G36*
X42542942Y30054815D02*
G01*
X42588697Y30002011D01*
X42598641Y29932853D01*
X42569616Y29869297D01*
X42563584Y29862819D01*
X38712082Y26011319D01*
X38650759Y25977834D01*
X38624401Y25975000D01*
X38347130Y25975000D01*
X38347123Y25974999D01*
X38287516Y25968592D01*
X38152671Y25918298D01*
X38152664Y25918294D01*
X38037455Y25832048D01*
X38037452Y25832045D01*
X37951206Y25716836D01*
X37951202Y25716829D01*
X37900908Y25581983D01*
X37894501Y25522384D01*
X37894500Y25522365D01*
X37894500Y23901630D01*
X37894501Y23901624D01*
X37900908Y23842017D01*
X37951202Y23707172D01*
X37951206Y23707165D01*
X38037452Y23591956D01*
X38037455Y23591953D01*
X38152664Y23505707D01*
X38152671Y23505703D01*
X38197618Y23488939D01*
X38287517Y23455409D01*
X38347127Y23449000D01*
X39092872Y23449001D01*
X39152483Y23455409D01*
X39153810Y23455904D01*
X39287329Y23505703D01*
X39295112Y23509953D01*
X39296865Y23506743D01*
X39345999Y23525139D01*
X39414291Y23510373D01*
X39415263Y23509748D01*
X39422670Y23505703D01*
X39497155Y23477923D01*
X39557517Y23455409D01*
X39617127Y23449000D01*
X40038271Y23449001D01*
X40105309Y23429317D01*
X40151064Y23376513D01*
X40161008Y23307354D01*
X40131983Y23243798D01*
X40125951Y23237320D01*
X39500451Y22611819D01*
X39439128Y22578334D01*
X39412770Y22575500D01*
X35701080Y22575500D01*
X35556092Y22546660D01*
X35556082Y22546657D01*
X35419511Y22490088D01*
X35419498Y22490081D01*
X35296584Y22407952D01*
X35296580Y22407949D01*
X33317052Y20428422D01*
X33317052Y20428421D01*
X33317049Y20428418D01*
X33317048Y20428416D01*
X33281357Y20374999D01*
X33234918Y20305498D01*
X33234914Y20305491D01*
X33178342Y20168913D01*
X33178340Y20168907D01*
X33159722Y20075308D01*
X33127337Y20013397D01*
X33066621Y19978823D01*
X33038105Y19975500D01*
X32577129Y19975500D01*
X32577123Y19975499D01*
X32517516Y19969092D01*
X32382671Y19918798D01*
X32382664Y19918794D01*
X32267455Y19832548D01*
X32267452Y19832545D01*
X32181206Y19717336D01*
X32181202Y19717329D01*
X32130908Y19582483D01*
X32125294Y19530262D01*
X32124501Y19522877D01*
X32124500Y19522865D01*
X32124500Y14327130D01*
X32124501Y14327124D01*
X32130908Y14267517D01*
X32181202Y14132672D01*
X32181206Y14132665D01*
X32267452Y14017456D01*
X32267455Y14017453D01*
X32382664Y13931207D01*
X32382671Y13931203D01*
X32517517Y13880909D01*
X32517516Y13880909D01*
X32524444Y13880165D01*
X32577127Y13874500D01*
X35172872Y13874501D01*
X35232483Y13880909D01*
X35367331Y13931204D01*
X35482546Y14017454D01*
X35568796Y14132669D01*
X35619091Y14267517D01*
X35625500Y14327127D01*
X35625499Y19522872D01*
X35619091Y19582483D01*
X35616062Y19590603D01*
X35568797Y19717329D01*
X35568793Y19717336D01*
X35482547Y19832545D01*
X35482544Y19832548D01*
X35367335Y19918794D01*
X35367328Y19918798D01*
X35229705Y19970128D01*
X35173771Y20011999D01*
X35149354Y20077464D01*
X35164206Y20145737D01*
X35185354Y20173988D01*
X36049548Y21038181D01*
X36110871Y21071666D01*
X36137229Y21074500D01*
X39848920Y21074500D01*
X39976800Y21099938D01*
X39993913Y21103342D01*
X40062204Y21131629D01*
X40130491Y21159914D01*
X40130492Y21159915D01*
X40130495Y21159916D01*
X40191232Y21200499D01*
X40253416Y21242048D01*
X41842951Y22831584D01*
X41864300Y22863535D01*
X41925084Y22954505D01*
X41981658Y23091087D01*
X42010500Y23236082D01*
X42010500Y23327223D01*
X42030185Y23394262D01*
X42082989Y23440017D01*
X42147760Y23450512D01*
X42157165Y23449501D01*
X42157172Y23449500D01*
X42280000Y23449500D01*
X42780000Y23449500D01*
X42902828Y23449500D01*
X42902844Y23449501D01*
X42962372Y23455902D01*
X42962379Y23455904D01*
X43097086Y23506146D01*
X43097093Y23506150D01*
X43212187Y23592310D01*
X43212190Y23592313D01*
X43298350Y23707407D01*
X43298354Y23707414D01*
X43348596Y23842121D01*
X43348598Y23842128D01*
X43354999Y23901656D01*
X43355000Y23901673D01*
X43355000Y24462000D01*
X42780000Y24462000D01*
X42780000Y23449500D01*
X42280000Y23449500D01*
X42280000Y24962000D01*
X42780000Y24962000D01*
X43355000Y24962000D01*
X43355000Y25522328D01*
X43354999Y25522345D01*
X43348598Y25581873D01*
X43348596Y25581880D01*
X43298354Y25716587D01*
X43298350Y25716594D01*
X43212190Y25831688D01*
X43212187Y25831691D01*
X43097093Y25917851D01*
X43097086Y25917855D01*
X42962379Y25968097D01*
X42962372Y25968099D01*
X42902844Y25974500D01*
X42780000Y25974500D01*
X42780000Y24962000D01*
X42280000Y24962000D01*
X42280000Y25974500D01*
X42157155Y25974500D01*
X42097627Y25968099D01*
X42097620Y25968097D01*
X41962913Y25917855D01*
X41955128Y25913603D01*
X41953366Y25916829D01*
X41904094Y25898527D01*
X41835842Y25913471D01*
X41834027Y25914639D01*
X41827334Y25918294D01*
X41827331Y25918296D01*
X41827326Y25918298D01*
X41687787Y25970343D01*
X41631853Y26012214D01*
X41607436Y26077678D01*
X41622288Y26145951D01*
X41643435Y26174202D01*
X45305520Y29836284D01*
X45384577Y29973216D01*
X45387091Y29982597D01*
X45423458Y30042256D01*
X45486305Y30072784D01*
X45506865Y30074500D01*
X49401258Y30074500D01*
X49468297Y30054815D01*
X49514052Y30002011D01*
X49523996Y29932853D01*
X49494971Y29869297D01*
X49488939Y29862819D01*
X45939487Y26313368D01*
X45939485Y26313365D01*
X45863719Y26182137D01*
X45824500Y26035766D01*
X45824500Y22519743D01*
X45804815Y22452704D01*
X45788181Y22432062D01*
X43530352Y20174234D01*
X43469029Y20140749D01*
X43399337Y20145733D01*
X43343404Y20187605D01*
X43326489Y20218583D01*
X43298798Y20292827D01*
X43298793Y20292836D01*
X43212547Y20408045D01*
X43212544Y20408048D01*
X43097335Y20494294D01*
X43097328Y20494298D01*
X42962486Y20544590D01*
X42962485Y20544591D01*
X42962483Y20544591D01*
X42902873Y20551000D01*
X42902863Y20551000D01*
X42157129Y20551000D01*
X42157123Y20550999D01*
X42097516Y20544592D01*
X41962671Y20494298D01*
X41954886Y20490046D01*
X41953153Y20493220D01*
X41903698Y20474841D01*
X41835443Y20489775D01*
X41834497Y20490383D01*
X41827328Y20494298D01*
X41692486Y20544590D01*
X41692485Y20544591D01*
X41692483Y20544591D01*
X41632873Y20551000D01*
X41632863Y20551000D01*
X40887129Y20551000D01*
X40887123Y20550999D01*
X40827516Y20544592D01*
X40692671Y20494298D01*
X40684886Y20490046D01*
X40683153Y20493220D01*
X40633698Y20474841D01*
X40565443Y20489775D01*
X40564497Y20490383D01*
X40557328Y20494298D01*
X40422486Y20544590D01*
X40422485Y20544591D01*
X40422483Y20544591D01*
X40362873Y20551000D01*
X40362863Y20551000D01*
X39617129Y20551000D01*
X39617123Y20550999D01*
X39557516Y20544592D01*
X39422671Y20494298D01*
X39414886Y20490046D01*
X39413153Y20493220D01*
X39363698Y20474841D01*
X39295443Y20489775D01*
X39294497Y20490383D01*
X39287328Y20494298D01*
X39152486Y20544590D01*
X39152485Y20544591D01*
X39152483Y20544591D01*
X39092873Y20551000D01*
X39092863Y20551000D01*
X38347129Y20551000D01*
X38347123Y20550999D01*
X38287516Y20544592D01*
X38152671Y20494298D01*
X38152664Y20494294D01*
X38037455Y20408048D01*
X38037452Y20408045D01*
X37951206Y20292836D01*
X37951202Y20292829D01*
X37900908Y20157983D01*
X37894501Y20098384D01*
X37894500Y20098365D01*
X37894500Y18477630D01*
X37894501Y18477624D01*
X37900908Y18418017D01*
X37951202Y18283172D01*
X37951206Y18283165D01*
X38037452Y18167956D01*
X38037455Y18167953D01*
X38152664Y18081707D01*
X38152671Y18081703D01*
X38197618Y18064939D01*
X38287517Y18031409D01*
X38347127Y18025000D01*
X39050348Y18025001D01*
X39117387Y18005317D01*
X39163142Y17952513D01*
X39173086Y17883354D01*
X39165709Y17858588D01*
X39166364Y17858371D01*
X39164092Y17851518D01*
X39164092Y17851516D01*
X39109826Y17687753D01*
X39109826Y17687752D01*
X39109825Y17687752D01*
X39099500Y17586685D01*
X39099500Y17013331D01*
X39099501Y17013313D01*
X39109825Y16912248D01*
X39117792Y16888207D01*
X39164020Y16748700D01*
X39164092Y16748485D01*
X39164093Y16748482D01*
X39187321Y16710824D01*
X39254660Y16601650D01*
X39376650Y16479660D01*
X39378098Y16478767D01*
X39378882Y16477896D01*
X39382317Y16475179D01*
X39381852Y16474593D01*
X39424821Y16426820D01*
X39437000Y16373229D01*
X39437000Y14229020D01*
X39417315Y14161981D01*
X39400681Y14141339D01*
X34717053Y9457712D01*
X34676825Y9430832D01*
X34573455Y9388015D01*
X34425965Y9289465D01*
X34425961Y9289462D01*
X34300538Y9164039D01*
X34300535Y9164035D01*
X34201990Y9016554D01*
X34201983Y9016541D01*
X34134106Y8852668D01*
X34134104Y8852660D01*
X34107202Y8717414D01*
X34074817Y8655504D01*
X34073266Y8653925D01*
X32451162Y7031819D01*
X32389839Y6998334D01*
X32363481Y6995500D01*
X14246519Y6995500D01*
X14179480Y7015185D01*
X14158838Y7031819D01*
X11089236Y10101421D01*
X15954972Y10101421D01*
X15995793Y10060600D01*
X16458514Y9654804D01*
X16946774Y9280149D01*
X17458486Y8938234D01*
X17458511Y8938218D01*
X17991496Y8630499D01*
X18543472Y8358295D01*
X19112067Y8122775D01*
X19112078Y8122771D01*
X19694852Y7924945D01*
X19694860Y7924943D01*
X20289345Y7765651D01*
X20289363Y7765647D01*
X20892952Y7645586D01*
X20892963Y7645584D01*
X21503139Y7565253D01*
X22117287Y7525000D01*
X22732713Y7525000D01*
X23346860Y7565253D01*
X23957036Y7645584D01*
X23957047Y7645586D01*
X24560636Y7765647D01*
X24560654Y7765651D01*
X25155139Y7924943D01*
X25155147Y7924945D01*
X25737921Y8122771D01*
X25737932Y8122775D01*
X26306527Y8358295D01*
X26858503Y8630499D01*
X27391488Y8938218D01*
X27391513Y8938234D01*
X27903225Y9280149D01*
X28391485Y9654804D01*
X28854207Y10060600D01*
X28895027Y10101421D01*
X22425000Y16571447D01*
X15954972Y10101421D01*
X11089236Y10101421D01*
X9996071Y11194586D01*
X9969191Y11234815D01*
X9909397Y11379172D01*
X9909396Y11379173D01*
X9909394Y11379179D01*
X9909390Y11379185D01*
X9906521Y11384553D01*
X9908452Y11385586D01*
X9890520Y11442863D01*
X9890500Y11445071D01*
X9890500Y13750501D01*
X9910185Y13817540D01*
X9962989Y13863295D01*
X10014500Y13874501D01*
X12272871Y13874501D01*
X12272872Y13874501D01*
X12332483Y13880909D01*
X12467331Y13931204D01*
X12582546Y14017454D01*
X12668796Y14132669D01*
X12719091Y14267517D01*
X12725500Y14327127D01*
X12725499Y17232713D01*
X13025000Y17232713D01*
X13025000Y16617288D01*
X13065252Y16003140D01*
X13145583Y15392964D01*
X13145585Y15392953D01*
X13265646Y14789364D01*
X13265650Y14789346D01*
X13424942Y14194861D01*
X13424944Y14194853D01*
X13622770Y13612079D01*
X13622774Y13612068D01*
X13858294Y13043473D01*
X14130498Y12491497D01*
X14438217Y11958512D01*
X14438233Y11958487D01*
X14780148Y11446775D01*
X15154803Y10958515D01*
X15560606Y10495786D01*
X15601419Y10454973D01*
X22071446Y16925000D01*
X22071446Y16925001D01*
X22778553Y16925001D01*
X22778553Y16924999D01*
X29248579Y10454973D01*
X29248580Y10454973D01*
X29289400Y10495793D01*
X29695196Y10958515D01*
X30069851Y11446775D01*
X30411766Y11958487D01*
X30411782Y11958512D01*
X30719501Y12491497D01*
X30991705Y13043473D01*
X31227225Y13612068D01*
X31227229Y13612079D01*
X31425055Y14194853D01*
X31425057Y14194861D01*
X31584349Y14789346D01*
X31584353Y14789364D01*
X31704414Y15392953D01*
X31704416Y15392964D01*
X31784747Y16003140D01*
X31825000Y16617288D01*
X31825000Y17232713D01*
X31784747Y17846861D01*
X31704416Y18457037D01*
X31704414Y18457048D01*
X31584353Y19060637D01*
X31584349Y19060655D01*
X31425057Y19655140D01*
X31425055Y19655148D01*
X31227229Y20237922D01*
X31227225Y20237933D01*
X30991705Y20806528D01*
X30719501Y21358504D01*
X30411782Y21891489D01*
X30411766Y21891514D01*
X30069851Y22403226D01*
X29695196Y22891486D01*
X29289393Y23354215D01*
X29248580Y23395028D01*
X22778553Y16925001D01*
X22071446Y16925001D01*
X15601419Y23395028D01*
X15601418Y23395028D01*
X15560628Y23354238D01*
X15560601Y23354209D01*
X15154803Y22891486D01*
X14780148Y22403226D01*
X14438233Y21891514D01*
X14438217Y21891489D01*
X14130498Y21358504D01*
X13858294Y20806528D01*
X13622774Y20237933D01*
X13622770Y20237922D01*
X13424944Y19655148D01*
X13424942Y19655140D01*
X13265650Y19060655D01*
X13265646Y19060637D01*
X13145585Y18457048D01*
X13145583Y18457037D01*
X13065252Y17846861D01*
X13025000Y17232713D01*
X12725499Y17232713D01*
X12725499Y19522872D01*
X12719091Y19582483D01*
X12716062Y19590603D01*
X12668797Y19717329D01*
X12668793Y19717336D01*
X12582547Y19832545D01*
X12582544Y19832548D01*
X12467335Y19918794D01*
X12467328Y19918798D01*
X12332482Y19969092D01*
X12332483Y19969092D01*
X12272883Y19975499D01*
X12272881Y19975500D01*
X12272873Y19975500D01*
X12272865Y19975500D01*
X10014500Y19975500D01*
X9947461Y19995185D01*
X9901706Y20047989D01*
X9890500Y20099500D01*
X9890500Y21368482D01*
X9910185Y21435521D01*
X9926819Y21456163D01*
X11014107Y22543451D01*
X11014113Y22543457D01*
X11021950Y22555185D01*
X11090775Y22658189D01*
X11128129Y22748370D01*
X11143580Y22785671D01*
X11150052Y22818211D01*
X11170500Y22921007D01*
X11170500Y23748583D01*
X15954972Y23748583D01*
X15954972Y23748582D01*
X22424999Y17278554D01*
X28895027Y23748581D01*
X28854214Y23789394D01*
X28391485Y24195197D01*
X27903225Y24569852D01*
X27391513Y24911767D01*
X27391488Y24911783D01*
X26858503Y25219502D01*
X26306527Y25491706D01*
X25737932Y25727226D01*
X25737921Y25727230D01*
X25155147Y25925056D01*
X25155139Y25925058D01*
X24560654Y26084350D01*
X24560636Y26084354D01*
X23957047Y26204415D01*
X23957036Y26204417D01*
X23346860Y26284748D01*
X22732713Y26325000D01*
X22117287Y26325000D01*
X21503139Y26284748D01*
X20892963Y26204417D01*
X20892952Y26204415D01*
X20289363Y26084354D01*
X20289345Y26084350D01*
X19694860Y25925058D01*
X19694852Y25925056D01*
X19112078Y25727230D01*
X19112067Y25727226D01*
X18543472Y25491706D01*
X17991496Y25219502D01*
X17458511Y24911783D01*
X17458486Y24911767D01*
X16946774Y24569852D01*
X16458514Y24195197D01*
X15995791Y23789399D01*
X15995762Y23789372D01*
X15954972Y23748583D01*
X11170500Y23748583D01*
X11170500Y25123326D01*
X11172883Y25147518D01*
X11190500Y25236080D01*
X11190500Y25383921D01*
X11161659Y25528908D01*
X11161658Y25528909D01*
X11161658Y25528913D01*
X11161656Y25528918D01*
X11105087Y25665489D01*
X11105080Y25665502D01*
X11022951Y25788416D01*
X11022948Y25788420D01*
X11012619Y25798749D01*
X10979134Y25860072D01*
X10984118Y25929764D01*
X10997198Y25955321D01*
X11040080Y26019499D01*
X11040080Y26019500D01*
X11040084Y26019505D01*
X11096658Y26156087D01*
X11111999Y26233214D01*
X11144381Y26295121D01*
X11145900Y26296666D01*
X14887416Y30038181D01*
X14948739Y30071666D01*
X14975097Y30074500D01*
X42475903Y30074500D01*
X42542942Y30054815D01*
G37*
%TD.AperFunction*%
%TA.AperFunction,Conductor*%
G36*
X85248974Y28466925D02*
G01*
X85297669Y28416820D01*
X85312000Y28358954D01*
X85312000Y28300000D01*
X85312001Y28299981D01*
X85322500Y28197204D01*
X85322501Y28197201D01*
X85376445Y28034411D01*
X85377686Y28030666D01*
X85469788Y27881344D01*
X85593844Y27757288D01*
X85743166Y27665186D01*
X85743167Y27665186D01*
X85749313Y27661395D01*
X85748206Y27659601D01*
X85792837Y27620313D01*
X85812000Y27554092D01*
X85812000Y27499500D01*
X85792315Y27432461D01*
X85739511Y27386706D01*
X85688000Y27375500D01*
X85300097Y27375500D01*
X85233058Y27395185D01*
X85212416Y27411819D01*
X84912590Y27711645D01*
X84912588Y27711648D01*
X84793717Y27830519D01*
X84793712Y27830523D01*
X84702634Y27883106D01*
X84656785Y27909577D01*
X84504057Y27950501D01*
X84345943Y27950501D01*
X84338347Y27950501D01*
X84338331Y27950500D01*
X79493469Y27950500D01*
X79493453Y27950501D01*
X79485857Y27950501D01*
X79327743Y27950501D01*
X79175015Y27909577D01*
X79129166Y27883106D01*
X79038087Y27830523D01*
X79038082Y27830519D01*
X78968551Y27760987D01*
X78926280Y27718716D01*
X78926278Y27718714D01*
X74956146Y23748581D01*
X71019384Y19811819D01*
X70958061Y19778334D01*
X70931703Y19775500D01*
X70853341Y19775500D01*
X70786302Y19795185D01*
X70740547Y19847989D01*
X70730603Y19917147D01*
X70747802Y19964596D01*
X70817419Y20077464D01*
X70834814Y20105666D01*
X70889999Y20272203D01*
X70900500Y20374991D01*
X70900499Y21775008D01*
X70889999Y21877797D01*
X70834814Y22044334D01*
X70742712Y22193656D01*
X70618656Y22317712D01*
X70472358Y22407949D01*
X70469336Y22409813D01*
X70469331Y22409815D01*
X70463736Y22411669D01*
X70302797Y22464999D01*
X70302795Y22465000D01*
X70200010Y22475500D01*
X69399998Y22475500D01*
X69399980Y22475499D01*
X69297203Y22465000D01*
X69297200Y22464999D01*
X69130668Y22409815D01*
X69130663Y22409813D01*
X68981342Y22317711D01*
X68857289Y22193658D01*
X68765187Y22044337D01*
X68765186Y22044334D01*
X68710001Y21877797D01*
X68710001Y21877796D01*
X68710000Y21877796D01*
X68699500Y21775017D01*
X68699500Y20374999D01*
X68699501Y20374982D01*
X68710000Y20272204D01*
X68710001Y20272201D01*
X68765185Y20105669D01*
X68765187Y20105664D01*
X68769684Y20098373D01*
X68857288Y19956344D01*
X68981344Y19832288D01*
X69130666Y19740186D01*
X69297203Y19685001D01*
X69381573Y19676382D01*
X69396320Y19674875D01*
X69461012Y19648479D01*
X69501164Y19591298D01*
X69504027Y19521487D01*
X69471399Y19463836D01*
X68731286Y18723722D01*
X68619481Y18611918D01*
X68619475Y18611910D01*
X68569861Y18525974D01*
X68569861Y18525973D01*
X68540423Y18474986D01*
X68540423Y18474985D01*
X68499499Y18322257D01*
X68499499Y18322255D01*
X68499499Y18154154D01*
X68499500Y18154141D01*
X68499500Y16037770D01*
X68499499Y16037752D01*
X68499499Y15872046D01*
X68499499Y15872045D01*
X68499500Y15872043D01*
X68540423Y15719316D01*
X68559946Y15685501D01*
X68575489Y15658579D01*
X68619481Y15582384D01*
X68738349Y15463516D01*
X68738355Y15463511D01*
X70090256Y14111611D01*
X70478279Y13723589D01*
X70511764Y13662266D01*
X70506780Y13592575D01*
X70485290Y13559126D01*
X70486702Y13558031D01*
X70481917Y13551863D01*
X70398255Y13410397D01*
X70398254Y13410394D01*
X70352402Y13252574D01*
X70352401Y13252568D01*
X70349500Y13215702D01*
X70349500Y12059299D01*
X70352401Y12022435D01*
X70352401Y12022432D01*
X70352402Y12022431D01*
X70358924Y11999984D01*
X70384741Y11911120D01*
X70384541Y11841250D01*
X70353345Y11788844D01*
X69194727Y10630227D01*
X69194726Y10630226D01*
X69143433Y10553458D01*
X69143431Y10553456D01*
X69123539Y10523688D01*
X69123533Y10523677D01*
X69074499Y10405297D01*
X69074497Y10405291D01*
X69049500Y10279624D01*
X69049500Y9674500D01*
X69029815Y9607461D01*
X68977011Y9561706D01*
X68925500Y9550500D01*
X68526076Y9550500D01*
X68497242Y9544766D01*
X68497243Y9544765D01*
X68381093Y9521661D01*
X68381089Y9521660D01*
X68319635Y9496204D01*
X68244507Y9465086D01*
X68244499Y9465081D01*
X68219140Y9448136D01*
X68219139Y9448136D01*
X68121585Y9382954D01*
X68121584Y9382953D01*
X68084278Y9345646D01*
X67975449Y9236818D01*
X67914128Y9203334D01*
X67887770Y9200500D01*
X63896456Y9200500D01*
X63872265Y9202883D01*
X63847349Y9207839D01*
X63823918Y9212500D01*
X63823917Y9212500D01*
X63676083Y9212500D01*
X63643320Y9205984D01*
X63625214Y9202382D01*
X63601025Y9200000D01*
X63477131Y9200000D01*
X63477118Y9199999D01*
X63438253Y9195821D01*
X63411748Y9195821D01*
X63372875Y9200000D01*
X63372873Y9200000D01*
X62878978Y9200000D01*
X62811939Y9219685D01*
X62810087Y9220898D01*
X62751552Y9260010D01*
X62751549Y9260012D01*
X62751547Y9260013D01*
X62751544Y9260015D01*
X62751539Y9260017D01*
X62657570Y9298939D01*
X62603166Y9342779D01*
X62581101Y9409073D01*
X62598380Y9476773D01*
X62649517Y9524384D01*
X62705022Y9537500D01*
X63836610Y9537500D01*
X63836611Y9537500D01*
X64007701Y9564598D01*
X64172445Y9618127D01*
X64326788Y9696768D01*
X64466928Y9798586D01*
X64589414Y9921072D01*
X64691232Y10061212D01*
X64769873Y10215555D01*
X64823402Y10380299D01*
X64850500Y10551389D01*
X64850500Y10724611D01*
X64823402Y10895701D01*
X64769873Y11060445D01*
X64691232Y11214788D01*
X64589414Y11354928D01*
X64550190Y11394152D01*
X64516705Y11455475D01*
X64521689Y11525167D01*
X64563561Y11581100D01*
X64572774Y11587372D01*
X64723039Y11680057D01*
X64844944Y11801962D01*
X64844947Y11801966D01*
X64935448Y11948689D01*
X64935453Y11948700D01*
X64989680Y12112348D01*
X64999999Y12213346D01*
X65000000Y12213359D01*
X65000000Y12250000D01*
X64086500Y12250000D01*
X64019461Y12269685D01*
X63973706Y12322489D01*
X63962500Y12374000D01*
X63962500Y12500000D01*
X63836500Y12500000D01*
X63769461Y12519685D01*
X63723706Y12572489D01*
X63712500Y12624000D01*
X63712500Y12750000D01*
X64212500Y12750000D01*
X64999999Y12750000D01*
X64999999Y12786640D01*
X64999998Y12786655D01*
X64989680Y12887653D01*
X64935453Y13051301D01*
X64935448Y13051312D01*
X64845337Y13197403D01*
X64826896Y13264795D01*
X64845337Y13327597D01*
X64935448Y13473689D01*
X64935453Y13473700D01*
X64989680Y13637348D01*
X64999999Y13738346D01*
X65000000Y13738359D01*
X65000000Y13775000D01*
X64212500Y13775000D01*
X64212500Y12750000D01*
X63712500Y12750000D01*
X63712500Y13901000D01*
X63732185Y13968039D01*
X63784989Y14013794D01*
X63836500Y14025000D01*
X63962500Y14025000D01*
X63962500Y14151000D01*
X63982185Y14218039D01*
X64034989Y14263794D01*
X64086500Y14275000D01*
X64999999Y14275000D01*
X64999999Y14311640D01*
X64999998Y14311655D01*
X64989680Y14412653D01*
X64935453Y14576301D01*
X64935448Y14576312D01*
X64844947Y14723035D01*
X64844944Y14723039D01*
X64723038Y14844945D01*
X64723034Y14844948D01*
X64576311Y14935449D01*
X64576300Y14935454D01*
X64522322Y14953340D01*
X64464877Y14993112D01*
X64438054Y15057628D01*
X64450369Y15126404D01*
X64473642Y15158723D01*
X64628243Y15313325D01*
X64668465Y15340201D01*
X64724397Y15363367D01*
X64814690Y15423700D01*
X64881368Y15444577D01*
X64883581Y15444597D01*
X65200971Y15444597D01*
X65200972Y15444597D01*
X65260583Y15451005D01*
X65395431Y15501300D01*
X65510646Y15587550D01*
X65596896Y15702765D01*
X65647191Y15837613D01*
X65653600Y15897223D01*
X65653599Y16482503D01*
X65663039Y16529956D01*
X65665891Y16536842D01*
X65665891Y16536845D01*
X65665894Y16536850D01*
X65690106Y16658573D01*
X65693681Y16676543D01*
X65693681Y16676546D01*
X65700500Y16710824D01*
X65700500Y16988690D01*
X65700499Y16988699D01*
X65700466Y16988867D01*
X65665896Y17162660D01*
X65665895Y17162666D01*
X65663038Y17169562D01*
X65653599Y17217016D01*
X65653599Y17552774D01*
X65653598Y17552780D01*
X65651032Y17576650D01*
X65647191Y17612386D01*
X65639998Y17631669D01*
X65635015Y17701360D01*
X65639997Y17718330D01*
X65647191Y17737615D01*
X65653600Y17797225D01*
X65653599Y18128741D01*
X65673283Y18195779D01*
X65689909Y18216412D01*
X65999463Y18525964D01*
X65999464Y18525965D01*
X66098013Y18673453D01*
X66165894Y18837334D01*
X66173787Y18877011D01*
X66200499Y19011305D01*
X66200500Y19011307D01*
X66200500Y20975501D01*
X66220185Y21042540D01*
X66272989Y21088295D01*
X66324500Y21099501D01*
X66472871Y21099501D01*
X66472872Y21099501D01*
X66532483Y21105909D01*
X66667331Y21156204D01*
X66782546Y21242454D01*
X66868796Y21357669D01*
X66919091Y21492517D01*
X66925500Y21552127D01*
X66925499Y22847872D01*
X66919091Y22907483D01*
X66868796Y23042331D01*
X66868795Y23042332D01*
X66868793Y23042336D01*
X66782547Y23157545D01*
X66782544Y23157548D01*
X66667335Y23243794D01*
X66667328Y23243798D01*
X66532482Y23294092D01*
X66532483Y23294092D01*
X66472883Y23300499D01*
X66472881Y23300500D01*
X66472873Y23300500D01*
X66472864Y23300500D01*
X64127129Y23300500D01*
X64127123Y23300499D01*
X64067516Y23294092D01*
X63932671Y23243798D01*
X63932664Y23243794D01*
X63817455Y23157548D01*
X63817452Y23157545D01*
X63731206Y23042336D01*
X63731202Y23042329D01*
X63680908Y22907483D01*
X63675284Y22855164D01*
X63674501Y22847877D01*
X63674500Y22847865D01*
X63674500Y21552130D01*
X63674501Y21552124D01*
X63680908Y21492517D01*
X63731202Y21357672D01*
X63731206Y21357665D01*
X63817452Y21242456D01*
X63817453Y21242456D01*
X63817454Y21242454D01*
X63849084Y21218776D01*
X63892511Y21186266D01*
X63934381Y21130332D01*
X63939365Y21060640D01*
X63905879Y20999318D01*
X63844556Y20965833D01*
X63818199Y20963000D01*
X62181801Y20963000D01*
X62114762Y20982685D01*
X62069007Y21035489D01*
X62059063Y21104647D01*
X62088088Y21168203D01*
X62107489Y21186266D01*
X62150916Y21218776D01*
X62182546Y21242454D01*
X62268796Y21357669D01*
X62319091Y21492517D01*
X62325500Y21552127D01*
X62325499Y22217798D01*
X62345183Y22284836D01*
X62361813Y22305473D01*
X68219523Y28163181D01*
X68280846Y28196666D01*
X68307204Y28199500D01*
X84486610Y28199500D01*
X84486611Y28199500D01*
X84657701Y28226598D01*
X84822445Y28280127D01*
X84976788Y28358768D01*
X85115116Y28459270D01*
X85180920Y28482750D01*
X85248974Y28466925D01*
G37*
%TD.AperFunction*%
%TA.AperFunction,Conductor*%
G36*
X61576868Y15329814D02*
G01*
X61622623Y15277010D01*
X61632567Y15207852D01*
X61603542Y15144296D01*
X61582718Y15125185D01*
X61533574Y15089480D01*
X61520569Y15080030D01*
X61398088Y14957549D01*
X61398088Y14957548D01*
X61398086Y14957546D01*
X61382032Y14935449D01*
X61296268Y14817407D01*
X61217628Y14663066D01*
X61217627Y14663064D01*
X61217627Y14663063D01*
X61215856Y14657611D01*
X61164097Y14498316D01*
X61137000Y14327229D01*
X61137000Y10763890D01*
X61163862Y10594284D01*
X61164098Y10592799D01*
X61217627Y10428055D01*
X61296268Y10273712D01*
X61398086Y10133572D01*
X61733072Y9798586D01*
X61873212Y9696768D01*
X61946131Y9659614D01*
X62027549Y9618129D01*
X62027551Y9618129D01*
X62027554Y9618127D01*
X62106639Y9592431D01*
X62164314Y9552993D01*
X62191512Y9488634D01*
X62179597Y9419788D01*
X62132353Y9368312D01*
X62068320Y9350500D01*
X60974361Y9350500D01*
X60907322Y9370185D01*
X60886680Y9386819D01*
X56994768Y13278732D01*
X56961283Y13340055D01*
X56959160Y13379667D01*
X56960500Y13392127D01*
X56960499Y15007872D01*
X56954091Y15067483D01*
X56949411Y15080030D01*
X56911317Y15182166D01*
X56906333Y15251857D01*
X56939818Y15313180D01*
X57001141Y15346665D01*
X57027499Y15349499D01*
X61509829Y15349499D01*
X61576868Y15329814D01*
G37*
%TD.AperFunction*%
%TA.AperFunction,Conductor*%
G36*
X66785835Y30054815D02*
G01*
X66831590Y30002011D01*
X66841534Y29932853D01*
X66812509Y29869297D01*
X66806477Y29862819D01*
X60280477Y23336819D01*
X60219154Y23303334D01*
X60192796Y23300500D01*
X58549111Y23300500D01*
X58375889Y23300500D01*
X58336228Y23294219D01*
X58204802Y23273403D01*
X58040052Y23219872D01*
X57885711Y23141232D01*
X57816688Y23091083D01*
X57745572Y23039414D01*
X57745570Y23039412D01*
X57745569Y23039412D01*
X56067975Y21361819D01*
X56006652Y21328334D01*
X55980309Y21325500D01*
X55975005Y21325500D01*
X55974981Y21325499D01*
X55872202Y21314999D01*
X55872200Y21314999D01*
X55705668Y21259815D01*
X55705661Y21259812D01*
X55700232Y21256462D01*
X55635134Y21238000D01*
X55364866Y21238000D01*
X55299768Y21256462D01*
X55294338Y21259812D01*
X55294335Y21259814D01*
X55294334Y21259814D01*
X55127797Y21314999D01*
X55127795Y21315000D01*
X55025010Y21325500D01*
X53974998Y21325500D01*
X53974980Y21325499D01*
X53872203Y21315000D01*
X53872200Y21314999D01*
X53705665Y21259814D01*
X53705663Y21259813D01*
X53686368Y21247912D01*
X53645467Y21231836D01*
X53579812Y21218776D01*
X53579811Y21218776D01*
X53483171Y21199553D01*
X53483163Y21199551D01*
X53436271Y21180127D01*
X53436270Y21180127D01*
X53301092Y21124136D01*
X53301079Y21124129D01*
X53160987Y21030522D01*
X53160986Y21030520D01*
X53160072Y21029909D01*
X53137212Y21014635D01*
X51449986Y19327406D01*
X51180969Y19058389D01*
X47062221Y14939642D01*
X47062218Y14939639D01*
X47022800Y14900221D01*
X46922859Y14800281D01*
X46813371Y14636421D01*
X46813364Y14636408D01*
X46764941Y14519501D01*
X46764941Y14519500D01*
X46737949Y14454337D01*
X46737947Y14454329D01*
X46727303Y14400817D01*
X46719100Y14359577D01*
X46718170Y14354900D01*
X46699500Y14261043D01*
X46699500Y11395782D01*
X46679815Y11328743D01*
X46663181Y11308101D01*
X44966899Y9611819D01*
X44905576Y9578334D01*
X44879218Y9575500D01*
X44424500Y9575500D01*
X44357461Y9595185D01*
X44311706Y9647989D01*
X44300500Y9699500D01*
X44300500Y9935258D01*
X44320185Y10002297D01*
X44336819Y10022939D01*
X44337580Y10023700D01*
X44348015Y10034135D01*
X44423781Y10165365D01*
X44463000Y10311734D01*
X44463000Y10463267D01*
X44463000Y11215557D01*
X44482685Y11282596D01*
X44535489Y11328351D01*
X44547990Y11333262D01*
X44644334Y11365186D01*
X44793656Y11457288D01*
X44917712Y11581344D01*
X45009814Y11730666D01*
X45064999Y11897203D01*
X45075500Y11999991D01*
X45075499Y13000008D01*
X45064999Y13102797D01*
X45009814Y13269334D01*
X44917712Y13418656D01*
X44793656Y13542712D01*
X44644334Y13634814D01*
X44547995Y13666738D01*
X44490551Y13706510D01*
X44463728Y13771026D01*
X44463000Y13784443D01*
X44463000Y15399230D01*
X44482685Y15466269D01*
X44499319Y15486911D01*
X46128301Y17115893D01*
X47760515Y18748107D01*
X47836281Y18879337D01*
X47875500Y19025706D01*
X47875500Y19177239D01*
X47875500Y24570258D01*
X47895185Y24637297D01*
X47911819Y24657939D01*
X49833012Y26579132D01*
X52374167Y29120288D01*
X52435488Y29153771D01*
X52437622Y29154216D01*
X52558913Y29178342D01*
X52695495Y29234916D01*
X52818416Y29317049D01*
X52922951Y29421584D01*
X53005084Y29544505D01*
X53061658Y29681087D01*
X53090500Y29826082D01*
X53090500Y29950500D01*
X53110185Y30017539D01*
X53162989Y30063294D01*
X53214500Y30074500D01*
X66718796Y30074500D01*
X66785835Y30054815D01*
G37*
%TD.AperFunction*%
%TA.AperFunction,Conductor*%
G36*
X40794910Y12104255D02*
G01*
X40850843Y12062383D01*
X40874934Y12000675D01*
X40885494Y11897303D01*
X40940641Y11730881D01*
X40940643Y11730876D01*
X41032684Y11581655D01*
X41156654Y11457685D01*
X41305875Y11365644D01*
X41305880Y11365642D01*
X41472302Y11310495D01*
X41472309Y11310494D01*
X41575019Y11300001D01*
X41805690Y11300001D01*
X41872730Y11280317D01*
X41918485Y11227513D01*
X41928429Y11158354D01*
X41899404Y11094799D01*
X41893373Y11088320D01*
X41831920Y11026867D01*
X41831917Y11026863D01*
X41748255Y10885397D01*
X41748254Y10885394D01*
X41702402Y10727574D01*
X41702401Y10727568D01*
X41699500Y10690702D01*
X41699500Y10640435D01*
X41679815Y10573396D01*
X41678602Y10571544D01*
X41613366Y10473912D01*
X41537950Y10291840D01*
X41537947Y10291830D01*
X41499500Y10098544D01*
X41499500Y9724500D01*
X41479815Y9657461D01*
X41427011Y9611706D01*
X41375500Y9600500D01*
X38488005Y9600500D01*
X38420966Y9620185D01*
X38375211Y9672989D01*
X38365267Y9742147D01*
X38394292Y9805703D01*
X38400324Y9812181D01*
X38899879Y10311736D01*
X40663900Y12075757D01*
X40725218Y12109239D01*
X40794910Y12104255D01*
G37*
%TD.AperFunction*%
%TA.AperFunction,Conductor*%
G36*
X43231334Y14540677D02*
G01*
X43287267Y14498805D01*
X43311684Y14433341D01*
X43312000Y14424495D01*
X43312000Y13707928D01*
X43292315Y13640889D01*
X43253098Y13602391D01*
X43233053Y13590026D01*
X43156345Y13542713D01*
X43062327Y13448695D01*
X43001003Y13415211D01*
X42931312Y13420195D01*
X42886965Y13448696D01*
X42793345Y13542316D01*
X42644124Y13634357D01*
X42644119Y13634359D01*
X42518268Y13676062D01*
X42460823Y13715835D01*
X42434000Y13780351D01*
X42446315Y13849127D01*
X42469586Y13881443D01*
X43100321Y14512178D01*
X43161642Y14545661D01*
X43231334Y14540677D01*
G37*
%TD.AperFunction*%
%TA.AperFunction,Conductor*%
G36*
X71055679Y15904815D02*
G01*
X71076321Y15888181D01*
X72352319Y14612182D01*
X72385804Y14550859D01*
X72380820Y14481167D01*
X72338948Y14425234D01*
X72273484Y14400817D01*
X72264638Y14400501D01*
X72187598Y14400501D01*
X72120559Y14420186D01*
X72099917Y14436820D01*
X70823918Y15712819D01*
X70790433Y15774142D01*
X70795417Y15843834D01*
X70837289Y15899767D01*
X70902753Y15924184D01*
X70911599Y15924500D01*
X70988640Y15924500D01*
X71055679Y15904815D01*
G37*
%TD.AperFunction*%
%TA.AperFunction,Conductor*%
G36*
X46043834Y20957440D02*
G01*
X46099767Y20915568D01*
X46124184Y20850104D01*
X46124500Y20841258D01*
X46124500Y19639742D01*
X46104815Y19572703D01*
X46088181Y19552061D01*
X41049681Y14513561D01*
X40988358Y14480076D01*
X40918666Y14485060D01*
X40862733Y14526932D01*
X40838316Y14592396D01*
X40838000Y14601242D01*
X40838000Y16373229D01*
X40857685Y16440268D01*
X40892933Y16474871D01*
X40892687Y16475182D01*
X40895580Y16477471D01*
X40896901Y16478767D01*
X40898350Y16479660D01*
X40912671Y16493982D01*
X40973989Y16527467D01*
X41043681Y16522486D01*
X41088034Y16493983D01*
X41101961Y16480056D01*
X41101965Y16480053D01*
X41248688Y16389552D01*
X41248699Y16389547D01*
X41412347Y16335320D01*
X41513351Y16325001D01*
X42112500Y16325001D01*
X42211640Y16325001D01*
X42211654Y16325002D01*
X42312652Y16335320D01*
X42476300Y16389547D01*
X42476311Y16389552D01*
X42623034Y16480053D01*
X42623038Y16480056D01*
X42744944Y16601962D01*
X42744947Y16601966D01*
X42835448Y16748689D01*
X42835453Y16748700D01*
X42889680Y16912348D01*
X42899999Y17013346D01*
X42900000Y17013359D01*
X42900000Y17050000D01*
X42112500Y17050000D01*
X42112500Y16325001D01*
X41513351Y16325001D01*
X41612500Y16325002D01*
X41612500Y17176000D01*
X41632185Y17243039D01*
X41684989Y17288794D01*
X41736500Y17300000D01*
X41862500Y17300000D01*
X41862500Y17426000D01*
X41882185Y17493039D01*
X41934989Y17538794D01*
X41986500Y17550000D01*
X42899999Y17550000D01*
X42899999Y17586640D01*
X42899998Y17586655D01*
X42889680Y17687653D01*
X42835451Y17851306D01*
X42834822Y17852656D01*
X42834667Y17853671D01*
X42833181Y17858158D01*
X42833948Y17858413D01*
X42824335Y17921734D01*
X42852859Y17985516D01*
X42911338Y18023752D01*
X42933952Y18028343D01*
X42962483Y18031409D01*
X43097331Y18081704D01*
X43212546Y18167954D01*
X43298796Y18283169D01*
X43349091Y18418017D01*
X43355500Y18477627D01*
X43355500Y18588500D01*
X43375185Y18655539D01*
X43427989Y18701294D01*
X43479500Y18712500D01*
X43533764Y18712500D01*
X43533766Y18712500D01*
X43680135Y18751719D01*
X43811365Y18827485D01*
X45912819Y20928939D01*
X45974142Y20962424D01*
X46043834Y20957440D01*
G37*
%TD.AperFunction*%
%TA.AperFunction,Conductor*%
G36*
X80992422Y17649815D02*
G01*
X81038177Y17597011D01*
X81048121Y17527853D01*
X81019096Y17464297D01*
X80972835Y17430939D01*
X80920827Y17409398D01*
X80920814Y17409391D01*
X80789711Y17321790D01*
X80789707Y17321787D01*
X80678213Y17210293D01*
X80678210Y17210289D01*
X80590609Y17079186D01*
X80590602Y17079173D01*
X80530264Y16933502D01*
X80530261Y16933492D01*
X80516920Y16866421D01*
X80484535Y16804510D01*
X80482984Y16802932D01*
X80165050Y16484997D01*
X80103727Y16451512D01*
X80034036Y16456496D01*
X79978102Y16498367D01*
X79962808Y16525226D01*
X79909397Y16654173D01*
X79909390Y16654186D01*
X79821789Y16785289D01*
X79821786Y16785293D01*
X79710292Y16896787D01*
X79710288Y16896790D01*
X79579185Y16984391D01*
X79579172Y16984398D01*
X79433501Y17044736D01*
X79433489Y17044739D01*
X79278845Y17075500D01*
X79278842Y17075500D01*
X79121158Y17075500D01*
X79121155Y17075500D01*
X78966510Y17044739D01*
X78966498Y17044736D01*
X78820827Y16984398D01*
X78820814Y16984391D01*
X78800622Y16970898D01*
X78733945Y16950020D01*
X78731731Y16950000D01*
X78224000Y16950000D01*
X78156961Y16969685D01*
X78111206Y17022489D01*
X78100000Y17074000D01*
X78100000Y17326000D01*
X78119685Y17393039D01*
X78172489Y17438794D01*
X78224000Y17450000D01*
X78900000Y17450000D01*
X78900000Y17545500D01*
X78919685Y17612539D01*
X78972489Y17658294D01*
X79024000Y17669500D01*
X80925383Y17669500D01*
X80992422Y17649815D01*
G37*
%TD.AperFunction*%
%TA.AperFunction,Conductor*%
G36*
X60782650Y17417315D02*
G01*
X60789923Y17412266D01*
X60804568Y17401303D01*
X60804571Y17401301D01*
X60833044Y17390681D01*
X60888978Y17348810D01*
X60913395Y17283345D01*
X60898543Y17215072D01*
X60849138Y17165667D01*
X60789711Y17150499D01*
X58942465Y17150499D01*
X58875426Y17170184D01*
X58829671Y17222988D01*
X58819727Y17292146D01*
X58848752Y17355702D01*
X58877369Y17380038D01*
X58939790Y17418539D01*
X59004886Y17437000D01*
X60715611Y17437000D01*
X60782650Y17417315D01*
G37*
%TD.AperFunction*%
%TA.AperFunction,Conductor*%
G36*
X56443039Y18392815D02*
G01*
X56488794Y18340011D01*
X56500000Y18288500D01*
X56500000Y18036500D01*
X56480315Y17969461D01*
X56427511Y17923706D01*
X56376000Y17912500D01*
X54624000Y17912500D01*
X54556961Y17932185D01*
X54511206Y17984989D01*
X54500000Y18036500D01*
X54500000Y18288500D01*
X54519685Y18355539D01*
X54572489Y18401294D01*
X54624000Y18412500D01*
X56376000Y18412500D01*
X56443039Y18392815D01*
G37*
%TD.AperFunction*%
%TA.AperFunction,Conductor*%
G36*
X80818136Y26279815D02*
G01*
X80863891Y26227011D01*
X80865659Y26222951D01*
X80866244Y26221537D01*
X80953849Y26090428D01*
X80953852Y26090424D01*
X81065345Y25978931D01*
X81065349Y25978928D01*
X81196458Y25891323D01*
X81196459Y25891323D01*
X81196460Y25891322D01*
X81196462Y25891321D01*
X81339565Y25832046D01*
X81342139Y25830980D01*
X81470478Y25805452D01*
X81491961Y25801178D01*
X81495442Y25800367D01*
X81496579Y25800217D01*
X81496581Y25800216D01*
X81496583Y25800216D01*
X81754693Y25800216D01*
X81754695Y25800216D01*
X81754696Y25800217D01*
X81755842Y25800368D01*
X81759319Y25801180D01*
X81909137Y25830980D01*
X82054818Y25891323D01*
X82056742Y25892609D01*
X82057903Y25892973D01*
X82060185Y25894192D01*
X82060416Y25893760D01*
X82123415Y25913491D01*
X82190797Y25895011D01*
X82194506Y25892627D01*
X82196458Y25891323D01*
X82196460Y25891322D01*
X82196462Y25891321D01*
X82339565Y25832046D01*
X82342139Y25830980D01*
X82470478Y25805452D01*
X82491961Y25801178D01*
X82495442Y25800367D01*
X82496579Y25800217D01*
X82496581Y25800216D01*
X82496583Y25800216D01*
X82754693Y25800216D01*
X82754695Y25800216D01*
X82754696Y25800217D01*
X82755838Y25800368D01*
X82759297Y25801175D01*
X82851312Y25819478D01*
X82920901Y25813250D01*
X82976078Y25770386D01*
X82999322Y25704496D01*
X82999500Y25697860D01*
X82999500Y25434500D01*
X82979815Y25367461D01*
X82927011Y25321706D01*
X82875500Y25310500D01*
X81902129Y25310500D01*
X81902123Y25310499D01*
X81842516Y25304092D01*
X81707671Y25253798D01*
X81707664Y25253794D01*
X81592455Y25167548D01*
X81592452Y25167545D01*
X81506206Y25052336D01*
X81506202Y25052329D01*
X81455908Y24917483D01*
X81449501Y24857884D01*
X81449500Y24857865D01*
X81449500Y23862130D01*
X81449501Y23862124D01*
X81455908Y23802519D01*
X81468659Y23768331D01*
X81473642Y23698639D01*
X81468659Y23681669D01*
X81455908Y23647482D01*
X81449501Y23587884D01*
X81449500Y23587865D01*
X81449500Y22592130D01*
X81449501Y22592124D01*
X81455908Y22532519D01*
X81468659Y22498331D01*
X81473642Y22428639D01*
X81468659Y22411669D01*
X81455908Y22377482D01*
X81449501Y22317884D01*
X81449500Y22317865D01*
X81449500Y21322130D01*
X81449501Y21322124D01*
X81455908Y21262517D01*
X81468658Y21228333D01*
X81473642Y21158641D01*
X81468659Y21141670D01*
X81455909Y21107484D01*
X81455570Y21104331D01*
X81454624Y21102050D01*
X81454126Y21099938D01*
X81453783Y21100019D01*
X81428830Y21039781D01*
X81419962Y21029909D01*
X80712180Y20322127D01*
X80650857Y20288642D01*
X80581165Y20293626D01*
X80525232Y20335498D01*
X80500815Y20400962D01*
X80500499Y20409781D01*
X80500499Y21775008D01*
X80489999Y21877797D01*
X80434814Y22044334D01*
X80342712Y22193656D01*
X80218656Y22317712D01*
X80072358Y22407949D01*
X80069336Y22409813D01*
X80069331Y22409815D01*
X80063736Y22411669D01*
X79902797Y22464999D01*
X79902795Y22465000D01*
X79800010Y22475500D01*
X78999998Y22475500D01*
X78999980Y22475499D01*
X78897203Y22465000D01*
X78897200Y22464999D01*
X78730668Y22409815D01*
X78730663Y22409813D01*
X78581342Y22317711D01*
X78457289Y22193658D01*
X78365187Y22044337D01*
X78365186Y22044334D01*
X78310001Y21877797D01*
X78310001Y21877796D01*
X78310000Y21877796D01*
X78299500Y21775017D01*
X78299500Y21775004D01*
X78299501Y20374500D01*
X78279816Y20307461D01*
X78227013Y20261706D01*
X78175501Y20250500D01*
X74092296Y20250500D01*
X74025257Y20270185D01*
X73979502Y20322989D01*
X73969558Y20392147D01*
X73998583Y20455703D01*
X74004615Y20462181D01*
X76815837Y23273402D01*
X79805616Y26263181D01*
X79866939Y26296666D01*
X79893297Y26299500D01*
X80751097Y26299500D01*
X80818136Y26279815D01*
G37*
%TD.AperFunction*%
%TA.AperFunction,Conductor*%
G36*
X99003736Y33499274D02*
G01*
X99293796Y33481729D01*
X99308657Y33479925D01*
X99399607Y33463257D01*
X99590797Y33428220D01*
X99605334Y33424637D01*
X99879182Y33339302D01*
X99893163Y33334000D01*
X100154734Y33216276D01*
X100167987Y33209320D01*
X100413458Y33060929D01*
X100425776Y33052427D01*
X100651573Y32875526D01*
X100662781Y32865596D01*
X100865595Y32662782D01*
X100875525Y32651574D01*
X101041214Y32440088D01*
X101052422Y32425783D01*
X101060928Y32413459D01*
X101209319Y32167988D01*
X101216277Y32154731D01*
X101333994Y31893177D01*
X101339304Y31879175D01*
X101424635Y31605336D01*
X101428219Y31590798D01*
X101479923Y31308660D01*
X101481728Y31293795D01*
X101499274Y31003737D01*
X101499500Y30996250D01*
X101499500Y27294419D01*
X101479815Y27227380D01*
X101427011Y27181625D01*
X101357853Y27171681D01*
X101294297Y27200706D01*
X101276235Y27220105D01*
X101267186Y27232191D01*
X101152093Y27318351D01*
X101152086Y27318355D01*
X101017379Y27368597D01*
X101017374Y27368599D01*
X101010876Y27369297D01*
X100946326Y27396038D01*
X100906481Y27453433D01*
X100903990Y27523258D01*
X100936457Y27580268D01*
X100970340Y27614150D01*
X101060908Y27760984D01*
X101115174Y27924747D01*
X101125500Y28025823D01*
X101125499Y28724176D01*
X101115174Y28825253D01*
X101060908Y28989016D01*
X100970340Y29135850D01*
X100956017Y29150173D01*
X100922532Y29211496D01*
X100927516Y29281188D01*
X100956021Y29325540D01*
X100969947Y29339465D01*
X101060448Y29486189D01*
X101060453Y29486200D01*
X101114680Y29649848D01*
X101124999Y29750846D01*
X101125000Y29750859D01*
X101125000Y29850000D01*
X97998625Y29850000D01*
X97951172Y29859439D01*
X97943012Y29862819D01*
X97884536Y29887041D01*
X97884528Y29887043D01*
X97754035Y29913000D01*
X97754031Y29913000D01*
X97124000Y29913000D01*
X97056961Y29932685D01*
X97011206Y29985489D01*
X97000000Y30037000D01*
X97000000Y30100000D01*
X96874000Y30100000D01*
X96806961Y30119685D01*
X96761206Y30172489D01*
X96750000Y30224000D01*
X96750000Y30350000D01*
X97250000Y30350000D01*
X98300000Y30350000D01*
X98800000Y30350000D01*
X99900000Y30350000D01*
X100400000Y30350000D01*
X101124999Y30350000D01*
X101124999Y30449140D01*
X101124998Y30449155D01*
X101114680Y30550153D01*
X101060453Y30713801D01*
X101060448Y30713812D01*
X100969947Y30860535D01*
X100969944Y30860539D01*
X100848038Y30982445D01*
X100848034Y30982448D01*
X100701311Y31072949D01*
X100701300Y31072954D01*
X100537652Y31127181D01*
X100436654Y31137500D01*
X100400000Y31137500D01*
X100400000Y30350000D01*
X99900000Y30350000D01*
X99900000Y31137500D01*
X99863361Y31137500D01*
X99863343Y31137499D01*
X99762347Y31127181D01*
X99598699Y31072954D01*
X99598688Y31072949D01*
X99451965Y30982448D01*
X99451961Y30982445D01*
X99437681Y30968164D01*
X99376358Y30934679D01*
X99306666Y30939663D01*
X99262319Y30968164D01*
X99248038Y30982445D01*
X99248034Y30982448D01*
X99101311Y31072949D01*
X99101300Y31072954D01*
X98937652Y31127181D01*
X98836654Y31137500D01*
X98800000Y31137500D01*
X98800000Y30350000D01*
X98300000Y30350000D01*
X98300000Y31137500D01*
X98263361Y31137500D01*
X98263343Y31137499D01*
X98162347Y31127181D01*
X97998699Y31072954D01*
X97998688Y31072949D01*
X97851962Y30982446D01*
X97851907Y30982402D01*
X97851861Y30982384D01*
X97845815Y30978654D01*
X97845177Y30979688D01*
X97787111Y30956264D01*
X97718469Y30969307D01*
X97698093Y30982402D01*
X97698037Y30982446D01*
X97551311Y31072949D01*
X97551300Y31072954D01*
X97387652Y31127181D01*
X97286654Y31137500D01*
X97250000Y31137500D01*
X97250000Y30350000D01*
X96750000Y30350000D01*
X96750000Y31137500D01*
X96713361Y31137500D01*
X96713343Y31137499D01*
X96612347Y31127181D01*
X96448699Y31072954D01*
X96448692Y31072951D01*
X96402083Y31044202D01*
X96334691Y31025763D01*
X96268027Y31046687D01*
X96249307Y31062061D01*
X96168657Y31142711D01*
X96168656Y31142712D01*
X96019334Y31234814D01*
X95852797Y31289999D01*
X95852795Y31290000D01*
X95750010Y31300500D01*
X94749998Y31300500D01*
X94749980Y31300499D01*
X94647203Y31290000D01*
X94647200Y31289999D01*
X94480668Y31234815D01*
X94480663Y31234813D01*
X94331342Y31142711D01*
X94207289Y31018658D01*
X94207288Y31018656D01*
X94176145Y30968164D01*
X94170741Y30959403D01*
X94118793Y30912679D01*
X94065202Y30900500D01*
X93976080Y30900500D01*
X93831092Y30871660D01*
X93831082Y30871657D01*
X93694511Y30815088D01*
X93694498Y30815081D01*
X93571584Y30732952D01*
X93571580Y30732949D01*
X93467051Y30628420D01*
X93467048Y30628416D01*
X93384919Y30505502D01*
X93384912Y30505489D01*
X93328343Y30368918D01*
X93328340Y30368908D01*
X93299499Y30223921D01*
X93298903Y30217858D01*
X93296282Y30218117D01*
X93279815Y30162033D01*
X93227011Y30116278D01*
X93157853Y30106334D01*
X93094297Y30135359D01*
X93087819Y30141391D01*
X89941391Y33287819D01*
X89907906Y33349142D01*
X89912890Y33418834D01*
X89954762Y33474767D01*
X90020226Y33499184D01*
X90029072Y33499500D01*
X98934108Y33499500D01*
X98996249Y33499500D01*
X99003736Y33499274D01*
G37*
%TD.AperFunction*%
%TA.AperFunction,Conductor*%
G36*
X89718202Y30543944D02*
G01*
X89724680Y30537912D01*
X92228181Y28034411D01*
X92261666Y27973088D01*
X92264500Y27946730D01*
X92264500Y27492406D01*
X92244815Y27425367D01*
X92192011Y27379612D01*
X92127247Y27369117D01*
X92067873Y27375500D01*
X92067864Y27375500D01*
X91072129Y27375500D01*
X91072123Y27375499D01*
X91012518Y27369092D01*
X90978331Y27356341D01*
X90908639Y27351358D01*
X90891669Y27356341D01*
X90874140Y27362879D01*
X90857483Y27369091D01*
X90857482Y27369092D01*
X90797883Y27375499D01*
X90797881Y27375500D01*
X90797873Y27375500D01*
X90797864Y27375500D01*
X89802129Y27375500D01*
X89802123Y27375499D01*
X89742518Y27369092D01*
X89708331Y27356341D01*
X89638639Y27351358D01*
X89621669Y27356341D01*
X89604140Y27362879D01*
X89587483Y27369091D01*
X89587482Y27369092D01*
X89527883Y27375499D01*
X89527881Y27375500D01*
X89527873Y27375500D01*
X89527865Y27375500D01*
X88976043Y27375500D01*
X88909004Y27395185D01*
X88863249Y27447989D01*
X88853305Y27517147D01*
X88882330Y27580703D01*
X88937037Y27617206D01*
X89081834Y27665186D01*
X89231156Y27757288D01*
X89355212Y27881344D01*
X89447314Y28030666D01*
X89502499Y28197203D01*
X89513000Y28299991D01*
X89513000Y28794724D01*
X89513000Y30374111D01*
X89513000Y30398773D01*
X89512999Y30398779D01*
X89512999Y30450231D01*
X89532684Y30517270D01*
X89585488Y30563025D01*
X89654646Y30572969D01*
X89718202Y30543944D01*
G37*
%TD.AperFunction*%
%TA.AperFunction,Conductor*%
G36*
X51018297Y33479815D02*
G01*
X51064052Y33427011D01*
X51073996Y33357853D01*
X51044971Y33294297D01*
X51038939Y33287819D01*
X50305834Y32554715D01*
X50244511Y32521230D01*
X50242345Y32520779D01*
X50121092Y32496660D01*
X50121082Y32496657D01*
X49984511Y32440088D01*
X49984498Y32440081D01*
X49861584Y32357952D01*
X49861580Y32357949D01*
X49757051Y32253420D01*
X49757048Y32253416D01*
X49674919Y32130502D01*
X49674912Y32130489D01*
X49618343Y31993918D01*
X49618340Y31993909D01*
X49608076Y31942307D01*
X49575690Y31880397D01*
X49514974Y31845823D01*
X49486459Y31842500D01*
X44925238Y31842500D01*
X44893146Y31846725D01*
X44879058Y31850500D01*
X44879057Y31850500D01*
X44720942Y31850500D01*
X44720940Y31850500D01*
X44706853Y31846725D01*
X44674761Y31842500D01*
X15527215Y31842500D01*
X15460176Y31862185D01*
X15414421Y31914989D01*
X15404477Y31984147D01*
X15433502Y32047703D01*
X15439610Y32054257D01*
X16851062Y33463257D01*
X16912414Y33496689D01*
X16938667Y33499500D01*
X50951258Y33499500D01*
X51018297Y33479815D01*
G37*
%TD.AperFunction*%
%TD*%
M02*
