%TF.GenerationSoftware,KiCad,Pcbnew,10.0.6*%
%TF.CreationDate,2026-09-13T11:24:40-08:00*%
%TF.ProjectId,RykerConnect,52796b65-7243-46f6-9e6e-6563742e6b69,REV03*%
%TF.SameCoordinates,Original*%
%TF.FileFunction,Legend,Top*%
%TF.FilePolarity,Positive*%
%FSLAX46Y46*%
G04 Gerber Fmt 4.6, Leading zero omitted, Abs format (unit mm)*
G04 Created by KiCad (PCBNEW 10.0.6) date 2026-09-13 11:24:40*
%MOMM*%
%LPD*%
G01*
G04 APERTURE LIST*
G04 Aperture macros list*
%AMRoundRect*
0 Rectangle with rounded corners*
0 $1 Rounding radius*
0 $2 $3 $4 $5 $6 $7 $8 $9 X,Y pos of 4 corners*
0 Add a 4 corners polygon primitive as box body*
4,1,4,$2,$3,$4,$5,$6,$7,$8,$9,$2,$3,0*
0 Add four circle primitives for the rounded corners*
1,1,$1+$1,$2,$3*
1,1,$1+$1,$4,$5*
1,1,$1+$1,$6,$7*
1,1,$1+$1,$8,$9*
0 Add four rect primitives between the rounded corners*
20,1,$1+$1,$2,$3,$4,$5,0*
20,1,$1+$1,$4,$5,$6,$7,0*
20,1,$1+$1,$6,$7,$8,$9,0*
20,1,$1+$1,$8,$9,$2,$3,0*%
G04 Aperture macros list end*
%ADD10C,0.130000*%
%ADD11C,0.120000*%
%ADD12C,0.100000*%
%ADD13C,0.127000*%
%ADD14R,1.700000X1.700000*%
%ADD15C,1.700000*%
%ADD16RoundRect,0.150000X-0.150000X-0.625000X0.150000X-0.625000X0.150000X0.625000X-0.150000X0.625000X0*%
%ADD17RoundRect,0.250000X-0.350000X-0.650000X0.350000X-0.650000X0.350000X0.650000X-0.350000X0.650000X0*%
%ADD18RoundRect,0.200000X-0.200000X-0.275000X0.200000X-0.275000X0.200000X0.275000X-0.200000X0.275000X0*%
%ADD19R,2.500000X5.100000*%
%ADD20C,17.800000*%
%ADD21R,1.800000X1.000000*%
%ADD22RoundRect,0.225000X-0.225000X-0.250000X0.225000X-0.250000X0.225000X0.250000X-0.225000X0.250000X0*%
%ADD23C,2.600000*%
%ADD24C,3.800000*%
%ADD25RoundRect,0.150000X-0.825000X-0.150000X0.825000X-0.150000X0.825000X0.150000X-0.825000X0.150000X0*%
%ADD26RoundRect,0.150000X-0.587500X-0.150000X0.587500X-0.150000X0.587500X0.150000X-0.587500X0.150000X0*%
%ADD27RoundRect,0.375000X0.625000X0.375000X-0.625000X0.375000X-0.625000X-0.375000X0.625000X-0.375000X0*%
%ADD28RoundRect,0.500000X0.500000X1.400000X-0.500000X1.400000X-0.500000X-1.400000X0.500000X-1.400000X0*%
%ADD29RoundRect,0.200000X0.275000X-0.200000X0.275000X0.200000X-0.275000X0.200000X-0.275000X-0.200000X0*%
%ADD30RoundRect,0.225000X-0.250000X0.225000X-0.250000X-0.225000X0.250000X-0.225000X0.250000X0.225000X0*%
%ADD31R,1.520000X1.520000*%
%ADD32C,1.520000*%
G04 APERTURE END LIST*
D10*
X26324852Y3535458D02*
X26324852Y3071172D01*
X26324852Y3071172D02*
X26293899Y2978315D01*
X26293899Y2978315D02*
X26231995Y2916410D01*
X26231995Y2916410D02*
X26139137Y2885458D01*
X26139137Y2885458D02*
X26077233Y2885458D01*
X26974852Y2885458D02*
X26603423Y2885458D01*
X26789137Y2885458D02*
X26789137Y3535458D01*
X26789137Y3535458D02*
X26727233Y3442601D01*
X26727233Y3442601D02*
X26665328Y3380696D01*
X26665328Y3380696D02*
X26603423Y3349744D01*
X28089138Y2885458D02*
X27717709Y2885458D01*
X27903423Y2885458D02*
X27903423Y3535458D01*
X27903423Y3535458D02*
X27841519Y3442601D01*
X27841519Y3442601D02*
X27779614Y3380696D01*
X27779614Y3380696D02*
X27717709Y3349744D01*
X28367709Y2947363D02*
X28398662Y2916410D01*
X28398662Y2916410D02*
X28367709Y2885458D01*
X28367709Y2885458D02*
X28336757Y2916410D01*
X28336757Y2916410D02*
X28367709Y2947363D01*
X28367709Y2947363D02*
X28367709Y2885458D01*
X28367709Y3287839D02*
X28398662Y3256887D01*
X28398662Y3256887D02*
X28367709Y3225934D01*
X28367709Y3225934D02*
X28336757Y3256887D01*
X28336757Y3256887D02*
X28367709Y3287839D01*
X28367709Y3287839D02*
X28367709Y3225934D01*
X28986757Y3535458D02*
X28677233Y3535458D01*
X28677233Y3535458D02*
X28646281Y3225934D01*
X28646281Y3225934D02*
X28677233Y3256887D01*
X28677233Y3256887D02*
X28739138Y3287839D01*
X28739138Y3287839D02*
X28893900Y3287839D01*
X28893900Y3287839D02*
X28955805Y3256887D01*
X28955805Y3256887D02*
X28986757Y3225934D01*
X28986757Y3225934D02*
X29017710Y3164030D01*
X29017710Y3164030D02*
X29017710Y3009268D01*
X29017710Y3009268D02*
X28986757Y2947363D01*
X28986757Y2947363D02*
X28955805Y2916410D01*
X28955805Y2916410D02*
X28893900Y2885458D01*
X28893900Y2885458D02*
X28739138Y2885458D01*
X28739138Y2885458D02*
X28677233Y2916410D01*
X28677233Y2916410D02*
X28646281Y2947363D01*
X29203424Y3535458D02*
X29420091Y2885458D01*
X29420091Y2885458D02*
X29636758Y3535458D01*
X30317710Y3473553D02*
X30348662Y3504506D01*
X30348662Y3504506D02*
X30410567Y3535458D01*
X30410567Y3535458D02*
X30565329Y3535458D01*
X30565329Y3535458D02*
X30627234Y3504506D01*
X30627234Y3504506D02*
X30658186Y3473553D01*
X30658186Y3473553D02*
X30689139Y3411649D01*
X30689139Y3411649D02*
X30689139Y3349744D01*
X30689139Y3349744D02*
X30658186Y3256887D01*
X30658186Y3256887D02*
X30286758Y2885458D01*
X30286758Y2885458D02*
X30689139Y2885458D01*
X30967710Y2947363D02*
X30998663Y2916410D01*
X30998663Y2916410D02*
X30967710Y2885458D01*
X30967710Y2885458D02*
X30936758Y2916410D01*
X30936758Y2916410D02*
X30967710Y2947363D01*
X30967710Y2947363D02*
X30967710Y2885458D01*
X30967710Y3287839D02*
X30998663Y3256887D01*
X30998663Y3256887D02*
X30967710Y3225934D01*
X30967710Y3225934D02*
X30936758Y3256887D01*
X30936758Y3256887D02*
X30967710Y3287839D01*
X30967710Y3287839D02*
X30967710Y3225934D01*
X31617711Y3504506D02*
X31555806Y3535458D01*
X31555806Y3535458D02*
X31462949Y3535458D01*
X31462949Y3535458D02*
X31370092Y3504506D01*
X31370092Y3504506D02*
X31308187Y3442601D01*
X31308187Y3442601D02*
X31277234Y3380696D01*
X31277234Y3380696D02*
X31246282Y3256887D01*
X31246282Y3256887D02*
X31246282Y3164030D01*
X31246282Y3164030D02*
X31277234Y3040220D01*
X31277234Y3040220D02*
X31308187Y2978315D01*
X31308187Y2978315D02*
X31370092Y2916410D01*
X31370092Y2916410D02*
X31462949Y2885458D01*
X31462949Y2885458D02*
X31524853Y2885458D01*
X31524853Y2885458D02*
X31617711Y2916410D01*
X31617711Y2916410D02*
X31648663Y2947363D01*
X31648663Y2947363D02*
X31648663Y3164030D01*
X31648663Y3164030D02*
X31524853Y3164030D01*
X31927234Y2885458D02*
X31927234Y3535458D01*
X31927234Y3535458D02*
X32298663Y2885458D01*
X32298663Y2885458D02*
X32298663Y3535458D01*
X32608186Y2885458D02*
X32608186Y3535458D01*
X32608186Y3535458D02*
X32762948Y3535458D01*
X32762948Y3535458D02*
X32855805Y3504506D01*
X32855805Y3504506D02*
X32917710Y3442601D01*
X32917710Y3442601D02*
X32948663Y3380696D01*
X32948663Y3380696D02*
X32979615Y3256887D01*
X32979615Y3256887D02*
X32979615Y3164030D01*
X32979615Y3164030D02*
X32948663Y3040220D01*
X32948663Y3040220D02*
X32917710Y2978315D01*
X32917710Y2978315D02*
X32855805Y2916410D01*
X32855805Y2916410D02*
X32762948Y2885458D01*
X32762948Y2885458D02*
X32608186Y2885458D01*
X4881995Y5716065D02*
X5034376Y5716065D01*
X5034376Y5716065D02*
X5110566Y5677970D01*
X5110566Y5677970D02*
X5186757Y5601780D01*
X5186757Y5601780D02*
X5224852Y5449399D01*
X5224852Y5449399D02*
X5224852Y5182732D01*
X5224852Y5182732D02*
X5186757Y5030351D01*
X5186757Y5030351D02*
X5110566Y4954160D01*
X5110566Y4954160D02*
X5034376Y4916065D01*
X5034376Y4916065D02*
X4881995Y4916065D01*
X4881995Y4916065D02*
X4805804Y4954160D01*
X4805804Y4954160D02*
X4729614Y5030351D01*
X4729614Y5030351D02*
X4691518Y5182732D01*
X4691518Y5182732D02*
X4691518Y5449399D01*
X4691518Y5449399D02*
X4729614Y5601780D01*
X4729614Y5601780D02*
X4805804Y5677970D01*
X4805804Y5677970D02*
X4881995Y5716065D01*
X5948661Y4916065D02*
X5567709Y4916065D01*
X5567709Y4916065D02*
X5567709Y5716065D01*
X6215328Y5335113D02*
X6481994Y5335113D01*
X6596280Y4916065D02*
X6215328Y4916065D01*
X6215328Y4916065D02*
X6215328Y5716065D01*
X6215328Y5716065D02*
X6596280Y5716065D01*
X6939138Y4916065D02*
X6939138Y5716065D01*
X6939138Y5716065D02*
X7129614Y5716065D01*
X7129614Y5716065D02*
X7243900Y5677970D01*
X7243900Y5677970D02*
X7320090Y5601780D01*
X7320090Y5601780D02*
X7358185Y5525589D01*
X7358185Y5525589D02*
X7396281Y5373208D01*
X7396281Y5373208D02*
X7396281Y5258922D01*
X7396281Y5258922D02*
X7358185Y5106541D01*
X7358185Y5106541D02*
X7320090Y5030351D01*
X7320090Y5030351D02*
X7243900Y4954160D01*
X7243900Y4954160D02*
X7129614Y4916065D01*
X7129614Y4916065D02*
X6939138Y4916065D01*
X39477233Y9416065D02*
X39096281Y9416065D01*
X39096281Y9416065D02*
X39096281Y10216065D01*
X39743900Y9416065D02*
X39743900Y10216065D01*
X40543899Y10177970D02*
X40467709Y10216065D01*
X40467709Y10216065D02*
X40353423Y10216065D01*
X40353423Y10216065D02*
X40239137Y10177970D01*
X40239137Y10177970D02*
X40162947Y10101780D01*
X40162947Y10101780D02*
X40124852Y10025589D01*
X40124852Y10025589D02*
X40086756Y9873208D01*
X40086756Y9873208D02*
X40086756Y9758922D01*
X40086756Y9758922D02*
X40124852Y9606541D01*
X40124852Y9606541D02*
X40162947Y9530351D01*
X40162947Y9530351D02*
X40239137Y9454160D01*
X40239137Y9454160D02*
X40353423Y9416065D01*
X40353423Y9416065D02*
X40429614Y9416065D01*
X40429614Y9416065D02*
X40543899Y9454160D01*
X40543899Y9454160D02*
X40581995Y9492256D01*
X40581995Y9492256D02*
X40581995Y9758922D01*
X40581995Y9758922D02*
X40429614Y9758922D01*
X40924852Y9416065D02*
X40924852Y10216065D01*
X40924852Y9835113D02*
X41381995Y9835113D01*
X41381995Y9416065D02*
X41381995Y10216065D01*
X41648661Y10216065D02*
X42105804Y10216065D01*
X41877232Y9416065D02*
X41877232Y10216065D01*
X45334375Y9454160D02*
X45448661Y9416065D01*
X45448661Y9416065D02*
X45639137Y9416065D01*
X45639137Y9416065D02*
X45715328Y9454160D01*
X45715328Y9454160D02*
X45753423Y9492256D01*
X45753423Y9492256D02*
X45791518Y9568446D01*
X45791518Y9568446D02*
X45791518Y9644637D01*
X45791518Y9644637D02*
X45753423Y9720827D01*
X45753423Y9720827D02*
X45715328Y9758922D01*
X45715328Y9758922D02*
X45639137Y9797018D01*
X45639137Y9797018D02*
X45486756Y9835113D01*
X45486756Y9835113D02*
X45410566Y9873208D01*
X45410566Y9873208D02*
X45372471Y9911303D01*
X45372471Y9911303D02*
X45334375Y9987494D01*
X45334375Y9987494D02*
X45334375Y10063684D01*
X45334375Y10063684D02*
X45372471Y10139875D01*
X45372471Y10139875D02*
X45410566Y10177970D01*
X45410566Y10177970D02*
X45486756Y10216065D01*
X45486756Y10216065D02*
X45677233Y10216065D01*
X45677233Y10216065D02*
X45791518Y10177970D01*
X46134376Y9835113D02*
X46401042Y9835113D01*
X46515328Y9416065D02*
X46134376Y9416065D01*
X46134376Y9416065D02*
X46134376Y10216065D01*
X46134376Y10216065D02*
X46515328Y10216065D01*
X46858186Y9416065D02*
X46858186Y10216065D01*
X46858186Y10216065D02*
X47315329Y9416065D01*
X47315329Y9416065D02*
X47315329Y10216065D01*
X47658185Y9454160D02*
X47772471Y9416065D01*
X47772471Y9416065D02*
X47962947Y9416065D01*
X47962947Y9416065D02*
X48039138Y9454160D01*
X48039138Y9454160D02*
X48077233Y9492256D01*
X48077233Y9492256D02*
X48115328Y9568446D01*
X48115328Y9568446D02*
X48115328Y9644637D01*
X48115328Y9644637D02*
X48077233Y9720827D01*
X48077233Y9720827D02*
X48039138Y9758922D01*
X48039138Y9758922D02*
X47962947Y9797018D01*
X47962947Y9797018D02*
X47810566Y9835113D01*
X47810566Y9835113D02*
X47734376Y9873208D01*
X47734376Y9873208D02*
X47696281Y9911303D01*
X47696281Y9911303D02*
X47658185Y9987494D01*
X47658185Y9987494D02*
X47658185Y10063684D01*
X47658185Y10063684D02*
X47696281Y10139875D01*
X47696281Y10139875D02*
X47734376Y10177970D01*
X47734376Y10177970D02*
X47810566Y10216065D01*
X47810566Y10216065D02*
X48001043Y10216065D01*
X48001043Y10216065D02*
X48115328Y10177970D01*
X48610567Y10216065D02*
X48762948Y10216065D01*
X48762948Y10216065D02*
X48839138Y10177970D01*
X48839138Y10177970D02*
X48915329Y10101780D01*
X48915329Y10101780D02*
X48953424Y9949399D01*
X48953424Y9949399D02*
X48953424Y9682732D01*
X48953424Y9682732D02*
X48915329Y9530351D01*
X48915329Y9530351D02*
X48839138Y9454160D01*
X48839138Y9454160D02*
X48762948Y9416065D01*
X48762948Y9416065D02*
X48610567Y9416065D01*
X48610567Y9416065D02*
X48534376Y9454160D01*
X48534376Y9454160D02*
X48458186Y9530351D01*
X48458186Y9530351D02*
X48420090Y9682732D01*
X48420090Y9682732D02*
X48420090Y9949399D01*
X48420090Y9949399D02*
X48458186Y10101780D01*
X48458186Y10101780D02*
X48534376Y10177970D01*
X48534376Y10177970D02*
X48610567Y10216065D01*
X49753424Y9416065D02*
X49486757Y9797018D01*
X49296281Y9416065D02*
X49296281Y10216065D01*
X49296281Y10216065D02*
X49601043Y10216065D01*
X49601043Y10216065D02*
X49677233Y10177970D01*
X49677233Y10177970D02*
X49715328Y10139875D01*
X49715328Y10139875D02*
X49753424Y10063684D01*
X49753424Y10063684D02*
X49753424Y9949399D01*
X49753424Y9949399D02*
X49715328Y9873208D01*
X49715328Y9873208D02*
X49677233Y9835113D01*
X49677233Y9835113D02*
X49601043Y9797018D01*
X49601043Y9797018D02*
X49296281Y9797018D01*
X59734376Y45016065D02*
X59734376Y44368446D01*
X59734376Y44368446D02*
X59772471Y44292256D01*
X59772471Y44292256D02*
X59810566Y44254160D01*
X59810566Y44254160D02*
X59886757Y44216065D01*
X59886757Y44216065D02*
X60039138Y44216065D01*
X60039138Y44216065D02*
X60115328Y44254160D01*
X60115328Y44254160D02*
X60153423Y44292256D01*
X60153423Y44292256D02*
X60191519Y44368446D01*
X60191519Y44368446D02*
X60191519Y45016065D01*
X60534375Y44254160D02*
X60648661Y44216065D01*
X60648661Y44216065D02*
X60839137Y44216065D01*
X60839137Y44216065D02*
X60915328Y44254160D01*
X60915328Y44254160D02*
X60953423Y44292256D01*
X60953423Y44292256D02*
X60991518Y44368446D01*
X60991518Y44368446D02*
X60991518Y44444637D01*
X60991518Y44444637D02*
X60953423Y44520827D01*
X60953423Y44520827D02*
X60915328Y44558922D01*
X60915328Y44558922D02*
X60839137Y44597018D01*
X60839137Y44597018D02*
X60686756Y44635113D01*
X60686756Y44635113D02*
X60610566Y44673208D01*
X60610566Y44673208D02*
X60572471Y44711303D01*
X60572471Y44711303D02*
X60534375Y44787494D01*
X60534375Y44787494D02*
X60534375Y44863684D01*
X60534375Y44863684D02*
X60572471Y44939875D01*
X60572471Y44939875D02*
X60610566Y44977970D01*
X60610566Y44977970D02*
X60686756Y45016065D01*
X60686756Y45016065D02*
X60877233Y45016065D01*
X60877233Y45016065D02*
X60991518Y44977970D01*
X61601042Y44635113D02*
X61715328Y44597018D01*
X61715328Y44597018D02*
X61753423Y44558922D01*
X61753423Y44558922D02*
X61791519Y44482732D01*
X61791519Y44482732D02*
X61791519Y44368446D01*
X61791519Y44368446D02*
X61753423Y44292256D01*
X61753423Y44292256D02*
X61715328Y44254160D01*
X61715328Y44254160D02*
X61639138Y44216065D01*
X61639138Y44216065D02*
X61334376Y44216065D01*
X61334376Y44216065D02*
X61334376Y45016065D01*
X61334376Y45016065D02*
X61601042Y45016065D01*
X61601042Y45016065D02*
X61677233Y44977970D01*
X61677233Y44977970D02*
X61715328Y44939875D01*
X61715328Y44939875D02*
X61753423Y44863684D01*
X61753423Y44863684D02*
X61753423Y44787494D01*
X61753423Y44787494D02*
X61715328Y44711303D01*
X61715328Y44711303D02*
X61677233Y44673208D01*
X61677233Y44673208D02*
X61601042Y44635113D01*
X61601042Y44635113D02*
X61334376Y44635113D01*
X63353424Y44749399D02*
X62743900Y44520827D01*
X62743900Y44520827D02*
X63353424Y44292256D01*
X64953424Y44216065D02*
X64953424Y45016065D01*
X64953424Y45016065D02*
X65410567Y44216065D01*
X65410567Y44216065D02*
X65410567Y45016065D01*
X66210566Y44216065D02*
X65753423Y44216065D01*
X65981995Y44216065D02*
X65981995Y45016065D01*
X65981995Y45016065D02*
X65905804Y44901780D01*
X65905804Y44901780D02*
X65829614Y44825589D01*
X65829614Y44825589D02*
X65753423Y44787494D01*
X66896281Y45016065D02*
X66743900Y45016065D01*
X66743900Y45016065D02*
X66667709Y44977970D01*
X66667709Y44977970D02*
X66629614Y44939875D01*
X66629614Y44939875D02*
X66553424Y44825589D01*
X66553424Y44825589D02*
X66515328Y44673208D01*
X66515328Y44673208D02*
X66515328Y44368446D01*
X66515328Y44368446D02*
X66553424Y44292256D01*
X66553424Y44292256D02*
X66591519Y44254160D01*
X66591519Y44254160D02*
X66667709Y44216065D01*
X66667709Y44216065D02*
X66820090Y44216065D01*
X66820090Y44216065D02*
X66896281Y44254160D01*
X66896281Y44254160D02*
X66934376Y44292256D01*
X66934376Y44292256D02*
X66972471Y44368446D01*
X66972471Y44368446D02*
X66972471Y44558922D01*
X66972471Y44558922D02*
X66934376Y44635113D01*
X66934376Y44635113D02*
X66896281Y44673208D01*
X66896281Y44673208D02*
X66820090Y44711303D01*
X66820090Y44711303D02*
X66667709Y44711303D01*
X66667709Y44711303D02*
X66591519Y44673208D01*
X66591519Y44673208D02*
X66553424Y44635113D01*
X66553424Y44635113D02*
X66515328Y44558922D01*
X67772472Y44216065D02*
X67505805Y44597018D01*
X67315329Y44216065D02*
X67315329Y45016065D01*
X67315329Y45016065D02*
X67620091Y45016065D01*
X67620091Y45016065D02*
X67696281Y44977970D01*
X67696281Y44977970D02*
X67734376Y44939875D01*
X67734376Y44939875D02*
X67772472Y44863684D01*
X67772472Y44863684D02*
X67772472Y44749399D01*
X67772472Y44749399D02*
X67734376Y44673208D01*
X67734376Y44673208D02*
X67696281Y44635113D01*
X67696281Y44635113D02*
X67620091Y44597018D01*
X67620091Y44597018D02*
X67315329Y44597018D01*
X68229614Y44673208D02*
X68153424Y44711303D01*
X68153424Y44711303D02*
X68115329Y44749399D01*
X68115329Y44749399D02*
X68077233Y44825589D01*
X68077233Y44825589D02*
X68077233Y44863684D01*
X68077233Y44863684D02*
X68115329Y44939875D01*
X68115329Y44939875D02*
X68153424Y44977970D01*
X68153424Y44977970D02*
X68229614Y45016065D01*
X68229614Y45016065D02*
X68381995Y45016065D01*
X68381995Y45016065D02*
X68458186Y44977970D01*
X68458186Y44977970D02*
X68496281Y44939875D01*
X68496281Y44939875D02*
X68534376Y44863684D01*
X68534376Y44863684D02*
X68534376Y44825589D01*
X68534376Y44825589D02*
X68496281Y44749399D01*
X68496281Y44749399D02*
X68458186Y44711303D01*
X68458186Y44711303D02*
X68381995Y44673208D01*
X68381995Y44673208D02*
X68229614Y44673208D01*
X68229614Y44673208D02*
X68153424Y44635113D01*
X68153424Y44635113D02*
X68115329Y44597018D01*
X68115329Y44597018D02*
X68077233Y44520827D01*
X68077233Y44520827D02*
X68077233Y44368446D01*
X68077233Y44368446D02*
X68115329Y44292256D01*
X68115329Y44292256D02*
X68153424Y44254160D01*
X68153424Y44254160D02*
X68229614Y44216065D01*
X68229614Y44216065D02*
X68381995Y44216065D01*
X68381995Y44216065D02*
X68458186Y44254160D01*
X68458186Y44254160D02*
X68496281Y44292256D01*
X68496281Y44292256D02*
X68534376Y44368446D01*
X68534376Y44368446D02*
X68534376Y44520827D01*
X68534376Y44520827D02*
X68496281Y44597018D01*
X68496281Y44597018D02*
X68458186Y44635113D01*
X68458186Y44635113D02*
X68381995Y44673208D01*
X68877234Y44520827D02*
X69486758Y44520827D01*
X69867710Y44216065D02*
X69867710Y45016065D01*
X69867710Y45016065D02*
X70134376Y44444637D01*
X70134376Y44444637D02*
X70401043Y45016065D01*
X70401043Y45016065D02*
X70401043Y44216065D01*
X72001044Y44749399D02*
X72610568Y44520827D01*
X72610568Y44520827D02*
X72001044Y44292256D01*
X73562948Y44444637D02*
X73943901Y44444637D01*
X73486758Y44216065D02*
X73753425Y45016065D01*
X73753425Y45016065D02*
X74020091Y44216065D01*
X74286758Y44216065D02*
X74286758Y45016065D01*
X74286758Y45016065D02*
X74743901Y44216065D01*
X74743901Y44216065D02*
X74743901Y45016065D01*
X75010567Y45016065D02*
X75467710Y45016065D01*
X75239138Y44216065D02*
X75239138Y45016065D01*
X78467709Y3416065D02*
X78467709Y2844637D01*
X78467709Y2844637D02*
X78429614Y2730351D01*
X78429614Y2730351D02*
X78353423Y2654160D01*
X78353423Y2654160D02*
X78239138Y2616065D01*
X78239138Y2616065D02*
X78162947Y2616065D01*
X78962947Y3073208D02*
X78886757Y3111303D01*
X78886757Y3111303D02*
X78848662Y3149399D01*
X78848662Y3149399D02*
X78810566Y3225589D01*
X78810566Y3225589D02*
X78810566Y3263684D01*
X78810566Y3263684D02*
X78848662Y3339875D01*
X78848662Y3339875D02*
X78886757Y3377970D01*
X78886757Y3377970D02*
X78962947Y3416065D01*
X78962947Y3416065D02*
X79115328Y3416065D01*
X79115328Y3416065D02*
X79191519Y3377970D01*
X79191519Y3377970D02*
X79229614Y3339875D01*
X79229614Y3339875D02*
X79267709Y3263684D01*
X79267709Y3263684D02*
X79267709Y3225589D01*
X79267709Y3225589D02*
X79229614Y3149399D01*
X79229614Y3149399D02*
X79191519Y3111303D01*
X79191519Y3111303D02*
X79115328Y3073208D01*
X79115328Y3073208D02*
X78962947Y3073208D01*
X78962947Y3073208D02*
X78886757Y3035113D01*
X78886757Y3035113D02*
X78848662Y2997018D01*
X78848662Y2997018D02*
X78810566Y2920827D01*
X78810566Y2920827D02*
X78810566Y2768446D01*
X78810566Y2768446D02*
X78848662Y2692256D01*
X78848662Y2692256D02*
X78886757Y2654160D01*
X78886757Y2654160D02*
X78962947Y2616065D01*
X78962947Y2616065D02*
X79115328Y2616065D01*
X79115328Y2616065D02*
X79191519Y2654160D01*
X79191519Y2654160D02*
X79229614Y2692256D01*
X79229614Y2692256D02*
X79267709Y2768446D01*
X79267709Y2768446D02*
X79267709Y2920827D01*
X79267709Y2920827D02*
X79229614Y2997018D01*
X79229614Y2997018D02*
X79191519Y3035113D01*
X79191519Y3035113D02*
X79115328Y3073208D01*
X79610567Y2692256D02*
X79648662Y2654160D01*
X79648662Y2654160D02*
X79610567Y2616065D01*
X79610567Y2616065D02*
X79572471Y2654160D01*
X79572471Y2654160D02*
X79610567Y2692256D01*
X79610567Y2692256D02*
X79610567Y2616065D01*
X79610567Y3111303D02*
X79648662Y3073208D01*
X79648662Y3073208D02*
X79610567Y3035113D01*
X79610567Y3035113D02*
X79572471Y3073208D01*
X79572471Y3073208D02*
X79610567Y3111303D01*
X79610567Y3111303D02*
X79610567Y3035113D01*
X81058186Y2616065D02*
X80791519Y2997018D01*
X80601043Y2616065D02*
X80601043Y3416065D01*
X80601043Y3416065D02*
X80905805Y3416065D01*
X80905805Y3416065D02*
X80981995Y3377970D01*
X80981995Y3377970D02*
X81020090Y3339875D01*
X81020090Y3339875D02*
X81058186Y3263684D01*
X81058186Y3263684D02*
X81058186Y3149399D01*
X81058186Y3149399D02*
X81020090Y3073208D01*
X81020090Y3073208D02*
X80981995Y3035113D01*
X80981995Y3035113D02*
X80905805Y2997018D01*
X80905805Y2997018D02*
X80601043Y2997018D01*
X81401043Y3035113D02*
X81667709Y3035113D01*
X81781995Y2616065D02*
X81401043Y2616065D01*
X81401043Y2616065D02*
X81401043Y3416065D01*
X81401043Y3416065D02*
X81781995Y3416065D01*
X82124853Y2616065D02*
X82124853Y3416065D01*
X82124853Y3416065D02*
X82391519Y2844637D01*
X82391519Y2844637D02*
X82658186Y3416065D01*
X82658186Y3416065D02*
X82658186Y2616065D01*
X83191520Y3416065D02*
X83343901Y3416065D01*
X83343901Y3416065D02*
X83420091Y3377970D01*
X83420091Y3377970D02*
X83496282Y3301780D01*
X83496282Y3301780D02*
X83534377Y3149399D01*
X83534377Y3149399D02*
X83534377Y2882732D01*
X83534377Y2882732D02*
X83496282Y2730351D01*
X83496282Y2730351D02*
X83420091Y2654160D01*
X83420091Y2654160D02*
X83343901Y2616065D01*
X83343901Y2616065D02*
X83191520Y2616065D01*
X83191520Y2616065D02*
X83115329Y2654160D01*
X83115329Y2654160D02*
X83039139Y2730351D01*
X83039139Y2730351D02*
X83001043Y2882732D01*
X83001043Y2882732D02*
X83001043Y3149399D01*
X83001043Y3149399D02*
X83039139Y3301780D01*
X83039139Y3301780D02*
X83115329Y3377970D01*
X83115329Y3377970D02*
X83191520Y3416065D01*
X83762948Y3416065D02*
X84029615Y2616065D01*
X84029615Y2616065D02*
X84296281Y3416065D01*
X84562948Y3035113D02*
X84829614Y3035113D01*
X84943900Y2616065D02*
X84562948Y2616065D01*
X84562948Y2616065D02*
X84562948Y3416065D01*
X84562948Y3416065D02*
X84943900Y3416065D01*
X86162948Y3035113D02*
X85896282Y3035113D01*
X85896282Y2616065D02*
X85896282Y3416065D01*
X85896282Y3416065D02*
X86277234Y3416065D01*
X86734377Y3416065D02*
X86886758Y3416065D01*
X86886758Y3416065D02*
X86962948Y3377970D01*
X86962948Y3377970D02*
X87039139Y3301780D01*
X87039139Y3301780D02*
X87077234Y3149399D01*
X87077234Y3149399D02*
X87077234Y2882732D01*
X87077234Y2882732D02*
X87039139Y2730351D01*
X87039139Y2730351D02*
X86962948Y2654160D01*
X86962948Y2654160D02*
X86886758Y2616065D01*
X86886758Y2616065D02*
X86734377Y2616065D01*
X86734377Y2616065D02*
X86658186Y2654160D01*
X86658186Y2654160D02*
X86581996Y2730351D01*
X86581996Y2730351D02*
X86543900Y2882732D01*
X86543900Y2882732D02*
X86543900Y3149399D01*
X86543900Y3149399D02*
X86581996Y3301780D01*
X86581996Y3301780D02*
X86658186Y3377970D01*
X86658186Y3377970D02*
X86734377Y3416065D01*
X87877234Y2616065D02*
X87610567Y2997018D01*
X87420091Y2616065D02*
X87420091Y3416065D01*
X87420091Y3416065D02*
X87724853Y3416065D01*
X87724853Y3416065D02*
X87801043Y3377970D01*
X87801043Y3377970D02*
X87839138Y3339875D01*
X87839138Y3339875D02*
X87877234Y3263684D01*
X87877234Y3263684D02*
X87877234Y3149399D01*
X87877234Y3149399D02*
X87839138Y3073208D01*
X87839138Y3073208D02*
X87801043Y3035113D01*
X87801043Y3035113D02*
X87724853Y2997018D01*
X87724853Y2997018D02*
X87420091Y2997018D01*
X88829615Y3416065D02*
X88829615Y2768446D01*
X88829615Y2768446D02*
X88867710Y2692256D01*
X88867710Y2692256D02*
X88905805Y2654160D01*
X88905805Y2654160D02*
X88981996Y2616065D01*
X88981996Y2616065D02*
X89134377Y2616065D01*
X89134377Y2616065D02*
X89210567Y2654160D01*
X89210567Y2654160D02*
X89248662Y2692256D01*
X89248662Y2692256D02*
X89286758Y2768446D01*
X89286758Y2768446D02*
X89286758Y3416065D01*
X89629614Y2654160D02*
X89743900Y2616065D01*
X89743900Y2616065D02*
X89934376Y2616065D01*
X89934376Y2616065D02*
X90010567Y2654160D01*
X90010567Y2654160D02*
X90048662Y2692256D01*
X90048662Y2692256D02*
X90086757Y2768446D01*
X90086757Y2768446D02*
X90086757Y2844637D01*
X90086757Y2844637D02*
X90048662Y2920827D01*
X90048662Y2920827D02*
X90010567Y2958922D01*
X90010567Y2958922D02*
X89934376Y2997018D01*
X89934376Y2997018D02*
X89781995Y3035113D01*
X89781995Y3035113D02*
X89705805Y3073208D01*
X89705805Y3073208D02*
X89667710Y3111303D01*
X89667710Y3111303D02*
X89629614Y3187494D01*
X89629614Y3187494D02*
X89629614Y3263684D01*
X89629614Y3263684D02*
X89667710Y3339875D01*
X89667710Y3339875D02*
X89705805Y3377970D01*
X89705805Y3377970D02*
X89781995Y3416065D01*
X89781995Y3416065D02*
X89972472Y3416065D01*
X89972472Y3416065D02*
X90086757Y3377970D01*
X90696281Y3035113D02*
X90810567Y2997018D01*
X90810567Y2997018D02*
X90848662Y2958922D01*
X90848662Y2958922D02*
X90886758Y2882732D01*
X90886758Y2882732D02*
X90886758Y2768446D01*
X90886758Y2768446D02*
X90848662Y2692256D01*
X90848662Y2692256D02*
X90810567Y2654160D01*
X90810567Y2654160D02*
X90734377Y2616065D01*
X90734377Y2616065D02*
X90429615Y2616065D01*
X90429615Y2616065D02*
X90429615Y3416065D01*
X90429615Y3416065D02*
X90696281Y3416065D01*
X90696281Y3416065D02*
X90772472Y3377970D01*
X90772472Y3377970D02*
X90810567Y3339875D01*
X90810567Y3339875D02*
X90848662Y3263684D01*
X90848662Y3263684D02*
X90848662Y3187494D01*
X90848662Y3187494D02*
X90810567Y3111303D01*
X90810567Y3111303D02*
X90772472Y3073208D01*
X90772472Y3073208D02*
X90696281Y3035113D01*
X90696281Y3035113D02*
X90429615Y3035113D01*
X6734374Y43323541D02*
X6401041Y43799732D01*
X6162946Y43323541D02*
X6162946Y44323541D01*
X6162946Y44323541D02*
X6543898Y44323541D01*
X6543898Y44323541D02*
X6639136Y44275922D01*
X6639136Y44275922D02*
X6686755Y44228303D01*
X6686755Y44228303D02*
X6734374Y44133065D01*
X6734374Y44133065D02*
X6734374Y43990208D01*
X6734374Y43990208D02*
X6686755Y43894970D01*
X6686755Y43894970D02*
X6639136Y43847351D01*
X6639136Y43847351D02*
X6543898Y43799732D01*
X6543898Y43799732D02*
X6162946Y43799732D01*
X7067708Y43990208D02*
X7305803Y43323541D01*
X7543898Y43990208D02*
X7305803Y43323541D01*
X7305803Y43323541D02*
X7210565Y43085446D01*
X7210565Y43085446D02*
X7162946Y43037827D01*
X7162946Y43037827D02*
X7067708Y42990208D01*
X7924851Y43323541D02*
X7924851Y44323541D01*
X8020089Y43704494D02*
X8305803Y43323541D01*
X8305803Y43990208D02*
X7924851Y43609256D01*
X9115327Y43371160D02*
X9020089Y43323541D01*
X9020089Y43323541D02*
X8829613Y43323541D01*
X8829613Y43323541D02*
X8734375Y43371160D01*
X8734375Y43371160D02*
X8686756Y43466399D01*
X8686756Y43466399D02*
X8686756Y43847351D01*
X8686756Y43847351D02*
X8734375Y43942589D01*
X8734375Y43942589D02*
X8829613Y43990208D01*
X8829613Y43990208D02*
X9020089Y43990208D01*
X9020089Y43990208D02*
X9115327Y43942589D01*
X9115327Y43942589D02*
X9162946Y43847351D01*
X9162946Y43847351D02*
X9162946Y43752113D01*
X9162946Y43752113D02*
X8686756Y43656875D01*
X9591518Y43323541D02*
X9591518Y43990208D01*
X9591518Y43799732D02*
X9639137Y43894970D01*
X9639137Y43894970D02*
X9686756Y43942589D01*
X9686756Y43942589D02*
X9781994Y43990208D01*
X9781994Y43990208D02*
X9877232Y43990208D01*
X10781994Y43418780D02*
X10734375Y43371160D01*
X10734375Y43371160D02*
X10591518Y43323541D01*
X10591518Y43323541D02*
X10496280Y43323541D01*
X10496280Y43323541D02*
X10353423Y43371160D01*
X10353423Y43371160D02*
X10258185Y43466399D01*
X10258185Y43466399D02*
X10210566Y43561637D01*
X10210566Y43561637D02*
X10162947Y43752113D01*
X10162947Y43752113D02*
X10162947Y43894970D01*
X10162947Y43894970D02*
X10210566Y44085446D01*
X10210566Y44085446D02*
X10258185Y44180684D01*
X10258185Y44180684D02*
X10353423Y44275922D01*
X10353423Y44275922D02*
X10496280Y44323541D01*
X10496280Y44323541D02*
X10591518Y44323541D01*
X10591518Y44323541D02*
X10734375Y44275922D01*
X10734375Y44275922D02*
X10781994Y44228303D01*
X11353423Y43323541D02*
X11258185Y43371160D01*
X11258185Y43371160D02*
X11210566Y43418780D01*
X11210566Y43418780D02*
X11162947Y43514018D01*
X11162947Y43514018D02*
X11162947Y43799732D01*
X11162947Y43799732D02*
X11210566Y43894970D01*
X11210566Y43894970D02*
X11258185Y43942589D01*
X11258185Y43942589D02*
X11353423Y43990208D01*
X11353423Y43990208D02*
X11496280Y43990208D01*
X11496280Y43990208D02*
X11591518Y43942589D01*
X11591518Y43942589D02*
X11639137Y43894970D01*
X11639137Y43894970D02*
X11686756Y43799732D01*
X11686756Y43799732D02*
X11686756Y43514018D01*
X11686756Y43514018D02*
X11639137Y43418780D01*
X11639137Y43418780D02*
X11591518Y43371160D01*
X11591518Y43371160D02*
X11496280Y43323541D01*
X11496280Y43323541D02*
X11353423Y43323541D01*
X12115328Y43990208D02*
X12115328Y43323541D01*
X12115328Y43894970D02*
X12162947Y43942589D01*
X12162947Y43942589D02*
X12258185Y43990208D01*
X12258185Y43990208D02*
X12401042Y43990208D01*
X12401042Y43990208D02*
X12496280Y43942589D01*
X12496280Y43942589D02*
X12543899Y43847351D01*
X12543899Y43847351D02*
X12543899Y43323541D01*
X13020090Y43990208D02*
X13020090Y43323541D01*
X13020090Y43894970D02*
X13067709Y43942589D01*
X13067709Y43942589D02*
X13162947Y43990208D01*
X13162947Y43990208D02*
X13305804Y43990208D01*
X13305804Y43990208D02*
X13401042Y43942589D01*
X13401042Y43942589D02*
X13448661Y43847351D01*
X13448661Y43847351D02*
X13448661Y43323541D01*
X14305804Y43371160D02*
X14210566Y43323541D01*
X14210566Y43323541D02*
X14020090Y43323541D01*
X14020090Y43323541D02*
X13924852Y43371160D01*
X13924852Y43371160D02*
X13877233Y43466399D01*
X13877233Y43466399D02*
X13877233Y43847351D01*
X13877233Y43847351D02*
X13924852Y43942589D01*
X13924852Y43942589D02*
X14020090Y43990208D01*
X14020090Y43990208D02*
X14210566Y43990208D01*
X14210566Y43990208D02*
X14305804Y43942589D01*
X14305804Y43942589D02*
X14353423Y43847351D01*
X14353423Y43847351D02*
X14353423Y43752113D01*
X14353423Y43752113D02*
X13877233Y43656875D01*
X15210566Y43371160D02*
X15115328Y43323541D01*
X15115328Y43323541D02*
X14924852Y43323541D01*
X14924852Y43323541D02*
X14829614Y43371160D01*
X14829614Y43371160D02*
X14781995Y43418780D01*
X14781995Y43418780D02*
X14734376Y43514018D01*
X14734376Y43514018D02*
X14734376Y43799732D01*
X14734376Y43799732D02*
X14781995Y43894970D01*
X14781995Y43894970D02*
X14829614Y43942589D01*
X14829614Y43942589D02*
X14924852Y43990208D01*
X14924852Y43990208D02*
X15115328Y43990208D01*
X15115328Y43990208D02*
X15210566Y43942589D01*
X15496281Y43990208D02*
X15877233Y43990208D01*
X15639138Y44323541D02*
X15639138Y43466399D01*
X15639138Y43466399D02*
X15686757Y43371160D01*
X15686757Y43371160D02*
X15781995Y43323541D01*
X15781995Y43323541D02*
X15877233Y43323541D01*
X17543900Y43323541D02*
X17210567Y43799732D01*
X16972472Y43323541D02*
X16972472Y44323541D01*
X16972472Y44323541D02*
X17353424Y44323541D01*
X17353424Y44323541D02*
X17448662Y44275922D01*
X17448662Y44275922D02*
X17496281Y44228303D01*
X17496281Y44228303D02*
X17543900Y44133065D01*
X17543900Y44133065D02*
X17543900Y43990208D01*
X17543900Y43990208D02*
X17496281Y43894970D01*
X17496281Y43894970D02*
X17448662Y43847351D01*
X17448662Y43847351D02*
X17353424Y43799732D01*
X17353424Y43799732D02*
X16972472Y43799732D01*
X17972472Y43847351D02*
X18305805Y43847351D01*
X18448662Y43323541D02*
X17972472Y43323541D01*
X17972472Y43323541D02*
X17972472Y44323541D01*
X17972472Y44323541D02*
X18448662Y44323541D01*
X18734377Y44323541D02*
X19067710Y43323541D01*
X19067710Y43323541D02*
X19401043Y44323541D01*
X19924853Y44323541D02*
X20020091Y44323541D01*
X20020091Y44323541D02*
X20115329Y44275922D01*
X20115329Y44275922D02*
X20162948Y44228303D01*
X20162948Y44228303D02*
X20210567Y44133065D01*
X20210567Y44133065D02*
X20258186Y43942589D01*
X20258186Y43942589D02*
X20258186Y43704494D01*
X20258186Y43704494D02*
X20210567Y43514018D01*
X20210567Y43514018D02*
X20162948Y43418780D01*
X20162948Y43418780D02*
X20115329Y43371160D01*
X20115329Y43371160D02*
X20020091Y43323541D01*
X20020091Y43323541D02*
X19924853Y43323541D01*
X19924853Y43323541D02*
X19829615Y43371160D01*
X19829615Y43371160D02*
X19781996Y43418780D01*
X19781996Y43418780D02*
X19734377Y43514018D01*
X19734377Y43514018D02*
X19686758Y43704494D01*
X19686758Y43704494D02*
X19686758Y43942589D01*
X19686758Y43942589D02*
X19734377Y44133065D01*
X19734377Y44133065D02*
X19781996Y44228303D01*
X19781996Y44228303D02*
X19829615Y44275922D01*
X19829615Y44275922D02*
X19924853Y44323541D01*
X21162948Y44323541D02*
X20686758Y44323541D01*
X20686758Y44323541D02*
X20639139Y43847351D01*
X20639139Y43847351D02*
X20686758Y43894970D01*
X20686758Y43894970D02*
X20781996Y43942589D01*
X20781996Y43942589D02*
X21020091Y43942589D01*
X21020091Y43942589D02*
X21115329Y43894970D01*
X21115329Y43894970D02*
X21162948Y43847351D01*
X21162948Y43847351D02*
X21210567Y43752113D01*
X21210567Y43752113D02*
X21210567Y43514018D01*
X21210567Y43514018D02*
X21162948Y43418780D01*
X21162948Y43418780D02*
X21115329Y43371160D01*
X21115329Y43371160D02*
X21020091Y43323541D01*
X21020091Y43323541D02*
X20781996Y43323541D01*
X20781996Y43323541D02*
X20686758Y43371160D01*
X20686758Y43371160D02*
X20639139Y43418780D01*
X22401044Y44323541D02*
X22401044Y43514018D01*
X22401044Y43514018D02*
X22448663Y43418780D01*
X22448663Y43418780D02*
X22496282Y43371160D01*
X22496282Y43371160D02*
X22591520Y43323541D01*
X22591520Y43323541D02*
X22781996Y43323541D01*
X22781996Y43323541D02*
X22877234Y43371160D01*
X22877234Y43371160D02*
X22924853Y43418780D01*
X22924853Y43418780D02*
X22972472Y43514018D01*
X22972472Y43514018D02*
X22972472Y44323541D01*
X23401044Y43371160D02*
X23543901Y43323541D01*
X23543901Y43323541D02*
X23781996Y43323541D01*
X23781996Y43323541D02*
X23877234Y43371160D01*
X23877234Y43371160D02*
X23924853Y43418780D01*
X23924853Y43418780D02*
X23972472Y43514018D01*
X23972472Y43514018D02*
X23972472Y43609256D01*
X23972472Y43609256D02*
X23924853Y43704494D01*
X23924853Y43704494D02*
X23877234Y43752113D01*
X23877234Y43752113D02*
X23781996Y43799732D01*
X23781996Y43799732D02*
X23591520Y43847351D01*
X23591520Y43847351D02*
X23496282Y43894970D01*
X23496282Y43894970D02*
X23448663Y43942589D01*
X23448663Y43942589D02*
X23401044Y44037827D01*
X23401044Y44037827D02*
X23401044Y44133065D01*
X23401044Y44133065D02*
X23448663Y44228303D01*
X23448663Y44228303D02*
X23496282Y44275922D01*
X23496282Y44275922D02*
X23591520Y44323541D01*
X23591520Y44323541D02*
X23829615Y44323541D01*
X23829615Y44323541D02*
X23972472Y44275922D01*
X24734377Y43847351D02*
X24877234Y43799732D01*
X24877234Y43799732D02*
X24924853Y43752113D01*
X24924853Y43752113D02*
X24972472Y43656875D01*
X24972472Y43656875D02*
X24972472Y43514018D01*
X24972472Y43514018D02*
X24924853Y43418780D01*
X24924853Y43418780D02*
X24877234Y43371160D01*
X24877234Y43371160D02*
X24781996Y43323541D01*
X24781996Y43323541D02*
X24401044Y43323541D01*
X24401044Y43323541D02*
X24401044Y44323541D01*
X24401044Y44323541D02*
X24734377Y44323541D01*
X24734377Y44323541D02*
X24829615Y44275922D01*
X24829615Y44275922D02*
X24877234Y44228303D01*
X24877234Y44228303D02*
X24924853Y44133065D01*
X24924853Y44133065D02*
X24924853Y44037827D01*
X24924853Y44037827D02*
X24877234Y43942589D01*
X24877234Y43942589D02*
X24829615Y43894970D01*
X24829615Y43894970D02*
X24734377Y43847351D01*
X24734377Y43847351D02*
X24401044Y43847351D01*
D11*
X82310566Y44961807D02*
X82310566Y44461807D01*
X82310566Y44461807D02*
X82277233Y44361807D01*
X82277233Y44361807D02*
X82210566Y44295140D01*
X82210566Y44295140D02*
X82110566Y44261807D01*
X82110566Y44261807D02*
X82043900Y44261807D01*
X82943899Y44961807D02*
X82810566Y44961807D01*
X82810566Y44961807D02*
X82743899Y44928474D01*
X82743899Y44928474D02*
X82710566Y44895140D01*
X82710566Y44895140D02*
X82643899Y44795140D01*
X82643899Y44795140D02*
X82610566Y44661807D01*
X82610566Y44661807D02*
X82610566Y44395140D01*
X82610566Y44395140D02*
X82643899Y44328474D01*
X82643899Y44328474D02*
X82677233Y44295140D01*
X82677233Y44295140D02*
X82743899Y44261807D01*
X82743899Y44261807D02*
X82877233Y44261807D01*
X82877233Y44261807D02*
X82943899Y44295140D01*
X82943899Y44295140D02*
X82977233Y44328474D01*
X82977233Y44328474D02*
X83010566Y44395140D01*
X83010566Y44395140D02*
X83010566Y44561807D01*
X83010566Y44561807D02*
X82977233Y44628474D01*
X82977233Y44628474D02*
X82943899Y44661807D01*
X82943899Y44661807D02*
X82877233Y44695140D01*
X82877233Y44695140D02*
X82743899Y44695140D01*
X82743899Y44695140D02*
X82677233Y44661807D01*
X82677233Y44661807D02*
X82643899Y44628474D01*
X82643899Y44628474D02*
X82610566Y44561807D01*
X40310566Y7861807D02*
X40310566Y7361807D01*
X40310566Y7361807D02*
X40277233Y7261807D01*
X40277233Y7261807D02*
X40210566Y7195140D01*
X40210566Y7195140D02*
X40110566Y7161807D01*
X40110566Y7161807D02*
X40043900Y7161807D01*
X40943899Y7628474D02*
X40943899Y7161807D01*
X40777233Y7895140D02*
X40610566Y7395140D01*
X40610566Y7395140D02*
X41043899Y7395140D01*
X68427233Y21761807D02*
X68193900Y22095140D01*
X68027233Y21761807D02*
X68027233Y22461807D01*
X68027233Y22461807D02*
X68293900Y22461807D01*
X68293900Y22461807D02*
X68360567Y22428474D01*
X68360567Y22428474D02*
X68393900Y22395140D01*
X68393900Y22395140D02*
X68427233Y22328474D01*
X68427233Y22328474D02*
X68427233Y22228474D01*
X68427233Y22228474D02*
X68393900Y22161807D01*
X68393900Y22161807D02*
X68360567Y22128474D01*
X68360567Y22128474D02*
X68293900Y22095140D01*
X68293900Y22095140D02*
X68027233Y22095140D01*
X68660567Y22461807D02*
X69093900Y22461807D01*
X69093900Y22461807D02*
X68860567Y22195140D01*
X68860567Y22195140D02*
X68960567Y22195140D01*
X68960567Y22195140D02*
X69027233Y22161807D01*
X69027233Y22161807D02*
X69060567Y22128474D01*
X69060567Y22128474D02*
X69093900Y22061807D01*
X69093900Y22061807D02*
X69093900Y21895140D01*
X69093900Y21895140D02*
X69060567Y21828474D01*
X69060567Y21828474D02*
X69027233Y21795140D01*
X69027233Y21795140D02*
X68960567Y21761807D01*
X68960567Y21761807D02*
X68760567Y21761807D01*
X68760567Y21761807D02*
X68693900Y21795140D01*
X68693900Y21795140D02*
X68660567Y21828474D01*
X14993900Y20828474D02*
X15093900Y20795140D01*
X15093900Y20795140D02*
X15127233Y20761807D01*
X15127233Y20761807D02*
X15160566Y20695140D01*
X15160566Y20695140D02*
X15160566Y20595140D01*
X15160566Y20595140D02*
X15127233Y20528474D01*
X15127233Y20528474D02*
X15093900Y20495140D01*
X15093900Y20495140D02*
X15027233Y20461807D01*
X15027233Y20461807D02*
X14760566Y20461807D01*
X14760566Y20461807D02*
X14760566Y21161807D01*
X14760566Y21161807D02*
X14993900Y21161807D01*
X14993900Y21161807D02*
X15060566Y21128474D01*
X15060566Y21128474D02*
X15093900Y21095140D01*
X15093900Y21095140D02*
X15127233Y21028474D01*
X15127233Y21028474D02*
X15127233Y20961807D01*
X15127233Y20961807D02*
X15093900Y20895140D01*
X15093900Y20895140D02*
X15060566Y20861807D01*
X15060566Y20861807D02*
X14993900Y20828474D01*
X14993900Y20828474D02*
X14760566Y20828474D01*
X15360566Y21161807D02*
X15760566Y21161807D01*
X15560566Y20461807D02*
X15560566Y21161807D01*
X16360566Y20461807D02*
X15960566Y20461807D01*
X16160566Y20461807D02*
X16160566Y21161807D01*
X16160566Y21161807D02*
X16093899Y21061807D01*
X16093899Y21061807D02*
X16027233Y20995140D01*
X16027233Y20995140D02*
X15960566Y20961807D01*
X77017709Y33634938D02*
X77451042Y32984938D01*
X77451042Y33634938D02*
X77017709Y32984938D01*
X78039138Y32984938D02*
X77667709Y32984938D01*
X77853423Y32984938D02*
X77853423Y33634938D01*
X77853423Y33634938D02*
X77791519Y33542081D01*
X77791519Y33542081D02*
X77729614Y33480176D01*
X77729614Y33480176D02*
X77667709Y33449224D01*
X72835566Y25546843D02*
X72804614Y25515890D01*
X72804614Y25515890D02*
X72711756Y25484938D01*
X72711756Y25484938D02*
X72649852Y25484938D01*
X72649852Y25484938D02*
X72556995Y25515890D01*
X72556995Y25515890D02*
X72495090Y25577795D01*
X72495090Y25577795D02*
X72464137Y25639700D01*
X72464137Y25639700D02*
X72433185Y25763510D01*
X72433185Y25763510D02*
X72433185Y25856367D01*
X72433185Y25856367D02*
X72464137Y25980176D01*
X72464137Y25980176D02*
X72495090Y26042081D01*
X72495090Y26042081D02*
X72556995Y26103986D01*
X72556995Y26103986D02*
X72649852Y26134938D01*
X72649852Y26134938D02*
X72711756Y26134938D01*
X72711756Y26134938D02*
X72804614Y26103986D01*
X72804614Y26103986D02*
X72835566Y26073033D01*
X73392709Y26134938D02*
X73268899Y26134938D01*
X73268899Y26134938D02*
X73206995Y26103986D01*
X73206995Y26103986D02*
X73176042Y26073033D01*
X73176042Y26073033D02*
X73114137Y25980176D01*
X73114137Y25980176D02*
X73083185Y25856367D01*
X73083185Y25856367D02*
X73083185Y25608748D01*
X73083185Y25608748D02*
X73114137Y25546843D01*
X73114137Y25546843D02*
X73145090Y25515890D01*
X73145090Y25515890D02*
X73206995Y25484938D01*
X73206995Y25484938D02*
X73330804Y25484938D01*
X73330804Y25484938D02*
X73392709Y25515890D01*
X73392709Y25515890D02*
X73423661Y25546843D01*
X73423661Y25546843D02*
X73454614Y25608748D01*
X73454614Y25608748D02*
X73454614Y25763510D01*
X73454614Y25763510D02*
X73423661Y25825414D01*
X73423661Y25825414D02*
X73392709Y25856367D01*
X73392709Y25856367D02*
X73330804Y25887319D01*
X73330804Y25887319D02*
X73206995Y25887319D01*
X73206995Y25887319D02*
X73145090Y25856367D01*
X73145090Y25856367D02*
X73114137Y25825414D01*
X73114137Y25825414D02*
X73083185Y25763510D01*
X14310566Y7861807D02*
X14310566Y7361807D01*
X14310566Y7361807D02*
X14277233Y7261807D01*
X14277233Y7261807D02*
X14210566Y7195140D01*
X14210566Y7195140D02*
X14110566Y7161807D01*
X14110566Y7161807D02*
X14043900Y7161807D01*
X14577233Y7861807D02*
X15010566Y7861807D01*
X15010566Y7861807D02*
X14777233Y7595140D01*
X14777233Y7595140D02*
X14877233Y7595140D01*
X14877233Y7595140D02*
X14943899Y7561807D01*
X14943899Y7561807D02*
X14977233Y7528474D01*
X14977233Y7528474D02*
X15010566Y7461807D01*
X15010566Y7461807D02*
X15010566Y7295140D01*
X15010566Y7295140D02*
X14977233Y7228474D01*
X14977233Y7228474D02*
X14943899Y7195140D01*
X14943899Y7195140D02*
X14877233Y7161807D01*
X14877233Y7161807D02*
X14677233Y7161807D01*
X14677233Y7161807D02*
X14610566Y7195140D01*
X14610566Y7195140D02*
X14577233Y7228474D01*
X84010566Y34161807D02*
X84010566Y33595140D01*
X84010566Y33595140D02*
X84043900Y33528474D01*
X84043900Y33528474D02*
X84077233Y33495140D01*
X84077233Y33495140D02*
X84143900Y33461807D01*
X84143900Y33461807D02*
X84277233Y33461807D01*
X84277233Y33461807D02*
X84343900Y33495140D01*
X84343900Y33495140D02*
X84377233Y33528474D01*
X84377233Y33528474D02*
X84410566Y33595140D01*
X84410566Y33595140D02*
X84410566Y34161807D01*
X84677233Y34161807D02*
X85110566Y34161807D01*
X85110566Y34161807D02*
X84877233Y33895140D01*
X84877233Y33895140D02*
X84977233Y33895140D01*
X84977233Y33895140D02*
X85043899Y33861807D01*
X85043899Y33861807D02*
X85077233Y33828474D01*
X85077233Y33828474D02*
X85110566Y33761807D01*
X85110566Y33761807D02*
X85110566Y33595140D01*
X85110566Y33595140D02*
X85077233Y33528474D01*
X85077233Y33528474D02*
X85043899Y33495140D01*
X85043899Y33495140D02*
X84977233Y33461807D01*
X84977233Y33461807D02*
X84777233Y33461807D01*
X84777233Y33461807D02*
X84710566Y33495140D01*
X84710566Y33495140D02*
X84677233Y33528474D01*
X85064137Y34984938D02*
X85064137Y35634938D01*
X85064137Y35634938D02*
X85218899Y35634938D01*
X85218899Y35634938D02*
X85311756Y35603986D01*
X85311756Y35603986D02*
X85373661Y35542081D01*
X85373661Y35542081D02*
X85404614Y35480176D01*
X85404614Y35480176D02*
X85435566Y35356367D01*
X85435566Y35356367D02*
X85435566Y35263510D01*
X85435566Y35263510D02*
X85404614Y35139700D01*
X85404614Y35139700D02*
X85373661Y35077795D01*
X85373661Y35077795D02*
X85311756Y35015890D01*
X85311756Y35015890D02*
X85218899Y34984938D01*
X85218899Y34984938D02*
X85064137Y34984938D01*
X86023661Y35634938D02*
X85714137Y35634938D01*
X85714137Y35634938D02*
X85683185Y35325414D01*
X85683185Y35325414D02*
X85714137Y35356367D01*
X85714137Y35356367D02*
X85776042Y35387319D01*
X85776042Y35387319D02*
X85930804Y35387319D01*
X85930804Y35387319D02*
X85992709Y35356367D01*
X85992709Y35356367D02*
X86023661Y35325414D01*
X86023661Y35325414D02*
X86054614Y35263510D01*
X86054614Y35263510D02*
X86054614Y35108748D01*
X86054614Y35108748D02*
X86023661Y35046843D01*
X86023661Y35046843D02*
X85992709Y35015890D01*
X85992709Y35015890D02*
X85930804Y34984938D01*
X85930804Y34984938D02*
X85776042Y34984938D01*
X85776042Y34984938D02*
X85714137Y35015890D01*
X85714137Y35015890D02*
X85683185Y35046843D01*
X85435566Y27046843D02*
X85404614Y27015890D01*
X85404614Y27015890D02*
X85311756Y26984938D01*
X85311756Y26984938D02*
X85249852Y26984938D01*
X85249852Y26984938D02*
X85156995Y27015890D01*
X85156995Y27015890D02*
X85095090Y27077795D01*
X85095090Y27077795D02*
X85064137Y27139700D01*
X85064137Y27139700D02*
X85033185Y27263510D01*
X85033185Y27263510D02*
X85033185Y27356367D01*
X85033185Y27356367D02*
X85064137Y27480176D01*
X85064137Y27480176D02*
X85095090Y27542081D01*
X85095090Y27542081D02*
X85156995Y27603986D01*
X85156995Y27603986D02*
X85249852Y27634938D01*
X85249852Y27634938D02*
X85311756Y27634938D01*
X85311756Y27634938D02*
X85404614Y27603986D01*
X85404614Y27603986D02*
X85435566Y27573033D01*
X85652233Y27634938D02*
X86054614Y27634938D01*
X86054614Y27634938D02*
X85837947Y27387319D01*
X85837947Y27387319D02*
X85930804Y27387319D01*
X85930804Y27387319D02*
X85992709Y27356367D01*
X85992709Y27356367D02*
X86023661Y27325414D01*
X86023661Y27325414D02*
X86054614Y27263510D01*
X86054614Y27263510D02*
X86054614Y27108748D01*
X86054614Y27108748D02*
X86023661Y27046843D01*
X86023661Y27046843D02*
X85992709Y27015890D01*
X85992709Y27015890D02*
X85930804Y26984938D01*
X85930804Y26984938D02*
X85745090Y26984938D01*
X85745090Y26984938D02*
X85683185Y27015890D01*
X85683185Y27015890D02*
X85652233Y27046843D01*
X71048661Y38134938D02*
X71048661Y37608748D01*
X71048661Y37608748D02*
X71079614Y37546843D01*
X71079614Y37546843D02*
X71110566Y37515890D01*
X71110566Y37515890D02*
X71172471Y37484938D01*
X71172471Y37484938D02*
X71296280Y37484938D01*
X71296280Y37484938D02*
X71358185Y37515890D01*
X71358185Y37515890D02*
X71389138Y37546843D01*
X71389138Y37546843D02*
X71420090Y37608748D01*
X71420090Y37608748D02*
X71420090Y38134938D01*
X71667709Y38134938D02*
X72101042Y38134938D01*
X72101042Y38134938D02*
X71822471Y37484938D01*
X79726042Y34346843D02*
X79695090Y34315890D01*
X79695090Y34315890D02*
X79602232Y34284938D01*
X79602232Y34284938D02*
X79540328Y34284938D01*
X79540328Y34284938D02*
X79447471Y34315890D01*
X79447471Y34315890D02*
X79385566Y34377795D01*
X79385566Y34377795D02*
X79354613Y34439700D01*
X79354613Y34439700D02*
X79323661Y34563510D01*
X79323661Y34563510D02*
X79323661Y34656367D01*
X79323661Y34656367D02*
X79354613Y34780176D01*
X79354613Y34780176D02*
X79385566Y34842081D01*
X79385566Y34842081D02*
X79447471Y34903986D01*
X79447471Y34903986D02*
X79540328Y34934938D01*
X79540328Y34934938D02*
X79602232Y34934938D01*
X79602232Y34934938D02*
X79695090Y34903986D01*
X79695090Y34903986D02*
X79726042Y34873033D01*
X80345090Y34284938D02*
X79973661Y34284938D01*
X80159375Y34284938D02*
X80159375Y34934938D01*
X80159375Y34934938D02*
X80097471Y34842081D01*
X80097471Y34842081D02*
X80035566Y34780176D01*
X80035566Y34780176D02*
X79973661Y34749224D01*
X80716519Y34656367D02*
X80654614Y34687319D01*
X80654614Y34687319D02*
X80623661Y34718271D01*
X80623661Y34718271D02*
X80592709Y34780176D01*
X80592709Y34780176D02*
X80592709Y34811129D01*
X80592709Y34811129D02*
X80623661Y34873033D01*
X80623661Y34873033D02*
X80654614Y34903986D01*
X80654614Y34903986D02*
X80716519Y34934938D01*
X80716519Y34934938D02*
X80840328Y34934938D01*
X80840328Y34934938D02*
X80902233Y34903986D01*
X80902233Y34903986D02*
X80933185Y34873033D01*
X80933185Y34873033D02*
X80964138Y34811129D01*
X80964138Y34811129D02*
X80964138Y34780176D01*
X80964138Y34780176D02*
X80933185Y34718271D01*
X80933185Y34718271D02*
X80902233Y34687319D01*
X80902233Y34687319D02*
X80840328Y34656367D01*
X80840328Y34656367D02*
X80716519Y34656367D01*
X80716519Y34656367D02*
X80654614Y34625414D01*
X80654614Y34625414D02*
X80623661Y34594462D01*
X80623661Y34594462D02*
X80592709Y34532557D01*
X80592709Y34532557D02*
X80592709Y34408748D01*
X80592709Y34408748D02*
X80623661Y34346843D01*
X80623661Y34346843D02*
X80654614Y34315890D01*
X80654614Y34315890D02*
X80716519Y34284938D01*
X80716519Y34284938D02*
X80840328Y34284938D01*
X80840328Y34284938D02*
X80902233Y34315890D01*
X80902233Y34315890D02*
X80933185Y34346843D01*
X80933185Y34346843D02*
X80964138Y34408748D01*
X80964138Y34408748D02*
X80964138Y34532557D01*
X80964138Y34532557D02*
X80933185Y34594462D01*
X80933185Y34594462D02*
X80902233Y34625414D01*
X80902233Y34625414D02*
X80840328Y34656367D01*
X80227233Y23461807D02*
X79993900Y23795140D01*
X79827233Y23461807D02*
X79827233Y24161807D01*
X79827233Y24161807D02*
X80093900Y24161807D01*
X80093900Y24161807D02*
X80160567Y24128474D01*
X80160567Y24128474D02*
X80193900Y24095140D01*
X80193900Y24095140D02*
X80227233Y24028474D01*
X80227233Y24028474D02*
X80227233Y23928474D01*
X80227233Y23928474D02*
X80193900Y23861807D01*
X80193900Y23861807D02*
X80160567Y23828474D01*
X80160567Y23828474D02*
X80093900Y23795140D01*
X80093900Y23795140D02*
X79827233Y23795140D01*
X80827233Y24161807D02*
X80693900Y24161807D01*
X80693900Y24161807D02*
X80627233Y24128474D01*
X80627233Y24128474D02*
X80593900Y24095140D01*
X80593900Y24095140D02*
X80527233Y23995140D01*
X80527233Y23995140D02*
X80493900Y23861807D01*
X80493900Y23861807D02*
X80493900Y23595140D01*
X80493900Y23595140D02*
X80527233Y23528474D01*
X80527233Y23528474D02*
X80560567Y23495140D01*
X80560567Y23495140D02*
X80627233Y23461807D01*
X80627233Y23461807D02*
X80760567Y23461807D01*
X80760567Y23461807D02*
X80827233Y23495140D01*
X80827233Y23495140D02*
X80860567Y23528474D01*
X80860567Y23528474D02*
X80893900Y23595140D01*
X80893900Y23595140D02*
X80893900Y23761807D01*
X80893900Y23761807D02*
X80860567Y23828474D01*
X80860567Y23828474D02*
X80827233Y23861807D01*
X80827233Y23861807D02*
X80760567Y23895140D01*
X80760567Y23895140D02*
X80627233Y23895140D01*
X80627233Y23895140D02*
X80560567Y23861807D01*
X80560567Y23861807D02*
X80527233Y23828474D01*
X80527233Y23828474D02*
X80493900Y23761807D01*
X68010566Y21461807D02*
X68010566Y20961807D01*
X68010566Y20961807D02*
X67977233Y20861807D01*
X67977233Y20861807D02*
X67910566Y20795140D01*
X67910566Y20795140D02*
X67810566Y20761807D01*
X67810566Y20761807D02*
X67743900Y20761807D01*
X68277233Y21461807D02*
X68743899Y21461807D01*
X68743899Y21461807D02*
X68443899Y20761807D01*
X64427233Y25461807D02*
X64193900Y25795140D01*
X64027233Y25461807D02*
X64027233Y26161807D01*
X64027233Y26161807D02*
X64293900Y26161807D01*
X64293900Y26161807D02*
X64360567Y26128474D01*
X64360567Y26128474D02*
X64393900Y26095140D01*
X64393900Y26095140D02*
X64427233Y26028474D01*
X64427233Y26028474D02*
X64427233Y25928474D01*
X64427233Y25928474D02*
X64393900Y25861807D01*
X64393900Y25861807D02*
X64360567Y25828474D01*
X64360567Y25828474D02*
X64293900Y25795140D01*
X64293900Y25795140D02*
X64027233Y25795140D01*
X65027233Y25928474D02*
X65027233Y25461807D01*
X64860567Y26195140D02*
X64693900Y25695140D01*
X64693900Y25695140D02*
X65127233Y25695140D01*
X48310566Y7861807D02*
X48310566Y7361807D01*
X48310566Y7361807D02*
X48277233Y7261807D01*
X48277233Y7261807D02*
X48210566Y7195140D01*
X48210566Y7195140D02*
X48110566Y7161807D01*
X48110566Y7161807D02*
X48043900Y7161807D01*
X48977233Y7861807D02*
X48643899Y7861807D01*
X48643899Y7861807D02*
X48610566Y7528474D01*
X48610566Y7528474D02*
X48643899Y7561807D01*
X48643899Y7561807D02*
X48710566Y7595140D01*
X48710566Y7595140D02*
X48877233Y7595140D01*
X48877233Y7595140D02*
X48943899Y7561807D01*
X48943899Y7561807D02*
X48977233Y7528474D01*
X48977233Y7528474D02*
X49010566Y7461807D01*
X49010566Y7461807D02*
X49010566Y7295140D01*
X49010566Y7295140D02*
X48977233Y7228474D01*
X48977233Y7228474D02*
X48943899Y7195140D01*
X48943899Y7195140D02*
X48877233Y7161807D01*
X48877233Y7161807D02*
X48710566Y7161807D01*
X48710566Y7161807D02*
X48643899Y7195140D01*
X48643899Y7195140D02*
X48610566Y7228474D01*
X65435566Y33046843D02*
X65404614Y33015890D01*
X65404614Y33015890D02*
X65311756Y32984938D01*
X65311756Y32984938D02*
X65249852Y32984938D01*
X65249852Y32984938D02*
X65156995Y33015890D01*
X65156995Y33015890D02*
X65095090Y33077795D01*
X65095090Y33077795D02*
X65064137Y33139700D01*
X65064137Y33139700D02*
X65033185Y33263510D01*
X65033185Y33263510D02*
X65033185Y33356367D01*
X65033185Y33356367D02*
X65064137Y33480176D01*
X65064137Y33480176D02*
X65095090Y33542081D01*
X65095090Y33542081D02*
X65156995Y33603986D01*
X65156995Y33603986D02*
X65249852Y33634938D01*
X65249852Y33634938D02*
X65311756Y33634938D01*
X65311756Y33634938D02*
X65404614Y33603986D01*
X65404614Y33603986D02*
X65435566Y33573033D01*
X66023661Y33634938D02*
X65714137Y33634938D01*
X65714137Y33634938D02*
X65683185Y33325414D01*
X65683185Y33325414D02*
X65714137Y33356367D01*
X65714137Y33356367D02*
X65776042Y33387319D01*
X65776042Y33387319D02*
X65930804Y33387319D01*
X65930804Y33387319D02*
X65992709Y33356367D01*
X65992709Y33356367D02*
X66023661Y33325414D01*
X66023661Y33325414D02*
X66054614Y33263510D01*
X66054614Y33263510D02*
X66054614Y33108748D01*
X66054614Y33108748D02*
X66023661Y33046843D01*
X66023661Y33046843D02*
X65992709Y33015890D01*
X65992709Y33015890D02*
X65930804Y32984938D01*
X65930804Y32984938D02*
X65776042Y32984938D01*
X65776042Y32984938D02*
X65714137Y33015890D01*
X65714137Y33015890D02*
X65683185Y33046843D01*
X85310566Y10161807D02*
X85310566Y9661807D01*
X85310566Y9661807D02*
X85277233Y9561807D01*
X85277233Y9561807D02*
X85210566Y9495140D01*
X85210566Y9495140D02*
X85110566Y9461807D01*
X85110566Y9461807D02*
X85043900Y9461807D01*
X85743899Y9861807D02*
X85677233Y9895140D01*
X85677233Y9895140D02*
X85643899Y9928474D01*
X85643899Y9928474D02*
X85610566Y9995140D01*
X85610566Y9995140D02*
X85610566Y10028474D01*
X85610566Y10028474D02*
X85643899Y10095140D01*
X85643899Y10095140D02*
X85677233Y10128474D01*
X85677233Y10128474D02*
X85743899Y10161807D01*
X85743899Y10161807D02*
X85877233Y10161807D01*
X85877233Y10161807D02*
X85943899Y10128474D01*
X85943899Y10128474D02*
X85977233Y10095140D01*
X85977233Y10095140D02*
X86010566Y10028474D01*
X86010566Y10028474D02*
X86010566Y9995140D01*
X86010566Y9995140D02*
X85977233Y9928474D01*
X85977233Y9928474D02*
X85943899Y9895140D01*
X85943899Y9895140D02*
X85877233Y9861807D01*
X85877233Y9861807D02*
X85743899Y9861807D01*
X85743899Y9861807D02*
X85677233Y9828474D01*
X85677233Y9828474D02*
X85643899Y9795140D01*
X85643899Y9795140D02*
X85610566Y9728474D01*
X85610566Y9728474D02*
X85610566Y9595140D01*
X85610566Y9595140D02*
X85643899Y9528474D01*
X85643899Y9528474D02*
X85677233Y9495140D01*
X85677233Y9495140D02*
X85743899Y9461807D01*
X85743899Y9461807D02*
X85877233Y9461807D01*
X85877233Y9461807D02*
X85943899Y9495140D01*
X85943899Y9495140D02*
X85977233Y9528474D01*
X85977233Y9528474D02*
X86010566Y9595140D01*
X86010566Y9595140D02*
X86010566Y9728474D01*
X86010566Y9728474D02*
X85977233Y9795140D01*
X85977233Y9795140D02*
X85943899Y9828474D01*
X85943899Y9828474D02*
X85877233Y9861807D01*
X80426042Y37046843D02*
X80395090Y37015890D01*
X80395090Y37015890D02*
X80302232Y36984938D01*
X80302232Y36984938D02*
X80240328Y36984938D01*
X80240328Y36984938D02*
X80147471Y37015890D01*
X80147471Y37015890D02*
X80085566Y37077795D01*
X80085566Y37077795D02*
X80054613Y37139700D01*
X80054613Y37139700D02*
X80023661Y37263510D01*
X80023661Y37263510D02*
X80023661Y37356367D01*
X80023661Y37356367D02*
X80054613Y37480176D01*
X80054613Y37480176D02*
X80085566Y37542081D01*
X80085566Y37542081D02*
X80147471Y37603986D01*
X80147471Y37603986D02*
X80240328Y37634938D01*
X80240328Y37634938D02*
X80302232Y37634938D01*
X80302232Y37634938D02*
X80395090Y37603986D01*
X80395090Y37603986D02*
X80426042Y37573033D01*
X81045090Y36984938D02*
X80673661Y36984938D01*
X80859375Y36984938D02*
X80859375Y37634938D01*
X80859375Y37634938D02*
X80797471Y37542081D01*
X80797471Y37542081D02*
X80735566Y37480176D01*
X80735566Y37480176D02*
X80673661Y37449224D01*
X81354614Y36984938D02*
X81478423Y36984938D01*
X81478423Y36984938D02*
X81540328Y37015890D01*
X81540328Y37015890D02*
X81571280Y37046843D01*
X81571280Y37046843D02*
X81633185Y37139700D01*
X81633185Y37139700D02*
X81664138Y37263510D01*
X81664138Y37263510D02*
X81664138Y37511129D01*
X81664138Y37511129D02*
X81633185Y37573033D01*
X81633185Y37573033D02*
X81602233Y37603986D01*
X81602233Y37603986D02*
X81540328Y37634938D01*
X81540328Y37634938D02*
X81416519Y37634938D01*
X81416519Y37634938D02*
X81354614Y37603986D01*
X81354614Y37603986D02*
X81323661Y37573033D01*
X81323661Y37573033D02*
X81292709Y37511129D01*
X81292709Y37511129D02*
X81292709Y37356367D01*
X81292709Y37356367D02*
X81323661Y37294462D01*
X81323661Y37294462D02*
X81354614Y37263510D01*
X81354614Y37263510D02*
X81416519Y37232557D01*
X81416519Y37232557D02*
X81540328Y37232557D01*
X81540328Y37232557D02*
X81602233Y37263510D01*
X81602233Y37263510D02*
X81633185Y37294462D01*
X81633185Y37294462D02*
X81664138Y37356367D01*
X89064137Y25984938D02*
X89064137Y26634938D01*
X89064137Y26634938D02*
X89218899Y26634938D01*
X89218899Y26634938D02*
X89311756Y26603986D01*
X89311756Y26603986D02*
X89373661Y26542081D01*
X89373661Y26542081D02*
X89404614Y26480176D01*
X89404614Y26480176D02*
X89435566Y26356367D01*
X89435566Y26356367D02*
X89435566Y26263510D01*
X89435566Y26263510D02*
X89404614Y26139700D01*
X89404614Y26139700D02*
X89373661Y26077795D01*
X89373661Y26077795D02*
X89311756Y26015890D01*
X89311756Y26015890D02*
X89218899Y25984938D01*
X89218899Y25984938D02*
X89064137Y25984938D01*
X89992709Y26634938D02*
X89868899Y26634938D01*
X89868899Y26634938D02*
X89806995Y26603986D01*
X89806995Y26603986D02*
X89776042Y26573033D01*
X89776042Y26573033D02*
X89714137Y26480176D01*
X89714137Y26480176D02*
X89683185Y26356367D01*
X89683185Y26356367D02*
X89683185Y26108748D01*
X89683185Y26108748D02*
X89714137Y26046843D01*
X89714137Y26046843D02*
X89745090Y26015890D01*
X89745090Y26015890D02*
X89806995Y25984938D01*
X89806995Y25984938D02*
X89930804Y25984938D01*
X89930804Y25984938D02*
X89992709Y26015890D01*
X89992709Y26015890D02*
X90023661Y26046843D01*
X90023661Y26046843D02*
X90054614Y26108748D01*
X90054614Y26108748D02*
X90054614Y26263510D01*
X90054614Y26263510D02*
X90023661Y26325414D01*
X90023661Y26325414D02*
X89992709Y26356367D01*
X89992709Y26356367D02*
X89930804Y26387319D01*
X89930804Y26387319D02*
X89806995Y26387319D01*
X89806995Y26387319D02*
X89745090Y26356367D01*
X89745090Y26356367D02*
X89714137Y26325414D01*
X89714137Y26325414D02*
X89683185Y26263510D01*
X30310566Y20161807D02*
X30310566Y19661807D01*
X30310566Y19661807D02*
X30277233Y19561807D01*
X30277233Y19561807D02*
X30210566Y19495140D01*
X30210566Y19495140D02*
X30110566Y19461807D01*
X30110566Y19461807D02*
X30043900Y19461807D01*
X31010566Y19461807D02*
X30610566Y19461807D01*
X30810566Y19461807D02*
X30810566Y20161807D01*
X30810566Y20161807D02*
X30743899Y20061807D01*
X30743899Y20061807D02*
X30677233Y19995140D01*
X30677233Y19995140D02*
X30610566Y19961807D01*
%TO.C,J6*%
X40263900Y42839400D02*
X40263900Y40179400D01*
X93663900Y42839400D02*
X40263900Y42839400D01*
X93663900Y42839400D02*
X93663900Y40179400D01*
X93663900Y40179400D02*
X40263900Y40179400D01*
X96263900Y41509400D02*
X96263900Y40179400D01*
X96263900Y40179400D02*
X94933900Y40179400D01*
%TO.C,J4*%
X38433900Y5564400D02*
X39483900Y5564400D01*
X38433900Y3064400D02*
X38433900Y5564400D01*
X39483900Y5564400D02*
X39483900Y6554400D01*
X39603900Y1094400D02*
X41483900Y1094400D01*
X42653900Y5564400D02*
X41603900Y5564400D01*
X42653900Y3064400D02*
X42653900Y5564400D01*
%TO.C,R3*%
X68306642Y24301900D02*
X68781158Y24301900D01*
X68306642Y23256900D02*
X68781158Y23256900D01*
%TO.C,BT1*%
D12*
X1043900Y31779400D02*
X1043900Y31779400D01*
X1143900Y31779400D02*
X1143900Y31779400D01*
X1043900Y31779400D02*
G75*
G02*
X1143900Y31779400I50000J0D01*
G01*
X1143900Y31779400D02*
G75*
G02*
X1043900Y31779400I-50000J0D01*
G01*
%TO.C,X1*%
D11*
X76668900Y30104400D02*
X76668900Y31454400D01*
X78418900Y30104400D02*
X78418900Y31454400D01*
%TO.C,C6*%
X73403320Y28289400D02*
X73684480Y28289400D01*
X73403320Y27269400D02*
X73684480Y27269400D01*
%TO.C,J3*%
X9433900Y5564400D02*
X10483900Y5564400D01*
X9433900Y3064400D02*
X9433900Y5564400D01*
X10483900Y5564400D02*
X10483900Y6554400D01*
X10603900Y1094400D02*
X18483900Y1094400D01*
X19653900Y5564400D02*
X18603900Y5564400D01*
X19653900Y3064400D02*
X19653900Y5564400D01*
%TO.C,U3*%
X82483900Y33339400D02*
X86603900Y33339400D01*
X82483900Y33244400D02*
X82483900Y33339400D01*
X82483900Y28219400D02*
X82483900Y28314400D01*
X86603900Y33339400D02*
X86603900Y33244400D01*
X86603900Y28314400D02*
X86603900Y28219400D01*
X86603900Y28219400D02*
X82483900Y28219400D01*
X81943900Y33249400D02*
X81703900Y33579400D01*
X82183900Y33579400D01*
X81943900Y33249400D01*
G36*
X81943900Y33249400D02*
G01*
X81703900Y33579400D01*
X82183900Y33579400D01*
X81943900Y33249400D01*
G37*
%TO.C,D5*%
X84783900Y39339400D02*
X86303900Y39339400D01*
X84783900Y39289400D02*
X84783900Y39339400D01*
X84783900Y37389400D02*
X84783900Y38169400D01*
X84783900Y36219400D02*
X84783900Y36269400D01*
X86303900Y39339400D02*
X86303900Y38339400D01*
X86303900Y37219400D02*
X86303900Y36219400D01*
X86303900Y36219400D02*
X84783900Y36219400D01*
X84243900Y38159400D02*
X84483900Y37829400D01*
X84003900Y37829400D01*
X84243900Y38159400D01*
G36*
X84483900Y37829400D02*
G01*
X84003900Y37829400D01*
X84243900Y38159400D01*
X84483900Y37829400D01*
G37*
%TO.C,C3*%
X85403320Y25289400D02*
X85684480Y25289400D01*
X85403320Y24269400D02*
X85684480Y24269400D01*
%TO.C,U7*%
X69633900Y37189400D02*
X69633900Y35929400D01*
X69633900Y30369400D02*
X69633900Y31629400D01*
X73393900Y37189400D02*
X69633900Y37189400D01*
X73393900Y30369400D02*
X69633900Y30369400D01*
X74673900Y30469400D02*
X74913900Y30139400D01*
X74433900Y30139400D01*
X74673900Y30469400D01*
G36*
X74913900Y30139400D02*
G01*
X74433900Y30139400D01*
X74673900Y30469400D01*
X74913900Y30139400D01*
G37*
%TO.C,C18*%
X77403320Y34789400D02*
X77684480Y34789400D01*
X77403320Y33769400D02*
X77684480Y33769400D01*
%TO.C,R6*%
X78021400Y23542142D02*
X78021400Y24016658D01*
X79066400Y23542142D02*
X79066400Y24016658D01*
%TO.C,J7*%
X40263900Y19979400D02*
X40263900Y17319400D01*
X93663900Y19979400D02*
X40263900Y19979400D01*
X93663900Y19979400D02*
X93663900Y17319400D01*
X93663900Y17319400D02*
X40263900Y17319400D01*
X96263900Y18649400D02*
X96263900Y17319400D01*
X96263900Y17319400D02*
X94933900Y17319400D01*
%TO.C,R4*%
X66306642Y26301900D02*
X66781158Y26301900D01*
X66306642Y25256900D02*
X66781158Y25256900D01*
%TO.C,J5*%
X45433900Y5564400D02*
X46483900Y5564400D01*
X45433900Y3064400D02*
X45433900Y5564400D01*
X46483900Y5564400D02*
X46483900Y6554400D01*
X46603900Y1094400D02*
X50483900Y1094400D01*
X51653900Y5564400D02*
X50603900Y5564400D01*
X51653900Y3064400D02*
X51653900Y5564400D01*
%TO.C,C5*%
X65033900Y30919980D02*
X65033900Y30638820D01*
X66053900Y30919980D02*
X66053900Y30638820D01*
%TO.C,J8*%
X82163900Y6399400D02*
X82163900Y7779400D01*
X83543900Y6399400D02*
X82163900Y6399400D01*
X84813900Y9159400D02*
X87463900Y9159400D01*
X84813900Y6399400D02*
X84813900Y9159400D01*
X84813900Y6399400D02*
X87463900Y6399400D01*
X87463900Y6399400D02*
X87463900Y9159400D01*
%TO.C,C19*%
X78403320Y37789400D02*
X78684480Y37789400D01*
X78403320Y36769400D02*
X78684480Y36769400D01*
%TO.C,D6*%
X88783900Y25339400D02*
X90303900Y25339400D01*
X88783900Y25289400D02*
X88783900Y25339400D01*
X88783900Y23389400D02*
X88783900Y24169400D01*
X88783900Y22219400D02*
X88783900Y22269400D01*
X90303900Y25339400D02*
X90303900Y24339400D01*
X90303900Y23219400D02*
X90303900Y22219400D01*
X90303900Y22219400D02*
X88783900Y22219400D01*
X88243900Y24159400D02*
X88483900Y23829400D01*
X88003900Y23829400D01*
X88243900Y24159400D01*
G36*
X88483900Y23829400D02*
G01*
X88003900Y23829400D01*
X88243900Y24159400D01*
X88483900Y23829400D01*
G37*
%TO.C,J1*%
D13*
X24218900Y7369400D02*
X24218900Y17269400D01*
X33868900Y17269400D02*
X33868900Y7369400D01*
X33868900Y7369400D02*
X24218900Y7369400D01*
X34243900Y16779400D02*
X35243900Y17279400D01*
X35243900Y17279400D02*
X35243900Y16279400D01*
X35243900Y16279400D02*
X34243900Y16779400D01*
%TD*%
%LPC*%
D14*
%TO.C,J6*%
X94933900Y41509400D03*
D15*
X92393900Y41509400D03*
X89853900Y41509400D03*
X87313900Y41509400D03*
X84773900Y41509400D03*
X82233900Y41509400D03*
X79693900Y41509400D03*
X77153900Y41509400D03*
X74613900Y41509400D03*
X72073900Y41509400D03*
X69533900Y41509400D03*
X66993900Y41509400D03*
X64453900Y41509400D03*
X61913900Y41509400D03*
X59373900Y41509400D03*
X56833900Y41509400D03*
X54293900Y41509400D03*
X51753900Y41509400D03*
X49213900Y41509400D03*
X46673900Y41509400D03*
X44133900Y41509400D03*
X41593900Y41509400D03*
%TD*%
D16*
%TO.C,J4*%
X40043900Y5779400D03*
X41043900Y5779400D03*
D17*
X38743900Y1904400D03*
X42343900Y1904400D03*
%TD*%
D18*
%TO.C,R3*%
X67718900Y23779400D03*
X69368900Y23779400D03*
%TD*%
D19*
%TO.C,BT1*%
X26993900Y31779400D03*
X4093900Y31779400D03*
D20*
X15543900Y31779400D03*
%TD*%
D21*
%TO.C,X1*%
X77543900Y32029400D03*
X77543900Y29529400D03*
%TD*%
D22*
%TO.C,C6*%
X72768900Y27779400D03*
X74318900Y27779400D03*
%TD*%
D23*
%TO.C,H2*%
X99000000Y14500000D03*
D24*
X99000000Y14500000D03*
%TD*%
D16*
%TO.C,J3*%
X11043900Y5779400D03*
X12043900Y5779400D03*
X13043900Y5779400D03*
X14043900Y5779400D03*
X15043900Y5779400D03*
X16043900Y5779400D03*
X17043900Y5779400D03*
X18043900Y5779400D03*
D17*
X9743900Y1904400D03*
X19343900Y1904400D03*
%TD*%
D25*
%TO.C,U3*%
X82068900Y32684400D03*
X82068900Y31414400D03*
X82068900Y30144400D03*
X82068900Y28874400D03*
X87018900Y28874400D03*
X87018900Y30144400D03*
X87018900Y31414400D03*
X87018900Y32684400D03*
%TD*%
D26*
%TO.C,D5*%
X84606400Y38729400D03*
X84606400Y36829400D03*
X86481400Y37779400D03*
%TD*%
D22*
%TO.C,C3*%
X84768900Y24779400D03*
X86318900Y24779400D03*
%TD*%
D27*
%TO.C,U7*%
X74693900Y31479400D03*
X74693900Y33779400D03*
D28*
X68393900Y33779400D03*
D27*
X74693900Y36079400D03*
%TD*%
D22*
%TO.C,C18*%
X76768900Y34279400D03*
X78318900Y34279400D03*
%TD*%
D29*
%TO.C,R6*%
X78543900Y22954400D03*
X78543900Y24604400D03*
%TD*%
D14*
%TO.C,J7*%
X94933900Y18649400D03*
D15*
X92393900Y18649400D03*
X89853900Y18649400D03*
X87313900Y18649400D03*
X84773900Y18649400D03*
X82233900Y18649400D03*
X79693900Y18649400D03*
X77153900Y18649400D03*
X74613900Y18649400D03*
X72073900Y18649400D03*
X69533900Y18649400D03*
X66993900Y18649400D03*
X64453900Y18649400D03*
X61913900Y18649400D03*
X59373900Y18649400D03*
X56833900Y18649400D03*
X54293900Y18649400D03*
X51753900Y18649400D03*
X49213900Y18649400D03*
X46673900Y18649400D03*
X44133900Y18649400D03*
X41593900Y18649400D03*
%TD*%
D18*
%TO.C,R4*%
X65718900Y25779400D03*
X67368900Y25779400D03*
%TD*%
D16*
%TO.C,J5*%
X47043900Y5779400D03*
X48043900Y5779400D03*
X49043900Y5779400D03*
X50043900Y5779400D03*
D17*
X45743900Y1904400D03*
X51343900Y1904400D03*
%TD*%
D30*
%TO.C,C5*%
X65543900Y31554400D03*
X65543900Y30004400D03*
%TD*%
D14*
%TO.C,J8*%
X83543900Y7779400D03*
D15*
X86083900Y7779400D03*
%TD*%
D22*
%TO.C,C19*%
X77768900Y37279400D03*
X79318900Y37279400D03*
%TD*%
D26*
%TO.C,D6*%
X88606400Y24729400D03*
X88606400Y22829400D03*
X90481400Y23779400D03*
%TD*%
D31*
%TO.C,J1*%
X30543900Y16779400D03*
D32*
X27543900Y16779400D03*
%TD*%
D23*
%TO.C,H1*%
X9000000Y14500000D03*
D24*
X9000000Y14500000D03*
%TD*%
%LPD*%
M02*
