%TF.GenerationSoftware,KiCad,Pcbnew,10.0.6*%
%TF.CreationDate,2026-09-13T11:24:40-08:00*%
%TF.ProjectId,RykerConnect,52796b65-7243-46f6-9e6e-6563742e6b69,REV03*%
%TF.SameCoordinates,Original*%
%TF.FileFunction,Legend,Bot*%
%TF.FilePolarity,Positive*%
%FSLAX46Y46*%
G04 Gerber Fmt 4.6, Leading zero omitted, Abs format (unit mm)*
G04 Created by KiCad (PCBNEW 10.0.6) date 2026-09-13 11:24:40*
%MOMM*%
%LPD*%
G01*
G04 APERTURE LIST*
%ADD10R,1.700000X1.700000*%
%ADD11C,1.700000*%
%ADD12C,2.600000*%
%ADD13C,3.800000*%
%ADD14R,1.520000X1.520000*%
%ADD15C,1.520000*%
G04 APERTURE END LIST*
%LPC*%
D10*
%TO.C,J6*%
X94933900Y41509400D03*
D11*
X92393900Y41509400D03*
X89853900Y41509400D03*
X87313900Y41509400D03*
X84773900Y41509400D03*
X82233900Y41509400D03*
X79693900Y41509400D03*
X77153900Y41509400D03*
X74613900Y41509400D03*
X72073900Y41509400D03*
X69533900Y41509400D03*
X66993900Y41509400D03*
X64453900Y41509400D03*
X61913900Y41509400D03*
X59373900Y41509400D03*
X56833900Y41509400D03*
X54293900Y41509400D03*
X51753900Y41509400D03*
X49213900Y41509400D03*
X46673900Y41509400D03*
X44133900Y41509400D03*
X41593900Y41509400D03*
%TD*%
D12*
%TO.C,H2*%
X99000000Y14500000D03*
D13*
X99000000Y14500000D03*
%TD*%
D10*
%TO.C,J7*%
X94933900Y18649400D03*
D11*
X92393900Y18649400D03*
X89853900Y18649400D03*
X87313900Y18649400D03*
X84773900Y18649400D03*
X82233900Y18649400D03*
X79693900Y18649400D03*
X77153900Y18649400D03*
X74613900Y18649400D03*
X72073900Y18649400D03*
X69533900Y18649400D03*
X66993900Y18649400D03*
X64453900Y18649400D03*
X61913900Y18649400D03*
X59373900Y18649400D03*
X56833900Y18649400D03*
X54293900Y18649400D03*
X51753900Y18649400D03*
X49213900Y18649400D03*
X46673900Y18649400D03*
X44133900Y18649400D03*
X41593900Y18649400D03*
%TD*%
D10*
%TO.C,J8*%
X83543900Y7779400D03*
D11*
X86083900Y7779400D03*
%TD*%
D14*
%TO.C,J1*%
X30543900Y16779400D03*
D15*
X27543900Y16779400D03*
%TD*%
D12*
%TO.C,H1*%
X9000000Y14500000D03*
D13*
X9000000Y14500000D03*
%TD*%
%LPD*%
M02*
