M48
; DRILL file KiCad 10.0.6 date 2026-09-13T11:24:40
; FORMAT={-:-/ absolute / metric / decimal}
; #@! TF.CreationDate,2026-09-13T11:24:40-08:00
; #@! TF.GenerationSoftware,Kicad,Pcbnew,10.0.6
; #@! TF.FileFunction,Plated,1,2,PTH
FMAT,2
METRIC
; #@! TA.AperFunction,Plated,PTH,ViaDrill
T1C0.300
; #@! TA.AperFunction,Plated,PTH,ComponentDrill
T2C1.000
; #@! TA.AperFunction,Plated,PTH,ComponentDrill
T3C1.020
; #@! TA.AperFunction,Plated,PTH,ComponentDrill
T4C2.200
%
G90
G05
T1
X3.544Y43.779
X3.544Y37.779
X3.544Y13.779
X3.544Y2.779
X11.544Y43.779
X11.544Y37.779
X11.544Y25.779
X11.544Y13.779
X15.044Y4.279
X15.985Y7.0
X16.745Y7.278
X18.112Y8.689
X20.945Y9.087
X23.544Y43.779
X31.059Y5.979
X33.544Y43.779
X43.544Y43.779
X43.544Y2.779
X44.544Y5.779
X47.044Y4.979
X53.493Y6.556
X55.544Y43.779
X55.544Y2.779
X55.986Y9.119
X58.044Y23.779
X58.044Y21.279
X60.971Y6.556
X61.544Y43.779
X61.544Y2.779
X65.046Y23.439
X65.544Y43.779
X65.544Y28.979
X65.544Y2.779
X68.449Y5.979
X68.77Y25.489
X71.016Y23.487
X71.544Y43.779
X71.544Y2.779
X74.844Y30.979
X75.344Y27.579
X75.544Y43.779
X75.544Y2.779
X78.544Y23.779
X79.205Y36.142
X83.544Y43.779
X83.544Y2.779
X87.344Y24.779
X89.544Y43.779
X89.544Y37.779
X89.544Y21.779
X89.544Y13.779
X89.544Y2.779
X93.544Y43.779
X93.544Y13.779
X93.544Y2.779
T2
X41.594Y41.509
X41.594Y18.649
X44.134Y41.509
X44.134Y18.649
X46.674Y41.509
X46.674Y18.649
X49.214Y41.509
X49.214Y18.649
X51.754Y41.509
X51.754Y18.649
X54.294Y41.509
X54.294Y18.649
X56.834Y41.509
X56.834Y18.649
X59.374Y41.509
X59.374Y18.649
X61.914Y41.509
X61.914Y18.649
X64.454Y41.509
X64.454Y18.649
X66.994Y41.509
X66.994Y18.649
X69.534Y41.509
X69.534Y18.649
X72.074Y41.509
X72.074Y18.649
X74.614Y41.509
X74.614Y18.649
X77.154Y41.509
X77.154Y18.649
X79.694Y41.509
X79.694Y18.649
X82.234Y41.509
X82.234Y18.649
X83.544Y7.779
X84.774Y41.509
X84.774Y18.649
X86.084Y7.779
X87.314Y41.509
X87.314Y18.649
X89.854Y41.509
X89.854Y18.649
X92.394Y41.509
X92.394Y18.649
X94.934Y41.509
X94.934Y18.649
T3
X27.544Y16.779
X30.544Y16.779
T4
X9.0Y14.5
X99.0Y14.5
M30
