%TF.GenerationSoftware,KiCad,Pcbnew,10.0.6*%
%TF.CreationDate,2026-09-13T11:24:40-08:00*%
%TF.ProjectId,RykerConnect,52796b65-7243-46f6-9e6e-6563742e6b69,REV03*%
%TF.SameCoordinates,Original*%
%TF.FileFunction,Copper,L2,Bot*%
%TF.FilePolarity,Positive*%
%FSLAX46Y46*%
G04 Gerber Fmt 4.6, Leading zero omitted, Abs format (unit mm)*
G04 Created by KiCad (PCBNEW 10.0.6) date 2026-09-13 11:24:40*
%MOMM*%
%LPD*%
G01*
G04 APERTURE LIST*
%TA.AperFunction,ComponentPad*%
%ADD10R,1.700000X1.700000*%
%TD*%
%TA.AperFunction,ComponentPad*%
%ADD11C,1.700000*%
%TD*%
%TA.AperFunction,ComponentPad*%
%ADD12C,2.600000*%
%TD*%
%TA.AperFunction,ConnectorPad*%
%ADD13C,3.800000*%
%TD*%
%TA.AperFunction,ComponentPad*%
%ADD14R,1.520000X1.520000*%
%TD*%
%TA.AperFunction,ComponentPad*%
%ADD15C,1.520000*%
%TD*%
%TA.AperFunction,ViaPad*%
%ADD16C,0.500000*%
%TD*%
%TA.AperFunction,ViaPad*%
%ADD17C,0.650000*%
%TD*%
%TA.AperFunction,Conductor*%
%ADD18C,0.250000*%
%TD*%
%TA.AperFunction,Conductor*%
%ADD19C,0.500000*%
%TD*%
G04 APERTURE END LIST*
D10*
%TO.P,J6,1,NC_1*%
%TO.N,unconnected-(J6-NC_1-Pad1)*%
X94933900Y41509400D03*
D11*
%TO.P,J6,2,NC_2*%
%TO.N,unconnected-(J6-NC_2-Pad2)*%
X92393900Y41509400D03*
%TO.P,J6,3,NC_3*%
%TO.N,unconnected-(J6-NC_3-Pad3)*%
X89853900Y41509400D03*
%TO.P,J6,4,NC_4*%
%TO.N,unconnected-(J6-NC_4-Pad4)*%
X87313900Y41509400D03*
%TO.P,J6,5,NC_5*%
%TO.N,unconnected-(J6-NC_5-Pad5)*%
X84773900Y41509400D03*
%TO.P,J6,6,NC_6*%
%TO.N,unconnected-(J6-NC_6-Pad6)*%
X82233900Y41509400D03*
%TO.P,J6,7,GPIO7*%
%TO.N,GPIO7*%
X79693900Y41509400D03*
%TO.P,J6,8,DSP_RES*%
%TO.N,DSP_RES*%
X77153900Y41509400D03*
%TO.P,J6,9,NC_9*%
%TO.N,unconnected-(J6-NC_9-Pad9)*%
X74613900Y41509400D03*
%TO.P,J6,10,NC_10*%
%TO.N,unconnected-(J6-NC_10-Pad10)*%
X72073900Y41509400D03*
%TO.P,J6,11,SCL*%
%TO.N,SCL*%
X69533900Y41509400D03*
%TO.P,J6,12,SDA*%
%TO.N,SDA*%
X66993900Y41509400D03*
%TO.P,J6,13,NC_13*%
%TO.N,unconnected-(J6-NC_13-Pad13)*%
X64453900Y41509400D03*
%TO.P,J6,14,NC_14*%
%TO.N,unconnected-(J6-NC_14-Pad14)*%
X61913900Y41509400D03*
%TO.P,J6,15,NC_15*%
%TO.N,unconnected-(J6-NC_15-Pad15)*%
X59373900Y41509400D03*
%TO.P,J6,16,CS2*%
%TO.N,CS2*%
X56833900Y41509400D03*
%TO.P,J6,17,SPI_MOSI*%
%TO.N,SPI_MOSI*%
X54293900Y41509400D03*
%TO.P,J6,18,SPI_SCK*%
%TO.N,SPI_SCK*%
X51753900Y41509400D03*
%TO.P,J6,19,DSP_DC*%
%TO.N,DSP_DC*%
X49213900Y41509400D03*
%TO.P,J6,20,CS1*%
%TO.N,CS1*%
X46673900Y41509400D03*
%TO.P,J6,21,+5V_MODULE*%
%TO.N,+5V_MODULE*%
X44133900Y41509400D03*
%TO.P,J6,22,GND*%
%TO.N,GND*%
X41593900Y41509400D03*
%TD*%
D12*
%TO.P,H2,1,1_1*%
%TO.N,GND*%
X99000000Y14500000D03*
D13*
X99000000Y14500000D03*
%TD*%
D10*
%TO.P,J7,1,GND*%
%TO.N,GND*%
X94933900Y18649400D03*
D11*
%TO.P,J7,2,NC_2*%
%TO.N,unconnected-(J7-NC_2-Pad2)*%
X92393900Y18649400D03*
%TO.P,J7,3,NC_3*%
%TO.N,unconnected-(J7-NC_3-Pad3)*%
X89853900Y18649400D03*
%TO.P,J7,4,NC_4*%
%TO.N,unconnected-(J7-NC_4-Pad4)*%
X87313900Y18649400D03*
%TO.P,J7,5,NC_5*%
%TO.N,unconnected-(J7-NC_5-Pad5)*%
X84773900Y18649400D03*
%TO.P,J7,6,NC_6*%
%TO.N,unconnected-(J7-NC_6-Pad6)*%
X82233900Y18649400D03*
%TO.P,J7,7,NC_7*%
%TO.N,unconnected-(J7-NC_7-Pad7)*%
X79693900Y18649400D03*
%TO.P,J7,8,NC_8*%
%TO.N,unconnected-(J7-NC_8-Pad8)*%
X77153900Y18649400D03*
%TO.P,J7,9,NC_9*%
%TO.N,unconnected-(J7-NC_9-Pad9)*%
X74613900Y18649400D03*
%TO.P,J7,10,NC_10*%
%TO.N,unconnected-(J7-NC_10-Pad10)*%
X72073900Y18649400D03*
%TO.P,J7,11,NC_11*%
%TO.N,unconnected-(J7-NC_11-Pad11)*%
X69533900Y18649400D03*
%TO.P,J7,12,NC_12*%
%TO.N,unconnected-(J7-NC_12-Pad12)*%
X66993900Y18649400D03*
%TO.P,J7,13,NC_13*%
%TO.N,unconnected-(J7-NC_13-Pad13)*%
X64453900Y18649400D03*
%TO.P,J7,14,NC_14*%
%TO.N,unconnected-(J7-NC_14-Pad14)*%
X61913900Y18649400D03*
%TO.P,J7,15,NC_15*%
%TO.N,unconnected-(J7-NC_15-Pad15)*%
X59373900Y18649400D03*
%TO.P,J7,16,NC_16*%
%TO.N,unconnected-(J7-NC_16-Pad16)*%
X56833900Y18649400D03*
%TO.P,J7,17,NC_17*%
%TO.N,unconnected-(J7-NC_17-Pad17)*%
X54293900Y18649400D03*
%TO.P,J7,18,NC_18*%
%TO.N,unconnected-(J7-NC_18-Pad18)*%
X51753900Y18649400D03*
%TO.P,J7,19,NC_19*%
%TO.N,unconnected-(J7-NC_19-Pad19)*%
X49213900Y18649400D03*
%TO.P,J7,20,NC_20*%
%TO.N,unconnected-(J7-NC_20-Pad20)*%
X46673900Y18649400D03*
%TO.P,J7,21,GND*%
%TO.N,GND*%
X44133900Y18649400D03*
%TO.P,J7,22,GND*%
X41593900Y18649400D03*
%TD*%
D10*
%TO.P,J8,1,+5V_EXTERNAL*%
%TO.N,+5V_EXTERNAL*%
X83543900Y7779400D03*
D11*
%TO.P,J8,2,+5V_MODULE*%
%TO.N,+5V_MODULE*%
X86083900Y7779400D03*
%TD*%
D14*
%TO.P,J1,1,Pin_1*%
%TO.N,+5V_EXTERNAL*%
X30543900Y16779400D03*
D15*
%TO.P,J1,2,Pin_2*%
%TO.N,GND*%
X27543900Y16779400D03*
%TD*%
D12*
%TO.P,H1,1,1_1*%
%TO.N,GND*%
X9000000Y14500000D03*
D13*
X9000000Y14500000D03*
%TD*%
D16*
%TO.N,GPIO7*%
X78543900Y23779400D03*
X68449300Y5979400D03*
D17*
%TO.N,DSP_RES*%
X15043900Y4279400D03*
D16*
%TO.N,SCL*%
X60971200Y6555600D03*
X71016500Y23487100D03*
%TO.N,SDA*%
X53493100Y6555600D03*
X68770200Y25489100D03*
%TO.N,CS2*%
X31058800Y5979400D03*
%TO.N,SPI_MOSI*%
X15985300Y6999900D03*
%TO.N,SPI_SCK*%
X20945300Y9087100D03*
%TO.N,DSP_DC*%
X16744900Y7278100D03*
%TO.N,CS1*%
X18112400Y8689100D03*
D17*
%TO.N,+5V_MODULE*%
X79205200Y36141600D03*
%TO.N,GND*%
X75343900Y27579400D03*
X33543900Y43779400D03*
X3543900Y2779400D03*
X11543900Y25779400D03*
X75543900Y2779400D03*
X93543900Y43779400D03*
X43543900Y2779400D03*
X71543900Y43779400D03*
X71543900Y2779400D03*
X89543900Y2779400D03*
X83543900Y43779400D03*
X55543900Y43779400D03*
X55543900Y2779400D03*
X87343900Y24779400D03*
X89543900Y21779400D03*
X3543900Y13779400D03*
X43543900Y43779400D03*
X61543900Y43779400D03*
X93543900Y2779400D03*
X89543900Y13779400D03*
X44543900Y5779400D03*
X65543900Y28979400D03*
X65543900Y43779400D03*
X83543900Y2779400D03*
X3543900Y43779400D03*
X89543900Y43779400D03*
X11543900Y13779400D03*
X61543900Y2779400D03*
X65543900Y2779400D03*
X23543900Y43779400D03*
X93543900Y13779400D03*
X74843900Y30979400D03*
X47043900Y4979400D03*
X89543900Y37779400D03*
X75543900Y43779400D03*
X58043900Y23779400D03*
X11543900Y37779400D03*
X11543900Y43779400D03*
X3543900Y37779400D03*
X58043900Y21279400D03*
%TO.N,+3.3V*%
X55985800Y9118900D03*
X65046300Y23438800D03*
%TD*%
%TO.N,GPIO7*%
D18*
X78543900Y16074000D02*
X78543900Y23779400D01*
X78543900Y23779400D02*
X78543900Y40359400D01*
X78543900Y40359400D02*
X79693900Y41509400D01*
X68449300Y5979400D02*
X78543900Y16074000D01*
%TO.N,DSP_RES*%
X30565400Y14850600D02*
X55563900Y39849100D01*
X55563900Y41851200D02*
X56373900Y42661200D01*
X55563900Y39849100D02*
X55563900Y41851200D01*
X76002100Y42661200D02*
X77153900Y41509400D01*
X28179500Y14850600D02*
X30565400Y14850600D01*
X56373900Y42661200D02*
X76002100Y42661200D01*
X15043900Y4279400D02*
X17608300Y4279400D01*
X17608300Y4279400D02*
X28179500Y14850600D01*
%TO.N,SCL*%
X71016500Y23487100D02*
X71016500Y40026800D01*
X70920100Y23390700D02*
X71016500Y23487100D01*
X70920100Y16504500D02*
X70920100Y23390700D01*
X60971200Y6555600D02*
X70920100Y16504500D01*
X71016500Y40026800D02*
X69533900Y41509400D01*
%TO.N,SDA*%
X66993900Y26706400D02*
X60770700Y20483200D01*
X60770700Y15025800D02*
X53493100Y7748200D01*
X60770700Y20483200D02*
X60770700Y15025800D01*
X67552900Y26706400D02*
X68770200Y25489100D01*
X66993900Y26706400D02*
X67552900Y26706400D01*
X53493100Y7748200D02*
X53493100Y6555600D01*
X66993900Y41509400D02*
X66993900Y26706400D01*
%TO.N,CS2*%
X31058800Y9780300D02*
X56833900Y35555400D01*
X31058800Y5979400D02*
X31058800Y9780300D01*
X56833900Y35555400D02*
X56833900Y41509400D01*
%TO.N,SPI_MOSI*%
X51833200Y40024400D02*
X28945100Y17136300D01*
X28945100Y17136300D02*
X28945100Y16258200D01*
X15985400Y6999900D02*
X15985300Y6999900D01*
X16784100Y8062100D02*
X15985400Y7263400D01*
X20749000Y8062100D02*
X16784100Y8062100D01*
X15985400Y7263400D02*
X15985400Y6999900D01*
X54293900Y41509400D02*
X52808900Y40024400D01*
X28945100Y16258200D02*
X20749000Y8062100D01*
X52808900Y40024400D02*
X51833200Y40024400D01*
%TO.N,SPI_SCK*%
X20945300Y9087100D02*
X20945300Y11649500D01*
X28060600Y17816100D02*
X51753900Y41509400D01*
X27111900Y17816100D02*
X28060600Y17816100D01*
X20945300Y11649500D02*
X27111900Y17816100D01*
%TO.N,DSP_DC*%
X15427000Y11209100D02*
X15427000Y6792600D01*
X45260600Y41693600D02*
X45260600Y41042700D01*
X45260600Y41042700D02*
X15427000Y11209100D01*
X49213900Y41509400D02*
X48043900Y42679400D01*
X46246400Y42679400D02*
X45260600Y41693600D01*
X15427000Y6792600D02*
X15767300Y6452300D01*
X16218500Y6452300D02*
X16744900Y6978700D01*
X48043900Y42679400D02*
X46246400Y42679400D01*
X15767300Y6452300D02*
X16218500Y6452300D01*
X16744900Y6978700D02*
X16744900Y7278100D01*
%TO.N,CS1*%
X18112400Y12947900D02*
X46673900Y41509400D01*
X18112400Y8689100D02*
X18112400Y12947900D01*
%TO.N,+5V_MODULE*%
D19*
X83503900Y10359400D02*
X86083900Y7779400D01*
X83503900Y31842900D02*
X83503900Y10359400D01*
X79205200Y36141600D02*
X83503900Y31842900D01*
%TO.N,+3.3V*%
X63183900Y16317000D02*
X63183900Y21576400D01*
X55985800Y9118900D02*
X63183900Y16317000D01*
X63183900Y21576400D02*
X65046300Y23438800D01*
%TD*%
%TA.AperFunction,Conductor*%
%TO.N,GND*%
G36*
X26484640Y16626000D02*
G01*
X26540573Y16584128D01*
X26562923Y16534011D01*
X26572712Y16484799D01*
X26572714Y16484794D01*
X26648849Y16300988D01*
X26730762Y16178396D01*
X27092907Y16540541D01*
X27135798Y16466253D01*
X27230753Y16371298D01*
X27305039Y16328409D01*
X26942894Y15966264D01*
X26942894Y15966262D01*
X27065484Y15884351D01*
X27065483Y15884351D01*
X27249293Y15808215D01*
X27249301Y15808213D01*
X27444419Y15769401D01*
X27444422Y15769400D01*
X27643377Y15769400D01*
X27682603Y15777203D01*
X27752195Y15770976D01*
X27807373Y15728114D01*
X27830618Y15662224D01*
X27814551Y15594227D01*
X27794477Y15567905D01*
X21524190Y9297619D01*
X21462867Y9264134D01*
X21393175Y9269118D01*
X21337242Y9310990D01*
X21329122Y9323299D01*
X21305789Y9363713D01*
X21305784Y9363718D01*
X21300842Y9370159D01*
X21302273Y9371258D01*
X21273634Y9423706D01*
X21270800Y9450064D01*
X21270800Y11463311D01*
X21290485Y11530350D01*
X21307119Y11550992D01*
X23793486Y14037359D01*
X26353627Y16597501D01*
X26414948Y16630984D01*
X26484640Y16626000D01*
G37*
%TD.AperFunction*%
%TA.AperFunction,Conductor*%
G36*
X51347809Y40540470D02*
G01*
X51351928Y40538849D01*
X51356117Y40537114D01*
X51447480Y40499270D01*
X51553807Y40478121D01*
X51615716Y40445737D01*
X51650290Y40385021D01*
X51646551Y40315252D01*
X51617295Y40268823D01*
X28684637Y17336165D01*
X28684635Y17336162D01*
X28646188Y17269570D01*
X28595620Y17221355D01*
X28527013Y17208133D01*
X28462149Y17234101D01*
X28435699Y17262680D01*
X28385462Y17337865D01*
X28007560Y16996317D01*
X27952002Y17092547D01*
X27857047Y17187502D01*
X27782760Y17230393D01*
X28006649Y17454281D01*
X28067972Y17487766D01*
X28094330Y17490600D01*
X28103450Y17490600D01*
X28103453Y17490600D01*
X28186239Y17512782D01*
X28260462Y17555635D01*
X51216796Y40511971D01*
X51278117Y40545454D01*
X51347809Y40540470D01*
G37*
%TD.AperFunction*%
%TA.AperFunction,Conductor*%
G36*
X101442539Y45259715D02*
G01*
X101488294Y45206911D01*
X101499500Y45155400D01*
X101499500Y39703400D01*
X101479815Y39636361D01*
X101427011Y39590606D01*
X101375500Y39579400D01*
X98370586Y39579400D01*
X98303547Y39599085D01*
X98257792Y39651889D01*
X98247848Y39721047D01*
X98276873Y39784603D01*
X98332265Y39821330D01*
X98500893Y39876121D01*
X98667858Y39961193D01*
X98819459Y40071338D01*
X98951962Y40203841D01*
X99062107Y40355442D01*
X99147179Y40522407D01*
X99205086Y40700624D01*
X99221075Y40801578D01*
X99234400Y40885701D01*
X99234400Y41073100D01*
X99213827Y41202988D01*
X99205086Y41258176D01*
X99147179Y41436393D01*
X99062107Y41603358D01*
X99062104Y41603362D01*
X99062104Y41603363D01*
X99030130Y41647371D01*
X98951962Y41754959D01*
X98819459Y41887462D01*
X98743351Y41942758D01*
X98667862Y41997605D01*
X98667859Y41997606D01*
X98667860Y41997606D01*
X98667858Y41997607D01*
X98500893Y42082679D01*
X98322676Y42140586D01*
X98322670Y42140587D01*
X98137599Y42169900D01*
X98137594Y42169900D01*
X97950206Y42169900D01*
X97950201Y42169900D01*
X97765129Y42140587D01*
X97765127Y42140587D01*
X97765124Y42140586D01*
X97586907Y42082679D01*
X97586904Y42082678D01*
X97586902Y42082677D01*
X97419940Y41997606D01*
X97419937Y41997605D01*
X97306918Y41915490D01*
X97268341Y41887462D01*
X97268339Y41887460D01*
X97268338Y41887460D01*
X97135840Y41754962D01*
X97135840Y41754961D01*
X97135838Y41754959D01*
X97108202Y41716923D01*
X97025695Y41603363D01*
X97025694Y41603360D01*
X96940623Y41436398D01*
X96940622Y41436396D01*
X96940621Y41436393D01*
X96882714Y41258176D01*
X96882713Y41258173D01*
X96882713Y41258171D01*
X96853400Y41073100D01*
X96853400Y40885701D01*
X96875968Y40743215D01*
X96882714Y40700624D01*
X96940621Y40522407D01*
X96990598Y40424320D01*
X97025694Y40355441D01*
X97025695Y40355438D01*
X97071487Y40292412D01*
X97135838Y40203841D01*
X97268341Y40071338D01*
X97317958Y40035289D01*
X97419937Y39961196D01*
X97419938Y39961196D01*
X97419942Y39961193D01*
X97586907Y39876121D01*
X97755534Y39821330D01*
X97813208Y39781893D01*
X97840406Y39717534D01*
X97828491Y39648688D01*
X97781247Y39597212D01*
X97717214Y39579400D01*
X92543900Y39579400D01*
X92543900Y20579400D01*
X97717214Y20579400D01*
X97784253Y20559715D01*
X97830008Y20506911D01*
X97839952Y20437753D01*
X97810927Y20374197D01*
X97755534Y20337471D01*
X97586907Y20282679D01*
X97586904Y20282678D01*
X97586902Y20282677D01*
X97419940Y20197606D01*
X97419937Y20197605D01*
X97306377Y20115098D01*
X97268341Y20087462D01*
X97268339Y20087460D01*
X97268338Y20087460D01*
X97135840Y19954962D01*
X97135840Y19954961D01*
X97135838Y19954959D01*
X97130615Y19947770D01*
X97025695Y19803363D01*
X97025694Y19803360D01*
X96940623Y19636398D01*
X96940622Y19636396D01*
X96940621Y19636393D01*
X96882714Y19458176D01*
X96882713Y19458173D01*
X96882713Y19458171D01*
X96853400Y19273100D01*
X96853400Y19085701D01*
X96882713Y18900630D01*
X96882714Y18900624D01*
X96940621Y18722407D01*
X97025049Y18556705D01*
X97025694Y18555441D01*
X97025695Y18555438D01*
X97056268Y18513359D01*
X97135838Y18403841D01*
X97268341Y18271338D01*
X97329170Y18227143D01*
X97419937Y18161196D01*
X97419938Y18161196D01*
X97419942Y18161193D01*
X97586907Y18076121D01*
X97765124Y18018214D01*
X97857665Y18003557D01*
X97950201Y17988900D01*
X97950206Y17988900D01*
X98137599Y17988900D01*
X98221722Y18002225D01*
X98322676Y18018214D01*
X98500893Y18076121D01*
X98667858Y18161193D01*
X98819459Y18271338D01*
X98951962Y18403841D01*
X99062107Y18555442D01*
X99147179Y18722407D01*
X99205086Y18900624D01*
X99221075Y19001578D01*
X99234400Y19085701D01*
X99234400Y19273100D01*
X99218410Y19374048D01*
X99205086Y19458176D01*
X99147179Y19636393D01*
X99062107Y19803358D01*
X99062104Y19803362D01*
X99062104Y19803363D01*
X98994275Y19896720D01*
X98951962Y19954959D01*
X98819459Y20087462D01*
X98762402Y20128916D01*
X98667862Y20197605D01*
X98667859Y20197606D01*
X98667860Y20197606D01*
X98667858Y20197607D01*
X98500893Y20282679D01*
X98332265Y20337471D01*
X98274592Y20376907D01*
X98247394Y20441266D01*
X98259309Y20510112D01*
X98306553Y20561588D01*
X98370586Y20579400D01*
X101375500Y20579400D01*
X101442539Y20559715D01*
X101488294Y20506911D01*
X101499500Y20455400D01*
X101499500Y703400D01*
X101479815Y636361D01*
X101427011Y590606D01*
X101375500Y579400D01*
X667900Y579400D01*
X600861Y599085D01*
X555106Y651889D01*
X543900Y703400D01*
X543900Y4348583D01*
X14518400Y4348583D01*
X14518400Y4210218D01*
X14554212Y4076565D01*
X14554213Y4076562D01*
X14623392Y3956739D01*
X14623394Y3956736D01*
X14623395Y3956735D01*
X14721235Y3858895D01*
X14841064Y3789712D01*
X14974717Y3753900D01*
X14974719Y3753900D01*
X15113081Y3753900D01*
X15113083Y3753900D01*
X15246736Y3789712D01*
X15366565Y3858895D01*
X15425251Y3917581D01*
X15486574Y3951066D01*
X15512932Y3953900D01*
X17651151Y3953900D01*
X17651153Y3953900D01*
X17733939Y3976082D01*
X17808162Y4018935D01*
X27277255Y13488029D01*
X27338576Y13521512D01*
X27408268Y13516528D01*
X27464201Y13474656D01*
X27488618Y13409192D01*
X27473766Y13340919D01*
X27472321Y13338346D01*
X27425619Y13257457D01*
X27425614Y13257446D01*
X27335294Y13039394D01*
X27274206Y12811411D01*
X27243401Y12577421D01*
X27243400Y12577405D01*
X27243400Y12341396D01*
X27243401Y12341380D01*
X27274206Y12107390D01*
X27335294Y11879407D01*
X27425614Y11661355D01*
X27425619Y11661344D01*
X27489332Y11550992D01*
X27543627Y11456950D01*
X27543629Y11456947D01*
X27543630Y11456946D01*
X27687306Y11269703D01*
X27687312Y11269696D01*
X27854195Y11102813D01*
X27854201Y11102808D01*
X28041450Y10959127D01*
X28172818Y10883282D01*
X28245843Y10841120D01*
X28245848Y10841118D01*
X28245851Y10841116D01*
X28463907Y10750794D01*
X28691886Y10689707D01*
X28925889Y10658900D01*
X28925896Y10658900D01*
X29161904Y10658900D01*
X29161911Y10658900D01*
X29395914Y10689707D01*
X29623893Y10750794D01*
X29841949Y10841116D01*
X30046350Y10959127D01*
X30233599Y11102808D01*
X30400492Y11269701D01*
X30544173Y11456950D01*
X30662184Y11661351D01*
X30752506Y11879407D01*
X30813593Y12107386D01*
X30844400Y12341389D01*
X30844400Y12577411D01*
X30813593Y12811414D01*
X30752506Y13039393D01*
X30662184Y13257449D01*
X30662182Y13257452D01*
X30662180Y13257457D01*
X30615478Y13338346D01*
X30544173Y13461850D01*
X30400492Y13649099D01*
X30400487Y13649105D01*
X30233604Y13815988D01*
X30233597Y13815994D01*
X30046354Y13959670D01*
X30046353Y13959671D01*
X30046350Y13959673D01*
X29964857Y14006723D01*
X29841956Y14077681D01*
X29841945Y14077686D01*
X29623893Y14168006D01*
X29395910Y14229094D01*
X29161920Y14259899D01*
X29161917Y14259900D01*
X29161911Y14259900D01*
X28925889Y14259900D01*
X28925883Y14259900D01*
X28925879Y14259899D01*
X28691889Y14229094D01*
X28463906Y14168006D01*
X28245854Y14077686D01*
X28245843Y14077681D01*
X28164954Y14030979D01*
X28097054Y14014506D01*
X28031027Y14037359D01*
X27987836Y14092280D01*
X27981195Y14161833D01*
X28013211Y14223936D01*
X28015230Y14226004D01*
X28278008Y14488781D01*
X28339331Y14522266D01*
X28365689Y14525100D01*
X30608251Y14525100D01*
X30608253Y14525100D01*
X30691039Y14547282D01*
X30765262Y14590135D01*
X55753552Y39578428D01*
X55753557Y39578431D01*
X55763760Y39588635D01*
X55763762Y39588635D01*
X55824365Y39649238D01*
X55865835Y39721066D01*
X55865847Y39721086D01*
X55867216Y39723458D01*
X55867215Y39723458D01*
X55867218Y39723461D01*
X55889401Y39806247D01*
X55889401Y39891953D01*
X55889401Y39899548D01*
X55889400Y39899566D01*
X55889400Y40668905D01*
X55909085Y40735944D01*
X55961889Y40781699D01*
X56031047Y40791643D01*
X56094603Y40762618D01*
X56101081Y40756586D01*
X56164242Y40693425D01*
X56164245Y40693423D01*
X56336302Y40578459D01*
X56355382Y40570556D01*
X56431852Y40538881D01*
X56486256Y40495041D01*
X56508321Y40428747D01*
X56508400Y40424320D01*
X56508400Y35741590D01*
X56488715Y35674551D01*
X56472081Y35653909D01*
X39734722Y18916551D01*
X39673399Y18883066D01*
X39603707Y18888050D01*
X39547774Y18929922D01*
X39523357Y18995386D01*
X39524568Y19023632D01*
X39534400Y19085704D01*
X39534400Y19273100D01*
X39518410Y19374048D01*
X39505086Y19458176D01*
X39447179Y19636393D01*
X39362107Y19803358D01*
X39362104Y19803362D01*
X39362104Y19803363D01*
X39294275Y19896720D01*
X39251962Y19954959D01*
X39119459Y20087462D01*
X39062402Y20128916D01*
X38967862Y20197605D01*
X38967859Y20197606D01*
X38967860Y20197606D01*
X38967858Y20197607D01*
X38800893Y20282679D01*
X38622676Y20340586D01*
X38622670Y20340587D01*
X38437599Y20369900D01*
X38437594Y20369900D01*
X38250206Y20369900D01*
X38250201Y20369900D01*
X38065129Y20340587D01*
X38065127Y20340587D01*
X38065124Y20340586D01*
X37886907Y20282679D01*
X37886904Y20282678D01*
X37886902Y20282677D01*
X37719940Y20197606D01*
X37719937Y20197605D01*
X37606377Y20115098D01*
X37568341Y20087462D01*
X37568339Y20087460D01*
X37568338Y20087460D01*
X37435840Y19954962D01*
X37435840Y19954961D01*
X37435838Y19954959D01*
X37430615Y19947770D01*
X37325695Y19803363D01*
X37325694Y19803360D01*
X37240623Y19636398D01*
X37240622Y19636396D01*
X37240621Y19636393D01*
X37182714Y19458176D01*
X37182713Y19458173D01*
X37182713Y19458171D01*
X37153400Y19273100D01*
X37153400Y19085701D01*
X37182713Y18900630D01*
X37182714Y18900624D01*
X37240621Y18722407D01*
X37325049Y18556705D01*
X37325694Y18555441D01*
X37325695Y18555438D01*
X37356268Y18513359D01*
X37435838Y18403841D01*
X37568341Y18271338D01*
X37629170Y18227143D01*
X37719937Y18161196D01*
X37719938Y18161196D01*
X37719942Y18161193D01*
X37886907Y18076121D01*
X38065124Y18018214D01*
X38157665Y18003557D01*
X38250201Y17988900D01*
X38250206Y17988900D01*
X38437597Y17988900D01*
X38468449Y17993787D01*
X38499669Y17998732D01*
X38568962Y17989778D01*
X38622415Y17944783D01*
X38643055Y17878031D01*
X38624331Y17810717D01*
X38606749Y17788578D01*
X30798337Y9980165D01*
X30798333Y9980159D01*
X30755481Y9905939D01*
X30755482Y9905938D01*
X30733300Y9823153D01*
X30733300Y6342364D01*
X30713615Y6275325D01*
X30703251Y6262465D01*
X30703258Y6262459D01*
X30698311Y6256013D01*
X30639001Y6153286D01*
X30608300Y6038709D01*
X30608300Y5920091D01*
X30639001Y5805514D01*
X30698311Y5702787D01*
X30782187Y5618911D01*
X30884914Y5559601D01*
X30999491Y5528900D01*
X30999494Y5528900D01*
X31118106Y5528900D01*
X31118109Y5528900D01*
X31232686Y5559601D01*
X31335413Y5618911D01*
X31419289Y5702787D01*
X31478599Y5805514D01*
X31509300Y5920091D01*
X31509300Y6038709D01*
X67998800Y6038709D01*
X67998800Y5920091D01*
X68029501Y5805514D01*
X68088811Y5702787D01*
X68172687Y5618911D01*
X68275414Y5559601D01*
X68389991Y5528900D01*
X68389994Y5528900D01*
X68508606Y5528900D01*
X68508609Y5528900D01*
X68623186Y5559601D01*
X68725913Y5618911D01*
X68809789Y5702787D01*
X68869099Y5805514D01*
X68899800Y5920091D01*
X68899800Y5920095D01*
X68900861Y5928151D01*
X68902649Y5927916D01*
X68919485Y5985250D01*
X68936119Y6005892D01*
X73771347Y10841120D01*
X78804365Y15874138D01*
X78847218Y15948361D01*
X78869400Y16031147D01*
X78869400Y16116853D01*
X78869400Y17704900D01*
X78889085Y17771939D01*
X78941889Y17817694D01*
X79011047Y17827638D01*
X79062289Y17808003D01*
X79196302Y17718459D01*
X79387480Y17639270D01*
X79580059Y17600964D01*
X79590430Y17598901D01*
X79590434Y17598900D01*
X79590435Y17598900D01*
X79797366Y17598900D01*
X79797367Y17598901D01*
X80000320Y17639270D01*
X80191498Y17718459D01*
X80363555Y17833423D01*
X80509877Y17979745D01*
X80624841Y18151802D01*
X80704030Y18342980D01*
X80744400Y18545935D01*
X80744400Y18752865D01*
X80704030Y18955820D01*
X80624841Y19146998D01*
X80509877Y19319055D01*
X80509875Y19319058D01*
X80363557Y19465376D01*
X80251297Y19540385D01*
X80191498Y19580341D01*
X80158761Y19593901D01*
X80000320Y19659530D01*
X80000312Y19659532D01*
X79797369Y19699900D01*
X79797365Y19699900D01*
X79590435Y19699900D01*
X79590430Y19699900D01*
X79387487Y19659532D01*
X79387479Y19659530D01*
X79196303Y19580342D01*
X79062290Y19490798D01*
X78995612Y19469921D01*
X78928232Y19488406D01*
X78881543Y19540385D01*
X78869400Y19593901D01*
X78869400Y23416436D01*
X78889085Y23483475D01*
X78899448Y23496336D01*
X78899442Y23496341D01*
X78904381Y23502780D01*
X78904389Y23502787D01*
X78963699Y23605514D01*
X78994400Y23720091D01*
X78994400Y23838709D01*
X78963699Y23953286D01*
X78904389Y24056013D01*
X78904384Y24056018D01*
X78899442Y24062459D01*
X78900873Y24063558D01*
X78872234Y24116006D01*
X78869400Y24142364D01*
X78869400Y35525940D01*
X78889085Y35592979D01*
X78941889Y35638734D01*
X79011047Y35648678D01*
X79025491Y35645715D01*
X79045974Y35640227D01*
X79101564Y35608133D01*
X83017081Y31692616D01*
X83050566Y31631293D01*
X83053400Y31604935D01*
X83053400Y19597242D01*
X83033715Y19530203D01*
X82980911Y19484448D01*
X82911753Y19474504D01*
X82860510Y19494139D01*
X82784496Y19544929D01*
X82731498Y19580341D01*
X82698761Y19593901D01*
X82540320Y19659530D01*
X82540312Y19659532D01*
X82337369Y19699900D01*
X82337365Y19699900D01*
X82130435Y19699900D01*
X82130430Y19699900D01*
X81927487Y19659532D01*
X81927479Y19659530D01*
X81736303Y19580342D01*
X81564242Y19465376D01*
X81417924Y19319058D01*
X81302958Y19146997D01*
X81223770Y18955821D01*
X81223768Y18955813D01*
X81183400Y18752870D01*
X81183400Y18545931D01*
X81223768Y18342988D01*
X81223770Y18342980D01*
X81302958Y18151804D01*
X81417924Y17979743D01*
X81564242Y17833425D01*
X81564245Y17833423D01*
X81736302Y17718459D01*
X81927480Y17639270D01*
X82120059Y17600964D01*
X82130430Y17598901D01*
X82130434Y17598900D01*
X82130435Y17598900D01*
X82337366Y17598900D01*
X82337367Y17598901D01*
X82540320Y17639270D01*
X82731498Y17718459D01*
X82860509Y17804662D01*
X82927187Y17825539D01*
X82994567Y17807054D01*
X83041257Y17755075D01*
X83053400Y17701559D01*
X83053400Y10300092D01*
X83077612Y10209728D01*
X83084100Y10185515D01*
X83084100Y10185514D01*
X83084101Y10185513D01*
X83143411Y10082786D01*
X83143413Y10082784D01*
X84184616Y9041581D01*
X84218101Y8980258D01*
X84213117Y8910566D01*
X84171245Y8854633D01*
X84105781Y8830216D01*
X84096935Y8829900D01*
X82674147Y8829900D01*
X82615670Y8818269D01*
X82615669Y8818268D01*
X82549347Y8773953D01*
X82505032Y8707631D01*
X82505031Y8707630D01*
X82493400Y8649153D01*
X82493400Y6909648D01*
X82505031Y6851171D01*
X82505032Y6851170D01*
X82549347Y6784848D01*
X82615669Y6740533D01*
X82615670Y6740532D01*
X82674147Y6728901D01*
X82674150Y6728900D01*
X82674152Y6728900D01*
X84413650Y6728900D01*
X84413651Y6728901D01*
X84428468Y6731848D01*
X84472129Y6740532D01*
X84472129Y6740533D01*
X84472131Y6740533D01*
X84538452Y6784848D01*
X84582767Y6851169D01*
X84582767Y6851171D01*
X84582768Y6851171D01*
X84594399Y6909648D01*
X84594400Y6909650D01*
X84594400Y8332435D01*
X84614085Y8399474D01*
X84666889Y8445229D01*
X84736047Y8455173D01*
X84799603Y8426148D01*
X84806081Y8420116D01*
X85037954Y8188243D01*
X85071439Y8126920D01*
X85071890Y8076371D01*
X85033400Y7882870D01*
X85033400Y7675931D01*
X85073768Y7472988D01*
X85073770Y7472980D01*
X85152958Y7281804D01*
X85267924Y7109743D01*
X85414242Y6963425D01*
X85414245Y6963423D01*
X85586302Y6848459D01*
X85777480Y6769270D01*
X85921952Y6740533D01*
X85980430Y6728901D01*
X85980434Y6728900D01*
X85980435Y6728900D01*
X86187366Y6728900D01*
X86187367Y6728901D01*
X86390320Y6769270D01*
X86581498Y6848459D01*
X86753555Y6963423D01*
X86899877Y7109745D01*
X87014841Y7281802D01*
X87094030Y7472980D01*
X87134400Y7675935D01*
X87134400Y7882865D01*
X87094030Y8085820D01*
X87014841Y8276998D01*
X86899877Y8449055D01*
X86899875Y8449058D01*
X86753557Y8595376D01*
X86645912Y8667301D01*
X86581498Y8710341D01*
X86542221Y8726610D01*
X86390320Y8789530D01*
X86390312Y8789532D01*
X86187369Y8829900D01*
X86187365Y8829900D01*
X85980435Y8829900D01*
X85980430Y8829900D01*
X85786929Y8791410D01*
X85717337Y8797637D01*
X85675057Y8825346D01*
X83990719Y10509684D01*
X83957234Y10571007D01*
X83954400Y10597365D01*
X83954400Y14640912D01*
X96850000Y14640912D01*
X96850000Y14359089D01*
X96850001Y14359072D01*
X96886786Y14079660D01*
X96959733Y13807418D01*
X97067584Y13547043D01*
X97067589Y13547032D01*
X97208500Y13302969D01*
X97208511Y13302953D01*
X97374498Y13086633D01*
X97374499Y13086633D01*
X98123219Y13835353D01*
X98160967Y13783398D01*
X98283398Y13660967D01*
X98335351Y13623221D01*
X97586631Y12874501D01*
X97586631Y12874500D01*
X97802952Y12708512D01*
X97802968Y12708501D01*
X98047031Y12567590D01*
X98047042Y12567585D01*
X98307417Y12459734D01*
X98579659Y12386787D01*
X98859071Y12350002D01*
X98859089Y12350000D01*
X99140911Y12350000D01*
X99140928Y12350002D01*
X99420340Y12386787D01*
X99692582Y12459734D01*
X99952957Y12567585D01*
X99952968Y12567590D01*
X100197031Y12708501D01*
X100197047Y12708512D01*
X100413367Y12874500D01*
X100413367Y12874501D01*
X99664647Y13623221D01*
X99716602Y13660967D01*
X99839033Y13783398D01*
X99876779Y13835353D01*
X100625499Y13086633D01*
X100625500Y13086633D01*
X100791488Y13302953D01*
X100791499Y13302969D01*
X100932410Y13547032D01*
X100932415Y13547043D01*
X101040266Y13807418D01*
X101113213Y14079660D01*
X101149998Y14359072D01*
X101150000Y14359089D01*
X101150000Y14640912D01*
X101149998Y14640929D01*
X101113213Y14920341D01*
X101040266Y15192583D01*
X100932415Y15452958D01*
X100932410Y15452969D01*
X100791499Y15697032D01*
X100791488Y15697048D01*
X100625500Y15913369D01*
X100625499Y15913369D01*
X99876779Y15164649D01*
X99839033Y15216602D01*
X99716602Y15339033D01*
X99664647Y15376780D01*
X100413367Y16125501D01*
X100413367Y16125502D01*
X100197047Y16291489D01*
X100197031Y16291500D01*
X99952968Y16432411D01*
X99952957Y16432416D01*
X99692582Y16540267D01*
X99420340Y16613214D01*
X99140928Y16649999D01*
X99140911Y16650000D01*
X98859089Y16650000D01*
X98859071Y16649999D01*
X98579659Y16613214D01*
X98307417Y16540267D01*
X98047042Y16432416D01*
X98047038Y16432414D01*
X97802953Y16291490D01*
X97586631Y16125502D01*
X97586631Y16125501D01*
X98335352Y15376780D01*
X98283398Y15339033D01*
X98160967Y15216602D01*
X98123220Y15164648D01*
X97374499Y15913369D01*
X97374498Y15913369D01*
X97208510Y15697047D01*
X97067586Y15452962D01*
X97067584Y15452958D01*
X96959733Y15192583D01*
X96886786Y14920341D01*
X96850001Y14640929D01*
X96850000Y14640912D01*
X83954400Y14640912D01*
X83954400Y17701559D01*
X83974085Y17768598D01*
X84026889Y17814353D01*
X84096047Y17824297D01*
X84147290Y17804662D01*
X84276302Y17718459D01*
X84467480Y17639270D01*
X84660059Y17600964D01*
X84670430Y17598901D01*
X84670434Y17598900D01*
X84670435Y17598900D01*
X84877366Y17598900D01*
X84877367Y17598901D01*
X85080320Y17639270D01*
X85271498Y17718459D01*
X85443555Y17833423D01*
X85589877Y17979745D01*
X85704841Y18151802D01*
X85784030Y18342980D01*
X85824400Y18545935D01*
X85824400Y18752865D01*
X85824399Y18752870D01*
X86263400Y18752870D01*
X86263400Y18545931D01*
X86303768Y18342988D01*
X86303770Y18342980D01*
X86382958Y18151804D01*
X86497924Y17979743D01*
X86644242Y17833425D01*
X86644245Y17833423D01*
X86816302Y17718459D01*
X87007480Y17639270D01*
X87200059Y17600964D01*
X87210430Y17598901D01*
X87210434Y17598900D01*
X87210435Y17598900D01*
X87417366Y17598900D01*
X87417367Y17598901D01*
X87620320Y17639270D01*
X87811498Y17718459D01*
X87983555Y17833423D01*
X88129877Y17979745D01*
X88244841Y18151802D01*
X88324030Y18342980D01*
X88364400Y18545935D01*
X88364400Y18752865D01*
X88364399Y18752870D01*
X88803400Y18752870D01*
X88803400Y18545931D01*
X88843768Y18342988D01*
X88843770Y18342980D01*
X88922958Y18151804D01*
X89037924Y17979743D01*
X89184242Y17833425D01*
X89184245Y17833423D01*
X89356302Y17718459D01*
X89547480Y17639270D01*
X89740059Y17600964D01*
X89750430Y17598901D01*
X89750434Y17598900D01*
X89750435Y17598900D01*
X89957366Y17598900D01*
X89957367Y17598901D01*
X90160320Y17639270D01*
X90351498Y17718459D01*
X90523555Y17833423D01*
X90669877Y17979745D01*
X90784841Y18151802D01*
X90864030Y18342980D01*
X90904400Y18545935D01*
X90904400Y18752865D01*
X90904399Y18752870D01*
X91343400Y18752870D01*
X91343400Y18545931D01*
X91383768Y18342988D01*
X91383770Y18342980D01*
X91462958Y18151804D01*
X91577924Y17979743D01*
X91724242Y17833425D01*
X91724245Y17833423D01*
X91896302Y17718459D01*
X92087480Y17639270D01*
X92280059Y17600964D01*
X92290430Y17598901D01*
X92290434Y17598900D01*
X92290435Y17598900D01*
X92497366Y17598900D01*
X92497367Y17598901D01*
X92700320Y17639270D01*
X92891498Y17718459D01*
X93063555Y17833423D01*
X93209877Y17979745D01*
X93324841Y18151802D01*
X93404030Y18342980D01*
X93444400Y18545935D01*
X93444400Y18752865D01*
X93404030Y18955820D01*
X93324841Y19146998D01*
X93209877Y19319055D01*
X93209875Y19319058D01*
X93063557Y19465376D01*
X92975776Y19524029D01*
X93833900Y19524029D01*
X93833900Y18799400D01*
X94456455Y18799400D01*
X94433900Y18715226D01*
X94433900Y18583574D01*
X94456455Y18499400D01*
X93833900Y18499400D01*
X93833900Y17774772D01*
X93848403Y17701860D01*
X93848405Y17701856D01*
X93903660Y17619161D01*
X93986355Y17563906D01*
X93986359Y17563904D01*
X94059271Y17549401D01*
X94059274Y17549400D01*
X94783900Y17549400D01*
X94783900Y18171955D01*
X94868074Y18149400D01*
X94999726Y18149400D01*
X95083900Y18171955D01*
X95083900Y17549400D01*
X95808526Y17549400D01*
X95808528Y17549401D01*
X95881440Y17563904D01*
X95881444Y17563906D01*
X95964139Y17619161D01*
X96019394Y17701856D01*
X96019396Y17701860D01*
X96033899Y17774772D01*
X96033900Y17774774D01*
X96033900Y18499400D01*
X95411345Y18499400D01*
X95433900Y18583574D01*
X95433900Y18715226D01*
X95411345Y18799400D01*
X96033900Y18799400D01*
X96033900Y19524027D01*
X96033899Y19524029D01*
X96019396Y19596941D01*
X96019394Y19596945D01*
X95964139Y19679640D01*
X95881444Y19734895D01*
X95881440Y19734897D01*
X95808527Y19749400D01*
X95083900Y19749400D01*
X95083900Y19126846D01*
X94999726Y19149400D01*
X94868074Y19149400D01*
X94783900Y19126846D01*
X94783900Y19749400D01*
X94059273Y19749400D01*
X93986359Y19734897D01*
X93986355Y19734895D01*
X93903660Y19679640D01*
X93848405Y19596945D01*
X93848403Y19596941D01*
X93833900Y19524029D01*
X92975776Y19524029D01*
X92951297Y19540385D01*
X92891498Y19580341D01*
X92858761Y19593901D01*
X92700320Y19659530D01*
X92700312Y19659532D01*
X92497369Y19699900D01*
X92497365Y19699900D01*
X92290435Y19699900D01*
X92290430Y19699900D01*
X92087487Y19659532D01*
X92087479Y19659530D01*
X91896303Y19580342D01*
X91724242Y19465376D01*
X91577924Y19319058D01*
X91462958Y19146997D01*
X91383770Y18955821D01*
X91383768Y18955813D01*
X91343400Y18752870D01*
X90904399Y18752870D01*
X90864030Y18955820D01*
X90784841Y19146998D01*
X90669877Y19319055D01*
X90669875Y19319058D01*
X90523557Y19465376D01*
X90411297Y19540385D01*
X90351498Y19580341D01*
X90318761Y19593901D01*
X90160320Y19659530D01*
X90160312Y19659532D01*
X89957369Y19699900D01*
X89957365Y19699900D01*
X89750435Y19699900D01*
X89750430Y19699900D01*
X89547487Y19659532D01*
X89547479Y19659530D01*
X89356303Y19580342D01*
X89184242Y19465376D01*
X89037924Y19319058D01*
X88922958Y19146997D01*
X88843770Y18955821D01*
X88843768Y18955813D01*
X88803400Y18752870D01*
X88364399Y18752870D01*
X88324030Y18955820D01*
X88244841Y19146998D01*
X88129877Y19319055D01*
X88129875Y19319058D01*
X87983557Y19465376D01*
X87871297Y19540385D01*
X87811498Y19580341D01*
X87778761Y19593901D01*
X87620320Y19659530D01*
X87620312Y19659532D01*
X87417369Y19699900D01*
X87417365Y19699900D01*
X87210435Y19699900D01*
X87210430Y19699900D01*
X87007487Y19659532D01*
X87007479Y19659530D01*
X86816303Y19580342D01*
X86644242Y19465376D01*
X86497924Y19319058D01*
X86382958Y19146997D01*
X86303770Y18955821D01*
X86303768Y18955813D01*
X86263400Y18752870D01*
X85824399Y18752870D01*
X85784030Y18955820D01*
X85704841Y19146998D01*
X85589877Y19319055D01*
X85589875Y19319058D01*
X85443557Y19465376D01*
X85331297Y19540385D01*
X85271498Y19580341D01*
X85238761Y19593901D01*
X85080320Y19659530D01*
X85080312Y19659532D01*
X84877369Y19699900D01*
X84877365Y19699900D01*
X84670435Y19699900D01*
X84670430Y19699900D01*
X84467487Y19659532D01*
X84467479Y19659530D01*
X84276303Y19580342D01*
X84147290Y19494139D01*
X84080612Y19473262D01*
X84013232Y19491747D01*
X83966543Y19543726D01*
X83954400Y19597242D01*
X83954400Y31902207D01*
X83954400Y31902209D01*
X83923699Y32016786D01*
X83923699Y32016787D01*
X83923699Y32016788D01*
X83864392Y32119511D01*
X83864388Y32119516D01*
X79738667Y36245236D01*
X79706574Y36300823D01*
X79694888Y36344436D01*
X79625705Y36464265D01*
X79527865Y36562105D01*
X79527864Y36562106D01*
X79527861Y36562108D01*
X79408038Y36631287D01*
X79408037Y36631288D01*
X79408036Y36631288D01*
X79274383Y36667100D01*
X79136017Y36667100D01*
X79136015Y36667100D01*
X79025492Y36637486D01*
X78955643Y36639149D01*
X78897780Y36678312D01*
X78870277Y36742541D01*
X78869400Y36757261D01*
X78869400Y40173212D01*
X78889085Y40240251D01*
X78905719Y40260893D01*
X79031045Y40386219D01*
X79156796Y40511971D01*
X79218117Y40545454D01*
X79287808Y40540470D01*
X79291928Y40538849D01*
X79296117Y40537114D01*
X79387480Y40499270D01*
X79531952Y40470533D01*
X79590430Y40458901D01*
X79590434Y40458900D01*
X79590435Y40458900D01*
X79797366Y40458900D01*
X79797367Y40458901D01*
X80000320Y40499270D01*
X80191498Y40578459D01*
X80363555Y40693423D01*
X80509877Y40839745D01*
X80624841Y41011802D01*
X80704030Y41202980D01*
X80744400Y41405935D01*
X80744400Y41612865D01*
X80744399Y41612870D01*
X81183400Y41612870D01*
X81183400Y41405931D01*
X81223768Y41202988D01*
X81223770Y41202980D01*
X81302958Y41011804D01*
X81417924Y40839743D01*
X81564242Y40693425D01*
X81564245Y40693423D01*
X81736302Y40578459D01*
X81927480Y40499270D01*
X82071952Y40470533D01*
X82130430Y40458901D01*
X82130434Y40458900D01*
X82130435Y40458900D01*
X82337366Y40458900D01*
X82337367Y40458901D01*
X82540320Y40499270D01*
X82731498Y40578459D01*
X82903555Y40693423D01*
X83049877Y40839745D01*
X83164841Y41011802D01*
X83244030Y41202980D01*
X83284400Y41405935D01*
X83284400Y41612865D01*
X83284399Y41612870D01*
X83723400Y41612870D01*
X83723400Y41405931D01*
X83763768Y41202988D01*
X83763770Y41202980D01*
X83842958Y41011804D01*
X83957924Y40839743D01*
X84104242Y40693425D01*
X84104245Y40693423D01*
X84276302Y40578459D01*
X84467480Y40499270D01*
X84611952Y40470533D01*
X84670430Y40458901D01*
X84670434Y40458900D01*
X84670435Y40458900D01*
X84877366Y40458900D01*
X84877367Y40458901D01*
X85080320Y40499270D01*
X85271498Y40578459D01*
X85443555Y40693423D01*
X85589877Y40839745D01*
X85704841Y41011802D01*
X85784030Y41202980D01*
X85824400Y41405935D01*
X85824400Y41612865D01*
X85824399Y41612870D01*
X86263400Y41612870D01*
X86263400Y41405931D01*
X86303768Y41202988D01*
X86303770Y41202980D01*
X86382958Y41011804D01*
X86497924Y40839743D01*
X86644242Y40693425D01*
X86644245Y40693423D01*
X86816302Y40578459D01*
X87007480Y40499270D01*
X87151952Y40470533D01*
X87210430Y40458901D01*
X87210434Y40458900D01*
X87210435Y40458900D01*
X87417366Y40458900D01*
X87417367Y40458901D01*
X87620320Y40499270D01*
X87811498Y40578459D01*
X87983555Y40693423D01*
X88129877Y40839745D01*
X88244841Y41011802D01*
X88324030Y41202980D01*
X88364400Y41405935D01*
X88364400Y41612865D01*
X88364399Y41612870D01*
X88803400Y41612870D01*
X88803400Y41405931D01*
X88843768Y41202988D01*
X88843770Y41202980D01*
X88922958Y41011804D01*
X89037924Y40839743D01*
X89184242Y40693425D01*
X89184245Y40693423D01*
X89356302Y40578459D01*
X89547480Y40499270D01*
X89691952Y40470533D01*
X89750430Y40458901D01*
X89750434Y40458900D01*
X89750435Y40458900D01*
X89957366Y40458900D01*
X89957367Y40458901D01*
X90160320Y40499270D01*
X90351498Y40578459D01*
X90523555Y40693423D01*
X90669877Y40839745D01*
X90784841Y41011802D01*
X90864030Y41202980D01*
X90904400Y41405935D01*
X90904400Y41612865D01*
X90904399Y41612870D01*
X91343400Y41612870D01*
X91343400Y41405931D01*
X91383768Y41202988D01*
X91383770Y41202980D01*
X91462958Y41011804D01*
X91577924Y40839743D01*
X91724242Y40693425D01*
X91724245Y40693423D01*
X91896302Y40578459D01*
X92087480Y40499270D01*
X92231952Y40470533D01*
X92290430Y40458901D01*
X92290434Y40458900D01*
X92290435Y40458900D01*
X92497366Y40458900D01*
X92497367Y40458901D01*
X92700320Y40499270D01*
X92891498Y40578459D01*
X93063555Y40693423D01*
X93209877Y40839745D01*
X93324841Y41011802D01*
X93404030Y41202980D01*
X93444400Y41405935D01*
X93444400Y41612865D01*
X93404030Y41815820D01*
X93324841Y42006998D01*
X93209877Y42179055D01*
X93209875Y42179058D01*
X93063557Y42325376D01*
X92983073Y42379153D01*
X93883400Y42379153D01*
X93883400Y40639648D01*
X93895031Y40581171D01*
X93895032Y40581170D01*
X93939347Y40514848D01*
X94005669Y40470533D01*
X94005670Y40470532D01*
X94064147Y40458901D01*
X94064150Y40458900D01*
X94064152Y40458900D01*
X95803650Y40458900D01*
X95803651Y40458901D01*
X95818468Y40461848D01*
X95862129Y40470532D01*
X95862129Y40470533D01*
X95862131Y40470533D01*
X95928452Y40514848D01*
X95972767Y40581169D01*
X95972767Y40581171D01*
X95972768Y40581171D01*
X95984399Y40639648D01*
X95984400Y40639650D01*
X95984400Y42379151D01*
X95984399Y42379153D01*
X95972768Y42437630D01*
X95972767Y42437631D01*
X95928452Y42503953D01*
X95862130Y42548268D01*
X95862129Y42548269D01*
X95803652Y42559900D01*
X95803648Y42559900D01*
X94064152Y42559900D01*
X94064147Y42559900D01*
X94005670Y42548269D01*
X94005669Y42548268D01*
X93939347Y42503953D01*
X93895032Y42437631D01*
X93895031Y42437630D01*
X93883400Y42379153D01*
X92983073Y42379153D01*
X92895555Y42437630D01*
X92891498Y42440341D01*
X92872416Y42448245D01*
X92700320Y42519530D01*
X92700312Y42519532D01*
X92497369Y42559900D01*
X92497365Y42559900D01*
X92290435Y42559900D01*
X92290430Y42559900D01*
X92087487Y42519532D01*
X92087479Y42519530D01*
X91896303Y42440342D01*
X91724242Y42325376D01*
X91577924Y42179058D01*
X91462958Y42006997D01*
X91383770Y41815821D01*
X91383768Y41815813D01*
X91343400Y41612870D01*
X90904399Y41612870D01*
X90864030Y41815820D01*
X90784841Y42006998D01*
X90669877Y42179055D01*
X90669875Y42179058D01*
X90523557Y42325376D01*
X90355555Y42437630D01*
X90351498Y42440341D01*
X90332416Y42448245D01*
X90160320Y42519530D01*
X90160312Y42519532D01*
X89957369Y42559900D01*
X89957365Y42559900D01*
X89750435Y42559900D01*
X89750430Y42559900D01*
X89547487Y42519532D01*
X89547479Y42519530D01*
X89356303Y42440342D01*
X89184242Y42325376D01*
X89037924Y42179058D01*
X88922958Y42006997D01*
X88843770Y41815821D01*
X88843768Y41815813D01*
X88803400Y41612870D01*
X88364399Y41612870D01*
X88324030Y41815820D01*
X88244841Y42006998D01*
X88129877Y42179055D01*
X88129875Y42179058D01*
X87983557Y42325376D01*
X87815555Y42437630D01*
X87811498Y42440341D01*
X87792416Y42448245D01*
X87620320Y42519530D01*
X87620312Y42519532D01*
X87417369Y42559900D01*
X87417365Y42559900D01*
X87210435Y42559900D01*
X87210430Y42559900D01*
X87007487Y42519532D01*
X87007479Y42519530D01*
X86816303Y42440342D01*
X86644242Y42325376D01*
X86497924Y42179058D01*
X86382958Y42006997D01*
X86303770Y41815821D01*
X86303768Y41815813D01*
X86263400Y41612870D01*
X85824399Y41612870D01*
X85784030Y41815820D01*
X85704841Y42006998D01*
X85589877Y42179055D01*
X85589875Y42179058D01*
X85443557Y42325376D01*
X85275555Y42437630D01*
X85271498Y42440341D01*
X85252416Y42448245D01*
X85080320Y42519530D01*
X85080312Y42519532D01*
X84877369Y42559900D01*
X84877365Y42559900D01*
X84670435Y42559900D01*
X84670430Y42559900D01*
X84467487Y42519532D01*
X84467479Y42519530D01*
X84276303Y42440342D01*
X84104242Y42325376D01*
X83957924Y42179058D01*
X83842958Y42006997D01*
X83763770Y41815821D01*
X83763768Y41815813D01*
X83723400Y41612870D01*
X83284399Y41612870D01*
X83244030Y41815820D01*
X83164841Y42006998D01*
X83049877Y42179055D01*
X83049875Y42179058D01*
X82903557Y42325376D01*
X82735555Y42437630D01*
X82731498Y42440341D01*
X82712416Y42448245D01*
X82540320Y42519530D01*
X82540312Y42519532D01*
X82337369Y42559900D01*
X82337365Y42559900D01*
X82130435Y42559900D01*
X82130430Y42559900D01*
X81927487Y42519532D01*
X81927479Y42519530D01*
X81736303Y42440342D01*
X81564242Y42325376D01*
X81417924Y42179058D01*
X81302958Y42006997D01*
X81223770Y41815821D01*
X81223768Y41815813D01*
X81183400Y41612870D01*
X80744399Y41612870D01*
X80704030Y41815820D01*
X80624841Y42006998D01*
X80509877Y42179055D01*
X80509875Y42179058D01*
X80363557Y42325376D01*
X80195555Y42437630D01*
X80191498Y42440341D01*
X80172416Y42448245D01*
X80000320Y42519530D01*
X80000312Y42519532D01*
X79797369Y42559900D01*
X79797365Y42559900D01*
X79590435Y42559900D01*
X79590430Y42559900D01*
X79387487Y42519532D01*
X79387479Y42519530D01*
X79196303Y42440342D01*
X79024242Y42325376D01*
X78877924Y42179058D01*
X78762958Y42006997D01*
X78683770Y41815821D01*
X78683768Y41815813D01*
X78643400Y41612870D01*
X78643400Y41405931D01*
X78683768Y41202988D01*
X78683770Y41202980D01*
X78723348Y41107431D01*
X78730817Y41037962D01*
X78699542Y40975482D01*
X78696468Y40972297D01*
X78283437Y40559265D01*
X78283433Y40559259D01*
X78240581Y40485039D01*
X78240582Y40485038D01*
X78218400Y40402253D01*
X78218400Y24142364D01*
X78198715Y24075325D01*
X78188351Y24062465D01*
X78188358Y24062459D01*
X78183411Y24056013D01*
X78124101Y23953286D01*
X78093400Y23838709D01*
X78093400Y23720091D01*
X78124101Y23605514D01*
X78183411Y23502787D01*
X78183414Y23502784D01*
X78188358Y23496341D01*
X78186926Y23495243D01*
X78215566Y23442794D01*
X78218400Y23416436D01*
X78218400Y19355888D01*
X78198715Y19288849D01*
X78145911Y19243094D01*
X78076753Y19233150D01*
X78013197Y19262175D01*
X77991298Y19286997D01*
X77969877Y19319055D01*
X77969874Y19319059D01*
X77823557Y19465376D01*
X77711297Y19540385D01*
X77651498Y19580341D01*
X77618761Y19593901D01*
X77460320Y19659530D01*
X77460312Y19659532D01*
X77257369Y19699900D01*
X77257365Y19699900D01*
X77050435Y19699900D01*
X77050430Y19699900D01*
X76847487Y19659532D01*
X76847479Y19659530D01*
X76656303Y19580342D01*
X76484242Y19465376D01*
X76337924Y19319058D01*
X76222958Y19146997D01*
X76143770Y18955821D01*
X76143768Y18955813D01*
X76103400Y18752870D01*
X76103400Y18545931D01*
X76143768Y18342988D01*
X76143770Y18342980D01*
X76222958Y18151804D01*
X76337924Y17979743D01*
X76484242Y17833425D01*
X76484245Y17833423D01*
X76656302Y17718459D01*
X76847480Y17639270D01*
X77040059Y17600964D01*
X77050430Y17598901D01*
X77050434Y17598900D01*
X77050435Y17598900D01*
X77257366Y17598900D01*
X77257367Y17598901D01*
X77460320Y17639270D01*
X77651498Y17718459D01*
X77823555Y17833423D01*
X77969877Y17979745D01*
X77991297Y18011804D01*
X78044909Y18056608D01*
X78114234Y18065316D01*
X78177262Y18035162D01*
X78213981Y17975720D01*
X78218400Y17942913D01*
X78218400Y16260189D01*
X78198715Y16193150D01*
X78182081Y16172508D01*
X68475792Y6466219D01*
X68414469Y6432734D01*
X68398049Y6430969D01*
X68398051Y6430961D01*
X68389994Y6429901D01*
X68355953Y6420780D01*
X68275414Y6399199D01*
X68275412Y6399199D01*
X68275412Y6399198D01*
X68172687Y6339889D01*
X68172684Y6339887D01*
X68088813Y6256016D01*
X68088811Y6256013D01*
X68029501Y6153286D01*
X67998800Y6038709D01*
X31509300Y6038709D01*
X31478599Y6153286D01*
X31419289Y6256013D01*
X31419284Y6256018D01*
X31414342Y6262459D01*
X31415773Y6263558D01*
X31387134Y6316006D01*
X31384300Y6342364D01*
X31384300Y9594112D01*
X31403985Y9661151D01*
X31420614Y9681788D01*
X40295534Y18556708D01*
X40356853Y18590190D01*
X40426545Y18585206D01*
X40482478Y18543334D01*
X40505684Y18488423D01*
X40520986Y18391815D01*
X40574491Y18227143D01*
X40653098Y18072872D01*
X40717119Y17984754D01*
X40717120Y17984753D01*
X41150229Y18417862D01*
X41193801Y18342393D01*
X41286893Y18249301D01*
X41362360Y18205730D01*
X40929251Y17772622D01*
X40929252Y17772620D01*
X41017371Y17708599D01*
X41171642Y17629992D01*
X41336315Y17576486D01*
X41507329Y17549400D01*
X41680471Y17549400D01*
X41851484Y17576486D01*
X42016157Y17629992D01*
X42170425Y17708597D01*
X42258546Y17772622D01*
X42258547Y17772622D01*
X41825439Y18205730D01*
X41900907Y18249301D01*
X41993999Y18342393D01*
X42037570Y18417862D01*
X42470678Y17984753D01*
X42470678Y17984754D01*
X42534703Y18072875D01*
X42613308Y18227143D01*
X42666814Y18391816D01*
X42693900Y18562829D01*
X42693900Y18735972D01*
X43033900Y18735972D01*
X43033900Y18562829D01*
X43060985Y18391816D01*
X43114491Y18227143D01*
X43193098Y18072872D01*
X43257119Y17984754D01*
X43257120Y17984753D01*
X43690229Y18417862D01*
X43733801Y18342393D01*
X43826893Y18249301D01*
X43902360Y18205730D01*
X43469251Y17772622D01*
X43469252Y17772620D01*
X43557371Y17708599D01*
X43711642Y17629992D01*
X43876315Y17576486D01*
X44047329Y17549400D01*
X44220471Y17549400D01*
X44391484Y17576486D01*
X44556157Y17629992D01*
X44710425Y17708597D01*
X44798546Y17772622D01*
X44798547Y17772622D01*
X44365439Y18205730D01*
X44440907Y18249301D01*
X44533999Y18342393D01*
X44577570Y18417861D01*
X45010678Y17984753D01*
X45010678Y17984754D01*
X45074703Y18072875D01*
X45153308Y18227143D01*
X45206814Y18391816D01*
X45233900Y18562829D01*
X45233900Y18735970D01*
X45233331Y18739563D01*
X45233331Y18739565D01*
X45231224Y18752870D01*
X45623400Y18752870D01*
X45623400Y18545931D01*
X45663768Y18342988D01*
X45663770Y18342980D01*
X45742958Y18151804D01*
X45857924Y17979743D01*
X46004242Y17833425D01*
X46004245Y17833423D01*
X46176302Y17718459D01*
X46367480Y17639270D01*
X46560059Y17600964D01*
X46570430Y17598901D01*
X46570434Y17598900D01*
X46570435Y17598900D01*
X46777366Y17598900D01*
X46777367Y17598901D01*
X46980320Y17639270D01*
X47171498Y17718459D01*
X47343555Y17833423D01*
X47489877Y17979745D01*
X47604841Y18151802D01*
X47684030Y18342980D01*
X47724400Y18545935D01*
X47724400Y18752865D01*
X47724399Y18752870D01*
X48163400Y18752870D01*
X48163400Y18545931D01*
X48203768Y18342988D01*
X48203770Y18342980D01*
X48282958Y18151804D01*
X48397924Y17979743D01*
X48544242Y17833425D01*
X48544245Y17833423D01*
X48716302Y17718459D01*
X48907480Y17639270D01*
X49100059Y17600964D01*
X49110430Y17598901D01*
X49110434Y17598900D01*
X49110435Y17598900D01*
X49317366Y17598900D01*
X49317367Y17598901D01*
X49520320Y17639270D01*
X49711498Y17718459D01*
X49883555Y17833423D01*
X50029877Y17979745D01*
X50144841Y18151802D01*
X50224030Y18342980D01*
X50264400Y18545935D01*
X50264400Y18752865D01*
X50264399Y18752870D01*
X50703400Y18752870D01*
X50703400Y18545931D01*
X50743768Y18342988D01*
X50743770Y18342980D01*
X50822958Y18151804D01*
X50937924Y17979743D01*
X51084242Y17833425D01*
X51084245Y17833423D01*
X51256302Y17718459D01*
X51447480Y17639270D01*
X51640059Y17600964D01*
X51650430Y17598901D01*
X51650434Y17598900D01*
X51650435Y17598900D01*
X51857366Y17598900D01*
X51857367Y17598901D01*
X52060320Y17639270D01*
X52251498Y17718459D01*
X52423555Y17833423D01*
X52569877Y17979745D01*
X52684841Y18151802D01*
X52764030Y18342980D01*
X52804400Y18545935D01*
X52804400Y18752865D01*
X52804399Y18752870D01*
X53243400Y18752870D01*
X53243400Y18545931D01*
X53283768Y18342988D01*
X53283770Y18342980D01*
X53362958Y18151804D01*
X53477924Y17979743D01*
X53624242Y17833425D01*
X53624245Y17833423D01*
X53796302Y17718459D01*
X53987480Y17639270D01*
X54180059Y17600964D01*
X54190430Y17598901D01*
X54190434Y17598900D01*
X54190435Y17598900D01*
X54397366Y17598900D01*
X54397367Y17598901D01*
X54600320Y17639270D01*
X54791498Y17718459D01*
X54963555Y17833423D01*
X55109877Y17979745D01*
X55224841Y18151802D01*
X55304030Y18342980D01*
X55344400Y18545935D01*
X55344400Y18752865D01*
X55344399Y18752870D01*
X55783400Y18752870D01*
X55783400Y18545931D01*
X55823768Y18342988D01*
X55823770Y18342980D01*
X55902958Y18151804D01*
X56017924Y17979743D01*
X56164242Y17833425D01*
X56164245Y17833423D01*
X56336302Y17718459D01*
X56527480Y17639270D01*
X56720059Y17600964D01*
X56730430Y17598901D01*
X56730434Y17598900D01*
X56730435Y17598900D01*
X56937366Y17598900D01*
X56937367Y17598901D01*
X57140320Y17639270D01*
X57331498Y17718459D01*
X57503555Y17833423D01*
X57649877Y17979745D01*
X57764841Y18151802D01*
X57844030Y18342980D01*
X57884400Y18545935D01*
X57884400Y18752865D01*
X57844030Y18955820D01*
X57764841Y19146998D01*
X57649877Y19319055D01*
X57649875Y19319058D01*
X57503557Y19465376D01*
X57391297Y19540385D01*
X57331498Y19580341D01*
X57298761Y19593901D01*
X57140320Y19659530D01*
X57140312Y19659532D01*
X56937369Y19699900D01*
X56937365Y19699900D01*
X56730435Y19699900D01*
X56730430Y19699900D01*
X56527487Y19659532D01*
X56527479Y19659530D01*
X56336303Y19580342D01*
X56164242Y19465376D01*
X56017924Y19319058D01*
X55902958Y19146997D01*
X55823770Y18955821D01*
X55823768Y18955813D01*
X55783400Y18752870D01*
X55344399Y18752870D01*
X55304030Y18955820D01*
X55224841Y19146998D01*
X55109877Y19319055D01*
X55109875Y19319058D01*
X54963557Y19465376D01*
X54851297Y19540385D01*
X54791498Y19580341D01*
X54758761Y19593901D01*
X54600320Y19659530D01*
X54600312Y19659532D01*
X54397369Y19699900D01*
X54397365Y19699900D01*
X54190435Y19699900D01*
X54190430Y19699900D01*
X53987487Y19659532D01*
X53987479Y19659530D01*
X53796303Y19580342D01*
X53624242Y19465376D01*
X53477924Y19319058D01*
X53362958Y19146997D01*
X53283770Y18955821D01*
X53283768Y18955813D01*
X53243400Y18752870D01*
X52804399Y18752870D01*
X52764030Y18955820D01*
X52684841Y19146998D01*
X52569877Y19319055D01*
X52569875Y19319058D01*
X52423557Y19465376D01*
X52311297Y19540385D01*
X52251498Y19580341D01*
X52218761Y19593901D01*
X52060320Y19659530D01*
X52060312Y19659532D01*
X51857369Y19699900D01*
X51857365Y19699900D01*
X51650435Y19699900D01*
X51650430Y19699900D01*
X51447487Y19659532D01*
X51447479Y19659530D01*
X51256303Y19580342D01*
X51084242Y19465376D01*
X50937924Y19319058D01*
X50822958Y19146997D01*
X50743770Y18955821D01*
X50743768Y18955813D01*
X50703400Y18752870D01*
X50264399Y18752870D01*
X50224030Y18955820D01*
X50144841Y19146998D01*
X50029877Y19319055D01*
X50029875Y19319058D01*
X49883557Y19465376D01*
X49771297Y19540385D01*
X49711498Y19580341D01*
X49678761Y19593901D01*
X49520320Y19659530D01*
X49520312Y19659532D01*
X49317369Y19699900D01*
X49317365Y19699900D01*
X49110435Y19699900D01*
X49110430Y19699900D01*
X48907487Y19659532D01*
X48907479Y19659530D01*
X48716303Y19580342D01*
X48544242Y19465376D01*
X48397924Y19319058D01*
X48282958Y19146997D01*
X48203770Y18955821D01*
X48203768Y18955813D01*
X48163400Y18752870D01*
X47724399Y18752870D01*
X47684030Y18955820D01*
X47604841Y19146998D01*
X47489877Y19319055D01*
X47489875Y19319058D01*
X47343557Y19465376D01*
X47231297Y19540385D01*
X47171498Y19580341D01*
X47138761Y19593901D01*
X46980320Y19659530D01*
X46980312Y19659532D01*
X46777369Y19699900D01*
X46777365Y19699900D01*
X46570435Y19699900D01*
X46570430Y19699900D01*
X46367487Y19659532D01*
X46367479Y19659530D01*
X46176303Y19580342D01*
X46004242Y19465376D01*
X45857924Y19319058D01*
X45742958Y19146997D01*
X45663770Y18955821D01*
X45663768Y18955813D01*
X45623400Y18752870D01*
X45231224Y18752870D01*
X45206814Y18906985D01*
X45153308Y19071658D01*
X45074701Y19225929D01*
X45010680Y19314048D01*
X45010678Y19314049D01*
X44577570Y18880940D01*
X44533999Y18956407D01*
X44440907Y19049499D01*
X44365438Y19093071D01*
X44798547Y19526180D01*
X44798546Y19526181D01*
X44710428Y19590202D01*
X44556157Y19668809D01*
X44391484Y19722315D01*
X44220471Y19749400D01*
X44047329Y19749400D01*
X43876315Y19722315D01*
X43711642Y19668809D01*
X43557378Y19590206D01*
X43469252Y19526180D01*
X43902361Y19093071D01*
X43826893Y19049499D01*
X43733801Y18956407D01*
X43690229Y18880939D01*
X43257120Y19314048D01*
X43193094Y19225922D01*
X43114491Y19071658D01*
X43060985Y18906985D01*
X43033900Y18735972D01*
X42693900Y18735972D01*
X42666814Y18906985D01*
X42613308Y19071658D01*
X42534701Y19225929D01*
X42470680Y19314048D01*
X42470678Y19314049D01*
X42037570Y18880940D01*
X41993999Y18956407D01*
X41900907Y19049499D01*
X41825438Y19093071D01*
X42258547Y19526180D01*
X42258546Y19526181D01*
X42170428Y19590202D01*
X42016157Y19668809D01*
X41851485Y19722314D01*
X41754877Y19737616D01*
X41691743Y19767546D01*
X41654812Y19826858D01*
X41655810Y19896720D01*
X41686591Y19947765D01*
X57094365Y35355538D01*
X57137218Y35429761D01*
X57159400Y35512547D01*
X57159400Y35598253D01*
X57159400Y40424320D01*
X57179085Y40491359D01*
X57231889Y40537114D01*
X57235948Y40538881D01*
X57245730Y40542934D01*
X57331498Y40578459D01*
X57503555Y40693423D01*
X57649877Y40839745D01*
X57764841Y41011802D01*
X57844030Y41202980D01*
X57884400Y41405935D01*
X57884400Y41612865D01*
X57844030Y41815820D01*
X57764841Y42006998D01*
X57674095Y42142810D01*
X57653218Y42209487D01*
X57671703Y42276867D01*
X57723682Y42323557D01*
X57777198Y42335700D01*
X58430602Y42335700D01*
X58497641Y42316015D01*
X58543396Y42263211D01*
X58553340Y42194053D01*
X58533705Y42142810D01*
X58442958Y42006997D01*
X58363770Y41815821D01*
X58363768Y41815813D01*
X58323400Y41612870D01*
X58323400Y41405931D01*
X58363768Y41202988D01*
X58363770Y41202980D01*
X58442958Y41011804D01*
X58557924Y40839743D01*
X58704242Y40693425D01*
X58704245Y40693423D01*
X58876302Y40578459D01*
X59067480Y40499270D01*
X59211952Y40470533D01*
X59270430Y40458901D01*
X59270434Y40458900D01*
X59270435Y40458900D01*
X59477366Y40458900D01*
X59477367Y40458901D01*
X59680320Y40499270D01*
X59871498Y40578459D01*
X60043555Y40693423D01*
X60189877Y40839745D01*
X60304841Y41011802D01*
X60384030Y41202980D01*
X60424400Y41405935D01*
X60424400Y41612865D01*
X60384030Y41815820D01*
X60304841Y42006998D01*
X60214095Y42142810D01*
X60193218Y42209487D01*
X60211703Y42276867D01*
X60263682Y42323557D01*
X60317198Y42335700D01*
X60970602Y42335700D01*
X61037641Y42316015D01*
X61083396Y42263211D01*
X61093340Y42194053D01*
X61073705Y42142810D01*
X60982958Y42006997D01*
X60903770Y41815821D01*
X60903768Y41815813D01*
X60863400Y41612870D01*
X60863400Y41405931D01*
X60903768Y41202988D01*
X60903770Y41202980D01*
X60982958Y41011804D01*
X61097924Y40839743D01*
X61244242Y40693425D01*
X61244245Y40693423D01*
X61416302Y40578459D01*
X61607480Y40499270D01*
X61751952Y40470533D01*
X61810430Y40458901D01*
X61810434Y40458900D01*
X61810435Y40458900D01*
X62017366Y40458900D01*
X62017367Y40458901D01*
X62220320Y40499270D01*
X62411498Y40578459D01*
X62583555Y40693423D01*
X62729877Y40839745D01*
X62844841Y41011802D01*
X62924030Y41202980D01*
X62964400Y41405935D01*
X62964400Y41612865D01*
X62924030Y41815820D01*
X62844841Y42006998D01*
X62754095Y42142810D01*
X62733218Y42209487D01*
X62751703Y42276867D01*
X62803682Y42323557D01*
X62857198Y42335700D01*
X63510602Y42335700D01*
X63577641Y42316015D01*
X63623396Y42263211D01*
X63633340Y42194053D01*
X63613705Y42142810D01*
X63522958Y42006997D01*
X63443770Y41815821D01*
X63443768Y41815813D01*
X63403400Y41612870D01*
X63403400Y41405931D01*
X63443768Y41202988D01*
X63443770Y41202980D01*
X63522958Y41011804D01*
X63637924Y40839743D01*
X63784242Y40693425D01*
X63784245Y40693423D01*
X63956302Y40578459D01*
X64147480Y40499270D01*
X64291952Y40470533D01*
X64350430Y40458901D01*
X64350434Y40458900D01*
X64350435Y40458900D01*
X64557366Y40458900D01*
X64557367Y40458901D01*
X64760320Y40499270D01*
X64951498Y40578459D01*
X65123555Y40693423D01*
X65269877Y40839745D01*
X65384841Y41011802D01*
X65464030Y41202980D01*
X65504400Y41405935D01*
X65504400Y41612865D01*
X65464030Y41815820D01*
X65384841Y42006998D01*
X65294095Y42142810D01*
X65273218Y42209487D01*
X65291703Y42276867D01*
X65343682Y42323557D01*
X65397198Y42335700D01*
X66050602Y42335700D01*
X66117641Y42316015D01*
X66163396Y42263211D01*
X66173340Y42194053D01*
X66153705Y42142810D01*
X66062958Y42006997D01*
X65983770Y41815821D01*
X65983768Y41815813D01*
X65943400Y41612870D01*
X65943400Y41405931D01*
X65983768Y41202988D01*
X65983770Y41202980D01*
X66062958Y41011804D01*
X66177924Y40839743D01*
X66324242Y40693425D01*
X66324245Y40693423D01*
X66496302Y40578459D01*
X66515382Y40570556D01*
X66591852Y40538881D01*
X66646256Y40495041D01*
X66668321Y40428747D01*
X66668400Y40424320D01*
X66668400Y26892589D01*
X66648715Y26825550D01*
X66632081Y26804908D01*
X60510237Y20683065D01*
X60510233Y20683059D01*
X60467381Y20608839D01*
X60467382Y20608838D01*
X60445200Y20526053D01*
X60445200Y19345711D01*
X60425515Y19278672D01*
X60372711Y19232917D01*
X60303553Y19222973D01*
X60239997Y19251998D01*
X60218098Y19276820D01*
X60189877Y19319055D01*
X60189874Y19319059D01*
X60043557Y19465376D01*
X59931297Y19540385D01*
X59871498Y19580341D01*
X59838761Y19593901D01*
X59680320Y19659530D01*
X59680312Y19659532D01*
X59477369Y19699900D01*
X59477365Y19699900D01*
X59270435Y19699900D01*
X59270430Y19699900D01*
X59067487Y19659532D01*
X59067479Y19659530D01*
X58876303Y19580342D01*
X58704242Y19465376D01*
X58557924Y19319058D01*
X58442958Y19146997D01*
X58363770Y18955821D01*
X58363768Y18955813D01*
X58323400Y18752870D01*
X58323400Y18545931D01*
X58363768Y18342988D01*
X58363770Y18342980D01*
X58442958Y18151804D01*
X58557924Y17979743D01*
X58704242Y17833425D01*
X58704245Y17833423D01*
X58876302Y17718459D01*
X59067480Y17639270D01*
X59260059Y17600964D01*
X59270430Y17598901D01*
X59270434Y17598900D01*
X59270435Y17598900D01*
X59477366Y17598900D01*
X59477367Y17598901D01*
X59680320Y17639270D01*
X59871498Y17718459D01*
X60043555Y17833423D01*
X60189877Y17979745D01*
X60218097Y18021981D01*
X60271709Y18066785D01*
X60341034Y18075493D01*
X60404062Y18045339D01*
X60440781Y17985897D01*
X60445200Y17953090D01*
X60445200Y15211989D01*
X60425515Y15144950D01*
X60408881Y15124308D01*
X53232637Y7948065D01*
X53232633Y7948059D01*
X53189781Y7873839D01*
X53189782Y7873838D01*
X53167600Y7791053D01*
X53167600Y6918564D01*
X53147915Y6851525D01*
X53137551Y6838665D01*
X53137558Y6838659D01*
X53132611Y6832213D01*
X53096271Y6769270D01*
X53073301Y6729486D01*
X53042600Y6614909D01*
X53042600Y6496291D01*
X53073301Y6381714D01*
X53132611Y6278987D01*
X53216487Y6195111D01*
X53319214Y6135801D01*
X53433791Y6105100D01*
X53433794Y6105100D01*
X53552406Y6105100D01*
X53552409Y6105100D01*
X53666986Y6135801D01*
X53769713Y6195111D01*
X53853589Y6278987D01*
X53912899Y6381714D01*
X53943600Y6496291D01*
X53943600Y6614909D01*
X53912899Y6729486D01*
X53853589Y6832213D01*
X53853584Y6832218D01*
X53848642Y6838659D01*
X53850073Y6839758D01*
X53821434Y6892206D01*
X53818600Y6918564D01*
X53818600Y7562013D01*
X53838285Y7629052D01*
X53854914Y7649689D01*
X55265036Y9059812D01*
X55326357Y9093295D01*
X55396049Y9088311D01*
X55451982Y9046439D01*
X55472490Y9004223D01*
X55496112Y8916063D01*
X55496113Y8916062D01*
X55565292Y8796239D01*
X55565294Y8796236D01*
X55565295Y8796235D01*
X55663135Y8698395D01*
X55782964Y8629212D01*
X55916617Y8593400D01*
X55916619Y8593400D01*
X56054981Y8593400D01*
X56054983Y8593400D01*
X56188636Y8629212D01*
X56308465Y8698395D01*
X56406305Y8796235D01*
X56475488Y8916064D01*
X56487174Y8959677D01*
X56519266Y9015265D01*
X63544390Y16040386D01*
X63603699Y16143114D01*
X63605481Y16149763D01*
X63634400Y16257691D01*
X63634400Y17701559D01*
X63654085Y17768598D01*
X63706889Y17814353D01*
X63776047Y17824297D01*
X63827290Y17804662D01*
X63956302Y17718459D01*
X64147480Y17639270D01*
X64340059Y17600964D01*
X64350430Y17598901D01*
X64350434Y17598900D01*
X64350435Y17598900D01*
X64557366Y17598900D01*
X64557367Y17598901D01*
X64760320Y17639270D01*
X64951498Y17718459D01*
X65123555Y17833423D01*
X65269877Y17979745D01*
X65384841Y18151802D01*
X65464030Y18342980D01*
X65504400Y18545935D01*
X65504400Y18752865D01*
X65504399Y18752870D01*
X65943400Y18752870D01*
X65943400Y18545931D01*
X65983768Y18342988D01*
X65983770Y18342980D01*
X66062958Y18151804D01*
X66177924Y17979743D01*
X66324242Y17833425D01*
X66324245Y17833423D01*
X66496302Y17718459D01*
X66687480Y17639270D01*
X66880059Y17600964D01*
X66890430Y17598901D01*
X66890434Y17598900D01*
X66890435Y17598900D01*
X67097366Y17598900D01*
X67097367Y17598901D01*
X67300320Y17639270D01*
X67491498Y17718459D01*
X67663555Y17833423D01*
X67809877Y17979745D01*
X67924841Y18151802D01*
X68004030Y18342980D01*
X68044400Y18545935D01*
X68044400Y18752865D01*
X68004030Y18955820D01*
X67924841Y19146998D01*
X67809877Y19319055D01*
X67809875Y19319058D01*
X67663557Y19465376D01*
X67551297Y19540385D01*
X67491498Y19580341D01*
X67458761Y19593901D01*
X67300320Y19659530D01*
X67300312Y19659532D01*
X67097369Y19699900D01*
X67097365Y19699900D01*
X66890435Y19699900D01*
X66890430Y19699900D01*
X66687487Y19659532D01*
X66687479Y19659530D01*
X66496303Y19580342D01*
X66324242Y19465376D01*
X66177924Y19319058D01*
X66062958Y19146997D01*
X65983770Y18955821D01*
X65983768Y18955813D01*
X65943400Y18752870D01*
X65504399Y18752870D01*
X65464030Y18955820D01*
X65384841Y19146998D01*
X65269877Y19319055D01*
X65269875Y19319058D01*
X65123557Y19465376D01*
X65011297Y19540385D01*
X64951498Y19580341D01*
X64918761Y19593901D01*
X64760320Y19659530D01*
X64760312Y19659532D01*
X64557369Y19699900D01*
X64557365Y19699900D01*
X64350435Y19699900D01*
X64350430Y19699900D01*
X64147487Y19659532D01*
X64147479Y19659530D01*
X63956303Y19580342D01*
X63827290Y19494139D01*
X63760612Y19473262D01*
X63693232Y19491747D01*
X63646543Y19543726D01*
X63634400Y19597242D01*
X63634400Y21338436D01*
X63654085Y21405475D01*
X63670714Y21426112D01*
X65149935Y22905334D01*
X65205523Y22937426D01*
X65249132Y22949111D01*
X65249131Y22949111D01*
X65249136Y22949112D01*
X65368965Y23018295D01*
X65466805Y23116135D01*
X65535988Y23235964D01*
X65571800Y23369617D01*
X65571800Y23507983D01*
X65535988Y23641636D01*
X65490692Y23720091D01*
X65466807Y23761462D01*
X65466803Y23761467D01*
X65368966Y23859304D01*
X65368961Y23859308D01*
X65249138Y23928487D01*
X65249137Y23928488D01*
X65249136Y23928488D01*
X65115483Y23964300D01*
X65011488Y23964300D01*
X64944449Y23983985D01*
X64898694Y24036789D01*
X64888750Y24105947D01*
X64917775Y24169503D01*
X64923807Y24175981D01*
X67092407Y26344581D01*
X67153730Y26378066D01*
X67180088Y26380900D01*
X67366711Y26380900D01*
X67433750Y26361215D01*
X67454392Y26344581D01*
X68283381Y25515592D01*
X68316866Y25454269D01*
X68318631Y25437850D01*
X68318639Y25437851D01*
X68319699Y25429795D01*
X68319700Y25429792D01*
X68319700Y25429791D01*
X68350401Y25315214D01*
X68409711Y25212487D01*
X68493587Y25128611D01*
X68596314Y25069301D01*
X68710891Y25038600D01*
X68710894Y25038600D01*
X68829506Y25038600D01*
X68829509Y25038600D01*
X68944086Y25069301D01*
X69046813Y25128611D01*
X69130689Y25212487D01*
X69189999Y25315214D01*
X69220700Y25429791D01*
X69220700Y25548409D01*
X69189999Y25662986D01*
X69130689Y25765713D01*
X69046813Y25849589D01*
X68944086Y25908899D01*
X68829509Y25939600D01*
X68829505Y25939601D01*
X68821449Y25940661D01*
X68821684Y25942450D01*
X68764350Y25959285D01*
X68743708Y25975919D01*
X67752764Y26966863D01*
X67752762Y26966865D01*
X67715650Y26988292D01*
X67678540Y27009718D01*
X67637146Y27020809D01*
X67595753Y27031900D01*
X67595752Y27031900D01*
X67443400Y27031900D01*
X67376361Y27051585D01*
X67330606Y27104389D01*
X67319400Y27155900D01*
X67319400Y40424320D01*
X67339085Y40491359D01*
X67391889Y40537114D01*
X67395948Y40538881D01*
X67405730Y40542934D01*
X67491498Y40578459D01*
X67663555Y40693423D01*
X67809877Y40839745D01*
X67924841Y41011802D01*
X68004030Y41202980D01*
X68044400Y41405935D01*
X68044400Y41612865D01*
X68004030Y41815820D01*
X67924841Y42006998D01*
X67834095Y42142810D01*
X67813218Y42209487D01*
X67831703Y42276867D01*
X67883682Y42323557D01*
X67937198Y42335700D01*
X68590602Y42335700D01*
X68657641Y42316015D01*
X68703396Y42263211D01*
X68713340Y42194053D01*
X68693705Y42142810D01*
X68602958Y42006997D01*
X68523770Y41815821D01*
X68523768Y41815813D01*
X68483400Y41612870D01*
X68483400Y41405931D01*
X68523768Y41202988D01*
X68523770Y41202980D01*
X68602958Y41011804D01*
X68717924Y40839743D01*
X68864242Y40693425D01*
X68864245Y40693423D01*
X69036302Y40578459D01*
X69227480Y40499270D01*
X69371952Y40470533D01*
X69430430Y40458901D01*
X69430434Y40458900D01*
X69430435Y40458900D01*
X69637366Y40458900D01*
X69637367Y40458901D01*
X69840320Y40499270D01*
X69935870Y40538850D01*
X70005339Y40546318D01*
X70067818Y40515043D01*
X70071004Y40511969D01*
X70654681Y39928292D01*
X70688166Y39866969D01*
X70691000Y39840611D01*
X70691000Y23850064D01*
X70671315Y23783025D01*
X70660951Y23770165D01*
X70660958Y23770159D01*
X70656011Y23763713D01*
X70596701Y23660986D01*
X70566000Y23546409D01*
X70566000Y23546407D01*
X70566000Y23427792D01*
X70590375Y23336823D01*
X70594600Y23304730D01*
X70594600Y19361575D01*
X70574915Y19294536D01*
X70522111Y19248781D01*
X70452953Y19238837D01*
X70389397Y19267862D01*
X70367498Y19292684D01*
X70349877Y19319055D01*
X70349874Y19319059D01*
X70203557Y19465376D01*
X70091297Y19540385D01*
X70031498Y19580341D01*
X69998761Y19593901D01*
X69840320Y19659530D01*
X69840312Y19659532D01*
X69637369Y19699900D01*
X69637365Y19699900D01*
X69430435Y19699900D01*
X69430430Y19699900D01*
X69227487Y19659532D01*
X69227479Y19659530D01*
X69036303Y19580342D01*
X68864242Y19465376D01*
X68717924Y19319058D01*
X68602958Y19146997D01*
X68523770Y18955821D01*
X68523768Y18955813D01*
X68483400Y18752870D01*
X68483400Y18545931D01*
X68523768Y18342988D01*
X68523770Y18342980D01*
X68602958Y18151804D01*
X68717924Y17979743D01*
X68864242Y17833425D01*
X68864245Y17833423D01*
X69036302Y17718459D01*
X69227480Y17639270D01*
X69420059Y17600964D01*
X69430430Y17598901D01*
X69430434Y17598900D01*
X69430435Y17598900D01*
X69637366Y17598900D01*
X69637367Y17598901D01*
X69840320Y17639270D01*
X70031498Y17718459D01*
X70203555Y17833423D01*
X70349877Y17979745D01*
X70367497Y18006117D01*
X70421109Y18050921D01*
X70490434Y18059630D01*
X70553461Y18029476D01*
X70590181Y17970033D01*
X70594600Y17937226D01*
X70594600Y16690689D01*
X70574915Y16623650D01*
X70558281Y16603008D01*
X60997692Y7042419D01*
X60936369Y7008934D01*
X60919949Y7007169D01*
X60919951Y7007161D01*
X60911894Y7006101D01*
X60894679Y7001488D01*
X60797314Y6975399D01*
X60797312Y6975399D01*
X60797312Y6975398D01*
X60694587Y6916089D01*
X60694584Y6916087D01*
X60610713Y6832216D01*
X60610711Y6832213D01*
X60574371Y6769270D01*
X60551401Y6729486D01*
X60520700Y6614909D01*
X60520700Y6496291D01*
X60551401Y6381714D01*
X60610711Y6278987D01*
X60694587Y6195111D01*
X60797314Y6135801D01*
X60911891Y6105100D01*
X60911894Y6105100D01*
X61030506Y6105100D01*
X61030509Y6105100D01*
X61145086Y6135801D01*
X61247813Y6195111D01*
X61331689Y6278987D01*
X61390999Y6381714D01*
X61421700Y6496291D01*
X61421700Y6496295D01*
X61422761Y6504351D01*
X61424549Y6504116D01*
X61441385Y6561450D01*
X61458019Y6582092D01*
X66284892Y11408965D01*
X71180565Y16304638D01*
X71193177Y16326483D01*
X71223418Y16378862D01*
X71245600Y16461647D01*
X71245600Y17707439D01*
X71265285Y17774478D01*
X71318089Y17820233D01*
X71387247Y17830177D01*
X71438490Y17810542D01*
X71576302Y17718459D01*
X71767480Y17639270D01*
X71960059Y17600964D01*
X71970430Y17598901D01*
X71970434Y17598900D01*
X71970435Y17598900D01*
X72177366Y17598900D01*
X72177367Y17598901D01*
X72380320Y17639270D01*
X72571498Y17718459D01*
X72743555Y17833423D01*
X72889877Y17979745D01*
X73004841Y18151802D01*
X73084030Y18342980D01*
X73124400Y18545935D01*
X73124400Y18752865D01*
X73124399Y18752870D01*
X73563400Y18752870D01*
X73563400Y18545931D01*
X73603768Y18342988D01*
X73603770Y18342980D01*
X73682958Y18151804D01*
X73797924Y17979743D01*
X73944242Y17833425D01*
X73944245Y17833423D01*
X74116302Y17718459D01*
X74307480Y17639270D01*
X74500059Y17600964D01*
X74510430Y17598901D01*
X74510434Y17598900D01*
X74510435Y17598900D01*
X74717366Y17598900D01*
X74717367Y17598901D01*
X74920320Y17639270D01*
X75111498Y17718459D01*
X75283555Y17833423D01*
X75429877Y17979745D01*
X75544841Y18151802D01*
X75624030Y18342980D01*
X75664400Y18545935D01*
X75664400Y18752865D01*
X75624030Y18955820D01*
X75544841Y19146998D01*
X75429877Y19319055D01*
X75429875Y19319058D01*
X75283557Y19465376D01*
X75171297Y19540385D01*
X75111498Y19580341D01*
X75078761Y19593901D01*
X74920320Y19659530D01*
X74920312Y19659532D01*
X74717369Y19699900D01*
X74717365Y19699900D01*
X74510435Y19699900D01*
X74510430Y19699900D01*
X74307487Y19659532D01*
X74307479Y19659530D01*
X74116303Y19580342D01*
X73944242Y19465376D01*
X73797924Y19319058D01*
X73682958Y19146997D01*
X73603770Y18955821D01*
X73603768Y18955813D01*
X73563400Y18752870D01*
X73124399Y18752870D01*
X73084030Y18955820D01*
X73004841Y19146998D01*
X72889877Y19319055D01*
X72889875Y19319058D01*
X72743557Y19465376D01*
X72631297Y19540385D01*
X72571498Y19580341D01*
X72538761Y19593901D01*
X72380320Y19659530D01*
X72380312Y19659532D01*
X72177369Y19699900D01*
X72177365Y19699900D01*
X71970435Y19699900D01*
X71970430Y19699900D01*
X71767487Y19659532D01*
X71767479Y19659530D01*
X71576303Y19580342D01*
X71438490Y19488259D01*
X71371812Y19467382D01*
X71304432Y19485867D01*
X71257743Y19537846D01*
X71245600Y19591362D01*
X71245600Y23029004D01*
X71265285Y23096043D01*
X71287759Y23120471D01*
X71287366Y23120864D01*
X71293113Y23126611D01*
X71376989Y23210487D01*
X71436299Y23313214D01*
X71467000Y23427791D01*
X71467000Y23546409D01*
X71436299Y23660986D01*
X71376989Y23763713D01*
X71376984Y23763718D01*
X71372042Y23770159D01*
X71373473Y23771258D01*
X71344834Y23823706D01*
X71342000Y23850064D01*
X71342000Y40069651D01*
X71342000Y40069653D01*
X71320461Y40150039D01*
X71319818Y40152439D01*
X71276965Y40226662D01*
X70531330Y40972297D01*
X70497846Y41033619D01*
X70502830Y41103311D01*
X70504451Y41107430D01*
X70544030Y41202980D01*
X70584400Y41405935D01*
X70584400Y41612865D01*
X70544030Y41815820D01*
X70464841Y42006998D01*
X70374095Y42142810D01*
X70353218Y42209487D01*
X70371703Y42276867D01*
X70423682Y42323557D01*
X70477198Y42335700D01*
X71130602Y42335700D01*
X71197641Y42316015D01*
X71243396Y42263211D01*
X71253340Y42194053D01*
X71233705Y42142810D01*
X71142958Y42006997D01*
X71063770Y41815821D01*
X71063768Y41815813D01*
X71023400Y41612870D01*
X71023400Y41405931D01*
X71063768Y41202988D01*
X71063770Y41202980D01*
X71142958Y41011804D01*
X71257924Y40839743D01*
X71404242Y40693425D01*
X71404245Y40693423D01*
X71576302Y40578459D01*
X71767480Y40499270D01*
X71911952Y40470533D01*
X71970430Y40458901D01*
X71970434Y40458900D01*
X71970435Y40458900D01*
X72177366Y40458900D01*
X72177367Y40458901D01*
X72380320Y40499270D01*
X72571498Y40578459D01*
X72743555Y40693423D01*
X72889877Y40839745D01*
X73004841Y41011802D01*
X73084030Y41202980D01*
X73124400Y41405935D01*
X73124400Y41612865D01*
X73084030Y41815820D01*
X73004841Y42006998D01*
X72914095Y42142810D01*
X72893218Y42209487D01*
X72911703Y42276867D01*
X72963682Y42323557D01*
X73017198Y42335700D01*
X73670602Y42335700D01*
X73737641Y42316015D01*
X73783396Y42263211D01*
X73793340Y42194053D01*
X73773705Y42142810D01*
X73682958Y42006997D01*
X73603770Y41815821D01*
X73603768Y41815813D01*
X73563400Y41612870D01*
X73563400Y41405931D01*
X73603768Y41202988D01*
X73603770Y41202980D01*
X73682958Y41011804D01*
X73797924Y40839743D01*
X73944242Y40693425D01*
X73944245Y40693423D01*
X74116302Y40578459D01*
X74307480Y40499270D01*
X74451952Y40470533D01*
X74510430Y40458901D01*
X74510434Y40458900D01*
X74510435Y40458900D01*
X74717366Y40458900D01*
X74717367Y40458901D01*
X74920320Y40499270D01*
X75111498Y40578459D01*
X75283555Y40693423D01*
X75429877Y40839745D01*
X75544841Y41011802D01*
X75624030Y41202980D01*
X75664400Y41405935D01*
X75664400Y41612865D01*
X75624030Y41815820D01*
X75544841Y42006998D01*
X75454095Y42142810D01*
X75433218Y42209487D01*
X75451703Y42276867D01*
X75503682Y42323557D01*
X75557198Y42335700D01*
X75815911Y42335700D01*
X75882950Y42316015D01*
X75903592Y42299381D01*
X76156468Y42046505D01*
X76189953Y41985182D01*
X76184969Y41915490D01*
X76183348Y41911372D01*
X76143771Y41815825D01*
X76143768Y41815813D01*
X76103400Y41612870D01*
X76103400Y41405931D01*
X76143768Y41202988D01*
X76143770Y41202980D01*
X76222958Y41011804D01*
X76337924Y40839743D01*
X76484242Y40693425D01*
X76484245Y40693423D01*
X76656302Y40578459D01*
X76847480Y40499270D01*
X76991952Y40470533D01*
X77050430Y40458901D01*
X77050434Y40458900D01*
X77050435Y40458900D01*
X77257366Y40458900D01*
X77257367Y40458901D01*
X77460320Y40499270D01*
X77651498Y40578459D01*
X77823555Y40693423D01*
X77969877Y40839745D01*
X78084841Y41011802D01*
X78164030Y41202980D01*
X78204400Y41405935D01*
X78204400Y41612865D01*
X78164030Y41815820D01*
X78084841Y42006998D01*
X77969877Y42179055D01*
X77969875Y42179058D01*
X77823557Y42325376D01*
X77655555Y42437630D01*
X77651498Y42440341D01*
X77632416Y42448245D01*
X77460320Y42519530D01*
X77460312Y42519532D01*
X77257369Y42559900D01*
X77257365Y42559900D01*
X77050435Y42559900D01*
X77050430Y42559900D01*
X76847487Y42519532D01*
X76847475Y42519529D01*
X76751928Y42479952D01*
X76682459Y42472483D01*
X76619980Y42503759D01*
X76616795Y42506832D01*
X76201964Y42921663D01*
X76201962Y42921665D01*
X76164850Y42943092D01*
X76127740Y42964518D01*
X76059814Y42982718D01*
X76044953Y42986700D01*
X56416753Y42986700D01*
X56331047Y42986700D01*
X56248259Y42964518D01*
X56174038Y42921665D01*
X56174035Y42921663D01*
X55345512Y42093140D01*
X55284189Y42059655D01*
X55214497Y42064639D01*
X55158564Y42106511D01*
X55154729Y42111930D01*
X55109877Y42179055D01*
X55109874Y42179059D01*
X54963557Y42325376D01*
X54795555Y42437630D01*
X54791498Y42440341D01*
X54772416Y42448245D01*
X54600320Y42519530D01*
X54600312Y42519532D01*
X54397369Y42559900D01*
X54397365Y42559900D01*
X54190435Y42559900D01*
X54190430Y42559900D01*
X53987487Y42519532D01*
X53987479Y42519530D01*
X53796303Y42440342D01*
X53624242Y42325376D01*
X53477924Y42179058D01*
X53362958Y42006997D01*
X53283770Y41815821D01*
X53283768Y41815813D01*
X53243400Y41612870D01*
X53243400Y41405931D01*
X53283768Y41202988D01*
X53283770Y41202980D01*
X53323348Y41107431D01*
X53330817Y41037962D01*
X53299542Y40975482D01*
X53296468Y40972297D01*
X52710392Y40386219D01*
X52649069Y40352734D01*
X52622711Y40349900D01*
X52318208Y40349900D01*
X52251169Y40369585D01*
X52205414Y40422389D01*
X52195470Y40491547D01*
X52224495Y40555103D01*
X52249318Y40577003D01*
X52251495Y40578458D01*
X52251498Y40578459D01*
X52423555Y40693423D01*
X52569877Y40839745D01*
X52684841Y41011802D01*
X52764030Y41202980D01*
X52804400Y41405935D01*
X52804400Y41612865D01*
X52764030Y41815820D01*
X52684841Y42006998D01*
X52569877Y42179055D01*
X52569875Y42179058D01*
X52423557Y42325376D01*
X52255555Y42437630D01*
X52251498Y42440341D01*
X52232416Y42448245D01*
X52060320Y42519530D01*
X52060312Y42519532D01*
X51857369Y42559900D01*
X51857365Y42559900D01*
X51650435Y42559900D01*
X51650430Y42559900D01*
X51447487Y42519532D01*
X51447479Y42519530D01*
X51256303Y42440342D01*
X51084242Y42325376D01*
X50937924Y42179058D01*
X50822958Y42006997D01*
X50743770Y41815821D01*
X50743768Y41815813D01*
X50703400Y41612870D01*
X50703400Y41405931D01*
X50743768Y41202988D01*
X50743770Y41202980D01*
X50783348Y41107431D01*
X50790817Y41037962D01*
X50759542Y40975482D01*
X50756468Y40972297D01*
X27962092Y18177919D01*
X27900769Y18144434D01*
X27874411Y18141600D01*
X27069047Y18141600D01*
X26986261Y18119418D01*
X26961787Y18105287D01*
X26961785Y18105287D01*
X26912044Y18076570D01*
X26912036Y18076564D01*
X20684837Y11849365D01*
X20684833Y11849359D01*
X20641981Y11775139D01*
X20641982Y11775138D01*
X20619800Y11692353D01*
X20619800Y9450064D01*
X20600115Y9383025D01*
X20589751Y9370165D01*
X20589758Y9370159D01*
X20584811Y9363713D01*
X20527319Y9264134D01*
X20525501Y9260986D01*
X20494800Y9146409D01*
X20494800Y9027791D01*
X20525501Y8913214D01*
X20584811Y8810487D01*
X20668687Y8726611D01*
X20701563Y8707630D01*
X20709101Y8703278D01*
X20757317Y8652711D01*
X20770540Y8584104D01*
X20744572Y8519239D01*
X20734786Y8508215D01*
X20650490Y8423918D01*
X20589170Y8390434D01*
X20562811Y8387600D01*
X18659605Y8387600D01*
X18592566Y8407285D01*
X18546811Y8460089D01*
X18536867Y8529247D01*
X18539830Y8543693D01*
X18550658Y8584104D01*
X18562900Y8629791D01*
X18562900Y8748409D01*
X18532199Y8862986D01*
X18472889Y8965713D01*
X18472884Y8965718D01*
X18467942Y8972159D01*
X18469373Y8973258D01*
X18440734Y9025706D01*
X18437900Y9052064D01*
X18437900Y12761713D01*
X18457585Y12828752D01*
X18474214Y12849389D01*
X46136796Y40511972D01*
X46198117Y40545455D01*
X46267809Y40540471D01*
X46271864Y40538876D01*
X46367480Y40499270D01*
X46511952Y40470533D01*
X46570430Y40458901D01*
X46570434Y40458900D01*
X46570435Y40458900D01*
X46777366Y40458900D01*
X46777367Y40458901D01*
X46980320Y40499270D01*
X47171498Y40578459D01*
X47343555Y40693423D01*
X47489877Y40839745D01*
X47604841Y41011802D01*
X47684030Y41202980D01*
X47724400Y41405935D01*
X47724400Y41612865D01*
X47684030Y41815820D01*
X47604841Y42006998D01*
X47604840Y42007000D01*
X47604840Y42007001D01*
X47501935Y42161010D01*
X47481057Y42227687D01*
X47499542Y42295067D01*
X47551521Y42341757D01*
X47605037Y42353900D01*
X47857711Y42353900D01*
X47924750Y42334215D01*
X47945392Y42317581D01*
X48216468Y42046505D01*
X48249953Y41985182D01*
X48244969Y41915490D01*
X48243348Y41911372D01*
X48203771Y41815825D01*
X48203768Y41815813D01*
X48163400Y41612870D01*
X48163400Y41405931D01*
X48203768Y41202988D01*
X48203770Y41202980D01*
X48282958Y41011804D01*
X48397924Y40839743D01*
X48544242Y40693425D01*
X48544245Y40693423D01*
X48716302Y40578459D01*
X48907480Y40499270D01*
X49051952Y40470533D01*
X49110430Y40458901D01*
X49110434Y40458900D01*
X49110435Y40458900D01*
X49317366Y40458900D01*
X49317367Y40458901D01*
X49520320Y40499270D01*
X49711498Y40578459D01*
X49883555Y40693423D01*
X50029877Y40839745D01*
X50144841Y41011802D01*
X50224030Y41202980D01*
X50264400Y41405935D01*
X50264400Y41612865D01*
X50224030Y41815820D01*
X50144841Y42006998D01*
X50029877Y42179055D01*
X50029875Y42179058D01*
X49883557Y42325376D01*
X49715555Y42437630D01*
X49711498Y42440341D01*
X49692416Y42448245D01*
X49520320Y42519530D01*
X49520312Y42519532D01*
X49317369Y42559900D01*
X49317365Y42559900D01*
X49110435Y42559900D01*
X49110430Y42559900D01*
X48907487Y42519532D01*
X48907475Y42519529D01*
X48811928Y42479952D01*
X48742459Y42472483D01*
X48679980Y42503759D01*
X48676795Y42506832D01*
X48243764Y42939863D01*
X48243762Y42939865D01*
X48201060Y42964519D01*
X48169540Y42982718D01*
X48128146Y42993809D01*
X48086753Y43004900D01*
X48086752Y43004900D01*
X46296865Y43004900D01*
X46296849Y43004901D01*
X46289253Y43004901D01*
X46203547Y43004901D01*
X46162154Y42993810D01*
X46120759Y42982718D01*
X46089240Y42964519D01*
X46089238Y42964518D01*
X46046541Y42939867D01*
X46046535Y42939863D01*
X45985933Y42879260D01*
X45191239Y42084567D01*
X45129916Y42051082D01*
X45060224Y42056066D01*
X45004291Y42097938D01*
X45000468Y42103339D01*
X44949877Y42179055D01*
X44949875Y42179058D01*
X44803557Y42325376D01*
X44635555Y42437630D01*
X44631498Y42440341D01*
X44612416Y42448245D01*
X44440320Y42519530D01*
X44440312Y42519532D01*
X44237369Y42559900D01*
X44237365Y42559900D01*
X44030435Y42559900D01*
X44030430Y42559900D01*
X43827487Y42519532D01*
X43827479Y42519530D01*
X43636303Y42440342D01*
X43464242Y42325376D01*
X43317924Y42179058D01*
X43202958Y42006997D01*
X43123770Y41815821D01*
X43123768Y41815813D01*
X43083400Y41612870D01*
X43083400Y41405931D01*
X43123768Y41202988D01*
X43123770Y41202980D01*
X43202958Y41011804D01*
X43317924Y40839743D01*
X43464242Y40693425D01*
X43464245Y40693423D01*
X43636302Y40578459D01*
X43827480Y40499270D01*
X43958080Y40473293D01*
X44019989Y40440909D01*
X44054563Y40380193D01*
X44050824Y40310424D01*
X44021568Y40263995D01*
X15166537Y11408965D01*
X15166535Y11408962D01*
X15123682Y11334741D01*
X15101500Y11251953D01*
X15101500Y6749748D01*
X15123682Y6666960D01*
X15145108Y6629850D01*
X15166535Y6592738D01*
X15567438Y6191835D01*
X15641661Y6148982D01*
X15724447Y6126800D01*
X15724449Y6126800D01*
X16261351Y6126800D01*
X16261353Y6126800D01*
X16344139Y6148982D01*
X16418362Y6191835D01*
X17005365Y6778838D01*
X17048218Y6853061D01*
X17070400Y6935847D01*
X17070400Y6935849D01*
X17072503Y6943697D01*
X17075523Y6942888D01*
X17097779Y6993264D01*
X17104805Y7000904D01*
X17105389Y7001487D01*
X17164699Y7104214D01*
X17195400Y7218791D01*
X17195400Y7337409D01*
X17164699Y7451986D01*
X17107763Y7550600D01*
X17091291Y7618499D01*
X17114143Y7684526D01*
X17169064Y7727717D01*
X17215151Y7736600D01*
X20305811Y7736600D01*
X20372850Y7716915D01*
X20418605Y7664111D01*
X20428549Y7594953D01*
X20399524Y7531397D01*
X20393492Y7524919D01*
X17509792Y4641219D01*
X17448469Y4607734D01*
X17422111Y4604900D01*
X15512932Y4604900D01*
X15445893Y4624585D01*
X15425251Y4641219D01*
X15366566Y4699904D01*
X15366561Y4699908D01*
X15246738Y4769087D01*
X15246737Y4769088D01*
X15246736Y4769088D01*
X15113083Y4804900D01*
X14974717Y4804900D01*
X14841064Y4769088D01*
X14841061Y4769087D01*
X14721238Y4699908D01*
X14721233Y4699904D01*
X14623396Y4602067D01*
X14623392Y4602062D01*
X14554213Y4482239D01*
X14554212Y4482236D01*
X14518400Y4348583D01*
X543900Y4348583D01*
X543900Y14640912D01*
X6850000Y14640912D01*
X6850000Y14359089D01*
X6850001Y14359072D01*
X6886786Y14079660D01*
X6959733Y13807418D01*
X7067584Y13547043D01*
X7067589Y13547032D01*
X7208500Y13302969D01*
X7208511Y13302953D01*
X7374498Y13086633D01*
X7374499Y13086633D01*
X8123219Y13835353D01*
X8160967Y13783398D01*
X8283398Y13660967D01*
X8335351Y13623221D01*
X7586631Y12874501D01*
X7586631Y12874500D01*
X7802952Y12708512D01*
X7802968Y12708501D01*
X8047031Y12567590D01*
X8047042Y12567585D01*
X8307417Y12459734D01*
X8579659Y12386787D01*
X8859071Y12350002D01*
X8859089Y12350000D01*
X9140911Y12350000D01*
X9140928Y12350002D01*
X9420340Y12386787D01*
X9692582Y12459734D01*
X9952957Y12567585D01*
X9952968Y12567590D01*
X10197031Y12708501D01*
X10197047Y12708512D01*
X10413367Y12874500D01*
X10413367Y12874501D01*
X9664647Y13623221D01*
X9716602Y13660967D01*
X9839033Y13783398D01*
X9876779Y13835353D01*
X10625499Y13086633D01*
X10625500Y13086633D01*
X10791488Y13302953D01*
X10791499Y13302969D01*
X10932410Y13547032D01*
X10932415Y13547043D01*
X11040266Y13807418D01*
X11113213Y14079660D01*
X11149998Y14359072D01*
X11150000Y14359089D01*
X11150000Y14640912D01*
X11149998Y14640929D01*
X11113213Y14920341D01*
X11040266Y15192583D01*
X10932415Y15452958D01*
X10932410Y15452969D01*
X10791499Y15697032D01*
X10791488Y15697048D01*
X10625500Y15913369D01*
X10625499Y15913369D01*
X9876779Y15164649D01*
X9839033Y15216602D01*
X9716602Y15339033D01*
X9664647Y15376780D01*
X10413367Y16125501D01*
X10413367Y16125502D01*
X10197047Y16291489D01*
X10197031Y16291500D01*
X9952968Y16432411D01*
X9952957Y16432416D01*
X9692582Y16540267D01*
X9420340Y16613214D01*
X9140928Y16649999D01*
X9140911Y16650000D01*
X8859089Y16650000D01*
X8859071Y16649999D01*
X8579659Y16613214D01*
X8307417Y16540267D01*
X8047042Y16432416D01*
X8047038Y16432414D01*
X7802953Y16291490D01*
X7586631Y16125502D01*
X7586631Y16125501D01*
X8335352Y15376780D01*
X8283398Y15339033D01*
X8160967Y15216602D01*
X8123220Y15164648D01*
X7374499Y15913369D01*
X7374498Y15913369D01*
X7208510Y15697047D01*
X7067586Y15452962D01*
X7067584Y15452958D01*
X6959733Y15192583D01*
X6886786Y14920341D01*
X6850001Y14640929D01*
X6850000Y14640912D01*
X543900Y14640912D01*
X543900Y41073100D01*
X37153400Y41073100D01*
X37153400Y40885701D01*
X37175968Y40743215D01*
X37182714Y40700624D01*
X37240621Y40522407D01*
X37290598Y40424320D01*
X37325694Y40355441D01*
X37325695Y40355438D01*
X37371487Y40292412D01*
X37435838Y40203841D01*
X37568341Y40071338D01*
X37617958Y40035289D01*
X37719937Y39961196D01*
X37719938Y39961196D01*
X37719942Y39961193D01*
X37886907Y39876121D01*
X38065124Y39818214D01*
X38157665Y39803557D01*
X38250201Y39788900D01*
X38250206Y39788900D01*
X38437599Y39788900D01*
X38521722Y39802225D01*
X38622676Y39818214D01*
X38800893Y39876121D01*
X38967858Y39961193D01*
X39119459Y40071338D01*
X39251962Y40203841D01*
X39362107Y40355442D01*
X39447179Y40522407D01*
X39505086Y40700624D01*
X39521075Y40801578D01*
X39534400Y40885701D01*
X39534400Y41073100D01*
X39513827Y41202988D01*
X39505086Y41258176D01*
X39447179Y41436393D01*
X39362107Y41603358D01*
X39362104Y41603362D01*
X39362104Y41603363D01*
X39330130Y41647371D01*
X39251962Y41754959D01*
X39119459Y41887462D01*
X39043351Y41942758D01*
X38967862Y41997605D01*
X38967859Y41997606D01*
X38967860Y41997606D01*
X38967858Y41997607D01*
X38800893Y42082679D01*
X38622676Y42140586D01*
X38622670Y42140587D01*
X38437599Y42169900D01*
X38437594Y42169900D01*
X38250206Y42169900D01*
X38250201Y42169900D01*
X38065129Y42140587D01*
X38065127Y42140587D01*
X38065124Y42140586D01*
X37886907Y42082679D01*
X37886904Y42082678D01*
X37886902Y42082677D01*
X37719940Y41997606D01*
X37719937Y41997605D01*
X37606918Y41915490D01*
X37568341Y41887462D01*
X37568339Y41887460D01*
X37568338Y41887460D01*
X37435840Y41754962D01*
X37435840Y41754961D01*
X37435838Y41754959D01*
X37408202Y41716923D01*
X37325695Y41603363D01*
X37325694Y41603360D01*
X37240623Y41436398D01*
X37240622Y41436396D01*
X37240621Y41436393D01*
X37182714Y41258176D01*
X37182713Y41258173D01*
X37182713Y41258171D01*
X37153400Y41073100D01*
X543900Y41073100D01*
X543900Y45155400D01*
X563585Y45222439D01*
X616389Y45268194D01*
X667900Y45279400D01*
X101375500Y45279400D01*
X101442539Y45259715D01*
G37*
%TD.AperFunction*%
%TD*%
M02*
