%TF.GenerationSoftware,KiCad,Pcbnew,10.0.6*%
%TF.CreationDate,2026-09-13T00:47:20-08:00*%
%TF.ProjectId,RykerConnect,52796b65-7243-46f6-9e6e-6563742e6b69,REV03*%
%TF.SameCoordinates,Original*%
%TF.FileFunction,Copper,L2,Bot*%
%TF.FilePolarity,Positive*%
%FSLAX46Y46*%
G04 Gerber Fmt 4.6, Leading zero omitted, Abs format (unit mm)*
G04 Created by KiCad (PCBNEW 10.0.6) date 2026-09-13 00:47:20*
%MOMM*%
%LPD*%
G01*
G04 APERTURE LIST*
G04 Aperture macros list*
%AMRoundRect*
0 Rectangle with rounded corners*
0 $1 Rounding radius*
0 $2 $3 $4 $5 $6 $7 $8 $9 X,Y pos of 4 corners*
0 Add a 4 corners polygon primitive as box body*
4,1,4,$2,$3,$4,$5,$6,$7,$8,$9,$2,$3,0*
0 Add four circle primitives for the rounded corners*
1,1,$1+$1,$2,$3*
1,1,$1+$1,$4,$5*
1,1,$1+$1,$6,$7*
1,1,$1+$1,$8,$9*
0 Add four rect primitives between the rounded corners*
20,1,$1+$1,$2,$3,$4,$5,0*
20,1,$1+$1,$4,$5,$6,$7,0*
20,1,$1+$1,$6,$7,$8,$9,0*
20,1,$1+$1,$8,$9,$2,$3,0*%
G04 Aperture macros list end*
%ADD10C,0.100000*%
%TA.AperFunction,ComponentPad*%
%ADD11R,1.520000X1.520000*%
%TD*%
%TA.AperFunction,ComponentPad*%
%ADD12C,1.520000*%
%TD*%
%TA.AperFunction,ComponentPad*%
%ADD13O,1.000000X2.100000*%
%TD*%
%TA.AperFunction,ComponentPad*%
%ADD14O,1.000000X1.800000*%
%TD*%
%TA.AperFunction,ComponentPad*%
%ADD15C,2.600000*%
%TD*%
%TA.AperFunction,ConnectorPad*%
%ADD16C,3.800000*%
%TD*%
%TA.AperFunction,SMDPad,CuDef*%
%ADD17RoundRect,0.200000X0.200000X0.275000X-0.200000X0.275000X-0.200000X-0.275000X0.200000X-0.275000X0*%
%TD*%
%TA.AperFunction,SMDPad,CuDef*%
%ADD18C,1.500000*%
%TD*%
%TA.AperFunction,SMDPad,CuDef*%
%ADD19RoundRect,0.250000X0.325000X0.650000X-0.325000X0.650000X-0.325000X-0.650000X0.325000X-0.650000X0*%
%TD*%
%TA.AperFunction,SMDPad,CuDef*%
%ADD20RoundRect,0.250000X0.650000X-1.000000X0.650000X1.000000X-0.650000X1.000000X-0.650000X-1.000000X0*%
%TD*%
%TA.AperFunction,SMDPad,CuDef*%
%ADD21RoundRect,0.250000X1.000000X0.900000X-1.000000X0.900000X-1.000000X-0.900000X1.000000X-0.900000X0*%
%TD*%
%TA.AperFunction,SMDPad,CuDef*%
%ADD22C,1.000000*%
%TD*%
%TA.AperFunction,SMDPad,CuDef*%
%ADD23RoundRect,0.250000X0.262500X0.450000X-0.262500X0.450000X-0.262500X-0.450000X0.262500X-0.450000X0*%
%TD*%
%TA.AperFunction,SMDPad,CuDef*%
%ADD24RoundRect,0.250000X0.475000X-0.250000X0.475000X0.250000X-0.475000X0.250000X-0.475000X-0.250000X0*%
%TD*%
%TA.AperFunction,SMDPad,CuDef*%
%ADD25R,1.500000X0.450000*%
%TD*%
%TA.AperFunction,SMDPad,CuDef*%
%ADD26R,3.400000X5.000000*%
%TD*%
%TA.AperFunction,SMDPad,CuDef*%
%ADD27RoundRect,0.237500X-0.250000X-0.237500X0.250000X-0.237500X0.250000X0.237500X-0.250000X0.237500X0*%
%TD*%
%TA.AperFunction,SMDPad,CuDef*%
%ADD28RoundRect,0.225000X0.225000X0.250000X-0.225000X0.250000X-0.225000X-0.250000X0.225000X-0.250000X0*%
%TD*%
%TA.AperFunction,ViaPad*%
%ADD29C,0.600000*%
%TD*%
%TA.AperFunction,ViaPad*%
%ADD30C,0.500000*%
%TD*%
%TA.AperFunction,ViaPad*%
%ADD31C,0.800000*%
%TD*%
%TA.AperFunction,Conductor*%
%ADD32C,0.300000*%
%TD*%
%TA.AperFunction,Conductor*%
%ADD33C,0.500000*%
%TD*%
%TA.AperFunction,Conductor*%
%ADD34C,0.150000*%
%TD*%
%TA.AperFunction,Conductor*%
%ADD35C,0.200000*%
%TD*%
%TA.AperFunction,Conductor*%
%ADD36C,1.200000*%
%TD*%
%TA.AperFunction,Conductor*%
%ADD37C,1.000000*%
%TD*%
%TA.AperFunction,Conductor*%
%ADD38C,0.800000*%
%TD*%
%TA.AperFunction,Conductor*%
%ADD39C,0.400000*%
%TD*%
%TA.AperFunction,Conductor*%
%ADD40C,0.250000*%
%TD*%
G04 APERTURE END LIST*
D10*
G36*
X1463812Y7671484D02*
G01*
X1463150Y7669069D01*
X1462339Y7668257D01*
X1460775Y7660396D01*
X1458659Y7652668D01*
X1459021Y7651580D01*
X1458533Y7649123D01*
X1458533Y7422832D01*
X1423646Y7353058D01*
X1353873Y7318171D01*
X1282242Y7318171D01*
X1212467Y7353058D01*
X1177580Y7422832D01*
X1177580Y7637320D01*
X1206101Y7694361D01*
X1475250Y7694361D01*
X1463812Y7671484D01*
G37*
G36*
X1526534Y10369936D02*
G01*
X1560069Y10336400D01*
X1601390Y10212439D01*
X1601390Y9937219D01*
X1177580Y9937219D01*
X1177580Y10256368D01*
X1216292Y10333792D01*
X1252437Y10369936D01*
X1329861Y10408647D01*
X1449111Y10408647D01*
X1526534Y10369936D01*
G37*
G36*
X2002724Y10322317D02*
G01*
X2038868Y10286172D01*
X2077580Y10208749D01*
X2077580Y9937219D01*
X1701390Y9937219D01*
X1701390Y10208749D01*
X1740101Y10286173D01*
X1776246Y10322317D01*
X1853670Y10361028D01*
X1925301Y10361028D01*
X2002724Y10322317D01*
G37*
G36*
X1669391Y11274698D02*
G01*
X1705535Y11238553D01*
X1744247Y11161130D01*
X1744247Y11041880D01*
X1705535Y10964457D01*
X1669391Y10928312D01*
X1591968Y10889600D01*
X1329861Y10889600D01*
X1252437Y10928312D01*
X1216292Y10964456D01*
X1177580Y11041880D01*
X1177580Y11161130D01*
X1216292Y11238554D01*
X1252437Y11274698D01*
X1329861Y11313409D01*
X1591968Y11313409D01*
X1669391Y11274698D01*
G37*
G36*
X1709360Y15849953D02*
G01*
X1744247Y15780179D01*
X1744247Y15613310D01*
X1709360Y15543536D01*
X1639587Y15508649D01*
X1521904Y15508649D01*
X1597142Y15884839D01*
X1639587Y15884839D01*
X1709360Y15849953D01*
G37*
G36*
X2288691Y6301342D02*
G01*
X966469Y6301342D01*
X966469Y6553885D01*
X1077580Y6553885D01*
X1077580Y6458647D01*
X1081386Y6439513D01*
X1108446Y6412453D01*
X1146714Y6412453D01*
X1173774Y6439513D01*
X1177580Y6458647D01*
X1177580Y6545771D01*
X1218901Y6669734D01*
X1297446Y6748279D01*
X1421408Y6789599D01*
X2127580Y6789599D01*
X2146714Y6793405D01*
X2173774Y6820465D01*
X2173774Y6858733D01*
X2146714Y6885793D01*
X2127580Y6889599D01*
X1413295Y6889599D01*
X1405433Y6888036D01*
X1397483Y6887033D01*
X1254627Y6839414D01*
X1252452Y6838174D01*
X1251304Y6838174D01*
X1244643Y6833724D01*
X1237678Y6829753D01*
X1237164Y6828726D01*
X1235083Y6827335D01*
X1139845Y6732097D01*
X1138454Y6730016D01*
X1137427Y6729502D01*
X1133455Y6722535D01*
X1129006Y6715876D01*
X1129006Y6714730D01*
X1127766Y6712554D01*
X1080146Y6569697D01*
X1079143Y6561747D01*
X1077580Y6553885D01*
X966469Y6553885D01*
X966469Y7649123D01*
X1077580Y7649123D01*
X1077580Y7411028D01*
X1078068Y7408572D01*
X1077706Y7407483D01*
X1079822Y7399756D01*
X1081386Y7391894D01*
X1082197Y7391083D01*
X1082859Y7388667D01*
X1130479Y7293429D01*
X1136581Y7285566D01*
X1137427Y7283030D01*
X1140249Y7280840D01*
X1142440Y7278017D01*
X1144975Y7277172D01*
X1152839Y7271069D01*
X1248077Y7223450D01*
X1250492Y7222789D01*
X1251304Y7221977D01*
X1259165Y7220414D01*
X1266893Y7218297D01*
X1267981Y7218660D01*
X1270438Y7218171D01*
X1365676Y7218171D01*
X1368132Y7218660D01*
X1369221Y7218297D01*
X1376948Y7220414D01*
X1384810Y7221977D01*
X1385621Y7222789D01*
X1388037Y7223450D01*
X1483274Y7271068D01*
X1491138Y7277172D01*
X1493674Y7278017D01*
X1495865Y7280841D01*
X1498686Y7283030D01*
X1499530Y7285564D01*
X1505635Y7293429D01*
X1553254Y7388667D01*
X1553915Y7391083D01*
X1554727Y7391894D01*
X1556290Y7399756D01*
X1558407Y7407483D01*
X1558044Y7408572D01*
X1558533Y7411028D01*
X1558533Y7637320D01*
X1587054Y7694361D01*
X1639587Y7694361D01*
X1709360Y7659475D01*
X1744247Y7589701D01*
X1744247Y7422832D01*
X1701907Y7338151D01*
X1696754Y7319335D01*
X1708855Y7283030D01*
X1743083Y7265916D01*
X1779388Y7278017D01*
X1791349Y7293429D01*
X1838968Y7388667D01*
X1839629Y7391083D01*
X1840441Y7391894D01*
X1842004Y7399756D01*
X1844121Y7407483D01*
X1843758Y7408572D01*
X1844247Y7411028D01*
X1844247Y7601504D01*
X1843758Y7603961D01*
X1844121Y7605049D01*
X1842004Y7612777D01*
X1840441Y7620638D01*
X1839629Y7621450D01*
X1838968Y7623865D01*
X1791349Y7719103D01*
X1785244Y7726969D01*
X1784400Y7729502D01*
X1781579Y7731692D01*
X1779388Y7734515D01*
X1776852Y7735361D01*
X1768988Y7741464D01*
X1673751Y7789082D01*
X1671335Y7789744D01*
X1670524Y7790555D01*
X1662662Y7792119D01*
X1654935Y7794235D01*
X1653846Y7793873D01*
X1651390Y7794361D01*
X1127580Y7794361D01*
X1108446Y7790555D01*
X1081386Y7763495D01*
X1081386Y7725227D01*
X1100282Y7706331D01*
X1082859Y7671484D01*
X1082197Y7669069D01*
X1081386Y7668257D01*
X1079822Y7660396D01*
X1077706Y7652668D01*
X1078068Y7651580D01*
X1077580Y7649123D01*
X966469Y7649123D01*
X966469Y8668257D01*
X1081386Y8668257D01*
X1081386Y8629989D01*
X1108446Y8602929D01*
X1127580Y8599123D01*
X1639587Y8599123D01*
X1709360Y8564237D01*
X1744247Y8494463D01*
X1744247Y8375213D01*
X1705535Y8297790D01*
X1678299Y8270552D01*
X1127580Y8270552D01*
X1108446Y8266746D01*
X1081386Y8239686D01*
X1081386Y8201418D01*
X1108446Y8174358D01*
X1127580Y8170552D01*
X1794247Y8170552D01*
X1813381Y8174358D01*
X1840441Y8201418D01*
X1840441Y8239686D01*
X1813381Y8266746D01*
X1802863Y8268839D01*
X1838968Y8341048D01*
X1839629Y8343464D01*
X1840441Y8344275D01*
X1842004Y8352137D01*
X1844121Y8359864D01*
X1843758Y8360953D01*
X1844247Y8363409D01*
X1844247Y8506266D01*
X1843758Y8508723D01*
X1844121Y8509811D01*
X1842004Y8517539D01*
X1840441Y8525400D01*
X1839629Y8526212D01*
X1838968Y8528627D01*
X1791349Y8623865D01*
X1785244Y8631731D01*
X1784400Y8634264D01*
X1781579Y8636454D01*
X1779388Y8639277D01*
X1776852Y8640123D01*
X1768988Y8646226D01*
X1673751Y8693844D01*
X1671335Y8694506D01*
X1670524Y8695317D01*
X1662662Y8696881D01*
X1654935Y8698997D01*
X1653846Y8698635D01*
X1651390Y8699123D01*
X1127580Y8699123D01*
X1108446Y8695317D01*
X1081386Y8668257D01*
X966469Y8668257D01*
X966469Y10268171D01*
X1077580Y10268171D01*
X1077580Y9887219D01*
X1081386Y9868085D01*
X1108446Y9841025D01*
X1127580Y9837219D01*
X2127580Y9837219D01*
X2146714Y9841025D01*
X2173774Y9868085D01*
X2177580Y9887219D01*
X2177580Y10220552D01*
X2177091Y10223009D01*
X2177454Y10224097D01*
X2175337Y10231825D01*
X2173774Y10239686D01*
X2172962Y10240498D01*
X2172301Y10242913D01*
X2124682Y10338151D01*
X2119770Y10344480D01*
X2115316Y10351146D01*
X2067697Y10398764D01*
X2061035Y10403216D01*
X2054702Y10408131D01*
X1959465Y10455749D01*
X1957049Y10456411D01*
X1956238Y10457222D01*
X1948376Y10458786D01*
X1940649Y10460902D01*
X1939560Y10460540D01*
X1937104Y10461028D01*
X1841866Y10461028D01*
X1839409Y10460540D01*
X1838321Y10460902D01*
X1830593Y10458786D01*
X1822732Y10457222D01*
X1821920Y10456411D01*
X1819505Y10455749D01*
X1724267Y10408130D01*
X1717938Y10403219D01*
X1711272Y10398764D01*
X1663654Y10351145D01*
X1661592Y10348060D01*
X1651205Y10379220D01*
X1649965Y10381396D01*
X1649965Y10382544D01*
X1645510Y10389211D01*
X1641544Y10396169D01*
X1640517Y10396683D01*
X1639126Y10398765D01*
X1591507Y10446383D01*
X1584845Y10450835D01*
X1578512Y10455750D01*
X1483275Y10503368D01*
X1480859Y10504030D01*
X1480048Y10504841D01*
X1472186Y10506405D01*
X1464459Y10508521D01*
X1463370Y10508159D01*
X1460914Y10508647D01*
X1318057Y10508647D01*
X1315600Y10508159D01*
X1314512Y10508521D01*
X1306784Y10506405D01*
X1298923Y10504841D01*
X1298111Y10504030D01*
X1295696Y10503368D01*
X1200458Y10455749D01*
X1194129Y10450838D01*
X1187463Y10446383D01*
X1139845Y10398764D01*
X1135394Y10392105D01*
X1130479Y10385770D01*
X1082859Y10290532D01*
X1082197Y10288117D01*
X1081386Y10287305D01*
X1079822Y10279444D01*
X1077706Y10271716D01*
X1078068Y10270628D01*
X1077580Y10268171D01*
X966469Y10268171D01*
X966469Y11172933D01*
X1077580Y11172933D01*
X1077580Y11030076D01*
X1078068Y11027620D01*
X1077706Y11026531D01*
X1079822Y11018804D01*
X1081386Y11010942D01*
X1082197Y11010131D01*
X1082859Y11007715D01*
X1130479Y10912477D01*
X1135394Y10906143D01*
X1139845Y10899483D01*
X1187463Y10851864D01*
X1194129Y10847410D01*
X1200458Y10842498D01*
X1295696Y10794879D01*
X1298111Y10794218D01*
X1298923Y10793406D01*
X1306784Y10791843D01*
X1314512Y10789726D01*
X1315600Y10790089D01*
X1318057Y10789600D01*
X1603771Y10789600D01*
X1606227Y10790089D01*
X1607316Y10789726D01*
X1615043Y10791843D01*
X1622905Y10793406D01*
X1623716Y10794218D01*
X1626132Y10794879D01*
X1721369Y10842497D01*
X1727702Y10847413D01*
X1734364Y10851864D01*
X1781983Y10899482D01*
X1786437Y10906149D01*
X1791349Y10912477D01*
X1812097Y10953972D01*
X1986148Y10953972D01*
X1986148Y10915704D01*
X1996987Y10899483D01*
X2044605Y10851864D01*
X2060826Y10841025D01*
X2060827Y10841025D01*
X2099095Y10841025D01*
X2115316Y10851864D01*
X2162935Y10899482D01*
X2173774Y10915703D01*
X2173774Y10953972D01*
X2173774Y10953973D01*
X2162935Y10970194D01*
X2115316Y11017812D01*
X2099095Y11028651D01*
X2060826Y11028651D01*
X2044605Y11017812D01*
X1996987Y10970193D01*
X1986149Y10953973D01*
X1986148Y10953972D01*
X1812097Y10953972D01*
X1838968Y11007715D01*
X1839629Y11010131D01*
X1840441Y11010942D01*
X1842004Y11018804D01*
X1844121Y11026531D01*
X1843758Y11027620D01*
X1844247Y11030076D01*
X1844247Y11172933D01*
X1843758Y11175390D01*
X1844121Y11176478D01*
X1842004Y11184206D01*
X1840441Y11192067D01*
X1839629Y11192879D01*
X1838968Y11195294D01*
X1791349Y11290532D01*
X1786437Y11296861D01*
X1781983Y11303527D01*
X1750585Y11334924D01*
X1986148Y11334924D01*
X1986148Y11296656D01*
X1996987Y11280435D01*
X2044605Y11232816D01*
X2060826Y11221977D01*
X2060827Y11221977D01*
X2099095Y11221977D01*
X2115316Y11232816D01*
X2162935Y11280434D01*
X2173774Y11296655D01*
X2173774Y11334924D01*
X2173774Y11334925D01*
X2162935Y11351146D01*
X2115316Y11398764D01*
X2099095Y11409603D01*
X2060826Y11409603D01*
X2044605Y11398764D01*
X1996987Y11351145D01*
X1986149Y11334925D01*
X1986148Y11334924D01*
X1750585Y11334924D01*
X1734364Y11351145D01*
X1727702Y11355597D01*
X1721369Y11360512D01*
X1626132Y11408130D01*
X1623716Y11408792D01*
X1622905Y11409603D01*
X1615043Y11411167D01*
X1607316Y11413283D01*
X1606227Y11412921D01*
X1603771Y11413409D01*
X1318057Y11413409D01*
X1315600Y11412921D01*
X1314512Y11413283D01*
X1306784Y11411167D01*
X1298923Y11409603D01*
X1298111Y11408792D01*
X1295696Y11408130D01*
X1200458Y11360511D01*
X1194129Y11355600D01*
X1187463Y11351145D01*
X1139845Y11303526D01*
X1135394Y11296867D01*
X1130479Y11290532D01*
X1082859Y11195294D01*
X1082197Y11192879D01*
X1081386Y11192067D01*
X1079822Y11184206D01*
X1077706Y11176478D01*
X1078068Y11175390D01*
X1077580Y11172933D01*
X966469Y11172933D01*
X966469Y11811115D01*
X1081386Y11811115D01*
X1081386Y11772847D01*
X1108446Y11745787D01*
X1127580Y11741981D01*
X1794247Y11741981D01*
X1813381Y11745787D01*
X1840441Y11772847D01*
X1840441Y11811115D01*
X1813381Y11838175D01*
X1794247Y11841981D01*
X1772101Y11841981D01*
X1781983Y11851863D01*
X1786437Y11858530D01*
X1791349Y11864858D01*
X1838968Y11960096D01*
X1839629Y11962512D01*
X1840441Y11963323D01*
X1842004Y11971185D01*
X1844121Y11978912D01*
X1843758Y11980001D01*
X1844247Y11982457D01*
X1844247Y12077695D01*
X1840441Y12096829D01*
X1813381Y12123889D01*
X1775113Y12123889D01*
X1748053Y12096829D01*
X1744247Y12077695D01*
X1744247Y11994261D01*
X1705535Y11916838D01*
X1669391Y11880693D01*
X1591968Y11841981D01*
X1127580Y11841981D01*
X1108446Y11838175D01*
X1081386Y11811115D01*
X966469Y11811115D01*
X966469Y12649124D01*
X1077580Y12649124D01*
X1077580Y12458648D01*
X1078068Y12456192D01*
X1077706Y12455103D01*
X1079822Y12447376D01*
X1081386Y12439514D01*
X1082197Y12438703D01*
X1082859Y12436287D01*
X1130479Y12341049D01*
X1142440Y12325637D01*
X1178745Y12313536D01*
X1212973Y12330650D01*
X1225074Y12366955D01*
X1219921Y12385771D01*
X1177580Y12470452D01*
X1177580Y12637321D01*
X1212467Y12707095D01*
X1282242Y12741981D01*
X1306254Y12741981D01*
X1376027Y12707095D01*
X1410914Y12637321D01*
X1410914Y12506267D01*
X1411402Y12503811D01*
X1411040Y12502722D01*
X1413156Y12494995D01*
X1414720Y12487133D01*
X1415531Y12486322D01*
X1416193Y12483906D01*
X1463811Y12388669D01*
X1469914Y12380805D01*
X1470760Y12378269D01*
X1473583Y12376078D01*
X1475773Y12373257D01*
X1478306Y12372413D01*
X1486172Y12366308D01*
X1581410Y12318689D01*
X1583825Y12318028D01*
X1584637Y12317216D01*
X1592498Y12315653D01*
X1600226Y12313536D01*
X1601314Y12313899D01*
X1603771Y12313410D01*
X1651390Y12313410D01*
X1653846Y12313899D01*
X1654935Y12313536D01*
X1662662Y12315653D01*
X1670524Y12317216D01*
X1671335Y12318028D01*
X1673751Y12318689D01*
X1768988Y12366307D01*
X1776852Y12372411D01*
X1779388Y12373256D01*
X1781579Y12376080D01*
X1784400Y12378269D01*
X1785244Y12380803D01*
X1791349Y12388668D01*
X1838968Y12483906D01*
X1839629Y12486322D01*
X1840441Y12487133D01*
X1842004Y12494995D01*
X1844121Y12502722D01*
X1843758Y12503811D01*
X1844247Y12506267D01*
X1844247Y12649124D01*
X1843758Y12651581D01*
X1844121Y12652669D01*
X1842004Y12660397D01*
X1840441Y12668258D01*
X1839629Y12669070D01*
X1838968Y12671485D01*
X1791349Y12766723D01*
X1779388Y12782135D01*
X1743083Y12794236D01*
X1708855Y12777122D01*
X1696754Y12740817D01*
X1701907Y12722001D01*
X1744247Y12637321D01*
X1744247Y12518071D01*
X1709360Y12448297D01*
X1639587Y12413410D01*
X1615575Y12413410D01*
X1545800Y12448297D01*
X1510914Y12518070D01*
X1510914Y12649124D01*
X1510425Y12651581D01*
X1510788Y12652669D01*
X1508671Y12660397D01*
X1507108Y12668258D01*
X1506296Y12669070D01*
X1505635Y12671485D01*
X1458016Y12766723D01*
X1451911Y12774589D01*
X1451067Y12777122D01*
X1448246Y12779312D01*
X1446055Y12782135D01*
X1443519Y12782981D01*
X1435655Y12789084D01*
X1340418Y12836702D01*
X1338002Y12837364D01*
X1337191Y12838175D01*
X1329329Y12839739D01*
X1321602Y12841855D01*
X1320513Y12841493D01*
X1318057Y12841981D01*
X1270438Y12841981D01*
X1267981Y12841493D01*
X1266893Y12841855D01*
X1259165Y12839739D01*
X1251304Y12838175D01*
X1250492Y12837364D01*
X1248077Y12836702D01*
X1152839Y12789083D01*
X1144975Y12782981D01*
X1142440Y12782135D01*
X1140249Y12779313D01*
X1137427Y12777122D01*
X1136581Y12774587D01*
X1130479Y12766723D01*
X1082859Y12671485D01*
X1082197Y12669070D01*
X1081386Y12668258D01*
X1079822Y12660397D01*
X1077706Y12652669D01*
X1078068Y12651581D01*
X1077580Y12649124D01*
X966469Y12649124D01*
X966469Y13553886D01*
X1077580Y13553886D01*
X1077580Y13363410D01*
X1078068Y13360954D01*
X1077706Y13359865D01*
X1079822Y13352138D01*
X1081386Y13344276D01*
X1082197Y13343465D01*
X1082859Y13341049D01*
X1130479Y13245811D01*
X1135394Y13239477D01*
X1139845Y13232817D01*
X1187463Y13185198D01*
X1194129Y13180744D01*
X1200458Y13175832D01*
X1295696Y13128213D01*
X1298111Y13127552D01*
X1298923Y13126740D01*
X1306784Y13125177D01*
X1314512Y13123060D01*
X1315600Y13123423D01*
X1318057Y13122934D01*
X1603771Y13122934D01*
X1606227Y13123423D01*
X1607316Y13123060D01*
X1615043Y13125177D01*
X1622905Y13126740D01*
X1623716Y13127552D01*
X1626132Y13128213D01*
X1721369Y13175831D01*
X1727702Y13180747D01*
X1734364Y13185198D01*
X1781983Y13232816D01*
X1786437Y13239483D01*
X1791349Y13245811D01*
X1838968Y13341049D01*
X1839629Y13343465D01*
X1840441Y13344276D01*
X1842004Y13352138D01*
X1844121Y13359865D01*
X1843758Y13360954D01*
X1844247Y13363410D01*
X1844247Y13553886D01*
X1843758Y13556343D01*
X1844121Y13557431D01*
X1842004Y13565159D01*
X1840441Y13573020D01*
X1839629Y13573832D01*
X1838968Y13576247D01*
X1791349Y13671485D01*
X1779388Y13686897D01*
X1743083Y13698998D01*
X1708855Y13681884D01*
X1696754Y13645579D01*
X1701907Y13626763D01*
X1744247Y13542083D01*
X1744247Y13375214D01*
X1705535Y13297791D01*
X1669391Y13261646D01*
X1591968Y13222934D01*
X1329861Y13222934D01*
X1252437Y13261646D01*
X1216292Y13297790D01*
X1177580Y13375214D01*
X1177580Y13542083D01*
X1219921Y13626763D01*
X1225074Y13645579D01*
X1212973Y13681884D01*
X1178745Y13698998D01*
X1142440Y13686897D01*
X1130479Y13671485D01*
X1082859Y13576247D01*
X1082197Y13573832D01*
X1081386Y13573020D01*
X1079822Y13565159D01*
X1077706Y13557431D01*
X1078068Y13556343D01*
X1077580Y13553886D01*
X966469Y13553886D01*
X966469Y14525401D01*
X1081386Y14525401D01*
X1081386Y14487133D01*
X1108446Y14460073D01*
X1127580Y14456267D01*
X1639587Y14456267D01*
X1709360Y14421381D01*
X1744247Y14351607D01*
X1744247Y14232357D01*
X1705535Y14154934D01*
X1678299Y14127696D01*
X1127580Y14127696D01*
X1108446Y14123890D01*
X1081386Y14096830D01*
X1081386Y14058562D01*
X1108446Y14031502D01*
X1127580Y14027696D01*
X2127580Y14027696D01*
X2146714Y14031502D01*
X2173774Y14058562D01*
X2173774Y14096830D01*
X2146714Y14123890D01*
X2127580Y14127696D01*
X1803720Y14127696D01*
X1838968Y14198192D01*
X1839629Y14200608D01*
X1840441Y14201419D01*
X1842004Y14209281D01*
X1844121Y14217008D01*
X1843758Y14218097D01*
X1844247Y14220553D01*
X1844247Y14363410D01*
X1843758Y14365867D01*
X1844121Y14366955D01*
X1842004Y14374683D01*
X1840441Y14382544D01*
X1839629Y14383356D01*
X1838968Y14385771D01*
X1791349Y14481009D01*
X1785244Y14488875D01*
X1784400Y14491408D01*
X1781579Y14493598D01*
X1779388Y14496421D01*
X1776852Y14497267D01*
X1768988Y14503370D01*
X1673751Y14550988D01*
X1671335Y14551650D01*
X1670524Y14552461D01*
X1662662Y14554025D01*
X1654935Y14556141D01*
X1653846Y14555779D01*
X1651390Y14556267D01*
X1127580Y14556267D01*
X1108446Y14552461D01*
X1081386Y14525401D01*
X966469Y14525401D01*
X966469Y15121770D01*
X1077706Y15121770D01*
X1082859Y15102954D01*
X1130479Y15007716D01*
X1136581Y14999853D01*
X1137427Y14997317D01*
X1140249Y14995127D01*
X1142440Y14992304D01*
X1144975Y14991459D01*
X1152839Y14985356D01*
X1248077Y14937737D01*
X1250492Y14937076D01*
X1251304Y14936264D01*
X1259165Y14934701D01*
X1266893Y14932584D01*
X1267981Y14932947D01*
X1270438Y14932458D01*
X2127580Y14932458D01*
X2146714Y14936264D01*
X2173774Y14963324D01*
X2173774Y15001592D01*
X2146714Y15028652D01*
X2127580Y15032458D01*
X1282242Y15032458D01*
X1212467Y15067345D01*
X1172301Y15147676D01*
X1160340Y15163088D01*
X1124035Y15175189D01*
X1089807Y15158075D01*
X1077706Y15121770D01*
X966469Y15121770D01*
X966469Y15791982D01*
X1077580Y15791982D01*
X1077580Y15601506D01*
X1078068Y15599050D01*
X1077706Y15597961D01*
X1079822Y15590234D01*
X1081386Y15582372D01*
X1082197Y15581561D01*
X1082859Y15579145D01*
X1130479Y15483907D01*
X1136581Y15476044D01*
X1137427Y15473508D01*
X1140249Y15471318D01*
X1142440Y15468495D01*
X1144975Y15467650D01*
X1152839Y15461547D01*
X1248077Y15413928D01*
X1250492Y15413267D01*
X1251304Y15412455D01*
X1259165Y15410892D01*
X1266893Y15408775D01*
X1267981Y15409138D01*
X1270438Y15408649D01*
X1651390Y15408649D01*
X1653846Y15409138D01*
X1654935Y15408775D01*
X1662662Y15410892D01*
X1670524Y15412455D01*
X1671335Y15413267D01*
X1673751Y15413928D01*
X1768988Y15461546D01*
X1776852Y15467650D01*
X1779388Y15468495D01*
X1781579Y15471319D01*
X1784400Y15473508D01*
X1785244Y15476042D01*
X1791349Y15483907D01*
X1838968Y15579145D01*
X1839629Y15581561D01*
X1840441Y15582372D01*
X1842004Y15590234D01*
X1844121Y15597961D01*
X1843758Y15599050D01*
X1844247Y15601506D01*
X1844247Y15791982D01*
X1843758Y15794439D01*
X1844121Y15795527D01*
X1842004Y15803255D01*
X1840441Y15811116D01*
X1839629Y15811928D01*
X1838968Y15814343D01*
X1791349Y15909581D01*
X1785244Y15917447D01*
X1784400Y15919980D01*
X1781579Y15922170D01*
X1779388Y15924993D01*
X1776852Y15925839D01*
X1768988Y15931942D01*
X1673751Y15979560D01*
X1671335Y15980222D01*
X1670524Y15981033D01*
X1662662Y15982597D01*
X1654935Y15984713D01*
X1653846Y15984351D01*
X1651390Y15984839D01*
X1556152Y15984839D01*
X1548903Y15983398D01*
X1546449Y15983888D01*
X1544355Y15982493D01*
X1537018Y15981033D01*
X1526721Y15970736D01*
X1514607Y15962660D01*
X1511737Y15955753D01*
X1509958Y15953973D01*
X1509958Y15951469D01*
X1507123Y15944644D01*
X1419924Y15508649D01*
X1282242Y15508649D01*
X1212467Y15543536D01*
X1177580Y15613310D01*
X1177580Y15780179D01*
X1219921Y15864859D01*
X1225074Y15883675D01*
X1212973Y15919980D01*
X1178745Y15937094D01*
X1142440Y15924993D01*
X1130479Y15909581D01*
X1082859Y15814343D01*
X1082197Y15811928D01*
X1081386Y15811116D01*
X1079822Y15803255D01*
X1077706Y15795527D01*
X1078068Y15794439D01*
X1077580Y15791982D01*
X966469Y15791982D01*
X966469Y16382545D01*
X1081386Y16382545D01*
X1081386Y16344277D01*
X1108446Y16317217D01*
X1127580Y16313411D01*
X1794247Y16313411D01*
X1813381Y16317217D01*
X1840441Y16344277D01*
X1840441Y16382545D01*
X1986148Y16382545D01*
X1986148Y16344277D01*
X1996987Y16328056D01*
X2044605Y16280437D01*
X2060826Y16269598D01*
X2060827Y16269598D01*
X2099095Y16269598D01*
X2115316Y16280437D01*
X2162935Y16328055D01*
X2173774Y16344276D01*
X2173774Y16382545D01*
X2173774Y16382546D01*
X2162935Y16398767D01*
X2115316Y16446385D01*
X2099095Y16457224D01*
X2060826Y16457224D01*
X2044605Y16446385D01*
X1996987Y16398766D01*
X1986149Y16382546D01*
X1986148Y16382545D01*
X1840441Y16382545D01*
X1813381Y16409605D01*
X1794247Y16413411D01*
X1127580Y16413411D01*
X1108446Y16409605D01*
X1081386Y16382545D01*
X966469Y16382545D01*
X966469Y17287306D01*
X1081386Y17287306D01*
X1081386Y17249038D01*
X1108446Y17221978D01*
X1127580Y17218172D01*
X1639587Y17218172D01*
X1709360Y17183286D01*
X1744247Y17113512D01*
X1744247Y16994262D01*
X1705535Y16916839D01*
X1678299Y16889601D01*
X1127580Y16889601D01*
X1108446Y16885795D01*
X1081386Y16858735D01*
X1081386Y16820467D01*
X1108446Y16793407D01*
X1127580Y16789601D01*
X1794247Y16789601D01*
X1813381Y16793407D01*
X1840441Y16820467D01*
X1840441Y16858735D01*
X1813381Y16885795D01*
X1802863Y16887888D01*
X1838968Y16960097D01*
X1839629Y16962513D01*
X1840441Y16963324D01*
X1842004Y16971186D01*
X1844121Y16978913D01*
X1843758Y16980002D01*
X1844247Y16982458D01*
X1844247Y17125315D01*
X1843758Y17127772D01*
X1844121Y17128860D01*
X1842004Y17136588D01*
X1840441Y17144449D01*
X1839629Y17145261D01*
X1838968Y17147676D01*
X1791349Y17242914D01*
X1785244Y17250780D01*
X1784400Y17253313D01*
X1781579Y17255503D01*
X1779388Y17258326D01*
X1776852Y17259172D01*
X1768988Y17265275D01*
X1673751Y17312893D01*
X1671335Y17313555D01*
X1670524Y17314366D01*
X1662662Y17315930D01*
X1654935Y17318046D01*
X1653846Y17317684D01*
X1651390Y17318172D01*
X1127580Y17318172D01*
X1108446Y17314366D01*
X1081386Y17287306D01*
X966469Y17287306D01*
X966469Y17429283D01*
X2288691Y17429283D01*
X2288691Y6301342D01*
G37*
D11*
%TO.P,J1,1,Pin_1_1*%
%TO.N,+12V*%
X55700000Y14200000D03*
D12*
%TO.P,J1,2,Pin_2_2*%
%TO.N,GND*%
X52700000Y14200000D03*
%TD*%
D13*
%TO.P,J2,S1,SHIELD_S1*%
%TO.N,Net-(J2-SHIELD)*%
X67790000Y6900000D03*
D14*
X67790000Y2720000D03*
D13*
X76430000Y6900000D03*
D14*
X76430000Y2720000D03*
%TD*%
D15*
%TO.P,H2,1,1_1*%
%TO.N,GND*%
X99000000Y2500000D03*
D16*
X99000000Y2500000D03*
%TD*%
D17*
%TO.P,R7,1*%
%TO.N,+12V*%
X58368900Y24279400D03*
%TO.P,R7,2*%
%TO.N,PROT_UV*%
X56718900Y24279400D03*
%TD*%
D18*
%TO.P,TP14,1,1_1*%
%TO.N,GND*%
X96100000Y11800000D03*
%TD*%
%TO.P,TP18,1,1_1*%
%TO.N,GPIO0*%
X85700000Y11700000D03*
%TD*%
D19*
%TO.P,C14,1*%
%TO.N,+12V*%
X61018900Y28279400D03*
%TO.P,C14,2*%
%TO.N,GND*%
X58068900Y28279400D03*
%TD*%
D20*
%TO.P,D3,1*%
%TO.N,+12V_PROTECTED*%
X42543900Y21779400D03*
%TO.P,D3,2*%
%TO.N,GND*%
X42543900Y25779400D03*
%TD*%
D21*
%TO.P,D4,1*%
%TO.N,GND*%
X63693900Y10779400D03*
%TO.P,D4,2*%
%TO.N,TVS_MID*%
X59393900Y10779400D03*
%TD*%
D17*
%TO.P,R10,1*%
%TO.N,PROT_ILIM*%
X46868900Y19779400D03*
%TO.P,R10,2*%
%TO.N,PROT_RTN*%
X45218900Y19779400D03*
%TD*%
D22*
%TO.P,TP6,1,1_1*%
%TO.N,/D+ Con*%
X73200000Y4800000D03*
%TD*%
D21*
%TO.P,D2,1*%
%TO.N,+12V*%
X63693900Y16279400D03*
%TO.P,D2,2*%
%TO.N,TVS_MID*%
X59393900Y16279400D03*
%TD*%
D18*
%TO.P,TP13,1,1_1*%
%TO.N,+3.3V*%
X98700000Y11800000D03*
%TD*%
D17*
%TO.P,R8,1*%
%TO.N,PROT_UV*%
X57868900Y21779400D03*
%TO.P,R8,2*%
%TO.N,PROT_OV*%
X56218900Y21779400D03*
%TD*%
D22*
%TO.P,TP5,1,1_1*%
%TO.N,/Power/5V USB IN*%
X73200000Y2700000D03*
%TD*%
D23*
%TO.P,R9,1*%
%TO.N,PROT_OV*%
X55956400Y18779400D03*
%TO.P,R9,2*%
%TO.N,PROT_RTN*%
X54131400Y18779400D03*
%TD*%
D18*
%TO.P,TP15,1,1_1*%
%TO.N,TX*%
X93500000Y11700000D03*
%TD*%
%TO.P,TP17,1,1_1*%
%TO.N,CHIP_PU*%
X88300000Y11700000D03*
%TD*%
%TO.P,TP16,1,1_1*%
%TO.N,RX*%
X90900000Y11700000D03*
%TD*%
D22*
%TO.P,TP7,1,1_1*%
%TO.N,/D- Con*%
X71100000Y4800000D03*
%TD*%
D24*
%TO.P,C15,1*%
%TO.N,+12V_PROTECTED*%
X45543900Y26829400D03*
%TO.P,C15,2*%
%TO.N,GND*%
X45543900Y28729400D03*
%TD*%
D22*
%TO.P,TP8,1,1_1*%
%TO.N,GND*%
X71100000Y2700000D03*
%TD*%
D25*
%TO.P,U6,1,IN*%
%TO.N,+12V*%
X54443900Y26054400D03*
%TO.P,U6,2,IN*%
X54443900Y25404400D03*
%TO.P,U6,3,UVLO*%
%TO.N,PROT_UV*%
X54443900Y24754399D03*
%TO.P,U6,4,NC*%
%TO.N,unconnected-(U6-NC-Pad4)*%
X54443900Y24104399D03*
%TO.P,U6,5,OVP*%
%TO.N,PROT_OV*%
X54443900Y23454400D03*
%TO.P,U6,6,MODE*%
%TO.N,unconnected-(U6-MODE-Pad6)*%
X54443900Y22804400D03*
%TO.P,U6,7,SHDN*%
%TO.N,unconnected-(U6-SHDN-Pad7)*%
X54443900Y22154400D03*
%TO.P,U6,8,RTN*%
%TO.N,PROT_RTN*%
X54443900Y21504400D03*
%TO.P,U6,9,GND*%
%TO.N,GND*%
X48643900Y21504400D03*
%TO.P,U6,10,IMON*%
%TO.N,unconnected-(U6-IMON-Pad10)*%
X48643900Y22154400D03*
%TO.P,U6,11,ILIM*%
%TO.N,PROT_ILIM*%
X48643900Y22804400D03*
%TO.P,U6,12,dVdT*%
%TO.N,PROT_DVDT*%
X48643900Y23454400D03*
%TO.P,U6,13,NC*%
%TO.N,unconnected-(U6-NC-Pad13)*%
X48643900Y24104399D03*
%TO.P,U6,14,FLT*%
%TO.N,unconnected-(U6-FLT-Pad14)*%
X48643900Y24754399D03*
%TO.P,U6,15,OUT*%
%TO.N,+12V_PROTECTED*%
X48643900Y25404400D03*
%TO.P,U6,16,OUT*%
X48643900Y26054400D03*
D26*
%TO.P,U6,17,EP_RTN*%
%TO.N,PROT_RTN*%
X51543900Y23779400D03*
%TD*%
D27*
%TO.P,JP1,1,A_1*%
%TO.N,GND*%
X71212500Y7600000D03*
%TO.P,JP1,2,B_2*%
%TO.N,Net-(J2-SHIELD)*%
X73037500Y7600000D03*
%TD*%
D19*
%TO.P,C17,1*%
%TO.N,+12V*%
X65818900Y28279400D03*
%TO.P,C17,2*%
%TO.N,GND*%
X62868900Y28279400D03*
%TD*%
D28*
%TO.P,C16,1*%
%TO.N,PROT_DVDT*%
X46818900Y22279400D03*
%TO.P,C16,2*%
%TO.N,PROT_RTN*%
X45268900Y22279400D03*
%TD*%
D15*
%TO.P,H1,1,1_1*%
%TO.N,GND*%
X9000000Y2500000D03*
D16*
X9000000Y2500000D03*
%TD*%
D29*
%TO.N,/Power/5V USB IN*%
X74500000Y8800000D03*
X72200000Y3700000D03*
X74225000Y5385000D03*
X69700000Y8800000D03*
D30*
%TO.N,GND*%
X45500000Y14500000D03*
X74750000Y2750000D03*
X44600000Y18800000D03*
X49000000Y10000000D03*
X36000000Y27000000D03*
D29*
X70225000Y12725000D03*
X83005460Y25926594D03*
D30*
X78070000Y22030000D03*
X59000000Y5000000D03*
X43250000Y27000000D03*
X44000000Y25500000D03*
X65000000Y5000000D03*
X58000000Y13250000D03*
X34000000Y12000000D03*
X70000000Y24000000D03*
X38000000Y3000000D03*
D29*
X68648387Y5651611D03*
D30*
X45990000Y32850000D03*
X15000000Y25000000D03*
D29*
X100450000Y24750000D03*
D30*
X67000000Y16000000D03*
X34000000Y29000000D03*
X60000000Y28000000D03*
X17000000Y27000000D03*
X74750000Y1700000D03*
X91250000Y28200000D03*
X82700000Y1700000D03*
X61000000Y5000000D03*
X78000000Y10000000D03*
X17000000Y29000000D03*
X48000000Y9000000D03*
X96000000Y6000000D03*
X70000000Y26000000D03*
X11000000Y21000000D03*
X12000000Y12000000D03*
X76000000Y12000000D03*
X36000000Y3000000D03*
X48990000Y32850000D03*
X48500000Y17500000D03*
D29*
X100460000Y26125000D03*
D30*
X44000000Y24750000D03*
X41250000Y16000000D03*
X68000000Y26000000D03*
X76000000Y10000000D03*
X1000000Y18000000D03*
X67000000Y14000000D03*
D29*
X79502000Y3800000D03*
D30*
X5000000Y5000000D03*
X40000000Y10500000D03*
X59000000Y3000000D03*
X52000000Y7010000D03*
X80000000Y13500000D03*
X69000000Y10000000D03*
X99000000Y7000000D03*
D29*
X88800000Y3000000D03*
D30*
X43990000Y32850000D03*
X1460779Y31912500D03*
X63000000Y3000000D03*
X92000000Y32000000D03*
X42500000Y26250000D03*
X38000000Y5000000D03*
X43250000Y17300000D03*
X77500000Y23000000D03*
D29*
X79000000Y17200000D03*
D30*
X5500000Y10000000D03*
X38000000Y29000000D03*
X36000000Y29000000D03*
X48000000Y3000000D03*
X76000000Y26000000D03*
X94000000Y32000000D03*
X60000000Y26000000D03*
X36000000Y18000000D03*
X100400000Y5600000D03*
X38000000Y15000000D03*
X48000000Y7000000D03*
X65000000Y3000000D03*
X99000000Y6000000D03*
X80000000Y10000000D03*
X69500000Y1700000D03*
X96000000Y2000000D03*
D29*
X75500000Y5500000D03*
D30*
X68000000Y24000000D03*
X90350000Y28200000D03*
X96000000Y1000000D03*
X32000000Y23000000D03*
X14000000Y10000000D03*
D29*
X72100000Y9600000D03*
D30*
X97000000Y6000000D03*
X58000000Y14500000D03*
X30000000Y8000000D03*
X100400000Y6600000D03*
X67000000Y12000000D03*
X97000000Y5000000D03*
X56640000Y6990000D03*
X97700000Y31550000D03*
X16000000Y8000000D03*
X13000000Y23000000D03*
X61000000Y3000000D03*
X44000000Y26250000D03*
X98000000Y7000000D03*
X30000000Y25000000D03*
X65000000Y10000000D03*
X96000000Y3000000D03*
X30000000Y27000000D03*
D29*
X63143900Y18279400D03*
D30*
X81800000Y1700000D03*
X50000000Y19000000D03*
X89550000Y1300000D03*
X77500000Y21000000D03*
X47000000Y29000000D03*
D29*
X84300000Y3400000D03*
D30*
X28000000Y29000000D03*
X58000000Y28000000D03*
X99300000Y31550000D03*
X97700000Y32300000D03*
X58000000Y26000000D03*
X80500000Y25000000D03*
X7000000Y10000000D03*
X47000000Y16000000D03*
X38000000Y27000000D03*
X32000000Y10000000D03*
X48000000Y5000000D03*
X51000000Y14000000D03*
X56000000Y28000000D03*
X77100000Y22050000D03*
X72000000Y26000000D03*
X28000000Y27000000D03*
X56000000Y26000000D03*
X65000000Y7000000D03*
X80200000Y25926594D03*
X42000000Y16000000D03*
X5000000Y3000000D03*
X50500000Y13000000D03*
X55200000Y17200000D03*
X44000000Y27000000D03*
X78000000Y13500000D03*
X61000000Y7000000D03*
X25600000Y4650000D03*
X96150000Y32300000D03*
D29*
X79990000Y17200000D03*
D30*
X34000000Y27000000D03*
X54000000Y14000000D03*
X50500000Y10000000D03*
X42900000Y13800000D03*
X99300000Y32300000D03*
X3000000Y5000000D03*
X46000000Y28000000D03*
X80500000Y23000000D03*
X95000000Y33000000D03*
X76000000Y13500000D03*
X67000000Y18000000D03*
X41250000Y15250000D03*
X59250000Y13250000D03*
X69500000Y2750000D03*
D29*
X48643900Y20929400D03*
D30*
X67000000Y10000000D03*
X77600000Y1700000D03*
X78000000Y12000000D03*
X78500000Y24000000D03*
D29*
X101200000Y7300000D03*
X100450000Y10150000D03*
D30*
X96150000Y31550000D03*
X1825000Y26500000D03*
X96000000Y4000000D03*
X40750000Y10500000D03*
X36000000Y20000000D03*
X63000000Y5000000D03*
X22500000Y27000000D03*
X40750000Y11250000D03*
D29*
X85213908Y27338910D03*
D30*
X91000000Y33000000D03*
X79500000Y25000000D03*
X43250000Y26250000D03*
X97000000Y7000000D03*
X75670000Y21020000D03*
X74000000Y26000000D03*
X98000000Y6000000D03*
X50500000Y11500000D03*
X15000000Y29000000D03*
X93000000Y33000000D03*
X78500000Y23000000D03*
X79500000Y24000000D03*
X3000000Y3000000D03*
D29*
X93600000Y4850000D03*
X65100000Y14000000D03*
D30*
X54000000Y28000000D03*
D29*
X68910000Y7475000D03*
D30*
X96000000Y5000000D03*
X69000000Y12000000D03*
X7000000Y5000000D03*
X60550000Y13250000D03*
X88000000Y1300000D03*
X80500000Y24000000D03*
X63000000Y7000000D03*
X79500000Y23000000D03*
X30000000Y29000000D03*
X76630000Y21010000D03*
X78700000Y1700000D03*
X79950000Y1700000D03*
X80000000Y12000000D03*
X66000000Y16000000D03*
X81050000Y1700000D03*
X15000000Y27000000D03*
D29*
X65000000Y12500000D03*
%TO.N,GPIO0*%
X85100000Y10400000D03*
D30*
%TO.N,+3.3V*%
X8510000Y25330000D03*
D29*
X83650000Y29300000D03*
X84200000Y15600000D03*
D30*
X95400000Y30100000D03*
X94050000Y30150000D03*
D29*
X99150000Y13650000D03*
X82900000Y29300000D03*
D31*
X35000000Y8590000D03*
D29*
X6143900Y16279400D03*
D30*
X10440000Y25310000D03*
D29*
X79200000Y16275000D03*
X9200000Y11000000D03*
X84425000Y29300000D03*
D31*
X38440000Y8590000D03*
D30*
X88400000Y31200000D03*
X88400000Y30300000D03*
%TO.N,CHIP_PU*%
X50340000Y31775000D03*
D29*
X88300000Y7000000D03*
X88300000Y14100000D03*
D30*
X50340000Y29900000D03*
%TO.N,GPIO7*%
X52340000Y29900000D03*
X52350000Y31775000D03*
D29*
%TO.N,/D+ Con*%
X72500000Y5650000D03*
%TO.N,/D- Con*%
X71749997Y5650000D03*
D30*
%TO.N,SDA*%
X8873946Y26406054D03*
X43393701Y30550809D03*
D29*
X9630000Y23440000D03*
D30*
X44825000Y30550000D03*
D29*
X7643900Y15279400D03*
D30*
X10375000Y26375000D03*
D29*
%TO.N,SCL*%
X5560000Y20300000D03*
X6743900Y14279400D03*
D30*
%TO.N,GPIO5*%
X51014152Y29889657D03*
X51014152Y31775000D03*
%TO.N,GPIO6*%
X51664124Y31775000D03*
X51664124Y29895876D03*
D29*
%TO.N,DSP_RES*%
X81300000Y16700000D03*
X84000000Y16700000D03*
%TO.N,RX*%
X92150000Y10450000D03*
%TO.N,TX*%
X94800000Y10450000D03*
D31*
%TO.N,+12V_PROTECTED*%
X46757500Y8283700D03*
%TD*%
%TO.N,/Power/5V USB IN*%
D32*
X74225000Y3725000D02*
X73200000Y2700000D01*
D33*
X73500000Y8800000D02*
X73827978Y8800000D01*
X70800000Y8800000D02*
X73500000Y8800000D01*
D32*
X73200000Y2700000D02*
X72200000Y3700000D01*
D33*
X74117978Y8800000D02*
X74500000Y8800000D01*
D32*
X69700000Y8800000D02*
X70111010Y8800000D01*
X74225000Y5385000D02*
X74225000Y3725000D01*
D33*
X73827978Y8800000D02*
X74500000Y8800000D01*
X70401010Y8800000D02*
X69700000Y8800000D01*
X70800000Y8800000D02*
X70401010Y8800000D01*
%TO.N,GND*%
D34*
X14100000Y25900000D02*
X15000000Y25000000D01*
D32*
X70225000Y10175000D02*
X70225000Y12725000D01*
D35*
X100400000Y10100000D02*
X97800000Y10100000D01*
D34*
X4975000Y27025000D02*
X5500000Y26500000D01*
D35*
X70100000Y6700000D02*
X69325000Y7475000D01*
X98000000Y5750000D02*
X98000000Y6000000D01*
D33*
X12690000Y16000000D02*
X36950000Y16000000D01*
D35*
X79502000Y3800000D02*
X81500000Y3800000D01*
X70400000Y6200000D02*
X71400000Y6200000D01*
D34*
X4587500Y31912500D02*
X4975000Y31525000D01*
D32*
X70800000Y9600000D02*
X70225000Y10175000D01*
X79000000Y17200000D02*
X79300000Y17500000D01*
D33*
X43250000Y17300000D02*
X43250000Y17450000D01*
D35*
X70100000Y5900000D02*
X70050000Y5850000D01*
D34*
X74205000Y6200000D02*
X71400000Y6200000D01*
D35*
X71212500Y7600000D02*
X71400000Y7412500D01*
D32*
X91250000Y28200000D02*
X98385000Y28200000D01*
D35*
X97800000Y10100000D02*
X96100000Y11800000D01*
D32*
X72100000Y9600000D02*
X70800000Y9600000D01*
D33*
X25600000Y4650000D02*
X36950000Y16000000D01*
D35*
X100450000Y24750000D02*
X100450000Y10150000D01*
D34*
X5500000Y26500000D02*
X1825000Y26500000D01*
D35*
X81500000Y3800000D02*
X82200000Y3100000D01*
D34*
X6100000Y25900000D02*
X14100000Y25900000D01*
D33*
X43250000Y17450000D02*
X44600000Y18800000D01*
D35*
X100400000Y6600000D02*
X99400000Y6600000D01*
X99400000Y6600000D02*
X99000000Y7000000D01*
D34*
X79990000Y17470000D02*
X80020000Y17500000D01*
D35*
X96000000Y6000000D02*
X96250000Y5750000D01*
X88750000Y3050000D02*
X88800000Y3000000D01*
D32*
X79300000Y17500000D02*
X79700000Y17500000D01*
X71100000Y2700000D02*
X69600000Y4200000D01*
D35*
X97250000Y5750000D02*
X98000000Y5750000D01*
D34*
X1460779Y31912500D02*
X4587500Y31912500D01*
D32*
X67275000Y12725000D02*
X65225000Y12725000D01*
D35*
X79502000Y3800000D02*
X77200000Y3800000D01*
D32*
X85213908Y26488908D02*
X85213908Y27338910D01*
D35*
X96750000Y5750000D02*
X97000000Y6000000D01*
X70100000Y6400000D02*
X70100000Y6700000D01*
X97000000Y6000000D02*
X97250000Y5750000D01*
X84000000Y3100000D02*
X84300000Y3400000D01*
D32*
X83005460Y25926594D02*
X84651594Y25926594D01*
D35*
X70050000Y5850000D02*
X70400000Y6200000D01*
X71400000Y7412500D02*
X71400000Y6200000D01*
X69600000Y5400000D02*
X70050000Y5850000D01*
X68545000Y5745000D02*
X68638389Y5651611D01*
D34*
X51800000Y13800000D02*
X52700000Y14700000D01*
D32*
X79700000Y17500000D02*
X80020000Y17500000D01*
D35*
X84300000Y3400000D02*
X84650000Y3050000D01*
X91700000Y3050000D02*
X88850000Y3050000D01*
X93500000Y4850000D02*
X91700000Y3050000D01*
D34*
X4975000Y31525000D02*
X4975000Y27025000D01*
D32*
X80020000Y17500000D02*
X90400000Y17500000D01*
X48643900Y21504400D02*
X48643900Y20929400D01*
D35*
X88850000Y3050000D02*
X88800000Y3000000D01*
X93600000Y4850000D02*
X94500000Y5750000D01*
X101200000Y7300000D02*
X101100000Y7300000D01*
X101100000Y7300000D02*
X100400000Y6600000D01*
D32*
X91250000Y28200000D02*
X90350000Y28200000D01*
D35*
X70100000Y6400000D02*
X70100000Y5900000D01*
D32*
X84651594Y25926594D02*
X85213908Y26488908D01*
D35*
X69900000Y5700000D02*
X70100000Y5900000D01*
D33*
X36950000Y16000000D02*
X42000000Y16000000D01*
D35*
X68648387Y5651611D02*
X68899998Y5400000D01*
D32*
X65100000Y14000000D02*
X66375000Y12725000D01*
D35*
X99000000Y4750000D02*
X98000000Y5750000D01*
D32*
X86074998Y28200000D02*
X85213908Y27338910D01*
D35*
X84650000Y3050000D02*
X88750000Y3050000D01*
X94500000Y5750000D02*
X95750000Y5750000D01*
D33*
X44000000Y24750000D02*
X44000000Y19400000D01*
D34*
X74905000Y5500000D02*
X74205000Y6200000D01*
X79990000Y17200000D02*
X79990000Y17470000D01*
D32*
X98385000Y28200000D02*
X100460000Y26125000D01*
D35*
X93600000Y4850000D02*
X93500000Y4850000D01*
D32*
X70225000Y12725000D02*
X67275000Y12725000D01*
D35*
X98000000Y6000000D02*
X99000000Y7000000D01*
X82200000Y3100000D02*
X84000000Y3100000D01*
X96250000Y5750000D02*
X96750000Y5750000D01*
D32*
X65225000Y12725000D02*
X65000000Y12500000D01*
D34*
X75500000Y5500000D02*
X74905000Y5500000D01*
D32*
X69600000Y4200000D02*
X69600000Y5400000D01*
D35*
X68638389Y5651611D02*
X68648387Y5651611D01*
X99000000Y2500000D02*
X99000000Y4750000D01*
D32*
X90400000Y17500000D02*
X96100000Y11800000D01*
D35*
X68899998Y5400000D02*
X69600000Y5400000D01*
D34*
X42900000Y13800000D02*
X51800000Y13800000D01*
D36*
X53562500Y15562500D02*
X52700000Y14700000D01*
D35*
X100450000Y10150000D02*
X100400000Y10100000D01*
X69325000Y7475000D02*
X68910000Y7475000D01*
D32*
X90350000Y28200000D02*
X86074998Y28200000D01*
D37*
X64200000Y13300000D02*
X65000000Y12500000D01*
D36*
X53562500Y15562500D02*
X55200000Y17200000D01*
D34*
X5500000Y26500000D02*
X6100000Y25900000D01*
D35*
X68899998Y5400000D02*
X69200000Y5400000D01*
X95750000Y5750000D02*
X96000000Y6000000D01*
D32*
X66375000Y12725000D02*
X67275000Y12725000D01*
D35*
X77200000Y3800000D02*
X75500000Y5500000D01*
%TO.N,GPIO0*%
X85700000Y11700000D02*
X85700000Y11000000D01*
X85700000Y11000000D02*
X85100000Y10400000D01*
%TO.N,+3.3V*%
D38*
X98700000Y11800000D02*
X98700000Y13200000D01*
D32*
X6143900Y16279400D02*
X6143900Y11000000D01*
D36*
X88400000Y30300000D02*
X88600000Y30100000D01*
D39*
X83800000Y16000000D02*
X79300000Y16000000D01*
D36*
X84425000Y29300000D02*
X85225000Y30100000D01*
X85225000Y30100000D02*
X88325000Y30100000D01*
X84425000Y29300000D02*
X83650000Y29300000D01*
X88600000Y30100000D02*
X95400000Y30100000D01*
X88325000Y30100000D02*
X88400000Y30300000D01*
D39*
X10440000Y25310000D02*
X10420000Y25330000D01*
X79300000Y16000000D02*
X79200000Y16100000D01*
X10420000Y25330000D02*
X8510000Y25330000D01*
D38*
X88400000Y30300000D02*
X88400000Y31200000D01*
D36*
X83650000Y29300000D02*
X83100000Y29300000D01*
D39*
X84200000Y15600000D02*
X83800000Y16000000D01*
D37*
X35000000Y8590000D02*
X38440000Y8590000D01*
D32*
X6143900Y11000000D02*
X9200000Y11000000D01*
D38*
X98700000Y13200000D02*
X99150000Y13650000D01*
D32*
X79200000Y16275000D02*
X79200000Y16100000D01*
%TO.N,CHIP_PU*%
D34*
X50340000Y31775000D02*
X50340000Y29900000D01*
D35*
X88300000Y7000000D02*
X88300000Y11700000D01*
X88300000Y14100000D02*
X88300000Y11700000D01*
%TO.N,+12V*%
D33*
X60108100Y19865300D02*
X63693900Y16279400D01*
X58368900Y24279400D02*
X59391900Y23256400D01*
X58346900Y24301400D02*
X58346900Y25325400D01*
X55595600Y25404400D02*
X55674600Y25325400D01*
X61018900Y27997400D02*
X61018900Y28279400D01*
X60108100Y19865300D02*
X57349700Y17106900D01*
X59391900Y20581400D02*
X60108100Y19865300D01*
X61018900Y28279400D02*
X61018900Y28734100D01*
X54443900Y25404400D02*
X55595600Y25404400D01*
X61918300Y29633500D02*
X64164800Y29633500D01*
X58368900Y24279400D02*
X58346900Y24301400D01*
X58346900Y25325400D02*
X61018900Y27997400D01*
X61018900Y28734100D02*
X61918300Y29633500D01*
X55674600Y25325400D02*
X58346900Y25325400D01*
X57349700Y17011400D02*
X55700000Y15361700D01*
X54443900Y25404400D02*
X54443900Y26054400D01*
X59391900Y23256400D02*
X59391900Y20581400D01*
X55700000Y14200000D02*
X55700000Y15361700D01*
X64164800Y29633500D02*
X65818900Y28279400D01*
X57349700Y17106900D02*
X57349700Y17011400D01*
%TO.N,GPIO7*%
D34*
X52340000Y31765000D02*
X52340000Y29900000D01*
X52350000Y31775000D02*
X52340000Y31765000D01*
%TO.N,/D+ Con*%
D35*
X72500000Y5650000D02*
X73200000Y4950000D01*
X73200000Y4950000D02*
X73200000Y4800000D01*
%TO.N,/D- Con*%
X71100000Y4800000D02*
X71100000Y5000003D01*
X71100000Y5000003D02*
X71749997Y5650000D01*
%TO.N,Net-(J2-SHIELD)*%
D34*
X72443900Y8229400D02*
X76430000Y8229400D01*
X70093900Y8229400D02*
X70293900Y8314400D01*
X70293900Y8314400D02*
X72143900Y8314400D01*
X76430000Y8229400D02*
X76430000Y6900000D01*
X75780000Y6900000D02*
X75080000Y7600000D01*
D40*
X67790000Y6900000D02*
X67790000Y2720000D01*
D34*
X75080000Y7600000D02*
X73037500Y7600000D01*
X72143900Y8314400D02*
X72443900Y8229400D01*
X67790000Y8229400D02*
X70093900Y8229400D01*
X76430000Y6900000D02*
X75780000Y6900000D01*
D40*
X76430000Y879400D02*
X76430000Y2720000D01*
X67790000Y879400D02*
X76430000Y879400D01*
X67790000Y2720000D02*
X67790000Y879400D01*
D34*
X67790000Y6900000D02*
X67790000Y8229400D01*
%TO.N,SDA*%
D35*
X7643900Y21453900D02*
X9630000Y23440000D01*
X44825000Y30550000D02*
X43394510Y30550000D01*
X7643900Y15279400D02*
X7643900Y21453900D01*
X43394510Y30550000D02*
X43393701Y30550809D01*
X10375000Y26375000D02*
X10343946Y26406054D01*
X10343946Y26406054D02*
X8873946Y26406054D01*
%TO.N,SCL*%
X6743900Y19116100D02*
X5560000Y20300000D01*
X6743900Y14279400D02*
X6743900Y19116100D01*
%TO.N,GPIO5*%
D34*
X51014152Y31775000D02*
X51014152Y29889657D01*
%TO.N,GPIO6*%
X51664124Y31775000D02*
X51664124Y29895876D01*
%TO.N,DSP_RES*%
D32*
X84000000Y16700000D02*
X81300000Y16700000D01*
%TO.N,RX*%
D35*
X90900000Y11700000D02*
X92150000Y10450000D01*
%TO.N,TX*%
X93550000Y11700000D02*
X94800000Y10450000D01*
X93500000Y11700000D02*
X93550000Y11700000D01*
%TO.N,+12V_PROTECTED*%
D33*
X46757500Y8283700D02*
X42215800Y12825400D01*
X46318900Y26054400D02*
X45543900Y26829400D01*
X42215800Y12825400D02*
X42215800Y14861200D01*
X41231500Y23091800D02*
X42543900Y21779400D01*
X48643900Y26054400D02*
X48643900Y25404400D01*
X48643900Y26054400D02*
X46318900Y26054400D01*
X41231500Y27067900D02*
X41231500Y23091800D01*
X45543900Y26829400D02*
X44683500Y27689800D01*
X44683500Y27689800D02*
X41853400Y27689800D01*
X41853400Y27689800D02*
X41231500Y27067900D01*
X42543900Y16706100D02*
X42543900Y21779400D01*
X42659000Y15304400D02*
X42659000Y16591000D01*
X42215800Y14861200D02*
X42659000Y15304400D01*
X42659000Y16591000D02*
X42543900Y16706100D01*
%TO.N,PROT_UV*%
D40*
X56718900Y22929400D02*
X56718900Y24279400D01*
X54443900Y24754400D02*
X56243900Y24754400D01*
X57868900Y21779400D02*
X56718900Y22929400D01*
X56243900Y24754400D02*
X56718900Y24279400D01*
%TO.N,TVS_MID*%
D38*
X61408700Y12794200D02*
X61408700Y14264600D01*
X59393900Y10779400D02*
X61408700Y12794200D01*
X61408700Y14264600D02*
X59393900Y16279400D01*
%TO.N,PROT_ILIM*%
D40*
X47617200Y20527700D02*
X46868900Y19779400D01*
X47617200Y22804400D02*
X47617200Y20527700D01*
X48643900Y22804400D02*
X47617200Y22804400D01*
%TO.N,PROT_RTN*%
X46001800Y18996500D02*
X45218900Y19779400D01*
X54443900Y21504400D02*
X53417200Y21504400D01*
X47553600Y18996500D02*
X46001800Y18996500D01*
X54131400Y18779400D02*
X53417200Y19493600D01*
X51556400Y22999300D02*
X47553600Y18996500D01*
X51543900Y23779400D02*
X51556400Y23766900D01*
X53417200Y19493600D02*
X53417200Y21504400D01*
X45218900Y22229400D02*
X45218900Y19779400D01*
X51556400Y23766900D02*
X51556400Y22999300D01*
X51922300Y22999300D02*
X53417200Y21504400D01*
X51556400Y22999300D02*
X51922300Y22999300D01*
X45268900Y22279400D02*
X45218900Y22229400D01*
%TO.N,PROT_OV*%
X55470600Y23454400D02*
X55470600Y22527700D01*
X56218900Y19041900D02*
X56218900Y21779400D01*
X55956400Y18779400D02*
X56218900Y19041900D01*
X54443900Y23454400D02*
X55470600Y23454400D01*
X55470600Y22527700D02*
X56218900Y21779400D01*
%TO.N,PROT_DVDT*%
X46818900Y22656100D02*
X47617200Y23454400D01*
X46818900Y22279400D02*
X46818900Y22656100D01*
X48643900Y23454400D02*
X47617200Y23454400D01*
%TD*%
%TA.AperFunction,Conductor*%
%TO.N,GND*%
G36*
X99003736Y33499274D02*
G01*
X99293796Y33481729D01*
X99308659Y33479924D01*
X99590797Y33428220D01*
X99605334Y33424637D01*
X99879182Y33339302D01*
X99893163Y33334000D01*
X100154734Y33216276D01*
X100167987Y33209320D01*
X100413458Y33060929D01*
X100425776Y33052427D01*
X100651573Y32875526D01*
X100662781Y32865596D01*
X100865595Y32662782D01*
X100875525Y32651574D01*
X101041214Y32440088D01*
X101052422Y32425783D01*
X101060928Y32413459D01*
X101209319Y32167988D01*
X101216277Y32154731D01*
X101333994Y31893177D01*
X101339304Y31879175D01*
X101424635Y31605336D01*
X101428219Y31590798D01*
X101479923Y31308660D01*
X101481728Y31293795D01*
X101499274Y31003737D01*
X101499500Y30996250D01*
X101499500Y3353236D01*
X101479815Y3286197D01*
X101427011Y3240442D01*
X101357853Y3230498D01*
X101294297Y3259523D01*
X101258459Y3312281D01*
X101220807Y3419882D01*
X101220801Y3419896D01*
X101103847Y3662753D01*
X100960429Y3891003D01*
X100960427Y3891007D01*
X100864653Y4011100D01*
X100864652Y4011101D01*
X99936290Y3082738D01*
X99839033Y3216602D01*
X99716602Y3339033D01*
X99582736Y3436291D01*
X100511099Y4364654D01*
X100390998Y4460432D01*
X100162752Y4603848D01*
X99919895Y4720802D01*
X99919881Y4720808D01*
X99665463Y4809833D01*
X99665451Y4809837D01*
X99402651Y4869819D01*
X99402633Y4869822D01*
X99134787Y4900000D01*
X98865212Y4900000D01*
X98597366Y4869822D01*
X98597348Y4869819D01*
X98334548Y4809837D01*
X98334536Y4809833D01*
X98080118Y4720808D01*
X98080104Y4720802D01*
X97837247Y4603848D01*
X97609001Y4460432D01*
X97488899Y4364655D01*
X98417263Y3436291D01*
X98283398Y3339033D01*
X98160967Y3216602D01*
X98063709Y3082738D01*
X97135345Y4011101D01*
X97039568Y3890999D01*
X96896152Y3662753D01*
X96779198Y3419896D01*
X96779192Y3419882D01*
X96690167Y3165464D01*
X96690163Y3165452D01*
X96630181Y2902652D01*
X96630178Y2902634D01*
X96600000Y2634788D01*
X96600000Y2365213D01*
X96630178Y2097367D01*
X96630181Y2097349D01*
X96690163Y1834549D01*
X96690167Y1834537D01*
X96779192Y1580119D01*
X96779198Y1580105D01*
X96896152Y1337248D01*
X97039568Y1109002D01*
X97135346Y988901D01*
X98063708Y1917264D01*
X98160967Y1783398D01*
X98283398Y1660967D01*
X98417262Y1563710D01*
X97488900Y635349D01*
X97489119Y631453D01*
X97473224Y563415D01*
X97423069Y514771D01*
X97365314Y500500D01*
X77135671Y500500D01*
X77068632Y520185D01*
X77022877Y572989D01*
X77012933Y642147D01*
X77021109Y671951D01*
X77022201Y674591D01*
X77031463Y696948D01*
X77055500Y817794D01*
X77055500Y1479217D01*
X77075185Y1546256D01*
X77091814Y1566894D01*
X77207139Y1682218D01*
X77316632Y1846086D01*
X77392051Y2028165D01*
X77415972Y2148422D01*
X77430500Y2221457D01*
X77430500Y3218544D01*
X77392052Y3411830D01*
X77392051Y3411831D01*
X77392051Y3411835D01*
X77369407Y3466503D01*
X77316635Y3593908D01*
X77316628Y3593921D01*
X77207139Y3757782D01*
X77207136Y3757786D01*
X77067785Y3897137D01*
X77067781Y3897140D01*
X76903920Y4006629D01*
X76903907Y4006636D01*
X76721839Y4082050D01*
X76721829Y4082053D01*
X76528543Y4120500D01*
X76528541Y4120500D01*
X76331459Y4120500D01*
X76331457Y4120500D01*
X76138170Y4082053D01*
X76138160Y4082050D01*
X75956092Y4006636D01*
X75956079Y4006629D01*
X75792218Y3897140D01*
X75792214Y3897137D01*
X75652863Y3757786D01*
X75652860Y3757782D01*
X75543371Y3593921D01*
X75543364Y3593908D01*
X75467950Y3411840D01*
X75467947Y3411830D01*
X75429500Y3218544D01*
X75429500Y3218541D01*
X75429500Y2221459D01*
X75429500Y2221457D01*
X75429499Y2221457D01*
X75467947Y2028171D01*
X75467950Y2028161D01*
X75543364Y1846093D01*
X75543371Y1846080D01*
X75642455Y1697791D01*
X75663333Y1631113D01*
X75644848Y1563733D01*
X75592870Y1517043D01*
X75539353Y1504900D01*
X73552595Y1504900D01*
X73485556Y1524585D01*
X73439801Y1577389D01*
X73429857Y1646547D01*
X73458882Y1710103D01*
X73505143Y1743461D01*
X73673907Y1813365D01*
X73673907Y1813366D01*
X73673914Y1813368D01*
X73837782Y1922861D01*
X73977139Y2062218D01*
X74086632Y2226086D01*
X74162051Y2408165D01*
X74200500Y2601459D01*
X74200500Y2729192D01*
X74220185Y2796231D01*
X74236819Y2816873D01*
X74730273Y3310327D01*
X74730277Y3310331D01*
X74801465Y3416873D01*
X74850501Y3535256D01*
X74863380Y3600000D01*
X74875500Y3660929D01*
X74875500Y4880065D01*
X74895185Y4947104D01*
X74896366Y4948910D01*
X74934394Y5005821D01*
X74994737Y5151503D01*
X75025500Y5306158D01*
X75025500Y5463842D01*
X75025500Y5463845D01*
X75025499Y5463847D01*
X75005447Y5564655D01*
X74994737Y5618497D01*
X74979852Y5654434D01*
X74972383Y5723904D01*
X75003659Y5786383D01*
X75063748Y5822034D01*
X75073764Y5823964D01*
X75075764Y5824500D01*
X75075766Y5824500D01*
X75222135Y5863719D01*
X75353365Y5939485D01*
X75353366Y5939487D01*
X75360403Y5943549D01*
X75361749Y5941217D01*
X75414553Y5961643D01*
X75483001Y5947619D01*
X75533001Y5898815D01*
X75539458Y5885526D01*
X75543367Y5876087D01*
X75543371Y5876080D01*
X75652860Y5712219D01*
X75652863Y5712215D01*
X75792214Y5572864D01*
X75792218Y5572861D01*
X75956079Y5463372D01*
X75956092Y5463365D01*
X76138160Y5387951D01*
X76138165Y5387949D01*
X76138169Y5387949D01*
X76138170Y5387948D01*
X76331456Y5349500D01*
X76331459Y5349500D01*
X76528543Y5349500D01*
X76658582Y5375368D01*
X76721835Y5387949D01*
X76903914Y5463368D01*
X77067782Y5572861D01*
X77207139Y5712218D01*
X77316632Y5876086D01*
X77317321Y5877748D01*
X77333721Y5917345D01*
X77392051Y6058165D01*
X77420165Y6199501D01*
X77430500Y6251457D01*
X77430500Y7548544D01*
X77392052Y7741830D01*
X77392051Y7741831D01*
X77392051Y7741835D01*
X77370742Y7793280D01*
X77316635Y7923908D01*
X77316628Y7923921D01*
X77207139Y8087782D01*
X77207136Y8087786D01*
X77067785Y8227137D01*
X77067780Y8227141D01*
X77056185Y8234889D01*
X77011382Y8288503D01*
X77005305Y8305892D01*
X76966281Y8451535D01*
X76890515Y8582765D01*
X76783365Y8689915D01*
X76717750Y8727798D01*
X76652136Y8765681D01*
X76578950Y8785291D01*
X76505766Y8804900D01*
X76505765Y8804900D01*
X75416972Y8804900D01*
X75349933Y8824585D01*
X75304178Y8877389D01*
X75295355Y8904709D01*
X75269738Y9033490D01*
X75269737Y9033497D01*
X75269735Y9033502D01*
X75209397Y9179173D01*
X75209390Y9179186D01*
X75121789Y9310289D01*
X75121786Y9310293D01*
X75010292Y9421787D01*
X75010288Y9421790D01*
X74879185Y9509391D01*
X74879172Y9509398D01*
X74733501Y9569736D01*
X74733489Y9569739D01*
X74578845Y9600500D01*
X74578842Y9600500D01*
X74421158Y9600500D01*
X74421155Y9600500D01*
X74266511Y9569740D01*
X74266506Y9569738D01*
X74266504Y9569738D01*
X74266503Y9569737D01*
X74242844Y9559938D01*
X74195396Y9550500D01*
X70004604Y9550500D01*
X69957155Y9559938D01*
X69933497Y9569737D01*
X69933493Y9569738D01*
X69933488Y9569740D01*
X69778845Y9600500D01*
X69778842Y9600500D01*
X69621158Y9600500D01*
X69621155Y9600500D01*
X69466510Y9569739D01*
X69466498Y9569736D01*
X69320827Y9509398D01*
X69320814Y9509391D01*
X69189711Y9421790D01*
X69189707Y9421787D01*
X69078213Y9310293D01*
X69078210Y9310289D01*
X68990609Y9179186D01*
X68990602Y9179173D01*
X68930264Y9033502D01*
X68930261Y9033490D01*
X68904645Y8904709D01*
X68872260Y8842798D01*
X68811545Y8808224D01*
X68783028Y8804900D01*
X67714234Y8804900D01*
X67567863Y8765681D01*
X67436635Y8689915D01*
X67436632Y8689913D01*
X67329487Y8582768D01*
X67329485Y8582765D01*
X67278504Y8494463D01*
X67253719Y8451535D01*
X67232513Y8372391D01*
X67214695Y8305895D01*
X67178330Y8246235D01*
X67163817Y8234891D01*
X67152220Y8227142D01*
X67152214Y8227137D01*
X67012863Y8087786D01*
X67012860Y8087782D01*
X66903371Y7923921D01*
X66903364Y7923908D01*
X66827950Y7741840D01*
X66827947Y7741830D01*
X66789500Y7548544D01*
X66789500Y7548541D01*
X66789500Y6251459D01*
X66789500Y6251457D01*
X66789499Y6251457D01*
X66827947Y6058171D01*
X66827950Y6058161D01*
X66903364Y5876093D01*
X66903371Y5876080D01*
X67012859Y5712220D01*
X67012860Y5712219D01*
X67012861Y5712218D01*
X67128182Y5596897D01*
X67161666Y5535576D01*
X67164500Y5509217D01*
X67164500Y3960784D01*
X67144815Y3893745D01*
X67128181Y3873103D01*
X67012863Y3757786D01*
X67012860Y3757782D01*
X66903371Y3593921D01*
X66903364Y3593908D01*
X66827950Y3411840D01*
X66827947Y3411830D01*
X66789500Y3218544D01*
X66789500Y3218541D01*
X66789500Y2221459D01*
X66789500Y2221457D01*
X66789499Y2221457D01*
X66827947Y2028171D01*
X66827950Y2028161D01*
X66903364Y1846093D01*
X66903371Y1846080D01*
X67012859Y1682220D01*
X67012860Y1682219D01*
X67012861Y1682218D01*
X67128182Y1566897D01*
X67161666Y1505576D01*
X67164500Y1479217D01*
X67164500Y817790D01*
X67188535Y696956D01*
X67188537Y696948D01*
X67196383Y678005D01*
X67198891Y671951D01*
X67206359Y602482D01*
X67175083Y540003D01*
X67114993Y504351D01*
X67084329Y500500D01*
X10634685Y500500D01*
X10567646Y520185D01*
X10521891Y572989D01*
X10510880Y631453D01*
X10511098Y635349D01*
X9582737Y1563710D01*
X9716602Y1660967D01*
X9839033Y1783398D01*
X9936290Y1917263D01*
X10864652Y988901D01*
X10864653Y988902D01*
X10960431Y1109001D01*
X11103847Y1337248D01*
X11220801Y1580105D01*
X11220807Y1580119D01*
X11309832Y1834537D01*
X11309836Y1834549D01*
X11369818Y2097349D01*
X11369821Y2097367D01*
X11399999Y2365213D01*
X11400000Y2365217D01*
X11400000Y2634784D01*
X11399999Y2634788D01*
X11369821Y2902634D01*
X11369818Y2902652D01*
X11309836Y3165452D01*
X11309832Y3165464D01*
X11220807Y3419882D01*
X11220801Y3419896D01*
X11103847Y3662753D01*
X10960429Y3891003D01*
X10960427Y3891007D01*
X10864653Y4011100D01*
X10864652Y4011101D01*
X9936290Y3082738D01*
X9839033Y3216602D01*
X9716602Y3339033D01*
X9582736Y3436291D01*
X10511099Y4364654D01*
X10390998Y4460432D01*
X10162752Y4603848D01*
X9919895Y4720802D01*
X9919881Y4720808D01*
X9665463Y4809833D01*
X9665451Y4809837D01*
X9402651Y4869819D01*
X9402633Y4869822D01*
X9134787Y4900000D01*
X8865212Y4900000D01*
X8597366Y4869822D01*
X8597348Y4869819D01*
X8334548Y4809837D01*
X8334536Y4809833D01*
X8080118Y4720808D01*
X8080104Y4720802D01*
X7837247Y4603848D01*
X7609001Y4460432D01*
X7488899Y4364655D01*
X8417263Y3436291D01*
X8283398Y3339033D01*
X8160967Y3216602D01*
X8063709Y3082737D01*
X7135345Y4011101D01*
X7039568Y3890999D01*
X6896152Y3662753D01*
X6779198Y3419896D01*
X6779192Y3419882D01*
X6690167Y3165464D01*
X6690163Y3165452D01*
X6630181Y2902652D01*
X6630178Y2902634D01*
X6600000Y2634788D01*
X6600000Y2365213D01*
X6630178Y2097367D01*
X6630181Y2097349D01*
X6690163Y1834549D01*
X6690167Y1834537D01*
X6779192Y1580119D01*
X6779198Y1580105D01*
X6896152Y1337248D01*
X7039568Y1109002D01*
X7135346Y988901D01*
X8063708Y1917264D01*
X8160967Y1783398D01*
X8283398Y1660967D01*
X8417262Y1563710D01*
X7488900Y635349D01*
X7489119Y631453D01*
X7473224Y563415D01*
X7423069Y514771D01*
X7365314Y500500D01*
X3003751Y500500D01*
X2996264Y500726D01*
X2706205Y518272D01*
X2691340Y520077D01*
X2409202Y571781D01*
X2394664Y575365D01*
X2120825Y660696D01*
X2106827Y666005D01*
X1954096Y734744D01*
X1845269Y783723D01*
X1832012Y790681D01*
X1586541Y939072D01*
X1574217Y947578D01*
X1521472Y988901D01*
X1348426Y1124475D01*
X1337218Y1134405D01*
X1134404Y1337219D01*
X1124474Y1348427D01*
X1022006Y1479217D01*
X947573Y1574224D01*
X939071Y1586542D01*
X790680Y1832013D01*
X783722Y1845270D01*
X666000Y2106837D01*
X660698Y2120818D01*
X575363Y2394666D01*
X571780Y2409203D01*
X533900Y2615908D01*
X520076Y2691341D01*
X518271Y2706206D01*
X506389Y2902634D01*
X500726Y2996264D01*
X500500Y3003751D01*
X500500Y6458645D01*
X1077579Y6458645D01*
X1081385Y6439513D01*
X1101159Y6419740D01*
X1108446Y6412453D01*
X1146714Y6412453D01*
X1173774Y6439513D01*
X1177580Y6458645D01*
X1177580Y6525648D01*
X1183943Y6564859D01*
X1203823Y6624501D01*
X1209644Y6641966D01*
X1239598Y6690432D01*
X1276748Y6727582D01*
X1325217Y6757536D01*
X1402321Y6783236D01*
X1441531Y6789599D01*
X2127582Y6789599D01*
X2146714Y6793405D01*
X2173774Y6820465D01*
X2173774Y6858733D01*
X2171992Y6860515D01*
X2146714Y6885794D01*
X2127582Y6889599D01*
X2127580Y6889599D01*
X1413295Y6889599D01*
X1413293Y6889599D01*
X1409724Y6888890D01*
X1407822Y6889061D01*
X1407237Y6889003D01*
X1407226Y6889115D01*
X1405778Y6889244D01*
X1401093Y6887490D01*
X1397491Y6887036D01*
X1397489Y6887035D01*
X1251695Y6838437D01*
X1248281Y6836156D01*
X1240824Y6831548D01*
X1237266Y6829520D01*
X1137661Y6729915D01*
X1135627Y6726346D01*
X1131010Y6718875D01*
X1128740Y6715479D01*
X1080145Y6569695D01*
X1080143Y6569685D01*
X1079689Y6566087D01*
X1079424Y6564457D01*
X1079425Y6564119D01*
X1078944Y6560749D01*
X1077580Y6553885D01*
X1077580Y6458647D01*
X1077580Y6458645D01*
X1077579Y6458645D01*
X500500Y6458645D01*
X500500Y7652208D01*
X1077580Y7652208D01*
X1077580Y7407941D01*
X1078661Y7403993D01*
X1080680Y7395440D01*
X1081477Y7391430D01*
X1131486Y7291415D01*
X1139506Y7280095D01*
X1150835Y7272071D01*
X1250837Y7222070D01*
X1251303Y7221978D01*
X1251304Y7221977D01*
X1254838Y7221275D01*
X1263416Y7219250D01*
X1266893Y7218297D01*
X1267353Y7218171D01*
X1270438Y7218171D01*
X1368758Y7218171D01*
X1369219Y7218298D01*
X1369221Y7218297D01*
X1372710Y7219253D01*
X1381259Y7221272D01*
X1384810Y7221977D01*
X1384811Y7221979D01*
X1385280Y7222072D01*
X1388034Y7223450D01*
X1388037Y7223450D01*
X1483274Y7271068D01*
X1483277Y7271071D01*
X1485278Y7272071D01*
X1493671Y7278017D01*
X1493674Y7278017D01*
X1493675Y7278020D01*
X1496605Y7280094D01*
X1498682Y7283028D01*
X1498686Y7283030D01*
X1498687Y7283035D01*
X1501823Y7287462D01*
X1556630Y7330798D01*
X1626165Y7337624D01*
X1688353Y7305772D01*
X1696697Y7297048D01*
X1708854Y7283031D01*
X1708855Y7283030D01*
X1743083Y7265916D01*
X1743084Y7265917D01*
X1743085Y7265916D01*
X1767286Y7273984D01*
X1779388Y7278017D01*
X1791349Y7293429D01*
X1838968Y7388667D01*
X1838968Y7388670D01*
X1840346Y7391424D01*
X1840439Y7391893D01*
X1840441Y7391894D01*
X1841146Y7395445D01*
X1843165Y7403994D01*
X1844121Y7407483D01*
X1844120Y7407485D01*
X1844247Y7407946D01*
X1844247Y7604590D01*
X1843169Y7608524D01*
X1841142Y7617111D01*
X1840348Y7621105D01*
X1790352Y7721097D01*
X1782323Y7732435D01*
X1779388Y7734515D01*
X1779386Y7734516D01*
X1770997Y7740460D01*
X1670989Y7790463D01*
X1666978Y7791261D01*
X1658425Y7793280D01*
X1654477Y7794361D01*
X1651390Y7794361D01*
X1127580Y7794361D01*
X1127578Y7794361D01*
X1108445Y7790556D01*
X1081386Y7763496D01*
X1081386Y7700562D01*
X1080103Y7700562D01*
X1083044Y7691188D01*
X1081437Y7678342D01*
X1082116Y7672030D01*
X1081704Y7669858D01*
X1080683Y7664724D01*
X1078664Y7656167D01*
X1077580Y7652208D01*
X500500Y7652208D01*
X500500Y8668258D01*
X1081386Y8668258D01*
X1081386Y8629989D01*
X1108445Y8602929D01*
X1127577Y8599123D01*
X1127580Y8599123D01*
X1610315Y8599123D01*
X1665763Y8586035D01*
X1672384Y8582725D01*
X1723545Y8535141D01*
X1727845Y8527267D01*
X1731156Y8520645D01*
X1744247Y8465191D01*
X1744247Y8404487D01*
X1731158Y8349037D01*
X1726191Y8339102D01*
X1678606Y8287941D01*
X1615280Y8270552D01*
X1127578Y8270552D01*
X1108445Y8266747D01*
X1081386Y8239687D01*
X1081386Y8201418D01*
X1108445Y8174358D01*
X1127577Y8170552D01*
X1127580Y8170552D01*
X1794249Y8170552D01*
X1813381Y8174358D01*
X1840441Y8201418D01*
X1840441Y8239686D01*
X1838478Y8244424D01*
X1831008Y8313894D01*
X1838922Y8336642D01*
X1840439Y8344274D01*
X1840441Y8344275D01*
X1841146Y8347826D01*
X1843165Y8356375D01*
X1844121Y8359864D01*
X1844120Y8359866D01*
X1844247Y8360327D01*
X1844247Y8488002D01*
X1844247Y8491457D01*
X33999499Y8491457D01*
X34037947Y8298171D01*
X34037950Y8298161D01*
X34113364Y8116093D01*
X34113371Y8116080D01*
X34222860Y7952219D01*
X34222863Y7952215D01*
X34362214Y7812864D01*
X34362218Y7812861D01*
X34526079Y7703372D01*
X34526092Y7703365D01*
X34649598Y7652208D01*
X34708165Y7627949D01*
X34708169Y7627949D01*
X34708170Y7627948D01*
X34901456Y7589500D01*
X34901459Y7589500D01*
X38538543Y7589500D01*
X38677349Y7617111D01*
X38731835Y7627949D01*
X38913914Y7703368D01*
X39077782Y7812861D01*
X39217139Y7952218D01*
X39326632Y8116086D01*
X39402051Y8298165D01*
X39435275Y8465191D01*
X39440500Y8491457D01*
X39440500Y8688544D01*
X39402052Y8881830D01*
X39402051Y8881831D01*
X39402051Y8881835D01*
X39392576Y8904709D01*
X39326635Y9063908D01*
X39326628Y9063921D01*
X39217139Y9227782D01*
X39217136Y9227786D01*
X39077785Y9367137D01*
X39077781Y9367140D01*
X38913920Y9476629D01*
X38913907Y9476636D01*
X38731839Y9552050D01*
X38731829Y9552053D01*
X38538543Y9590500D01*
X38538541Y9590500D01*
X34901459Y9590500D01*
X34901457Y9590500D01*
X34708170Y9552053D01*
X34708160Y9552050D01*
X34526092Y9476636D01*
X34526079Y9476629D01*
X34362218Y9367140D01*
X34362214Y9367137D01*
X34222863Y9227786D01*
X34222860Y9227782D01*
X34113371Y9063921D01*
X34113364Y9063908D01*
X34037950Y8881840D01*
X34037947Y8881830D01*
X33999500Y8688544D01*
X33999500Y8688541D01*
X33999500Y8491459D01*
X33999500Y8491457D01*
X33999499Y8491457D01*
X1844247Y8491457D01*
X1844247Y8506266D01*
X1843758Y8508723D01*
X1844121Y8509811D01*
X1842004Y8517539D01*
X1840441Y8525400D01*
X1839629Y8526212D01*
X1838968Y8528627D01*
X1791349Y8623865D01*
X1785488Y8631417D01*
X1784741Y8633239D01*
X1784400Y8634264D01*
X1784284Y8634354D01*
X1784215Y8634524D01*
X1782321Y8637199D01*
X1770997Y8645222D01*
X1670989Y8695225D01*
X1666978Y8696023D01*
X1658425Y8698042D01*
X1654477Y8699123D01*
X1651390Y8699123D01*
X1127580Y8699123D01*
X1127578Y8699123D01*
X1108445Y8695318D01*
X1081386Y8668258D01*
X500500Y8668258D01*
X500500Y9887217D01*
X1077579Y9887217D01*
X1081385Y9868085D01*
X1108445Y9841025D01*
X1127577Y9837219D01*
X1127580Y9837219D01*
X2127582Y9837219D01*
X2146714Y9841025D01*
X2173774Y9868085D01*
X2177580Y9887217D01*
X2177580Y10223638D01*
X2176502Y10227572D01*
X2174475Y10236159D01*
X2173681Y10240153D01*
X2124684Y10338147D01*
X2124677Y10338159D01*
X2122465Y10341009D01*
X2117327Y10348137D01*
X2115319Y10351142D01*
X2115314Y10351148D01*
X2067700Y10398761D01*
X2067697Y10398764D01*
X2067607Y10398824D01*
X2064693Y10400772D01*
X2057570Y10405905D01*
X2054698Y10408134D01*
X1956703Y10457130D01*
X1952692Y10457928D01*
X1949694Y10459478D01*
X1944139Y10459947D01*
X1940191Y10461028D01*
X1937104Y10461028D01*
X1841866Y10461028D01*
X1838781Y10461028D01*
X1834822Y10459944D01*
X1830378Y10460026D01*
X1826275Y10457927D01*
X1822265Y10457130D01*
X1741199Y10416597D01*
X1672434Y10404224D01*
X1607895Y10430991D01*
X1598069Y10439822D01*
X1591512Y10446378D01*
X1591507Y10446383D01*
X1591417Y10446443D01*
X1588503Y10448391D01*
X1581380Y10453524D01*
X1578508Y10455753D01*
X1480513Y10504749D01*
X1476502Y10505547D01*
X1467949Y10507566D01*
X1464001Y10508647D01*
X1460914Y10508647D01*
X1318057Y10508647D01*
X1314972Y10508647D01*
X1311013Y10507563D01*
X1302466Y10505546D01*
X1298455Y10504749D01*
X1200462Y10455752D01*
X1200454Y10455747D01*
X1197599Y10453531D01*
X1195831Y10452837D01*
X1195582Y10452681D01*
X1190496Y10448411D01*
X1187470Y10446389D01*
X1187453Y10446375D01*
X1139844Y10398765D01*
X1137822Y10395739D01*
X1132710Y10388646D01*
X1130480Y10385772D01*
X1081478Y10287772D01*
X1080681Y10283762D01*
X1078664Y10275215D01*
X1077580Y10271256D01*
X1077580Y10268171D01*
X1077580Y9887219D01*
X1077580Y9887217D01*
X1077579Y9887217D01*
X500500Y9887217D01*
X500500Y11176018D01*
X1077580Y11176018D01*
X1077580Y11026989D01*
X1078661Y11023041D01*
X1080680Y11014488D01*
X1081478Y11010476D01*
X1128865Y10915703D01*
X1130479Y10912477D01*
X1132705Y10909609D01*
X1137826Y10902504D01*
X1139845Y10899483D01*
X1187463Y10851864D01*
X1187465Y10851863D01*
X1187467Y10851861D01*
X1190472Y10849853D01*
X1197600Y10844715D01*
X1200450Y10842503D01*
X1200456Y10842500D01*
X1200458Y10842498D01*
X1200460Y10842497D01*
X1200462Y10842496D01*
X1298456Y10793499D01*
X1298922Y10793407D01*
X1298923Y10793406D01*
X1302457Y10792704D01*
X1311035Y10790679D01*
X1314512Y10789726D01*
X1314972Y10789600D01*
X1318057Y10789600D01*
X1606853Y10789600D01*
X1607314Y10789727D01*
X1607316Y10789726D01*
X1610805Y10790682D01*
X1619354Y10792701D01*
X1622905Y10793406D01*
X1622906Y10793408D01*
X1623375Y10793501D01*
X1626129Y10794879D01*
X1626132Y10794879D01*
X1721369Y10842497D01*
X1724245Y10844730D01*
X1731355Y10849855D01*
X1734364Y10851864D01*
X1781983Y10899482D01*
X1783993Y10902492D01*
X1789135Y10909625D01*
X1791349Y10912477D01*
X1791351Y10912482D01*
X1791707Y10912940D01*
X1848362Y10953830D01*
X1918130Y10957598D01*
X1978860Y10923049D01*
X1992763Y10905804D01*
X1996983Y10899488D01*
X1996984Y10899487D01*
X1996987Y10899483D01*
X2011116Y10885354D01*
X2044607Y10851862D01*
X2053119Y10846175D01*
X2060826Y10841025D01*
X2060827Y10841025D01*
X2099094Y10841025D01*
X2099095Y10841025D01*
X2115316Y10851864D01*
X2162935Y10899482D01*
X2173774Y10915703D01*
X2173774Y10953972D01*
X2173774Y10953973D01*
X2165487Y10966375D01*
X2162937Y10970192D01*
X2157690Y10975439D01*
X2115316Y11017812D01*
X2113831Y11018804D01*
X2108731Y11022212D01*
X2063926Y11075824D01*
X2055219Y11145149D01*
X2085374Y11208177D01*
X2108731Y11228416D01*
X2109207Y11228734D01*
X2115316Y11232816D01*
X2162935Y11280434D01*
X2173774Y11296655D01*
X2173774Y11334924D01*
X2173774Y11334925D01*
X2168420Y11342938D01*
X2162937Y11351144D01*
X2153567Y11360514D01*
X2115316Y11398764D01*
X2115312Y11398767D01*
X2115310Y11398769D01*
X2099095Y11409603D01*
X2060826Y11409603D01*
X2044607Y11398767D01*
X1996984Y11351142D01*
X1992929Y11345073D01*
X1991898Y11344212D01*
X1991470Y11342938D01*
X1977516Y11326293D01*
X1976297Y11325075D01*
X1944326Y11285403D01*
X1878031Y11263341D01*
X1810333Y11280622D01*
X1785930Y11299580D01*
X1759216Y11326293D01*
X1734364Y11351145D01*
X1734274Y11351205D01*
X1731360Y11353153D01*
X1724237Y11358286D01*
X1724228Y11358293D01*
X1721369Y11360512D01*
X1626132Y11408130D01*
X1625980Y11408172D01*
X1623295Y11409526D01*
X1619359Y11410309D01*
X1610806Y11412328D01*
X1606858Y11413409D01*
X1603771Y11413409D01*
X1318057Y11413409D01*
X1314972Y11413409D01*
X1311013Y11412325D01*
X1302466Y11410308D01*
X1298455Y11409511D01*
X1200462Y11360514D01*
X1200454Y11360509D01*
X1197599Y11358293D01*
X1190496Y11353173D01*
X1187470Y11351151D01*
X1187453Y11351137D01*
X1139844Y11303527D01*
X1137822Y11300501D01*
X1132710Y11293408D01*
X1130480Y11290534D01*
X1081478Y11192534D01*
X1080681Y11188524D01*
X1078664Y11179977D01*
X1077580Y11176018D01*
X500500Y11176018D01*
X500500Y11811116D01*
X1081386Y11811116D01*
X1081386Y11772847D01*
X1108445Y11745787D01*
X1127577Y11741981D01*
X1127580Y11741981D01*
X1794249Y11741981D01*
X1813381Y11745787D01*
X1813905Y11746311D01*
X1840441Y11772847D01*
X1840441Y11811115D01*
X1831002Y11833902D01*
X1833201Y11834813D01*
X1819508Y11859896D01*
X1824500Y11929587D01*
X1829769Y11941698D01*
X1840346Y11962853D01*
X1840439Y11963322D01*
X1840441Y11963323D01*
X1841146Y11966874D01*
X1843165Y11975423D01*
X1844121Y11978912D01*
X1844120Y11978914D01*
X1844247Y11979375D01*
X1844247Y12077698D01*
X1840441Y12096830D01*
X1813381Y12123889D01*
X1809424Y12123889D01*
X1771076Y12135150D01*
X1756547Y12105495D01*
X1752757Y12101534D01*
X1748052Y12096830D01*
X1744247Y12077698D01*
X1744247Y12023535D01*
X1742334Y12015433D01*
X1743409Y12009143D01*
X1737652Y11995600D01*
X1731155Y11968078D01*
X1714531Y11934832D01*
X1691304Y11902608D01*
X1683619Y11894923D01*
X1651396Y11871697D01*
X1618153Y11855074D01*
X1562695Y11841981D01*
X1127578Y11841981D01*
X1108445Y11838176D01*
X1081386Y11811116D01*
X500500Y11811116D01*
X500500Y12652209D01*
X1077580Y12652209D01*
X1077580Y12455561D01*
X1078661Y12451613D01*
X1080680Y12443060D01*
X1081478Y12439048D01*
X1130480Y12341047D01*
X1130482Y12341044D01*
X1142440Y12325637D01*
X1178742Y12313536D01*
X1178743Y12313537D01*
X1178745Y12313536D01*
X1212973Y12330650D01*
X1225074Y12366955D01*
X1225073Y12366957D01*
X1230243Y12382465D01*
X1270116Y12439841D01*
X1334679Y12466551D01*
X1403433Y12454116D01*
X1454550Y12406484D01*
X1458789Y12398713D01*
X1464817Y12386658D01*
X1470759Y12378271D01*
X1470760Y12378269D01*
X1470761Y12378269D01*
X1472840Y12375334D01*
X1474435Y12374204D01*
X1475222Y12373967D01*
X1475773Y12373257D01*
X1478306Y12372413D01*
X1486172Y12366308D01*
X1581410Y12318689D01*
X1583825Y12318028D01*
X1584637Y12317216D01*
X1592498Y12315653D01*
X1600226Y12313536D01*
X1601314Y12313899D01*
X1603771Y12313410D01*
X1651390Y12313410D01*
X1653846Y12313899D01*
X1654935Y12313536D01*
X1662662Y12315653D01*
X1666164Y12316350D01*
X1693396Y12308132D01*
X1702585Y12302129D01*
X1703292Y12301901D01*
X1715711Y12329092D01*
X1753970Y12358798D01*
X1755202Y12359415D01*
X1768988Y12366307D01*
X1768991Y12366310D01*
X1770992Y12367310D01*
X1779384Y12373255D01*
X1779388Y12373256D01*
X1779390Y12373259D01*
X1782320Y12375334D01*
X1784396Y12378267D01*
X1784400Y12378269D01*
X1784401Y12378273D01*
X1790354Y12386678D01*
X1803720Y12413410D01*
X1838968Y12483906D01*
X1838968Y12483909D01*
X1840346Y12486663D01*
X1840439Y12487132D01*
X1840441Y12487133D01*
X1841146Y12490684D01*
X1843165Y12499233D01*
X1844121Y12502722D01*
X1844120Y12502724D01*
X1844247Y12503185D01*
X1844247Y12652210D01*
X1843169Y12656144D01*
X1841142Y12664731D01*
X1840348Y12668725D01*
X1791351Y12766720D01*
X1791346Y12766728D01*
X1779387Y12782136D01*
X1743085Y12794237D01*
X1743082Y12794236D01*
X1708855Y12777122D01*
X1708854Y12777122D01*
X1701106Y12753876D01*
X1687768Y12734685D01*
X1678377Y12713285D01*
X1668202Y12706531D01*
X1661232Y12696501D01*
X1639635Y12687568D01*
X1620165Y12674642D01*
X1607952Y12674461D01*
X1596668Y12669793D01*
X1573671Y12673953D01*
X1550303Y12673606D01*
X1539932Y12680056D01*
X1527914Y12682229D01*
X1510816Y12698163D01*
X1490971Y12710504D01*
X1479612Y12727241D01*
X1476799Y12729863D01*
X1476177Y12732304D01*
X1472562Y12737630D01*
X1458016Y12766723D01*
X1458013Y12766727D01*
X1457017Y12768719D01*
X1448990Y12780055D01*
X1446055Y12782135D01*
X1446053Y12782136D01*
X1437664Y12788080D01*
X1337656Y12838083D01*
X1333645Y12838881D01*
X1325092Y12840900D01*
X1321144Y12841981D01*
X1318057Y12841981D01*
X1270438Y12841981D01*
X1267353Y12841981D01*
X1263394Y12840897D01*
X1259061Y12840977D01*
X1254847Y12838880D01*
X1250837Y12838083D01*
X1150831Y12788079D01*
X1142441Y12782136D01*
X1142440Y12782135D01*
X1142439Y12782134D01*
X1139506Y12780056D01*
X1131481Y12768729D01*
X1081478Y12668723D01*
X1080681Y12664715D01*
X1078664Y12656168D01*
X1077580Y12652209D01*
X500500Y12652209D01*
X500500Y13556971D01*
X1077580Y13556971D01*
X1077580Y13360323D01*
X1078661Y13356375D01*
X1080680Y13347822D01*
X1081478Y13343810D01*
X1130475Y13245817D01*
X1130479Y13245811D01*
X1132705Y13242943D01*
X1137826Y13235838D01*
X1139845Y13232817D01*
X1187461Y13185200D01*
X1187467Y13185195D01*
X1190472Y13183187D01*
X1197600Y13178049D01*
X1200450Y13175837D01*
X1200456Y13175834D01*
X1200458Y13175832D01*
X1200460Y13175831D01*
X1200462Y13175830D01*
X1298456Y13126833D01*
X1298922Y13126741D01*
X1298923Y13126740D01*
X1302457Y13126038D01*
X1311035Y13124013D01*
X1314512Y13123060D01*
X1314972Y13122934D01*
X1318057Y13122934D01*
X1606853Y13122934D01*
X1607314Y13123061D01*
X1607316Y13123060D01*
X1610805Y13124016D01*
X1619354Y13126035D01*
X1622905Y13126740D01*
X1622906Y13126742D01*
X1623375Y13126835D01*
X1626129Y13128213D01*
X1626132Y13128213D01*
X1721369Y13175831D01*
X1724245Y13178064D01*
X1731355Y13183189D01*
X1734364Y13185198D01*
X1781983Y13232816D01*
X1783993Y13235826D01*
X1789135Y13242959D01*
X1791349Y13245811D01*
X1838968Y13341049D01*
X1838968Y13341052D01*
X1840346Y13343806D01*
X1840439Y13344275D01*
X1840441Y13344276D01*
X1841146Y13347827D01*
X1843165Y13356376D01*
X1844121Y13359865D01*
X1844120Y13359867D01*
X1844247Y13360328D01*
X1844247Y13556972D01*
X1843169Y13560906D01*
X1841142Y13569493D01*
X1840348Y13573487D01*
X1791351Y13671482D01*
X1791346Y13671490D01*
X1779387Y13686898D01*
X1743085Y13698999D01*
X1743082Y13698998D01*
X1708855Y13681884D01*
X1708854Y13681884D01*
X1696753Y13645581D01*
X1696754Y13645579D01*
X1701906Y13626765D01*
X1701908Y13626761D01*
X1702017Y13626544D01*
X1721652Y13587274D01*
X1728779Y13573020D01*
X1731078Y13568422D01*
X1731156Y13568265D01*
X1744247Y13512811D01*
X1744247Y13404488D01*
X1731155Y13349031D01*
X1714531Y13315785D01*
X1708007Y13308773D01*
X1704910Y13299709D01*
X1691304Y13283561D01*
X1683619Y13275876D01*
X1651396Y13252650D01*
X1618153Y13236027D01*
X1562695Y13222934D01*
X1359133Y13222934D01*
X1303677Y13236026D01*
X1270432Y13252649D01*
X1238214Y13275869D01*
X1230521Y13283561D01*
X1207294Y13315786D01*
X1190669Y13349035D01*
X1177580Y13404486D01*
X1177580Y13512811D01*
X1190671Y13568265D01*
X1219921Y13626763D01*
X1225074Y13645579D01*
X1225073Y13645580D01*
X1225074Y13645581D01*
X1212973Y13681884D01*
X1178745Y13698998D01*
X1178742Y13698999D01*
X1142440Y13686898D01*
X1130482Y13671491D01*
X1130480Y13671488D01*
X1081478Y13573487D01*
X1080681Y13569477D01*
X1078664Y13560930D01*
X1077580Y13556971D01*
X500500Y13556971D01*
X500500Y14525402D01*
X1081386Y14525402D01*
X1081386Y14487133D01*
X1108445Y14460073D01*
X1127577Y14456267D01*
X1127580Y14456267D01*
X1610315Y14456267D01*
X1665763Y14443179D01*
X1672384Y14439869D01*
X1723545Y14392285D01*
X1727845Y14384411D01*
X1731156Y14377789D01*
X1744247Y14322335D01*
X1744247Y14261631D01*
X1731158Y14206181D01*
X1726191Y14196246D01*
X1678606Y14145085D01*
X1615280Y14127696D01*
X1127578Y14127696D01*
X1108445Y14123891D01*
X1081386Y14096831D01*
X1081386Y14058562D01*
X1108445Y14031502D01*
X1127577Y14027696D01*
X1127580Y14027696D01*
X2127582Y14027696D01*
X2146714Y14031502D01*
X2173774Y14058562D01*
X2173774Y14096830D01*
X2169767Y14100837D01*
X2146714Y14123891D01*
X2127582Y14127696D01*
X2127580Y14127696D01*
X1968247Y14127696D01*
X1901208Y14147381D01*
X1855453Y14200185D01*
X1844247Y14251696D01*
X1844247Y14366496D01*
X1843169Y14370430D01*
X1841142Y14379017D01*
X1840348Y14383011D01*
X1790352Y14483003D01*
X1782323Y14494341D01*
X1779388Y14496421D01*
X1779386Y14496422D01*
X1770997Y14502366D01*
X1670989Y14552369D01*
X1666978Y14553167D01*
X1658425Y14555186D01*
X1654477Y14556267D01*
X1651390Y14556267D01*
X1127580Y14556267D01*
X1127578Y14556267D01*
X1108445Y14552462D01*
X1081386Y14525402D01*
X500500Y14525402D01*
X500500Y15121770D01*
X1077706Y15121770D01*
X1082859Y15102954D01*
X1130479Y15007716D01*
X1133561Y15003745D01*
X1134669Y15001208D01*
X1139506Y14994382D01*
X1150835Y14986358D01*
X1250837Y14936357D01*
X1251303Y14936265D01*
X1251304Y14936264D01*
X1254838Y14935562D01*
X1263416Y14933537D01*
X1266893Y14932584D01*
X1267353Y14932458D01*
X1270438Y14932458D01*
X2127582Y14932458D01*
X2146714Y14936264D01*
X2159362Y14948912D01*
X2173774Y14963324D01*
X2173774Y15001592D01*
X2167482Y15007884D01*
X2146714Y15028653D01*
X2127582Y15032458D01*
X2127580Y15032458D01*
X1311514Y15032458D01*
X1290043Y15038763D01*
X1267728Y15040446D01*
X1256057Y15045550D01*
X1249430Y15048864D01*
X1246565Y15051530D01*
X1244475Y15052143D01*
X1238527Y15059007D01*
X1198274Y15096455D01*
X1193982Y15104315D01*
X1172301Y15147676D01*
X1172298Y15147681D01*
X1160339Y15163089D01*
X1124037Y15175190D01*
X1124034Y15175189D01*
X1089807Y15158075D01*
X1089806Y15158075D01*
X1079567Y15127356D01*
X1079567Y15127355D01*
X1077706Y15121770D01*
X500500Y15121770D01*
X500500Y15795067D01*
X1077580Y15795067D01*
X1077580Y15598419D01*
X1078661Y15594471D01*
X1080680Y15585918D01*
X1081477Y15581908D01*
X1131486Y15481893D01*
X1139506Y15470573D01*
X1150835Y15462549D01*
X1250837Y15412548D01*
X1251303Y15412456D01*
X1251304Y15412455D01*
X1254838Y15411753D01*
X1263416Y15409728D01*
X1266893Y15408775D01*
X1267353Y15408649D01*
X1270438Y15408649D01*
X1654472Y15408649D01*
X1654933Y15408776D01*
X1654935Y15408775D01*
X1658424Y15409731D01*
X1666973Y15411750D01*
X1670524Y15412455D01*
X1670525Y15412457D01*
X1670994Y15412550D01*
X1673748Y15413928D01*
X1673751Y15413928D01*
X1768988Y15461546D01*
X1768991Y15461549D01*
X1770992Y15462549D01*
X1779384Y15468494D01*
X1779388Y15468495D01*
X1779390Y15468498D01*
X1782320Y15470573D01*
X1784396Y15473506D01*
X1784400Y15473508D01*
X1784401Y15473512D01*
X1790354Y15481917D01*
X1805367Y15511943D01*
X1838968Y15579145D01*
X1838968Y15579148D01*
X1840346Y15581902D01*
X1840439Y15582371D01*
X1840441Y15582372D01*
X1841146Y15585923D01*
X1843165Y15594472D01*
X1844121Y15597961D01*
X1844120Y15597963D01*
X1844247Y15598424D01*
X1844247Y15795068D01*
X1843169Y15799002D01*
X1841142Y15807589D01*
X1840348Y15811583D01*
X1790352Y15911575D01*
X1782323Y15922913D01*
X1779388Y15924993D01*
X1779386Y15924994D01*
X1770997Y15930938D01*
X1680172Y15976350D01*
X1680171Y15976350D01*
X1673751Y15979560D01*
X1671335Y15980222D01*
X1670524Y15981033D01*
X1662662Y15982597D01*
X1654935Y15984713D01*
X1653846Y15984351D01*
X1651390Y15984839D01*
X1556152Y15984839D01*
X1548903Y15983398D01*
X1546449Y15983888D01*
X1544355Y15982493D01*
X1537018Y15981033D01*
X1526721Y15970736D01*
X1514607Y15962660D01*
X1511737Y15955753D01*
X1509958Y15953973D01*
X1509958Y15951469D01*
X1509750Y15950971D01*
X1508646Y15950806D01*
X1507840Y15948859D01*
X1507550Y15946781D01*
X1439860Y15608331D01*
X1407410Y15546453D01*
X1346658Y15511943D01*
X1318268Y15508649D01*
X1311514Y15508649D01*
X1256060Y15521740D01*
X1249436Y15525052D01*
X1198277Y15572639D01*
X1193983Y15580503D01*
X1190668Y15587134D01*
X1177580Y15642582D01*
X1177580Y15750907D01*
X1178893Y15756472D01*
X1177980Y15760859D01*
X1185790Y15795278D01*
X1187956Y15800931D01*
X1219921Y15864859D01*
X1225074Y15883675D01*
X1212973Y15919980D01*
X1178745Y15937094D01*
X1178742Y15937095D01*
X1142440Y15924994D01*
X1130482Y15909587D01*
X1130480Y15909584D01*
X1081478Y15811583D01*
X1080681Y15807573D01*
X1078664Y15799026D01*
X1077580Y15795067D01*
X500500Y15795067D01*
X500500Y16382546D01*
X1081386Y16382546D01*
X1081386Y16344277D01*
X1108445Y16317217D01*
X1127577Y16313411D01*
X1127580Y16313411D01*
X1794249Y16313411D01*
X1807003Y16315949D01*
X1813381Y16317217D01*
X1822920Y16326757D01*
X1851582Y16342409D01*
X1879639Y16359150D01*
X1882089Y16359069D01*
X1884240Y16360243D01*
X1916825Y16357915D01*
X1949470Y16356829D01*
X1951485Y16355437D01*
X1953931Y16355262D01*
X1998283Y16326760D01*
X2011632Y16313411D01*
X2044607Y16280435D01*
X2055419Y16273211D01*
X2060826Y16269598D01*
X2060827Y16269598D01*
X2099094Y16269598D01*
X2099095Y16269598D01*
X2115316Y16280437D01*
X2162935Y16328055D01*
X2173774Y16344276D01*
X2173774Y16382545D01*
X2173774Y16382546D01*
X2170161Y16387953D01*
X2162937Y16398765D01*
X2152096Y16409606D01*
X2115316Y16446385D01*
X2115312Y16446388D01*
X2115310Y16446390D01*
X2099095Y16457224D01*
X2060826Y16457224D01*
X2044606Y16446387D01*
X2044602Y16446384D01*
X1998285Y16400065D01*
X1936962Y16366579D01*
X1867271Y16371563D01*
X1822920Y16400066D01*
X1813380Y16409606D01*
X1813381Y16409606D01*
X1794249Y16413411D01*
X1794247Y16413411D01*
X1127580Y16413411D01*
X1127578Y16413411D01*
X1108445Y16409606D01*
X1081386Y16382546D01*
X500500Y16382546D01*
X500500Y17287307D01*
X1081386Y17287307D01*
X1081386Y17249038D01*
X1108445Y17221978D01*
X1127577Y17218172D01*
X1127580Y17218172D01*
X1610315Y17218172D01*
X1665763Y17205084D01*
X1672384Y17201774D01*
X1723545Y17154190D01*
X1727845Y17146316D01*
X1731156Y17139694D01*
X1744247Y17084240D01*
X1744247Y17023536D01*
X1731158Y16968086D01*
X1726191Y16958151D01*
X1678606Y16906990D01*
X1615280Y16889601D01*
X1127578Y16889601D01*
X1108445Y16885796D01*
X1081386Y16858736D01*
X1081386Y16820467D01*
X1108445Y16793407D01*
X1127577Y16789601D01*
X1127580Y16789601D01*
X1794249Y16789601D01*
X1813381Y16793407D01*
X1820282Y16800308D01*
X1840441Y16820467D01*
X1840441Y16858735D01*
X1838478Y16863473D01*
X1831008Y16932943D01*
X1838922Y16955691D01*
X1840439Y16963323D01*
X1840441Y16963324D01*
X1841146Y16966875D01*
X1843165Y16975424D01*
X1844121Y16978913D01*
X1844120Y16978915D01*
X1844247Y16979376D01*
X1844247Y17128401D01*
X1843169Y17132335D01*
X1841142Y17140922D01*
X1840348Y17144916D01*
X1790352Y17244908D01*
X1782323Y17256246D01*
X1779388Y17258326D01*
X1779386Y17258327D01*
X1770997Y17264271D01*
X1670989Y17314274D01*
X1666978Y17315072D01*
X1658425Y17317091D01*
X1654477Y17318172D01*
X1651390Y17318172D01*
X1127580Y17318172D01*
X1127578Y17318172D01*
X1108445Y17314367D01*
X1081386Y17287307D01*
X500500Y17287307D01*
X500500Y18376000D01*
X520185Y18443039D01*
X572989Y18488794D01*
X624500Y18500000D01*
X3566519Y18500000D01*
X4785857Y19763583D01*
X4846571Y19798152D01*
X4916341Y19794410D01*
X4962765Y19765156D01*
X5049707Y19678214D01*
X5049711Y19678211D01*
X5180814Y19590610D01*
X5180827Y19590603D01*
X5326498Y19530265D01*
X5326503Y19530263D01*
X5391147Y19517405D01*
X5481849Y19499362D01*
X5543760Y19466977D01*
X5545339Y19465426D01*
X6107081Y18903684D01*
X6140566Y18842361D01*
X6143400Y18816003D01*
X6143400Y17197248D01*
X6123715Y17130209D01*
X6070911Y17084454D01*
X6043592Y17075631D01*
X5910408Y17049139D01*
X5910398Y17049136D01*
X5764727Y16988798D01*
X5764714Y16988791D01*
X5633611Y16901190D01*
X5633607Y16901187D01*
X5522113Y16789693D01*
X5522110Y16789689D01*
X5434509Y16658586D01*
X5434502Y16658573D01*
X5374164Y16512902D01*
X5374161Y16512890D01*
X5343400Y16358247D01*
X5343400Y16200554D01*
X5374161Y16045911D01*
X5374164Y16045899D01*
X5434502Y15900228D01*
X5434506Y15900221D01*
X5472502Y15843356D01*
X5493380Y15776679D01*
X5493400Y15774465D01*
X5493400Y11064069D01*
X5493400Y10935931D01*
X5493400Y10935929D01*
X5493399Y10935929D01*
X5518397Y10810262D01*
X5518399Y10810256D01*
X5567433Y10691876D01*
X5567438Y10691867D01*
X5638623Y10585332D01*
X5638626Y10585328D01*
X5729227Y10494727D01*
X5729231Y10494724D01*
X5835766Y10423539D01*
X5835772Y10423536D01*
X5835773Y10423535D01*
X5954156Y10374499D01*
X5954160Y10374499D01*
X5954161Y10374498D01*
X6079828Y10349500D01*
X6079831Y10349500D01*
X8695065Y10349500D01*
X8762104Y10329815D01*
X8763909Y10328634D01*
X8820821Y10290606D01*
X8820823Y10290605D01*
X8820827Y10290603D01*
X8962283Y10232011D01*
X8966503Y10230263D01*
X9121153Y10199501D01*
X9121156Y10199500D01*
X9121158Y10199500D01*
X9278844Y10199500D01*
X9278845Y10199501D01*
X9433497Y10230263D01*
X9573170Y10288117D01*
X9579172Y10290603D01*
X9579172Y10290604D01*
X9579179Y10290606D01*
X9710289Y10378211D01*
X9821789Y10489711D01*
X9909394Y10620821D01*
X9912253Y10627722D01*
X9954814Y10730476D01*
X9969737Y10766503D01*
X10000500Y10921158D01*
X10000500Y11078842D01*
X10000500Y11078845D01*
X10000499Y11078847D01*
X9994327Y11109875D01*
X9969737Y11233497D01*
X9957375Y11263341D01*
X9909397Y11379173D01*
X9909390Y11379186D01*
X9821789Y11510289D01*
X9821786Y11510293D01*
X9710292Y11621787D01*
X9710288Y11621790D01*
X9579185Y11709391D01*
X9579172Y11709398D01*
X9433501Y11769736D01*
X9433489Y11769739D01*
X9278845Y11800500D01*
X9278842Y11800500D01*
X9121158Y11800500D01*
X9121155Y11800500D01*
X8966510Y11769739D01*
X8966498Y11769736D01*
X8820827Y11709398D01*
X8820820Y11709394D01*
X8791928Y11690089D01*
X8763955Y11671398D01*
X8697279Y11650520D01*
X8695065Y11650500D01*
X6918400Y11650500D01*
X6851361Y11670185D01*
X6805606Y11722989D01*
X6794400Y11774500D01*
X6794400Y13371499D01*
X6814085Y13438538D01*
X6866889Y13484293D01*
X6894201Y13493115D01*
X6977397Y13509663D01*
X7092722Y13557432D01*
X7123072Y13570003D01*
X7123072Y13570004D01*
X7123079Y13570006D01*
X7254189Y13657611D01*
X7365689Y13769111D01*
X7453294Y13900221D01*
X7513637Y14045903D01*
X7544400Y14200558D01*
X7544400Y14354900D01*
X7564085Y14421939D01*
X7616889Y14467694D01*
X7668400Y14478900D01*
X7722744Y14478900D01*
X7722745Y14478901D01*
X7877397Y14509663D01*
X8023079Y14570006D01*
X8154189Y14657611D01*
X8265689Y14769111D01*
X8353294Y14900221D01*
X8413637Y15045903D01*
X8444400Y15200558D01*
X8444400Y15358242D01*
X8444400Y15358244D01*
X8444400Y15358245D01*
X8444399Y15358247D01*
X8430330Y15428974D01*
X8413637Y15512897D01*
X8386278Y15578949D01*
X8353297Y15658573D01*
X8353290Y15658586D01*
X8265298Y15790275D01*
X8244420Y15856953D01*
X8244400Y15859166D01*
X8244400Y21153803D01*
X8264085Y21220842D01*
X8280719Y21241484D01*
X8920928Y21881693D01*
X9644664Y22605429D01*
X9705985Y22638912D01*
X9708152Y22639363D01*
X9708841Y22639500D01*
X9708842Y22639500D01*
X9863497Y22670263D01*
X10009179Y22730606D01*
X10140289Y22818211D01*
X10251789Y22929711D01*
X10310701Y23017880D01*
X40480999Y23017880D01*
X40509840Y22872893D01*
X40509843Y22872883D01*
X40566414Y22736308D01*
X40592091Y22697880D01*
X40592092Y22697877D01*
X40648546Y22613386D01*
X40648552Y22613379D01*
X41107081Y22154851D01*
X41140566Y22093528D01*
X41143400Y22067170D01*
X41143400Y20729399D01*
X41143401Y20729382D01*
X41153900Y20626604D01*
X41153901Y20626601D01*
X41209085Y20460069D01*
X41209087Y20460064D01*
X41216362Y20448270D01*
X41301188Y20310744D01*
X41425244Y20186688D01*
X41574566Y20094586D01*
X41708405Y20050236D01*
X41765849Y20010464D01*
X41792672Y19945949D01*
X41793400Y19932531D01*
X41793400Y16632182D01*
X41793400Y16632180D01*
X41793399Y16632180D01*
X41822240Y16487193D01*
X41822243Y16487183D01*
X41878812Y16350612D01*
X41878818Y16350601D01*
X41887600Y16337459D01*
X41908480Y16270782D01*
X41908500Y16268565D01*
X41908500Y15666630D01*
X41888815Y15599591D01*
X41872181Y15578949D01*
X41632849Y15339618D01*
X41632845Y15339614D01*
X41618101Y15317545D01*
X41618100Y15317544D01*
X41550716Y15216697D01*
X41550714Y15216694D01*
X41494143Y15080118D01*
X41494140Y15080108D01*
X41465300Y14935121D01*
X41465300Y14935118D01*
X41465300Y12751482D01*
X41465300Y12751480D01*
X41465299Y12751480D01*
X41494140Y12606493D01*
X41494143Y12606483D01*
X41550714Y12469908D01*
X41550715Y12469906D01*
X41550716Y12469905D01*
X41571564Y12438703D01*
X41577446Y12429901D01*
X41577447Y12429898D01*
X41632846Y12346986D01*
X41632852Y12346979D01*
X45848323Y8131509D01*
X45881808Y8070186D01*
X45882259Y8068020D01*
X45891604Y8021040D01*
X45891606Y8021032D01*
X45959483Y7857160D01*
X45959490Y7857147D01*
X46058035Y7709666D01*
X46058038Y7709662D01*
X46183461Y7584239D01*
X46183465Y7584236D01*
X46330946Y7485691D01*
X46330959Y7485684D01*
X46453863Y7434777D01*
X46494834Y7417806D01*
X46494836Y7417806D01*
X46494841Y7417804D01*
X46668804Y7383201D01*
X46668807Y7383200D01*
X46668809Y7383200D01*
X46846193Y7383200D01*
X46846194Y7383201D01*
X46907725Y7395440D01*
X47020158Y7417804D01*
X47020161Y7417806D01*
X47020166Y7417806D01*
X47184047Y7485687D01*
X47331535Y7584236D01*
X47456964Y7709665D01*
X47555513Y7857153D01*
X47623394Y8021034D01*
X47658000Y8195009D01*
X47658000Y8372391D01*
X47658000Y8372394D01*
X47657999Y8372396D01*
X47623396Y8546359D01*
X47623393Y8546368D01*
X47555516Y8710241D01*
X47555509Y8710254D01*
X47456964Y8857735D01*
X47456961Y8857739D01*
X47331538Y8983162D01*
X47331534Y8983165D01*
X47184053Y9081710D01*
X47184040Y9081717D01*
X47020168Y9149594D01*
X47020160Y9149596D01*
X46973180Y9158941D01*
X46911269Y9191326D01*
X46909691Y9192877D01*
X46104563Y9998005D01*
X52399500Y9998005D01*
X52399500Y9761996D01*
X52399501Y9761980D01*
X52427138Y9552050D01*
X52430307Y9527986D01*
X52458763Y9421787D01*
X52491394Y9300007D01*
X52581714Y9081955D01*
X52581719Y9081944D01*
X52638750Y8983165D01*
X52699727Y8877550D01*
X52699729Y8877547D01*
X52699730Y8877546D01*
X52843406Y8690303D01*
X52843412Y8690296D01*
X53010295Y8523413D01*
X53010302Y8523407D01*
X53028021Y8509811D01*
X53197550Y8379727D01*
X53311576Y8313894D01*
X53401943Y8261720D01*
X53401948Y8261718D01*
X53401951Y8261716D01*
X53620007Y8171394D01*
X53847986Y8110307D01*
X54081989Y8079500D01*
X54081996Y8079500D01*
X54318004Y8079500D01*
X54318011Y8079500D01*
X54552014Y8110307D01*
X54779993Y8171394D01*
X54998049Y8261716D01*
X55202450Y8379727D01*
X55389699Y8523408D01*
X55556592Y8690301D01*
X55700273Y8877550D01*
X55818284Y9081951D01*
X55908606Y9300007D01*
X55969693Y9527986D01*
X56000500Y9761989D01*
X56000500Y9998011D01*
X55969693Y10232014D01*
X55908606Y10459993D01*
X55818284Y10678049D01*
X55818282Y10678052D01*
X55818280Y10678057D01*
X55759900Y10779173D01*
X55700273Y10882450D01*
X55615607Y10992789D01*
X55556593Y11069698D01*
X55556587Y11069705D01*
X55389704Y11236588D01*
X55389697Y11236594D01*
X55202454Y11380270D01*
X55202453Y11380271D01*
X55202450Y11380273D01*
X55120957Y11427323D01*
X54998056Y11498281D01*
X54998045Y11498286D01*
X54779993Y11588606D01*
X54552010Y11649694D01*
X54318020Y11680499D01*
X54318017Y11680500D01*
X54318011Y11680500D01*
X54081989Y11680500D01*
X54081983Y11680500D01*
X54081979Y11680499D01*
X53847989Y11649694D01*
X53620006Y11588606D01*
X53401954Y11498286D01*
X53401943Y11498281D01*
X53197545Y11380270D01*
X53010302Y11236594D01*
X53010295Y11236588D01*
X52843412Y11069705D01*
X52843406Y11069698D01*
X52699730Y10882455D01*
X52581719Y10678057D01*
X52581714Y10678046D01*
X52491394Y10459994D01*
X52430306Y10232011D01*
X52399501Y9998021D01*
X52399500Y9998005D01*
X46104563Y9998005D01*
X43002619Y13099949D01*
X42987915Y13126877D01*
X42971323Y13152695D01*
X42970431Y13158896D01*
X42969134Y13161272D01*
X42966300Y13187630D01*
X42966300Y14299164D01*
X51440000Y14299164D01*
X51440000Y14100837D01*
X51471026Y13904948D01*
X51532310Y13716331D01*
X51532311Y13716328D01*
X51622350Y13539620D01*
X51649161Y13502717D01*
X52208871Y14062426D01*
X52224755Y14003147D01*
X52291898Y13886853D01*
X52386853Y13791898D01*
X52503147Y13724755D01*
X52562424Y13708872D01*
X52002714Y13149163D01*
X52002715Y13149162D01*
X52039612Y13122355D01*
X52216327Y13032312D01*
X52216330Y13032311D01*
X52404947Y12971027D01*
X52600837Y12940000D01*
X52799163Y12940000D01*
X52995052Y12971027D01*
X53183669Y13032311D01*
X53183672Y13032312D01*
X53360382Y13122352D01*
X53397283Y13149163D01*
X53397284Y13149164D01*
X52837575Y13708873D01*
X52896853Y13724755D01*
X53013147Y13791898D01*
X53108102Y13886853D01*
X53175245Y14003147D01*
X53191128Y14062425D01*
X53750836Y13502716D01*
X53750837Y13502717D01*
X53777648Y13539618D01*
X53867688Y13716328D01*
X53867689Y13716331D01*
X53928973Y13904948D01*
X53960000Y14100837D01*
X53960000Y14299164D01*
X53928973Y14495053D01*
X53867689Y14683670D01*
X53867688Y14683673D01*
X53777645Y14860388D01*
X53750838Y14897285D01*
X53750837Y14897286D01*
X53191127Y14337577D01*
X53175245Y14396853D01*
X53108102Y14513147D01*
X53013147Y14608102D01*
X52896853Y14675245D01*
X52837574Y14691129D01*
X53397283Y15250839D01*
X53360380Y15277650D01*
X53183672Y15367689D01*
X53183669Y15367690D01*
X52995052Y15428974D01*
X52799163Y15460000D01*
X52600837Y15460000D01*
X52404947Y15428974D01*
X52216330Y15367690D01*
X52216322Y15367687D01*
X52039615Y15277648D01*
X52002715Y15250840D01*
X52002715Y15250839D01*
X52562425Y14691129D01*
X52503147Y14675245D01*
X52386853Y14608102D01*
X52291898Y14513147D01*
X52224755Y14396853D01*
X52208871Y14337575D01*
X51649161Y14897285D01*
X51649160Y14897285D01*
X51622352Y14860385D01*
X51532313Y14683678D01*
X51532310Y14683670D01*
X51471026Y14495053D01*
X51440000Y14299164D01*
X42966300Y14299164D01*
X42966300Y14498971D01*
X42985985Y14566010D01*
X43002619Y14586652D01*
X43241948Y14825981D01*
X43241951Y14825984D01*
X43324084Y14948905D01*
X43380658Y15085487D01*
X43387875Y15121770D01*
X43406757Y15216694D01*
X43408961Y15227772D01*
X43408961Y15227773D01*
X43408962Y15227777D01*
X43409500Y15230482D01*
X43409500Y16664921D01*
X43380659Y16809908D01*
X43380658Y16809909D01*
X43380658Y16809913D01*
X43324084Y16946495D01*
X43315295Y16959648D01*
X43294420Y17026325D01*
X43294400Y17028536D01*
X43294400Y19932531D01*
X43314085Y19999570D01*
X43366889Y20045325D01*
X43379386Y20050234D01*
X43513234Y20094586D01*
X43662556Y20186688D01*
X43786612Y20310744D01*
X43878714Y20460066D01*
X43933899Y20626603D01*
X43944400Y20729391D01*
X43944399Y22829408D01*
X43943511Y22838097D01*
X43933899Y22932197D01*
X43933898Y22932200D01*
X43905506Y23017880D01*
X43878714Y23098734D01*
X43786612Y23248056D01*
X43662556Y23372112D01*
X43513234Y23464214D01*
X43346697Y23519399D01*
X43346695Y23519400D01*
X43243916Y23529900D01*
X43243909Y23529900D01*
X42106000Y23529900D01*
X42038961Y23549585D01*
X41993206Y23602389D01*
X41982000Y23653900D01*
X41982000Y23905401D01*
X42001685Y23972440D01*
X42054489Y24018195D01*
X42106000Y24029401D01*
X42293900Y24029401D01*
X42793900Y24029401D01*
X43243872Y24029401D01*
X43243886Y24029402D01*
X43346597Y24039895D01*
X43513019Y24095042D01*
X43513024Y24095044D01*
X43662245Y24187085D01*
X43786215Y24311055D01*
X43878256Y24460276D01*
X43878258Y24460281D01*
X43933405Y24626703D01*
X43933406Y24626710D01*
X43943899Y24729414D01*
X43943900Y24729427D01*
X43943900Y25529400D01*
X42793900Y25529400D01*
X42793900Y24029401D01*
X42293900Y24029401D01*
X42293900Y25655400D01*
X42313585Y25722439D01*
X42366389Y25768194D01*
X42417900Y25779400D01*
X42543900Y25779400D01*
X42543900Y25905400D01*
X42563585Y25972439D01*
X42616389Y26018194D01*
X42667900Y26029400D01*
X43943899Y26029400D01*
X43943899Y26815300D01*
X43963584Y26882339D01*
X44016388Y26928094D01*
X44067899Y26939300D01*
X44194400Y26939300D01*
X44261439Y26919615D01*
X44307194Y26866811D01*
X44318400Y26815300D01*
X44318400Y26529400D01*
X44318401Y26529381D01*
X44328900Y26426604D01*
X44328901Y26426601D01*
X44370495Y26301080D01*
X44384086Y26260066D01*
X44476188Y26110744D01*
X44600244Y25986688D01*
X44749566Y25894586D01*
X44916103Y25839401D01*
X45018891Y25828900D01*
X45431670Y25828901D01*
X45498709Y25809217D01*
X45519351Y25792582D01*
X45735949Y25575984D01*
X45840484Y25471449D01*
X45840487Y25471447D01*
X45840488Y25471446D01*
X45963394Y25389323D01*
X45963396Y25389322D01*
X45963405Y25389316D01*
X45988323Y25378995D01*
X45988324Y25378994D01*
X45988325Y25378994D01*
X46099988Y25332741D01*
X46216141Y25309637D01*
X46235368Y25305813D01*
X46244981Y25303900D01*
X46244982Y25303900D01*
X46244983Y25303900D01*
X46392818Y25303900D01*
X47269401Y25303900D01*
X47336440Y25284215D01*
X47382195Y25231411D01*
X47393401Y25179900D01*
X47393401Y25131522D01*
X47397579Y25092655D01*
X47397579Y25066150D01*
X47393400Y25027277D01*
X47393400Y24481530D01*
X47393401Y24481521D01*
X47397579Y24442654D01*
X47397579Y24416148D01*
X47393400Y24377276D01*
X47393400Y24121591D01*
X47373715Y24054552D01*
X47325604Y24012864D01*
X47326288Y24011584D01*
X47320917Y24008714D01*
X47218466Y23940259D01*
X47218463Y23940256D01*
X46562885Y23284677D01*
X46501562Y23251192D01*
X46487806Y23249000D01*
X46446191Y23244749D01*
X46446189Y23244749D01*
X46285205Y23191404D01*
X46285194Y23191399D01*
X46140859Y23102371D01*
X46140855Y23102368D01*
X46131581Y23093093D01*
X46070258Y23059608D01*
X46000566Y23064592D01*
X45956219Y23093093D01*
X45946944Y23102368D01*
X45946940Y23102371D01*
X45802605Y23191399D01*
X45802599Y23191402D01*
X45802597Y23191403D01*
X45757004Y23206511D01*
X45641609Y23244749D01*
X45542246Y23254900D01*
X44995562Y23254900D01*
X44995544Y23254899D01*
X44896192Y23244750D01*
X44896189Y23244749D01*
X44735205Y23191404D01*
X44735194Y23191399D01*
X44590859Y23102371D01*
X44590855Y23102368D01*
X44470932Y22982445D01*
X44470929Y22982441D01*
X44381901Y22838106D01*
X44381896Y22838095D01*
X44328551Y22677110D01*
X44318400Y22577753D01*
X44318400Y21981063D01*
X44318401Y21981045D01*
X44328550Y21881693D01*
X44328551Y21881690D01*
X44381896Y21720706D01*
X44381901Y21720695D01*
X44470929Y21576360D01*
X44470932Y21576356D01*
X44557081Y21490207D01*
X44590566Y21428884D01*
X44593400Y21402526D01*
X44593400Y20670920D01*
X44573715Y20603881D01*
X44557081Y20583239D01*
X44463431Y20489590D01*
X44463430Y20489589D01*
X44375422Y20344007D01*
X44324813Y20181593D01*
X44318400Y20111014D01*
X44318400Y19447787D01*
X44324813Y19377208D01*
X44324813Y19377206D01*
X44324814Y19377204D01*
X44375422Y19214794D01*
X44397584Y19178133D01*
X44463430Y19069212D01*
X44583711Y18948931D01*
X44583713Y18948930D01*
X44583715Y18948928D01*
X44729294Y18860922D01*
X44891704Y18810314D01*
X44962284Y18803900D01*
X45258448Y18803900D01*
X45325487Y18784215D01*
X45346129Y18767581D01*
X45512816Y18600894D01*
X45512845Y18600863D01*
X45603062Y18510646D01*
X45603065Y18510644D01*
X45603067Y18510642D01*
X45644264Y18483115D01*
X45644267Y18483112D01*
X45693564Y18450174D01*
X45705515Y18442188D01*
X45767774Y18416400D01*
X45819348Y18395037D01*
X45879771Y18383019D01*
X45940193Y18371000D01*
X47615207Y18371000D01*
X47675629Y18383019D01*
X47736052Y18395037D01*
X47736055Y18395039D01*
X47736058Y18395039D01*
X47769387Y18408846D01*
X47769386Y18408846D01*
X47769392Y18408848D01*
X47849886Y18442188D01*
X47911136Y18483115D01*
X47952333Y18510642D01*
X48039458Y18597767D01*
X48039459Y18597770D01*
X48046525Y18604835D01*
X48046528Y18604839D01*
X50184271Y20742582D01*
X50245594Y20776067D01*
X50271952Y20778901D01*
X52667700Y20778901D01*
X52734739Y20759216D01*
X52780494Y20706412D01*
X52791700Y20654901D01*
X52791700Y19431989D01*
X52815735Y19311156D01*
X52815740Y19311139D01*
X52862885Y19197319D01*
X52862887Y19197315D01*
X52875705Y19178133D01*
X52875706Y19178131D01*
X52931340Y19094869D01*
X52931341Y19094868D01*
X52931342Y19094867D01*
X53018467Y19007742D01*
X53018468Y19007742D01*
X53025535Y19000675D01*
X53025534Y19000675D01*
X53025538Y19000672D01*
X53082081Y18944129D01*
X53115566Y18882806D01*
X53118400Y18856448D01*
X53118400Y18279399D01*
X53118401Y18279381D01*
X53128900Y18176604D01*
X53128901Y18176601D01*
X53184085Y18010069D01*
X53184087Y18010064D01*
X53218899Y17953624D01*
X53276188Y17860744D01*
X53400244Y17736688D01*
X53549566Y17644586D01*
X53716103Y17589401D01*
X53818891Y17578900D01*
X54443908Y17578901D01*
X54443916Y17578902D01*
X54443919Y17578902D01*
X54506707Y17585316D01*
X54546697Y17589401D01*
X54713234Y17644586D01*
X54862556Y17736688D01*
X54956219Y17830351D01*
X55017542Y17863836D01*
X55087234Y17858852D01*
X55131581Y17830351D01*
X55225244Y17736688D01*
X55374566Y17644586D01*
X55541103Y17589401D01*
X55643891Y17578900D01*
X56268908Y17578901D01*
X56268916Y17578902D01*
X56268919Y17578902D01*
X56331707Y17585316D01*
X56371697Y17589401D01*
X56538234Y17644586D01*
X56538238Y17644589D01*
X56539944Y17645154D01*
X56609773Y17647556D01*
X56669815Y17611825D01*
X56701008Y17549304D01*
X56693448Y17479845D01*
X56687095Y17467974D01*
X56687486Y17467765D01*
X56684618Y17462400D01*
X56655367Y17391783D01*
X56628487Y17351556D01*
X55117045Y15840114D01*
X55083357Y15789692D01*
X55083355Y15789689D01*
X55034919Y15717201D01*
X55034912Y15717189D01*
X54978342Y15580616D01*
X54978341Y15580613D01*
X54973585Y15556702D01*
X54941198Y15494792D01*
X54880481Y15460220D01*
X54865222Y15457607D01*
X54832516Y15454092D01*
X54697671Y15403798D01*
X54697664Y15403794D01*
X54582455Y15317548D01*
X54582452Y15317545D01*
X54496206Y15202336D01*
X54496202Y15202329D01*
X54445908Y15067483D01*
X54442821Y15038763D01*
X54439501Y15007877D01*
X54439500Y15007865D01*
X54439500Y13392130D01*
X54439501Y13392124D01*
X54445908Y13332517D01*
X54496202Y13197672D01*
X54496206Y13197665D01*
X54582452Y13082456D01*
X54582455Y13082453D01*
X54697664Y12996207D01*
X54697671Y12996203D01*
X54832517Y12945909D01*
X54832516Y12945909D01*
X54839444Y12945165D01*
X54892127Y12939500D01*
X56507872Y12939501D01*
X56567483Y12945909D01*
X56702331Y12996204D01*
X56817546Y13082454D01*
X56903796Y13197669D01*
X56954091Y13332517D01*
X56960500Y13392127D01*
X56960499Y15007872D01*
X56954091Y15067483D01*
X56949382Y15080108D01*
X56903797Y15202329D01*
X56903795Y15202332D01*
X56893043Y15216695D01*
X56838982Y15288911D01*
X56814565Y15354373D01*
X56829416Y15422647D01*
X56850565Y15450899D01*
X57431721Y16032056D01*
X57493042Y16065539D01*
X57562733Y16060555D01*
X57618667Y16018684D01*
X57643084Y15953219D01*
X57643400Y15944373D01*
X57643400Y15329399D01*
X57643401Y15329381D01*
X57653900Y15226604D01*
X57653901Y15226601D01*
X57709085Y15060069D01*
X57709087Y15060064D01*
X57728462Y15028652D01*
X57801188Y14910744D01*
X57925244Y14786688D01*
X58074566Y14694586D01*
X58241103Y14639401D01*
X58343891Y14628900D01*
X59719537Y14628901D01*
X59786576Y14609216D01*
X59807218Y14592582D01*
X60471881Y13927920D01*
X60505366Y13866597D01*
X60508200Y13840239D01*
X60508200Y13218562D01*
X60488515Y13151523D01*
X60471881Y13130881D01*
X59807218Y12466219D01*
X59745895Y12432734D01*
X59719537Y12429900D01*
X58343898Y12429900D01*
X58343881Y12429899D01*
X58241103Y12419400D01*
X58241100Y12419399D01*
X58074568Y12364215D01*
X58074563Y12364213D01*
X57925242Y12272111D01*
X57801189Y12148058D01*
X57709087Y11998737D01*
X57709085Y11998732D01*
X57690186Y11941698D01*
X57653901Y11832197D01*
X57653901Y11832196D01*
X57653900Y11832196D01*
X57643400Y11729417D01*
X57643400Y9829399D01*
X57643401Y9829382D01*
X57653900Y9726604D01*
X57653901Y9726601D01*
X57709085Y9560069D01*
X57709087Y9560064D01*
X57728873Y9527986D01*
X57801188Y9410744D01*
X57925244Y9286688D01*
X58074566Y9194586D01*
X58241103Y9139401D01*
X58343891Y9128900D01*
X60443908Y9128901D01*
X60546697Y9139401D01*
X60713234Y9194586D01*
X60862556Y9286688D01*
X60986612Y9410744D01*
X61078714Y9560066D01*
X61133899Y9726603D01*
X61144400Y9829391D01*
X61144400Y9829414D01*
X61943901Y9829414D01*
X61954394Y9726703D01*
X62009541Y9560281D01*
X62009543Y9560276D01*
X62101584Y9411055D01*
X62225554Y9287085D01*
X62374775Y9195044D01*
X62374780Y9195042D01*
X62541202Y9139895D01*
X62541209Y9139894D01*
X62643919Y9129401D01*
X63443899Y9129401D01*
X63943900Y9129401D01*
X64743872Y9129401D01*
X64743886Y9129402D01*
X64846597Y9139895D01*
X65013019Y9195042D01*
X65013024Y9195044D01*
X65162245Y9287085D01*
X65286215Y9411055D01*
X65378256Y9560276D01*
X65378258Y9560281D01*
X65433405Y9726703D01*
X65433406Y9726710D01*
X65443899Y9829414D01*
X65443900Y9829427D01*
X65443900Y10478847D01*
X84299500Y10478847D01*
X84299500Y10321154D01*
X84330261Y10166511D01*
X84330264Y10166499D01*
X84390602Y10020828D01*
X84390609Y10020815D01*
X84478210Y9889712D01*
X84478213Y9889708D01*
X84589707Y9778214D01*
X84589711Y9778211D01*
X84720814Y9690610D01*
X84720827Y9690603D01*
X84820060Y9649500D01*
X84866503Y9630263D01*
X85016131Y9600500D01*
X85021153Y9599501D01*
X85021156Y9599500D01*
X85021158Y9599500D01*
X85178844Y9599500D01*
X85178845Y9599501D01*
X85333497Y9630263D01*
X85479179Y9690606D01*
X85610289Y9778211D01*
X85721789Y9889711D01*
X85809394Y10020821D01*
X85869737Y10166503D01*
X85900500Y10321158D01*
X85900500Y10321161D01*
X85900637Y10321849D01*
X85933021Y10383760D01*
X85934528Y10385295D01*
X86026140Y10476907D01*
X86075499Y10507155D01*
X86180025Y10541116D01*
X86355405Y10630476D01*
X86514646Y10746172D01*
X86653828Y10885354D01*
X86769524Y11044595D01*
X86858884Y11219975D01*
X86882069Y11291334D01*
X86921507Y11349007D01*
X86985866Y11376205D01*
X87054712Y11364290D01*
X87106188Y11317046D01*
X87117929Y11291336D01*
X87141116Y11219975D01*
X87141117Y11219972D01*
X87141118Y11219971D01*
X87179390Y11144857D01*
X87230476Y11044595D01*
X87346172Y10885354D01*
X87485354Y10746172D01*
X87640437Y10633497D01*
X87648386Y10627722D01*
X87691051Y10572392D01*
X87699500Y10527404D01*
X87699500Y7579766D01*
X87679815Y7512727D01*
X87678602Y7510875D01*
X87590609Y7379186D01*
X87590602Y7379173D01*
X87530264Y7233502D01*
X87530261Y7233490D01*
X87499500Y7078847D01*
X87499500Y6921154D01*
X87530261Y6766511D01*
X87530264Y6766499D01*
X87590602Y6620828D01*
X87590609Y6620815D01*
X87678210Y6489712D01*
X87678213Y6489708D01*
X87789707Y6378214D01*
X87789711Y6378211D01*
X87920814Y6290610D01*
X87920827Y6290603D01*
X88066498Y6230265D01*
X88066503Y6230263D01*
X88221153Y6199501D01*
X88221156Y6199500D01*
X88221158Y6199500D01*
X88378844Y6199500D01*
X88378845Y6199501D01*
X88533497Y6230263D01*
X88679179Y6290606D01*
X88810289Y6378211D01*
X88921789Y6489711D01*
X89009394Y6620821D01*
X89069737Y6766503D01*
X89100500Y6921158D01*
X89100500Y7078842D01*
X89100500Y7078845D01*
X89100499Y7078847D01*
X89073964Y7212247D01*
X89069737Y7233497D01*
X89053759Y7272071D01*
X89009397Y7379173D01*
X89009390Y7379186D01*
X88921398Y7510875D01*
X88900520Y7577553D01*
X88900500Y7579766D01*
X88900500Y10527404D01*
X88920185Y10594443D01*
X88951614Y10627722D01*
X88955403Y10630476D01*
X88955405Y10630476D01*
X89114646Y10746172D01*
X89253828Y10885354D01*
X89369524Y11044595D01*
X89458884Y11219975D01*
X89482069Y11291334D01*
X89521507Y11349007D01*
X89585866Y11376205D01*
X89654712Y11364290D01*
X89706188Y11317046D01*
X89717929Y11291336D01*
X89741116Y11219975D01*
X89741117Y11219972D01*
X89741118Y11219971D01*
X89779390Y11144857D01*
X89830476Y11044595D01*
X89946172Y10885354D01*
X90085354Y10746172D01*
X90244595Y10630476D01*
X90313770Y10595230D01*
X90419970Y10541118D01*
X90419972Y10541118D01*
X90419975Y10541116D01*
X90498022Y10515757D01*
X90607173Y10480291D01*
X90801578Y10449500D01*
X90801583Y10449500D01*
X90998422Y10449500D01*
X91197454Y10481024D01*
X91266747Y10472070D01*
X91304533Y10446232D01*
X91315425Y10435340D01*
X91348910Y10374017D01*
X91349361Y10371851D01*
X91380261Y10216509D01*
X91380264Y10216499D01*
X91440602Y10070828D01*
X91440609Y10070815D01*
X91528210Y9939712D01*
X91528213Y9939708D01*
X91639707Y9828214D01*
X91639711Y9828211D01*
X91770814Y9740610D01*
X91770827Y9740603D01*
X91916498Y9680265D01*
X91916503Y9680263D01*
X92071153Y9649501D01*
X92071156Y9649500D01*
X92071158Y9649500D01*
X92228844Y9649500D01*
X92228845Y9649501D01*
X92383497Y9680263D01*
X92529179Y9740606D01*
X92660289Y9828211D01*
X92771789Y9939711D01*
X92859394Y10070821D01*
X92919737Y10216503D01*
X92950500Y10371158D01*
X92950500Y10393019D01*
X92970185Y10460058D01*
X93022989Y10505813D01*
X93092147Y10515757D01*
X93112816Y10510950D01*
X93136151Y10503368D01*
X93207166Y10480293D01*
X93207169Y10480293D01*
X93207174Y10480291D01*
X93297213Y10466031D01*
X93401578Y10449500D01*
X93401583Y10449500D01*
X93598422Y10449500D01*
X93686784Y10463496D01*
X93792826Y10480291D01*
X93816901Y10488115D01*
X93886742Y10490109D01*
X93942901Y10457864D01*
X93965425Y10435340D01*
X93998910Y10374017D01*
X93999361Y10371851D01*
X94030261Y10216509D01*
X94030264Y10216499D01*
X94090602Y10070828D01*
X94090609Y10070815D01*
X94178210Y9939712D01*
X94178213Y9939708D01*
X94289707Y9828214D01*
X94289711Y9828211D01*
X94420814Y9740610D01*
X94420827Y9740603D01*
X94566498Y9680265D01*
X94566503Y9680263D01*
X94721153Y9649501D01*
X94721156Y9649500D01*
X94721158Y9649500D01*
X94878844Y9649500D01*
X94878845Y9649501D01*
X95033497Y9680263D01*
X95179179Y9740606D01*
X95310289Y9828211D01*
X95421789Y9939711D01*
X95509394Y10070821D01*
X95569737Y10216503D01*
X95600500Y10371158D01*
X95600500Y10477299D01*
X95620185Y10544338D01*
X95672989Y10590093D01*
X95742147Y10600037D01*
X95762819Y10595230D01*
X95807296Y10580779D01*
X96001618Y10550000D01*
X96198382Y10550000D01*
X96392705Y10580779D01*
X96579835Y10641582D01*
X96755143Y10730905D01*
X96790125Y10756322D01*
X96790126Y10756322D01*
X95923223Y11623223D01*
X95782765Y11763681D01*
X95746445Y11800001D01*
X96453553Y11800001D01*
X96453553Y11799999D01*
X97143678Y11109874D01*
X97143678Y11109875D01*
X97169095Y11144857D01*
X97258419Y11320166D01*
X97281805Y11392140D01*
X97321242Y11449816D01*
X97385600Y11477015D01*
X97454447Y11465101D01*
X97505923Y11417857D01*
X97517666Y11392143D01*
X97536258Y11334926D01*
X97541116Y11319975D01*
X97630476Y11144595D01*
X97746172Y10985354D01*
X97885354Y10846172D01*
X98044595Y10730476D01*
X98120352Y10691876D01*
X98219970Y10641118D01*
X98219972Y10641118D01*
X98219975Y10641116D01*
X98282455Y10620815D01*
X98407173Y10580291D01*
X98601578Y10549500D01*
X98601583Y10549500D01*
X98798422Y10549500D01*
X98992826Y10580291D01*
X99008337Y10585331D01*
X99180025Y10641116D01*
X99355405Y10730476D01*
X99514646Y10846172D01*
X99653828Y10985354D01*
X99769524Y11144595D01*
X99858884Y11319975D01*
X99919709Y11507174D01*
X99920203Y11510293D01*
X99950500Y11701578D01*
X99950500Y11898423D01*
X99919709Y12092827D01*
X99878334Y12220165D01*
X99858884Y12280025D01*
X99858882Y12280028D01*
X99858882Y12280030D01*
X99809942Y12376080D01*
X99769524Y12455405D01*
X99653828Y12614646D01*
X99636819Y12631655D01*
X99603334Y12692978D01*
X99600500Y12719336D01*
X99600500Y12775638D01*
X99620185Y12842677D01*
X99636819Y12863319D01*
X99849459Y13075959D01*
X99849464Y13075964D01*
X99948012Y13223453D01*
X100015895Y13387334D01*
X100050500Y13561308D01*
X100050500Y13738692D01*
X100015895Y13912666D01*
X99948012Y14076547D01*
X99934459Y14096830D01*
X99849465Y14224035D01*
X99849459Y14224042D01*
X99724041Y14349460D01*
X99724034Y14349466D01*
X99576548Y14448012D01*
X99412666Y14515895D01*
X99412658Y14515897D01*
X99238696Y14550500D01*
X99238692Y14550500D01*
X99061308Y14550500D01*
X99061303Y14550500D01*
X98887341Y14515897D01*
X98887333Y14515895D01*
X98723451Y14448012D01*
X98575965Y14349466D01*
X98575958Y14349460D01*
X98000537Y13774039D01*
X97982785Y13747470D01*
X97976924Y13738697D01*
X97976921Y13738693D01*
X97976920Y13738692D01*
X97901990Y13626553D01*
X97901985Y13626544D01*
X97873359Y13557432D01*
X97840830Y13478900D01*
X97834105Y13462666D01*
X97801650Y13299500D01*
X97801310Y13297790D01*
X97799500Y13288690D01*
X97799500Y12719336D01*
X97779815Y12652297D01*
X97763181Y12631655D01*
X97746174Y12614649D01*
X97746174Y12614648D01*
X97746172Y12614646D01*
X97696485Y12546259D01*
X97630476Y12455406D01*
X97541115Y12280026D01*
X97517666Y12207858D01*
X97478228Y12150183D01*
X97413869Y12122986D01*
X97345023Y12134902D01*
X97293548Y12182147D01*
X97281805Y12207860D01*
X97258418Y12279836D01*
X97169096Y12455142D01*
X97143678Y12490127D01*
X97143677Y12490127D01*
X96453553Y11800001D01*
X95746445Y11800001D01*
X95056320Y12490128D01*
X95056320Y12490127D01*
X95030902Y12455141D01*
X95030899Y12455137D01*
X94941582Y12279841D01*
X94901948Y12157858D01*
X94862510Y12100183D01*
X94798151Y12072985D01*
X94729305Y12084900D01*
X94677829Y12132144D01*
X94666087Y12157854D01*
X94658884Y12180025D01*
X94658882Y12180028D01*
X94658882Y12180030D01*
X94608028Y12279836D01*
X94569524Y12355405D01*
X94453828Y12514646D01*
X94314646Y12653828D01*
X94155405Y12769524D01*
X94134735Y12780056D01*
X94009866Y12843680D01*
X95409872Y12843680D01*
X96100000Y12153554D01*
X96100001Y12153554D01*
X96790125Y12843680D01*
X96790125Y12843681D01*
X96755145Y12869095D01*
X96579835Y12958419D01*
X96392705Y13019222D01*
X96198382Y13050000D01*
X96001618Y13050000D01*
X95807294Y13019222D01*
X95620161Y12958418D01*
X95444863Y12869101D01*
X95444859Y12869098D01*
X95409873Y12843680D01*
X95409872Y12843680D01*
X94009866Y12843680D01*
X93980029Y12858883D01*
X93792826Y12919710D01*
X93598422Y12950500D01*
X93598417Y12950500D01*
X93401583Y12950500D01*
X93401578Y12950500D01*
X93207173Y12919710D01*
X93019970Y12858883D01*
X92844594Y12769524D01*
X92767189Y12713285D01*
X92685354Y12653828D01*
X92685352Y12653826D01*
X92685351Y12653826D01*
X92546174Y12514649D01*
X92546174Y12514648D01*
X92546172Y12514646D01*
X92503244Y12455561D01*
X92430476Y12355406D01*
X92341117Y12180030D01*
X92317931Y12108669D01*
X92278493Y12050994D01*
X92214134Y12023796D01*
X92145288Y12035711D01*
X92093812Y12082956D01*
X92082069Y12108669D01*
X92077124Y12123889D01*
X92058884Y12180025D01*
X92058882Y12180028D01*
X92058882Y12180030D01*
X92008028Y12279836D01*
X91969524Y12355405D01*
X91853828Y12514646D01*
X91714646Y12653828D01*
X91555405Y12769524D01*
X91534735Y12780056D01*
X91380029Y12858883D01*
X91192826Y12919710D01*
X90998422Y12950500D01*
X90998417Y12950500D01*
X90801583Y12950500D01*
X90801578Y12950500D01*
X90607173Y12919710D01*
X90419970Y12858883D01*
X90244594Y12769524D01*
X90167189Y12713285D01*
X90085354Y12653828D01*
X90085352Y12653826D01*
X90085351Y12653826D01*
X89946174Y12514649D01*
X89946174Y12514648D01*
X89946172Y12514646D01*
X89903244Y12455561D01*
X89830476Y12355406D01*
X89741117Y12180030D01*
X89717931Y12108669D01*
X89678493Y12050994D01*
X89614134Y12023796D01*
X89545288Y12035711D01*
X89493812Y12082956D01*
X89482069Y12108669D01*
X89477124Y12123889D01*
X89458884Y12180025D01*
X89458882Y12180028D01*
X89458882Y12180030D01*
X89408028Y12279836D01*
X89369524Y12355405D01*
X89253828Y12514646D01*
X89114646Y12653828D01*
X89055912Y12696501D01*
X88951614Y12772279D01*
X88908949Y12827610D01*
X88900500Y12872597D01*
X88900500Y13520235D01*
X88920185Y13587274D01*
X88921398Y13589126D01*
X89009390Y13720815D01*
X89009390Y13720816D01*
X89009394Y13720821D01*
X89069737Y13866503D01*
X89100500Y14021158D01*
X89100500Y14178842D01*
X89100500Y14178845D01*
X89100499Y14178847D01*
X89084032Y14261631D01*
X89069737Y14333497D01*
X89063123Y14349464D01*
X89009397Y14479173D01*
X89009390Y14479186D01*
X88921789Y14610289D01*
X88921786Y14610293D01*
X88810292Y14721787D01*
X88810288Y14721790D01*
X88679185Y14809391D01*
X88679172Y14809398D01*
X88533501Y14869736D01*
X88533489Y14869739D01*
X88378845Y14900500D01*
X88378842Y14900500D01*
X88221158Y14900500D01*
X88221155Y14900500D01*
X88066510Y14869739D01*
X88066498Y14869736D01*
X87920827Y14809398D01*
X87920814Y14809391D01*
X87789711Y14721790D01*
X87789707Y14721787D01*
X87678213Y14610293D01*
X87678210Y14610289D01*
X87590609Y14479186D01*
X87590602Y14479173D01*
X87530264Y14333502D01*
X87530261Y14333490D01*
X87499500Y14178847D01*
X87499500Y14021154D01*
X87530261Y13866511D01*
X87530264Y13866499D01*
X87590602Y13720828D01*
X87590609Y13720815D01*
X87678602Y13589126D01*
X87699480Y13522449D01*
X87699500Y13520235D01*
X87699500Y12872597D01*
X87679815Y12805558D01*
X87648386Y12772279D01*
X87485352Y12653827D01*
X87346174Y12514649D01*
X87346174Y12514648D01*
X87346172Y12514646D01*
X87303244Y12455561D01*
X87230476Y12355406D01*
X87141117Y12180030D01*
X87117931Y12108669D01*
X87078493Y12050994D01*
X87014134Y12023796D01*
X86945288Y12035711D01*
X86893812Y12082956D01*
X86882069Y12108669D01*
X86877124Y12123889D01*
X86858884Y12180025D01*
X86858882Y12180028D01*
X86858882Y12180030D01*
X86808028Y12279836D01*
X86769524Y12355405D01*
X86653828Y12514646D01*
X86514646Y12653828D01*
X86355405Y12769524D01*
X86334735Y12780056D01*
X86180029Y12858883D01*
X85992826Y12919710D01*
X85798422Y12950500D01*
X85798417Y12950500D01*
X85601583Y12950500D01*
X85601578Y12950500D01*
X85407173Y12919710D01*
X85219970Y12858883D01*
X85044594Y12769524D01*
X84967189Y12713285D01*
X84885354Y12653828D01*
X84885352Y12653826D01*
X84885351Y12653826D01*
X84746174Y12514649D01*
X84746174Y12514648D01*
X84746172Y12514646D01*
X84703244Y12455561D01*
X84630476Y12355406D01*
X84541117Y12180030D01*
X84480290Y11992827D01*
X84449500Y11798423D01*
X84449500Y11601578D01*
X84480290Y11407174D01*
X84541118Y11219968D01*
X84583513Y11136764D01*
X84596409Y11068095D01*
X84570132Y11003355D01*
X84560710Y10992789D01*
X84478210Y10910289D01*
X84390609Y10779186D01*
X84390602Y10779173D01*
X84330264Y10633502D01*
X84330261Y10633490D01*
X84299500Y10478847D01*
X65443900Y10478847D01*
X65443900Y10529400D01*
X63943900Y10529400D01*
X63943900Y9129401D01*
X63443899Y9129401D01*
X63443900Y9129402D01*
X63443900Y10529400D01*
X61943901Y10529400D01*
X61943901Y9829414D01*
X61144400Y9829414D01*
X61144399Y11205040D01*
X61164084Y11272078D01*
X61180713Y11292715D01*
X61734592Y11846594D01*
X61795913Y11880077D01*
X61865605Y11875093D01*
X61921538Y11833221D01*
X61945955Y11767757D01*
X61945629Y11746311D01*
X61943901Y11729394D01*
X61943900Y11729374D01*
X61943900Y11029400D01*
X63443900Y11029400D01*
X63943900Y11029400D01*
X65443899Y11029400D01*
X65443899Y11729372D01*
X65443898Y11729387D01*
X65433405Y11832098D01*
X65378258Y11998520D01*
X65378256Y11998525D01*
X65286215Y12147746D01*
X65162245Y12271716D01*
X65013024Y12363757D01*
X65013019Y12363759D01*
X64846597Y12418906D01*
X64846590Y12418907D01*
X64743886Y12429400D01*
X63943900Y12429400D01*
X63943900Y11029400D01*
X63443900Y11029400D01*
X63443900Y12429400D01*
X62643928Y12429400D01*
X62643912Y12429399D01*
X62541202Y12418906D01*
X62433935Y12383361D01*
X62364106Y12380959D01*
X62304065Y12416691D01*
X62272872Y12479212D01*
X62275616Y12525120D01*
X62273406Y12525559D01*
X62300227Y12660397D01*
X62309200Y12705509D01*
X62309200Y14353291D01*
X62309200Y14353294D01*
X62273460Y14532967D01*
X62279687Y14602559D01*
X62322550Y14657736D01*
X62388440Y14680981D01*
X62434079Y14674866D01*
X62541103Y14639401D01*
X62643891Y14628900D01*
X64743908Y14628901D01*
X64846697Y14639401D01*
X65013234Y14694586D01*
X65162556Y14786688D01*
X65286612Y14910744D01*
X65378714Y15060066D01*
X65433899Y15226603D01*
X65444400Y15329391D01*
X65444399Y16353847D01*
X78399500Y16353847D01*
X78399500Y16196154D01*
X78430261Y16041511D01*
X78430264Y16041499D01*
X78490602Y15895828D01*
X78490609Y15895815D01*
X78578210Y15764712D01*
X78578213Y15764708D01*
X78579635Y15763286D01*
X78595057Y15744495D01*
X78655885Y15653458D01*
X78755858Y15553485D01*
X78755872Y15553472D01*
X78755886Y15553458D01*
X78814552Y15494792D01*
X78853459Y15455885D01*
X78968184Y15379228D01*
X78968185Y15379228D01*
X78968189Y15379225D01*
X79018847Y15358242D01*
X79095671Y15326420D01*
X79095675Y15326420D01*
X79095676Y15326419D01*
X79095679Y15326418D01*
X79122545Y15321075D01*
X79122551Y15321074D01*
X79122591Y15321066D01*
X79212937Y15303095D01*
X79231006Y15299500D01*
X79231007Y15299500D01*
X83375162Y15299500D01*
X83442201Y15279815D01*
X83487956Y15227011D01*
X83489715Y15222971D01*
X83490606Y15220821D01*
X83490607Y15220820D01*
X83490609Y15220815D01*
X83578210Y15089712D01*
X83578213Y15089708D01*
X83689707Y14978214D01*
X83689711Y14978211D01*
X83820814Y14890610D01*
X83820827Y14890603D01*
X83946291Y14838635D01*
X83966503Y14830263D01*
X84121153Y14799501D01*
X84121156Y14799500D01*
X84121158Y14799500D01*
X84278844Y14799500D01*
X84278845Y14799501D01*
X84433497Y14830263D01*
X84579179Y14890606D01*
X84710289Y14978211D01*
X84821789Y15089711D01*
X84909394Y15220821D01*
X84910276Y15222949D01*
X84947596Y15313049D01*
X84969737Y15366503D01*
X85000500Y15521158D01*
X85000500Y15678842D01*
X85000500Y15678845D01*
X85000499Y15678847D01*
X84985058Y15756472D01*
X84969737Y15833497D01*
X84942099Y15900221D01*
X84909397Y15979173D01*
X84909390Y15979186D01*
X84821789Y16110289D01*
X84821786Y16110293D01*
X84739237Y16192842D01*
X84705752Y16254165D01*
X84710736Y16323857D01*
X84712344Y16327944D01*
X84769737Y16466503D01*
X84800500Y16621158D01*
X84800500Y16778842D01*
X84800500Y16778845D01*
X84800499Y16778847D01*
X84796230Y16800308D01*
X84769737Y16933497D01*
X84759525Y16958151D01*
X84709397Y17079173D01*
X84709390Y17079186D01*
X84621789Y17210289D01*
X84621786Y17210293D01*
X84510292Y17321787D01*
X84510288Y17321790D01*
X84379185Y17409391D01*
X84379172Y17409398D01*
X84233501Y17469736D01*
X84233489Y17469739D01*
X84078845Y17500500D01*
X84078842Y17500500D01*
X83921158Y17500500D01*
X83921155Y17500500D01*
X83766510Y17469739D01*
X83766498Y17469736D01*
X83620827Y17409398D01*
X83620820Y17409394D01*
X83594464Y17391783D01*
X83563955Y17371398D01*
X83497279Y17350520D01*
X83495065Y17350500D01*
X81804935Y17350500D01*
X81737896Y17370185D01*
X81736090Y17371367D01*
X81679179Y17409394D01*
X81679172Y17409398D01*
X81533501Y17469736D01*
X81533489Y17469739D01*
X81378845Y17500500D01*
X81378842Y17500500D01*
X81221158Y17500500D01*
X81221155Y17500500D01*
X81066510Y17469739D01*
X81066498Y17469736D01*
X80920827Y17409398D01*
X80920814Y17409391D01*
X80789711Y17321790D01*
X80789707Y17321787D01*
X80678213Y17210293D01*
X80678210Y17210289D01*
X80590609Y17079186D01*
X80590602Y17079173D01*
X80530264Y16933502D01*
X80530261Y16933492D01*
X80503769Y16800308D01*
X80471384Y16738397D01*
X80410668Y16703823D01*
X80382152Y16700500D01*
X79944723Y16700500D01*
X79877684Y16720185D01*
X79841621Y16755609D01*
X79821789Y16785289D01*
X79821786Y16785293D01*
X79710292Y16896787D01*
X79710288Y16896790D01*
X79579185Y16984391D01*
X79579172Y16984398D01*
X79433501Y17044736D01*
X79433489Y17044739D01*
X79278845Y17075500D01*
X79278842Y17075500D01*
X79121158Y17075500D01*
X79121155Y17075500D01*
X78966510Y17044739D01*
X78966498Y17044736D01*
X78820827Y16984398D01*
X78820814Y16984391D01*
X78689711Y16896790D01*
X78689707Y16896787D01*
X78578213Y16785293D01*
X78578210Y16785289D01*
X78490609Y16654186D01*
X78490602Y16654173D01*
X78430264Y16508502D01*
X78430261Y16508490D01*
X78399500Y16353847D01*
X65444399Y16353847D01*
X65444399Y17229408D01*
X65441657Y17256246D01*
X65433899Y17332197D01*
X65433898Y17332200D01*
X65408317Y17409398D01*
X65378714Y17498734D01*
X65286612Y17648056D01*
X65162556Y17772112D01*
X65024917Y17857008D01*
X65013236Y17864213D01*
X65013231Y17864215D01*
X65011762Y17864702D01*
X64846697Y17919399D01*
X64846695Y17919400D01*
X64743916Y17929900D01*
X64743909Y17929900D01*
X63156161Y17929900D01*
X63089122Y17949585D01*
X63068479Y17966220D01*
X60696439Y20338327D01*
X60696415Y20338354D01*
X60695372Y20339397D01*
X60695322Y20339452D01*
X60691019Y20343755D01*
X60691018Y20343756D01*
X60647821Y20386947D01*
X60622007Y20412761D01*
X60586524Y20448245D01*
X60586523Y20448246D01*
X60583420Y20451349D01*
X60583405Y20451363D01*
X60582625Y20452143D01*
X60582525Y20452235D01*
X60178725Y20855979D01*
X60145236Y20917300D01*
X60142400Y20943666D01*
X60142400Y23330321D01*
X60113559Y23475308D01*
X60113558Y23475309D01*
X60113558Y23475313D01*
X60095528Y23518842D01*
X60056987Y23611889D01*
X60056980Y23611902D01*
X59974852Y23734815D01*
X59946619Y23763048D01*
X59870316Y23839351D01*
X59588076Y24121591D01*
X59305719Y24403949D01*
X59272234Y24465272D01*
X59269400Y24491630D01*
X59269400Y24611014D01*
X59269400Y24611016D01*
X59262986Y24681596D01*
X59212378Y24844006D01*
X59155067Y24938809D01*
X59137232Y25006361D01*
X59158749Y25072835D01*
X59173499Y25090633D01*
X60925448Y26842583D01*
X60986771Y26876067D01*
X61013129Y26878901D01*
X61393902Y26878901D01*
X61393908Y26878901D01*
X61496697Y26889401D01*
X61663234Y26944586D01*
X61812556Y27036688D01*
X61856573Y27080706D01*
X61917894Y27114190D01*
X61987585Y27109206D01*
X62031934Y27080705D01*
X62075554Y27037085D01*
X62224775Y26945044D01*
X62224780Y26945042D01*
X62391202Y26889895D01*
X62391209Y26889894D01*
X62493919Y26879401D01*
X62618899Y26879401D01*
X63118900Y26879401D01*
X63243872Y26879401D01*
X63243886Y26879402D01*
X63346597Y26889895D01*
X63513019Y26945042D01*
X63513024Y26945044D01*
X63662245Y27037085D01*
X63786215Y27161055D01*
X63878256Y27310276D01*
X63878258Y27310281D01*
X63933405Y27476703D01*
X63933406Y27476710D01*
X63943899Y27579414D01*
X63943900Y27579427D01*
X63943900Y28029400D01*
X63118900Y28029400D01*
X63118900Y26879401D01*
X62618899Y26879401D01*
X62618900Y26879402D01*
X62618900Y28155400D01*
X62638585Y28222439D01*
X62691389Y28268194D01*
X62742900Y28279400D01*
X62868900Y28279400D01*
X62868900Y28405400D01*
X62888585Y28472439D01*
X62941389Y28518194D01*
X62992900Y28529400D01*
X63943899Y28529400D01*
X63943899Y28582671D01*
X63963584Y28649710D01*
X64016388Y28695465D01*
X64085546Y28705409D01*
X64146444Y28678621D01*
X64697948Y28227142D01*
X64737353Y28169446D01*
X64743400Y28131194D01*
X64743400Y27579399D01*
X64743401Y27579381D01*
X64753900Y27476604D01*
X64753901Y27476601D01*
X64809085Y27310069D01*
X64809087Y27310064D01*
X64838007Y27263177D01*
X64901188Y27160744D01*
X65025244Y27036688D01*
X65174566Y26944586D01*
X65341103Y26889401D01*
X65443891Y26878900D01*
X66193908Y26878901D01*
X66193916Y26878902D01*
X66193919Y26878902D01*
X66250202Y26884652D01*
X66296697Y26889401D01*
X66463234Y26944586D01*
X66612556Y27036688D01*
X66736612Y27160744D01*
X66828714Y27310066D01*
X66883899Y27476603D01*
X66894400Y27579391D01*
X66894399Y28979408D01*
X66889578Y29026598D01*
X66883899Y29082197D01*
X66883898Y29082200D01*
X66865024Y29139157D01*
X66828714Y29248734D01*
X66786575Y29317052D01*
X66780819Y29326385D01*
X66780818Y29326386D01*
X66745855Y29383070D01*
X66743671Y29386611D01*
X81999500Y29386611D01*
X81999500Y29213390D01*
X82020606Y29080127D01*
X82026598Y29042299D01*
X82080127Y28877555D01*
X82158768Y28723212D01*
X82260586Y28583072D01*
X82383072Y28460586D01*
X82523212Y28358768D01*
X82677555Y28280127D01*
X82842299Y28226598D01*
X83013389Y28199500D01*
X83013390Y28199500D01*
X84511610Y28199500D01*
X84511611Y28199500D01*
X84682701Y28226598D01*
X84847445Y28280127D01*
X85001788Y28358768D01*
X85141928Y28460586D01*
X85644523Y28963181D01*
X85705846Y28996666D01*
X85732204Y28999500D01*
X88297688Y28999500D01*
X88303217Y28999377D01*
X88362446Y28996733D01*
X88378454Y28998541D01*
X88380014Y28998717D01*
X88393927Y28999500D01*
X88411606Y28999500D01*
X88411611Y28999500D01*
X88443106Y29004489D01*
X88481894Y29004489D01*
X88513389Y28999500D01*
X88513390Y28999500D01*
X88513394Y28999500D01*
X95486610Y28999500D01*
X95486611Y28999500D01*
X95657701Y29026598D01*
X95822445Y29080127D01*
X95976788Y29158768D01*
X96116928Y29260586D01*
X96239414Y29383072D01*
X96341232Y29523212D01*
X96419873Y29677555D01*
X96473402Y29842299D01*
X96500500Y30013389D01*
X96500500Y30186611D01*
X96473402Y30357701D01*
X96419873Y30522445D01*
X96341232Y30676788D01*
X96239414Y30816928D01*
X96116928Y30939414D01*
X95976788Y31041232D01*
X95822445Y31119873D01*
X95657701Y31173402D01*
X95657699Y31173403D01*
X95657698Y31173403D01*
X95526271Y31194219D01*
X95486611Y31200500D01*
X95486610Y31200500D01*
X89419807Y31200500D01*
X89352768Y31220185D01*
X89307013Y31272989D01*
X89298190Y31300308D01*
X89265895Y31462660D01*
X89265894Y31462666D01*
X89212821Y31590798D01*
X89198016Y31626541D01*
X89198009Y31626554D01*
X89099464Y31774035D01*
X89099461Y31774039D01*
X88974038Y31899462D01*
X88974034Y31899465D01*
X88826553Y31998010D01*
X88826540Y31998017D01*
X88662667Y32065894D01*
X88662658Y32065897D01*
X88488694Y32100500D01*
X88488691Y32100500D01*
X88311309Y32100500D01*
X88311306Y32100500D01*
X88137341Y32065897D01*
X88137332Y32065894D01*
X87973459Y31998017D01*
X87973446Y31998010D01*
X87825965Y31899465D01*
X87825961Y31899462D01*
X87700538Y31774039D01*
X87700535Y31774035D01*
X87601990Y31626554D01*
X87601983Y31626541D01*
X87534106Y31462668D01*
X87534104Y31462660D01*
X87501810Y31300308D01*
X87469425Y31238397D01*
X87408709Y31203823D01*
X87380193Y31200500D01*
X85311611Y31200500D01*
X85138389Y31200500D01*
X85098728Y31194219D01*
X84967302Y31173403D01*
X84967299Y31173402D01*
X84842799Y31132949D01*
X84802552Y31119872D01*
X84648211Y31041232D01*
X84591461Y31000000D01*
X84508072Y30939414D01*
X84508070Y30939412D01*
X84508069Y30939412D01*
X84005477Y30436819D01*
X83944154Y30403334D01*
X83917796Y30400500D01*
X83736611Y30400500D01*
X83013389Y30400500D01*
X82973728Y30394219D01*
X82842302Y30373403D01*
X82842299Y30373402D01*
X82710508Y30330580D01*
X82677552Y30319872D01*
X82523211Y30241232D01*
X82458898Y30194505D01*
X82383072Y30139414D01*
X82383070Y30139412D01*
X82383069Y30139412D01*
X82260588Y30016931D01*
X82260588Y30016930D01*
X82260586Y30016928D01*
X82224349Y29967052D01*
X82158768Y29876789D01*
X82080128Y29722448D01*
X82080127Y29722446D01*
X82080127Y29722445D01*
X82062891Y29669399D01*
X82026597Y29557698D01*
X81999500Y29386611D01*
X66743671Y29386611D01*
X66736612Y29398056D01*
X66612556Y29522112D01*
X66519788Y29579331D01*
X66463236Y29614213D01*
X66463231Y29614215D01*
X66461762Y29614702D01*
X66296697Y29669399D01*
X66296695Y29669400D01*
X66193910Y29679900D01*
X65443898Y29679900D01*
X65443877Y29679898D01*
X65360927Y29671425D01*
X65292235Y29684195D01*
X65269783Y29698831D01*
X64673847Y30186684D01*
X64664733Y30194934D01*
X64643216Y30216451D01*
X64643215Y30216452D01*
X64617031Y30233948D01*
X64607376Y30241099D01*
X64583004Y30261051D01*
X64556151Y30275362D01*
X64545583Y30281687D01*
X64520299Y30298581D01*
X64520295Y30298584D01*
X64520290Y30298586D01*
X64491198Y30310637D01*
X64480339Y30315765D01*
X64452538Y30330580D01*
X64423414Y30339376D01*
X64411829Y30343513D01*
X64383713Y30355158D01*
X64383709Y30355159D01*
X64352828Y30361302D01*
X64341173Y30364214D01*
X64311021Y30373320D01*
X64311013Y30373322D01*
X64280732Y30376267D01*
X64268546Y30378067D01*
X64238719Y30384000D01*
X64238718Y30384000D01*
X64207229Y30384000D01*
X64195228Y30384582D01*
X64163878Y30387631D01*
X64163874Y30387631D01*
X64133604Y30384612D01*
X64121300Y30384000D01*
X61844381Y30384000D01*
X61830346Y30381208D01*
X61816310Y30378416D01*
X61816309Y30378416D01*
X61699395Y30355161D01*
X61699383Y30355158D01*
X61656624Y30337447D01*
X61656625Y30337446D01*
X61562808Y30298586D01*
X61562798Y30298581D01*
X61505097Y30260025D01*
X61439886Y30216453D01*
X60939649Y29716218D01*
X60878326Y29682734D01*
X60851969Y29679900D01*
X60643899Y29679900D01*
X60643880Y29679899D01*
X60541103Y29669400D01*
X60541100Y29669399D01*
X60374568Y29614215D01*
X60374563Y29614213D01*
X60225242Y29522111D01*
X60101189Y29398058D01*
X60009087Y29248737D01*
X60009085Y29248732D01*
X59985761Y29178344D01*
X59953901Y29082197D01*
X59953901Y29082196D01*
X59953900Y29082196D01*
X59943400Y28979417D01*
X59943400Y28034630D01*
X59923715Y27967591D01*
X59907081Y27946949D01*
X59345343Y27385212D01*
X59284020Y27351727D01*
X59214328Y27356711D01*
X59158395Y27398583D01*
X59133978Y27464047D01*
X59134304Y27485496D01*
X59143899Y27579414D01*
X59143900Y27579427D01*
X59143900Y28029400D01*
X58318900Y28029400D01*
X58318900Y26879401D01*
X58443872Y26879401D01*
X58443884Y26879402D01*
X58537805Y26888997D01*
X58606498Y26876228D01*
X58657383Y26828348D01*
X58674304Y26760558D01*
X58651889Y26694381D01*
X58638089Y26677958D01*
X58072351Y26112219D01*
X58011028Y26078734D01*
X57984670Y26075900D01*
X55960270Y26075900D01*
X55912817Y26085339D01*
X55814513Y26126058D01*
X55814510Y26126059D01*
X55794205Y26130098D01*
X55732295Y26162485D01*
X55697722Y26223201D01*
X55694399Y26251715D01*
X55694399Y26327271D01*
X55694398Y26327277D01*
X55687991Y26386884D01*
X55637697Y26521729D01*
X55637693Y26521736D01*
X55551447Y26636945D01*
X55551444Y26636948D01*
X55436235Y26723194D01*
X55436228Y26723198D01*
X55301382Y26773492D01*
X55301383Y26773492D01*
X55241783Y26779899D01*
X55241781Y26779900D01*
X55241773Y26779900D01*
X55241765Y26779900D01*
X54655711Y26779900D01*
X54631520Y26782283D01*
X54593828Y26789781D01*
X54517820Y26804900D01*
X54517818Y26804900D01*
X54369982Y26804900D01*
X54369978Y26804900D01*
X54256277Y26782283D01*
X54232086Y26779900D01*
X53646029Y26779900D01*
X53646023Y26779899D01*
X53586416Y26773492D01*
X53512232Y26745823D01*
X53442540Y26740839D01*
X53425568Y26745823D01*
X53351385Y26773491D01*
X53351383Y26773492D01*
X53291783Y26779899D01*
X53291781Y26779900D01*
X53291773Y26779900D01*
X53291764Y26779900D01*
X49796029Y26779900D01*
X49796023Y26779899D01*
X49736416Y26773492D01*
X49662232Y26745823D01*
X49592540Y26740839D01*
X49575568Y26745823D01*
X49501385Y26773491D01*
X49501383Y26773492D01*
X49441783Y26779899D01*
X49441781Y26779900D01*
X49441773Y26779900D01*
X49441765Y26779900D01*
X48855711Y26779900D01*
X48831520Y26782283D01*
X48793828Y26789781D01*
X48717820Y26804900D01*
X48717818Y26804900D01*
X46893400Y26804900D01*
X46826361Y26824585D01*
X46780606Y26877389D01*
X46769400Y26928899D01*
X46769399Y27129401D01*
X46769398Y27129420D01*
X46758899Y27232197D01*
X46758898Y27232200D01*
X46756443Y27239609D01*
X46703714Y27398734D01*
X46611612Y27548056D01*
X46580254Y27579414D01*
X56993901Y27579414D01*
X57004394Y27476703D01*
X57059541Y27310281D01*
X57059543Y27310276D01*
X57151584Y27161055D01*
X57275554Y27037085D01*
X57424775Y26945044D01*
X57424780Y26945042D01*
X57591202Y26889895D01*
X57591209Y26889894D01*
X57693919Y26879401D01*
X57818899Y26879401D01*
X57818900Y26879402D01*
X57818900Y28029400D01*
X56993901Y28029400D01*
X56993901Y27579414D01*
X46580254Y27579414D01*
X46487556Y27672112D01*
X46484242Y27674157D01*
X46482446Y27676152D01*
X46481889Y27676593D01*
X46481964Y27676689D01*
X46437518Y27726103D01*
X46426297Y27795066D01*
X46454140Y27859148D01*
X46484248Y27885235D01*
X46487242Y27887082D01*
X46611215Y28011055D01*
X46694364Y28145859D01*
X46694365Y28145861D01*
X46703254Y28160272D01*
X46703258Y28160281D01*
X46758405Y28326703D01*
X46758406Y28326710D01*
X46768899Y28429414D01*
X46768900Y28429427D01*
X46768900Y28479400D01*
X44318901Y28479400D01*
X44316120Y28476619D01*
X44254797Y28443134D01*
X44228439Y28440300D01*
X41779480Y28440300D01*
X41634492Y28411460D01*
X41634482Y28411457D01*
X41497911Y28354888D01*
X41497898Y28354881D01*
X41374984Y28272752D01*
X41374980Y28272749D01*
X40648548Y27546317D01*
X40631174Y27520315D01*
X40613916Y27494484D01*
X40566414Y27423393D01*
X40509843Y27286818D01*
X40509840Y27286808D01*
X40481000Y27141821D01*
X40481000Y27141818D01*
X40481000Y23017882D01*
X40481000Y23017880D01*
X40480999Y23017880D01*
X10310701Y23017880D01*
X10338216Y23059059D01*
X10339390Y23060815D01*
X10339390Y23060816D01*
X10339394Y23060821D01*
X10399737Y23206503D01*
X10430500Y23361158D01*
X10430500Y23518842D01*
X10430500Y23518845D01*
X10430499Y23518847D01*
X10413881Y23602389D01*
X10399737Y23673497D01*
X10395292Y23684228D01*
X10339397Y23819173D01*
X10339390Y23819186D01*
X10251789Y23950289D01*
X10251786Y23950293D01*
X10140292Y24061787D01*
X10140288Y24061790D01*
X10009185Y24149391D01*
X10009172Y24149398D01*
X9863501Y24209736D01*
X9863489Y24209739D01*
X9708845Y24240500D01*
X9708842Y24240500D01*
X9551158Y24240500D01*
X9551155Y24240500D01*
X9396510Y24209739D01*
X9396498Y24209736D01*
X9250827Y24149398D01*
X9250814Y24149391D01*
X9119711Y24061790D01*
X9119707Y24061787D01*
X9085627Y24027706D01*
X9024304Y23994221D01*
X8954612Y23999205D01*
X8898679Y24041077D01*
X8874262Y24106541D01*
X8873946Y24115387D01*
X8873946Y24505500D01*
X8893631Y24572539D01*
X8946435Y24618294D01*
X8997946Y24629500D01*
X10097058Y24629500D01*
X10144510Y24620062D01*
X10221087Y24588342D01*
X10221091Y24588342D01*
X10221092Y24588341D01*
X10366079Y24559500D01*
X10366082Y24559500D01*
X10513920Y24559500D01*
X10611462Y24578904D01*
X10658913Y24588342D01*
X10795495Y24644916D01*
X10918416Y24727049D01*
X11022951Y24831584D01*
X11105084Y24954505D01*
X11161658Y25091087D01*
X11171096Y25138538D01*
X11190500Y25236080D01*
X11190500Y25383921D01*
X11161659Y25528908D01*
X11161658Y25528909D01*
X11161658Y25528913D01*
X11142161Y25575984D01*
X11105087Y25665489D01*
X11105080Y25665502D01*
X11022951Y25788416D01*
X11022948Y25788420D01*
X11012619Y25798749D01*
X10979134Y25860072D01*
X10984118Y25929764D01*
X10997198Y25955321D01*
X11040080Y26019499D01*
X11040080Y26019500D01*
X11040084Y26019505D01*
X11096658Y26156087D01*
X11125500Y26301082D01*
X11125500Y26448918D01*
X11125500Y26448921D01*
X11096659Y26593908D01*
X11096658Y26593909D01*
X11096658Y26593913D01*
X11078833Y26636946D01*
X11040087Y26730489D01*
X11040080Y26730502D01*
X10957951Y26853416D01*
X10957948Y26853420D01*
X10853419Y26957949D01*
X10853415Y26957952D01*
X10733799Y27037877D01*
X10733796Y27037879D01*
X10730495Y27040084D01*
X10679669Y27061137D01*
X10678840Y27061493D01*
X10652545Y27083259D01*
X10625938Y27104701D01*
X10625670Y27105505D01*
X10625018Y27106045D01*
X10614664Y27138574D01*
X10603874Y27170996D01*
X10604083Y27171818D01*
X10603827Y27172624D01*
X10612705Y27205595D01*
X10621154Y27238695D01*
X10621864Y27239609D01*
X10621994Y27240090D01*
X10622823Y27240843D01*
X10640186Y27263173D01*
X12359388Y28979387D01*
X56993900Y28979387D01*
X56993900Y28529400D01*
X57818900Y28529400D01*
X58318900Y28529400D01*
X59143899Y28529400D01*
X59143899Y28979372D01*
X59143898Y28979387D01*
X59133405Y29082098D01*
X59078258Y29248520D01*
X59078256Y29248525D01*
X58986215Y29397746D01*
X58862245Y29521716D01*
X58713024Y29613757D01*
X58713019Y29613759D01*
X58546597Y29668906D01*
X58546590Y29668907D01*
X58443886Y29679400D01*
X58318900Y29679400D01*
X58318900Y28529400D01*
X57818900Y28529400D01*
X57818900Y29679400D01*
X57693927Y29679400D01*
X57693912Y29679399D01*
X57591202Y29668906D01*
X57424780Y29613759D01*
X57424775Y29613757D01*
X57275554Y29521716D01*
X57151584Y29397746D01*
X57059543Y29248525D01*
X57059541Y29248520D01*
X57004394Y29082098D01*
X57004393Y29082091D01*
X56993900Y28979387D01*
X12359388Y28979387D01*
X13859497Y30476889D01*
X42643200Y30476889D01*
X42672041Y30331902D01*
X42672044Y30331892D01*
X42728613Y30195321D01*
X42728620Y30195308D01*
X42810749Y30072394D01*
X42810752Y30072390D01*
X42915281Y29967861D01*
X42915285Y29967858D01*
X43038199Y29885729D01*
X43038212Y29885722D01*
X43173873Y29829530D01*
X43174788Y29829151D01*
X43174792Y29829151D01*
X43174793Y29829150D01*
X43319780Y29800309D01*
X43319783Y29800309D01*
X43467621Y29800309D01*
X43597185Y29826082D01*
X43612614Y29829151D01*
X43749196Y29885725D01*
X43813366Y29928602D01*
X43880043Y29949480D01*
X43882257Y29949500D01*
X44335233Y29949500D01*
X44402272Y29929815D01*
X44404124Y29928602D01*
X44469498Y29884920D01*
X44469511Y29884913D01*
X44603219Y29829530D01*
X44606087Y29828342D01*
X44606537Y29828253D01*
X44607100Y29828140D01*
X44607578Y29827890D01*
X44611919Y29826573D01*
X44611669Y29825750D01*
X44669011Y29795755D01*
X44703585Y29735040D01*
X44699846Y29665270D01*
X44658979Y29608598D01*
X44648006Y29600984D01*
X44600554Y29571716D01*
X44476584Y29447746D01*
X44384543Y29298525D01*
X44384541Y29298520D01*
X44329394Y29132098D01*
X44329393Y29132091D01*
X44318900Y29029387D01*
X44318900Y28979400D01*
X45293900Y28979400D01*
X45793900Y28979400D01*
X46768899Y28979400D01*
X46768899Y29029372D01*
X46768898Y29029387D01*
X46758405Y29132098D01*
X46703258Y29298520D01*
X46703256Y29298525D01*
X46611215Y29447746D01*
X46487245Y29571716D01*
X46338024Y29663757D01*
X46338019Y29663759D01*
X46171597Y29718906D01*
X46171590Y29718907D01*
X46068886Y29729400D01*
X45793900Y29729400D01*
X45793900Y28979400D01*
X45293900Y28979400D01*
X45293900Y29729400D01*
X45262091Y29761208D01*
X45228606Y29822531D01*
X45229107Y29829530D01*
X45233590Y29892224D01*
X45261731Y29929815D01*
X45275461Y29948157D01*
X45280883Y29951993D01*
X45303416Y29967049D01*
X45407951Y30071584D01*
X45490084Y30194505D01*
X45490266Y30194943D01*
X45526196Y30281687D01*
X45546658Y30331087D01*
X45557906Y30387631D01*
X45575500Y30476080D01*
X45575500Y30623921D01*
X45546659Y30768908D01*
X45546658Y30768909D01*
X45546658Y30768913D01*
X45526769Y30816930D01*
X45490087Y30905489D01*
X45490080Y30905502D01*
X45407951Y31028416D01*
X45407948Y31028420D01*
X45303419Y31132949D01*
X45303415Y31132952D01*
X45180501Y31215081D01*
X45180488Y31215088D01*
X45043917Y31271657D01*
X45043907Y31271660D01*
X44898920Y31300500D01*
X44898918Y31300500D01*
X44751082Y31300500D01*
X44751080Y31300500D01*
X44606092Y31271660D01*
X44606082Y31271657D01*
X44469511Y31215088D01*
X44469498Y31215081D01*
X44404124Y31171398D01*
X44337447Y31150520D01*
X44335233Y31150500D01*
X43884678Y31150500D01*
X43817639Y31170185D01*
X43815826Y31171372D01*
X43749196Y31215893D01*
X43749195Y31215894D01*
X43749193Y31215895D01*
X43612618Y31272466D01*
X43612608Y31272469D01*
X43467621Y31301309D01*
X43467619Y31301309D01*
X43319783Y31301309D01*
X43319781Y31301309D01*
X43174793Y31272469D01*
X43174783Y31272466D01*
X43038212Y31215897D01*
X43038199Y31215890D01*
X42915285Y31133761D01*
X42915281Y31133758D01*
X42810752Y31029229D01*
X42810749Y31029225D01*
X42728620Y30906311D01*
X42728613Y30906298D01*
X42672044Y30769727D01*
X42672041Y30769717D01*
X42643201Y30624730D01*
X42643201Y30624727D01*
X42643201Y30476891D01*
X42643201Y30476889D01*
X42643200Y30476889D01*
X13859497Y30476889D01*
X14424822Y31041232D01*
X15085818Y31701080D01*
X49589499Y31701080D01*
X49618340Y31556093D01*
X49618343Y31556083D01*
X49674912Y31419512D01*
X49674919Y31419499D01*
X49743602Y31316709D01*
X49764480Y31250032D01*
X49764500Y31247818D01*
X49764500Y30427183D01*
X49744815Y30360144D01*
X49743602Y30358292D01*
X49674919Y30255502D01*
X49674912Y30255489D01*
X49618343Y30118918D01*
X49618340Y30118908D01*
X49589500Y29973921D01*
X49589500Y29973918D01*
X49589500Y29826082D01*
X49589500Y29826080D01*
X49589499Y29826080D01*
X49618340Y29681093D01*
X49618343Y29681083D01*
X49674912Y29544512D01*
X49674919Y29544499D01*
X49757048Y29421585D01*
X49757051Y29421581D01*
X49861580Y29317052D01*
X49861584Y29317049D01*
X49984498Y29234920D01*
X49984511Y29234913D01*
X50079929Y29195390D01*
X50121087Y29178342D01*
X50121091Y29178342D01*
X50121092Y29178341D01*
X50266079Y29149500D01*
X50266082Y29149500D01*
X50413920Y29149500D01*
X50558908Y29178341D01*
X50558908Y29178342D01*
X50558913Y29178342D01*
X50558915Y29178344D01*
X50558919Y29178344D01*
X50617136Y29202459D01*
X50686605Y29209929D01*
X50712043Y29202460D01*
X50729109Y29195391D01*
X50795239Y29167999D01*
X50795243Y29167999D01*
X50795244Y29167998D01*
X50940231Y29139157D01*
X50940234Y29139157D01*
X51088072Y29139157D01*
X51186664Y29158769D01*
X51233065Y29167999D01*
X51299192Y29195391D01*
X51368658Y29202860D01*
X51394089Y29195394D01*
X51445211Y29174218D01*
X51445215Y29174218D01*
X51445216Y29174217D01*
X51590203Y29145376D01*
X51590206Y29145376D01*
X51738044Y29145376D01*
X51835586Y29164780D01*
X51883037Y29174218D01*
X51959589Y29205928D01*
X52029056Y29213396D01*
X52054484Y29205930D01*
X52121087Y29178342D01*
X52121091Y29178342D01*
X52121092Y29178341D01*
X52266079Y29149500D01*
X52266082Y29149500D01*
X52413920Y29149500D01*
X52511462Y29168904D01*
X52558913Y29178342D01*
X52695495Y29234916D01*
X52818416Y29317049D01*
X52922951Y29421584D01*
X53005084Y29544505D01*
X53061658Y29681087D01*
X53072390Y29735040D01*
X53090500Y29826080D01*
X53090500Y29973921D01*
X53061659Y30118908D01*
X53061658Y30118909D01*
X53061658Y30118913D01*
X53033591Y30186673D01*
X53005087Y30255489D01*
X53005080Y30255502D01*
X52936398Y30358292D01*
X52915520Y30424970D01*
X52915500Y30427183D01*
X52915500Y31232852D01*
X52935185Y31299891D01*
X52936398Y31301743D01*
X53015080Y31419499D01*
X53015080Y31419500D01*
X53015084Y31419505D01*
X53071658Y31556087D01*
X53100500Y31701082D01*
X53100500Y31848918D01*
X53100500Y31848921D01*
X53071659Y31993908D01*
X53071658Y31993909D01*
X53071658Y31993913D01*
X53041843Y32065894D01*
X53015087Y32130489D01*
X53015080Y32130502D01*
X52932951Y32253416D01*
X52932948Y32253420D01*
X52828419Y32357949D01*
X52828415Y32357952D01*
X52705501Y32440081D01*
X52705488Y32440088D01*
X52568917Y32496657D01*
X52568907Y32496660D01*
X52423920Y32525500D01*
X52423918Y32525500D01*
X52276082Y32525500D01*
X52276080Y32525500D01*
X52131093Y32496660D01*
X52131085Y32496658D01*
X52054514Y32464941D01*
X51985044Y32457472D01*
X51959610Y32464941D01*
X51883038Y32496658D01*
X51883030Y32496660D01*
X51738044Y32525500D01*
X51738042Y32525500D01*
X51590206Y32525500D01*
X51590204Y32525500D01*
X51445217Y32496660D01*
X51445213Y32496659D01*
X51445211Y32496658D01*
X51386587Y32472376D01*
X51317120Y32464908D01*
X51291693Y32472374D01*
X51233065Y32496658D01*
X51233058Y32496660D01*
X51088072Y32525500D01*
X51088070Y32525500D01*
X50940234Y32525500D01*
X50940232Y32525500D01*
X50795245Y32496660D01*
X50795237Y32496658D01*
X50724528Y32467369D01*
X50655059Y32459900D01*
X50629624Y32467369D01*
X50558914Y32496658D01*
X50558906Y32496660D01*
X50413920Y32525500D01*
X50413918Y32525500D01*
X50266082Y32525500D01*
X50266080Y32525500D01*
X50121092Y32496660D01*
X50121082Y32496657D01*
X49984511Y32440088D01*
X49984498Y32440081D01*
X49861584Y32357952D01*
X49861580Y32357949D01*
X49757051Y32253420D01*
X49757048Y32253416D01*
X49674919Y32130502D01*
X49674912Y32130489D01*
X49618343Y31993918D01*
X49618340Y31993908D01*
X49589500Y31848921D01*
X49589500Y31848918D01*
X49589500Y31701082D01*
X49589500Y31701080D01*
X49589499Y31701080D01*
X15085818Y31701080D01*
X15327926Y31942767D01*
X16851062Y33463257D01*
X16912414Y33496689D01*
X16938667Y33499500D01*
X98934108Y33499500D01*
X98996249Y33499500D01*
X99003736Y33499274D01*
G37*
%TD.AperFunction*%
%TA.AperFunction,Conductor*%
G36*
X71155539Y7719215D02*
G01*
X71201294Y7666411D01*
X71212500Y7614900D01*
X71212500Y7600000D01*
X71338500Y7600000D01*
X71405539Y7580315D01*
X71451294Y7527511D01*
X71462500Y7476000D01*
X71462500Y6625001D01*
X71492235Y6595266D01*
X71525720Y6533943D01*
X71520736Y6464251D01*
X71478864Y6408318D01*
X71452007Y6393024D01*
X71370821Y6359396D01*
X71370811Y6359391D01*
X71239708Y6271790D01*
X71239704Y6271787D01*
X71128210Y6160293D01*
X71128207Y6160289D01*
X71040606Y6029186D01*
X71040599Y6029173D01*
X70980261Y5883502D01*
X70980258Y5883492D01*
X70978359Y5873945D01*
X70945970Y5812036D01*
X70885252Y5777466D01*
X70880935Y5776527D01*
X70808170Y5762053D01*
X70808160Y5762050D01*
X70626092Y5686636D01*
X70626079Y5686629D01*
X70462218Y5577140D01*
X70462214Y5577137D01*
X70322863Y5437786D01*
X70322860Y5437782D01*
X70213371Y5273921D01*
X70213364Y5273908D01*
X70137950Y5091840D01*
X70137947Y5091830D01*
X70099500Y4898544D01*
X70099500Y4898541D01*
X70099500Y4701459D01*
X70099500Y4701457D01*
X70099499Y4701457D01*
X70137947Y4508171D01*
X70137950Y4508161D01*
X70213364Y4326093D01*
X70213371Y4326080D01*
X70322860Y4162219D01*
X70322863Y4162215D01*
X70462214Y4022864D01*
X70462218Y4022861D01*
X70626079Y3913372D01*
X70626092Y3913365D01*
X70744569Y3864291D01*
X70798973Y3820451D01*
X70821038Y3754157D01*
X70803759Y3686457D01*
X70752622Y3638846D01*
X70744570Y3635169D01*
X70626326Y3586191D01*
X70626318Y3586187D01*
X70590979Y3562574D01*
X70590978Y3562574D01*
X71276777Y2876777D01*
X71962572Y2190980D01*
X71962573Y2190981D01*
X71986186Y2226318D01*
X72035167Y2344570D01*
X72079008Y2398973D01*
X72145302Y2421039D01*
X72213001Y2403760D01*
X72260612Y2352624D01*
X72264290Y2344571D01*
X72313366Y2226089D01*
X72313371Y2226080D01*
X72422860Y2062219D01*
X72422863Y2062215D01*
X72562214Y1922864D01*
X72562218Y1922861D01*
X72726079Y1813372D01*
X72726092Y1813365D01*
X72894857Y1743461D01*
X72949261Y1699620D01*
X72971326Y1633326D01*
X72954047Y1565627D01*
X72902910Y1518016D01*
X72847405Y1504900D01*
X71451290Y1504900D01*
X71384251Y1524585D01*
X71338496Y1577389D01*
X71328552Y1646547D01*
X71357577Y1710103D01*
X71403838Y1743461D01*
X71573676Y1813810D01*
X71573680Y1813813D01*
X71609019Y1837427D01*
X71609020Y1837428D01*
X71100001Y2346447D01*
X71100000Y2346447D01*
X70590979Y1837428D01*
X70626328Y1813808D01*
X70796162Y1743461D01*
X70850566Y1699620D01*
X70872631Y1633326D01*
X70855352Y1565627D01*
X70804215Y1518016D01*
X70748710Y1504900D01*
X68680647Y1504900D01*
X68613608Y1524585D01*
X68567853Y1577389D01*
X68557909Y1646547D01*
X68577545Y1697791D01*
X68676628Y1846080D01*
X68676628Y1846081D01*
X68676632Y1846086D01*
X68752051Y2028165D01*
X68775972Y2148422D01*
X68790500Y2221457D01*
X68790500Y2798496D01*
X70100000Y2798496D01*
X70100000Y2601505D01*
X70138427Y2408319D01*
X70138430Y2408307D01*
X70213808Y2226327D01*
X70213809Y2226325D01*
X70237425Y2190981D01*
X70746446Y2700000D01*
X70746446Y2700001D01*
X70237426Y3209022D01*
X70237426Y3209021D01*
X70213813Y3173682D01*
X70213809Y3173675D01*
X70138429Y2991690D01*
X70138427Y2991682D01*
X70100000Y2798496D01*
X68790500Y2798496D01*
X68790500Y3218544D01*
X68752052Y3411830D01*
X68752051Y3411831D01*
X68752051Y3411835D01*
X68729407Y3466503D01*
X68676635Y3593908D01*
X68676628Y3593921D01*
X68567139Y3757782D01*
X68567136Y3757786D01*
X68451819Y3873103D01*
X68418334Y3934426D01*
X68415500Y3960784D01*
X68415500Y5509217D01*
X68435185Y5576256D01*
X68451814Y5596894D01*
X68567139Y5712218D01*
X68676632Y5876086D01*
X68680540Y5885522D01*
X68724376Y5939926D01*
X68790669Y5961996D01*
X68858369Y5944721D01*
X68863028Y5941568D01*
X68866633Y5939487D01*
X68866635Y5939485D01*
X68997865Y5863719D01*
X69144234Y5824500D01*
X69144236Y5824500D01*
X69295764Y5824500D01*
X69295766Y5824500D01*
X69442135Y5863719D01*
X69573365Y5939485D01*
X69680515Y6046635D01*
X69756281Y6177865D01*
X69795500Y6324234D01*
X69795500Y6475766D01*
X69756281Y6622135D01*
X69754914Y6624502D01*
X69736900Y6655703D01*
X69680515Y6753365D01*
X69573365Y6860515D01*
X69468336Y6921154D01*
X69442136Y6936281D01*
X69368950Y6955891D01*
X69295766Y6975500D01*
X69144234Y6975500D01*
X68997862Y6936281D01*
X68976499Y6923946D01*
X68908598Y6907475D01*
X68842572Y6930327D01*
X68799382Y6985249D01*
X68790500Y7031334D01*
X68790500Y7313346D01*
X70225001Y7313346D01*
X70235319Y7212348D01*
X70289546Y7048700D01*
X70289551Y7048689D01*
X70380052Y6901966D01*
X70380055Y6901962D01*
X70501961Y6780056D01*
X70501965Y6780053D01*
X70648688Y6689552D01*
X70648699Y6689547D01*
X70812347Y6635320D01*
X70913351Y6625001D01*
X70962499Y6625002D01*
X70962500Y6625002D01*
X70962500Y7350000D01*
X70225001Y7350000D01*
X70225001Y7313346D01*
X68790500Y7313346D01*
X68790500Y7529900D01*
X68810185Y7596939D01*
X68862989Y7642694D01*
X68914500Y7653900D01*
X70051273Y7653900D01*
X70066330Y7652982D01*
X70099224Y7648958D01*
X70122275Y7652208D01*
X70125666Y7652686D01*
X70128476Y7652884D01*
X70129023Y7653113D01*
X70129805Y7652977D01*
X70142976Y7653900D01*
X70169664Y7653900D01*
X70169666Y7653900D01*
X70201675Y7662477D01*
X70216449Y7665487D01*
X70249272Y7670114D01*
X70273838Y7680556D01*
X70290250Y7686210D01*
X70304081Y7689917D01*
X70316035Y7693119D01*
X70344734Y7709689D01*
X70358224Y7716420D01*
X70387878Y7729023D01*
X70436376Y7738900D01*
X71088500Y7738900D01*
X71155539Y7719215D01*
G37*
%TD.AperFunction*%
%TA.AperFunction,Conductor*%
G36*
X74578297Y7004815D02*
G01*
X74624052Y6952011D01*
X74633996Y6882853D01*
X74604971Y6819297D01*
X74598939Y6812819D01*
X74539487Y6753368D01*
X74539485Y6753365D01*
X74463719Y6622137D01*
X74424500Y6475766D01*
X74424500Y6316107D01*
X74422815Y6316107D01*
X74413545Y6256653D01*
X74367166Y6204396D01*
X74301370Y6185500D01*
X74146155Y6185500D01*
X73991510Y6154739D01*
X73991498Y6154736D01*
X73845827Y6094398D01*
X73845814Y6094391D01*
X73714711Y6006790D01*
X73714707Y6006787D01*
X73603213Y5895293D01*
X73603210Y5895289D01*
X73557593Y5827018D01*
X73503981Y5782213D01*
X73434656Y5773506D01*
X73430299Y5774292D01*
X73367001Y5786883D01*
X73305090Y5819268D01*
X73271789Y5877748D01*
X73271507Y5877662D01*
X73271129Y5878908D01*
X73270516Y5879984D01*
X73269791Y5883316D01*
X73269736Y5883499D01*
X73268896Y5885526D01*
X73218669Y6006787D01*
X73209397Y6029173D01*
X73209390Y6029186D01*
X73121789Y6160289D01*
X73121786Y6160293D01*
X73010292Y6271787D01*
X73010288Y6271790D01*
X72879185Y6359391D01*
X72879175Y6359396D01*
X72815092Y6385940D01*
X72760689Y6429781D01*
X72738624Y6496075D01*
X72755903Y6563775D01*
X72807041Y6611385D01*
X72862541Y6624501D01*
X73336676Y6624501D01*
X73336684Y6624502D01*
X73336687Y6624502D01*
X73392030Y6630156D01*
X73437753Y6634826D01*
X73601516Y6689092D01*
X73748350Y6779660D01*
X73870340Y6901650D01*
X73909783Y6965597D01*
X73961730Y7012321D01*
X74015321Y7024500D01*
X74511258Y7024500D01*
X74578297Y7004815D01*
G37*
%TD.AperFunction*%
%TD*%
M02*
