M48
; DRILL file KiCad 10.0.6 date 2026-09-13T00:47:20
; FORMAT={-:-/ absolute / metric / decimal}
; #@! TF.CreationDate,2026-09-13T00:47:20-08:00
; #@! TF.GenerationSoftware,Kicad,Pcbnew,10.0.6
; #@! TF.FileFunction,Plated,1,2,PTH
FMAT,2
METRIC
; #@! TA.AperFunction,Plated,PTH,ViaDrill
T1C0.300
; #@! TA.AperFunction,Plated,PTH,ComponentDrill
T2C0.600
; #@! TA.AperFunction,Plated,PTH,ComponentDrill
T3C1.020
; #@! TA.AperFunction,Plated,PTH,ComponentDrill
T4C2.200
%
G90
G05
T1
X1.0Y18.0
X1.461Y31.912
X1.825Y26.5
X3.0Y5.0
X3.0Y3.0
X5.0Y5.0
X5.0Y3.0
X5.5Y10.0
X5.56Y20.3
X6.144Y16.279
X6.744Y14.279
X7.0Y10.0
X7.0Y5.0
X7.644Y15.279
X8.51Y25.33
X8.874Y26.406
X9.2Y11.0
X9.63Y23.44
X10.375Y26.375
X10.44Y25.31
X11.0Y21.0
X12.0Y12.0
X13.0Y23.0
X14.0Y10.0
X15.0Y29.0
X15.0Y27.0
X15.0Y25.0
X16.0Y8.0
X17.0Y29.0
X17.0Y27.0
X22.5Y27.0
X25.6Y4.65
X28.0Y29.0
X28.0Y27.0
X30.0Y29.0
X30.0Y27.0
X30.0Y25.0
X30.0Y8.0
X32.0Y23.0
X32.0Y10.0
X34.0Y29.0
X34.0Y27.0
X34.0Y12.0
X35.0Y8.59
X36.0Y29.0
X36.0Y27.0
X36.0Y20.0
X36.0Y18.0
X36.0Y3.0
X38.0Y29.0
X38.0Y27.0
X38.0Y15.0
X38.0Y5.0
X38.0Y3.0
X38.44Y8.59
X40.0Y10.5
X40.75Y11.25
X40.75Y10.5
X41.25Y16.0
X41.25Y15.25
X42.0Y16.0
X42.5Y26.25
X42.9Y13.8
X43.25Y27.0
X43.25Y26.25
X43.25Y17.3
X43.394Y30.551
X43.99Y32.85
X44.0Y27.0
X44.0Y26.25
X44.0Y25.5
X44.0Y24.75
X44.6Y18.8
X44.825Y30.55
X45.5Y14.5
X45.99Y32.85
X46.0Y28.0
X46.758Y8.284
X47.0Y29.0
X47.0Y16.0
X48.0Y9.0
X48.0Y7.0
X48.0Y5.0
X48.0Y3.0
X48.5Y17.5
X48.644Y20.929
X48.99Y32.85
X49.0Y10.0
X50.0Y19.0
X50.34Y31.775
X50.34Y29.9
X50.5Y13.0
X50.5Y11.5
X50.5Y10.0
X51.0Y14.0
X51.014Y31.775
X51.014Y29.89
X51.664Y31.775
X51.664Y29.896
X52.0Y7.01
X52.34Y29.9
X52.35Y31.775
X54.0Y28.0
X54.0Y14.0
X55.2Y17.2
X56.0Y28.0
X56.0Y26.0
X56.64Y6.99
X58.0Y28.0
X58.0Y26.0
X58.0Y14.5
X58.0Y13.25
X59.0Y5.0
X59.0Y3.0
X59.25Y13.25
X60.0Y28.0
X60.0Y26.0
X60.55Y13.25
X61.0Y7.0
X61.0Y5.0
X61.0Y3.0
X63.0Y7.0
X63.0Y5.0
X63.0Y3.0
X63.144Y18.279
X65.0Y12.5
X65.0Y10.0
X65.0Y7.0
X65.0Y5.0
X65.0Y3.0
X65.1Y14.0
X66.0Y16.0
X67.0Y18.0
X67.0Y16.0
X67.0Y14.0
X67.0Y12.0
X67.0Y10.0
X68.0Y26.0
X68.0Y24.0
X68.648Y5.652
X68.91Y7.475
X69.0Y12.0
X69.0Y10.0
X69.5Y2.75
X69.5Y1.7
X69.7Y8.8
X70.0Y26.0
X70.0Y24.0
X70.225Y12.725
X71.75Y5.65
X72.0Y26.0
X72.1Y9.6
X72.2Y3.7
X72.5Y5.65
X74.0Y26.0
X74.225Y5.385
X74.5Y8.8
X74.75Y2.75
X74.75Y1.7
X75.5Y5.5
X75.67Y21.02
X76.0Y26.0
X76.0Y13.5
X76.0Y12.0
X76.0Y10.0
X76.63Y21.01
X77.1Y22.05
X77.5Y23.0
X77.5Y21.0
X77.6Y1.7
X78.0Y13.5
X78.0Y12.0
X78.0Y10.0
X78.07Y22.03
X78.5Y24.0
X78.5Y23.0
X78.7Y1.7
X79.0Y17.2
X79.2Y16.275
X79.5Y25.0
X79.5Y24.0
X79.5Y23.0
X79.502Y3.8
X79.95Y1.7
X79.99Y17.2
X80.0Y13.5
X80.0Y12.0
X80.0Y10.0
X80.2Y25.927
X80.5Y25.0
X80.5Y24.0
X80.5Y23.0
X81.05Y1.7
X81.3Y16.7
X81.8Y1.7
X82.7Y1.7
X82.9Y29.3
X83.005Y25.927
X83.65Y29.3
X84.0Y16.7
X84.2Y15.6
X84.3Y3.4
X84.425Y29.3
X85.1Y10.4
X85.214Y27.339
X88.0Y1.3
X88.3Y14.1
X88.3Y7.0
X88.4Y31.2
X88.4Y30.3
X88.8Y3.0
X89.55Y1.3
X90.35Y28.2
X91.0Y33.0
X91.25Y28.2
X92.0Y32.0
X92.15Y10.45
X93.0Y33.0
X93.6Y4.85
X94.0Y32.0
X94.05Y30.15
X94.8Y10.45
X95.0Y33.0
X95.4Y30.1
X96.0Y6.0
X96.0Y5.0
X96.0Y4.0
X96.0Y3.0
X96.0Y2.0
X96.0Y1.0
X96.15Y32.3
X96.15Y31.55
X97.0Y7.0
X97.0Y6.0
X97.0Y5.0
X97.7Y32.3
X97.7Y31.55
X98.0Y7.0
X98.0Y6.0
X99.0Y7.0
X99.0Y6.0
X99.15Y13.65
X99.3Y32.3
X99.3Y31.55
X100.4Y6.6
X100.4Y5.6
X100.45Y24.75
X100.45Y10.15
X100.46Y26.125
X101.2Y7.3
T3
X52.7Y14.2
X55.7Y14.2
T4
X9.0Y2.5
X99.0Y2.5
T2
G00X67.79Y7.45
M15
G01X67.79Y6.35
M16
G05
G00X67.79Y3.12
M15
G01X67.79Y2.32
M16
G05
G00X76.43Y7.45
M15
G01X76.43Y6.35
M16
G05
G00X76.43Y3.12
M15
G01X76.43Y2.32
M16
G05
M30
