%TF.GenerationSoftware,KiCad,Pcbnew,10.0.6*%
%TF.CreationDate,2026-09-13T00:47:20-08:00*%
%TF.ProjectId,RykerConnect,52796b65-7243-46f6-9e6e-6563742e6b69,REV03*%
%TF.SameCoordinates,Original*%
%TF.FileFunction,Legend,Bot*%
%TF.FilePolarity,Positive*%
%FSLAX46Y46*%
G04 Gerber Fmt 4.6, Leading zero omitted, Abs format (unit mm)*
G04 Created by KiCad (PCBNEW 10.0.6) date 2026-09-13 00:47:20*
%MOMM*%
%LPD*%
G01*
G04 APERTURE LIST*
G04 Aperture macros list*
%AMRoundRect*
0 Rectangle with rounded corners*
0 $1 Rounding radius*
0 $2 $3 $4 $5 $6 $7 $8 $9 X,Y pos of 4 corners*
0 Add a 4 corners polygon primitive as box body*
4,1,4,$2,$3,$4,$5,$6,$7,$8,$9,$2,$3,0*
0 Add four circle primitives for the rounded corners*
1,1,$1+$1,$2,$3*
1,1,$1+$1,$4,$5*
1,1,$1+$1,$6,$7*
1,1,$1+$1,$8,$9*
0 Add four rect primitives between the rounded corners*
20,1,$1+$1,$2,$3,$4,$5,0*
20,1,$1+$1,$4,$5,$6,$7,0*
20,1,$1+$1,$6,$7,$8,$9,0*
20,1,$1+$1,$8,$9,$2,$3,0*%
G04 Aperture macros list end*
%ADD10C,0.100000*%
%ADD11C,0.120000*%
%ADD12C,0.150000*%
%ADD13C,0.000000*%
%ADD14R,1.520000X1.520000*%
%ADD15C,1.520000*%
%ADD16O,1.000000X2.100000*%
%ADD17O,1.000000X1.800000*%
%ADD18C,2.600000*%
%ADD19C,3.800000*%
%ADD20RoundRect,0.200000X0.200000X0.275000X-0.200000X0.275000X-0.200000X-0.275000X0.200000X-0.275000X0*%
%ADD21C,1.500000*%
%ADD22RoundRect,0.250000X0.325000X0.650000X-0.325000X0.650000X-0.325000X-0.650000X0.325000X-0.650000X0*%
%ADD23RoundRect,0.250000X0.650000X-1.000000X0.650000X1.000000X-0.650000X1.000000X-0.650000X-1.000000X0*%
%ADD24RoundRect,0.250000X1.000000X0.900000X-1.000000X0.900000X-1.000000X-0.900000X1.000000X-0.900000X0*%
%ADD25C,1.000000*%
%ADD26RoundRect,0.250000X0.262500X0.450000X-0.262500X0.450000X-0.262500X-0.450000X0.262500X-0.450000X0*%
%ADD27RoundRect,0.250000X0.475000X-0.250000X0.475000X0.250000X-0.475000X0.250000X-0.475000X-0.250000X0*%
%ADD28R,3.300000X3.300000*%
%ADD29R,1.500000X0.450000*%
%ADD30RoundRect,0.237500X-0.250000X-0.237500X0.250000X-0.237500X0.250000X0.237500X-0.250000X0.237500X0*%
%ADD31RoundRect,0.225000X0.225000X0.250000X-0.225000X0.250000X-0.225000X-0.250000X0.225000X-0.250000X0*%
G04 APERTURE END LIST*
D10*
X83750000Y15000000D02*
G75*
G02*
X85750000Y17000000I2000000J0D01*
G01*
X83750000Y9750000D02*
X83750000Y15000000D01*
X85750000Y17000000D02*
X98750000Y17000000D01*
X85750000Y7750000D02*
G75*
G02*
X83750000Y9750000I0J2000000D01*
G01*
X98750000Y17000000D02*
G75*
G02*
X100750000Y15000000I0J-2000000D01*
G01*
X98750000Y7750000D02*
X85750000Y7750000D01*
X100750000Y15000000D02*
X100750000Y9750000D01*
X100750000Y9750000D02*
G75*
G02*
X98750000Y7750000I-2000000J0D01*
G01*
D11*
X27420090Y9415545D02*
X27686757Y9796498D01*
X27877233Y9415545D02*
X27877233Y10215545D01*
X27877233Y10215545D02*
X27572471Y10215545D01*
X27572471Y10215545D02*
X27496281Y10177450D01*
X27496281Y10177450D02*
X27458186Y10139355D01*
X27458186Y10139355D02*
X27420090Y10063164D01*
X27420090Y10063164D02*
X27420090Y9948879D01*
X27420090Y9948879D02*
X27458186Y9872688D01*
X27458186Y9872688D02*
X27496281Y9834593D01*
X27496281Y9834593D02*
X27572471Y9796498D01*
X27572471Y9796498D02*
X27877233Y9796498D01*
X27077233Y9834593D02*
X26810567Y9834593D01*
X26696281Y9415545D02*
X27077233Y9415545D01*
X27077233Y9415545D02*
X27077233Y10215545D01*
X27077233Y10215545D02*
X26696281Y10215545D01*
X26467709Y10215545D02*
X26201042Y9415545D01*
X26201042Y9415545D02*
X25934376Y10215545D01*
X25515328Y10215545D02*
X25439138Y10215545D01*
X25439138Y10215545D02*
X25362947Y10177450D01*
X25362947Y10177450D02*
X25324852Y10139355D01*
X25324852Y10139355D02*
X25286757Y10063164D01*
X25286757Y10063164D02*
X25248662Y9910783D01*
X25248662Y9910783D02*
X25248662Y9720307D01*
X25248662Y9720307D02*
X25286757Y9567926D01*
X25286757Y9567926D02*
X25324852Y9491736D01*
X25324852Y9491736D02*
X25362947Y9453640D01*
X25362947Y9453640D02*
X25439138Y9415545D01*
X25439138Y9415545D02*
X25515328Y9415545D01*
X25515328Y9415545D02*
X25591519Y9453640D01*
X25591519Y9453640D02*
X25629614Y9491736D01*
X25629614Y9491736D02*
X25667709Y9567926D01*
X25667709Y9567926D02*
X25705805Y9720307D01*
X25705805Y9720307D02*
X25705805Y9910783D01*
X25705805Y9910783D02*
X25667709Y10063164D01*
X25667709Y10063164D02*
X25629614Y10139355D01*
X25629614Y10139355D02*
X25591519Y10177450D01*
X25591519Y10177450D02*
X25515328Y10215545D01*
X24981995Y10215545D02*
X24486757Y10215545D01*
X24486757Y10215545D02*
X24753423Y9910783D01*
X24753423Y9910783D02*
X24639138Y9910783D01*
X24639138Y9910783D02*
X24562947Y9872688D01*
X24562947Y9872688D02*
X24524852Y9834593D01*
X24524852Y9834593D02*
X24486757Y9758402D01*
X24486757Y9758402D02*
X24486757Y9567926D01*
X24486757Y9567926D02*
X24524852Y9491736D01*
X24524852Y9491736D02*
X24562947Y9453640D01*
X24562947Y9453640D02*
X24639138Y9415545D01*
X24639138Y9415545D02*
X24867709Y9415545D01*
X24867709Y9415545D02*
X24943900Y9453640D01*
X24943900Y9453640D02*
X24981995Y9491736D01*
X23534375Y9415545D02*
X23534375Y10215545D01*
X23534375Y10215545D02*
X23229613Y10215545D01*
X23229613Y10215545D02*
X23153423Y10177450D01*
X23153423Y10177450D02*
X23115328Y10139355D01*
X23115328Y10139355D02*
X23077232Y10063164D01*
X23077232Y10063164D02*
X23077232Y9948879D01*
X23077232Y9948879D02*
X23115328Y9872688D01*
X23115328Y9872688D02*
X23153423Y9834593D01*
X23153423Y9834593D02*
X23229613Y9796498D01*
X23229613Y9796498D02*
X23534375Y9796498D01*
X22277232Y9415545D02*
X22543899Y9796498D01*
X22734375Y9415545D02*
X22734375Y10215545D01*
X22734375Y10215545D02*
X22429613Y10215545D01*
X22429613Y10215545D02*
X22353423Y10177450D01*
X22353423Y10177450D02*
X22315328Y10139355D01*
X22315328Y10139355D02*
X22277232Y10063164D01*
X22277232Y10063164D02*
X22277232Y9948879D01*
X22277232Y9948879D02*
X22315328Y9872688D01*
X22315328Y9872688D02*
X22353423Y9834593D01*
X22353423Y9834593D02*
X22429613Y9796498D01*
X22429613Y9796498D02*
X22734375Y9796498D01*
X21781994Y10215545D02*
X21629613Y10215545D01*
X21629613Y10215545D02*
X21553423Y10177450D01*
X21553423Y10177450D02*
X21477232Y10101260D01*
X21477232Y10101260D02*
X21439137Y9948879D01*
X21439137Y9948879D02*
X21439137Y9682212D01*
X21439137Y9682212D02*
X21477232Y9529831D01*
X21477232Y9529831D02*
X21553423Y9453640D01*
X21553423Y9453640D02*
X21629613Y9415545D01*
X21629613Y9415545D02*
X21781994Y9415545D01*
X21781994Y9415545D02*
X21858185Y9453640D01*
X21858185Y9453640D02*
X21934375Y9529831D01*
X21934375Y9529831D02*
X21972471Y9682212D01*
X21972471Y9682212D02*
X21972471Y9948879D01*
X21972471Y9948879D02*
X21934375Y10101260D01*
X21934375Y10101260D02*
X21858185Y10177450D01*
X21858185Y10177450D02*
X21781994Y10215545D01*
X21210566Y10215545D02*
X20753423Y10215545D01*
X20981995Y9415545D02*
X20981995Y10215545D01*
X20486756Y9834593D02*
X20220090Y9834593D01*
X20105804Y9415545D02*
X20486756Y9415545D01*
X20486756Y9415545D02*
X20486756Y10215545D01*
X20486756Y10215545D02*
X20105804Y10215545D01*
X19305803Y9491736D02*
X19343899Y9453640D01*
X19343899Y9453640D02*
X19458184Y9415545D01*
X19458184Y9415545D02*
X19534375Y9415545D01*
X19534375Y9415545D02*
X19648661Y9453640D01*
X19648661Y9453640D02*
X19724851Y9529831D01*
X19724851Y9529831D02*
X19762946Y9606021D01*
X19762946Y9606021D02*
X19801042Y9758402D01*
X19801042Y9758402D02*
X19801042Y9872688D01*
X19801042Y9872688D02*
X19762946Y10025069D01*
X19762946Y10025069D02*
X19724851Y10101260D01*
X19724851Y10101260D02*
X19648661Y10177450D01*
X19648661Y10177450D02*
X19534375Y10215545D01*
X19534375Y10215545D02*
X19458184Y10215545D01*
X19458184Y10215545D02*
X19343899Y10177450D01*
X19343899Y10177450D02*
X19305803Y10139355D01*
X19077232Y10215545D02*
X18620089Y10215545D01*
X18848661Y9415545D02*
X18848661Y10215545D01*
X18353422Y9834593D02*
X18086756Y9834593D01*
X17972470Y9415545D02*
X18353422Y9415545D01*
X18353422Y9415545D02*
X18353422Y10215545D01*
X18353422Y10215545D02*
X17972470Y10215545D01*
X17629612Y9415545D02*
X17629612Y10215545D01*
X17629612Y10215545D02*
X17439136Y10215545D01*
X17439136Y10215545D02*
X17324850Y10177450D01*
X17324850Y10177450D02*
X17248660Y10101260D01*
X17248660Y10101260D02*
X17210565Y10025069D01*
X17210565Y10025069D02*
X17172469Y9872688D01*
X17172469Y9872688D02*
X17172469Y9758402D01*
X17172469Y9758402D02*
X17210565Y9606021D01*
X17210565Y9606021D02*
X17248660Y9529831D01*
X17248660Y9529831D02*
X17324850Y9453640D01*
X17324850Y9453640D02*
X17439136Y9415545D01*
X17439136Y9415545D02*
X17629612Y9415545D01*
D12*
X73928364Y8591301D02*
X73799793Y8548444D01*
X73799793Y8548444D02*
X73585507Y8548444D01*
X73585507Y8548444D02*
X73499793Y8591301D01*
X73499793Y8591301D02*
X73456935Y8634159D01*
X73456935Y8634159D02*
X73414078Y8719873D01*
X73414078Y8719873D02*
X73414078Y8805587D01*
X73414078Y8805587D02*
X73456935Y8891301D01*
X73456935Y8891301D02*
X73499793Y8934159D01*
X73499793Y8934159D02*
X73585507Y8977016D01*
X73585507Y8977016D02*
X73756935Y9019873D01*
X73756935Y9019873D02*
X73842650Y9062730D01*
X73842650Y9062730D02*
X73885507Y9105587D01*
X73885507Y9105587D02*
X73928364Y9191301D01*
X73928364Y9191301D02*
X73928364Y9277016D01*
X73928364Y9277016D02*
X73885507Y9362730D01*
X73885507Y9362730D02*
X73842650Y9405587D01*
X73842650Y9405587D02*
X73756935Y9448444D01*
X73756935Y9448444D02*
X73542650Y9448444D01*
X73542650Y9448444D02*
X73414078Y9405587D01*
X73028364Y8548444D02*
X73028364Y9448444D01*
X72642650Y8548444D02*
X72642650Y9019873D01*
X72642650Y9019873D02*
X72685507Y9105587D01*
X72685507Y9105587D02*
X72771221Y9148444D01*
X72771221Y9148444D02*
X72899792Y9148444D01*
X72899792Y9148444D02*
X72985507Y9105587D01*
X72985507Y9105587D02*
X73028364Y9062730D01*
X72214078Y8548444D02*
X72214078Y9148444D01*
X72214078Y9448444D02*
X72256935Y9405587D01*
X72256935Y9405587D02*
X72214078Y9362730D01*
X72214078Y9362730D02*
X72171221Y9405587D01*
X72171221Y9405587D02*
X72214078Y9448444D01*
X72214078Y9448444D02*
X72214078Y9362730D01*
X71442650Y8591301D02*
X71528364Y8548444D01*
X71528364Y8548444D02*
X71699793Y8548444D01*
X71699793Y8548444D02*
X71785507Y8591301D01*
X71785507Y8591301D02*
X71828364Y8677016D01*
X71828364Y8677016D02*
X71828364Y9019873D01*
X71828364Y9019873D02*
X71785507Y9105587D01*
X71785507Y9105587D02*
X71699793Y9148444D01*
X71699793Y9148444D02*
X71528364Y9148444D01*
X71528364Y9148444D02*
X71442650Y9105587D01*
X71442650Y9105587D02*
X71399793Y9019873D01*
X71399793Y9019873D02*
X71399793Y8934159D01*
X71399793Y8934159D02*
X71828364Y8848444D01*
X70885506Y8548444D02*
X70971221Y8591301D01*
X70971221Y8591301D02*
X71014078Y8677016D01*
X71014078Y8677016D02*
X71014078Y9448444D01*
X70156935Y8548444D02*
X70156935Y9448444D01*
X70156935Y8591301D02*
X70242649Y8548444D01*
X70242649Y8548444D02*
X70414077Y8548444D01*
X70414077Y8548444D02*
X70499792Y8591301D01*
X70499792Y8591301D02*
X70542649Y8634159D01*
X70542649Y8634159D02*
X70585506Y8719873D01*
X70585506Y8719873D02*
X70585506Y8977016D01*
X70585506Y8977016D02*
X70542649Y9062730D01*
X70542649Y9062730D02*
X70499792Y9105587D01*
X70499792Y9105587D02*
X70414077Y9148444D01*
X70414077Y9148444D02*
X70242649Y9148444D01*
X70242649Y9148444D02*
X70156935Y9105587D01*
X85245180Y14100001D02*
X86245180Y14100001D01*
X86245180Y14766667D02*
X86245180Y14957143D01*
X86245180Y14957143D02*
X86197561Y15052381D01*
X86197561Y15052381D02*
X86102323Y15147619D01*
X86102323Y15147619D02*
X85911847Y15195238D01*
X85911847Y15195238D02*
X85578514Y15195238D01*
X85578514Y15195238D02*
X85388038Y15147619D01*
X85388038Y15147619D02*
X85292800Y15052381D01*
X85292800Y15052381D02*
X85245180Y14957143D01*
X85245180Y14957143D02*
X85245180Y14766667D01*
X85245180Y14766667D02*
X85292800Y14671429D01*
X85292800Y14671429D02*
X85388038Y14576191D01*
X85388038Y14576191D02*
X85578514Y14528572D01*
X85578514Y14528572D02*
X85911847Y14528572D01*
X85911847Y14528572D02*
X86102323Y14576191D01*
X86102323Y14576191D02*
X86197561Y14671429D01*
X86197561Y14671429D02*
X86245180Y14766667D01*
X86245180Y15814286D02*
X86245180Y15909524D01*
X86245180Y15909524D02*
X86197561Y16004762D01*
X86197561Y16004762D02*
X86149942Y16052381D01*
X86149942Y16052381D02*
X86054704Y16100000D01*
X86054704Y16100000D02*
X85864228Y16147619D01*
X85864228Y16147619D02*
X85626133Y16147619D01*
X85626133Y16147619D02*
X85435657Y16100000D01*
X85435657Y16100000D02*
X85340419Y16052381D01*
X85340419Y16052381D02*
X85292800Y16004762D01*
X85292800Y16004762D02*
X85245180Y15909524D01*
X85245180Y15909524D02*
X85245180Y15814286D01*
X85245180Y15814286D02*
X85292800Y15719048D01*
X85292800Y15719048D02*
X85340419Y15671429D01*
X85340419Y15671429D02*
X85435657Y15623810D01*
X85435657Y15623810D02*
X85626133Y15576191D01*
X85626133Y15576191D02*
X85864228Y15576191D01*
X85864228Y15576191D02*
X86054704Y15623810D01*
X86054704Y15623810D02*
X86149942Y15671429D01*
X86149942Y15671429D02*
X86197561Y15719048D01*
X86197561Y15719048D02*
X86245180Y15814286D01*
X88368990Y14361906D02*
X88368990Y14695239D01*
X87845180Y14838096D02*
X87845180Y14361906D01*
X87845180Y14361906D02*
X88845180Y14361906D01*
X88845180Y14361906D02*
X88845180Y14838096D01*
X87845180Y15266668D02*
X88845180Y15266668D01*
X88845180Y15266668D02*
X87845180Y15838096D01*
X87845180Y15838096D02*
X88845180Y15838096D01*
X90445180Y14933334D02*
X90921371Y14600001D01*
X90445180Y14361906D02*
X91445180Y14361906D01*
X91445180Y14361906D02*
X91445180Y14742858D01*
X91445180Y14742858D02*
X91397561Y14838096D01*
X91397561Y14838096D02*
X91349942Y14885715D01*
X91349942Y14885715D02*
X91254704Y14933334D01*
X91254704Y14933334D02*
X91111847Y14933334D01*
X91111847Y14933334D02*
X91016609Y14885715D01*
X91016609Y14885715D02*
X90968990Y14838096D01*
X90968990Y14838096D02*
X90921371Y14742858D01*
X90921371Y14742858D02*
X90921371Y14361906D01*
X91445180Y15266668D02*
X90445180Y15933334D01*
X91445180Y15933334D02*
X90445180Y15266668D01*
X94045180Y14338096D02*
X94045180Y14909524D01*
X93045180Y14623810D02*
X94045180Y14623810D01*
X94045180Y15147620D02*
X93045180Y15814286D01*
X94045180Y15814286D02*
X93045180Y15147620D01*
X96597561Y14338096D02*
X96645180Y14242858D01*
X96645180Y14242858D02*
X96645180Y14100001D01*
X96645180Y14100001D02*
X96597561Y13957144D01*
X96597561Y13957144D02*
X96502323Y13861906D01*
X96502323Y13861906D02*
X96407085Y13814287D01*
X96407085Y13814287D02*
X96216609Y13766668D01*
X96216609Y13766668D02*
X96073752Y13766668D01*
X96073752Y13766668D02*
X95883276Y13814287D01*
X95883276Y13814287D02*
X95788038Y13861906D01*
X95788038Y13861906D02*
X95692800Y13957144D01*
X95692800Y13957144D02*
X95645180Y14100001D01*
X95645180Y14100001D02*
X95645180Y14195239D01*
X95645180Y14195239D02*
X95692800Y14338096D01*
X95692800Y14338096D02*
X95740419Y14385715D01*
X95740419Y14385715D02*
X96073752Y14385715D01*
X96073752Y14385715D02*
X96073752Y14195239D01*
X95645180Y14814287D02*
X96645180Y14814287D01*
X96645180Y14814287D02*
X95645180Y15385715D01*
X95645180Y15385715D02*
X96645180Y15385715D01*
X95645180Y15861906D02*
X96645180Y15861906D01*
X96645180Y15861906D02*
X96645180Y16100001D01*
X96645180Y16100001D02*
X96597561Y16242858D01*
X96597561Y16242858D02*
X96502323Y16338096D01*
X96502323Y16338096D02*
X96407085Y16385715D01*
X96407085Y16385715D02*
X96216609Y16433334D01*
X96216609Y16433334D02*
X96073752Y16433334D01*
X96073752Y16433334D02*
X95883276Y16385715D01*
X95883276Y16385715D02*
X95788038Y16338096D01*
X95788038Y16338096D02*
X95692800Y16242858D01*
X95692800Y16242858D02*
X95645180Y16100001D01*
X95645180Y16100001D02*
X95645180Y15861906D01*
X99245180Y13861906D02*
X99245180Y14480953D01*
X99245180Y14480953D02*
X98864228Y14147620D01*
X98864228Y14147620D02*
X98864228Y14290477D01*
X98864228Y14290477D02*
X98816609Y14385715D01*
X98816609Y14385715D02*
X98768990Y14433334D01*
X98768990Y14433334D02*
X98673752Y14480953D01*
X98673752Y14480953D02*
X98435657Y14480953D01*
X98435657Y14480953D02*
X98340419Y14433334D01*
X98340419Y14433334D02*
X98292800Y14385715D01*
X98292800Y14385715D02*
X98245180Y14290477D01*
X98245180Y14290477D02*
X98245180Y14004763D01*
X98245180Y14004763D02*
X98292800Y13909525D01*
X98292800Y13909525D02*
X98340419Y13861906D01*
X99245180Y14766668D02*
X98245180Y15100001D01*
X98245180Y15100001D02*
X99245180Y15433334D01*
X99245180Y15671430D02*
X99245180Y16290477D01*
X99245180Y16290477D02*
X98864228Y15957144D01*
X98864228Y15957144D02*
X98864228Y16100001D01*
X98864228Y16100001D02*
X98816609Y16195239D01*
X98816609Y16195239D02*
X98768990Y16242858D01*
X98768990Y16242858D02*
X98673752Y16290477D01*
X98673752Y16290477D02*
X98435657Y16290477D01*
X98435657Y16290477D02*
X98340419Y16242858D01*
X98340419Y16242858D02*
X98292800Y16195239D01*
X98292800Y16195239D02*
X98245180Y16100001D01*
X98245180Y16100001D02*
X98245180Y15814287D01*
X98245180Y15814287D02*
X98292800Y15719049D01*
X98292800Y15719049D02*
X98340419Y15671430D01*
X69680951Y4445181D02*
X69680951Y5445181D01*
X69680951Y5445181D02*
X69442856Y5445181D01*
X69442856Y5445181D02*
X69299999Y5397562D01*
X69299999Y5397562D02*
X69204761Y5302324D01*
X69204761Y5302324D02*
X69157142Y5207086D01*
X69157142Y5207086D02*
X69109523Y5016610D01*
X69109523Y5016610D02*
X69109523Y4873753D01*
X69109523Y4873753D02*
X69157142Y4683277D01*
X69157142Y4683277D02*
X69204761Y4588039D01*
X69204761Y4588039D02*
X69299999Y4492800D01*
X69299999Y4492800D02*
X69442856Y4445181D01*
X69442856Y4445181D02*
X69680951Y4445181D01*
X68680951Y4826134D02*
X67919047Y4826134D01*
X69280951Y2626134D02*
X68519047Y2626134D01*
X75680951Y2626134D02*
X74919047Y2626134D01*
X75299999Y2245181D02*
X75299999Y3007086D01*
X76380951Y4445181D02*
X76380951Y5445181D01*
X76380951Y5445181D02*
X76142856Y5445181D01*
X76142856Y5445181D02*
X75999999Y5397562D01*
X75999999Y5397562D02*
X75904761Y5302324D01*
X75904761Y5302324D02*
X75857142Y5207086D01*
X75857142Y5207086D02*
X75809523Y5016610D01*
X75809523Y5016610D02*
X75809523Y4873753D01*
X75809523Y4873753D02*
X75857142Y4683277D01*
X75857142Y4683277D02*
X75904761Y4588039D01*
X75904761Y4588039D02*
X75999999Y4492800D01*
X75999999Y4492800D02*
X76142856Y4445181D01*
X76142856Y4445181D02*
X76380951Y4445181D01*
X75380951Y4826134D02*
X74619047Y4826134D01*
X74999999Y4445181D02*
X74999999Y5207086D01*
D11*
X57660566Y25361807D02*
X57893899Y25695140D01*
X58060566Y25361807D02*
X58060566Y26061807D01*
X58060566Y26061807D02*
X57793899Y26061807D01*
X57793899Y26061807D02*
X57727233Y26028474D01*
X57727233Y26028474D02*
X57693899Y25995140D01*
X57693899Y25995140D02*
X57660566Y25928474D01*
X57660566Y25928474D02*
X57660566Y25828474D01*
X57660566Y25828474D02*
X57693899Y25761807D01*
X57693899Y25761807D02*
X57727233Y25728474D01*
X57727233Y25728474D02*
X57793899Y25695140D01*
X57793899Y25695140D02*
X58060566Y25695140D01*
X57427233Y26061807D02*
X56960566Y26061807D01*
X56960566Y26061807D02*
X57260566Y25361807D01*
X59993900Y30228474D02*
X60027233Y30195140D01*
X60027233Y30195140D02*
X60127233Y30161807D01*
X60127233Y30161807D02*
X60193900Y30161807D01*
X60193900Y30161807D02*
X60293900Y30195140D01*
X60293900Y30195140D02*
X60360567Y30261807D01*
X60360567Y30261807D02*
X60393900Y30328474D01*
X60393900Y30328474D02*
X60427233Y30461807D01*
X60427233Y30461807D02*
X60427233Y30561807D01*
X60427233Y30561807D02*
X60393900Y30695140D01*
X60393900Y30695140D02*
X60360567Y30761807D01*
X60360567Y30761807D02*
X60293900Y30828474D01*
X60293900Y30828474D02*
X60193900Y30861807D01*
X60193900Y30861807D02*
X60127233Y30861807D01*
X60127233Y30861807D02*
X60027233Y30828474D01*
X60027233Y30828474D02*
X59993900Y30795140D01*
X59327233Y30161807D02*
X59727233Y30161807D01*
X59527233Y30161807D02*
X59527233Y30861807D01*
X59527233Y30861807D02*
X59593900Y30761807D01*
X59593900Y30761807D02*
X59660567Y30695140D01*
X59660567Y30695140D02*
X59727233Y30661807D01*
X58727233Y30628474D02*
X58727233Y30161807D01*
X58893900Y30895140D02*
X59060566Y30395140D01*
X59060566Y30395140D02*
X58627233Y30395140D01*
X41060566Y23461807D02*
X41060566Y24161807D01*
X41060566Y24161807D02*
X40893899Y24161807D01*
X40893899Y24161807D02*
X40793899Y24128474D01*
X40793899Y24128474D02*
X40727233Y24061807D01*
X40727233Y24061807D02*
X40693899Y23995140D01*
X40693899Y23995140D02*
X40660566Y23861807D01*
X40660566Y23861807D02*
X40660566Y23761807D01*
X40660566Y23761807D02*
X40693899Y23628474D01*
X40693899Y23628474D02*
X40727233Y23561807D01*
X40727233Y23561807D02*
X40793899Y23495140D01*
X40793899Y23495140D02*
X40893899Y23461807D01*
X40893899Y23461807D02*
X41060566Y23461807D01*
X40427233Y24161807D02*
X39993899Y24161807D01*
X39993899Y24161807D02*
X40227233Y23895140D01*
X40227233Y23895140D02*
X40127233Y23895140D01*
X40127233Y23895140D02*
X40060566Y23861807D01*
X40060566Y23861807D02*
X40027233Y23828474D01*
X40027233Y23828474D02*
X39993899Y23761807D01*
X39993899Y23761807D02*
X39993899Y23595140D01*
X39993899Y23595140D02*
X40027233Y23528474D01*
X40027233Y23528474D02*
X40060566Y23495140D01*
X40060566Y23495140D02*
X40127233Y23461807D01*
X40127233Y23461807D02*
X40327233Y23461807D01*
X40327233Y23461807D02*
X40393899Y23495140D01*
X40393899Y23495140D02*
X40427233Y23528474D01*
X62060566Y7461807D02*
X62060566Y8161807D01*
X62060566Y8161807D02*
X61893899Y8161807D01*
X61893899Y8161807D02*
X61793899Y8128474D01*
X61793899Y8128474D02*
X61727233Y8061807D01*
X61727233Y8061807D02*
X61693899Y7995140D01*
X61693899Y7995140D02*
X61660566Y7861807D01*
X61660566Y7861807D02*
X61660566Y7761807D01*
X61660566Y7761807D02*
X61693899Y7628474D01*
X61693899Y7628474D02*
X61727233Y7561807D01*
X61727233Y7561807D02*
X61793899Y7495140D01*
X61793899Y7495140D02*
X61893899Y7461807D01*
X61893899Y7461807D02*
X62060566Y7461807D01*
X61060566Y7928474D02*
X61060566Y7461807D01*
X61227233Y8195140D02*
X61393899Y7695140D01*
X61393899Y7695140D02*
X60960566Y7695140D01*
X46493900Y18061807D02*
X46727233Y18395140D01*
X46893900Y18061807D02*
X46893900Y18761807D01*
X46893900Y18761807D02*
X46627233Y18761807D01*
X46627233Y18761807D02*
X46560567Y18728474D01*
X46560567Y18728474D02*
X46527233Y18695140D01*
X46527233Y18695140D02*
X46493900Y18628474D01*
X46493900Y18628474D02*
X46493900Y18528474D01*
X46493900Y18528474D02*
X46527233Y18461807D01*
X46527233Y18461807D02*
X46560567Y18428474D01*
X46560567Y18428474D02*
X46627233Y18395140D01*
X46627233Y18395140D02*
X46893900Y18395140D01*
X45827233Y18061807D02*
X46227233Y18061807D01*
X46027233Y18061807D02*
X46027233Y18761807D01*
X46027233Y18761807D02*
X46093900Y18661807D01*
X46093900Y18661807D02*
X46160567Y18595140D01*
X46160567Y18595140D02*
X46227233Y18561807D01*
X45393900Y18761807D02*
X45327233Y18761807D01*
X45327233Y18761807D02*
X45260566Y18728474D01*
X45260566Y18728474D02*
X45227233Y18695140D01*
X45227233Y18695140D02*
X45193900Y18628474D01*
X45193900Y18628474D02*
X45160566Y18495140D01*
X45160566Y18495140D02*
X45160566Y18328474D01*
X45160566Y18328474D02*
X45193900Y18195140D01*
X45193900Y18195140D02*
X45227233Y18128474D01*
X45227233Y18128474D02*
X45260566Y18095140D01*
X45260566Y18095140D02*
X45327233Y18061807D01*
X45327233Y18061807D02*
X45393900Y18061807D01*
X45393900Y18061807D02*
X45460566Y18095140D01*
X45460566Y18095140D02*
X45493900Y18128474D01*
X45493900Y18128474D02*
X45527233Y18195140D01*
X45527233Y18195140D02*
X45560566Y18328474D01*
X45560566Y18328474D02*
X45560566Y18495140D01*
X45560566Y18495140D02*
X45527233Y18628474D01*
X45527233Y18628474D02*
X45493900Y18695140D01*
X45493900Y18695140D02*
X45460566Y18728474D01*
X45460566Y18728474D02*
X45393900Y18761807D01*
X62060566Y18961807D02*
X62060566Y19661807D01*
X62060566Y19661807D02*
X61893899Y19661807D01*
X61893899Y19661807D02*
X61793899Y19628474D01*
X61793899Y19628474D02*
X61727233Y19561807D01*
X61727233Y19561807D02*
X61693899Y19495140D01*
X61693899Y19495140D02*
X61660566Y19361807D01*
X61660566Y19361807D02*
X61660566Y19261807D01*
X61660566Y19261807D02*
X61693899Y19128474D01*
X61693899Y19128474D02*
X61727233Y19061807D01*
X61727233Y19061807D02*
X61793899Y18995140D01*
X61793899Y18995140D02*
X61893899Y18961807D01*
X61893899Y18961807D02*
X62060566Y18961807D01*
X61393899Y19595140D02*
X61360566Y19628474D01*
X61360566Y19628474D02*
X61293899Y19661807D01*
X61293899Y19661807D02*
X61127233Y19661807D01*
X61127233Y19661807D02*
X61060566Y19628474D01*
X61060566Y19628474D02*
X61027233Y19595140D01*
X61027233Y19595140D02*
X60993899Y19528474D01*
X60993899Y19528474D02*
X60993899Y19461807D01*
X60993899Y19461807D02*
X61027233Y19361807D01*
X61027233Y19361807D02*
X61427233Y18961807D01*
X61427233Y18961807D02*
X60993899Y18961807D01*
X57860566Y20161807D02*
X58093899Y20495140D01*
X58260566Y20161807D02*
X58260566Y20861807D01*
X58260566Y20861807D02*
X57993899Y20861807D01*
X57993899Y20861807D02*
X57927233Y20828474D01*
X57927233Y20828474D02*
X57893899Y20795140D01*
X57893899Y20795140D02*
X57860566Y20728474D01*
X57860566Y20728474D02*
X57860566Y20628474D01*
X57860566Y20628474D02*
X57893899Y20561807D01*
X57893899Y20561807D02*
X57927233Y20528474D01*
X57927233Y20528474D02*
X57993899Y20495140D01*
X57993899Y20495140D02*
X58260566Y20495140D01*
X57460566Y20561807D02*
X57527233Y20595140D01*
X57527233Y20595140D02*
X57560566Y20628474D01*
X57560566Y20628474D02*
X57593899Y20695140D01*
X57593899Y20695140D02*
X57593899Y20728474D01*
X57593899Y20728474D02*
X57560566Y20795140D01*
X57560566Y20795140D02*
X57527233Y20828474D01*
X57527233Y20828474D02*
X57460566Y20861807D01*
X57460566Y20861807D02*
X57327233Y20861807D01*
X57327233Y20861807D02*
X57260566Y20828474D01*
X57260566Y20828474D02*
X57227233Y20795140D01*
X57227233Y20795140D02*
X57193899Y20728474D01*
X57193899Y20728474D02*
X57193899Y20695140D01*
X57193899Y20695140D02*
X57227233Y20628474D01*
X57227233Y20628474D02*
X57260566Y20595140D01*
X57260566Y20595140D02*
X57327233Y20561807D01*
X57327233Y20561807D02*
X57460566Y20561807D01*
X57460566Y20561807D02*
X57527233Y20528474D01*
X57527233Y20528474D02*
X57560566Y20495140D01*
X57560566Y20495140D02*
X57593899Y20428474D01*
X57593899Y20428474D02*
X57593899Y20295140D01*
X57593899Y20295140D02*
X57560566Y20228474D01*
X57560566Y20228474D02*
X57527233Y20195140D01*
X57527233Y20195140D02*
X57460566Y20161807D01*
X57460566Y20161807D02*
X57327233Y20161807D01*
X57327233Y20161807D02*
X57260566Y20195140D01*
X57260566Y20195140D02*
X57227233Y20228474D01*
X57227233Y20228474D02*
X57193899Y20295140D01*
X57193899Y20295140D02*
X57193899Y20428474D01*
X57193899Y20428474D02*
X57227233Y20495140D01*
X57227233Y20495140D02*
X57260566Y20528474D01*
X57260566Y20528474D02*
X57327233Y20561807D01*
X55160566Y17161807D02*
X55393899Y17495140D01*
X55560566Y17161807D02*
X55560566Y17861807D01*
X55560566Y17861807D02*
X55293899Y17861807D01*
X55293899Y17861807D02*
X55227233Y17828474D01*
X55227233Y17828474D02*
X55193899Y17795140D01*
X55193899Y17795140D02*
X55160566Y17728474D01*
X55160566Y17728474D02*
X55160566Y17628474D01*
X55160566Y17628474D02*
X55193899Y17561807D01*
X55193899Y17561807D02*
X55227233Y17528474D01*
X55227233Y17528474D02*
X55293899Y17495140D01*
X55293899Y17495140D02*
X55560566Y17495140D01*
X54827233Y17161807D02*
X54693899Y17161807D01*
X54693899Y17161807D02*
X54627233Y17195140D01*
X54627233Y17195140D02*
X54593899Y17228474D01*
X54593899Y17228474D02*
X54527233Y17328474D01*
X54527233Y17328474D02*
X54493899Y17461807D01*
X54493899Y17461807D02*
X54493899Y17728474D01*
X54493899Y17728474D02*
X54527233Y17795140D01*
X54527233Y17795140D02*
X54560566Y17828474D01*
X54560566Y17828474D02*
X54627233Y17861807D01*
X54627233Y17861807D02*
X54760566Y17861807D01*
X54760566Y17861807D02*
X54827233Y17828474D01*
X54827233Y17828474D02*
X54860566Y17795140D01*
X54860566Y17795140D02*
X54893899Y17728474D01*
X54893899Y17728474D02*
X54893899Y17561807D01*
X54893899Y17561807D02*
X54860566Y17495140D01*
X54860566Y17495140D02*
X54827233Y17461807D01*
X54827233Y17461807D02*
X54760566Y17428474D01*
X54760566Y17428474D02*
X54627233Y17428474D01*
X54627233Y17428474D02*
X54560566Y17461807D01*
X54560566Y17461807D02*
X54527233Y17495140D01*
X54527233Y17495140D02*
X54493899Y17561807D01*
X45993900Y29728474D02*
X46027233Y29695140D01*
X46027233Y29695140D02*
X46127233Y29661807D01*
X46127233Y29661807D02*
X46193900Y29661807D01*
X46193900Y29661807D02*
X46293900Y29695140D01*
X46293900Y29695140D02*
X46360567Y29761807D01*
X46360567Y29761807D02*
X46393900Y29828474D01*
X46393900Y29828474D02*
X46427233Y29961807D01*
X46427233Y29961807D02*
X46427233Y30061807D01*
X46427233Y30061807D02*
X46393900Y30195140D01*
X46393900Y30195140D02*
X46360567Y30261807D01*
X46360567Y30261807D02*
X46293900Y30328474D01*
X46293900Y30328474D02*
X46193900Y30361807D01*
X46193900Y30361807D02*
X46127233Y30361807D01*
X46127233Y30361807D02*
X46027233Y30328474D01*
X46027233Y30328474D02*
X45993900Y30295140D01*
X45327233Y29661807D02*
X45727233Y29661807D01*
X45527233Y29661807D02*
X45527233Y30361807D01*
X45527233Y30361807D02*
X45593900Y30261807D01*
X45593900Y30261807D02*
X45660567Y30195140D01*
X45660567Y30195140D02*
X45727233Y30161807D01*
X44693900Y30361807D02*
X45027233Y30361807D01*
X45027233Y30361807D02*
X45060566Y30028474D01*
X45060566Y30028474D02*
X45027233Y30061807D01*
X45027233Y30061807D02*
X44960566Y30095140D01*
X44960566Y30095140D02*
X44793900Y30095140D01*
X44793900Y30095140D02*
X44727233Y30061807D01*
X44727233Y30061807D02*
X44693900Y30028474D01*
X44693900Y30028474D02*
X44660566Y29961807D01*
X44660566Y29961807D02*
X44660566Y29795140D01*
X44660566Y29795140D02*
X44693900Y29728474D01*
X44693900Y29728474D02*
X44727233Y29695140D01*
X44727233Y29695140D02*
X44793900Y29661807D01*
X44793900Y29661807D02*
X44960566Y29661807D01*
X44960566Y29661807D02*
X45027233Y29695140D01*
X45027233Y29695140D02*
X45060566Y29728474D01*
X52077233Y27861807D02*
X52077233Y27295140D01*
X52077233Y27295140D02*
X52043900Y27228474D01*
X52043900Y27228474D02*
X52010566Y27195140D01*
X52010566Y27195140D02*
X51943900Y27161807D01*
X51943900Y27161807D02*
X51810566Y27161807D01*
X51810566Y27161807D02*
X51743900Y27195140D01*
X51743900Y27195140D02*
X51710566Y27228474D01*
X51710566Y27228474D02*
X51677233Y27295140D01*
X51677233Y27295140D02*
X51677233Y27861807D01*
X51043900Y27861807D02*
X51177233Y27861807D01*
X51177233Y27861807D02*
X51243900Y27828474D01*
X51243900Y27828474D02*
X51277233Y27795140D01*
X51277233Y27795140D02*
X51343900Y27695140D01*
X51343900Y27695140D02*
X51377233Y27561807D01*
X51377233Y27561807D02*
X51377233Y27295140D01*
X51377233Y27295140D02*
X51343900Y27228474D01*
X51343900Y27228474D02*
X51310567Y27195140D01*
X51310567Y27195140D02*
X51243900Y27161807D01*
X51243900Y27161807D02*
X51110567Y27161807D01*
X51110567Y27161807D02*
X51043900Y27195140D01*
X51043900Y27195140D02*
X51010567Y27228474D01*
X51010567Y27228474D02*
X50977233Y27295140D01*
X50977233Y27295140D02*
X50977233Y27461807D01*
X50977233Y27461807D02*
X51010567Y27528474D01*
X51010567Y27528474D02*
X51043900Y27561807D01*
X51043900Y27561807D02*
X51110567Y27595140D01*
X51110567Y27595140D02*
X51243900Y27595140D01*
X51243900Y27595140D02*
X51310567Y27561807D01*
X51310567Y27561807D02*
X51343900Y27528474D01*
X51343900Y27528474D02*
X51377233Y27461807D01*
X64793900Y30228474D02*
X64827233Y30195140D01*
X64827233Y30195140D02*
X64927233Y30161807D01*
X64927233Y30161807D02*
X64993900Y30161807D01*
X64993900Y30161807D02*
X65093900Y30195140D01*
X65093900Y30195140D02*
X65160567Y30261807D01*
X65160567Y30261807D02*
X65193900Y30328474D01*
X65193900Y30328474D02*
X65227233Y30461807D01*
X65227233Y30461807D02*
X65227233Y30561807D01*
X65227233Y30561807D02*
X65193900Y30695140D01*
X65193900Y30695140D02*
X65160567Y30761807D01*
X65160567Y30761807D02*
X65093900Y30828474D01*
X65093900Y30828474D02*
X64993900Y30861807D01*
X64993900Y30861807D02*
X64927233Y30861807D01*
X64927233Y30861807D02*
X64827233Y30828474D01*
X64827233Y30828474D02*
X64793900Y30795140D01*
X64127233Y30161807D02*
X64527233Y30161807D01*
X64327233Y30161807D02*
X64327233Y30861807D01*
X64327233Y30861807D02*
X64393900Y30761807D01*
X64393900Y30761807D02*
X64460567Y30695140D01*
X64460567Y30695140D02*
X64527233Y30661807D01*
X63893900Y30861807D02*
X63427233Y30861807D01*
X63427233Y30861807D02*
X63727233Y30161807D01*
X46493900Y23528474D02*
X46527233Y23495140D01*
X46527233Y23495140D02*
X46627233Y23461807D01*
X46627233Y23461807D02*
X46693900Y23461807D01*
X46693900Y23461807D02*
X46793900Y23495140D01*
X46793900Y23495140D02*
X46860567Y23561807D01*
X46860567Y23561807D02*
X46893900Y23628474D01*
X46893900Y23628474D02*
X46927233Y23761807D01*
X46927233Y23761807D02*
X46927233Y23861807D01*
X46927233Y23861807D02*
X46893900Y23995140D01*
X46893900Y23995140D02*
X46860567Y24061807D01*
X46860567Y24061807D02*
X46793900Y24128474D01*
X46793900Y24128474D02*
X46693900Y24161807D01*
X46693900Y24161807D02*
X46627233Y24161807D01*
X46627233Y24161807D02*
X46527233Y24128474D01*
X46527233Y24128474D02*
X46493900Y24095140D01*
X45827233Y23461807D02*
X46227233Y23461807D01*
X46027233Y23461807D02*
X46027233Y24161807D01*
X46027233Y24161807D02*
X46093900Y24061807D01*
X46093900Y24061807D02*
X46160567Y23995140D01*
X46160567Y23995140D02*
X46227233Y23961807D01*
X45227233Y24161807D02*
X45360566Y24161807D01*
X45360566Y24161807D02*
X45427233Y24128474D01*
X45427233Y24128474D02*
X45460566Y24095140D01*
X45460566Y24095140D02*
X45527233Y23995140D01*
X45527233Y23995140D02*
X45560566Y23861807D01*
X45560566Y23861807D02*
X45560566Y23595140D01*
X45560566Y23595140D02*
X45527233Y23528474D01*
X45527233Y23528474D02*
X45493900Y23495140D01*
X45493900Y23495140D02*
X45427233Y23461807D01*
X45427233Y23461807D02*
X45293900Y23461807D01*
X45293900Y23461807D02*
X45227233Y23495140D01*
X45227233Y23495140D02*
X45193900Y23528474D01*
X45193900Y23528474D02*
X45160566Y23595140D01*
X45160566Y23595140D02*
X45160566Y23761807D01*
X45160566Y23761807D02*
X45193900Y23828474D01*
X45193900Y23828474D02*
X45227233Y23861807D01*
X45227233Y23861807D02*
X45293900Y23895140D01*
X45293900Y23895140D02*
X45427233Y23895140D01*
X45427233Y23895140D02*
X45493900Y23861807D01*
X45493900Y23861807D02*
X45527233Y23828474D01*
X45527233Y23828474D02*
X45560566Y23761807D01*
%TO.C,R7*%
X57781158Y24801900D02*
X57306642Y24801900D01*
X57781158Y23756900D02*
X57306642Y23756900D01*
%TO.C,TP14*%
X97050000Y11800000D02*
G75*
G02*
X95150000Y11800000I-950000J0D01*
G01*
X95150000Y11800000D02*
G75*
G02*
X97050000Y11800000I950000J0D01*
G01*
%TO.C,TP18*%
X86650000Y11700000D02*
G75*
G02*
X84750000Y11700000I-950000J0D01*
G01*
X84750000Y11700000D02*
G75*
G02*
X86650000Y11700000I950000J0D01*
G01*
%TO.C,C14*%
X60255152Y29189400D02*
X58832648Y29189400D01*
X60255152Y27369400D02*
X58832648Y27369400D01*
%TO.C,D3*%
X40893900Y20269400D02*
X40893900Y25779400D01*
X44193900Y20269400D02*
X40893900Y20269400D01*
X44193900Y20269400D02*
X44193900Y25779400D01*
%TO.C,D4*%
X65203900Y12929400D02*
X59393900Y12929400D01*
X65203900Y12929400D02*
X65203900Y8629400D01*
X65203900Y8629400D02*
X59393900Y8629400D01*
%TO.C,R10*%
X46281158Y20301900D02*
X45806642Y20301900D01*
X46281158Y19256900D02*
X45806642Y19256900D01*
%TO.C,TP6*%
X73900000Y4800000D02*
G75*
G02*
X72500000Y4800000I-700000J0D01*
G01*
X72500000Y4800000D02*
G75*
G02*
X73900000Y4800000I700000J0D01*
G01*
%TO.C,D2*%
X65203900Y18429400D02*
X59393900Y18429400D01*
X65203900Y18429400D02*
X65203900Y14129400D01*
X65203900Y14129400D02*
X59393900Y14129400D01*
%TO.C,TP13*%
X99650000Y11800000D02*
G75*
G02*
X97750000Y11800000I-950000J0D01*
G01*
X97750000Y11800000D02*
G75*
G02*
X99650000Y11800000I950000J0D01*
G01*
%TO.C,R8*%
X57281158Y22301900D02*
X56806642Y22301900D01*
X57281158Y21256900D02*
X56806642Y21256900D01*
%TO.C,TP5*%
X73900000Y2700000D02*
G75*
G02*
X72500000Y2700000I-700000J0D01*
G01*
X72500000Y2700000D02*
G75*
G02*
X73900000Y2700000I700000J0D01*
G01*
%TO.C,R9*%
X55270964Y19514400D02*
X54816836Y19514400D01*
X55270964Y18044400D02*
X54816836Y18044400D01*
D13*
%TO.C,kibuzzard-66281C1F*%
G36*
X92638944Y9300025D02*
G01*
X92664344Y9201600D01*
X92686569Y9103969D01*
X92706412Y9002369D01*
X92514325Y9002369D01*
X92533375Y9103969D01*
X92554806Y9201600D01*
X92580206Y9300025D01*
X92609575Y9405594D01*
X92638944Y9300025D01*
G37*
G36*
X91898375Y9436550D02*
G01*
X91930125Y9432581D01*
X91930125Y9137306D01*
X91887262Y9137306D01*
X91801141Y9147030D01*
X91742800Y9176200D01*
X91698350Y9286531D01*
X91710256Y9354000D01*
X91745975Y9400831D01*
X91801141Y9428216D01*
X91871387Y9437344D01*
X91898375Y9436550D01*
G37*
G36*
X93812481Y9868073D02*
G01*
X93887401Y9856960D01*
X93960871Y9838557D01*
X94032183Y9813041D01*
X94100651Y9780658D01*
X94165616Y9741720D01*
X94226450Y9696601D01*
X94282570Y9645738D01*
X94333434Y9589618D01*
X94378552Y9528783D01*
X94417490Y9463819D01*
X94449873Y9395351D01*
X94475389Y9324039D01*
X94493792Y9250569D01*
X94504905Y9175649D01*
X94508622Y9100000D01*
X94504905Y9024351D01*
X94493792Y8949431D01*
X94475389Y8875961D01*
X94449873Y8804649D01*
X94417490Y8736181D01*
X94378552Y8671217D01*
X94333434Y8610382D01*
X94282570Y8554262D01*
X94226450Y8503399D01*
X94165616Y8458280D01*
X94100651Y8419342D01*
X94032183Y8386959D01*
X93960871Y8361443D01*
X93887401Y8343040D01*
X93812481Y8331927D01*
X93736832Y8328210D01*
X93736700Y8328210D01*
X93404913Y8328210D01*
X92434950Y8328210D01*
X91434825Y8328210D01*
X90922062Y8328210D01*
X90663300Y8328210D01*
X90663168Y8328210D01*
X90587519Y8331927D01*
X90512599Y8343040D01*
X90439129Y8361443D01*
X90367817Y8386959D01*
X90299349Y8419342D01*
X90234384Y8458280D01*
X90173550Y8503399D01*
X90117430Y8554262D01*
X90066566Y8610382D01*
X90021448Y8671217D01*
X89982510Y8736181D01*
X89950127Y8804649D01*
X89924611Y8875961D01*
X89906208Y8949431D01*
X89895095Y9024351D01*
X89891378Y9100000D01*
X89895095Y9175649D01*
X89906208Y9250569D01*
X89924611Y9324039D01*
X89950127Y9395351D01*
X89968487Y9434169D01*
X90663300Y9434169D01*
X90922062Y9434169D01*
X90922062Y8613431D01*
X91118912Y8613431D01*
X91434825Y8613431D01*
X91639612Y8613431D01*
X91679102Y8706895D01*
X91724544Y8796787D01*
X91774748Y8885489D01*
X91828525Y8975381D01*
X91930125Y8975381D01*
X91930125Y8613431D01*
X92125387Y8613431D01*
X92225400Y8613431D01*
X92434950Y8613431D01*
X92480987Y8840444D01*
X92742925Y8840444D01*
X92787375Y8613431D01*
X92990575Y8613431D01*
X92962572Y8727572D01*
X92934441Y8837586D01*
X92906184Y8943472D01*
X92899054Y8969031D01*
X93066775Y8969031D01*
X93070744Y8887275D01*
X93082650Y8813456D01*
X93104478Y8748766D01*
X93138213Y8694394D01*
X93184250Y8650936D01*
X93242988Y8618987D01*
X93316013Y8599342D01*
X93404913Y8592794D01*
X93492423Y8599342D01*
X93564456Y8618987D01*
X93666850Y8694394D01*
X93699394Y8748766D01*
X93720825Y8813456D01*
X93732731Y8887275D01*
X93736700Y8969031D01*
X93736700Y9596094D01*
X93539850Y9596094D01*
X93539850Y8981731D01*
X93533500Y8877750D01*
X93512069Y8810281D01*
X93470000Y8773769D01*
X93401738Y8762656D01*
X93333475Y8773769D01*
X93290613Y8811075D01*
X93268388Y8879337D01*
X93262037Y8983319D01*
X93262037Y9596094D01*
X93066775Y9596094D01*
X93066775Y8969031D01*
X92899054Y8969031D01*
X92877799Y9045231D01*
X92849287Y9142862D01*
X92813866Y9260784D01*
X92779041Y9375630D01*
X92744810Y9487400D01*
X92711175Y9596094D01*
X92498450Y9596094D01*
X92463575Y9486507D01*
X92428798Y9373645D01*
X92394121Y9257510D01*
X92359544Y9138100D01*
X92332080Y9039643D01*
X92304934Y8937948D01*
X92278105Y8833014D01*
X92251594Y8724842D01*
X92225400Y8613431D01*
X92125387Y8613431D01*
X92125387Y9581806D01*
X92062681Y9593712D01*
X91993625Y9601650D01*
X91926950Y9605619D01*
X91871387Y9607206D01*
X91791219Y9602444D01*
X91718987Y9588156D01*
X91655487Y9563947D01*
X91601512Y9529419D01*
X91526106Y9428612D01*
X91506461Y9362136D01*
X91499912Y9284944D01*
X91508644Y9203187D01*
X91534837Y9129369D01*
X91581272Y9067853D01*
X91650725Y9023006D01*
X91593575Y8931725D01*
X91534837Y8826950D01*
X91480069Y8717412D01*
X91434825Y8613431D01*
X91118912Y8613431D01*
X91118912Y9434169D01*
X91377675Y9434169D01*
X91377675Y9596094D01*
X90663300Y9596094D01*
X90663300Y9434169D01*
X89968487Y9434169D01*
X89982510Y9463819D01*
X90021448Y9528783D01*
X90066566Y9589618D01*
X90117430Y9645738D01*
X90173550Y9696601D01*
X90234384Y9741720D01*
X90299349Y9780658D01*
X90367817Y9813041D01*
X90439129Y9838557D01*
X90512599Y9856960D01*
X90587519Y9868073D01*
X90663168Y9871790D01*
X90663300Y9871790D01*
X93736700Y9871790D01*
X93736832Y9871790D01*
X93812481Y9868073D01*
G37*
%TO.C,TP15*%
D11*
X94450000Y11700000D02*
G75*
G02*
X92550000Y11700000I-950000J0D01*
G01*
X92550000Y11700000D02*
G75*
G02*
X94450000Y11700000I950000J0D01*
G01*
%TO.C,TP17*%
X89250000Y11700000D02*
G75*
G02*
X87350000Y11700000I-950000J0D01*
G01*
X87350000Y11700000D02*
G75*
G02*
X89250000Y11700000I950000J0D01*
G01*
D13*
%TO.C,kibuzzard-66281DA5*%
G36*
X17144813Y19122300D02*
G01*
X17236887Y19052450D01*
X17294037Y18950850D01*
X17321025Y18833375D01*
X16724125Y18833375D01*
X16740000Y18949263D01*
X16790800Y19049275D01*
X16879700Y19120713D01*
X17013050Y19147700D01*
X17144813Y19122300D01*
G37*
G36*
X26669812Y19122300D02*
G01*
X26761888Y19052450D01*
X26819038Y18950850D01*
X26846025Y18833375D01*
X26249125Y18833375D01*
X26265000Y18949263D01*
X26315800Y19049275D01*
X26404700Y19120713D01*
X26538050Y19147700D01*
X26669812Y19122300D01*
G37*
G36*
X31484700Y19590613D02*
G01*
X31548200Y19582675D01*
X31548200Y18992125D01*
X31462475Y18992125D01*
X31290231Y19011572D01*
X31173550Y19069913D01*
X31084650Y19290575D01*
X31108463Y19425513D01*
X31179900Y19519175D01*
X31290231Y19573944D01*
X31430725Y19592200D01*
X31484700Y19590613D01*
G37*
G36*
X21921997Y19104441D02*
G01*
X22018437Y19012763D01*
X22076778Y18871078D01*
X22096225Y18690500D01*
X22078366Y18509525D01*
X22024787Y18366650D01*
X21931522Y18273781D01*
X21794600Y18242825D01*
X21660853Y18273781D01*
X21564413Y18366650D01*
X21506072Y18509525D01*
X21486625Y18690500D01*
X21504484Y18871078D01*
X21558063Y19012763D01*
X21651328Y19104441D01*
X21788250Y19135000D01*
X21921997Y19104441D01*
G37*
G36*
X34262119Y18779400D02*
G01*
X32997058Y16881808D01*
X31938725Y16881808D01*
X30557600Y16881808D01*
X30144850Y16881808D01*
X27388950Y16881808D01*
X26430100Y16881808D01*
X25083900Y16881808D01*
X23232875Y16881808D01*
X21788250Y16881808D01*
X19597500Y16881808D01*
X18010000Y16881808D01*
X16905100Y16881808D01*
X15231875Y16881808D01*
X13625325Y16881808D01*
X13149075Y16881808D01*
X12090742Y16881808D01*
X10825681Y16881808D01*
X11565809Y17992000D01*
X13149075Y17992000D01*
X13382438Y17928500D01*
X13625325Y17909450D01*
X13866625Y17931675D01*
X13971988Y17982475D01*
X14755625Y17982475D01*
X14955650Y17930088D01*
X15083444Y17914609D01*
X15231875Y17909450D01*
X15444203Y17924531D01*
X15623987Y17969775D01*
X15772816Y18041213D01*
X15892275Y18134875D01*
X15983159Y18249175D01*
X16046262Y18382525D01*
X16083172Y18530956D01*
X16095475Y18690500D01*
X16093936Y18709550D01*
X16346300Y18709550D01*
X16347887Y18630175D01*
X16352650Y18563500D01*
X17321025Y18563500D01*
X17290862Y18432928D01*
X17200375Y18333313D01*
X17062263Y18270209D01*
X16889225Y18249175D01*
X16665387Y18274575D01*
X16486000Y18325375D01*
X16432025Y17992000D01*
X16647925Y17933263D01*
X16905100Y17909450D01*
X17085678Y17921753D01*
X17246412Y17958663D01*
X17386112Y18019781D01*
X17503587Y18104713D01*
X17597647Y18213059D01*
X17667100Y18344425D01*
X17709962Y18499206D01*
X17724250Y18677800D01*
X17715447Y18785750D01*
X18010000Y18785750D01*
X18010000Y17944375D01*
X18400525Y17944375D01*
X18400525Y18734950D01*
X18412431Y18915131D01*
X18448150Y19036575D01*
X18641825Y19128650D01*
X18729137Y19125475D01*
X18819625Y19115950D01*
X18819625Y17944375D01*
X19210150Y17944375D01*
X19210150Y18785750D01*
X19597500Y18785750D01*
X19597500Y17944375D01*
X19988025Y17944375D01*
X19988025Y18734950D01*
X19999931Y18915131D01*
X20035650Y19036575D01*
X20229325Y19128650D01*
X20316638Y19125475D01*
X20407125Y19115950D01*
X20407125Y17944375D01*
X20797650Y17944375D01*
X20797650Y18693675D01*
X21086575Y18693675D01*
X21099275Y18524209D01*
X21137375Y18371413D01*
X21198494Y18236872D01*
X21280250Y18122175D01*
X21381453Y18029306D01*
X21500912Y17960250D01*
X21637041Y17917388D01*
X21788250Y17903100D01*
X21939459Y17917388D01*
X22075587Y17960250D01*
X22195444Y18029306D01*
X22206821Y18039625D01*
X22683600Y18039625D01*
X22907438Y17945963D01*
X23059441Y17913816D01*
X23232875Y17903100D01*
X23488286Y17932733D01*
X23699953Y18021633D01*
X23867875Y18169800D01*
X23963720Y18317239D01*
X24032181Y18492856D01*
X24073258Y18696652D01*
X24086950Y18928625D01*
X24070281Y19159606D01*
X24020275Y19363600D01*
X24002988Y19401700D01*
X24302850Y19401700D01*
X24372700Y19039750D01*
X24463187Y19058800D01*
X24569550Y19076263D01*
X24674325Y19087375D01*
X24760050Y19090550D01*
X24921975Y19082613D01*
X25083900Y19052450D01*
X25083900Y17944375D01*
X25477600Y17944375D01*
X25477600Y18709550D01*
X25871300Y18709550D01*
X25872888Y18630175D01*
X25877650Y18563500D01*
X26846025Y18563500D01*
X26815862Y18432928D01*
X26725375Y18333313D01*
X26587262Y18270209D01*
X26414225Y18249175D01*
X26190388Y18274575D01*
X26011000Y18325375D01*
X25957025Y17992000D01*
X26172925Y17933263D01*
X26430100Y17909450D01*
X26610678Y17921753D01*
X26709192Y17944375D01*
X27388950Y17944375D01*
X27836625Y17944375D01*
X27936638Y18123763D01*
X28068400Y18320613D01*
X28209687Y18504763D01*
X28341450Y18649225D01*
X28341450Y17944375D01*
X28735150Y17944375D01*
X28735150Y19436625D01*
X29024075Y19436625D01*
X29083209Y19229059D01*
X29139963Y19025463D01*
X29196716Y18826231D01*
X29255850Y18631763D01*
X29318159Y18441659D01*
X29384438Y18255525D01*
X29455478Y18073756D01*
X29532075Y17896750D01*
X29651138Y17677675D01*
X29781313Y17526863D01*
X29940063Y17439550D01*
X30144850Y17410975D01*
X30324238Y17426850D01*
X30459175Y17468125D01*
X30386150Y17795150D01*
X30273438Y17755463D01*
X30167075Y17744350D01*
X29982925Y17820550D01*
X29906892Y17944375D01*
X30557600Y17944375D01*
X30967175Y17944375D01*
X31046153Y18131303D01*
X31137038Y18311088D01*
X31237447Y18488491D01*
X31345000Y18668275D01*
X31548200Y18668275D01*
X31548200Y17944375D01*
X31938725Y17944375D01*
X31938725Y19881125D01*
X31813313Y19904938D01*
X31675200Y19920813D01*
X31541850Y19928750D01*
X31430725Y19931925D01*
X31270388Y19922400D01*
X31125925Y19893825D01*
X30998925Y19845406D01*
X30890975Y19776350D01*
X30740163Y19574738D01*
X30700872Y19441784D01*
X30687775Y19287400D01*
X30705237Y19123888D01*
X30757625Y18976250D01*
X30850494Y18853219D01*
X30989400Y18763525D01*
X30875100Y18580963D01*
X30757625Y18371413D01*
X30648088Y18152338D01*
X30557600Y17944375D01*
X29906892Y17944375D01*
X29871800Y18001525D01*
X29964933Y18196788D01*
X30058067Y18410042D01*
X30151200Y18641288D01*
X30219463Y18826132D01*
X30284550Y19020303D01*
X30346463Y19223801D01*
X30405200Y19436625D01*
X29998800Y19436625D01*
X29933713Y19185800D01*
X29896009Y19052450D01*
X29855925Y18919100D01*
X29813459Y18786941D01*
X29768612Y18657163D01*
X29674950Y18417450D01*
X29608275Y18657163D01*
X29574144Y18786544D01*
X29541600Y18917513D01*
X29510247Y19049672D01*
X29479688Y19182625D01*
X29424125Y19436625D01*
X29024075Y19436625D01*
X28735150Y19436625D01*
X28735150Y20081150D01*
X28341450Y20147825D01*
X28341450Y18846075D01*
X28225562Y18987363D01*
X28111263Y19141350D01*
X28004900Y19295338D01*
X27916000Y19436625D01*
X27446100Y19436625D01*
X27576275Y19277875D01*
X27727088Y19103250D01*
X27882663Y18931800D01*
X28023950Y18779400D01*
X27852500Y18596838D01*
X27761219Y18488491D01*
X27671525Y18376175D01*
X27586197Y18261875D01*
X27508013Y18147575D01*
X27388950Y17944375D01*
X26709192Y17944375D01*
X26771413Y17958663D01*
X26911113Y18019781D01*
X27028588Y18104713D01*
X27122647Y18213059D01*
X27192100Y18344425D01*
X27234962Y18499206D01*
X27249250Y18677800D01*
X27234169Y18862744D01*
X27188925Y19023875D01*
X27119075Y19160797D01*
X27030175Y19273113D01*
X26924606Y19360822D01*
X26804750Y19423925D01*
X26676162Y19462025D01*
X26544400Y19474725D01*
X26341906Y19453029D01*
X26174689Y19387942D01*
X26042750Y19279463D01*
X25947500Y19129356D01*
X25890350Y18939385D01*
X25871300Y18709550D01*
X25477600Y18709550D01*
X25477600Y19338200D01*
X25320041Y19389794D01*
X25158512Y19430275D01*
X24981109Y19456469D01*
X24775925Y19465200D01*
X24685437Y19462025D01*
X24560025Y19450913D01*
X24425087Y19431863D01*
X24302850Y19401700D01*
X24002988Y19401700D01*
X23940503Y19539416D01*
X23834538Y19685863D01*
X23704362Y19801750D01*
X23551962Y19885888D01*
X23380909Y19937084D01*
X23194775Y19954150D01*
X23005863Y19936688D01*
X22858225Y19897000D01*
X22751863Y19849375D01*
X22686775Y19811275D01*
X22788375Y19500125D01*
X22964587Y19581088D01*
X23201125Y19614425D01*
X23380512Y19581088D01*
X23536088Y19469963D01*
X23647212Y19262000D01*
X23679359Y19115950D01*
X23690075Y18938150D01*
X23677199Y18731246D01*
X23638569Y18559267D01*
X23574187Y18422213D01*
X23421391Y18287672D01*
X23194775Y18242825D01*
X22942363Y18277750D01*
X22782025Y18347600D01*
X22683600Y18039625D01*
X22206821Y18039625D01*
X22297838Y18122175D01*
X22380784Y18236872D01*
X22442300Y18371413D01*
X22480400Y18524209D01*
X22493100Y18693675D01*
X22480003Y18860759D01*
X22440712Y19012763D01*
X22378006Y19146906D01*
X22294662Y19260413D01*
X22191872Y19351694D01*
X22070825Y19419163D01*
X21935094Y19460834D01*
X21788250Y19474725D01*
X21639422Y19460834D01*
X21504087Y19419163D01*
X21384231Y19351694D01*
X21281837Y19260413D01*
X21198891Y19146906D01*
X21137375Y19012763D01*
X21099275Y18860759D01*
X21086575Y18693675D01*
X20797650Y18693675D01*
X20797650Y19389000D01*
X20680572Y19416781D01*
X20538887Y19442975D01*
X20378153Y19462025D01*
X20203925Y19468375D01*
X20041206Y19456072D01*
X19908650Y19419163D01*
X19722913Y19279463D01*
X19626075Y19063563D01*
X19604644Y18931403D01*
X19597500Y18785750D01*
X19210150Y18785750D01*
X19210150Y19389000D01*
X19093072Y19416781D01*
X18951387Y19442975D01*
X18790653Y19462025D01*
X18616425Y19468375D01*
X18453706Y19456072D01*
X18321150Y19419163D01*
X18135412Y19279463D01*
X18038575Y19063563D01*
X18017144Y18931403D01*
X18010000Y18785750D01*
X17715447Y18785750D01*
X17709169Y18862744D01*
X17663925Y19023875D01*
X17594075Y19160797D01*
X17505175Y19273113D01*
X17399606Y19360822D01*
X17279750Y19423925D01*
X17151162Y19462025D01*
X17019400Y19474725D01*
X16816906Y19453029D01*
X16649689Y19387942D01*
X16517750Y19279463D01*
X16422500Y19129356D01*
X16365350Y18939385D01*
X16346300Y18709550D01*
X16093936Y18709550D01*
X16082775Y18847663D01*
X16044675Y18995300D01*
X15980381Y19129047D01*
X15889100Y19244538D01*
X15770434Y19339788D01*
X15623987Y19412813D01*
X15448172Y19459247D01*
X15241400Y19474725D01*
X15000100Y19455675D01*
X14781025Y19392175D01*
X14866750Y19077850D01*
X15008037Y19117538D01*
X15206475Y19135000D01*
X15439837Y19101663D01*
X15590650Y19009588D01*
X15673200Y18868300D01*
X15698600Y18690500D01*
X15669628Y18506350D01*
X15582712Y18366650D01*
X15425947Y18278544D01*
X15187425Y18249175D01*
X14995337Y18261875D01*
X14812775Y18303150D01*
X14755625Y17982475D01*
X13971988Y17982475D01*
X14044425Y18017400D01*
X14155550Y18196788D01*
X14184125Y18330534D01*
X14193650Y18500000D01*
X14193650Y19112775D01*
X14533375Y19112775D01*
X14533375Y19436625D01*
X14193650Y19436625D01*
X14193650Y19811275D01*
X13803125Y19874775D01*
X13803125Y19436625D01*
X13177650Y19436625D01*
X13177650Y19112775D01*
X13803125Y19112775D01*
X13803125Y18509525D01*
X13787250Y18376175D01*
X13742800Y18296800D01*
X13672950Y18258700D01*
X13580875Y18249175D01*
X13480862Y18252350D01*
X13391963Y18263463D01*
X13303062Y18287275D01*
X13203050Y18328550D01*
X13149075Y17992000D01*
X11565809Y17992000D01*
X12090742Y18779400D01*
X10825681Y20676992D01*
X12090742Y20676992D01*
X13149075Y20676992D01*
X31938725Y20676992D01*
X32997058Y20676992D01*
X34262119Y18779400D01*
G37*
%TO.C,TP16*%
D11*
X91850000Y11700000D02*
G75*
G02*
X89950000Y11700000I-950000J0D01*
G01*
X89950000Y11700000D02*
G75*
G02*
X91850000Y11700000I950000J0D01*
G01*
%TO.C,TP7*%
X71800000Y4800000D02*
G75*
G02*
X70400000Y4800000I-700000J0D01*
G01*
X70400000Y4800000D02*
G75*
G02*
X71800000Y4800000I700000J0D01*
G01*
%TO.C,C15*%
X44808900Y27518148D02*
X44808900Y28040652D01*
X46278900Y27518148D02*
X46278900Y28040652D01*
%TO.C,TP8*%
X71800000Y2700000D02*
G75*
G02*
X70400000Y2700000I-700000J0D01*
G01*
X70400000Y2700000D02*
G75*
G02*
X71800000Y2700000I700000J0D01*
G01*
%TO.C,U6*%
X55393900Y26579400D02*
G75*
G02*
X55093900Y26579400I-150000J0D01*
G01*
X55093900Y26579400D02*
G75*
G02*
X55393900Y26579400I150000J0D01*
G01*
%TO.C,JP1*%
X72379724Y8122500D02*
X71870276Y8122500D01*
X72379724Y7077500D02*
X71870276Y7077500D01*
%TO.C,C17*%
X65055152Y29189400D02*
X63632648Y29189400D01*
X65055152Y27369400D02*
X63632648Y27369400D01*
D13*
%TO.C,kibuzzard-66281FA1*%
G36*
X26166972Y13960312D02*
G01*
X26241981Y13940072D01*
X26293178Y13899591D01*
X26312228Y13830534D01*
X26255078Y13722188D01*
X26107441Y13690041D01*
X26014572Y13691231D01*
X25935991Y13697184D01*
X25935991Y13954359D01*
X26005047Y13962694D01*
X26078866Y13966266D01*
X26166972Y13960312D01*
G37*
G36*
X29452568Y14279400D02*
G01*
X28634741Y13052659D01*
X27840991Y13052659D01*
X26759903Y13052659D01*
X26128872Y13052659D01*
X24719172Y13052659D01*
X23273753Y13052659D01*
X21352084Y13052659D01*
X19701878Y13052659D01*
X18766047Y13052659D01*
X17603997Y13052659D01*
X17246809Y13052659D01*
X16453059Y13052659D01*
X16144026Y13516209D01*
X17246809Y13516209D01*
X17421831Y13468584D01*
X17603997Y13454297D01*
X17784972Y13470966D01*
X17903507Y13528116D01*
X18449341Y13528116D01*
X18619600Y13469775D01*
X18766047Y13454297D01*
X18871120Y13462631D01*
X18957738Y13487634D01*
X19081563Y13584075D01*
X19147047Y13737666D01*
X19161334Y13834702D01*
X19166097Y13944834D01*
X19166097Y14111522D01*
X19701878Y14111522D01*
X19701878Y13480491D01*
X19994772Y13480491D01*
X19994772Y14073422D01*
X20003702Y14208558D01*
X20030491Y14299641D01*
X20175747Y14368697D01*
X20241231Y14366316D01*
X20309097Y14359172D01*
X20309097Y13480491D01*
X20601991Y13480491D01*
X20601991Y14013891D01*
X20844878Y14013891D01*
X20850831Y13891256D01*
X20868691Y13780528D01*
X20901433Y13683492D01*
X20952034Y13601934D01*
X21021091Y13536748D01*
X21109197Y13488825D01*
X21218734Y13459357D01*
X21352084Y13449534D01*
X21483351Y13459357D01*
X21591400Y13488825D01*
X21744991Y13601934D01*
X21793806Y13683492D01*
X21825953Y13780528D01*
X21843813Y13891256D01*
X21849766Y14013891D01*
X21849766Y14111522D01*
X23273753Y14111522D01*
X23273753Y13480491D01*
X23566647Y13480491D01*
X23566647Y14073422D01*
X23575577Y14208558D01*
X23602366Y14299641D01*
X23747622Y14368697D01*
X23813106Y14366316D01*
X23880972Y14359172D01*
X23880972Y13480491D01*
X24173866Y13480491D01*
X24173866Y13528116D01*
X24402466Y13528116D01*
X24572725Y13469775D01*
X24719172Y13454297D01*
X24824245Y13462631D01*
X24910863Y13487634D01*
X25034688Y13584075D01*
X25100172Y13737666D01*
X25114459Y13834702D01*
X25119222Y13944834D01*
X25119222Y14173434D01*
X25655003Y14173434D01*
X25655003Y13506684D01*
X25845503Y13473347D01*
X25979448Y13459059D01*
X26128872Y13454297D01*
X26322944Y13473347D01*
X26339793Y13480491D01*
X26759903Y13480491D01*
X27028984Y13480491D01*
X27014697Y14625872D01*
X27195672Y14001984D01*
X27409984Y14001984D01*
X27583816Y14625872D01*
X27571909Y13480491D01*
X27840991Y13480491D01*
X27833549Y13665037D01*
X27825513Y13856728D01*
X27816880Y14051395D01*
X27807653Y14244872D01*
X27797235Y14434777D01*
X27785031Y14618728D01*
X27771041Y14793155D01*
X27755266Y14954484D01*
X27512378Y14954484D01*
X27470706Y14825897D01*
X27417128Y14656828D01*
X27359978Y14473472D01*
X27305209Y14302022D01*
X27245678Y14484187D01*
X27186147Y14665162D01*
X27133759Y14828278D01*
X27090897Y14954484D01*
X26848009Y14954484D01*
X26831638Y14763984D01*
X26815863Y14578247D01*
X26801575Y14395784D01*
X26789669Y14215106D01*
X26779846Y14034727D01*
X26771809Y13853156D01*
X26765261Y13668907D01*
X26759903Y13480491D01*
X26339793Y13480491D01*
X26471772Y13536450D01*
X26567022Y13650750D01*
X26600359Y13823391D01*
X26562259Y13987697D01*
X26459866Y14094853D01*
X26312228Y14153194D01*
X26138397Y14171053D01*
X26030645Y14166291D01*
X25935991Y14152003D01*
X25935991Y14187722D01*
X25988378Y14327025D01*
X26059816Y14368995D01*
X26169353Y14382984D01*
X26330088Y14371078D01*
X26455103Y14342503D01*
X26495584Y14578247D01*
X26340803Y14612775D01*
X26239005Y14624384D01*
X26133634Y14628253D01*
X26007130Y14620216D01*
X25903844Y14596106D01*
X25757397Y14505619D01*
X25678816Y14362744D01*
X25655003Y14173434D01*
X25119222Y14173434D01*
X25119222Y14356791D01*
X25428784Y14356791D01*
X25428784Y14599678D01*
X25023972Y14599678D01*
X24826328Y14599678D01*
X24826328Y13906734D01*
X24789419Y13757906D01*
X24666784Y13709091D01*
X24569153Y13719806D01*
X24440566Y13763859D01*
X24402466Y13528116D01*
X24173866Y13528116D01*
X24173866Y14563959D01*
X24086057Y14584795D01*
X23979794Y14604441D01*
X23859243Y14618728D01*
X23728572Y14623491D01*
X23606533Y14614263D01*
X23507116Y14586581D01*
X23367813Y14481806D01*
X23295184Y14319881D01*
X23279111Y14220762D01*
X23273753Y14111522D01*
X21849766Y14111522D01*
X21849766Y14921147D01*
X24838234Y14921147D01*
X24893003Y14785416D01*
X25023972Y14735409D01*
X25153750Y14785416D01*
X25207328Y14921147D01*
X25153750Y15059259D01*
X25023972Y15109266D01*
X24893003Y15059259D01*
X24838234Y14921147D01*
X21849766Y14921147D01*
X21849766Y14954484D01*
X21554491Y14954484D01*
X21554491Y14032941D01*
X21544966Y13876969D01*
X21512819Y13775766D01*
X21449716Y13720997D01*
X21347322Y13704328D01*
X21244928Y13720997D01*
X21180634Y13776956D01*
X21147297Y13879350D01*
X21137772Y14035322D01*
X21137772Y14954484D01*
X20844878Y14954484D01*
X20844878Y14013891D01*
X20601991Y14013891D01*
X20601991Y14563959D01*
X20514182Y14584795D01*
X20407919Y14604441D01*
X20287368Y14618728D01*
X20156697Y14623491D01*
X20034658Y14614263D01*
X19935241Y14586581D01*
X19795938Y14481806D01*
X19723309Y14319881D01*
X19707236Y14220762D01*
X19701878Y14111522D01*
X19166097Y14111522D01*
X19166097Y14356791D01*
X19475659Y14356791D01*
X19475659Y14599678D01*
X19070847Y14599678D01*
X18873203Y14599678D01*
X18873203Y13906734D01*
X18836294Y13757906D01*
X18713659Y13709091D01*
X18616028Y13719806D01*
X18487441Y13763859D01*
X18449341Y13528116D01*
X17903507Y13528116D01*
X17918322Y13535259D01*
X18001666Y13669800D01*
X18023097Y13770110D01*
X18030241Y13897209D01*
X18030241Y14356791D01*
X18285034Y14356791D01*
X18285034Y14599678D01*
X18030241Y14599678D01*
X18030241Y14880666D01*
X17781283Y14921147D01*
X18885109Y14921147D01*
X18939878Y14785416D01*
X19070847Y14735409D01*
X19200625Y14785416D01*
X19254203Y14921147D01*
X19200625Y15059259D01*
X19070847Y15109266D01*
X18939878Y15059259D01*
X18885109Y14921147D01*
X17781283Y14921147D01*
X17737347Y14928291D01*
X17737347Y14599678D01*
X17268241Y14599678D01*
X17268241Y14356791D01*
X17737347Y14356791D01*
X17737347Y13904353D01*
X17725441Y13804341D01*
X17692103Y13744809D01*
X17639716Y13716234D01*
X17570659Y13709091D01*
X17495650Y13711472D01*
X17428975Y13719806D01*
X17362300Y13737666D01*
X17287291Y13768622D01*
X17246809Y13516209D01*
X16144026Y13516209D01*
X15635232Y14279400D01*
X16453059Y15506141D01*
X17246809Y15506141D01*
X27840991Y15506141D01*
X28634741Y15506141D01*
X29452568Y14279400D01*
G37*
%TO.C,C16*%
D11*
X46184480Y22789400D02*
X45903320Y22789400D01*
X46184480Y21769400D02*
X45903320Y21769400D01*
%TD*%
%LPC*%
D14*
%TO.C,J1*%
X55700000Y14200000D03*
D15*
X52700000Y14200000D03*
%TD*%
D16*
%TO.C,J2*%
X67790000Y6900000D03*
D17*
X67790000Y2720000D03*
D16*
X76430000Y6900000D03*
D17*
X76430000Y2720000D03*
%TD*%
D18*
%TO.C,H2*%
X99000000Y2500000D03*
D19*
X99000000Y2500000D03*
%TD*%
D20*
%TO.C,R7*%
X58368900Y24279400D03*
X56718900Y24279400D03*
%TD*%
D21*
%TO.C,TP14*%
X96100000Y11800000D03*
%TD*%
%TO.C,TP18*%
X85700000Y11700000D03*
%TD*%
D22*
%TO.C,C14*%
X61018900Y28279400D03*
X58068900Y28279400D03*
%TD*%
D23*
%TO.C,D3*%
X42543900Y21779400D03*
X42543900Y25779400D03*
%TD*%
D24*
%TO.C,D4*%
X63693900Y10779400D03*
X59393900Y10779400D03*
%TD*%
D20*
%TO.C,R10*%
X46868900Y19779400D03*
X45218900Y19779400D03*
%TD*%
D25*
%TO.C,TP6*%
X73200000Y4800000D03*
%TD*%
D24*
%TO.C,D2*%
X63693900Y16279400D03*
X59393900Y16279400D03*
%TD*%
D21*
%TO.C,TP13*%
X98700000Y11800000D03*
%TD*%
D20*
%TO.C,R8*%
X57868900Y21779400D03*
X56218900Y21779400D03*
%TD*%
D25*
%TO.C,TP5*%
X73200000Y2700000D03*
%TD*%
D26*
%TO.C,R9*%
X55956400Y18779400D03*
X54131400Y18779400D03*
%TD*%
D21*
%TO.C,TP15*%
X93500000Y11700000D03*
%TD*%
%TO.C,TP17*%
X88300000Y11700000D03*
%TD*%
%TO.C,TP16*%
X90900000Y11700000D03*
%TD*%
D25*
%TO.C,TP7*%
X71100000Y4800000D03*
%TD*%
D27*
%TO.C,C15*%
X45543900Y26829400D03*
X45543900Y28729400D03*
%TD*%
D25*
%TO.C,TP8*%
X71100000Y2700000D03*
%TD*%
D28*
%TO.C,U6*%
X51543900Y23779400D03*
D29*
X54443900Y26054400D03*
X54443900Y25404400D03*
X54443900Y24754399D03*
X54443900Y24104399D03*
X54443900Y23454400D03*
X54443900Y22804400D03*
X54443900Y22154400D03*
X54443900Y21504400D03*
X48643900Y21504400D03*
X48643900Y22154400D03*
X48643900Y22804400D03*
X48643900Y23454400D03*
X48643900Y24104399D03*
X48643900Y24754399D03*
X48643900Y25404400D03*
X48643900Y26054400D03*
%TD*%
D30*
%TO.C,JP1*%
X71212500Y7600000D03*
X73037500Y7600000D03*
%TD*%
D22*
%TO.C,C17*%
X65818900Y28279400D03*
X62868900Y28279400D03*
%TD*%
D31*
%TO.C,C16*%
X46818900Y22279400D03*
X45268900Y22279400D03*
%TD*%
D18*
%TO.C,H1*%
X9000000Y2500000D03*
D19*
X9000000Y2500000D03*
%TD*%
%LPD*%
M02*
