%TF.GenerationSoftware,KiCad,Pcbnew,10.0.6*%
%TF.CreationDate,2026-09-13T00:47:20-08:00*%
%TF.ProjectId,RykerConnect,52796b65-7243-46f6-9e6e-6563742e6b69,REV03*%
%TF.SameCoordinates,Original*%
%TF.FileFunction,Soldermask,Bot*%
%TF.FilePolarity,Negative*%
%FSLAX46Y46*%
G04 Gerber Fmt 4.6, Leading zero omitted, Abs format (unit mm)*
G04 Created by KiCad (PCBNEW 10.0.6) date 2026-09-13 00:47:20*
%MOMM*%
%LPD*%
G01*
G04 APERTURE LIST*
G04 Aperture macros list*
%AMRoundRect*
0 Rectangle with rounded corners*
0 $1 Rounding radius*
0 $2 $3 $4 $5 $6 $7 $8 $9 X,Y pos of 4 corners*
0 Add a 4 corners polygon primitive as box body*
4,1,4,$2,$3,$4,$5,$6,$7,$8,$9,$2,$3,0*
0 Add four circle primitives for the rounded corners*
1,1,$1+$1,$2,$3*
1,1,$1+$1,$4,$5*
1,1,$1+$1,$6,$7*
1,1,$1+$1,$8,$9*
0 Add four rect primitives between the rounded corners*
20,1,$1+$1,$2,$3,$4,$5,0*
20,1,$1+$1,$4,$5,$6,$7,0*
20,1,$1+$1,$6,$7,$8,$9,0*
20,1,$1+$1,$8,$9,$2,$3,0*%
G04 Aperture macros list end*
%ADD10R,1.520000X1.520000*%
%ADD11C,1.520000*%
%ADD12O,1.000000X2.100000*%
%ADD13O,1.000000X1.800000*%
%ADD14C,2.600000*%
%ADD15C,3.800000*%
%ADD16RoundRect,0.200000X0.200000X0.275000X-0.200000X0.275000X-0.200000X-0.275000X0.200000X-0.275000X0*%
%ADD17C,1.500000*%
%ADD18RoundRect,0.250000X0.325000X0.650000X-0.325000X0.650000X-0.325000X-0.650000X0.325000X-0.650000X0*%
%ADD19RoundRect,0.250000X0.650000X-1.000000X0.650000X1.000000X-0.650000X1.000000X-0.650000X-1.000000X0*%
%ADD20RoundRect,0.250000X1.000000X0.900000X-1.000000X0.900000X-1.000000X-0.900000X1.000000X-0.900000X0*%
%ADD21C,1.000000*%
%ADD22RoundRect,0.250000X0.262500X0.450000X-0.262500X0.450000X-0.262500X-0.450000X0.262500X-0.450000X0*%
%ADD23RoundRect,0.250000X0.475000X-0.250000X0.475000X0.250000X-0.475000X0.250000X-0.475000X-0.250000X0*%
%ADD24R,3.300000X3.300000*%
%ADD25R,1.500000X0.450000*%
%ADD26RoundRect,0.237500X-0.250000X-0.237500X0.250000X-0.237500X0.250000X0.237500X-0.250000X0.237500X0*%
%ADD27RoundRect,0.225000X0.225000X0.250000X-0.225000X0.250000X-0.225000X-0.250000X0.225000X-0.250000X0*%
G04 APERTURE END LIST*
D10*
%TO.C,J1*%
X55700000Y14200000D03*
D11*
X52700000Y14200000D03*
%TD*%
D12*
%TO.C,J2*%
X67790000Y6900000D03*
D13*
X67790000Y2720000D03*
D12*
X76430000Y6900000D03*
D13*
X76430000Y2720000D03*
%TD*%
D14*
%TO.C,H2*%
X99000000Y2500000D03*
D15*
X99000000Y2500000D03*
%TD*%
D16*
%TO.C,R7*%
X58368900Y24279400D03*
X56718900Y24279400D03*
%TD*%
D17*
%TO.C,TP14*%
X96100000Y11800000D03*
%TD*%
%TO.C,TP18*%
X85700000Y11700000D03*
%TD*%
D18*
%TO.C,C14*%
X61018900Y28279400D03*
X58068900Y28279400D03*
%TD*%
D19*
%TO.C,D3*%
X42543900Y21779400D03*
X42543900Y25779400D03*
%TD*%
D20*
%TO.C,D4*%
X63693900Y10779400D03*
X59393900Y10779400D03*
%TD*%
D16*
%TO.C,R10*%
X46868900Y19779400D03*
X45218900Y19779400D03*
%TD*%
D21*
%TO.C,TP6*%
X73200000Y4800000D03*
%TD*%
D20*
%TO.C,D2*%
X63693900Y16279400D03*
X59393900Y16279400D03*
%TD*%
D17*
%TO.C,TP13*%
X98700000Y11800000D03*
%TD*%
D16*
%TO.C,R8*%
X57868900Y21779400D03*
X56218900Y21779400D03*
%TD*%
D21*
%TO.C,TP5*%
X73200000Y2700000D03*
%TD*%
D22*
%TO.C,R9*%
X55956400Y18779400D03*
X54131400Y18779400D03*
%TD*%
D17*
%TO.C,TP15*%
X93500000Y11700000D03*
%TD*%
%TO.C,TP17*%
X88300000Y11700000D03*
%TD*%
%TO.C,TP16*%
X90900000Y11700000D03*
%TD*%
D21*
%TO.C,TP7*%
X71100000Y4800000D03*
%TD*%
D23*
%TO.C,C15*%
X45543900Y26829400D03*
X45543900Y28729400D03*
%TD*%
D21*
%TO.C,TP8*%
X71100000Y2700000D03*
%TD*%
D24*
%TO.C,U6*%
X51543900Y23779400D03*
D25*
X54443900Y26054400D03*
X54443900Y25404400D03*
X54443900Y24754399D03*
X54443900Y24104399D03*
X54443900Y23454400D03*
X54443900Y22804400D03*
X54443900Y22154400D03*
X54443900Y21504400D03*
X48643900Y21504400D03*
X48643900Y22154400D03*
X48643900Y22804400D03*
X48643900Y23454400D03*
X48643900Y24104399D03*
X48643900Y24754399D03*
X48643900Y25404400D03*
X48643900Y26054400D03*
%TD*%
D26*
%TO.C,JP1*%
X71212500Y7600000D03*
X73037500Y7600000D03*
%TD*%
D18*
%TO.C,C17*%
X65818900Y28279400D03*
X62868900Y28279400D03*
%TD*%
D27*
%TO.C,C16*%
X46818900Y22279400D03*
X45268900Y22279400D03*
%TD*%
D14*
%TO.C,H1*%
X9000000Y2500000D03*
D15*
X9000000Y2500000D03*
%TD*%
M02*
