M48
; DRILL file KiCad 10.0.6 date 2026-09-13T11:24:29
; FORMAT={-:-/ absolute / metric / decimal}
; #@! TF.CreationDate,2026-09-13T11:24:29-08:00
; #@! TF.GenerationSoftware,Kicad,Pcbnew,10.0.6
; #@! TF.FileFunction,Plated,1,2,PTH
FMAT,2
METRIC
; #@! TA.AperFunction,Plated,PTH,ViaDrill
T1C0.300
; #@! TA.AperFunction,Plated,PTH,ComponentDrill
T2C1.000
; #@! TA.AperFunction,Plated,PTH,ComponentDrill
T3C1.020
; #@! TA.AperFunction,Plated,PTH,ComponentDrill
T4C2.200
%
G90
G05
T1
X3.544Y43.779
X3.544Y37.779
X3.544Y13.779
X3.544Y2.779
X11.117Y8.411
X11.544Y43.779
X12.018Y8.112
X13.504Y3.548
X15.044Y4.279
X18.595Y3.822
X18.694Y9.079
X21.088Y5.979
X21.801Y6.679
X23.544Y43.779
X33.544Y43.779
X34.544Y39.254
X34.544Y34.254
X38.537Y8.411
X39.044Y31.579
X42.096Y38.986
X42.544Y34.379
X43.544Y13.779
X43.544Y2.779
X45.718Y5.979
X47.044Y4.279
X48.508Y8.411
X51.044Y16.779
X51.244Y28.579
X51.678Y7.587
X51.694Y30.804
X52.244Y26.779
X52.544Y11.254
X53.493Y32.727
X53.493Y9.291
X55.544Y43.779
X55.544Y2.779
X55.986Y5.979
X56.319Y14.779
X58.044Y22.779
X60.044Y7.779
X60.544Y37.979
X60.544Y30.729
X61.544Y43.779
X61.544Y37.779
X61.544Y2.779
X63.464Y25.432
X65.544Y43.779
X65.544Y37.779
X65.544Y28.979
X65.544Y2.779
X70.298Y23.577
X70.544Y22.579
X70.955Y25.445
X71.544Y43.779
X71.544Y2.779
X73.544Y37.779
X73.544Y11.979
X75.344Y30.679
X75.544Y43.779
X75.544Y27.279
X75.544Y13.779
X75.544Y2.779
X76.544Y11.979
X78.478Y36.618
X80.911Y25.432
X83.544Y43.779
X83.544Y2.779
X83.886Y30.315
X85.898Y35.159
X85.898Y23.001
X87.344Y24.779
X89.544Y43.779
X89.544Y37.779
X89.544Y25.779
X89.544Y21.779
X89.544Y13.779
X89.544Y2.779
X93.544Y43.779
X93.544Y13.779
X93.544Y2.779
T2
X41.594Y41.509
X41.594Y18.649
X44.134Y41.509
X44.134Y18.649
X46.674Y41.509
X46.674Y18.649
X49.214Y41.509
X49.214Y18.649
X51.754Y41.509
X51.754Y18.649
X54.294Y41.509
X54.294Y18.649
X56.834Y41.509
X56.834Y18.649
X59.374Y41.509
X59.374Y18.649
X61.914Y41.509
X61.914Y18.649
X64.454Y41.509
X64.454Y18.649
X66.994Y41.509
X66.994Y18.649
X69.534Y41.509
X69.534Y18.649
X72.074Y41.509
X72.074Y18.649
X74.614Y41.509
X74.614Y18.649
X77.154Y41.509
X77.154Y18.649
X79.694Y41.509
X79.694Y18.649
X82.234Y41.509
X82.234Y18.649
X83.544Y7.779
X84.774Y41.509
X84.774Y18.649
X86.084Y7.779
X87.314Y41.509
X87.314Y18.649
X89.854Y41.509
X89.854Y18.649
X92.394Y41.509
X92.394Y18.649
X94.934Y41.509
X94.934Y18.649
T3
X27.544Y16.779
X30.544Y16.779
T4
X9.0Y14.5
X99.0Y14.5
M30
