%TF.GenerationSoftware,KiCad,Pcbnew,10.0.6*%
%TF.CreationDate,2026-09-13T11:24:29-08:00*%
%TF.ProjectId,RykerConnect,52796b65-7243-46f6-9e6e-6563742e6b69,REV03*%
%TF.SameCoordinates,Original*%
%TF.FileFunction,Soldermask,Top*%
%TF.FilePolarity,Negative*%
%FSLAX46Y46*%
G04 Gerber Fmt 4.6, Leading zero omitted, Abs format (unit mm)*
G04 Created by KiCad (PCBNEW 10.0.6) date 2026-09-13 11:24:29*
%MOMM*%
%LPD*%
G01*
G04 APERTURE LIST*
G04 Aperture macros list*
%AMRoundRect*
0 Rectangle with rounded corners*
0 $1 Rounding radius*
0 $2 $3 $4 $5 $6 $7 $8 $9 X,Y pos of 4 corners*
0 Add a 4 corners polygon primitive as box body*
4,1,4,$2,$3,$4,$5,$6,$7,$8,$9,$2,$3,0*
0 Add four circle primitives for the rounded corners*
1,1,$1+$1,$2,$3*
1,1,$1+$1,$4,$5*
1,1,$1+$1,$6,$7*
1,1,$1+$1,$8,$9*
0 Add four rect primitives between the rounded corners*
20,1,$1+$1,$2,$3,$4,$5,0*
20,1,$1+$1,$4,$5,$6,$7,0*
20,1,$1+$1,$6,$7,$8,$9,0*
20,1,$1+$1,$8,$9,$2,$3,0*%
G04 Aperture macros list end*
%ADD10RoundRect,0.250000X0.475000X-0.250000X0.475000X0.250000X-0.475000X0.250000X-0.475000X-0.250000X0*%
%ADD11RoundRect,0.150000X-0.150000X-0.625000X0.150000X-0.625000X0.150000X0.625000X-0.150000X0.625000X0*%
%ADD12RoundRect,0.250000X-0.350000X-0.650000X0.350000X-0.650000X0.350000X0.650000X-0.350000X0.650000X0*%
%ADD13R,1.700000X1.700000*%
%ADD14C,1.700000*%
%ADD15RoundRect,0.225000X-0.225000X-0.250000X0.225000X-0.250000X0.225000X0.250000X-0.225000X0.250000X0*%
%ADD16RoundRect,0.250000X0.650000X-0.325000X0.650000X0.325000X-0.650000X0.325000X-0.650000X-0.325000X0*%
%ADD17RoundRect,0.200000X0.275000X-0.200000X0.275000X0.200000X-0.275000X0.200000X-0.275000X-0.200000X0*%
%ADD18C,2.600000*%
%ADD19C,3.800000*%
%ADD20R,3.300000X3.300000*%
%ADD21R,1.500000X0.450000*%
%ADD22RoundRect,0.225000X-0.250000X0.225000X-0.250000X-0.225000X0.250000X-0.225000X0.250000X0.225000X0*%
%ADD23R,1.520000X1.520000*%
%ADD24C,1.520000*%
%ADD25R,2.350000X3.500000*%
%ADD26RoundRect,0.250000X1.000000X0.900000X-1.000000X0.900000X-1.000000X-0.900000X1.000000X-0.900000X0*%
%ADD27RoundRect,0.200000X-0.200000X-0.275000X0.200000X-0.275000X0.200000X0.275000X-0.200000X0.275000X0*%
%ADD28RoundRect,0.150000X-0.587500X-0.150000X0.587500X-0.150000X0.587500X0.150000X-0.587500X0.150000X0*%
%ADD29RoundRect,0.150000X-0.825000X-0.150000X0.825000X-0.150000X0.825000X0.150000X-0.825000X0.150000X0*%
%ADD30R,2.500000X5.100000*%
%ADD31C,17.800000*%
%ADD32RoundRect,0.250000X-1.000000X-0.900000X1.000000X-0.900000X1.000000X0.900000X-1.000000X0.900000X0*%
%ADD33R,1.800000X1.000000*%
%ADD34RoundRect,0.250000X0.650000X-1.000000X0.650000X1.000000X-0.650000X1.000000X-0.650000X-1.000000X0*%
%ADD35RoundRect,0.375000X0.625000X0.375000X-0.625000X0.375000X-0.625000X-0.375000X0.625000X-0.375000X0*%
%ADD36RoundRect,0.500000X0.500000X1.400000X-0.500000X1.400000X-0.500000X-1.400000X0.500000X-1.400000X0*%
%ADD37RoundRect,0.150000X-0.512500X-0.150000X0.512500X-0.150000X0.512500X0.150000X-0.512500X0.150000X0*%
G04 APERTURE END LIST*
D10*
%TO.C,C12*%
X74543900Y8829400D03*
X74543900Y10729400D03*
%TD*%
D11*
%TO.C,J4*%
X40043900Y5779400D03*
X41043900Y5779400D03*
D12*
X38743900Y1904400D03*
X42343900Y1904400D03*
%TD*%
D13*
%TO.C,J6*%
X94933900Y41509400D03*
D14*
X92393900Y41509400D03*
X89853900Y41509400D03*
X87313900Y41509400D03*
X84773900Y41509400D03*
X82233900Y41509400D03*
X79693900Y41509400D03*
X77153900Y41509400D03*
X74613900Y41509400D03*
X72073900Y41509400D03*
X69533900Y41509400D03*
X66993900Y41509400D03*
X64453900Y41509400D03*
X61913900Y41509400D03*
X59373900Y41509400D03*
X56833900Y41509400D03*
X54293900Y41509400D03*
X51753900Y41509400D03*
X49213900Y41509400D03*
X46673900Y41509400D03*
X44133900Y41509400D03*
X41593900Y41509400D03*
%TD*%
D15*
%TO.C,C3*%
X84768900Y24779400D03*
X86318900Y24779400D03*
%TD*%
D16*
%TO.C,C17*%
X35543900Y31304400D03*
X35543900Y34254400D03*
%TD*%
D17*
%TO.C,R9*%
X41543900Y28954400D03*
X41543900Y30604400D03*
%TD*%
D18*
%TO.C,H2*%
X99000000Y14500000D03*
D19*
X99000000Y14500000D03*
%TD*%
D20*
%TO.C,U6*%
X47543900Y31779400D03*
D21*
X44643900Y34054400D03*
X44643900Y33404400D03*
X44643900Y32754399D03*
X44643900Y32104399D03*
X44643900Y31454400D03*
X44643900Y30804400D03*
X44643900Y30154400D03*
X44643900Y29504400D03*
X50443900Y29504400D03*
X50443900Y30154400D03*
X50443900Y30804400D03*
X50443900Y31454400D03*
X50443900Y32104399D03*
X50443900Y32754399D03*
X50443900Y33404400D03*
X50443900Y34054400D03*
%TD*%
D22*
%TO.C,C5*%
X65543900Y31554400D03*
X65543900Y30004400D03*
%TD*%
D23*
%TO.C,J1*%
X30543900Y16779400D03*
D24*
X27543900Y16779400D03*
%TD*%
D15*
%TO.C,C19*%
X77768900Y37279400D03*
X79318900Y37279400D03*
%TD*%
D16*
%TO.C,C9*%
X53543900Y8304400D03*
X53543900Y11254400D03*
%TD*%
D17*
%TO.C,R7*%
X40543900Y34954400D03*
X40543900Y36604400D03*
%TD*%
D22*
%TO.C,C11*%
X61843900Y11554400D03*
X61843900Y10004400D03*
%TD*%
D13*
%TO.C,J7*%
X94933900Y18649400D03*
D14*
X92393900Y18649400D03*
X89853900Y18649400D03*
X87313900Y18649400D03*
X84773900Y18649400D03*
X82233900Y18649400D03*
X79693900Y18649400D03*
X77153900Y18649400D03*
X74613900Y18649400D03*
X72073900Y18649400D03*
X69533900Y18649400D03*
X66993900Y18649400D03*
X64453900Y18649400D03*
X61913900Y18649400D03*
X59373900Y18649400D03*
X56833900Y18649400D03*
X54293900Y18649400D03*
X51753900Y18649400D03*
X49213900Y18649400D03*
X46673900Y18649400D03*
X44133900Y18649400D03*
X41593900Y18649400D03*
%TD*%
D25*
%TO.C,L1*%
X64518900Y9779400D03*
X70568900Y9779400D03*
%TD*%
D15*
%TO.C,C6*%
X72768900Y27779400D03*
X74318900Y27779400D03*
%TD*%
D13*
%TO.C,J8*%
X83543900Y7779400D03*
D14*
X86083900Y7779400D03*
%TD*%
D10*
%TO.C,C13*%
X78543900Y8829400D03*
X78543900Y10729400D03*
%TD*%
D11*
%TO.C,J5*%
X47043900Y5779400D03*
X48043900Y5779400D03*
X49043900Y5779400D03*
X50043900Y5779400D03*
D12*
X45743900Y1904400D03*
X51343900Y1904400D03*
%TD*%
D15*
%TO.C,C18*%
X76768900Y34279400D03*
X78318900Y34279400D03*
%TD*%
D26*
%TO.C,D4*%
X18693900Y10779400D03*
X14393900Y10779400D03*
%TD*%
D27*
%TO.C,R10*%
X52718900Y27779400D03*
X54368900Y27779400D03*
%TD*%
D28*
%TO.C,D6*%
X88606400Y24729400D03*
X88606400Y22829400D03*
X90481400Y23779400D03*
%TD*%
D17*
%TO.C,R6*%
X78543900Y22954400D03*
X78543900Y24604400D03*
%TD*%
D29*
%TO.C,U3*%
X82068900Y32684400D03*
X82068900Y31414400D03*
X82068900Y30144400D03*
X82068900Y28874400D03*
X87018900Y28874400D03*
X87018900Y30144400D03*
X87018900Y31414400D03*
X87018900Y32684400D03*
%TD*%
D16*
%TO.C,C14*%
X35543900Y36304400D03*
X35543900Y39254400D03*
%TD*%
D30*
%TO.C,BT1*%
X26993900Y31779400D03*
X4093900Y31779400D03*
D31*
X15543900Y31779400D03*
%TD*%
D27*
%TO.C,R3*%
X67718900Y23779400D03*
X69368900Y23779400D03*
%TD*%
D32*
%TO.C,D2*%
X14393900Y16779400D03*
X18693900Y16779400D03*
%TD*%
D17*
%TO.C,R8*%
X40543900Y31954400D03*
X40543900Y33604400D03*
%TD*%
D33*
%TO.C,X1*%
X77543900Y32029400D03*
X77543900Y29529400D03*
%TD*%
D28*
%TO.C,D5*%
X84606400Y38729400D03*
X84606400Y36829400D03*
X86481400Y37779400D03*
%TD*%
D15*
%TO.C,C16*%
X52768900Y30779400D03*
X54318900Y30779400D03*
%TD*%
D34*
%TO.C,D3*%
X59543900Y33779400D03*
X59543900Y37779400D03*
%TD*%
D11*
%TO.C,J3*%
X11043900Y5779400D03*
X12043900Y5779400D03*
X13043900Y5779400D03*
X14043900Y5779400D03*
X15043900Y5779400D03*
X16043900Y5779400D03*
X17043900Y5779400D03*
X18043900Y5779400D03*
D12*
X9743900Y1904400D03*
X19343900Y1904400D03*
%TD*%
D10*
%TO.C,C15*%
X59543900Y28829400D03*
X59543900Y30729400D03*
%TD*%
D35*
%TO.C,U7*%
X74693900Y31479400D03*
X74693900Y33779400D03*
D36*
X68393900Y33779400D03*
D35*
X74693900Y36079400D03*
%TD*%
D27*
%TO.C,R4*%
X65718900Y25779400D03*
X67368900Y25779400D03*
%TD*%
D37*
%TO.C,U5*%
X57406400Y10729400D03*
X57406400Y9779400D03*
X57406400Y8829400D03*
X59681400Y8829400D03*
X59681400Y9779400D03*
X59681400Y10729400D03*
%TD*%
D15*
%TO.C,C10*%
X54768900Y13779400D03*
X56318900Y13779400D03*
%TD*%
D18*
%TO.C,H1*%
X9000000Y14500000D03*
D19*
X9000000Y14500000D03*
%TD*%
M02*
