%TF.GenerationSoftware,KiCad,Pcbnew,10.0.6*%
%TF.CreationDate,2026-09-13T12:04:02-08:00*%
%TF.ProjectId,RykerConnect,52796b65-7243-46f6-9e6e-6563742e6b69,REV03*%
%TF.SameCoordinates,Original*%
%TF.FileFunction,Copper,L2,Bot*%
%TF.FilePolarity,Positive*%
%FSLAX46Y46*%
G04 Gerber Fmt 4.6, Leading zero omitted, Abs format (unit mm)*
G04 Created by KiCad (PCBNEW 10.0.6) date 2026-09-13 12:04:02*
%MOMM*%
%LPD*%
G01*
G04 APERTURE LIST*
%TA.AperFunction,ComponentPad*%
%ADD10R,1.700000X1.700000*%
%TD*%
%TA.AperFunction,ComponentPad*%
%ADD11C,1.700000*%
%TD*%
%TA.AperFunction,ComponentPad*%
%ADD12C,2.600000*%
%TD*%
%TA.AperFunction,ConnectorPad*%
%ADD13C,3.800000*%
%TD*%
%TA.AperFunction,ComponentPad*%
%ADD14R,1.520000X1.520000*%
%TD*%
%TA.AperFunction,ComponentPad*%
%ADD15C,1.520000*%
%TD*%
%TA.AperFunction,ViaPad*%
%ADD16C,0.650000*%
%TD*%
%TA.AperFunction,ViaPad*%
%ADD17C,0.500000*%
%TD*%
%TA.AperFunction,Conductor*%
%ADD18C,0.500000*%
%TD*%
%TA.AperFunction,Conductor*%
%ADD19C,0.250000*%
%TD*%
G04 APERTURE END LIST*
D10*
%TO.P,J6,1,NC_1*%
%TO.N,unconnected-(J6-NC_1-Pad1)*%
X94933900Y41509400D03*
D11*
%TO.P,J6,2,NC_2*%
%TO.N,unconnected-(J6-NC_2-Pad2)*%
X92393900Y41509400D03*
%TO.P,J6,3,NC_3*%
%TO.N,unconnected-(J6-NC_3-Pad3)*%
X89853900Y41509400D03*
%TO.P,J6,4,NC_4*%
%TO.N,unconnected-(J6-NC_4-Pad4)*%
X87313900Y41509400D03*
%TO.P,J6,5,NC_5*%
%TO.N,unconnected-(J6-NC_5-Pad5)*%
X84773900Y41509400D03*
%TO.P,J6,6,NC_6*%
%TO.N,unconnected-(J6-NC_6-Pad6)*%
X82233900Y41509400D03*
%TO.P,J6,7,GPIO7*%
%TO.N,GPIO7*%
X79693900Y41509400D03*
%TO.P,J6,8,DSP_RES*%
%TO.N,DSP_RES*%
X77153900Y41509400D03*
%TO.P,J6,9,NC_9*%
%TO.N,unconnected-(J6-NC_9-Pad9)*%
X74613900Y41509400D03*
%TO.P,J6,10,NC_10*%
%TO.N,unconnected-(J6-NC_10-Pad10)*%
X72073900Y41509400D03*
%TO.P,J6,11,SCL*%
%TO.N,SCL*%
X69533900Y41509400D03*
%TO.P,J6,12,SDA*%
%TO.N,SDA*%
X66993900Y41509400D03*
%TO.P,J6,13,NC_13*%
%TO.N,unconnected-(J6-NC_13-Pad13)*%
X64453900Y41509400D03*
%TO.P,J6,14,NC_14*%
%TO.N,unconnected-(J6-NC_14-Pad14)*%
X61913900Y41509400D03*
%TO.P,J6,15,NC_15*%
%TO.N,unconnected-(J6-NC_15-Pad15)*%
X59373900Y41509400D03*
%TO.P,J6,16,CS2*%
%TO.N,CS2*%
X56833900Y41509400D03*
%TO.P,J6,17,SPI_MOSI*%
%TO.N,SPI_MOSI*%
X54293900Y41509400D03*
%TO.P,J6,18,SPI_SCK*%
%TO.N,SPI_SCK*%
X51753900Y41509400D03*
%TO.P,J6,19,DSP_DC*%
%TO.N,DSP_DC*%
X49213900Y41509400D03*
%TO.P,J6,20,CS1*%
%TO.N,CS1*%
X46673900Y41509400D03*
%TO.P,J6,21,+5V_MODULE*%
%TO.N,+5V_MODULE*%
X44133900Y41509400D03*
%TO.P,J6,22,GND*%
%TO.N,GND*%
X41593900Y41509400D03*
%TD*%
D12*
%TO.P,H2,1,1_1*%
%TO.N,GND*%
X99000000Y14500000D03*
D13*
X99000000Y14500000D03*
%TD*%
D14*
%TO.P,J1,1,Pin_1*%
%TO.N,+12V*%
X30543900Y16779400D03*
D15*
%TO.P,J1,2,Pin_2*%
%TO.N,GND*%
X27543900Y16779400D03*
%TD*%
D10*
%TO.P,J7,1,GND*%
%TO.N,GND*%
X94933900Y18649400D03*
D11*
%TO.P,J7,2,NC_2*%
%TO.N,unconnected-(J7-NC_2-Pad2)*%
X92393900Y18649400D03*
%TO.P,J7,3,NC_3*%
%TO.N,unconnected-(J7-NC_3-Pad3)*%
X89853900Y18649400D03*
%TO.P,J7,4,NC_4*%
%TO.N,unconnected-(J7-NC_4-Pad4)*%
X87313900Y18649400D03*
%TO.P,J7,5,NC_5*%
%TO.N,unconnected-(J7-NC_5-Pad5)*%
X84773900Y18649400D03*
%TO.P,J7,6,NC_6*%
%TO.N,unconnected-(J7-NC_6-Pad6)*%
X82233900Y18649400D03*
%TO.P,J7,7,NC_7*%
%TO.N,unconnected-(J7-NC_7-Pad7)*%
X79693900Y18649400D03*
%TO.P,J7,8,NC_8*%
%TO.N,unconnected-(J7-NC_8-Pad8)*%
X77153900Y18649400D03*
%TO.P,J7,9,NC_9*%
%TO.N,unconnected-(J7-NC_9-Pad9)*%
X74613900Y18649400D03*
%TO.P,J7,10,NC_10*%
%TO.N,unconnected-(J7-NC_10-Pad10)*%
X72073900Y18649400D03*
%TO.P,J7,11,NC_11*%
%TO.N,unconnected-(J7-NC_11-Pad11)*%
X69533900Y18649400D03*
%TO.P,J7,12,NC_12*%
%TO.N,unconnected-(J7-NC_12-Pad12)*%
X66993900Y18649400D03*
%TO.P,J7,13,NC_13*%
%TO.N,unconnected-(J7-NC_13-Pad13)*%
X64453900Y18649400D03*
%TO.P,J7,14,NC_14*%
%TO.N,unconnected-(J7-NC_14-Pad14)*%
X61913900Y18649400D03*
%TO.P,J7,15,NC_15*%
%TO.N,unconnected-(J7-NC_15-Pad15)*%
X59373900Y18649400D03*
%TO.P,J7,16,NC_16*%
%TO.N,unconnected-(J7-NC_16-Pad16)*%
X56833900Y18649400D03*
%TO.P,J7,17,NC_17*%
%TO.N,unconnected-(J7-NC_17-Pad17)*%
X54293900Y18649400D03*
%TO.P,J7,18,NC_18*%
%TO.N,unconnected-(J7-NC_18-Pad18)*%
X51753900Y18649400D03*
%TO.P,J7,19,NC_19*%
%TO.N,unconnected-(J7-NC_19-Pad19)*%
X49213900Y18649400D03*
%TO.P,J7,20,NC_20*%
%TO.N,unconnected-(J7-NC_20-Pad20)*%
X46673900Y18649400D03*
%TO.P,J7,21,GND*%
%TO.N,GND*%
X44133900Y18649400D03*
%TO.P,J7,22,GND*%
X41593900Y18649400D03*
%TD*%
D10*
%TO.P,J8,1,+5V_BUCK*%
%TO.N,+5V_BUCK*%
X83543900Y7779400D03*
D11*
%TO.P,J8,2,+5V_MODULE*%
%TO.N,+5V_MODULE*%
X86083900Y7779400D03*
%TD*%
D12*
%TO.P,H1,1,1_1*%
%TO.N,GND*%
X9000000Y14500000D03*
D13*
X9000000Y14500000D03*
%TD*%
D16*
%TO.N,GND*%
X93543900Y43779400D03*
X89543900Y21779400D03*
X43543900Y2779400D03*
X89543900Y13779400D03*
X75343900Y30679400D03*
X87343900Y24779400D03*
X61543900Y43779400D03*
X83543900Y2779400D03*
X51243900Y28579400D03*
X11543900Y43779400D03*
X3543900Y43779400D03*
X89543900Y2779400D03*
X60043900Y7779400D03*
X55543900Y43779400D03*
X34543900Y39254400D03*
X76543900Y11979400D03*
X65543900Y2779400D03*
X3543900Y13779400D03*
X58043900Y22779400D03*
X61543900Y37779400D03*
X70543900Y22579400D03*
X75543900Y27279400D03*
X61543900Y2779400D03*
X89543900Y37779400D03*
X73543900Y37779400D03*
X60543900Y30729400D03*
X55543900Y2779400D03*
X93543900Y2779400D03*
X60543900Y37979400D03*
X3543900Y37779400D03*
X89543900Y43779400D03*
X71543900Y43779400D03*
X73543900Y11979400D03*
X51043900Y16779400D03*
X93543900Y13779400D03*
X52543900Y11254400D03*
X18693900Y9079400D03*
X71543900Y2779400D03*
X33543900Y43779400D03*
X3543900Y2779400D03*
X43543900Y13779400D03*
X75543900Y2779400D03*
X83543900Y43779400D03*
X65543900Y37779400D03*
X47043900Y4279400D03*
X89543900Y25779400D03*
X75543900Y13779400D03*
X23543900Y43779400D03*
X75543900Y43779400D03*
X56318900Y14779400D03*
X65543900Y43779400D03*
X34543900Y34254400D03*
X65543900Y28979400D03*
%TO.N,+3.3V*%
X13503700Y3547800D03*
X63463900Y25432200D03*
X38536900Y8411000D03*
X48507700Y8411000D03*
D17*
%TO.N,GPIO7*%
X80911200Y25432200D03*
X45718500Y5979400D03*
%TO.N,DSP_RES*%
X42095600Y38986300D03*
D16*
X15043900Y4279400D03*
D17*
%TO.N,SCL*%
X83885700Y30314600D03*
X55985800Y5979400D03*
X70297700Y23577400D03*
%TO.N,SDA*%
X70954600Y25444900D03*
X51678000Y7587300D03*
%TO.N,CS2*%
X21088000Y5979400D03*
%TO.N,SPI_MOSI*%
X12018000Y8111800D03*
%TO.N,SPI_SCK*%
X11117200Y8411000D03*
%TO.N,DSP_DC*%
X18595300Y3822000D03*
%TO.N,CS1*%
X21801200Y6679500D03*
%TO.N,+5V_MODULE*%
X78477800Y36617600D03*
%TO.N,RTC_VDD*%
X85898200Y35158600D03*
X85898200Y23000600D03*
D16*
%TO.N,+12V*%
X39043900Y31579400D03*
X42543900Y34379400D03*
%TO.N,PROT_ILIM*%
X52243900Y26779400D03*
X51693900Y30804400D03*
%TO.N,+12V_PROTECTED*%
X53493100Y32727000D03*
D17*
X53493100Y9291100D03*
%TD*%
%TO.N,+3.3V*%
D18*
X53552500Y8411000D02*
X60643900Y15502400D01*
X60643900Y22612200D02*
X63463900Y25432200D01*
X48507700Y8411000D02*
X53552500Y8411000D01*
X60643900Y15502400D02*
X60643900Y22612200D01*
X33258500Y3132600D02*
X38536900Y8411000D01*
X13918900Y3132600D02*
X33258500Y3132600D01*
X13503700Y3547800D02*
X13918900Y3132600D01*
%TO.N,GPIO7*%
D19*
X70803900Y19024000D02*
X79061700Y27281800D01*
X80911200Y25432200D02*
X79061700Y27281800D01*
X79143900Y33279400D02*
X77922200Y33279400D01*
X79061700Y27281800D02*
X77922200Y28421200D01*
X58621900Y5428200D02*
X70803900Y17610200D01*
X46269700Y5428200D02*
X58621900Y5428200D01*
X77922200Y39737700D02*
X79693900Y41509400D01*
X70803900Y17610200D02*
X70803900Y19024000D01*
X79143900Y28421200D02*
X79143900Y33279400D01*
X77922200Y28421200D02*
X79143900Y28421200D01*
X77922200Y33279400D02*
X77922200Y39737700D01*
X45718500Y5979400D02*
X46269700Y5428200D01*
%TO.N,DSP_RES*%
X42095600Y38643400D02*
X15043900Y11591700D01*
X42095600Y38986300D02*
X42095600Y38643400D01*
X15043900Y11591700D02*
X15043900Y4279400D01*
%TO.N,SCL*%
X69533900Y41509400D02*
X70661300Y42636800D01*
X71556100Y39487200D02*
X71556100Y24835800D01*
X80822400Y40020800D02*
X83885700Y36957500D01*
X80183000Y42636800D02*
X80822400Y41997400D01*
X70661300Y42636800D02*
X80183000Y42636800D01*
X71556100Y24835800D02*
X70297700Y23577400D01*
X80822400Y41997400D02*
X80822400Y40020800D01*
X69533900Y41509400D02*
X71556100Y39487200D01*
X55985800Y5979400D02*
X68263900Y18257500D01*
X83885700Y36957500D02*
X83885700Y30314600D01*
X68263900Y18257500D02*
X68263900Y21543600D01*
X68263900Y21543600D02*
X70297700Y23577400D01*
%TO.N,SDA*%
X51678000Y7587300D02*
X55027700Y7587300D01*
X55027700Y7587300D02*
X65723900Y18283500D01*
X65723900Y18283500D02*
X65723900Y20214200D01*
X66993900Y29405600D02*
X66993900Y41509400D01*
X70954600Y25444900D02*
X66993900Y29405600D01*
X65723900Y20214200D02*
X70954600Y25444900D01*
%TO.N,CS2*%
X35982100Y16578900D02*
X35982100Y20657600D01*
X25382600Y5979400D02*
X35982100Y16578900D01*
X21088000Y5979400D02*
X25382600Y5979400D01*
X35982100Y20657600D02*
X56833900Y41509400D01*
%TO.N,SPI_MOSI*%
X10562400Y8742700D02*
X10562400Y8220600D01*
X36129100Y40908000D02*
X36129100Y34309400D01*
X38729700Y43508600D02*
X36129100Y40908000D01*
X52294700Y43508600D02*
X38729700Y43508600D01*
X11781400Y7875200D02*
X12018000Y8111800D01*
X36129100Y34309400D02*
X10562400Y8742700D01*
X54293900Y41509400D02*
X52294700Y43508600D01*
X10907800Y7875200D02*
X11781400Y7875200D01*
X10562400Y8220600D02*
X10907800Y7875200D01*
%TO.N,SPI_SCK*%
X50163000Y43100300D02*
X44079300Y43100300D01*
X51753900Y41509400D02*
X50163000Y43100300D01*
X41568900Y38862700D02*
X11117200Y8411000D01*
X44079300Y43100300D02*
X42935900Y41956900D01*
X42935900Y41956900D02*
X42935900Y40571400D01*
X42935900Y40571400D02*
X41568900Y39204400D01*
X41568900Y39204400D02*
X41568900Y38862700D01*
%TO.N,DSP_DC*%
X20160100Y15561500D02*
X45403900Y40805300D01*
X45403900Y40805300D02*
X45403900Y41888200D01*
X46171400Y42655700D02*
X48067600Y42655700D01*
X48067600Y42655700D02*
X49213900Y41509400D01*
X45403900Y41888200D02*
X46171400Y42655700D01*
X18595300Y3822000D02*
X20160100Y5386800D01*
X20160100Y5386800D02*
X20160100Y15561500D01*
%TO.N,CS1*%
X46673900Y41507200D02*
X46673900Y41509400D01*
X21801200Y16634500D02*
X46673900Y41507200D01*
X21801200Y6679500D02*
X21801200Y16634500D01*
%TO.N,+5V_MODULE*%
D18*
X83503900Y10359400D02*
X86083900Y7779400D01*
X83503900Y23676000D02*
X83503900Y10359400D01*
X78477800Y36617600D02*
X81563000Y33532400D01*
X81563000Y25616900D02*
X83503900Y23676000D01*
X81563000Y33532400D02*
X81563000Y25616900D01*
%TO.N,RTC_VDD*%
D19*
X85898200Y35158600D02*
X85325500Y34585900D01*
X85325500Y34585900D02*
X85325500Y23573300D01*
X85325500Y23573300D02*
X85898200Y23000600D01*
%TO.N,+12V*%
D18*
X42543900Y34379400D02*
X39043900Y31579400D01*
X30543900Y23415400D02*
X38707899Y31579400D01*
X38707899Y31579400D02*
X39043900Y31579400D01*
X30543900Y16779400D02*
X30543900Y23415400D01*
%TO.N,PROT_ILIM*%
D19*
X51693900Y30804400D02*
X52243900Y26779400D01*
%TO.N,+12V_PROTECTED*%
D18*
X53493100Y9291100D02*
X53493100Y11530200D01*
X53493100Y11530200D02*
X53023900Y11999400D01*
X53023900Y11999400D02*
X53023900Y32257800D01*
X53023900Y32257800D02*
X53493100Y32727000D01*
%TD*%
%TA.AperFunction,Conductor*%
%TO.N,GND*%
G36*
X19755485Y15740445D02*
G01*
X19811418Y15698573D01*
X19835835Y15633109D01*
X19835091Y15608080D01*
X19834600Y15604350D01*
X19834600Y5572989D01*
X19814915Y5505950D01*
X19798281Y5485308D01*
X18621792Y4308819D01*
X18560469Y4275334D01*
X18544049Y4273569D01*
X18544051Y4273561D01*
X18535994Y4272501D01*
X18501953Y4263380D01*
X18421414Y4241799D01*
X18421412Y4241799D01*
X18421412Y4241798D01*
X18318687Y4182489D01*
X18318684Y4182487D01*
X18234813Y4098616D01*
X18234811Y4098613D01*
X18199520Y4037487D01*
X18175501Y3995886D01*
X18144800Y3881309D01*
X18144800Y3881307D01*
X18144800Y3762690D01*
X18151096Y3739195D01*
X18149434Y3669345D01*
X18110273Y3611482D01*
X18046044Y3583977D01*
X18031322Y3583100D01*
X15351648Y3583100D01*
X15284609Y3602785D01*
X15238854Y3655589D01*
X15228910Y3724747D01*
X15257935Y3788303D01*
X15289648Y3814487D01*
X15348546Y3848492D01*
X15366565Y3858895D01*
X15464405Y3956735D01*
X15533588Y4076564D01*
X15569400Y4210217D01*
X15569400Y4348583D01*
X15533588Y4482236D01*
X15464405Y4602065D01*
X15405719Y4660751D01*
X15372234Y4722074D01*
X15369400Y4748432D01*
X15369400Y11405511D01*
X15389085Y11472550D01*
X15405719Y11493192D01*
X17471723Y13559196D01*
X19624472Y15711946D01*
X19685793Y15745429D01*
X19755485Y15740445D01*
G37*
%TD.AperFunction*%
%TA.AperFunction,Conductor*%
G36*
X43469451Y43163415D02*
G01*
X43515206Y43110611D01*
X43525150Y43041453D01*
X43496125Y42977897D01*
X43490093Y42971419D01*
X42675437Y42156765D01*
X42675433Y42156759D01*
X42632581Y42082539D01*
X42632582Y42082538D01*
X42610400Y41999753D01*
X42610400Y40757589D01*
X42590715Y40690550D01*
X42574081Y40669908D01*
X41308437Y39404265D01*
X41308433Y39404259D01*
X41265581Y39330038D01*
X41265580Y39330038D01*
X41254141Y39287340D01*
X41254141Y39287339D01*
X41243400Y39247254D01*
X41243400Y39048890D01*
X41223715Y38981851D01*
X41207081Y38961209D01*
X36666281Y34420409D01*
X36604958Y34386924D01*
X36535266Y34391908D01*
X36479333Y34433780D01*
X36454916Y34499244D01*
X36454600Y34508090D01*
X36454600Y40721812D01*
X36474285Y40788851D01*
X36490919Y40809493D01*
X36719388Y41037962D01*
X36958612Y41277187D01*
X37019933Y41310670D01*
X37089624Y41305686D01*
X37145558Y41263815D01*
X37169975Y41198350D01*
X37168764Y41170107D01*
X37153400Y41073101D01*
X37153400Y40885701D01*
X37179358Y40721812D01*
X37182714Y40700624D01*
X37240621Y40522407D01*
X37240622Y40522404D01*
X37240623Y40522403D01*
X37246751Y40510375D01*
X37317491Y40371539D01*
X37325694Y40355441D01*
X37325695Y40355438D01*
X37371487Y40292412D01*
X37435838Y40203841D01*
X37568341Y40071338D01*
X37653925Y40009157D01*
X37719937Y39961196D01*
X37719938Y39961196D01*
X37719942Y39961193D01*
X37886907Y39876121D01*
X38065124Y39818214D01*
X38157665Y39803557D01*
X38250201Y39788900D01*
X38250206Y39788900D01*
X38437599Y39788900D01*
X38521722Y39802225D01*
X38622676Y39818214D01*
X38800893Y39876121D01*
X38967858Y39961193D01*
X39119459Y40071338D01*
X39251962Y40203841D01*
X39362107Y40355442D01*
X39447179Y40522407D01*
X39505086Y40700624D01*
X39525065Y40826768D01*
X39534400Y40885701D01*
X39534400Y41073100D01*
X39513827Y41202988D01*
X39505086Y41258176D01*
X39447179Y41436393D01*
X39362107Y41603358D01*
X39362104Y41603362D01*
X39362104Y41603363D01*
X39330130Y41647371D01*
X39251962Y41754959D01*
X39119459Y41887462D01*
X39023347Y41957292D01*
X38967862Y41997605D01*
X38967859Y41997606D01*
X38967860Y41997606D01*
X38967858Y41997607D01*
X38800893Y42082679D01*
X38622676Y42140586D01*
X38622670Y42140587D01*
X38437599Y42169900D01*
X38437594Y42169900D01*
X38250206Y42169900D01*
X38250200Y42169900D01*
X38153193Y42154536D01*
X38083900Y42163491D01*
X38030448Y42208487D01*
X38009809Y42275239D01*
X38028534Y42342552D01*
X38046111Y42364686D01*
X38828207Y43146781D01*
X38889530Y43180266D01*
X38915888Y43183100D01*
X43402412Y43183100D01*
X43469451Y43163415D01*
G37*
%TD.AperFunction*%
%TA.AperFunction,Conductor*%
G36*
X68633368Y18064130D02*
G01*
X68689302Y18022259D01*
X68693139Y18016837D01*
X68717921Y17979747D01*
X68717925Y17979742D01*
X68864242Y17833425D01*
X68864245Y17833423D01*
X69036302Y17718459D01*
X69227480Y17639270D01*
X69393524Y17606242D01*
X69430430Y17598901D01*
X69430434Y17598900D01*
X69430435Y17598900D01*
X69637366Y17598900D01*
X69637367Y17598901D01*
X69840320Y17639270D01*
X70031498Y17718459D01*
X70203555Y17833423D01*
X70234032Y17863900D01*
X70266719Y17896586D01*
X70328042Y17930071D01*
X70397734Y17925087D01*
X70453667Y17883215D01*
X70478084Y17817751D01*
X70478400Y17808905D01*
X70478400Y17796389D01*
X70458715Y17729350D01*
X70442081Y17708708D01*
X58523392Y5790019D01*
X58462069Y5756534D01*
X58435711Y5753700D01*
X56553315Y5753700D01*
X56486276Y5773385D01*
X56440521Y5826189D01*
X56430577Y5895347D01*
X56433541Y5909795D01*
X56436300Y5920091D01*
X56436300Y5920098D01*
X56437361Y5928151D01*
X56439149Y5927916D01*
X56455985Y5985252D01*
X56472614Y6005889D01*
X68453552Y17986828D01*
X68453557Y17986831D01*
X68463760Y17997035D01*
X68463762Y17997035D01*
X68502356Y18035630D01*
X68563677Y18069114D01*
X68633368Y18064130D01*
G37*
%TD.AperFunction*%
%TA.AperFunction,Conductor*%
G36*
X71181338Y42291615D02*
G01*
X71227093Y42238811D01*
X71237037Y42169653D01*
X71217401Y42118410D01*
X71142959Y42007000D01*
X71063770Y41815821D01*
X71063768Y41815813D01*
X71023400Y41612870D01*
X71023400Y41405931D01*
X71063768Y41202988D01*
X71063770Y41202980D01*
X71129399Y41044537D01*
X71142959Y41011802D01*
X71174041Y40965284D01*
X71257924Y40839743D01*
X71404242Y40693425D01*
X71404245Y40693423D01*
X71576302Y40578459D01*
X71767480Y40499270D01*
X71953508Y40462267D01*
X71970430Y40458901D01*
X71970434Y40458900D01*
X71970435Y40458900D01*
X72177366Y40458900D01*
X72177367Y40458901D01*
X72380320Y40499270D01*
X72571498Y40578459D01*
X72743555Y40693423D01*
X72889877Y40839745D01*
X73004841Y41011802D01*
X73084030Y41202980D01*
X73124400Y41405935D01*
X73124400Y41612865D01*
X73084030Y41815820D01*
X73004841Y42006998D01*
X73000270Y42013839D01*
X72930399Y42118410D01*
X72909521Y42185087D01*
X72928006Y42252467D01*
X72979985Y42299157D01*
X73033501Y42311300D01*
X73654299Y42311300D01*
X73721338Y42291615D01*
X73767093Y42238811D01*
X73777037Y42169653D01*
X73757401Y42118410D01*
X73682959Y42007000D01*
X73603770Y41815821D01*
X73603768Y41815813D01*
X73563400Y41612870D01*
X73563400Y41405931D01*
X73603768Y41202988D01*
X73603770Y41202980D01*
X73669399Y41044537D01*
X73682959Y41011802D01*
X73714041Y40965284D01*
X73797924Y40839743D01*
X73944242Y40693425D01*
X73944245Y40693423D01*
X74116302Y40578459D01*
X74307480Y40499270D01*
X74493508Y40462267D01*
X74510430Y40458901D01*
X74510434Y40458900D01*
X74510435Y40458900D01*
X74717366Y40458900D01*
X74717367Y40458901D01*
X74920320Y40499270D01*
X75111498Y40578459D01*
X75283555Y40693423D01*
X75429877Y40839745D01*
X75544841Y41011802D01*
X75624030Y41202980D01*
X75664400Y41405935D01*
X75664400Y41612865D01*
X75624030Y41815820D01*
X75544841Y42006998D01*
X75540270Y42013839D01*
X75470399Y42118410D01*
X75449521Y42185087D01*
X75468006Y42252467D01*
X75519985Y42299157D01*
X75573501Y42311300D01*
X76194299Y42311300D01*
X76261338Y42291615D01*
X76307093Y42238811D01*
X76317037Y42169653D01*
X76297401Y42118410D01*
X76222959Y42007000D01*
X76143770Y41815821D01*
X76143768Y41815813D01*
X76103400Y41612870D01*
X76103400Y41405931D01*
X76143768Y41202988D01*
X76143770Y41202980D01*
X76209399Y41044537D01*
X76222959Y41011802D01*
X76254041Y40965284D01*
X76337924Y40839743D01*
X76484242Y40693425D01*
X76484245Y40693423D01*
X76656302Y40578459D01*
X76847480Y40499270D01*
X77033508Y40462267D01*
X77050430Y40458901D01*
X77050434Y40458900D01*
X77050435Y40458900D01*
X77257366Y40458900D01*
X77257367Y40458901D01*
X77460320Y40499270D01*
X77651498Y40578459D01*
X77823555Y40693423D01*
X77969877Y40839745D01*
X78084841Y41011802D01*
X78164030Y41202980D01*
X78204400Y41405935D01*
X78204400Y41612865D01*
X78164030Y41815820D01*
X78084841Y42006998D01*
X78080270Y42013839D01*
X78010399Y42118410D01*
X77989521Y42185087D01*
X78008006Y42252467D01*
X78059985Y42299157D01*
X78113501Y42311300D01*
X78734299Y42311300D01*
X78801338Y42291615D01*
X78847093Y42238811D01*
X78857037Y42169653D01*
X78837401Y42118410D01*
X78762959Y42007000D01*
X78683770Y41815821D01*
X78683768Y41815813D01*
X78643400Y41612870D01*
X78643400Y41405931D01*
X78683768Y41202988D01*
X78683770Y41202980D01*
X78697386Y41170107D01*
X78723348Y41107431D01*
X78730817Y41037962D01*
X78699542Y40975482D01*
X78696468Y40972297D01*
X77661737Y39937565D01*
X77661733Y39937559D01*
X77618881Y39863339D01*
X77618882Y39863338D01*
X77596700Y39780553D01*
X77596700Y33322253D01*
X77596700Y33236547D01*
X77602022Y33216687D01*
X77618882Y33153763D01*
X77618885Y33153756D01*
X77661730Y33079545D01*
X77661734Y33079540D01*
X77661735Y33079538D01*
X77722338Y33018935D01*
X77722340Y33018934D01*
X77722344Y33018931D01*
X77796555Y32976086D01*
X77796562Y32976082D01*
X77879347Y32953900D01*
X78694400Y32953900D01*
X78761439Y32934215D01*
X78807194Y32881411D01*
X78818400Y32829900D01*
X78818400Y28870700D01*
X78798715Y28803661D01*
X78745911Y28757906D01*
X78694400Y28746700D01*
X77973690Y28746700D01*
X77973661Y28746702D01*
X77965040Y28746702D01*
X77965039Y28746702D01*
X77922190Y28746701D01*
X77922185Y28746700D01*
X77879344Y28746700D01*
X77879331Y28746698D01*
X77879318Y28746695D01*
X77843089Y28736986D01*
X77843088Y28736986D01*
X77796555Y28724517D01*
X77763879Y28705650D01*
X77763878Y28705649D01*
X77722340Y28681667D01*
X77722330Y28681660D01*
X77722319Y28681650D01*
X77698088Y28657416D01*
X77661730Y28621058D01*
X77661727Y28621052D01*
X77642332Y28587456D01*
X77642331Y28587455D01*
X77618881Y28546838D01*
X77618875Y28546821D01*
X77608584Y28508406D01*
X77608583Y28508403D01*
X77600819Y28479429D01*
X77600819Y28479428D01*
X77596700Y28464053D01*
X77596700Y28464047D01*
X77596698Y28464039D01*
X77596700Y28421186D01*
X77596700Y28378347D01*
X77596701Y28378340D01*
X77596702Y28378333D01*
X77606415Y28342089D01*
X77618882Y28295562D01*
X77618886Y28295555D01*
X77618888Y28295548D01*
X77637749Y28262882D01*
X77637750Y28262879D01*
X77661735Y28221336D01*
X77661743Y28221328D01*
X77661744Y28221327D01*
X77684603Y28198470D01*
X77684607Y28198466D01*
X77728166Y28154907D01*
X77728193Y28154883D01*
X77937758Y27945337D01*
X78513674Y27369471D01*
X78547162Y27308150D01*
X78542181Y27238459D01*
X78513678Y27194106D01*
X70572374Y19252802D01*
X70511051Y19219317D01*
X70441359Y19224301D01*
X70385426Y19266173D01*
X70381591Y19271592D01*
X70349877Y19319056D01*
X70203557Y19465376D01*
X70106535Y19530203D01*
X70031498Y19580341D01*
X69991422Y19596941D01*
X69840320Y19659530D01*
X69840312Y19659532D01*
X69637369Y19699900D01*
X69637365Y19699900D01*
X69430435Y19699900D01*
X69430430Y19699900D01*
X69227487Y19659532D01*
X69227479Y19659530D01*
X69036303Y19580342D01*
X68864242Y19465376D01*
X68864241Y19465375D01*
X68801081Y19402214D01*
X68739758Y19368729D01*
X68670066Y19373713D01*
X68614133Y19415585D01*
X68589716Y19481049D01*
X68589400Y19489895D01*
X68589400Y21357412D01*
X68609085Y21424451D01*
X68625719Y21445093D01*
X70271207Y23090581D01*
X70332530Y23124066D01*
X70348949Y23125832D01*
X70348949Y23125839D01*
X70357005Y23126900D01*
X70357009Y23126900D01*
X70471586Y23157601D01*
X70574313Y23216911D01*
X70658189Y23300787D01*
X70717499Y23403514D01*
X70748200Y23518091D01*
X70748200Y23518095D01*
X70749261Y23526151D01*
X70751049Y23525916D01*
X70767885Y23583250D01*
X70784519Y23603892D01*
X71208527Y24027900D01*
X71816565Y24635938D01*
X71859417Y24710161D01*
X71859418Y24710162D01*
X71881600Y24792947D01*
X71881600Y29079400D01*
X76593900Y29079400D01*
X78493900Y29079400D01*
X78493900Y32479400D01*
X76593900Y32479400D01*
X76593900Y29079400D01*
X71881600Y29079400D01*
X71881600Y39434345D01*
X71881601Y39434358D01*
X71881601Y39530052D01*
X71880579Y39533865D01*
X71859418Y39612838D01*
X71859417Y39612839D01*
X71859417Y39612841D01*
X71859416Y39612842D01*
X71816567Y39687059D01*
X71816566Y39687060D01*
X71816565Y39687062D01*
X71755962Y39747665D01*
X71755961Y39747666D01*
X71751631Y39751996D01*
X71751620Y39752006D01*
X70531331Y40972296D01*
X70497846Y41033619D01*
X70502830Y41103311D01*
X70504451Y41107430D01*
X70544030Y41202980D01*
X70584400Y41405935D01*
X70584400Y41612865D01*
X70544030Y41815820D01*
X70504450Y41911372D01*
X70496982Y41980840D01*
X70528257Y42043320D01*
X70531331Y42046505D01*
X70639363Y42154536D01*
X70759808Y42274981D01*
X70821131Y42308466D01*
X70847489Y42311300D01*
X71114299Y42311300D01*
X71181338Y42291615D01*
G37*
%TD.AperFunction*%
%TA.AperFunction,Conductor*%
G36*
X101442539Y45259715D02*
G01*
X101488294Y45206911D01*
X101499500Y45155400D01*
X101499500Y39703400D01*
X101479815Y39636361D01*
X101427011Y39590606D01*
X101375500Y39579400D01*
X98370586Y39579400D01*
X98303547Y39599085D01*
X98257792Y39651889D01*
X98247848Y39721047D01*
X98276873Y39784603D01*
X98332265Y39821330D01*
X98500893Y39876121D01*
X98667858Y39961193D01*
X98819459Y40071338D01*
X98951962Y40203841D01*
X99062107Y40355442D01*
X99147179Y40522407D01*
X99205086Y40700624D01*
X99225065Y40826768D01*
X99234400Y40885701D01*
X99234400Y41073100D01*
X99213827Y41202988D01*
X99205086Y41258176D01*
X99147179Y41436393D01*
X99062107Y41603358D01*
X99062104Y41603362D01*
X99062104Y41603363D01*
X99030130Y41647371D01*
X98951962Y41754959D01*
X98819459Y41887462D01*
X98723347Y41957292D01*
X98667862Y41997605D01*
X98667859Y41997606D01*
X98667860Y41997606D01*
X98667858Y41997607D01*
X98500893Y42082679D01*
X98322676Y42140586D01*
X98322670Y42140587D01*
X98137599Y42169900D01*
X98137594Y42169900D01*
X97950206Y42169900D01*
X97950201Y42169900D01*
X97765129Y42140587D01*
X97765127Y42140587D01*
X97765124Y42140586D01*
X97586907Y42082679D01*
X97586904Y42082678D01*
X97586902Y42082677D01*
X97419940Y41997606D01*
X97419937Y41997605D01*
X97306918Y41915490D01*
X97268341Y41887462D01*
X97268339Y41887460D01*
X97268338Y41887460D01*
X97135840Y41754962D01*
X97135840Y41754961D01*
X97135838Y41754959D01*
X97108202Y41716923D01*
X97025695Y41603363D01*
X97025694Y41603360D01*
X96940623Y41436398D01*
X96940622Y41436396D01*
X96940621Y41436393D01*
X96882714Y41258176D01*
X96882713Y41258173D01*
X96882713Y41258171D01*
X96853400Y41073100D01*
X96853400Y40885701D01*
X96879358Y40721812D01*
X96882714Y40700624D01*
X96940621Y40522407D01*
X96940622Y40522404D01*
X96940623Y40522403D01*
X96946751Y40510375D01*
X97017491Y40371539D01*
X97025694Y40355441D01*
X97025695Y40355438D01*
X97071487Y40292412D01*
X97135838Y40203841D01*
X97268341Y40071338D01*
X97353925Y40009157D01*
X97419937Y39961196D01*
X97419938Y39961196D01*
X97419942Y39961193D01*
X97586907Y39876121D01*
X97755534Y39821330D01*
X97813208Y39781893D01*
X97840406Y39717534D01*
X97828491Y39648688D01*
X97781247Y39597212D01*
X97717214Y39579400D01*
X92543900Y39579400D01*
X92543900Y20579400D01*
X97717214Y20579400D01*
X97784253Y20559715D01*
X97830008Y20506911D01*
X97839952Y20437753D01*
X97810927Y20374197D01*
X97755534Y20337471D01*
X97586907Y20282679D01*
X97586904Y20282678D01*
X97586902Y20282677D01*
X97419940Y20197606D01*
X97419937Y20197605D01*
X97307196Y20115692D01*
X97268341Y20087462D01*
X97268339Y20087460D01*
X97268338Y20087460D01*
X97135840Y19954962D01*
X97135840Y19954961D01*
X97135838Y19954959D01*
X97108202Y19916923D01*
X97025695Y19803363D01*
X97025694Y19803360D01*
X96940623Y19636398D01*
X96940622Y19636396D01*
X96940621Y19636393D01*
X96882714Y19458176D01*
X96882713Y19458173D01*
X96882713Y19458171D01*
X96853400Y19273100D01*
X96853400Y19085701D01*
X96882713Y18900630D01*
X96882714Y18900624D01*
X96940621Y18722407D01*
X97021929Y18562829D01*
X97025694Y18555441D01*
X97025695Y18555438D01*
X97066410Y18499400D01*
X97135838Y18403841D01*
X97268341Y18271338D01*
X97329170Y18227143D01*
X97419937Y18161196D01*
X97419938Y18161196D01*
X97419942Y18161193D01*
X97586907Y18076121D01*
X97765124Y18018214D01*
X97857665Y18003557D01*
X97950201Y17988900D01*
X97950206Y17988900D01*
X98137599Y17988900D01*
X98221722Y18002225D01*
X98322676Y18018214D01*
X98500893Y18076121D01*
X98667858Y18161193D01*
X98819459Y18271338D01*
X98951962Y18403841D01*
X99062107Y18555442D01*
X99147179Y18722407D01*
X99205086Y18900624D01*
X99221075Y19001578D01*
X99234400Y19085701D01*
X99234400Y19273100D01*
X99213949Y19402214D01*
X99205086Y19458176D01*
X99147179Y19636393D01*
X99062107Y19803358D01*
X99062104Y19803362D01*
X99062104Y19803363D01*
X99023226Y19856873D01*
X98951962Y19954959D01*
X98819459Y20087462D01*
X98762402Y20128916D01*
X98667862Y20197605D01*
X98667859Y20197606D01*
X98667860Y20197606D01*
X98667858Y20197607D01*
X98500893Y20282679D01*
X98332265Y20337471D01*
X98274592Y20376907D01*
X98247394Y20441266D01*
X98259309Y20510112D01*
X98306553Y20561588D01*
X98370586Y20579400D01*
X101375500Y20579400D01*
X101442539Y20559715D01*
X101488294Y20506911D01*
X101499500Y20455400D01*
X101499500Y703400D01*
X101479815Y636361D01*
X101427011Y590606D01*
X101375500Y579400D01*
X667900Y579400D01*
X600861Y599085D01*
X555106Y651889D01*
X543900Y703400D01*
X543900Y8785553D01*
X10236900Y8785553D01*
X10236900Y8779261D01*
X10236900Y8177748D01*
X10259082Y8094960D01*
X10269815Y8076371D01*
X10301935Y8020738D01*
X10647334Y7675339D01*
X10647335Y7675338D01*
X10707938Y7614735D01*
X10707940Y7614734D01*
X10707944Y7614731D01*
X10782155Y7571886D01*
X10782162Y7571882D01*
X10864947Y7549700D01*
X10864949Y7549700D01*
X11824251Y7549700D01*
X11824253Y7549700D01*
X11907039Y7571882D01*
X11981262Y7614735D01*
X11991508Y7624981D01*
X12052831Y7658466D01*
X12069250Y7660232D01*
X12069249Y7660239D01*
X12077305Y7661300D01*
X12077309Y7661300D01*
X12191886Y7692001D01*
X12294613Y7751311D01*
X12378489Y7835187D01*
X12437799Y7937914D01*
X12468500Y8052491D01*
X12468500Y8171109D01*
X12437799Y8285686D01*
X12378489Y8388413D01*
X12294613Y8472289D01*
X12191886Y8531599D01*
X12077309Y8562300D01*
X12028189Y8562300D01*
X11961150Y8581985D01*
X11915395Y8634789D01*
X11905451Y8703947D01*
X11934476Y8767503D01*
X11940508Y8773981D01*
X14506719Y11340192D01*
X14568042Y11373677D01*
X14637734Y11368693D01*
X14693667Y11326821D01*
X14718084Y11261357D01*
X14718400Y11252511D01*
X14718400Y4748432D01*
X14698715Y4681393D01*
X14682081Y4660751D01*
X14623396Y4602067D01*
X14623392Y4602062D01*
X14554213Y4482239D01*
X14554212Y4482236D01*
X14518400Y4348583D01*
X14518400Y4210218D01*
X14554212Y4076565D01*
X14554213Y4076562D01*
X14623392Y3956739D01*
X14623394Y3956736D01*
X14623395Y3956735D01*
X14721235Y3858895D01*
X14721236Y3858894D01*
X14721238Y3858893D01*
X14798152Y3814487D01*
X14846367Y3763921D01*
X14859591Y3695314D01*
X14833623Y3630449D01*
X14776709Y3589920D01*
X14736152Y3583100D01*
X14156865Y3583100D01*
X14089826Y3602785D01*
X14069184Y3619419D01*
X14037167Y3651436D01*
X14005074Y3707023D01*
X13993388Y3750636D01*
X13924205Y3870465D01*
X13826365Y3968305D01*
X13826364Y3968306D01*
X13826361Y3968308D01*
X13706538Y4037487D01*
X13706537Y4037488D01*
X13706536Y4037488D01*
X13572883Y4073300D01*
X13434517Y4073300D01*
X13300864Y4037488D01*
X13300861Y4037487D01*
X13181038Y3968308D01*
X13181033Y3968304D01*
X13083196Y3870467D01*
X13083192Y3870462D01*
X13014013Y3750639D01*
X13014012Y3750636D01*
X12978200Y3616983D01*
X12978200Y3478618D01*
X13014012Y3344965D01*
X13014013Y3344962D01*
X13083192Y3225139D01*
X13083194Y3225136D01*
X13083195Y3225135D01*
X13181035Y3127295D01*
X13300864Y3058112D01*
X13344477Y3046426D01*
X13400064Y3014333D01*
X13642286Y2772111D01*
X13642287Y2772110D01*
X13642289Y2772109D01*
X13701593Y2737871D01*
X13701596Y2737868D01*
X13735837Y2718100D01*
X13745014Y2712801D01*
X13859591Y2682100D01*
X13859594Y2682100D01*
X33317808Y2682100D01*
X33317809Y2682100D01*
X33408173Y2706314D01*
X33432387Y2712801D01*
X33535114Y2772111D01*
X36801711Y6038709D01*
X45268000Y6038709D01*
X45268000Y5920091D01*
X45298701Y5805514D01*
X45358011Y5702787D01*
X45441887Y5618911D01*
X45544614Y5559601D01*
X45659191Y5528900D01*
X45659194Y5528900D01*
X45667251Y5527839D01*
X45667015Y5526051D01*
X45724350Y5509215D01*
X45744992Y5492581D01*
X46004894Y5232680D01*
X46004904Y5232669D01*
X46009234Y5228339D01*
X46009235Y5228338D01*
X46069838Y5167735D01*
X46141545Y5126335D01*
X46144062Y5124882D01*
X46226848Y5102699D01*
X46226850Y5102699D01*
X46320149Y5102699D01*
X46320165Y5102700D01*
X58664751Y5102700D01*
X58664753Y5102700D01*
X58747539Y5124882D01*
X58821762Y5167735D01*
X70993552Y17339528D01*
X70993557Y17339531D01*
X71003760Y17349735D01*
X71003762Y17349735D01*
X71064365Y17410338D01*
X71107218Y17484562D01*
X71107219Y17484564D01*
X71108650Y17489904D01*
X71108650Y17489908D01*
X71129401Y17567347D01*
X71129401Y17653053D01*
X71129401Y17660648D01*
X71129400Y17660666D01*
X71129400Y17808905D01*
X71149085Y17875944D01*
X71201889Y17921699D01*
X71271047Y17931643D01*
X71334603Y17902618D01*
X71341081Y17896586D01*
X71404242Y17833425D01*
X71404245Y17833423D01*
X71576302Y17718459D01*
X71767480Y17639270D01*
X71933524Y17606242D01*
X71970430Y17598901D01*
X71970434Y17598900D01*
X71970435Y17598900D01*
X72177366Y17598900D01*
X72177367Y17598901D01*
X72380320Y17639270D01*
X72571498Y17718459D01*
X72743555Y17833423D01*
X72889877Y17979745D01*
X73004841Y18151802D01*
X73084030Y18342980D01*
X73124400Y18545935D01*
X73124400Y18752865D01*
X73124399Y18752870D01*
X73563400Y18752870D01*
X73563400Y18545931D01*
X73603768Y18342988D01*
X73603770Y18342980D01*
X73669839Y18183475D01*
X73682959Y18151802D01*
X73728504Y18083638D01*
X73797924Y17979743D01*
X73944242Y17833425D01*
X73944245Y17833423D01*
X74116302Y17718459D01*
X74307480Y17639270D01*
X74473524Y17606242D01*
X74510430Y17598901D01*
X74510434Y17598900D01*
X74510435Y17598900D01*
X74717366Y17598900D01*
X74717367Y17598901D01*
X74920320Y17639270D01*
X75111498Y17718459D01*
X75283555Y17833423D01*
X75429877Y17979745D01*
X75544841Y18151802D01*
X75624030Y18342980D01*
X75664400Y18545935D01*
X75664400Y18752865D01*
X75664399Y18752870D01*
X76103400Y18752870D01*
X76103400Y18545931D01*
X76143768Y18342988D01*
X76143770Y18342980D01*
X76209839Y18183475D01*
X76222959Y18151802D01*
X76268504Y18083638D01*
X76337924Y17979743D01*
X76484242Y17833425D01*
X76484245Y17833423D01*
X76656302Y17718459D01*
X76847480Y17639270D01*
X77013524Y17606242D01*
X77050430Y17598901D01*
X77050434Y17598900D01*
X77050435Y17598900D01*
X77257366Y17598900D01*
X77257367Y17598901D01*
X77460320Y17639270D01*
X77651498Y17718459D01*
X77823555Y17833423D01*
X77969877Y17979745D01*
X78084841Y18151802D01*
X78164030Y18342980D01*
X78204400Y18545935D01*
X78204400Y18752865D01*
X78204399Y18752870D01*
X78643400Y18752870D01*
X78643400Y18545931D01*
X78683768Y18342988D01*
X78683770Y18342980D01*
X78749839Y18183475D01*
X78762959Y18151802D01*
X78808504Y18083638D01*
X78877924Y17979743D01*
X79024242Y17833425D01*
X79024245Y17833423D01*
X79196302Y17718459D01*
X79387480Y17639270D01*
X79553524Y17606242D01*
X79590430Y17598901D01*
X79590434Y17598900D01*
X79590435Y17598900D01*
X79797366Y17598900D01*
X79797367Y17598901D01*
X80000320Y17639270D01*
X80191498Y17718459D01*
X80363555Y17833423D01*
X80509877Y17979745D01*
X80624841Y18151802D01*
X80704030Y18342980D01*
X80744400Y18545935D01*
X80744400Y18752865D01*
X80704030Y18955820D01*
X80624841Y19146998D01*
X80509877Y19319055D01*
X80509876Y19319056D01*
X80509875Y19319058D01*
X80363557Y19465376D01*
X80266535Y19530203D01*
X80191498Y19580341D01*
X80151422Y19596941D01*
X80000320Y19659530D01*
X80000312Y19659532D01*
X79797369Y19699900D01*
X79797365Y19699900D01*
X79590435Y19699900D01*
X79590430Y19699900D01*
X79387487Y19659532D01*
X79387479Y19659530D01*
X79196303Y19580342D01*
X79024242Y19465376D01*
X78877924Y19319058D01*
X78762958Y19146997D01*
X78683770Y18955821D01*
X78683768Y18955813D01*
X78643400Y18752870D01*
X78204399Y18752870D01*
X78164030Y18955820D01*
X78084841Y19146998D01*
X77969877Y19319055D01*
X77969876Y19319056D01*
X77969875Y19319058D01*
X77823557Y19465376D01*
X77726535Y19530203D01*
X77651498Y19580341D01*
X77611422Y19596941D01*
X77460320Y19659530D01*
X77460312Y19659532D01*
X77257369Y19699900D01*
X77257365Y19699900D01*
X77050435Y19699900D01*
X77050430Y19699900D01*
X76847487Y19659532D01*
X76847479Y19659530D01*
X76656303Y19580342D01*
X76484242Y19465376D01*
X76337924Y19319058D01*
X76222958Y19146997D01*
X76143770Y18955821D01*
X76143768Y18955813D01*
X76103400Y18752870D01*
X75664399Y18752870D01*
X75624030Y18955820D01*
X75544841Y19146998D01*
X75429877Y19319055D01*
X75429876Y19319056D01*
X75429875Y19319058D01*
X75283557Y19465376D01*
X75186535Y19530203D01*
X75111498Y19580341D01*
X75071422Y19596941D01*
X74920320Y19659530D01*
X74920312Y19659532D01*
X74717369Y19699900D01*
X74717365Y19699900D01*
X74510435Y19699900D01*
X74510430Y19699900D01*
X74307487Y19659532D01*
X74307479Y19659530D01*
X74116303Y19580342D01*
X73944242Y19465376D01*
X73797924Y19319058D01*
X73682958Y19146997D01*
X73603770Y18955821D01*
X73603768Y18955813D01*
X73563400Y18752870D01*
X73124399Y18752870D01*
X73084030Y18955820D01*
X73004841Y19146998D01*
X72889877Y19319055D01*
X72889876Y19319056D01*
X72889875Y19319058D01*
X72743557Y19465376D01*
X72646535Y19530203D01*
X72571498Y19580341D01*
X72531422Y19596941D01*
X72380320Y19659530D01*
X72380312Y19659532D01*
X72207016Y19694003D01*
X72145105Y19726388D01*
X72110531Y19787104D01*
X72114270Y19856873D01*
X72143524Y19903299D01*
X78974011Y26733787D01*
X79035332Y26767270D01*
X79105024Y26762286D01*
X79149372Y26733785D01*
X80291674Y25591421D01*
X80424384Y25458704D01*
X80457867Y25397380D01*
X80459633Y25380951D01*
X80459639Y25380951D01*
X80460699Y25372895D01*
X80460700Y25372892D01*
X80460700Y25372891D01*
X80491401Y25258314D01*
X80550711Y25155587D01*
X80634587Y25071711D01*
X80737314Y25012401D01*
X80851891Y24981700D01*
X80851894Y24981700D01*
X80970506Y24981700D01*
X80970509Y24981700D01*
X81085086Y25012401D01*
X81187813Y25071711D01*
X81241771Y25125670D01*
X81303090Y25159152D01*
X81372782Y25154168D01*
X81417130Y25125667D01*
X83017081Y23525716D01*
X83050566Y23464393D01*
X83053400Y23438035D01*
X83053400Y19597242D01*
X83033715Y19530203D01*
X82980911Y19484448D01*
X82911753Y19474504D01*
X82860510Y19494139D01*
X82786297Y19543726D01*
X82731498Y19580341D01*
X82691422Y19596941D01*
X82540320Y19659530D01*
X82540312Y19659532D01*
X82337369Y19699900D01*
X82337365Y19699900D01*
X82130435Y19699900D01*
X82130430Y19699900D01*
X81927487Y19659532D01*
X81927479Y19659530D01*
X81736303Y19580342D01*
X81564242Y19465376D01*
X81417924Y19319058D01*
X81302958Y19146997D01*
X81223770Y18955821D01*
X81223768Y18955813D01*
X81183400Y18752870D01*
X81183400Y18545931D01*
X81223768Y18342988D01*
X81223770Y18342980D01*
X81289839Y18183475D01*
X81302959Y18151802D01*
X81348504Y18083638D01*
X81417924Y17979743D01*
X81564242Y17833425D01*
X81564245Y17833423D01*
X81736302Y17718459D01*
X81927480Y17639270D01*
X82093524Y17606242D01*
X82130430Y17598901D01*
X82130434Y17598900D01*
X82130435Y17598900D01*
X82337366Y17598900D01*
X82337367Y17598901D01*
X82540320Y17639270D01*
X82731498Y17718459D01*
X82860509Y17804662D01*
X82927187Y17825539D01*
X82994567Y17807054D01*
X83041257Y17755075D01*
X83053400Y17701559D01*
X83053400Y10300092D01*
X83077612Y10209728D01*
X83084100Y10185515D01*
X83084100Y10185514D01*
X83084101Y10185513D01*
X83143411Y10082786D01*
X83143413Y10082784D01*
X84184616Y9041581D01*
X84218101Y8980258D01*
X84213117Y8910566D01*
X84171245Y8854633D01*
X84105781Y8830216D01*
X84096935Y8829900D01*
X82674147Y8829900D01*
X82615670Y8818269D01*
X82615669Y8818268D01*
X82549347Y8773953D01*
X82505032Y8707631D01*
X82505031Y8707630D01*
X82493400Y8649153D01*
X82493400Y6909648D01*
X82505031Y6851171D01*
X82505032Y6851170D01*
X82549347Y6784848D01*
X82615669Y6740533D01*
X82615670Y6740532D01*
X82674147Y6728901D01*
X82674150Y6728900D01*
X82674152Y6728900D01*
X84413650Y6728900D01*
X84413651Y6728901D01*
X84428468Y6731848D01*
X84472129Y6740532D01*
X84472129Y6740533D01*
X84472131Y6740533D01*
X84538452Y6784848D01*
X84582767Y6851169D01*
X84582767Y6851171D01*
X84582768Y6851171D01*
X84594399Y6909648D01*
X84594400Y6909650D01*
X84594400Y8332435D01*
X84614085Y8399474D01*
X84666889Y8445229D01*
X84736047Y8455173D01*
X84799603Y8426148D01*
X84806081Y8420116D01*
X85037954Y8188243D01*
X85071439Y8126920D01*
X85071890Y8076371D01*
X85033400Y7882870D01*
X85033400Y7675931D01*
X85073768Y7472988D01*
X85073770Y7472980D01*
X85152055Y7283983D01*
X85152959Y7281802D01*
X85186397Y7231758D01*
X85267924Y7109743D01*
X85414242Y6963425D01*
X85414245Y6963423D01*
X85586302Y6848459D01*
X85777480Y6769270D01*
X85921952Y6740533D01*
X85980430Y6728901D01*
X85980434Y6728900D01*
X85980435Y6728900D01*
X86187366Y6728900D01*
X86187367Y6728901D01*
X86390320Y6769270D01*
X86581498Y6848459D01*
X86753555Y6963423D01*
X86899877Y7109745D01*
X87014841Y7281802D01*
X87094030Y7472980D01*
X87134400Y7675935D01*
X87134400Y7882865D01*
X87094030Y8085820D01*
X87014841Y8276998D01*
X86899877Y8449055D01*
X86899875Y8449058D01*
X86753557Y8595376D01*
X86585555Y8707630D01*
X86581498Y8710341D01*
X86525196Y8733662D01*
X86390320Y8789530D01*
X86390312Y8789532D01*
X86187369Y8829900D01*
X86187365Y8829900D01*
X85980435Y8829900D01*
X85980430Y8829900D01*
X85786929Y8791410D01*
X85717337Y8797637D01*
X85675057Y8825346D01*
X83990719Y10509684D01*
X83957234Y10571007D01*
X83954400Y10597365D01*
X83954400Y14640912D01*
X96850000Y14640912D01*
X96850000Y14359089D01*
X96850001Y14359072D01*
X96886786Y14079660D01*
X96959733Y13807418D01*
X97067584Y13547043D01*
X97067589Y13547032D01*
X97208500Y13302969D01*
X97208511Y13302953D01*
X97374498Y13086633D01*
X97374499Y13086633D01*
X98123219Y13835353D01*
X98160967Y13783398D01*
X98283398Y13660967D01*
X98335351Y13623221D01*
X97586631Y12874501D01*
X97586631Y12874500D01*
X97802952Y12708512D01*
X97802968Y12708501D01*
X98047031Y12567590D01*
X98047042Y12567585D01*
X98307417Y12459734D01*
X98579659Y12386787D01*
X98859071Y12350002D01*
X98859089Y12350000D01*
X99140911Y12350000D01*
X99140928Y12350002D01*
X99420340Y12386787D01*
X99692582Y12459734D01*
X99952957Y12567585D01*
X99952968Y12567590D01*
X100197031Y12708501D01*
X100197047Y12708512D01*
X100413367Y12874500D01*
X100413367Y12874501D01*
X99664647Y13623221D01*
X99716602Y13660967D01*
X99839033Y13783398D01*
X99876779Y13835353D01*
X100625499Y13086633D01*
X100625500Y13086633D01*
X100791488Y13302953D01*
X100791499Y13302969D01*
X100932410Y13547032D01*
X100932415Y13547043D01*
X101040266Y13807418D01*
X101113213Y14079660D01*
X101149998Y14359072D01*
X101150000Y14359089D01*
X101150000Y14640912D01*
X101149998Y14640929D01*
X101113213Y14920341D01*
X101040266Y15192583D01*
X100932415Y15452958D01*
X100932410Y15452969D01*
X100791499Y15697032D01*
X100791488Y15697048D01*
X100625500Y15913369D01*
X100625499Y15913369D01*
X99876779Y15164649D01*
X99839033Y15216602D01*
X99716602Y15339033D01*
X99664647Y15376780D01*
X100413367Y16125501D01*
X100413367Y16125502D01*
X100197047Y16291489D01*
X100197031Y16291500D01*
X99952968Y16432411D01*
X99952957Y16432416D01*
X99692582Y16540267D01*
X99420340Y16613214D01*
X99140928Y16649999D01*
X99140911Y16650000D01*
X98859089Y16650000D01*
X98859071Y16649999D01*
X98579659Y16613214D01*
X98307417Y16540267D01*
X98047042Y16432416D01*
X98047038Y16432414D01*
X97802953Y16291490D01*
X97586631Y16125502D01*
X97586631Y16125501D01*
X98335352Y15376780D01*
X98283398Y15339033D01*
X98160967Y15216602D01*
X98123220Y15164648D01*
X97374499Y15913369D01*
X97374498Y15913369D01*
X97208510Y15697047D01*
X97067586Y15452962D01*
X97067584Y15452958D01*
X96959733Y15192583D01*
X96886786Y14920341D01*
X96850001Y14640929D01*
X96850000Y14640912D01*
X83954400Y14640912D01*
X83954400Y17701559D01*
X83974085Y17768598D01*
X84026889Y17814353D01*
X84096047Y17824297D01*
X84147290Y17804662D01*
X84276302Y17718459D01*
X84467480Y17639270D01*
X84633524Y17606242D01*
X84670430Y17598901D01*
X84670434Y17598900D01*
X84670435Y17598900D01*
X84877366Y17598900D01*
X84877367Y17598901D01*
X85080320Y17639270D01*
X85271498Y17718459D01*
X85443555Y17833423D01*
X85589877Y17979745D01*
X85704841Y18151802D01*
X85784030Y18342980D01*
X85824400Y18545935D01*
X85824400Y18752865D01*
X85824399Y18752870D01*
X86263400Y18752870D01*
X86263400Y18545931D01*
X86303768Y18342988D01*
X86303770Y18342980D01*
X86369839Y18183475D01*
X86382959Y18151802D01*
X86428504Y18083638D01*
X86497924Y17979743D01*
X86644242Y17833425D01*
X86644245Y17833423D01*
X86816302Y17718459D01*
X87007480Y17639270D01*
X87173524Y17606242D01*
X87210430Y17598901D01*
X87210434Y17598900D01*
X87210435Y17598900D01*
X87417366Y17598900D01*
X87417367Y17598901D01*
X87620320Y17639270D01*
X87811498Y17718459D01*
X87983555Y17833423D01*
X88129877Y17979745D01*
X88244841Y18151802D01*
X88324030Y18342980D01*
X88364400Y18545935D01*
X88364400Y18752865D01*
X88364399Y18752870D01*
X88803400Y18752870D01*
X88803400Y18545931D01*
X88843768Y18342988D01*
X88843770Y18342980D01*
X88909839Y18183475D01*
X88922959Y18151802D01*
X88968504Y18083638D01*
X89037924Y17979743D01*
X89184242Y17833425D01*
X89184245Y17833423D01*
X89356302Y17718459D01*
X89547480Y17639270D01*
X89713524Y17606242D01*
X89750430Y17598901D01*
X89750434Y17598900D01*
X89750435Y17598900D01*
X89957366Y17598900D01*
X89957367Y17598901D01*
X90160320Y17639270D01*
X90351498Y17718459D01*
X90523555Y17833423D01*
X90669877Y17979745D01*
X90784841Y18151802D01*
X90864030Y18342980D01*
X90904400Y18545935D01*
X90904400Y18752865D01*
X90904399Y18752870D01*
X91343400Y18752870D01*
X91343400Y18545931D01*
X91383768Y18342988D01*
X91383770Y18342980D01*
X91449839Y18183475D01*
X91462959Y18151802D01*
X91508504Y18083638D01*
X91577924Y17979743D01*
X91724242Y17833425D01*
X91724245Y17833423D01*
X91896302Y17718459D01*
X92087480Y17639270D01*
X92253524Y17606242D01*
X92290430Y17598901D01*
X92290434Y17598900D01*
X92290435Y17598900D01*
X92497366Y17598900D01*
X92497367Y17598901D01*
X92700320Y17639270D01*
X92891498Y17718459D01*
X93063555Y17833423D01*
X93209877Y17979745D01*
X93324841Y18151802D01*
X93404030Y18342980D01*
X93444400Y18545935D01*
X93444400Y18752865D01*
X93404030Y18955820D01*
X93324841Y19146998D01*
X93209877Y19319055D01*
X93209876Y19319056D01*
X93209875Y19319058D01*
X93063557Y19465376D01*
X92975775Y19524029D01*
X93833900Y19524029D01*
X93833900Y18799400D01*
X94456455Y18799400D01*
X94433900Y18715226D01*
X94433900Y18583574D01*
X94456455Y18499400D01*
X93833900Y18499400D01*
X93833900Y17774772D01*
X93848403Y17701860D01*
X93848405Y17701856D01*
X93903660Y17619161D01*
X93986355Y17563906D01*
X93986359Y17563904D01*
X94059271Y17549401D01*
X94059274Y17549400D01*
X94783900Y17549400D01*
X94783900Y18171955D01*
X94868074Y18149400D01*
X94999726Y18149400D01*
X95083900Y18171955D01*
X95083900Y17549400D01*
X95808526Y17549400D01*
X95808528Y17549401D01*
X95881440Y17563904D01*
X95881444Y17563906D01*
X95964139Y17619161D01*
X96019394Y17701856D01*
X96019396Y17701860D01*
X96033899Y17774772D01*
X96033900Y17774774D01*
X96033900Y18499400D01*
X95411345Y18499400D01*
X95433900Y18583574D01*
X95433900Y18715226D01*
X95411345Y18799400D01*
X96033900Y18799400D01*
X96033900Y19524027D01*
X96033899Y19524029D01*
X96019396Y19596941D01*
X96019394Y19596945D01*
X95964139Y19679640D01*
X95881444Y19734895D01*
X95881440Y19734897D01*
X95808527Y19749400D01*
X95083900Y19749400D01*
X95083900Y19126846D01*
X94999726Y19149400D01*
X94868074Y19149400D01*
X94783900Y19126846D01*
X94783900Y19749400D01*
X94059273Y19749400D01*
X93986359Y19734897D01*
X93986355Y19734895D01*
X93903660Y19679640D01*
X93848405Y19596945D01*
X93848403Y19596941D01*
X93833900Y19524029D01*
X92975775Y19524029D01*
X92966535Y19530203D01*
X92891498Y19580341D01*
X92851422Y19596941D01*
X92700320Y19659530D01*
X92700312Y19659532D01*
X92497369Y19699900D01*
X92497365Y19699900D01*
X92290435Y19699900D01*
X92290430Y19699900D01*
X92087487Y19659532D01*
X92087479Y19659530D01*
X91896303Y19580342D01*
X91724242Y19465376D01*
X91577924Y19319058D01*
X91462958Y19146997D01*
X91383770Y18955821D01*
X91383768Y18955813D01*
X91343400Y18752870D01*
X90904399Y18752870D01*
X90864030Y18955820D01*
X90784841Y19146998D01*
X90669877Y19319055D01*
X90669876Y19319056D01*
X90669875Y19319058D01*
X90523557Y19465376D01*
X90426535Y19530203D01*
X90351498Y19580341D01*
X90311422Y19596941D01*
X90160320Y19659530D01*
X90160312Y19659532D01*
X89957369Y19699900D01*
X89957365Y19699900D01*
X89750435Y19699900D01*
X89750430Y19699900D01*
X89547487Y19659532D01*
X89547479Y19659530D01*
X89356303Y19580342D01*
X89184242Y19465376D01*
X89037924Y19319058D01*
X88922958Y19146997D01*
X88843770Y18955821D01*
X88843768Y18955813D01*
X88803400Y18752870D01*
X88364399Y18752870D01*
X88324030Y18955820D01*
X88244841Y19146998D01*
X88129877Y19319055D01*
X88129876Y19319056D01*
X88129875Y19319058D01*
X87983557Y19465376D01*
X87886535Y19530203D01*
X87811498Y19580341D01*
X87771422Y19596941D01*
X87620320Y19659530D01*
X87620312Y19659532D01*
X87417369Y19699900D01*
X87417365Y19699900D01*
X87210435Y19699900D01*
X87210430Y19699900D01*
X87007487Y19659532D01*
X87007479Y19659530D01*
X86816303Y19580342D01*
X86644242Y19465376D01*
X86497924Y19319058D01*
X86382958Y19146997D01*
X86303770Y18955821D01*
X86303768Y18955813D01*
X86263400Y18752870D01*
X85824399Y18752870D01*
X85784030Y18955820D01*
X85704841Y19146998D01*
X85589877Y19319055D01*
X85589876Y19319056D01*
X85589875Y19319058D01*
X85443557Y19465376D01*
X85346535Y19530203D01*
X85271498Y19580341D01*
X85231422Y19596941D01*
X85080320Y19659530D01*
X85080312Y19659532D01*
X84877369Y19699900D01*
X84877365Y19699900D01*
X84670435Y19699900D01*
X84670430Y19699900D01*
X84467487Y19659532D01*
X84467479Y19659530D01*
X84276303Y19580342D01*
X84147290Y19494139D01*
X84080612Y19473262D01*
X84013232Y19491747D01*
X83966543Y19543726D01*
X83954400Y19597242D01*
X83954400Y23735307D01*
X83954400Y23735309D01*
X83923699Y23849886D01*
X83923699Y23849887D01*
X83864389Y23952614D01*
X82049819Y25767184D01*
X82016334Y25828507D01*
X82013500Y25854865D01*
X82013500Y33591707D01*
X82013500Y33591709D01*
X81982799Y33706286D01*
X81982799Y33706287D01*
X81982799Y33706288D01*
X81923492Y33809011D01*
X81923488Y33809016D01*
X78754416Y36978087D01*
X78754414Y36978089D01*
X78703050Y37007744D01*
X78651688Y37037399D01*
X78639580Y37040643D01*
X78627473Y37043887D01*
X78627470Y37043888D01*
X78589278Y37054122D01*
X78537109Y37068100D01*
X78418491Y37068100D01*
X78403790Y37064161D01*
X78333940Y37065826D01*
X78276079Y37104990D01*
X78248577Y37169219D01*
X78247700Y37183937D01*
X78247700Y39551512D01*
X78267385Y39618551D01*
X78284015Y39639189D01*
X79156795Y40511970D01*
X79218118Y40545454D01*
X79287810Y40540470D01*
X79291923Y40538852D01*
X79387480Y40499270D01*
X79573508Y40462267D01*
X79590430Y40458901D01*
X79590434Y40458900D01*
X79590435Y40458900D01*
X79797366Y40458900D01*
X79797367Y40458901D01*
X80000320Y40499270D01*
X80191498Y40578459D01*
X80245068Y40614253D01*
X80304010Y40653636D01*
X80370687Y40674514D01*
X80438067Y40656029D01*
X80484757Y40604050D01*
X80496900Y40550534D01*
X80496900Y39977948D01*
X80519082Y39895160D01*
X80537455Y39863338D01*
X80561935Y39820938D01*
X80561937Y39820936D01*
X83523881Y36858992D01*
X83557366Y36797669D01*
X83560200Y36771311D01*
X83560200Y30677564D01*
X83540515Y30610525D01*
X83530151Y30597665D01*
X83530158Y30597659D01*
X83525211Y30591213D01*
X83465901Y30488486D01*
X83435200Y30373909D01*
X83435200Y30255291D01*
X83465901Y30140714D01*
X83525211Y30037987D01*
X83609087Y29954111D01*
X83711814Y29894801D01*
X83826391Y29864100D01*
X83826394Y29864100D01*
X83945006Y29864100D01*
X83945009Y29864100D01*
X84059586Y29894801D01*
X84162313Y29954111D01*
X84246189Y30037987D01*
X84305499Y30140714D01*
X84336200Y30255291D01*
X84336200Y30373909D01*
X84305499Y30488486D01*
X84246189Y30591213D01*
X84246184Y30591218D01*
X84241242Y30597659D01*
X84242673Y30598758D01*
X84214034Y30651206D01*
X84211200Y30677564D01*
X84211200Y34628756D01*
X85000000Y34628756D01*
X85000000Y23530448D01*
X85022182Y23447660D01*
X85037922Y23420399D01*
X85065035Y23373438D01*
X85065037Y23373436D01*
X85411381Y23027092D01*
X85444866Y22965769D01*
X85446631Y22949350D01*
X85446639Y22949351D01*
X85447699Y22941295D01*
X85447700Y22941292D01*
X85447700Y22941291D01*
X85478401Y22826714D01*
X85537711Y22723987D01*
X85621587Y22640111D01*
X85724314Y22580801D01*
X85838891Y22550100D01*
X85838894Y22550100D01*
X85957506Y22550100D01*
X85957509Y22550100D01*
X86072086Y22580801D01*
X86174813Y22640111D01*
X86258689Y22723987D01*
X86317999Y22826714D01*
X86348700Y22941291D01*
X86348700Y23059909D01*
X86317999Y23174486D01*
X86258689Y23277213D01*
X86174813Y23361089D01*
X86072086Y23420399D01*
X85957509Y23451100D01*
X85957505Y23451101D01*
X85949449Y23452161D01*
X85949684Y23453950D01*
X85892350Y23470785D01*
X85871708Y23487419D01*
X85687319Y23671808D01*
X85653834Y23733131D01*
X85651000Y23759489D01*
X85651000Y34399711D01*
X85670685Y34466750D01*
X85687319Y34487392D01*
X85871708Y34671781D01*
X85933031Y34705266D01*
X85949450Y34707032D01*
X85949449Y34707039D01*
X85957505Y34708100D01*
X85957509Y34708100D01*
X86072086Y34738801D01*
X86174813Y34798111D01*
X86258689Y34881987D01*
X86317999Y34984714D01*
X86348700Y35099291D01*
X86348700Y35217909D01*
X86317999Y35332486D01*
X86258689Y35435213D01*
X86174813Y35519089D01*
X86072086Y35578399D01*
X85957509Y35609100D01*
X85838891Y35609100D01*
X85724314Y35578399D01*
X85724312Y35578399D01*
X85724312Y35578398D01*
X85621587Y35519089D01*
X85621584Y35519087D01*
X85537713Y35435216D01*
X85537711Y35435213D01*
X85478402Y35332488D01*
X85447699Y35217906D01*
X85446639Y35209849D01*
X85444850Y35210085D01*
X85428015Y35152750D01*
X85411381Y35132108D01*
X85065037Y34785765D01*
X85065035Y34785762D01*
X85022182Y34711541D01*
X85008337Y34659868D01*
X85000000Y34628756D01*
X84211200Y34628756D01*
X84211200Y37000351D01*
X84211200Y37000353D01*
X84189018Y37083138D01*
X84176402Y37104990D01*
X84146169Y37157356D01*
X84146163Y37157364D01*
X81184219Y40119308D01*
X81150734Y40180631D01*
X81147900Y40206989D01*
X81147900Y40835090D01*
X81167585Y40902129D01*
X81220389Y40947884D01*
X81289547Y40957828D01*
X81353103Y40928803D01*
X81375003Y40903980D01*
X81417924Y40839743D01*
X81564242Y40693425D01*
X81564245Y40693423D01*
X81736302Y40578459D01*
X81927480Y40499270D01*
X82113508Y40462267D01*
X82130430Y40458901D01*
X82130434Y40458900D01*
X82130435Y40458900D01*
X82337366Y40458900D01*
X82337367Y40458901D01*
X82540320Y40499270D01*
X82731498Y40578459D01*
X82903555Y40693423D01*
X83049877Y40839745D01*
X83164841Y41011802D01*
X83244030Y41202980D01*
X83284400Y41405935D01*
X83284400Y41612865D01*
X83284399Y41612870D01*
X83723400Y41612870D01*
X83723400Y41405931D01*
X83763768Y41202988D01*
X83763770Y41202980D01*
X83829399Y41044537D01*
X83842959Y41011802D01*
X83874041Y40965284D01*
X83957924Y40839743D01*
X84104242Y40693425D01*
X84104245Y40693423D01*
X84276302Y40578459D01*
X84467480Y40499270D01*
X84653508Y40462267D01*
X84670430Y40458901D01*
X84670434Y40458900D01*
X84670435Y40458900D01*
X84877366Y40458900D01*
X84877367Y40458901D01*
X85080320Y40499270D01*
X85271498Y40578459D01*
X85443555Y40693423D01*
X85589877Y40839745D01*
X85704841Y41011802D01*
X85784030Y41202980D01*
X85824400Y41405935D01*
X85824400Y41612865D01*
X85824399Y41612870D01*
X86263400Y41612870D01*
X86263400Y41405931D01*
X86303768Y41202988D01*
X86303770Y41202980D01*
X86369399Y41044537D01*
X86382959Y41011802D01*
X86414041Y40965284D01*
X86497924Y40839743D01*
X86644242Y40693425D01*
X86644245Y40693423D01*
X86816302Y40578459D01*
X87007480Y40499270D01*
X87193508Y40462267D01*
X87210430Y40458901D01*
X87210434Y40458900D01*
X87210435Y40458900D01*
X87417366Y40458900D01*
X87417367Y40458901D01*
X87620320Y40499270D01*
X87811498Y40578459D01*
X87983555Y40693423D01*
X88129877Y40839745D01*
X88244841Y41011802D01*
X88324030Y41202980D01*
X88364400Y41405935D01*
X88364400Y41612865D01*
X88364399Y41612870D01*
X88803400Y41612870D01*
X88803400Y41405931D01*
X88843768Y41202988D01*
X88843770Y41202980D01*
X88909399Y41044537D01*
X88922959Y41011802D01*
X88954041Y40965284D01*
X89037924Y40839743D01*
X89184242Y40693425D01*
X89184245Y40693423D01*
X89356302Y40578459D01*
X89547480Y40499270D01*
X89733508Y40462267D01*
X89750430Y40458901D01*
X89750434Y40458900D01*
X89750435Y40458900D01*
X89957366Y40458900D01*
X89957367Y40458901D01*
X90160320Y40499270D01*
X90351498Y40578459D01*
X90523555Y40693423D01*
X90669877Y40839745D01*
X90784841Y41011802D01*
X90864030Y41202980D01*
X90904400Y41405935D01*
X90904400Y41612865D01*
X90904399Y41612870D01*
X91343400Y41612870D01*
X91343400Y41405931D01*
X91383768Y41202988D01*
X91383770Y41202980D01*
X91449399Y41044537D01*
X91462959Y41011802D01*
X91494041Y40965284D01*
X91577924Y40839743D01*
X91724242Y40693425D01*
X91724245Y40693423D01*
X91896302Y40578459D01*
X92087480Y40499270D01*
X92273508Y40462267D01*
X92290430Y40458901D01*
X92290434Y40458900D01*
X92290435Y40458900D01*
X92497366Y40458900D01*
X92497367Y40458901D01*
X92700320Y40499270D01*
X92891498Y40578459D01*
X93063555Y40693423D01*
X93209877Y40839745D01*
X93324841Y41011802D01*
X93404030Y41202980D01*
X93444400Y41405935D01*
X93444400Y41612865D01*
X93404030Y41815820D01*
X93324841Y42006998D01*
X93209877Y42179055D01*
X93209875Y42179058D01*
X93063557Y42325376D01*
X92983073Y42379153D01*
X93883400Y42379153D01*
X93883400Y40639648D01*
X93895031Y40581171D01*
X93895032Y40581170D01*
X93939347Y40514848D01*
X94005669Y40470533D01*
X94005670Y40470532D01*
X94064147Y40458901D01*
X94064150Y40458900D01*
X94064152Y40458900D01*
X95803650Y40458900D01*
X95803651Y40458901D01*
X95820575Y40462267D01*
X95862129Y40470532D01*
X95862129Y40470533D01*
X95862131Y40470533D01*
X95928452Y40514848D01*
X95972767Y40581169D01*
X95972767Y40581171D01*
X95972768Y40581171D01*
X95984399Y40639648D01*
X95984400Y40639650D01*
X95984400Y42379151D01*
X95984399Y42379153D01*
X95972768Y42437630D01*
X95972767Y42437631D01*
X95928452Y42503953D01*
X95862130Y42548268D01*
X95862129Y42548269D01*
X95803652Y42559900D01*
X95803648Y42559900D01*
X94064152Y42559900D01*
X94064147Y42559900D01*
X94005670Y42548269D01*
X94005669Y42548268D01*
X93939347Y42503953D01*
X93895032Y42437631D01*
X93895031Y42437630D01*
X93883400Y42379153D01*
X92983073Y42379153D01*
X92895555Y42437630D01*
X92891498Y42440341D01*
X92872416Y42448245D01*
X92700320Y42519530D01*
X92700312Y42519532D01*
X92497369Y42559900D01*
X92497365Y42559900D01*
X92290435Y42559900D01*
X92290430Y42559900D01*
X92087487Y42519532D01*
X92087479Y42519530D01*
X91896303Y42440342D01*
X91724242Y42325376D01*
X91577924Y42179058D01*
X91462958Y42006997D01*
X91383770Y41815821D01*
X91383768Y41815813D01*
X91343400Y41612870D01*
X90904399Y41612870D01*
X90864030Y41815820D01*
X90784841Y42006998D01*
X90669877Y42179055D01*
X90669875Y42179058D01*
X90523557Y42325376D01*
X90355555Y42437630D01*
X90351498Y42440341D01*
X90332416Y42448245D01*
X90160320Y42519530D01*
X90160312Y42519532D01*
X89957369Y42559900D01*
X89957365Y42559900D01*
X89750435Y42559900D01*
X89750430Y42559900D01*
X89547487Y42519532D01*
X89547479Y42519530D01*
X89356303Y42440342D01*
X89184242Y42325376D01*
X89037924Y42179058D01*
X88922958Y42006997D01*
X88843770Y41815821D01*
X88843768Y41815813D01*
X88803400Y41612870D01*
X88364399Y41612870D01*
X88324030Y41815820D01*
X88244841Y42006998D01*
X88129877Y42179055D01*
X88129875Y42179058D01*
X87983557Y42325376D01*
X87815555Y42437630D01*
X87811498Y42440341D01*
X87792416Y42448245D01*
X87620320Y42519530D01*
X87620312Y42519532D01*
X87417369Y42559900D01*
X87417365Y42559900D01*
X87210435Y42559900D01*
X87210430Y42559900D01*
X87007487Y42519532D01*
X87007479Y42519530D01*
X86816303Y42440342D01*
X86644242Y42325376D01*
X86497924Y42179058D01*
X86382958Y42006997D01*
X86303770Y41815821D01*
X86303768Y41815813D01*
X86263400Y41612870D01*
X85824399Y41612870D01*
X85784030Y41815820D01*
X85704841Y42006998D01*
X85589877Y42179055D01*
X85589875Y42179058D01*
X85443557Y42325376D01*
X85275555Y42437630D01*
X85271498Y42440341D01*
X85252416Y42448245D01*
X85080320Y42519530D01*
X85080312Y42519532D01*
X84877369Y42559900D01*
X84877365Y42559900D01*
X84670435Y42559900D01*
X84670430Y42559900D01*
X84467487Y42519532D01*
X84467479Y42519530D01*
X84276303Y42440342D01*
X84104242Y42325376D01*
X83957924Y42179058D01*
X83842958Y42006997D01*
X83763770Y41815821D01*
X83763768Y41815813D01*
X83723400Y41612870D01*
X83284399Y41612870D01*
X83244030Y41815820D01*
X83164841Y42006998D01*
X83049877Y42179055D01*
X83049875Y42179058D01*
X82903557Y42325376D01*
X82735555Y42437630D01*
X82731498Y42440341D01*
X82712416Y42448245D01*
X82540320Y42519530D01*
X82540312Y42519532D01*
X82337369Y42559900D01*
X82337365Y42559900D01*
X82130435Y42559900D01*
X82130430Y42559900D01*
X81927487Y42519532D01*
X81927479Y42519530D01*
X81736303Y42440342D01*
X81564242Y42325376D01*
X81417925Y42179059D01*
X81417922Y42179055D01*
X81350687Y42078430D01*
X81297075Y42033625D01*
X81227750Y42024918D01*
X81164722Y42055072D01*
X81128003Y42114516D01*
X81127808Y42115237D01*
X81125718Y42123039D01*
X81122455Y42128690D01*
X81082865Y42197262D01*
X80382862Y42897265D01*
X80345750Y42918692D01*
X80308640Y42940118D01*
X80267246Y42951209D01*
X80225853Y42962300D01*
X70618447Y42962300D01*
X70535662Y42940118D01*
X70535659Y42940117D01*
X70494174Y42916165D01*
X70484447Y42910550D01*
X70461438Y42897266D01*
X70461436Y42897264D01*
X70071003Y42506832D01*
X70009680Y42473347D01*
X69939988Y42478331D01*
X69935881Y42479948D01*
X69840320Y42519530D01*
X69840312Y42519532D01*
X69637369Y42559900D01*
X69637365Y42559900D01*
X69430435Y42559900D01*
X69430430Y42559900D01*
X69227487Y42519532D01*
X69227479Y42519530D01*
X69036303Y42440342D01*
X68864242Y42325376D01*
X68717924Y42179058D01*
X68602958Y42006997D01*
X68523770Y41815821D01*
X68523768Y41815813D01*
X68483400Y41612870D01*
X68483400Y41405931D01*
X68523768Y41202988D01*
X68523770Y41202980D01*
X68589399Y41044537D01*
X68602959Y41011802D01*
X68634041Y40965284D01*
X68717924Y40839743D01*
X68864242Y40693425D01*
X68864245Y40693423D01*
X69036302Y40578459D01*
X69227480Y40499270D01*
X69413508Y40462267D01*
X69430430Y40458901D01*
X69430434Y40458900D01*
X69430435Y40458900D01*
X69637366Y40458900D01*
X69637367Y40458901D01*
X69840320Y40499270D01*
X69935870Y40538850D01*
X70005339Y40546318D01*
X70067818Y40515043D01*
X70071004Y40511969D01*
X71194281Y39388693D01*
X71227766Y39327370D01*
X71230600Y39301012D01*
X71230600Y25998938D01*
X71210915Y25931899D01*
X71158111Y25886144D01*
X71088953Y25876200D01*
X71074507Y25879163D01*
X71043368Y25887507D01*
X71013909Y25895400D01*
X71013908Y25895400D01*
X71005849Y25896461D01*
X71006084Y25898250D01*
X70948749Y25915085D01*
X70928107Y25931719D01*
X67355719Y29504108D01*
X67322234Y29565431D01*
X67319400Y29591789D01*
X67319400Y40424320D01*
X67339085Y40491359D01*
X67391889Y40537114D01*
X67395948Y40538881D01*
X67410262Y40544810D01*
X67491498Y40578459D01*
X67663555Y40693423D01*
X67809877Y40839745D01*
X67924841Y41011802D01*
X68004030Y41202980D01*
X68044400Y41405935D01*
X68044400Y41612865D01*
X68004030Y41815820D01*
X67924841Y42006998D01*
X67809877Y42179055D01*
X67809875Y42179058D01*
X67663557Y42325376D01*
X67495555Y42437630D01*
X67491498Y42440341D01*
X67472416Y42448245D01*
X67300320Y42519530D01*
X67300312Y42519532D01*
X67097369Y42559900D01*
X67097365Y42559900D01*
X66890435Y42559900D01*
X66890430Y42559900D01*
X66687487Y42519532D01*
X66687479Y42519530D01*
X66496303Y42440342D01*
X66324242Y42325376D01*
X66177924Y42179058D01*
X66062958Y42006997D01*
X65983770Y41815821D01*
X65983768Y41815813D01*
X65943400Y41612870D01*
X65943400Y41405931D01*
X65983768Y41202988D01*
X65983770Y41202980D01*
X66049399Y41044537D01*
X66062959Y41011802D01*
X66094041Y40965284D01*
X66177924Y40839743D01*
X66324242Y40693425D01*
X66324245Y40693423D01*
X66496302Y40578459D01*
X66563719Y40550534D01*
X66591852Y40538881D01*
X66646256Y40495041D01*
X66668321Y40428747D01*
X66668400Y40424320D01*
X66668400Y29362748D01*
X66690582Y29279960D01*
X66712008Y29242850D01*
X66733435Y29205738D01*
X66733436Y29205737D01*
X66733437Y29205736D01*
X70406591Y25532582D01*
X70440076Y25471259D01*
X70435092Y25401567D01*
X70406591Y25357220D01*
X65463437Y20414065D01*
X65463435Y20414062D01*
X65420582Y20339841D01*
X65410371Y20301733D01*
X65405266Y20282679D01*
X65403549Y20276273D01*
X65398400Y20257056D01*
X65398400Y19489895D01*
X65378715Y19422856D01*
X65325911Y19377101D01*
X65256753Y19367157D01*
X65193197Y19396182D01*
X65186719Y19402214D01*
X65123557Y19465376D01*
X65026535Y19530203D01*
X64951498Y19580341D01*
X64911422Y19596941D01*
X64760320Y19659530D01*
X64760312Y19659532D01*
X64557369Y19699900D01*
X64557365Y19699900D01*
X64350435Y19699900D01*
X64350430Y19699900D01*
X64147487Y19659532D01*
X64147479Y19659530D01*
X63956303Y19580342D01*
X63784242Y19465376D01*
X63637924Y19319058D01*
X63522958Y19146997D01*
X63443770Y18955821D01*
X63443768Y18955813D01*
X63403400Y18752870D01*
X63403400Y18545931D01*
X63443768Y18342988D01*
X63443770Y18342980D01*
X63509839Y18183475D01*
X63522959Y18151802D01*
X63568504Y18083638D01*
X63637924Y17979743D01*
X63784242Y17833425D01*
X63784245Y17833423D01*
X63956302Y17718459D01*
X64147480Y17639270D01*
X64313525Y17606242D01*
X64375436Y17573858D01*
X64410010Y17513142D01*
X64406271Y17443373D01*
X64377015Y17396944D01*
X54929192Y7949119D01*
X54867869Y7915634D01*
X54841511Y7912800D01*
X53990765Y7912800D01*
X53923726Y7932485D01*
X53877971Y7985289D01*
X53868027Y8054447D01*
X53897052Y8118003D01*
X53903084Y8124481D01*
X57439958Y11661355D01*
X61004389Y15225786D01*
X61063699Y15328513D01*
X61066518Y15339033D01*
X61072576Y15361639D01*
X61083487Y15402365D01*
X61094400Y15443091D01*
X61094400Y17701559D01*
X61114085Y17768598D01*
X61166889Y17814353D01*
X61236047Y17824297D01*
X61287290Y17804662D01*
X61416302Y17718459D01*
X61607480Y17639270D01*
X61773524Y17606242D01*
X61810430Y17598901D01*
X61810434Y17598900D01*
X61810435Y17598900D01*
X62017366Y17598900D01*
X62017367Y17598901D01*
X62220320Y17639270D01*
X62411498Y17718459D01*
X62583555Y17833423D01*
X62729877Y17979745D01*
X62844841Y18151802D01*
X62924030Y18342980D01*
X62964400Y18545935D01*
X62964400Y18752865D01*
X62924030Y18955820D01*
X62844841Y19146998D01*
X62729877Y19319055D01*
X62729876Y19319056D01*
X62729875Y19319058D01*
X62583557Y19465376D01*
X62486535Y19530203D01*
X62411498Y19580341D01*
X62371422Y19596941D01*
X62220320Y19659530D01*
X62220312Y19659532D01*
X62017369Y19699900D01*
X62017365Y19699900D01*
X61810435Y19699900D01*
X61810430Y19699900D01*
X61607487Y19659532D01*
X61607479Y19659530D01*
X61416303Y19580342D01*
X61287290Y19494139D01*
X61220612Y19473262D01*
X61153232Y19491747D01*
X61106543Y19543726D01*
X61094400Y19597242D01*
X61094400Y22374236D01*
X61114085Y22441275D01*
X61130714Y22461912D01*
X63567535Y24898734D01*
X63623123Y24930826D01*
X63666732Y24942511D01*
X63666731Y24942511D01*
X63666736Y24942512D01*
X63786565Y25011695D01*
X63884405Y25109535D01*
X63953588Y25229364D01*
X63989400Y25363017D01*
X63989400Y25501383D01*
X63953588Y25635036D01*
X63884405Y25754865D01*
X63786565Y25852705D01*
X63786564Y25852706D01*
X63786561Y25852708D01*
X63666738Y25921887D01*
X63666737Y25921888D01*
X63666736Y25921888D01*
X63533083Y25957700D01*
X63394717Y25957700D01*
X63261064Y25921888D01*
X63261061Y25921887D01*
X63141238Y25852708D01*
X63141233Y25852704D01*
X63043396Y25754867D01*
X63043392Y25754862D01*
X62974213Y25635040D01*
X62974211Y25635035D01*
X62962524Y25591421D01*
X62930431Y25535836D01*
X60283413Y22888817D01*
X60283409Y22888811D01*
X60224101Y22786088D01*
X60224100Y22786083D01*
X60193400Y22671509D01*
X60193400Y19597242D01*
X60173715Y19530203D01*
X60120911Y19484448D01*
X60051753Y19474504D01*
X60000510Y19494139D01*
X59926297Y19543726D01*
X59871498Y19580341D01*
X59831422Y19596941D01*
X59680320Y19659530D01*
X59680312Y19659532D01*
X59477369Y19699900D01*
X59477365Y19699900D01*
X59270435Y19699900D01*
X59270430Y19699900D01*
X59067487Y19659532D01*
X59067479Y19659530D01*
X58876303Y19580342D01*
X58704242Y19465376D01*
X58557924Y19319058D01*
X58442958Y19146997D01*
X58363770Y18955821D01*
X58363768Y18955813D01*
X58323400Y18752870D01*
X58323400Y18545931D01*
X58363768Y18342988D01*
X58363770Y18342980D01*
X58429839Y18183475D01*
X58442959Y18151802D01*
X58488504Y18083638D01*
X58557924Y17979743D01*
X58704242Y17833425D01*
X58704245Y17833423D01*
X58876302Y17718459D01*
X59067480Y17639270D01*
X59233524Y17606242D01*
X59270430Y17598901D01*
X59270434Y17598900D01*
X59270435Y17598900D01*
X59477366Y17598900D01*
X59477367Y17598901D01*
X59680320Y17639270D01*
X59871498Y17718459D01*
X60000509Y17804662D01*
X60067187Y17825539D01*
X60134567Y17807054D01*
X60181257Y17755075D01*
X60193400Y17701559D01*
X60193400Y15740365D01*
X60173715Y15673326D01*
X60157081Y15652684D01*
X54155281Y9650884D01*
X54093958Y9617399D01*
X54024266Y9622383D01*
X53968333Y9664255D01*
X53943916Y9729719D01*
X53943600Y9738565D01*
X53943600Y11589507D01*
X53943600Y11589509D01*
X53912899Y11704086D01*
X53912899Y11704087D01*
X53853589Y11806814D01*
X53510719Y12149684D01*
X53477234Y12211007D01*
X53474400Y12237365D01*
X53474400Y17701559D01*
X53494085Y17768598D01*
X53546889Y17814353D01*
X53616047Y17824297D01*
X53667290Y17804662D01*
X53796302Y17718459D01*
X53987480Y17639270D01*
X54153524Y17606242D01*
X54190430Y17598901D01*
X54190434Y17598900D01*
X54190435Y17598900D01*
X54397366Y17598900D01*
X54397367Y17598901D01*
X54600320Y17639270D01*
X54791498Y17718459D01*
X54963555Y17833423D01*
X55109877Y17979745D01*
X55224841Y18151802D01*
X55304030Y18342980D01*
X55344400Y18545935D01*
X55344400Y18752865D01*
X55344399Y18752870D01*
X55783400Y18752870D01*
X55783400Y18545931D01*
X55823768Y18342988D01*
X55823770Y18342980D01*
X55889839Y18183475D01*
X55902959Y18151802D01*
X55948504Y18083638D01*
X56017924Y17979743D01*
X56164242Y17833425D01*
X56164245Y17833423D01*
X56336302Y17718459D01*
X56527480Y17639270D01*
X56693524Y17606242D01*
X56730430Y17598901D01*
X56730434Y17598900D01*
X56730435Y17598900D01*
X56937366Y17598900D01*
X56937367Y17598901D01*
X57140320Y17639270D01*
X57331498Y17718459D01*
X57503555Y17833423D01*
X57649877Y17979745D01*
X57764841Y18151802D01*
X57844030Y18342980D01*
X57884400Y18545935D01*
X57884400Y18752865D01*
X57844030Y18955820D01*
X57764841Y19146998D01*
X57649877Y19319055D01*
X57649876Y19319056D01*
X57649875Y19319058D01*
X57503557Y19465376D01*
X57406535Y19530203D01*
X57331498Y19580341D01*
X57291422Y19596941D01*
X57140320Y19659530D01*
X57140312Y19659532D01*
X56937369Y19699900D01*
X56937365Y19699900D01*
X56730435Y19699900D01*
X56730430Y19699900D01*
X56527487Y19659532D01*
X56527479Y19659530D01*
X56336303Y19580342D01*
X56164242Y19465376D01*
X56017924Y19319058D01*
X55902958Y19146997D01*
X55823770Y18955821D01*
X55823768Y18955813D01*
X55783400Y18752870D01*
X55344399Y18752870D01*
X55304030Y18955820D01*
X55224841Y19146998D01*
X55109877Y19319055D01*
X55109876Y19319056D01*
X55109875Y19319058D01*
X54963557Y19465376D01*
X54866535Y19530203D01*
X54791498Y19580341D01*
X54751422Y19596941D01*
X54600320Y19659530D01*
X54600312Y19659532D01*
X54397369Y19699900D01*
X54397365Y19699900D01*
X54190435Y19699900D01*
X54190430Y19699900D01*
X53987487Y19659532D01*
X53987479Y19659530D01*
X53796303Y19580342D01*
X53667290Y19494139D01*
X53600612Y19473262D01*
X53533232Y19491747D01*
X53486543Y19543726D01*
X53474400Y19597242D01*
X53474400Y32019835D01*
X53494085Y32086874D01*
X53510714Y32107513D01*
X53596736Y32193535D01*
X53652323Y32225627D01*
X53695936Y32237312D01*
X53815765Y32306495D01*
X53913605Y32404335D01*
X53982788Y32524164D01*
X54018600Y32657817D01*
X54018600Y32796183D01*
X53982788Y32929836D01*
X53913605Y33049665D01*
X53815765Y33147505D01*
X53815764Y33147506D01*
X53815761Y33147508D01*
X53695938Y33216687D01*
X53695937Y33216688D01*
X53695936Y33216688D01*
X53562283Y33252500D01*
X53423917Y33252500D01*
X53290264Y33216688D01*
X53290261Y33216687D01*
X53170438Y33147508D01*
X53170433Y33147504D01*
X53072596Y33049667D01*
X53072592Y33049662D01*
X53003413Y32929840D01*
X53003411Y32929835D01*
X52991724Y32886221D01*
X52959632Y32830636D01*
X52663410Y32534413D01*
X52663409Y32534411D01*
X52604101Y32431688D01*
X52604100Y32431683D01*
X52573400Y32317109D01*
X52573400Y28595601D01*
X52553715Y28528562D01*
X52500911Y28482807D01*
X52431753Y28472863D01*
X52368197Y28501888D01*
X52330423Y28560666D01*
X52326542Y28578813D01*
X52191724Y29565431D01*
X52080602Y30378642D01*
X52091029Y30447727D01*
X52110010Y30474859D01*
X52109456Y30475284D01*
X52114402Y30481731D01*
X52114403Y30481734D01*
X52114405Y30481735D01*
X52183588Y30601564D01*
X52219400Y30735217D01*
X52219400Y30873583D01*
X52183588Y31007236D01*
X52114405Y31127065D01*
X52016565Y31224905D01*
X52016564Y31224906D01*
X52016561Y31224908D01*
X51896738Y31294087D01*
X51896737Y31294088D01*
X51896736Y31294088D01*
X51763083Y31329900D01*
X51624717Y31329900D01*
X51491064Y31294088D01*
X51491061Y31294087D01*
X51371238Y31224908D01*
X51371233Y31224904D01*
X51273396Y31127067D01*
X51273392Y31127062D01*
X51204213Y31007239D01*
X51204212Y31007236D01*
X51168400Y30873583D01*
X51168400Y30735217D01*
X51197611Y30626202D01*
X51204212Y30601565D01*
X51204213Y30601562D01*
X51273392Y30481739D01*
X51273396Y30481734D01*
X51371233Y30383897D01*
X51371232Y30383897D01*
X51371234Y30383896D01*
X51371235Y30383895D01*
X51374618Y30381942D01*
X51376902Y30379547D01*
X51377686Y30378945D01*
X51377592Y30378823D01*
X51422835Y30331380D01*
X51435481Y30291341D01*
X51470102Y30037987D01*
X51857196Y27205159D01*
X51846769Y27136072D01*
X51827788Y27108935D01*
X51828341Y27108510D01*
X51823392Y27102061D01*
X51754213Y26982239D01*
X51754212Y26982236D01*
X51718400Y26848583D01*
X51718400Y26710218D01*
X51754212Y26576565D01*
X51754213Y26576562D01*
X51823392Y26456739D01*
X51823394Y26456736D01*
X51823395Y26456735D01*
X51921235Y26358895D01*
X52041064Y26289712D01*
X52174717Y26253900D01*
X52174719Y26253900D01*
X52313081Y26253900D01*
X52313083Y26253900D01*
X52417308Y26281827D01*
X52487156Y26280164D01*
X52545019Y26241001D01*
X52572523Y26176773D01*
X52573400Y26162052D01*
X52573400Y19597242D01*
X52553715Y19530203D01*
X52500911Y19484448D01*
X52431753Y19474504D01*
X52380510Y19494139D01*
X52306297Y19543726D01*
X52251498Y19580341D01*
X52211422Y19596941D01*
X52060320Y19659530D01*
X52060312Y19659532D01*
X51857369Y19699900D01*
X51857365Y19699900D01*
X51650435Y19699900D01*
X51650430Y19699900D01*
X51447487Y19659532D01*
X51447479Y19659530D01*
X51256303Y19580342D01*
X51084242Y19465376D01*
X50937924Y19319058D01*
X50822958Y19146997D01*
X50743770Y18955821D01*
X50743768Y18955813D01*
X50703400Y18752870D01*
X50703400Y18545931D01*
X50743768Y18342988D01*
X50743770Y18342980D01*
X50809839Y18183475D01*
X50822959Y18151802D01*
X50868504Y18083638D01*
X50937924Y17979743D01*
X51084242Y17833425D01*
X51084245Y17833423D01*
X51256302Y17718459D01*
X51447480Y17639270D01*
X51613524Y17606242D01*
X51650430Y17598901D01*
X51650434Y17598900D01*
X51650435Y17598900D01*
X51857366Y17598900D01*
X51857367Y17598901D01*
X52060320Y17639270D01*
X52251498Y17718459D01*
X52380509Y17804662D01*
X52447187Y17825539D01*
X52514567Y17807054D01*
X52561257Y17755075D01*
X52573400Y17701559D01*
X52573400Y11940092D01*
X52596960Y11852164D01*
X52596960Y11852163D01*
X52604099Y11825517D01*
X52604100Y11825515D01*
X52604101Y11825513D01*
X52663411Y11722786D01*
X52663413Y11722784D01*
X53006281Y11379916D01*
X53039766Y11318593D01*
X53042600Y11292235D01*
X53042600Y9231791D01*
X53070784Y9126606D01*
X53073302Y9117210D01*
X53073303Y9117209D01*
X53113550Y9047501D01*
X53130024Y8979601D01*
X53107172Y8913574D01*
X53052252Y8870383D01*
X53006164Y8861500D01*
X48811637Y8861500D01*
X48749637Y8878113D01*
X48710538Y8900687D01*
X48710537Y8900688D01*
X48710536Y8900688D01*
X48576883Y8936500D01*
X48438517Y8936500D01*
X48304864Y8900688D01*
X48304861Y8900687D01*
X48185038Y8831508D01*
X48185033Y8831504D01*
X48087196Y8733667D01*
X48087192Y8733662D01*
X48018013Y8613839D01*
X48018012Y8613836D01*
X47982200Y8480183D01*
X47982200Y8341817D01*
X48003198Y8263453D01*
X48018012Y8208165D01*
X48018013Y8208162D01*
X48087192Y8088339D01*
X48087194Y8088336D01*
X48087195Y8088335D01*
X48185035Y7990495D01*
X48185036Y7990494D01*
X48185038Y7990493D01*
X48194052Y7985289D01*
X48304864Y7921312D01*
X48438517Y7885500D01*
X48438519Y7885500D01*
X48576881Y7885500D01*
X48576883Y7885500D01*
X48710536Y7921312D01*
X48749637Y7943888D01*
X48811637Y7960500D01*
X51158500Y7960500D01*
X51225539Y7940815D01*
X51271294Y7888011D01*
X51281238Y7818853D01*
X51265888Y7774501D01*
X51258202Y7761189D01*
X51258201Y7761187D01*
X51258201Y7761186D01*
X51227500Y7646609D01*
X51227500Y7527991D01*
X51258201Y7413414D01*
X51317511Y7310687D01*
X51401387Y7226811D01*
X51504114Y7167501D01*
X51618691Y7136800D01*
X51618694Y7136800D01*
X51737306Y7136800D01*
X51737309Y7136800D01*
X51851886Y7167501D01*
X51954613Y7226811D01*
X51954620Y7226819D01*
X51961059Y7231758D01*
X51962157Y7230327D01*
X52014606Y7258966D01*
X52040964Y7261800D01*
X55070551Y7261800D01*
X55070553Y7261800D01*
X55153339Y7283982D01*
X55227562Y7326835D01*
X65951942Y18051216D01*
X66013263Y18084699D01*
X66082955Y18079715D01*
X66138888Y18037843D01*
X66142723Y18032425D01*
X66177925Y17979742D01*
X66324242Y17833425D01*
X66324245Y17833423D01*
X66496302Y17718459D01*
X66687480Y17639270D01*
X66853524Y17606242D01*
X66875212Y17601928D01*
X66937123Y17569544D01*
X66971697Y17508828D01*
X66967958Y17439058D01*
X66938702Y17392630D01*
X56012292Y6466219D01*
X55950969Y6432734D01*
X55934549Y6430969D01*
X55934551Y6430961D01*
X55926494Y6429901D01*
X55892453Y6420780D01*
X55811914Y6399199D01*
X55811912Y6399199D01*
X55811912Y6399198D01*
X55709187Y6339889D01*
X55709184Y6339887D01*
X55625313Y6256016D01*
X55625311Y6256013D01*
X55566001Y6153286D01*
X55535300Y6038709D01*
X55535300Y6038707D01*
X55535300Y5920090D01*
X55538059Y5909795D01*
X55536398Y5839945D01*
X55497236Y5782082D01*
X55433008Y5754577D01*
X55418285Y5753700D01*
X46455888Y5753700D01*
X46388849Y5773385D01*
X46368211Y5790015D01*
X46205316Y5952910D01*
X46171834Y6014231D01*
X46170068Y6030651D01*
X46170061Y6030649D01*
X46169000Y6038706D01*
X46169000Y6038707D01*
X46169000Y6038709D01*
X46138299Y6153286D01*
X46078989Y6256013D01*
X45995113Y6339889D01*
X45892386Y6399199D01*
X45777809Y6429900D01*
X45659191Y6429900D01*
X45544614Y6399199D01*
X45544612Y6399199D01*
X45544612Y6399198D01*
X45441887Y6339889D01*
X45441884Y6339887D01*
X45358013Y6256016D01*
X45358011Y6256013D01*
X45298701Y6153286D01*
X45268000Y6038709D01*
X36801711Y6038709D01*
X38640535Y7877534D01*
X38696123Y7909626D01*
X38739732Y7921311D01*
X38739731Y7921311D01*
X38739736Y7921312D01*
X38859565Y7990495D01*
X38957405Y8088335D01*
X39026588Y8208164D01*
X39062400Y8341817D01*
X39062400Y8480183D01*
X39026588Y8613836D01*
X38970871Y8710341D01*
X38957407Y8733662D01*
X38957403Y8733667D01*
X38859566Y8831504D01*
X38859561Y8831508D01*
X38739738Y8900687D01*
X38739737Y8900688D01*
X38739736Y8900688D01*
X38606083Y8936500D01*
X38467717Y8936500D01*
X38334064Y8900688D01*
X38334061Y8900687D01*
X38214238Y8831508D01*
X38214233Y8831504D01*
X38116396Y8733667D01*
X38116392Y8733662D01*
X38047213Y8613840D01*
X38047211Y8613835D01*
X38035524Y8570221D01*
X38003431Y8514636D01*
X33108216Y3619419D01*
X33046893Y3585934D01*
X33020535Y3583100D01*
X19159278Y3583100D01*
X19092239Y3602785D01*
X19046484Y3655589D01*
X19036540Y3724747D01*
X19039504Y3739195D01*
X19045800Y3762691D01*
X19045800Y3762698D01*
X19046861Y3770751D01*
X19048649Y3770516D01*
X19065485Y3827850D01*
X19082119Y3848492D01*
X19715866Y4482239D01*
X20420565Y5186938D01*
X20463417Y5261161D01*
X20463418Y5261162D01*
X20485600Y5343947D01*
X20485600Y5659015D01*
X20505285Y5726054D01*
X20558089Y5771809D01*
X20627247Y5781753D01*
X20690803Y5752728D01*
X20716986Y5721016D01*
X20727511Y5702787D01*
X20811387Y5618911D01*
X20914114Y5559601D01*
X21028691Y5528900D01*
X21028694Y5528900D01*
X21147306Y5528900D01*
X21147309Y5528900D01*
X21261886Y5559601D01*
X21364613Y5618911D01*
X21364620Y5618919D01*
X21371059Y5623858D01*
X21372157Y5622427D01*
X21424606Y5651066D01*
X21450964Y5653900D01*
X25425451Y5653900D01*
X25425453Y5653900D01*
X25508239Y5676082D01*
X25582462Y5718935D01*
X36171752Y16308228D01*
X36171757Y16308231D01*
X36181960Y16318435D01*
X36181962Y16318435D01*
X36242565Y16379038D01*
X36285418Y16453262D01*
X36307601Y16536047D01*
X36307601Y16621753D01*
X36307601Y16629348D01*
X36307600Y16629366D01*
X36307600Y19273100D01*
X37153400Y19273100D01*
X37153400Y19085701D01*
X37182713Y18900630D01*
X37182714Y18900624D01*
X37240621Y18722407D01*
X37321929Y18562829D01*
X37325694Y18555441D01*
X37325695Y18555438D01*
X37366410Y18499400D01*
X37435838Y18403841D01*
X37568341Y18271338D01*
X37629170Y18227143D01*
X37719937Y18161196D01*
X37719938Y18161196D01*
X37719942Y18161193D01*
X37886907Y18076121D01*
X38065124Y18018214D01*
X38157665Y18003557D01*
X38250201Y17988900D01*
X38250206Y17988900D01*
X38437599Y17988900D01*
X38521722Y18002225D01*
X38622676Y18018214D01*
X38800893Y18076121D01*
X38967858Y18161193D01*
X39119459Y18271338D01*
X39251962Y18403841D01*
X39362107Y18555442D01*
X39447179Y18722407D01*
X39451587Y18735972D01*
X40493900Y18735972D01*
X40493900Y18562829D01*
X40520985Y18391816D01*
X40574491Y18227143D01*
X40653098Y18072872D01*
X40717119Y17984754D01*
X40717120Y17984753D01*
X41150229Y18417862D01*
X41193801Y18342393D01*
X41286893Y18249301D01*
X41362360Y18205730D01*
X40929251Y17772622D01*
X40929252Y17772620D01*
X41017371Y17708599D01*
X41171642Y17629992D01*
X41336315Y17576486D01*
X41507329Y17549400D01*
X41680471Y17549400D01*
X41851484Y17576486D01*
X42016157Y17629992D01*
X42170425Y17708597D01*
X42258546Y17772622D01*
X42258547Y17772622D01*
X41825439Y18205730D01*
X41900907Y18249301D01*
X41993999Y18342393D01*
X42037570Y18417862D01*
X42470678Y17984753D01*
X42470678Y17984754D01*
X42534703Y18072875D01*
X42613308Y18227143D01*
X42666814Y18391816D01*
X42693900Y18562829D01*
X42693900Y18735972D01*
X43033900Y18735972D01*
X43033900Y18562829D01*
X43060985Y18391816D01*
X43114491Y18227143D01*
X43193098Y18072872D01*
X43257119Y17984754D01*
X43257120Y17984753D01*
X43690229Y18417862D01*
X43733801Y18342393D01*
X43826893Y18249301D01*
X43902360Y18205730D01*
X43469251Y17772622D01*
X43469252Y17772620D01*
X43557371Y17708599D01*
X43711642Y17629992D01*
X43876315Y17576486D01*
X44047329Y17549400D01*
X44220471Y17549400D01*
X44391484Y17576486D01*
X44556157Y17629992D01*
X44710425Y17708597D01*
X44798546Y17772622D01*
X44798547Y17772622D01*
X44365439Y18205730D01*
X44440907Y18249301D01*
X44533999Y18342393D01*
X44577570Y18417861D01*
X45010678Y17984753D01*
X45010678Y17984754D01*
X45074703Y18072875D01*
X45153308Y18227143D01*
X45206814Y18391816D01*
X45233900Y18562829D01*
X45233900Y18735970D01*
X45233331Y18739563D01*
X45233331Y18739565D01*
X45231224Y18752870D01*
X45623400Y18752870D01*
X45623400Y18545931D01*
X45663768Y18342988D01*
X45663770Y18342980D01*
X45729839Y18183475D01*
X45742959Y18151802D01*
X45788504Y18083638D01*
X45857924Y17979743D01*
X46004242Y17833425D01*
X46004245Y17833423D01*
X46176302Y17718459D01*
X46367480Y17639270D01*
X46533524Y17606242D01*
X46570430Y17598901D01*
X46570434Y17598900D01*
X46570435Y17598900D01*
X46777366Y17598900D01*
X46777367Y17598901D01*
X46980320Y17639270D01*
X47171498Y17718459D01*
X47343555Y17833423D01*
X47489877Y17979745D01*
X47604841Y18151802D01*
X47684030Y18342980D01*
X47724400Y18545935D01*
X47724400Y18752865D01*
X47724399Y18752870D01*
X48163400Y18752870D01*
X48163400Y18545931D01*
X48203768Y18342988D01*
X48203770Y18342980D01*
X48269839Y18183475D01*
X48282959Y18151802D01*
X48328504Y18083638D01*
X48397924Y17979743D01*
X48544242Y17833425D01*
X48544245Y17833423D01*
X48716302Y17718459D01*
X48907480Y17639270D01*
X49073524Y17606242D01*
X49110430Y17598901D01*
X49110434Y17598900D01*
X49110435Y17598900D01*
X49317366Y17598900D01*
X49317367Y17598901D01*
X49520320Y17639270D01*
X49711498Y17718459D01*
X49883555Y17833423D01*
X50029877Y17979745D01*
X50144841Y18151802D01*
X50224030Y18342980D01*
X50264400Y18545935D01*
X50264400Y18752865D01*
X50224030Y18955820D01*
X50144841Y19146998D01*
X50029877Y19319055D01*
X50029876Y19319056D01*
X50029875Y19319058D01*
X49883557Y19465376D01*
X49786535Y19530203D01*
X49711498Y19580341D01*
X49671422Y19596941D01*
X49520320Y19659530D01*
X49520312Y19659532D01*
X49317369Y19699900D01*
X49317365Y19699900D01*
X49110435Y19699900D01*
X49110430Y19699900D01*
X48907487Y19659532D01*
X48907479Y19659530D01*
X48716303Y19580342D01*
X48544242Y19465376D01*
X48397924Y19319058D01*
X48282958Y19146997D01*
X48203770Y18955821D01*
X48203768Y18955813D01*
X48163400Y18752870D01*
X47724399Y18752870D01*
X47684030Y18955820D01*
X47604841Y19146998D01*
X47489877Y19319055D01*
X47489876Y19319056D01*
X47489875Y19319058D01*
X47343557Y19465376D01*
X47246535Y19530203D01*
X47171498Y19580341D01*
X47131422Y19596941D01*
X46980320Y19659530D01*
X46980312Y19659532D01*
X46777369Y19699900D01*
X46777365Y19699900D01*
X46570435Y19699900D01*
X46570430Y19699900D01*
X46367487Y19659532D01*
X46367479Y19659530D01*
X46176303Y19580342D01*
X46004242Y19465376D01*
X45857924Y19319058D01*
X45742958Y19146997D01*
X45663770Y18955821D01*
X45663768Y18955813D01*
X45623400Y18752870D01*
X45231224Y18752870D01*
X45206814Y18906985D01*
X45153308Y19071658D01*
X45074701Y19225929D01*
X45010680Y19314048D01*
X45010678Y19314049D01*
X44577570Y18880940D01*
X44533999Y18956407D01*
X44440907Y19049499D01*
X44365438Y19093071D01*
X44798547Y19526180D01*
X44798546Y19526181D01*
X44710428Y19590202D01*
X44556157Y19668809D01*
X44391484Y19722315D01*
X44220471Y19749400D01*
X44047329Y19749400D01*
X43876315Y19722315D01*
X43711642Y19668809D01*
X43557378Y19590206D01*
X43469252Y19526180D01*
X43902361Y19093071D01*
X43826893Y19049499D01*
X43733801Y18956407D01*
X43690229Y18880939D01*
X43257120Y19314048D01*
X43193094Y19225922D01*
X43114491Y19071658D01*
X43060985Y18906985D01*
X43033900Y18735972D01*
X42693900Y18735972D01*
X42666814Y18906985D01*
X42613308Y19071658D01*
X42534701Y19225929D01*
X42470680Y19314048D01*
X42470678Y19314049D01*
X42037570Y18880940D01*
X41993999Y18956407D01*
X41900907Y19049499D01*
X41825438Y19093071D01*
X42258547Y19526180D01*
X42258546Y19526181D01*
X42170428Y19590202D01*
X42016157Y19668809D01*
X41851484Y19722315D01*
X41680471Y19749400D01*
X41507329Y19749400D01*
X41336315Y19722315D01*
X41171642Y19668809D01*
X41017378Y19590206D01*
X40929252Y19526180D01*
X41362361Y19093071D01*
X41286893Y19049499D01*
X41193801Y18956407D01*
X41150229Y18880939D01*
X40717120Y19314048D01*
X40653094Y19225922D01*
X40574491Y19071658D01*
X40520985Y18906985D01*
X40493900Y18735972D01*
X39451587Y18735972D01*
X39505086Y18900624D01*
X39518114Y18982883D01*
X39534400Y19085701D01*
X39534400Y19273100D01*
X39505087Y19458170D01*
X39505086Y19458171D01*
X39505086Y19458176D01*
X39447179Y19636393D01*
X39362107Y19803358D01*
X39362104Y19803362D01*
X39362104Y19803363D01*
X39323226Y19856873D01*
X39251962Y19954959D01*
X39119459Y20087462D01*
X39062402Y20128916D01*
X38967862Y20197605D01*
X38967859Y20197606D01*
X38967860Y20197606D01*
X38967858Y20197607D01*
X38800893Y20282679D01*
X38622676Y20340586D01*
X38622670Y20340587D01*
X38437599Y20369900D01*
X38437594Y20369900D01*
X38250206Y20369900D01*
X38250201Y20369900D01*
X38065129Y20340587D01*
X38065127Y20340587D01*
X38065124Y20340586D01*
X37886907Y20282679D01*
X37886904Y20282678D01*
X37886902Y20282677D01*
X37719940Y20197606D01*
X37719937Y20197605D01*
X37607196Y20115692D01*
X37568341Y20087462D01*
X37568339Y20087460D01*
X37568338Y20087460D01*
X37435840Y19954962D01*
X37435840Y19954961D01*
X37435838Y19954959D01*
X37408202Y19916923D01*
X37325695Y19803363D01*
X37325694Y19803360D01*
X37240623Y19636398D01*
X37240622Y19636396D01*
X37240621Y19636393D01*
X37182714Y19458176D01*
X37182713Y19458173D01*
X37182713Y19458171D01*
X37153400Y19273100D01*
X36307600Y19273100D01*
X36307600Y20471412D01*
X36327285Y20538451D01*
X36343914Y20559088D01*
X56296796Y40511971D01*
X56358117Y40545454D01*
X56427809Y40540470D01*
X56431928Y40538849D01*
X56433483Y40538205D01*
X56527480Y40499270D01*
X56713508Y40462267D01*
X56730430Y40458901D01*
X56730434Y40458900D01*
X56730435Y40458900D01*
X56937366Y40458900D01*
X56937367Y40458901D01*
X57140320Y40499270D01*
X57331498Y40578459D01*
X57503555Y40693423D01*
X57649877Y40839745D01*
X57764841Y41011802D01*
X57844030Y41202980D01*
X57884400Y41405935D01*
X57884400Y41612865D01*
X57884399Y41612870D01*
X58323400Y41612870D01*
X58323400Y41405931D01*
X58363768Y41202988D01*
X58363770Y41202980D01*
X58429399Y41044537D01*
X58442959Y41011802D01*
X58474041Y40965284D01*
X58557924Y40839743D01*
X58704242Y40693425D01*
X58704245Y40693423D01*
X58876302Y40578459D01*
X59067480Y40499270D01*
X59253508Y40462267D01*
X59270430Y40458901D01*
X59270434Y40458900D01*
X59270435Y40458900D01*
X59477366Y40458900D01*
X59477367Y40458901D01*
X59680320Y40499270D01*
X59871498Y40578459D01*
X60043555Y40693423D01*
X60189877Y40839745D01*
X60304841Y41011802D01*
X60384030Y41202980D01*
X60424400Y41405935D01*
X60424400Y41612865D01*
X60424399Y41612870D01*
X60863400Y41612870D01*
X60863400Y41405931D01*
X60903768Y41202988D01*
X60903770Y41202980D01*
X60969399Y41044537D01*
X60982959Y41011802D01*
X61014041Y40965284D01*
X61097924Y40839743D01*
X61244242Y40693425D01*
X61244245Y40693423D01*
X61416302Y40578459D01*
X61607480Y40499270D01*
X61793508Y40462267D01*
X61810430Y40458901D01*
X61810434Y40458900D01*
X61810435Y40458900D01*
X62017366Y40458900D01*
X62017367Y40458901D01*
X62220320Y40499270D01*
X62411498Y40578459D01*
X62583555Y40693423D01*
X62729877Y40839745D01*
X62844841Y41011802D01*
X62924030Y41202980D01*
X62964400Y41405935D01*
X62964400Y41612865D01*
X62964399Y41612870D01*
X63403400Y41612870D01*
X63403400Y41405931D01*
X63443768Y41202988D01*
X63443770Y41202980D01*
X63509399Y41044537D01*
X63522959Y41011802D01*
X63554041Y40965284D01*
X63637924Y40839743D01*
X63784242Y40693425D01*
X63784245Y40693423D01*
X63956302Y40578459D01*
X64147480Y40499270D01*
X64333508Y40462267D01*
X64350430Y40458901D01*
X64350434Y40458900D01*
X64350435Y40458900D01*
X64557366Y40458900D01*
X64557367Y40458901D01*
X64760320Y40499270D01*
X64951498Y40578459D01*
X65123555Y40693423D01*
X65269877Y40839745D01*
X65384841Y41011802D01*
X65464030Y41202980D01*
X65504400Y41405935D01*
X65504400Y41612865D01*
X65464030Y41815820D01*
X65384841Y42006998D01*
X65269877Y42179055D01*
X65269875Y42179058D01*
X65123557Y42325376D01*
X64955555Y42437630D01*
X64951498Y42440341D01*
X64932416Y42448245D01*
X64760320Y42519530D01*
X64760312Y42519532D01*
X64557369Y42559900D01*
X64557365Y42559900D01*
X64350435Y42559900D01*
X64350430Y42559900D01*
X64147487Y42519532D01*
X64147479Y42519530D01*
X63956303Y42440342D01*
X63784242Y42325376D01*
X63637924Y42179058D01*
X63522958Y42006997D01*
X63443770Y41815821D01*
X63443768Y41815813D01*
X63403400Y41612870D01*
X62964399Y41612870D01*
X62924030Y41815820D01*
X62844841Y42006998D01*
X62729877Y42179055D01*
X62729875Y42179058D01*
X62583557Y42325376D01*
X62415555Y42437630D01*
X62411498Y42440341D01*
X62392416Y42448245D01*
X62220320Y42519530D01*
X62220312Y42519532D01*
X62017369Y42559900D01*
X62017365Y42559900D01*
X61810435Y42559900D01*
X61810430Y42559900D01*
X61607487Y42519532D01*
X61607479Y42519530D01*
X61416303Y42440342D01*
X61244242Y42325376D01*
X61097924Y42179058D01*
X60982958Y42006997D01*
X60903770Y41815821D01*
X60903768Y41815813D01*
X60863400Y41612870D01*
X60424399Y41612870D01*
X60384030Y41815820D01*
X60304841Y42006998D01*
X60189877Y42179055D01*
X60189875Y42179058D01*
X60043557Y42325376D01*
X59875555Y42437630D01*
X59871498Y42440341D01*
X59852416Y42448245D01*
X59680320Y42519530D01*
X59680312Y42519532D01*
X59477369Y42559900D01*
X59477365Y42559900D01*
X59270435Y42559900D01*
X59270430Y42559900D01*
X59067487Y42519532D01*
X59067479Y42519530D01*
X58876303Y42440342D01*
X58704242Y42325376D01*
X58557924Y42179058D01*
X58442958Y42006997D01*
X58363770Y41815821D01*
X58363768Y41815813D01*
X58323400Y41612870D01*
X57884399Y41612870D01*
X57844030Y41815820D01*
X57764841Y42006998D01*
X57649877Y42179055D01*
X57649875Y42179058D01*
X57503557Y42325376D01*
X57335555Y42437630D01*
X57331498Y42440341D01*
X57312416Y42448245D01*
X57140320Y42519530D01*
X57140312Y42519532D01*
X56937369Y42559900D01*
X56937365Y42559900D01*
X56730435Y42559900D01*
X56730430Y42559900D01*
X56527487Y42519532D01*
X56527479Y42519530D01*
X56336303Y42440342D01*
X56164242Y42325376D01*
X56017924Y42179058D01*
X55902958Y42006997D01*
X55823770Y41815821D01*
X55823768Y41815813D01*
X55783400Y41612870D01*
X55783400Y41405931D01*
X55823768Y41202988D01*
X55823770Y41202980D01*
X55837386Y41170107D01*
X55863348Y41107431D01*
X55870817Y41037962D01*
X55839542Y40975482D01*
X55836468Y40972297D01*
X35721637Y20857465D01*
X35721633Y20857459D01*
X35678781Y20783239D01*
X35678782Y20783238D01*
X35656600Y20700453D01*
X35656600Y16765090D01*
X35636915Y16698051D01*
X35620281Y16677409D01*
X31036011Y12093140D01*
X30974688Y12059655D01*
X30904996Y12064639D01*
X30849063Y12106511D01*
X30824646Y12171975D01*
X30825390Y12197000D01*
X30844400Y12341389D01*
X30844400Y12577411D01*
X30813593Y12811414D01*
X30752506Y13039393D01*
X30662184Y13257449D01*
X30662182Y13257452D01*
X30662180Y13257457D01*
X30579882Y13400000D01*
X30544173Y13461850D01*
X30400492Y13649099D01*
X30400487Y13649105D01*
X30233604Y13815988D01*
X30233597Y13815994D01*
X30046354Y13959670D01*
X30046353Y13959671D01*
X30046350Y13959673D01*
X29964857Y14006723D01*
X29841956Y14077681D01*
X29841945Y14077686D01*
X29623893Y14168006D01*
X29395910Y14229094D01*
X29161920Y14259899D01*
X29161917Y14259900D01*
X29161911Y14259900D01*
X28925889Y14259900D01*
X28925883Y14259900D01*
X28925879Y14259899D01*
X28691889Y14229094D01*
X28463906Y14168006D01*
X28245854Y14077686D01*
X28245843Y14077681D01*
X28041445Y13959670D01*
X27854202Y13815994D01*
X27854195Y13815988D01*
X27687312Y13649105D01*
X27687306Y13649098D01*
X27543630Y13461855D01*
X27425619Y13257457D01*
X27425614Y13257446D01*
X27335294Y13039394D01*
X27274206Y12811411D01*
X27243401Y12577421D01*
X27243400Y12577405D01*
X27243400Y12341396D01*
X27243401Y12341380D01*
X27265703Y12171975D01*
X27274207Y12107386D01*
X27278024Y12093140D01*
X27335294Y11879407D01*
X27425614Y11661355D01*
X27425619Y11661344D01*
X27467094Y11589509D01*
X27543627Y11456950D01*
X27543629Y11456947D01*
X27543630Y11456946D01*
X27687306Y11269703D01*
X27687312Y11269696D01*
X27854195Y11102813D01*
X27854201Y11102808D01*
X28041450Y10959127D01*
X28172818Y10883282D01*
X28245843Y10841120D01*
X28245848Y10841118D01*
X28245851Y10841116D01*
X28463907Y10750794D01*
X28691886Y10689707D01*
X28925889Y10658900D01*
X28925896Y10658900D01*
X29161904Y10658900D01*
X29161911Y10658900D01*
X29306295Y10677909D01*
X29375328Y10667144D01*
X29427584Y10620764D01*
X29446470Y10553495D01*
X29425990Y10486695D01*
X29410160Y10467289D01*
X25284092Y6341219D01*
X25222769Y6307734D01*
X25196411Y6304900D01*
X22319891Y6304900D01*
X22252852Y6324585D01*
X22207097Y6377389D01*
X22197153Y6446547D01*
X22212505Y6490902D01*
X22214335Y6494072D01*
X22220999Y6505614D01*
X22251700Y6620191D01*
X22251700Y6738809D01*
X22220999Y6853386D01*
X22161689Y6956113D01*
X22161684Y6956118D01*
X22156742Y6962559D01*
X22158173Y6963658D01*
X22129534Y7016106D01*
X22126700Y7042464D01*
X22126700Y16448313D01*
X22146385Y16515352D01*
X22163014Y16535989D01*
X22505906Y16878881D01*
X26533900Y16878881D01*
X26533900Y16679920D01*
X26572712Y16484802D01*
X26572714Y16484794D01*
X26648849Y16300988D01*
X26730762Y16178396D01*
X27092907Y16540541D01*
X27135798Y16466253D01*
X27230753Y16371298D01*
X27305039Y16328409D01*
X26942894Y15966264D01*
X26942894Y15966262D01*
X27065484Y15884351D01*
X27065483Y15884351D01*
X27249293Y15808215D01*
X27249301Y15808213D01*
X27444419Y15769401D01*
X27444422Y15769400D01*
X27643378Y15769400D01*
X27643380Y15769401D01*
X27838498Y15808213D01*
X27838506Y15808215D01*
X28022311Y15884349D01*
X28022320Y15884354D01*
X28144905Y15966263D01*
X27782760Y16328409D01*
X27857047Y16371298D01*
X27952002Y16466253D01*
X27994892Y16540540D01*
X28357037Y16178395D01*
X28438946Y16300980D01*
X28438951Y16300989D01*
X28515085Y16484794D01*
X28515087Y16484802D01*
X28553899Y16679920D01*
X28553900Y16679922D01*
X28553900Y16878879D01*
X28553899Y16878881D01*
X28515087Y17073999D01*
X28515085Y17074007D01*
X28438949Y17257816D01*
X28357038Y17380406D01*
X28357036Y17380406D01*
X27994891Y17018261D01*
X27952002Y17092547D01*
X27857047Y17187502D01*
X27782759Y17230393D01*
X28111519Y17559153D01*
X29583400Y17559153D01*
X29583400Y15999648D01*
X29595031Y15941171D01*
X29595032Y15941170D01*
X29639347Y15874848D01*
X29705669Y15830533D01*
X29705670Y15830532D01*
X29764147Y15818901D01*
X29764150Y15818900D01*
X29764152Y15818900D01*
X31323650Y15818900D01*
X31323651Y15818901D01*
X31338468Y15821848D01*
X31382129Y15830532D01*
X31382129Y15830533D01*
X31382131Y15830533D01*
X31448452Y15874848D01*
X31492767Y15941169D01*
X31492767Y15941171D01*
X31492768Y15941171D01*
X31504399Y15999648D01*
X31504400Y15999650D01*
X31504400Y17559151D01*
X31504399Y17559153D01*
X31492768Y17617630D01*
X31492767Y17617631D01*
X31448452Y17683953D01*
X31382130Y17728268D01*
X31382129Y17728269D01*
X31323652Y17739900D01*
X31323648Y17739900D01*
X31118400Y17739900D01*
X31051361Y17759585D01*
X31005606Y17812389D01*
X30994400Y17863900D01*
X30994400Y23177436D01*
X31014085Y23244475D01*
X31030714Y23265112D01*
X38801681Y31036080D01*
X38863002Y31069563D01*
X38921453Y31068172D01*
X38928886Y31066181D01*
X38974717Y31053900D01*
X38974719Y31053900D01*
X39113081Y31053900D01*
X39113083Y31053900D01*
X39246736Y31089712D01*
X39366565Y31158895D01*
X39464405Y31256735D01*
X39533588Y31376564D01*
X39533588Y31376568D01*
X39537651Y31383603D01*
X39539222Y31382696D01*
X39569425Y31422900D01*
X42585428Y33835702D01*
X42630790Y33858645D01*
X42746736Y33889712D01*
X42866565Y33958895D01*
X42964405Y34056735D01*
X43033588Y34176564D01*
X43069400Y34310217D01*
X43069400Y34448583D01*
X43033588Y34582236D01*
X42988767Y34659869D01*
X42964407Y34702062D01*
X42964403Y34702067D01*
X42866566Y34799904D01*
X42866561Y34799908D01*
X42746738Y34869087D01*
X42746737Y34869088D01*
X42746736Y34869088D01*
X42613083Y34904900D01*
X42474717Y34904900D01*
X42341064Y34869088D01*
X42341061Y34869087D01*
X42221238Y34799908D01*
X42221233Y34799904D01*
X42123396Y34702067D01*
X42123392Y34702062D01*
X42050148Y34575198D01*
X42048581Y34576103D01*
X42018371Y34535900D01*
X39002373Y32123101D01*
X38957005Y32100154D01*
X38841062Y32069088D01*
X38841061Y32069087D01*
X38801963Y32046513D01*
X38739963Y32029900D01*
X38648590Y32029900D01*
X38558224Y32005687D01*
X38558223Y32005688D01*
X38534014Y31999200D01*
X38534005Y31999196D01*
X38431291Y31939895D01*
X38431283Y31939889D01*
X30183413Y23692017D01*
X30183409Y23692011D01*
X30124101Y23589288D01*
X30124100Y23589283D01*
X30093400Y23474709D01*
X30093400Y17863900D01*
X30073715Y17796861D01*
X30020911Y17751106D01*
X29969400Y17739900D01*
X29764147Y17739900D01*
X29705670Y17728269D01*
X29705669Y17728268D01*
X29639347Y17683953D01*
X29595032Y17617631D01*
X29595031Y17617630D01*
X29583400Y17559153D01*
X28111519Y17559153D01*
X28144904Y17592538D01*
X28144904Y17592539D01*
X28022312Y17674451D01*
X27838506Y17750586D01*
X27838498Y17750588D01*
X27643379Y17789400D01*
X27444421Y17789400D01*
X27249301Y17750588D01*
X27249293Y17750586D01*
X27065487Y17674451D01*
X26942894Y17592538D01*
X26942893Y17592538D01*
X27305039Y17230392D01*
X27230753Y17187502D01*
X27135798Y17092547D01*
X27092908Y17018261D01*
X26730762Y17380407D01*
X26730762Y17380406D01*
X26648849Y17257813D01*
X26572714Y17074007D01*
X26572712Y17073999D01*
X26533900Y16878881D01*
X22505906Y16878881D01*
X46138351Y40511327D01*
X46199672Y40544810D01*
X46269364Y40539826D01*
X46273483Y40538205D01*
X46296795Y40528549D01*
X46367480Y40499270D01*
X46553508Y40462267D01*
X46570430Y40458901D01*
X46570434Y40458900D01*
X46570435Y40458900D01*
X46777366Y40458900D01*
X46777367Y40458901D01*
X46980320Y40499270D01*
X47171498Y40578459D01*
X47343555Y40693423D01*
X47489877Y40839745D01*
X47604841Y41011802D01*
X47684030Y41202980D01*
X47724400Y41405935D01*
X47724400Y41612865D01*
X47684030Y41815820D01*
X47604841Y42006998D01*
X47517770Y42137310D01*
X47496893Y42203987D01*
X47515378Y42271367D01*
X47567357Y42318057D01*
X47620873Y42330200D01*
X47881411Y42330200D01*
X47948450Y42310515D01*
X47969092Y42293881D01*
X48216468Y42046505D01*
X48249953Y41985182D01*
X48244969Y41915490D01*
X48243348Y41911372D01*
X48203771Y41815825D01*
X48203768Y41815813D01*
X48163400Y41612870D01*
X48163400Y41405931D01*
X48203768Y41202988D01*
X48203770Y41202980D01*
X48269399Y41044537D01*
X48282959Y41011802D01*
X48314041Y40965284D01*
X48397924Y40839743D01*
X48544242Y40693425D01*
X48544245Y40693423D01*
X48716302Y40578459D01*
X48907480Y40499270D01*
X49093508Y40462267D01*
X49110430Y40458901D01*
X49110434Y40458900D01*
X49110435Y40458900D01*
X49317366Y40458900D01*
X49317367Y40458901D01*
X49520320Y40499270D01*
X49711498Y40578459D01*
X49883555Y40693423D01*
X50029877Y40839745D01*
X50144841Y41011802D01*
X50224030Y41202980D01*
X50264400Y41405935D01*
X50264400Y41612865D01*
X50224030Y41815820D01*
X50144841Y42006998D01*
X50029877Y42179055D01*
X50029875Y42179058D01*
X49883557Y42325376D01*
X49715555Y42437630D01*
X49711498Y42440341D01*
X49692416Y42448245D01*
X49520320Y42519530D01*
X49520312Y42519532D01*
X49471793Y42529183D01*
X49409882Y42561568D01*
X49375308Y42622283D01*
X49379047Y42692053D01*
X49419913Y42748725D01*
X49484931Y42774306D01*
X49495984Y42774800D01*
X49976811Y42774800D01*
X50043850Y42755115D01*
X50064492Y42738481D01*
X50756468Y42046505D01*
X50789953Y41985182D01*
X50784969Y41915490D01*
X50783348Y41911372D01*
X50743771Y41815825D01*
X50743768Y41815813D01*
X50703400Y41612870D01*
X50703400Y41405931D01*
X50743768Y41202988D01*
X50743770Y41202980D01*
X50809399Y41044537D01*
X50822959Y41011802D01*
X50854041Y40965284D01*
X50937924Y40839743D01*
X51084242Y40693425D01*
X51084245Y40693423D01*
X51256302Y40578459D01*
X51447480Y40499270D01*
X51633508Y40462267D01*
X51650430Y40458901D01*
X51650434Y40458900D01*
X51650435Y40458900D01*
X51857366Y40458900D01*
X51857367Y40458901D01*
X52060320Y40499270D01*
X52251498Y40578459D01*
X52423555Y40693423D01*
X52569877Y40839745D01*
X52684841Y41011802D01*
X52764030Y41202980D01*
X52804400Y41405935D01*
X52804400Y41612865D01*
X52764030Y41815820D01*
X52684841Y42006998D01*
X52569877Y42179055D01*
X52569875Y42179058D01*
X52423557Y42325376D01*
X52255555Y42437630D01*
X52251498Y42440341D01*
X52232416Y42448245D01*
X52060320Y42519530D01*
X52060312Y42519532D01*
X51857369Y42559900D01*
X51857365Y42559900D01*
X51650435Y42559900D01*
X51650430Y42559900D01*
X51447487Y42519532D01*
X51447475Y42519529D01*
X51351928Y42479952D01*
X51282459Y42472483D01*
X51219980Y42503759D01*
X51216795Y42506832D01*
X50752208Y42971419D01*
X50718723Y43032742D01*
X50723707Y43102434D01*
X50765579Y43158367D01*
X50831043Y43182784D01*
X50839889Y43183100D01*
X52108511Y43183100D01*
X52175550Y43163415D01*
X52196192Y43146781D01*
X53296468Y42046505D01*
X53329953Y41985182D01*
X53324969Y41915490D01*
X53323348Y41911372D01*
X53283771Y41815825D01*
X53283768Y41815813D01*
X53243400Y41612870D01*
X53243400Y41405931D01*
X53283768Y41202988D01*
X53283770Y41202980D01*
X53349399Y41044537D01*
X53362959Y41011802D01*
X53394041Y40965284D01*
X53477924Y40839743D01*
X53624242Y40693425D01*
X53624245Y40693423D01*
X53796302Y40578459D01*
X53987480Y40499270D01*
X54173508Y40462267D01*
X54190430Y40458901D01*
X54190434Y40458900D01*
X54190435Y40458900D01*
X54397366Y40458900D01*
X54397367Y40458901D01*
X54600320Y40499270D01*
X54791498Y40578459D01*
X54963555Y40693423D01*
X55109877Y40839745D01*
X55224841Y41011802D01*
X55304030Y41202980D01*
X55344400Y41405935D01*
X55344400Y41612865D01*
X55304030Y41815820D01*
X55224841Y42006998D01*
X55109877Y42179055D01*
X55109875Y42179058D01*
X54963557Y42325376D01*
X54795555Y42437630D01*
X54791498Y42440341D01*
X54772416Y42448245D01*
X54600320Y42519530D01*
X54600312Y42519532D01*
X54397369Y42559900D01*
X54397365Y42559900D01*
X54190435Y42559900D01*
X54190430Y42559900D01*
X53987487Y42519532D01*
X53987475Y42519529D01*
X53891928Y42479952D01*
X53822459Y42472483D01*
X53759980Y42503759D01*
X53756795Y42506832D01*
X52494564Y43769063D01*
X52494562Y43769065D01*
X52457448Y43790493D01*
X52420340Y43811918D01*
X52378946Y43823009D01*
X52337553Y43834100D01*
X38772553Y43834100D01*
X38686847Y43834100D01*
X38604061Y43811918D01*
X38604058Y43811917D01*
X38566950Y43790493D01*
X38566950Y43790492D01*
X38529838Y43769065D01*
X38529835Y43769063D01*
X35868637Y41107865D01*
X35868635Y41107862D01*
X35825782Y41033640D01*
X35819931Y41011804D01*
X35807467Y40965286D01*
X35805469Y40957828D01*
X35803600Y40950854D01*
X35803600Y34495589D01*
X35783915Y34428550D01*
X35767281Y34407908D01*
X10301937Y8942565D01*
X10301933Y8942559D01*
X10259081Y8868338D01*
X10259080Y8868338D01*
X10249267Y8831711D01*
X10249258Y8831673D01*
X10248783Y8829900D01*
X10236900Y8785553D01*
X543900Y8785553D01*
X543900Y14640912D01*
X6850000Y14640912D01*
X6850000Y14359089D01*
X6850001Y14359072D01*
X6886786Y14079660D01*
X6959733Y13807418D01*
X7067584Y13547043D01*
X7067589Y13547032D01*
X7208500Y13302969D01*
X7208511Y13302953D01*
X7374498Y13086633D01*
X7374499Y13086633D01*
X8123219Y13835353D01*
X8160967Y13783398D01*
X8283398Y13660967D01*
X8335351Y13623221D01*
X7586631Y12874501D01*
X7586631Y12874500D01*
X7802952Y12708512D01*
X7802968Y12708501D01*
X8047031Y12567590D01*
X8047042Y12567585D01*
X8307417Y12459734D01*
X8579659Y12386787D01*
X8859071Y12350002D01*
X8859089Y12350000D01*
X9140911Y12350000D01*
X9140928Y12350002D01*
X9420340Y12386787D01*
X9692582Y12459734D01*
X9952957Y12567585D01*
X9952968Y12567590D01*
X10197031Y12708501D01*
X10197047Y12708512D01*
X10413367Y12874500D01*
X10413367Y12874501D01*
X9664647Y13623221D01*
X9716602Y13660967D01*
X9839033Y13783398D01*
X9876779Y13835353D01*
X10625499Y13086633D01*
X10625500Y13086633D01*
X10791488Y13302953D01*
X10791499Y13302969D01*
X10932410Y13547032D01*
X10932415Y13547043D01*
X11040266Y13807418D01*
X11113213Y14079660D01*
X11149998Y14359072D01*
X11150000Y14359089D01*
X11150000Y14640912D01*
X11149998Y14640929D01*
X11113213Y14920341D01*
X11040266Y15192583D01*
X10932415Y15452958D01*
X10932410Y15452969D01*
X10791499Y15697032D01*
X10791488Y15697048D01*
X10625500Y15913369D01*
X10625499Y15913369D01*
X9876779Y15164649D01*
X9839033Y15216602D01*
X9716602Y15339033D01*
X9664647Y15376780D01*
X10413367Y16125501D01*
X10413367Y16125502D01*
X10197047Y16291489D01*
X10197031Y16291500D01*
X9952968Y16432411D01*
X9952957Y16432416D01*
X9692582Y16540267D01*
X9420340Y16613214D01*
X9140928Y16649999D01*
X9140911Y16650000D01*
X8859089Y16650000D01*
X8859071Y16649999D01*
X8579659Y16613214D01*
X8307417Y16540267D01*
X8047042Y16432416D01*
X8047038Y16432414D01*
X7802953Y16291490D01*
X7586631Y16125502D01*
X7586631Y16125501D01*
X8335352Y15376780D01*
X8283398Y15339033D01*
X8160967Y15216602D01*
X8123220Y15164648D01*
X7374499Y15913369D01*
X7374498Y15913369D01*
X7208510Y15697047D01*
X7067586Y15452962D01*
X7067584Y15452958D01*
X6959733Y15192583D01*
X6886786Y14920341D01*
X6850001Y14640929D01*
X6850000Y14640912D01*
X543900Y14640912D01*
X543900Y45155400D01*
X563585Y45222439D01*
X616389Y45268194D01*
X667900Y45279400D01*
X101375500Y45279400D01*
X101442539Y45259715D01*
G37*
%TD.AperFunction*%
%TD*%
M02*
