M48
; DRILL file KiCad 10.0.6 date 2026-09-13T02:26:17
; FORMAT={-:-/ absolute / metric / decimal}
; #@! TF.CreationDate,2026-09-13T02:26:17-08:00
; #@! TF.GenerationSoftware,Kicad,Pcbnew,10.0.6
; #@! TF.FileFunction,Plated,1,2,PTH
FMAT,2
METRIC
; #@! TA.AperFunction,Plated,PTH,ViaDrill
T1C0.300
; #@! TA.AperFunction,Plated,PTH,ComponentDrill
T2C1.000
; #@! TA.AperFunction,Plated,PTH,ComponentDrill
T3C1.020
; #@! TA.AperFunction,Plated,PTH,ComponentDrill
T4C2.200
%
G90
G05
T1
X3.544Y43.779
X3.544Y37.779
X3.544Y21.779
X3.544Y13.779
X3.544Y2.779
X11.544Y43.779
X11.544Y37.779
X11.544Y25.779
X11.544Y21.779
X11.544Y13.779
X13.049Y8.824
X13.141Y7.584
X15.044Y4.279
X18.694Y9.079
X23.544Y43.779
X26.073Y40.022
X33.544Y43.779
X33.544Y37.779
X34.544Y39.254
X34.544Y34.254
X37.804Y9.128
X38.5Y8.448
X39.044Y31.579
X41.03Y8.455
X41.848Y5.698
X42.544Y34.379
X43.089Y32.64
X43.544Y2.779
X43.581Y35.533
X44.26Y36.899
X45.372Y39.409
X47.044Y4.279
X48.976Y7.009
X51.244Y28.579
X51.694Y30.804
X52.244Y26.779
X52.544Y11.254
X55.544Y2.779
X56.212Y20.533
X56.319Y14.779
X56.858Y16.405
X58.478Y25.791
X60.044Y7.779
X60.544Y37.979
X60.544Y30.729
X62.726Y26.697
X63.464Y5.979
X63.667Y28.067
X64.492Y27.837
X65.544Y43.779
X65.544Y13.779
X65.544Y2.779
X65.957Y27.864
X68.77Y26.314
X69.817Y19.987
X70.544Y22.579
X73.544Y11.979
X75.544Y43.779
X75.544Y37.779
X75.544Y13.779
X75.544Y2.779
X76.544Y11.979
X78.544Y23.779
X79.205Y39.541
X80.256Y36.698
X83.544Y43.779
X83.544Y21.779
X83.544Y2.779
X90.044Y34.454
X90.044Y33.184
X93.544Y43.779
X93.544Y13.779
X93.544Y2.779
T2
X41.594Y41.509
X41.594Y18.649
X44.134Y41.509
X44.134Y18.649
X46.674Y41.509
X46.674Y18.649
X49.214Y41.509
X49.214Y18.649
X51.754Y41.509
X51.754Y18.649
X54.294Y41.509
X54.294Y18.649
X56.834Y41.509
X56.834Y18.649
X59.374Y41.509
X59.374Y18.649
X61.914Y41.509
X61.914Y18.649
X64.454Y41.509
X64.454Y18.649
X66.994Y41.509
X66.994Y18.649
X69.534Y41.509
X69.534Y18.649
X72.074Y41.509
X72.074Y18.649
X74.614Y41.509
X74.614Y18.649
X77.154Y41.509
X77.154Y18.649
X79.694Y41.509
X79.694Y18.649
X82.234Y41.509
X82.234Y18.649
X83.544Y7.779
X84.774Y41.509
X84.774Y18.649
X86.084Y7.779
X87.314Y41.509
X87.314Y18.649
X89.854Y41.509
X89.854Y18.649
X92.394Y41.509
X92.394Y18.649
X94.934Y41.509
X94.934Y18.649
T3
X27.544Y16.779
X30.544Y16.779
T4
X9.0Y14.5
X99.0Y14.5
M30
